<svg width="285" height="273" viewBox="0 0 285 273" fill="none" xmlns="http://www.w3.org/2000/svg">
<g clip-path="url(#clip0_1431_697)">
<path fill-rule="evenodd" clip-rule="evenodd" d="M90.7793 242.969C90.7793 235.733 96.6741 229.831 103.9 229.831H124.436C131.662 229.831 137.556 235.733 137.556 242.969C137.556 250.204 131.662 256.106 124.436 256.106H103.9C96.6741 256.106 90.7793 250.204 90.7793 242.969Z" fill="#F49000"/>
<path fill-rule="evenodd" clip-rule="evenodd" d="M147.444 242.969C147.444 235.733 153.339 229.831 160.564 229.831H181.101C188.326 229.831 194.221 235.733 194.221 242.969C194.221 250.204 188.326 256.106 181.101 256.106H160.564C153.339 256.106 147.444 250.204 147.444 242.969Z" fill="#F49000"/>
<path d="M2.35942 193.273L76.3278 59.2289C80.321 52.184 90.0186 51.0416 95.533 56.9441C122.344 85.695 127.668 129.297 108.273 164.712C88.8777 200.128 49.1363 218.596 10.5359 210.981C2.54956 209.457 -1.63374 200.508 2.35942 193.273Z" fill="#58CC02"/>
<path d="M282.641 193.272L208.672 59.2281C204.679 51.9928 194.982 50.8504 189.277 56.7528C162.466 85.5039 157.141 129.106 176.537 164.521C195.932 199.936 235.673 218.406 274.274 210.789C282.45 209.456 286.633 200.507 282.641 193.272Z" fill="#58CC02"/>
<path fill-rule="evenodd" clip-rule="evenodd" d="M87.9269 3.44006C114.548 14.6739 132.802 20.386 142.69 20.386C152.578 20.386 170.452 14.8643 196.692 3.63048C213.996 -3.79527 234.153 4.39208 241.568 21.7189C243.279 25.9077 244.23 30.4773 244.23 35.0471V141.483C244.23 197.843 198.595 243.539 142.31 243.539C86.0254 243.348 40.3894 197.843 40.3894 141.483V34.8567C40.3894 16.0067 55.6014 0.774414 74.6164 0.774414C79.1801 0.774414 83.5535 1.72643 87.9269 3.44006Z" fill="#58CC02"/>
<path d="M134.704 173.85C135.084 172.517 134.133 171.375 132.803 171.375H107.132C105.801 171.375 104.85 172.708 105.231 173.85C107.322 179.753 113.217 183.941 119.872 183.941C126.527 183.941 132.612 179.753 134.704 173.85ZM177.488 171.375H151.817C150.486 171.375 149.536 172.708 149.916 173.85C152.008 179.753 157.902 183.941 164.558 183.941C171.213 183.941 177.297 179.753 179.389 173.85C179.77 172.708 178.819 171.375 177.488 171.375ZM155.05 192.892H129.38C128.049 192.892 127.098 194.223 127.478 195.366C129.57 201.269 135.465 205.458 142.12 205.458C148.775 205.458 154.86 201.269 156.952 195.366C157.522 194.223 156.571 192.892 155.05 192.892Z" fill="#89E219"/>
<path d="M93.8217 19.434L124.626 52.945C126.337 54.6587 125.577 57.5148 123.485 58.6572C112.837 63.4173 100.287 60.7516 92.3005 51.8025C84.3141 42.8537 82.9831 30.0965 88.6875 20.0052C90.0186 17.9109 92.1104 17.7204 93.8217 19.434Z" fill="#89E219"/>
<path fill-rule="evenodd" clip-rule="evenodd" d="M120.443 48.7565C131.661 60.1808 151.437 60.1808 163.797 48.7565C176.157 37.3323 161.895 115.017 161.895 114.636C161.895 114.636 155.24 114.446 141.93 114.636C138.317 114.636 131.852 114.636 122.725 114.636C113.787 63.2272 113.027 41.1403 120.443 48.7565Z" fill="#89E219"/>
<path d="M76.8984 27.43L106.942 61.1314C108.653 62.845 107.893 65.7011 105.801 66.8435C95.1529 71.6036 82.6028 68.9379 74.6166 59.989C66.6302 51.04 65.2993 38.283 71.1939 28.1916C72.3347 25.9067 75.1871 25.7163 76.8984 27.43Z" fill="#89E219"/>
<path fill-rule="evenodd" clip-rule="evenodd" d="M90.9693 36.7607H92.1103C114.358 36.7607 132.232 54.8491 132.232 76.936V98.2611C132.232 120.538 114.168 138.436 92.1103 138.436H90.9693C68.7217 138.436 50.8477 120.348 50.8477 98.2611V77.1264C50.8477 54.8491 68.7217 36.7607 90.9693 36.7607Z" fill="#89E219"/>
<path d="M190.419 19.434L160.184 52.945C158.473 54.6587 159.233 57.5148 161.325 58.6572C171.974 63.4173 184.524 60.7516 192.509 51.8025C200.496 42.8537 201.827 30.0965 195.933 20.0052C194.791 17.9109 191.939 17.7204 190.419 19.434Z" fill="#89E219"/>
<path d="M207.911 27.43L177.677 61.1314C175.966 62.845 176.727 65.7011 178.819 66.8435C189.466 71.6036 202.016 68.9379 210.003 59.989C217.99 51.04 219.321 38.283 213.426 28.1916C212.476 25.9067 209.623 25.7163 207.911 27.43Z" fill="#89E219"/>
<path fill-rule="evenodd" clip-rule="evenodd" d="M192.32 36.7607H193.46C215.708 36.7607 233.583 54.8491 233.583 76.936V98.2611C233.583 120.538 215.517 138.436 193.46 138.436H192.509C170.452 138.436 152.578 120.538 152.388 98.4515L152.198 77.1264C152.008 54.8491 169.882 36.7607 192.32 36.7607Z" fill="#89E219"/>
<path fill-rule="evenodd" clip-rule="evenodd" d="M142.5 98.4512C150.296 98.4512 156.761 104.925 156.761 112.731V117.301C156.761 125.108 150.296 131.581 142.5 131.581C134.704 131.581 128.239 125.108 128.239 117.301V112.731C128.239 104.925 134.704 98.4512 142.5 98.4512Z" fill="#F49000"/>
<path d="M122.724 113.684C124.436 104.925 132.802 98.4512 142.69 98.4512C152.007 98.4512 160.184 105.115 161.895 113.684V114.445C161.895 115.016 161.705 115.397 161.135 115.207L142.69 118.444C142.31 118.444 142.31 118.444 141.93 118.444L123.485 115.207C122.914 115.207 122.724 115.016 122.724 114.445V113.684Z" fill="#FFC200"/>
<path d="M146.683 107.781C146.303 107.781 146.113 107.781 145.732 107.591C143.26 106.639 140.979 106.639 138.887 107.591C137.366 108.162 135.845 107.4 135.274 106.067C134.704 104.544 135.464 103.021 136.795 102.45C140.218 101.117 143.831 101.117 147.634 102.45C149.155 103.021 149.916 104.544 149.345 106.067C148.965 107.019 147.824 107.781 146.683 107.781Z" fill="#FFDE00"/>
<path fill-rule="evenodd" clip-rule="evenodd" d="M93.061 51.2305C108.463 51.2305 121.013 63.797 121.013 79.2198V96.1658C121.013 111.588 108.463 124.155 93.061 124.155C77.6588 124.155 65.1089 111.588 65.1089 96.1658V79.2198C65.1089 63.797 77.6588 51.2305 93.061 51.2305Z" fill="white"/>
<path fill-rule="evenodd" clip-rule="evenodd" d="M81.0605 74.8001C81.0605 79.5322 77.2296 83.3683 72.5038 83.3683C71.7821 83.3683 71.0813 83.2789 70.4119 83.1104V94.6026C70.4119 101.838 76.3065 107.74 83.5323 107.74C90.7579 107.74 96.6525 101.838 96.6525 94.6026V80.132C96.6525 72.8966 90.7579 66.9941 83.5323 66.9941C81.5548 66.9941 79.677 67.4362 77.9925 68.2267C79.8678 69.7984 81.0605 72.1598 81.0605 74.8001Z" fill="#122431"/>
<path fill-rule="evenodd" clip-rule="evenodd" d="M191.369 51.2305C206.771 51.2305 219.321 63.797 219.321 79.2198V96.1658C219.321 111.588 206.771 124.155 191.369 124.155C175.966 124.155 163.417 111.588 163.417 96.1658V79.2198C163.417 63.797 175.966 51.2305 191.369 51.2305Z" fill="white"/>
<path fill-rule="evenodd" clip-rule="evenodd" d="M176.773 76.4749C176.773 81.207 172.943 85.0431 168.217 85.0431C168.025 85.0431 167.835 85.0368 167.647 85.0244V96.2775C167.647 103.513 173.541 109.415 180.767 109.415C187.993 109.415 193.887 103.513 193.887 96.2775V81.8068C193.887 74.5714 187.993 68.6689 180.767 68.6689C178.401 68.6689 176.178 69.3017 174.258 70.4069C175.812 71.9582 176.773 74.1041 176.773 76.4749Z" fill="#122431"/>

</g>
<defs>
<clipPath id="clip0_1431_697">
<rect width="285" height="273" fill="white"/>
</clipPath>
</defs>
</svg>
