<svg width="200" height="330" viewBox="0 0 200 330" fill="none" xmlns="http://www.w3.org/2000/svg">
<path d="M142.861 305.814L176.603 295.241L180.134 306.505C183.054 315.818 177.863 325.743 168.55 328.662C159.237 331.582 149.313 326.391 146.393 317.078L142.861 305.814Z" fill="#FFC6B7"/>
<path fill-rule="evenodd" clip-rule="evenodd" d="M76.1707 66C72.2815 66 69 69.16 69 73.1707V82.043C69 85.9323 72.16 89.2138 76.1707 89.2138C80.06 89.2138 83.3415 86.0538 83.3415 82.043V73.1707C83.22 69.16 80.06 66 76.1707 66Z" fill="#4C4B4C"/>
<path fill-rule="evenodd" clip-rule="evenodd" d="M143.171 66C139.281 66 136 69.16 136 73.1707V82.043C136 85.9323 139.16 89.2138 143.171 89.2138C147.181 89.2138 150.341 86.0538 150.341 82.043V73.1707C150.22 69.16 147.06 66 143.171 66Z" fill="#4C4B4C"/>
<path d="M160 40H45V70H160V40Z" fill="#F19F7D"/>
<path d="M30.5111 328.189C21.1983 325.269 16.0067 315.345 18.9265 306.032L22.4579 294.768L56.1996 305.34L52.6681 316.604C49.7483 325.917 39.8239 331.109 30.5111 328.189Z" fill="#FFC6B7"/>
<path d="M34.9224 254.247C33.4953 253.082 31.9808 252.019 30.6628 250.745C17.6147 238.141 8.52765 223.12 3.68557 205.637C2.27299 200.54 1.42835 195.261 0.765754 190.004C0.19053 185.497 0.0594801 180.903 0.0521988 176.352C-0.00605173 139.931 -0.0278957 103.51 0.0521988 67.0884C0.0667614 60.2076 1.87982 53.6107 4.34091 47.2031C7.64662 38.6112 12.5032 31.0022 18.736 24.2233C29.2284 12.8135 42.0654 5.40838 57.0649 1.81141C62.8171 0.435242 68.7368 -0.241924 74.6638 0.0784541C82.9281 0.529896 90.9886 2.01528 98.5102 5.73603C99.0708 6.01272 99.981 6.07097 100.52 5.80156C107.401 2.37206 114.726 0.872116 122.349 0.304173C136.693 -0.766181 150.127 2.13179 162.622 9.20923C177.163 17.4371 187.692 29.2984 194.15 44.7202C197.973 53.8437 199.524 63.375 199.502 73.263C199.422 109.342 199.568 145.428 199.386 181.507C199.327 192.786 196.91 203.744 192.861 214.28C187.051 229.404 178.037 242.35 166.03 253.206C165.52 253.672 164.828 253.934 164.217 254.291C164.093 253.854 163.977 253.417 163.838 252.988C158.159 235.294 152.479 217.601 146.793 199.907C143.815 190.631 138.368 183.218 130.111 177.961C129.179 177.364 128.851 176.745 128.859 175.653C128.902 169.26 128.866 162.867 128.859 156.474C129.441 156.343 130.024 156.103 130.606 156.095C134.458 156.059 138.303 156.146 142.154 156.052C144.404 156.001 146.691 155.913 148.89 155.462C163.627 152.425 173.581 140.142 173.624 125.048C173.646 116.609 173.624 108.177 173.624 99.7378C173.624 99.1481 173.624 98.5583 173.624 97.8593C174.469 97.903 175.03 97.9394 175.583 97.9612C184.226 98.3253 190.648 93.2211 192.199 84.7456C192.658 82.2263 192.49 82.0807 189.978 81.9423C184.073 81.6146 178.292 80.7191 173.005 77.8138C172.765 74.2678 171.221 72.28 167.887 71.2242C167.756 70.5106 167.603 69.7971 167.493 69.0762C166.991 65.7924 166.976 62.3483 165.921 59.2537C162.542 49.3147 153.142 43.162 141.863 42.878C135.754 42.7251 129.645 42.8926 123.529 42.8416C117.624 42.798 112.235 40.9995 107.728 37.2132C105.216 35.1089 103.185 32.4294 100.979 30.0484C93.8938 39.2738 88.7678 42.2883 78.8434 42.9072C72.1882 42.8853 65.5404 42.8635 58.8852 42.8635C58.5139 42.8635 58.1353 43.0455 57.7639 43.1402C56.6499 43.2712 55.5067 43.3149 54.4218 43.5552C45.2764 45.5867 38.5631 50.6982 35.585 59.7052C34.2525 63.7463 34.0414 68.1588 33.3205 72.4038C32.6288 73.3139 31.9298 74.2168 31.2381 75.127C31.0415 75.2362 30.8303 75.3236 30.6556 75.4547C25.2965 79.5468 19.1147 81.1778 12.5032 81.6001C10.5082 81.7311 8.52038 82.0151 6.16123 82.2627C6.59083 84.3015 6.77284 86.231 7.4136 87.9931C9.79459 94.488 17.0686 100 26.8183 97.2112C26.8329 106.378 26.8329 115.553 26.8693 124.72C26.8693 125.943 27.0804 127.174 27.1969 128.397C27.8887 131.295 28.1653 134.368 29.3376 137.047C34.4273 148.705 43.3979 155.149 56.162 155.964C60.1085 156.219 64.0841 156.03 68.0451 156.088C68.6932 156.095 69.3412 156.321 69.9892 156.445C69.9892 162.838 69.9601 169.238 70.0184 175.631C70.033 176.847 69.6543 177.524 68.6276 178.201C60.8002 183.364 55.3684 190.419 52.4704 199.339C48.8734 210.407 45.3638 221.503 41.8178 232.586C39.5097 239.794 37.216 247.01 34.9079 254.226L34.9224 254.247Z" fill="#3D3D3D"/>
<path d="M97.8836 328.997C80.9036 328.997 63.9308 328.997 46.9508 328.99C46.929 326.201 46.9144 309.462 46.8926 306.673C46.8999 292.358 46.8853 278.05 46.929 263.735C46.9435 259.803 47.8755 256.053 49.5138 252.471C52.3608 246.253 57.283 242.051 62.9916 238.644C63.9745 238.054 64.2804 237.435 64.2658 236.357C64.2148 232.571 64.2876 228.777 64.2221 224.984C64.2003 223.761 64.4988 223.287 65.8167 223.309C70.1709 223.397 74.5252 223.353 78.8794 223.36C78.8794 227.722 78.9085 232.083 78.8357 236.437C78.8139 237.646 79.2289 238.017 80.4012 237.966C82.0977 237.886 83.8016 237.886 85.4908 237.966C86.6777 238.025 87.0636 237.624 87.0417 236.423C86.9762 232.061 87.0053 227.7 87.0053 223.346C95.2842 223.346 103.556 223.346 111.835 223.353C111.835 227.714 111.864 232.076 111.791 236.437C111.769 237.646 112.184 238.025 113.349 237.966C115.046 237.886 116.75 237.886 118.439 237.966C119.626 238.025 120.012 237.632 119.997 236.43C119.931 232.069 119.961 227.707 119.961 223.346C124.482 223.346 129.011 223.397 133.533 223.302C135.011 223.273 135.324 223.804 135.295 225.159C135.215 228.945 135.23 232.738 135.302 236.532C135.317 237.151 135.659 237.974 136.132 238.331C137.785 239.59 139.627 240.595 141.28 241.855C148.685 247.469 152.508 254.961 152.574 264.245C152.668 278.385 152.617 292.533 152.632 306.673C152.61 309.462 152.555 326.201 152.54 328.99C136.004 328.99 119.468 328.99 102.94 328.99C102.94 324.09 102.973 305.246 102.973 300.324C103.505 300.251 103.774 300.185 104.051 300.178C105.456 300.164 106.483 299.829 106.417 298.074C106.352 296.348 105.281 296.071 103.905 296.079C101.364 296.079 98.8157 296.079 96.2745 296.079C95.0075 296.079 94.2284 296.719 94.1702 298.001C94.1046 299.37 94.8546 300.178 96.2016 300.134C97.5997 300.091 97.9201 300.71 97.9055 301.969C97.8545 306.323 97.8909 310.678 97.8909 315.032L97.8836 328.997Z" fill="#E6A72E"/>
<path d="M97.8838 315.046C97.8838 310.692 97.8474 306.338 97.8983 301.984C97.9129 300.724 97.5925 300.098 96.1945 300.149C94.8474 300.192 94.0902 299.384 94.163 298.015C94.2285 296.734 95.0004 296.1 96.2673 296.093C98.8085 296.086 101.357 296.093 103.898 296.093C105.274 296.093 106.337 296.37 106.41 298.088C106.483 299.843 105.449 300.178 104.044 300.192C103.767 300.192 103.498 300.265 102.966 300.338C102.966 305.253 102.966 324.09 102.966 328.99C101.27 328.99 99.573 328.99 97.8765 328.99L97.8838 315.046Z" fill="#C48E27"/>
<path d="M128.873 156.495C128.305 156.35 127.737 156.073 127.162 156.073C108.682 156.051 90.2022 156.051 71.7149 156.073C71.1397 156.073 70.5718 156.335 69.9965 156.473C69.3485 156.35 68.7078 156.131 68.0597 156.117C64.0987 156.058 60.1231 156.248 56.1766 155.993C43.4125 155.17 34.4419 148.733 29.3522 137.076C28.1799 134.389 27.9032 131.317 27.2115 128.426C27.2115 118.662 27.2115 108.897 27.1897 99.1331C27.1897 98.4996 26.9567 97.8661 26.8329 97.2327C17.0759 100.029 9.80918 94.5094 7.42819 88.0145C6.78015 86.2524 6.60538 84.3229 6.17578 82.2841C8.53493 82.0366 10.5227 81.7526 12.5178 81.6215C19.122 81.1992 25.3038 79.5609 30.6701 75.4761C30.8449 75.345 31.056 75.2577 31.2526 75.1484C31.2672 75.8839 31.2963 76.6193 31.2963 77.3547C31.2963 81.2138 34.0196 83.9588 37.886 83.9879C39.1238 83.9952 40.3616 83.9879 41.6358 83.9879C41.8178 84.6141 41.9853 85.1384 42.1309 85.6699C46.3177 101.092 61.9507 109.924 77.2415 105.359C86.8965 102.475 93.1948 95.9147 96.2166 86.2452C96.4205 85.5826 96.8646 84.9418 97.3452 84.4394C99.4203 82.306 104.91 82.3351 106.906 84.3957C107.43 84.9345 107.918 85.6044 108.158 86.3034C111.901 97.2108 119.124 104.157 130.686 106.138C134.844 106.851 138.994 106.706 143.021 105.41C153.098 102.177 159.549 95.4051 162.36 85.2039C162.629 84.2282 162.972 83.937 163.933 83.9588C165.222 83.9952 166.554 84.0244 167.806 83.7768C170.996 83.136 172.416 80.8133 173.027 77.8425C178.313 80.7405 184.095 81.6434 190 81.971C192.512 82.1094 192.687 82.255 192.221 84.7743C190.67 93.2498 184.248 98.354 175.605 97.9899C175.044 97.9681 174.491 97.9317 173.646 97.888C173.646 98.5797 173.646 99.1695 173.646 99.7666C173.646 108.206 173.668 116.637 173.646 125.076C173.602 140.171 163.649 152.454 148.911 155.49C146.72 155.942 144.426 156.029 142.176 156.08C138.332 156.175 134.48 156.088 130.628 156.124C130.046 156.124 129.463 156.372 128.881 156.503L128.873 156.495ZM102.289 90.6576C102.012 90.6649 101.736 90.6722 101.459 90.6868C99.3912 94.291 97.1995 97.8297 95.2773 101.514C93.5953 104.747 94.4909 108.322 97.2432 110.696C99.7261 112.837 103.469 113.07 106.054 111.315C108.813 109.443 110.735 105.555 109.112 102.191C108.304 100.517 107.605 98.769 106.643 97.1817C105.289 94.9463 103.745 92.8275 102.282 90.6576H102.289Z" fill="#F19F7D"/>
<path d="M78.8582 42.9291C88.7826 42.3102 93.916 39.2957 100.993 30.0703C103.207 32.4513 105.238 35.1308 107.743 37.2351C112.25 41.0214 117.638 42.8199 123.544 42.8636C129.653 42.9073 135.769 42.7398 141.878 42.9C153.157 43.184 162.557 49.3367 165.935 59.2757C166.991 62.3702 167.006 65.8143 167.508 69.0982C167.617 69.819 167.77 70.5326 167.901 71.2462C166.38 71.2243 164.843 71.2826 163.336 71.1224C162.819 71.0714 162.142 70.5763 161.902 70.103C161.268 68.8579 160.926 67.4599 160.292 66.2075C154.154 54.055 142.082 48.4629 129.041 51.2298C118.294 53.5089 111.311 60.448 108.064 71.0059C107.758 72.0034 107.576 73.0446 107.343 74.0495H96.996C96.8503 73.5325 96.6829 73.0592 96.5736 72.5714C93.3626 57.9213 79.4771 47.844 63.2835 51.208C53.0168 53.3341 46.1869 59.7562 42.6555 69.6006C42.1968 70.8894 41.6361 71.2898 40.3837 71.1806C37.9299 70.9622 35.5489 71.268 33.3281 72.4185C34.049 68.1734 34.2528 63.761 35.5926 59.7198C38.5707 50.7056 45.284 45.6014 54.4294 43.5699C55.5216 43.3296 56.6575 43.2859 57.7715 43.1548C64.3684 43.1621 70.9653 43.1767 77.5621 43.1694C77.9917 43.1694 78.4213 43.0092 78.8509 42.9218L78.8582 42.9291Z" fill="#EF9F7E"/>
<path d="M33.3272 72.4253C35.548 71.2749 37.9289 70.9691 40.3828 71.1875C41.6424 71.2967 42.1958 70.8962 42.6545 69.6074C46.1787 59.7631 53.0158 53.341 63.2825 51.2148C79.4762 47.8582 93.3616 57.9355 96.5727 72.5782C96.6819 73.0661 96.8421 73.5394 96.995 74.0563H107.342C107.575 73.0515 107.757 72.0103 108.063 71.0127C111.31 60.4476 118.293 53.5085 129.04 51.2367C142.081 48.4771 154.153 54.0618 160.291 66.2143C160.925 67.4667 161.26 68.8647 161.901 70.1098C162.141 70.5831 162.811 71.071 163.335 71.1292C164.842 71.2894 166.379 71.2239 167.9 71.253C171.235 72.3088 172.772 74.2966 173.019 77.8426C172.408 80.8134 170.995 83.1361 167.806 83.7769C166.553 84.0317 165.221 83.9953 163.932 83.9589C162.971 83.9371 162.629 84.2283 162.359 85.204C159.556 95.4052 153.105 102.177 143.02 105.41C138.994 106.706 134.843 106.851 130.686 106.138C119.123 104.15 111.9 97.2036 108.157 86.3035C107.917 85.6045 107.429 84.9346 106.905 84.3958C104.91 82.3352 99.4197 82.306 97.3445 84.4395C96.8566 84.9419 96.4198 85.5899 96.2159 86.2452C93.1941 95.9148 86.8885 102.475 77.2408 105.359C61.95 109.924 46.317 101.092 42.1302 85.67C41.9846 85.1385 41.8172 84.6069 41.6351 83.988C40.3609 83.988 39.1231 83.9953 37.8853 83.988C34.0189 83.9589 31.2956 81.2139 31.2956 77.3548C31.2956 76.6194 31.2665 75.8839 31.252 75.1485C31.9437 74.2384 32.6427 73.3355 33.3344 72.4253H33.3272ZM85.6288 62.5518L85.6653 62.5664C85.3158 62.1514 85.0099 61.6781 84.6022 61.3213C76.1995 53.8943 64.149 53.3555 55.2148 60.1563C46.6447 66.6876 43.6302 78.0028 48.0063 87.5195C51.9455 98.0774 64.7825 104.172 75.7044 100.713C80.4664 99.206 84.4638 96.6357 87.42 92.5436C88.2865 91.2329 89.153 89.9223 90.0268 88.6117C91.6796 84.8327 92.4806 80.908 92.1165 76.7795C91.6432 71.4569 89.7719 66.7386 85.9856 62.8722C85.8691 62.763 85.7526 62.6611 85.6361 62.5518H85.6288ZM156.33 69.9933C155.187 68.0784 154.037 66.1634 152.894 64.2484C152.777 63.9571 152.719 63.6076 152.522 63.3892C145.052 54.8701 133.118 52.9624 123.317 58.7C115.307 63.3892 111.026 72.3088 112.249 81.76C113.4 90.6504 120.368 98.6162 129.091 100.866C145.947 105.213 160.706 90.5995 157.91 74.7044C157.627 73.0952 156.869 71.5661 156.33 70.0006V69.9933ZM41.1109 77.7407C41.14 76.1752 40.0697 74.9592 38.6061 74.8937C37.1935 74.8281 35.7373 76.2261 35.7227 77.6606C35.7081 79.1023 36.9241 80.2891 38.4241 80.3037C40.0769 80.3183 41.0818 79.3644 41.1036 77.7407H41.1109ZM169.269 77.697C169.277 76.1898 168.112 74.9301 166.677 74.8937C165.25 74.8573 163.823 76.2626 163.837 77.697C163.845 79.1314 165.075 80.3037 166.575 80.3037C168.126 80.3037 169.262 79.2042 169.277 77.697H169.269Z" fill="#1654A3"/>
<path d="M26.832 97.2334C26.9558 97.8669 27.1889 98.5004 27.1889 99.1338C27.2107 108.898 27.2107 118.662 27.2107 128.427C27.0942 127.196 26.8903 125.973 26.883 124.75C26.8466 115.582 26.8466 106.408 26.832 97.2407V97.2334Z" fill="#CCB2A6"/>
<path d="M78.8587 42.9294C78.4291 43.0168 77.9996 43.177 77.57 43.177C70.9731 43.177 64.3762 43.1697 57.7793 43.1624C58.1506 43.0678 58.5293 42.8857 58.9006 42.8857C65.5558 42.8857 72.2036 42.9149 78.8587 42.9294Z" fill="#C2A99F"/>
<path d="M78.88 223.367C81.5886 223.367 84.2973 223.36 87.0059 223.353C87.0059 227.714 86.9768 232.076 87.0423 236.43C87.0569 237.624 86.6783 238.032 85.4914 237.973C83.7949 237.886 82.091 237.893 80.4018 237.973C79.2368 238.032 78.8217 237.66 78.8363 236.444C78.9018 232.083 78.8727 227.721 78.88 223.367Z" fill="#C48E27"/>
<path d="M111.834 223.368C114.543 223.368 117.251 223.368 119.967 223.36C119.967 227.722 119.938 232.083 120.004 236.445C120.018 237.646 119.632 238.039 118.446 237.981C116.749 237.901 115.045 237.901 113.356 237.981C112.184 238.039 111.776 237.661 111.798 236.452C111.863 232.091 111.834 227.729 111.841 223.368H111.834Z" fill="#C48E27"/>
<path d="M102.29 90.6582C103.753 92.828 105.297 94.9469 106.651 97.1823C107.612 98.7696 108.311 100.51 109.119 102.192C110.743 105.556 108.821 109.437 106.061 111.315C103.476 113.07 99.7339 112.837 97.2509 110.696C94.4986 108.323 93.5957 104.748 95.285 101.515C97.2 97.8303 99.3916 94.2916 101.467 90.6873C101.743 90.6801 102.02 90.6728 102.297 90.6582H102.29Z" fill="#D37147"/>
<path d="M41.1193 77.7413C41.0902 79.3578 40.0853 80.3189 38.4398 80.3044C36.9398 80.2898 35.7238 79.1029 35.7384 77.6612C35.753 76.2268 37.2092 74.8361 38.6218 74.8943C40.0853 74.9599 41.1484 76.1686 41.1266 77.7413H41.1193Z" fill="#85A5CF"/>
<path d="M169.277 77.6897C169.27 79.197 168.127 80.2965 166.576 80.2965C165.076 80.2965 163.852 79.1242 163.838 77.6897C163.831 76.2553 165.251 74.85 166.678 74.8864C168.112 74.9228 169.277 76.1825 169.27 77.6897H169.277Z" fill="#86A6CF"/>
<path d="M85.353 91.2258C86.9112 90.3594 88.4694 89.4856 90.0276 88.6191C89.1611 89.9298 88.2946 91.2404 87.4209 92.551C86.7291 92.1142 86.0374 91.67 85.3457 91.2331L85.353 91.2258Z" fill="#EBECEE"/>
<path d="M111.835 223.367C103.556 223.367 95.2843 223.368 87.0054 223.36C84.2968 223.36 81.5882 223.367 78.8795 223.375C74.5253 223.367 70.1711 223.404 65.8168 223.324C64.4989 223.302 64.2004 223.775 64.2222 224.999C64.2877 228.785 64.2222 232.578 64.2659 236.372C64.2805 237.45 63.9746 238.068 62.9917 238.658C57.2904 242.066 52.3609 246.267 49.5139 252.485C47.8756 256.068 46.9436 259.818 46.9291 263.75C46.8854 278.065 46.9 292.373 46.8927 306.688C46.2446 306.513 45.5821 306.367 44.9413 306.163C37.0047 303.608 29.0753 301.052 21.1387 298.489C21.5901 296.88 21.9906 295.256 22.5076 293.669C24.4662 287.72 26.5122 281.807 28.4272 275.851C30.3568 269.844 32.1699 263.808 34.0193 257.772C34.3688 256.621 34.6237 255.434 34.9222 254.262C37.2231 247.046 39.524 239.838 41.8322 232.622C45.3782 221.54 48.8805 210.443 52.4847 199.376C55.39 190.456 60.8146 183.4 68.642 178.238C69.6686 177.561 70.0473 176.884 70.0327 175.668C69.9672 169.275 70.0036 162.874 70.0036 156.481C70.5788 156.343 71.1467 156.081 71.722 156.081C90.2019 156.059 108.682 156.059 127.169 156.081C127.737 156.081 128.312 156.358 128.88 156.503C128.888 162.896 128.924 169.289 128.88 175.682C128.873 176.774 129.201 177.401 130.133 177.99C138.39 183.24 143.836 190.66 146.814 199.936C152.501 217.63 158.18 235.323 163.86 253.017C163.998 253.447 164.115 253.883 164.238 254.32C164.814 256.519 165.294 258.755 165.979 260.917C167.894 266.939 169.911 272.931 171.855 278.946C173.726 284.749 175.546 290.574 177.381 296.385C177.629 297.178 177.847 297.979 178.08 298.78C177.534 298.889 176.966 298.948 176.435 299.115C172.947 300.222 169.474 301.365 165.993 302.472C161.544 303.884 157.095 305.282 152.647 306.688C152.632 292.547 152.683 278.4 152.588 264.259C152.523 254.976 148.7 247.483 141.295 241.869C139.642 240.617 137.8 239.605 136.147 238.345C135.674 237.988 135.332 237.166 135.317 236.547C135.244 232.76 135.23 228.967 135.31 225.173C135.339 223.819 135.026 223.287 133.548 223.317C129.026 223.411 124.497 223.36 119.975 223.36C117.267 223.36 114.558 223.36 111.842 223.367H111.835Z" fill="#F2CA3F"/>
<path d="M88.0498 144.807C88.5359 144.807 88.9005 144.685 89.3867 144.442C90.7236 143.713 91.3313 142.011 90.6021 140.674C81.8513 123.78 72.3713 117.704 62.5267 122.687C61.1898 123.416 60.5821 124.996 61.3113 126.454C62.0405 127.791 63.6205 128.399 65.079 127.67C71.7636 124.267 78.5698 129.371 85.7405 143.227C86.1051 144.199 87.0774 144.807 88.0498 144.807Z" fill="#B4654A"/>
</svg>
