<svg width="200" height="330" viewBox="0 0 200 330" fill="none" xmlns="http://www.w3.org/2000/svg">
<path d="M142.861 305.814L176.602 295.241L180.134 306.505C183.054 315.818 177.862 325.743 168.549 328.662C159.237 331.582 149.312 326.391 146.392 317.078L142.861 305.814Z" fill="#FFC6B7"/>
<path d="M30.5106 328.189C21.1978 325.269 16.0062 315.345 18.926 306.032L22.4574 294.768L56.1991 305.34L52.6676 316.604C49.7478 325.917 39.8234 331.109 30.5106 328.189Z" fill="#FFC6B7"/>
<path d="M34.9224 254.247C33.4953 253.082 31.9808 252.019 30.6628 250.745C17.6147 238.141 8.52765 223.12 3.68557 205.637C2.27299 200.54 1.42835 195.261 0.765754 190.004C0.19053 185.497 0.0594801 180.903 0.0521988 176.352C-0.00605173 139.931 -0.0278957 103.51 0.0521988 67.0884C0.0667614 60.2076 1.87982 53.6107 4.34091 47.2031C7.64662 38.6112 12.5032 31.0022 18.736 24.2233C29.2284 12.8135 42.0654 5.40838 57.0649 1.81141C62.8171 0.435242 68.7368 -0.241924 74.6638 0.0784541C82.9281 0.529896 90.9886 2.01528 98.5102 5.73603C99.0708 6.01272 99.981 6.07097 100.52 5.80156C107.401 2.37206 114.726 0.872116 122.349 0.304173C136.693 -0.766181 150.127 2.13179 162.622 9.20923C177.163 17.4371 187.692 29.2984 194.15 44.7202C197.973 53.8437 199.524 63.375 199.502 73.263C199.422 109.342 199.568 145.428 199.386 181.507C199.327 192.786 196.91 203.744 192.861 214.28C187.051 229.404 178.037 242.35 166.03 253.206C165.52 253.672 164.828 253.934 164.217 254.291C164.093 253.854 163.977 253.417 163.838 252.988C158.159 235.294 152.479 217.601 146.793 199.907C143.815 190.631 138.368 183.218 130.111 177.961C129.179 177.364 128.851 176.745 128.859 175.653C128.902 169.26 128.866 162.867 128.859 156.474C129.441 156.343 130.024 156.103 130.606 156.095C134.458 156.059 138.303 156.146 142.154 156.052C144.404 156.001 146.691 155.913 148.89 155.462C163.627 152.425 173.581 140.142 173.624 125.048C173.646 116.609 173.624 108.177 173.624 99.7378C173.624 99.1481 173.624 98.5583 173.624 97.8593C174.469 97.903 175.03 97.9394 175.583 97.9612C184.226 98.3253 190.648 93.2211 192.199 84.7456C192.658 82.2263 192.49 82.0807 189.978 81.9423C184.073 81.6146 178.292 80.7191 173.005 77.8138C172.765 74.2678 171.221 72.28 167.887 71.2242C167.756 70.5106 167.603 69.7971 167.493 69.0762C166.991 65.7924 166.976 62.3483 165.921 59.2537C162.542 49.3147 153.142 43.162 141.863 42.878C135.754 42.7251 129.645 42.8926 123.529 42.8416C117.624 42.798 112.235 40.9995 107.728 37.2132C105.216 35.1089 103.185 32.4294 100.979 30.0484C93.8938 39.2738 88.7678 42.2883 78.8434 42.9072C72.1882 42.8853 65.5404 42.8635 58.8852 42.8635C58.5139 42.8635 58.1353 43.0455 57.7639 43.1402C56.6499 43.2712 55.5067 43.3149 54.4218 43.5552C45.2764 45.5867 38.5631 50.6982 35.585 59.7052C34.2525 63.7463 34.0414 68.1588 33.3205 72.4038C32.6288 73.3139 31.9298 74.2168 31.2381 75.127C31.0415 75.2362 30.8303 75.3236 30.6556 75.4547C25.2965 79.5468 19.1147 81.1778 12.5032 81.6001C10.5082 81.7311 8.52038 82.0151 6.16123 82.2627C6.59083 84.3015 6.77284 86.231 7.4136 87.9931C9.79459 94.488 17.0686 100 26.8183 97.2112C26.8329 106.378 26.8329 115.553 26.8693 124.72C26.8693 125.943 27.0804 127.174 27.1969 128.397C27.8887 131.295 28.1653 134.368 29.3376 137.047C34.4273 148.705 43.3979 155.149 56.162 155.964C60.1085 156.219 64.0841 156.03 68.0451 156.088C68.6932 156.095 69.3412 156.321 69.9892 156.445C69.9892 162.838 69.9601 169.238 70.0184 175.631C70.033 176.847 69.6543 177.524 68.6276 178.201C60.8002 183.364 55.3684 190.419 52.4704 199.339C48.8734 210.407 45.3638 221.503 41.8178 232.586C39.5097 239.794 37.216 247.01 34.9079 254.226L34.9224 254.247Z" fill="#3D3D3D"/>
<path d="M97.8841 328.997C80.9041 328.997 63.9313 328.997 46.9513 328.99C46.9294 326.201 46.9149 309.462 46.8931 306.673C46.9003 292.358 46.8858 278.05 46.9295 263.735C46.944 259.803 47.876 256.053 49.5143 252.471C52.3613 246.253 57.2835 242.051 62.992 238.644C63.975 238.054 64.2808 237.435 64.2663 236.357C64.2153 232.571 64.2881 228.777 64.2226 224.984C64.2008 223.761 64.4993 223.287 65.8172 223.309C70.1714 223.397 74.5257 223.353 78.8799 223.36C78.8799 227.722 78.909 232.083 78.8362 236.437C78.8144 237.646 79.2294 238.017 80.4017 237.966C82.0982 237.886 83.8021 237.886 85.4913 237.966C86.6782 238.025 87.0641 237.624 87.0422 236.423C86.9767 232.061 87.0058 227.7 87.0058 223.346C95.2847 223.346 103.556 223.346 111.835 223.353C111.835 227.714 111.864 232.076 111.791 236.437C111.77 237.646 112.185 238.025 113.35 237.966C115.046 237.886 116.75 237.886 118.439 237.966C119.626 238.025 120.012 237.632 119.997 236.43C119.932 232.069 119.961 227.707 119.961 223.346C124.483 223.346 129.012 223.397 133.533 223.302C135.012 223.273 135.325 223.804 135.296 225.159C135.215 228.945 135.23 232.738 135.303 236.532C135.317 237.151 135.66 237.974 136.133 238.331C137.786 239.59 139.628 240.595 141.281 241.855C148.686 247.469 152.509 254.961 152.574 264.245C152.669 278.385 152.618 292.533 152.632 306.673C152.611 309.462 152.555 326.201 152.54 328.99C136.005 328.99 119.469 328.99 102.94 328.99C102.94 324.09 102.974 305.246 102.974 300.324C103.505 300.251 103.775 300.185 104.051 300.178C105.457 300.164 106.483 299.829 106.418 298.074C106.352 296.348 105.282 296.071 103.906 296.079C101.365 296.079 98.8161 296.079 96.275 296.079C95.008 296.079 94.2289 296.719 94.1707 298.001C94.1051 299.37 94.8551 300.178 96.2021 300.134C97.6001 300.091 97.9205 300.71 97.906 301.969C97.855 306.323 97.8914 310.678 97.8914 315.032L97.8841 328.997Z" fill="#E6A72E"/>
<path d="M97.884 315.046C97.884 310.692 97.8476 306.338 97.8986 301.984C97.9131 300.724 97.5927 300.098 96.1947 300.149C94.8477 300.192 94.0904 299.384 94.1633 298.015C94.2288 296.734 95.0006 296.1 96.2676 296.093C98.8087 296.086 101.357 296.093 103.898 296.093C105.275 296.093 106.338 296.37 106.41 298.088C106.483 299.843 105.449 300.178 104.044 300.192C103.767 300.192 103.498 300.265 102.966 300.338C102.966 305.253 102.966 324.09 102.966 328.99C101.27 328.99 99.5733 328.99 97.8767 328.99L97.884 315.046Z" fill="#C48E27"/>
<path d="M128.873 156.495C128.305 156.35 127.737 156.073 127.162 156.073C108.682 156.051 90.2017 156.051 71.7144 156.073C71.1392 156.073 70.5713 156.335 69.9961 156.473C69.348 156.35 68.7073 156.131 68.0592 156.117C64.0982 156.058 60.1226 156.248 56.1761 155.993C43.412 155.17 34.4414 148.733 29.3517 137.076C28.1794 134.389 27.9028 131.317 27.211 128.426C27.211 118.662 27.2111 108.897 27.1892 99.1331C27.1892 98.4996 26.9562 97.8661 26.8324 97.2327C17.0754 100.029 9.80869 94.5094 7.4277 88.0145C6.77967 86.2524 6.60489 84.3229 6.17529 82.2841C8.53444 82.0366 10.5223 81.7526 12.5173 81.6215C19.1215 81.1992 25.3033 79.5609 30.6697 75.4761C30.8444 75.345 31.0556 75.2577 31.2522 75.1484C31.2667 75.8839 31.2958 76.6193 31.2958 77.3547C31.2958 81.2138 34.0191 83.9588 37.8855 83.9879C39.1233 83.9952 40.3611 83.9879 41.6353 83.9879C41.8173 84.6141 41.9848 85.1384 42.1304 85.6699C46.3172 101.092 61.9502 109.924 77.241 105.359C86.896 102.475 93.1943 95.9147 96.2161 86.2452C96.42 85.5826 96.8641 84.9418 97.3447 84.4394C99.4199 82.306 104.91 82.3351 106.905 84.3957C107.429 84.9345 107.917 85.6044 108.157 86.3034C111.9 97.2108 119.123 104.157 130.686 106.138C134.843 106.851 138.994 106.706 143.02 105.41C153.098 102.177 159.549 95.4051 162.36 85.2039C162.629 84.2282 162.971 83.937 163.932 83.9588C165.221 83.9952 166.554 84.0244 167.806 83.7768C170.995 83.136 172.415 80.8133 173.027 77.8425C178.313 80.7405 184.094 81.6434 189.999 81.971C192.511 82.1094 192.686 82.255 192.22 84.7743C190.669 93.2498 184.247 98.354 175.604 97.9899C175.044 97.9681 174.49 97.9317 173.646 97.888C173.646 98.5797 173.646 99.1695 173.646 99.7666C173.646 108.206 173.667 116.637 173.646 125.076C173.602 140.171 163.648 152.454 148.911 155.49C146.719 155.942 144.426 156.029 142.176 156.08C138.331 156.175 134.479 156.088 130.628 156.124C130.045 156.124 129.463 156.372 128.88 156.503L128.873 156.495ZM102.289 90.6576C102.012 90.6649 101.735 90.6722 101.459 90.6868C99.3907 94.291 97.199 97.8297 95.2768 101.514C93.5948 104.747 94.4904 108.322 97.2427 110.696C99.7257 112.837 103.468 113.07 106.053 111.315C108.813 109.443 110.735 105.555 109.111 102.191C108.303 100.517 107.604 98.769 106.643 97.1817C105.289 94.9463 103.745 92.8275 102.281 90.6576H102.289ZM95.4151 125.157C96.1796 125.069 97.4685 124.938 98.75 124.785C100.905 124.523 101.961 123.227 101.619 121.268C101.328 119.557 99.915 118.887 97.8617 119.149C92.6628 119.805 87.6897 119.04 83.4155 115.822C81.5952 114.453 80.1535 112.582 78.4933 110.98C77.474 109.997 76.3017 109.844 75.1148 110.71C73.979 111.54 73.5858 112.647 74.1464 113.965C74.4304 114.635 74.7799 115.305 75.2313 115.866C80.2773 122.12 86.9688 124.909 95.4006 125.157H95.4151Z" fill="#F19F7D"/>
<path d="M78.8577 42.9291C88.7821 42.3102 93.9155 39.2957 100.993 30.0703C103.206 32.4513 105.238 35.1308 107.743 37.2351C112.25 41.0214 117.638 42.8199 123.543 42.8636C129.652 42.9073 135.768 42.7398 141.877 42.9C153.156 43.184 162.556 49.3367 165.935 59.2757C166.991 62.3702 167.005 65.8143 167.508 69.0982C167.617 69.819 167.77 70.5326 167.901 71.2462C166.379 71.2243 164.843 71.2826 163.336 71.1224C162.819 71.0714 162.141 70.5763 161.901 70.103C161.268 68.8579 160.925 67.4599 160.292 66.2075C154.154 54.055 142.081 48.4629 129.041 51.2298C118.293 53.5089 111.311 60.448 108.063 71.0059C107.757 72.0034 107.575 73.0446 107.342 74.0495H96.9955C96.8498 73.5325 96.6824 73.0592 96.5731 72.5714C93.3621 57.9213 79.4766 47.844 63.283 51.208C53.0163 53.3341 46.1864 59.7562 42.655 69.6006C42.1963 70.8894 41.6356 71.2898 40.3832 71.1806C37.9294 70.9622 35.5484 71.268 33.3276 72.4185C34.0485 68.1734 34.2524 63.761 35.5921 59.7198C38.5702 50.7056 45.2835 45.6014 54.4289 43.5699C55.5211 43.3296 56.657 43.2859 57.771 43.1548C64.3679 43.1621 70.9648 43.1767 77.5616 43.1694C77.9912 43.1694 78.4208 43.0092 78.8504 42.9218L78.8577 42.9291Z" fill="#EF9F7E"/>
<path d="M33.3281 72.4253C35.5489 71.2749 37.9299 70.9691 40.3837 71.1875C41.6434 71.2967 42.1968 70.8962 42.6555 69.6074C46.1797 59.7631 53.0168 53.341 63.2835 51.2148C79.4771 47.8582 93.3626 57.9355 96.5736 72.5782C96.6829 73.0661 96.8431 73.5394 96.996 74.0563H107.343C107.576 73.0515 107.758 72.0103 108.064 71.0127C111.311 60.4476 118.294 53.5085 129.041 51.2367C142.082 48.4771 154.154 54.0618 160.292 66.2143C160.926 67.4667 161.261 68.8647 161.902 70.1098C162.142 70.5831 162.812 71.071 163.336 71.1292C164.843 71.2894 166.38 71.2239 167.901 71.253C171.236 72.3088 172.773 74.2966 173.02 77.8426C172.409 80.8134 170.996 83.1361 167.807 83.7769C166.554 84.0317 165.222 83.9953 163.933 83.9589C162.972 83.9371 162.63 84.2283 162.36 85.204C159.557 95.4052 153.106 102.177 143.021 105.41C138.995 106.706 134.844 106.851 130.687 106.138C119.124 104.15 111.901 97.2036 108.158 86.3035C107.918 85.6045 107.43 84.9346 106.906 84.3958C104.911 82.3352 99.4206 82.306 97.3455 84.4395C96.8576 84.9419 96.4207 85.5899 96.2169 86.2452C93.1951 95.9148 86.8895 102.475 77.2418 105.359C61.951 109.924 46.318 101.092 42.1312 85.67C41.9856 85.1385 41.8181 84.6069 41.6361 83.988C40.3619 83.988 39.1241 83.9953 37.8862 83.988C34.0199 83.9589 31.2966 81.2139 31.2966 77.3548C31.2966 76.6194 31.2675 75.8839 31.2529 75.1485C31.9447 74.2384 32.6437 73.3355 33.3354 72.4253H33.3281ZM85.6298 62.5518L85.6662 62.5664C85.3167 62.1514 85.0109 61.6781 84.6032 61.3213C76.2005 53.8943 64.1499 53.3555 55.2158 60.1563C46.6457 66.6876 43.6312 78.0028 48.0072 87.5195C51.9464 98.0774 64.7834 104.172 75.7054 100.713C80.4674 99.206 84.4648 96.6357 87.421 92.5436C88.2875 91.2329 89.154 89.9223 90.0277 88.6117C91.6806 84.8327 92.4815 80.908 92.1175 76.7795C91.6442 71.4569 89.7729 66.7386 85.9866 62.8722C85.8701 62.763 85.7536 62.6611 85.6371 62.5518H85.6298ZM156.331 69.9933C155.188 68.0784 154.038 66.1634 152.895 64.2484C152.778 63.9571 152.72 63.6076 152.523 63.3892C145.053 54.8701 133.119 52.9624 123.318 58.7C115.308 63.3892 111.027 72.3088 112.25 81.76C113.401 90.6504 120.369 98.6162 129.092 100.866C145.948 105.213 160.707 90.5995 157.911 74.7044C157.627 73.0952 156.87 71.5661 156.331 70.0006V69.9933ZM41.1119 77.7407C41.141 76.1752 40.0706 74.9592 38.6071 74.8937C37.1945 74.8281 35.7382 76.2261 35.7237 77.6606C35.7091 79.1023 36.9251 80.2891 38.4251 80.3037C40.0779 80.3183 41.0827 79.3644 41.1046 77.7407H41.1119ZM169.27 77.697C169.278 76.1898 168.113 74.9301 166.678 74.8937C165.251 74.8573 163.824 76.2626 163.838 77.697C163.846 79.1314 165.076 80.3037 166.576 80.3037C168.127 80.3037 169.263 79.2042 169.278 77.697H169.27Z" fill="#1654A3"/>
<path d="M26.833 97.2334C26.9568 97.8669 27.1898 98.5004 27.1898 99.1338C27.2117 108.898 27.2117 118.662 27.2117 128.427C27.0951 127.196 26.8913 125.973 26.884 124.75C26.8476 115.582 26.8476 106.408 26.833 97.2407V97.2334Z" fill="#CCB2A6"/>
<path d="M78.8577 42.9294C78.4281 43.0168 77.9986 43.177 77.569 43.177C70.9721 43.177 64.3752 43.1697 57.7783 43.1624C58.1497 43.0678 58.5283 42.8857 58.8997 42.8857C65.5548 42.8857 72.2026 42.9149 78.8577 42.9294Z" fill="#C2A99F"/>
<path d="M78.88 223.367C81.5886 223.367 84.2973 223.36 87.0059 223.353C87.0059 227.714 86.9768 232.076 87.0423 236.43C87.0569 237.624 86.6783 238.032 85.4914 237.973C83.7949 237.886 82.091 237.893 80.4018 237.973C79.2368 238.032 78.8217 237.66 78.8363 236.444C78.9018 232.083 78.8727 227.721 78.88 223.367Z" fill="#C48E27"/>
<path d="M111.835 223.368C114.544 223.368 117.252 223.368 119.968 223.36C119.968 227.722 119.939 232.083 120.005 236.445C120.019 237.646 119.633 238.039 118.447 237.981C116.75 237.901 115.046 237.901 113.357 237.981C112.185 238.039 111.777 237.661 111.799 236.452C111.864 232.091 111.835 227.729 111.842 223.368H111.835Z" fill="#C48E27"/>
<path d="M102.289 90.6582C103.752 92.828 105.296 94.9469 106.65 97.1823C107.612 98.7696 108.311 100.51 109.119 102.192C110.742 105.556 108.82 109.437 106.061 111.315C103.476 113.07 99.7331 112.837 97.2502 110.696C94.4979 108.323 93.595 104.748 95.2842 101.515C97.1992 97.8303 99.3909 94.2916 101.466 90.6873C101.743 90.6801 102.019 90.6728 102.296 90.6582H102.289Z" fill="#D37147"/>
<path d="M95.4154 125.157C86.9836 124.916 80.2994 122.12 75.2462 115.866C74.7948 115.305 74.4452 114.635 74.1612 113.965C73.6006 112.647 73.9938 111.533 75.1297 110.71C76.3165 109.844 77.4888 109.997 78.5082 110.98C80.1611 112.582 81.6101 114.446 83.4304 115.822C87.7045 119.04 92.6704 119.805 97.8765 119.149C99.9298 118.895 101.335 119.557 101.634 121.268C101.969 123.227 100.913 124.53 98.7648 124.785C97.4833 124.938 96.2018 125.076 95.43 125.157H95.4154Z" fill="#D47148"/>
<path d="M156.339 69.9941C156.877 71.5596 157.635 73.0887 157.919 74.6978C160.715 90.593 145.955 105.207 129.099 100.86C120.376 98.6097 113.408 90.6439 112.257 81.7534C111.034 72.3023 115.316 63.3827 123.325 58.6935C133.126 52.9558 145.06 54.8708 152.53 63.3827C152.727 63.6084 152.778 63.9579 152.902 64.2419C152.458 64.0307 152.006 63.8487 151.577 63.6084C149.006 62.1812 146.327 61.6788 143.4 62.5307C148.191 69.2514 143.101 76.6128 135.594 75.841C135.718 78.455 135.579 81.0836 136.009 83.6102C136.846 88.5178 141.652 92.0929 146.603 91.8017C151.911 91.4886 156.149 87.5494 156.382 82.3432C156.572 78.2293 156.368 74.1081 156.346 69.9868L156.339 69.9941Z" fill="#FCFCFD"/>
<path d="M48.0141 87.52C43.638 78.0033 46.6525 66.6881 55.2226 60.1568C64.1495 53.356 76.2001 53.8948 84.61 61.3218C85.0177 61.6785 85.3236 62.1518 85.6731 62.5669C83.6197 62.4504 81.5445 61.6786 79.4111 62.7271C81.5664 65.727 82.0324 68.8288 80.2339 72.0035C78.4136 75.2072 75.4209 76.1975 71.7584 75.8771C71.7584 77.2824 71.773 78.5639 71.7584 79.8527C71.722 82.5468 72.006 85.1535 73.6661 87.418C73.0982 87.3816 72.5303 87.4034 71.9696 87.3088C63.9747 85.969 55.9944 86.0273 48.0214 87.5127L48.0141 87.52Z" fill="#FCFDFD"/>
<path d="M156.339 69.9938C156.368 74.1151 156.564 78.2436 156.375 82.3502C156.142 87.5564 151.904 91.4956 146.596 91.8087C141.645 92.0999 136.839 88.5248 136.002 83.6172C135.572 81.0906 135.711 78.462 135.587 75.848C143.087 76.6199 148.184 69.2584 143.392 62.5378C146.32 61.6786 148.999 62.1883 151.569 63.6154C151.999 63.8557 152.45 64.0377 152.895 64.2489C154.038 66.1639 155.188 68.0789 156.331 69.9938H156.339Z" fill="#3E3E3E"/>
<path d="M48.0142 87.5198C55.9872 86.0271 63.9675 85.9761 71.9624 87.3159C72.5158 87.4105 73.091 87.3887 73.659 87.4251C77.5545 88.6921 81.4573 89.959 85.3528 91.226C86.0445 91.6628 86.7362 92.107 87.4279 92.5439C84.4717 96.6287 80.4815 99.199 75.7123 100.714C64.7903 104.172 51.9606 98.0777 48.0142 87.5198Z" fill="#EFA07F"/>
<path d="M85.3528 91.2262C81.4573 89.9593 77.5545 88.6923 73.659 87.4254C71.9988 85.1609 71.7148 82.5542 71.7512 79.8601C71.7658 78.5713 71.7512 77.2898 71.7512 75.8845C75.421 76.2121 78.4136 75.2219 80.2267 72.0108C82.0252 68.8362 81.5592 65.727 79.4039 62.7344C81.5373 61.6859 83.6125 62.4577 85.6659 62.5742L85.6294 62.5597C85.7459 62.6689 85.8624 62.7708 85.9789 62.8801C89.7652 66.7464 91.6365 71.4647 92.1098 76.7874C92.4739 80.9159 91.6729 84.8478 90.0201 88.6268C88.4619 89.5005 86.9037 90.367 85.3455 91.2335L85.3528 91.2262Z" fill="#3E3E3E"/>
<path d="M41.1188 77.7413C41.0897 79.3578 40.0848 80.3189 38.4393 80.3044C36.9393 80.2898 35.7234 79.1029 35.7379 77.6612C35.7525 76.2268 37.2087 74.8361 38.6213 74.8943C40.0848 74.9599 41.1479 76.1686 41.1261 77.7413H41.1188Z" fill="#85A5CF"/>
<path d="M169.277 77.6897C169.27 79.197 168.127 80.2965 166.576 80.2965C165.076 80.2965 163.853 79.1242 163.838 77.6897C163.831 76.2553 165.251 74.85 166.678 74.8864C168.112 74.9228 169.277 76.1825 169.27 77.6897H169.277Z" fill="#86A6CF"/>
<path d="M85.353 91.2258C86.9112 90.3594 88.4694 89.4856 90.0276 88.6191C89.1611 89.9298 88.2946 91.2404 87.4209 92.551C86.7291 92.1142 86.0374 91.67 85.3457 91.2331L85.353 91.2258Z" fill="#EBECEE"/>
<path d="M111.835 223.367C103.556 223.367 95.2843 223.368 87.0054 223.36C84.2968 223.36 81.5882 223.367 78.8795 223.375C74.5253 223.367 70.171 223.404 65.8168 223.324C64.4989 223.302 64.2004 223.775 64.2222 224.999C64.2877 228.785 64.2222 232.578 64.2659 236.372C64.2805 237.45 63.9746 238.068 62.9917 238.658C57.2904 242.066 52.3609 246.267 49.5139 252.485C47.8756 256.068 46.9436 259.818 46.9291 263.75C46.8854 278.065 46.9 292.373 46.8927 306.688C46.2446 306.513 45.5821 306.367 44.9413 306.163C37.0047 303.608 29.0753 301.052 21.1387 298.489C21.5901 296.88 21.9906 295.256 22.5076 293.669C24.4662 287.72 26.5122 281.807 28.4272 275.851C30.3568 269.844 32.1699 263.808 34.0193 257.772C34.3688 256.621 34.6237 255.434 34.9222 254.262C37.2231 247.046 39.524 239.838 41.8322 232.622C45.3782 221.54 48.8805 210.443 52.4847 199.376C55.39 190.456 60.8146 183.4 68.642 178.238C69.6686 177.561 70.0473 176.884 70.0327 175.668C69.9672 169.275 70.0036 162.874 70.0036 156.481C70.5788 156.343 71.1467 156.081 71.722 156.081C90.2019 156.059 108.682 156.059 127.169 156.081C127.737 156.081 128.312 156.358 128.88 156.503C128.888 162.896 128.924 169.289 128.88 175.682C128.873 176.774 129.201 177.401 130.133 177.99C138.39 183.24 143.836 190.66 146.814 199.936C152.501 217.63 158.18 235.323 163.86 253.017C163.998 253.447 164.115 253.883 164.238 254.32C164.814 256.519 165.294 258.755 165.979 260.917C167.894 266.939 169.911 272.931 171.855 278.946C173.726 284.749 175.546 290.574 177.381 296.385C177.629 297.178 177.847 297.979 178.08 298.78C177.534 298.889 176.966 298.948 176.435 299.115C172.947 300.222 169.474 301.365 165.993 302.472C161.544 303.884 157.095 305.282 152.647 306.688C152.632 292.547 152.683 278.4 152.588 264.259C152.523 254.976 148.7 247.483 141.295 241.869C139.642 240.617 137.8 239.605 136.147 238.345C135.674 237.988 135.332 237.166 135.317 236.547C135.244 232.76 135.23 228.967 135.31 225.173C135.339 223.819 135.026 223.287 133.548 223.317C129.026 223.411 124.497 223.36 119.975 223.36C117.267 223.36 114.558 223.36 111.842 223.367H111.835Z" fill="#F2CA3F"/>
</svg>
