<svg width="251" height="340" viewBox="0 0 251 340" fill="none" xmlns="http://www.w3.org/2000/svg">
<path d="M69.4436 315.682L35.702 305.109L32.1705 316.374C29.2507 325.686 34.4423 335.611 43.7551 338.531C53.0679 341.45 62.9923 336.259 65.9121 326.946L69.4436 315.682Z" fill="#FFC6B7"/>
<path d="M208.007 338.531C217.32 335.611 222.512 325.686 219.592 316.374L216.06 305.109L182.319 315.682L185.85 326.946C188.77 336.259 198.694 341.45 208.007 338.531Z" fill="#FFC6B7"/>
<path d="M110.343 19.1793C161.575 -17.504 209.398 1.22358 221.471 51.6831C221.587 67.9059 224.31 84.6748 239.113 103.38C253.749 124.263 252.992 142.044 242.521 157.859C230.609 173.572 233.405 185.273 240.351 195.62C269.629 251.337 226.269 279.974 197.945 292.2C145.01 321.063 95.4821 318.441 48.7433 290.03C1.31284 267.734 -11.7717 236.163 10.6693 195.001C15.3002 188.375 21.2855 175.844 10.0504 158.165C0.162384 142.605 -4.25008 125.756 12.5261 102.135C23.5718 89.9901 29.244 58.7969 29.244 58.7969C29.244 31.4046 59.2576 -13.6886 110.343 19.172V19.1793Z" fill="#3D3D3D"/>
<path d="M182.464 318.922L217.75 307.163L182.253 197.841C178.431 186.074 167.647 177.97 155.283 177.57V165.396H94.346V177.366C82.5357 177.366 72.0797 185.011 68.5046 196.268L33.4669 306.544L68.5483 318.514L80.5188 281.372L169.154 281.787L182.464 318.929V318.922Z" fill="#78B13B"/>
<path d="M82.1723 32.9043H166.475C183.257 32.9043 196.86 46.5081 196.86 63.2892V138.411C196.86 155.192 183.257 168.796 166.475 168.796H82.1723C65.3912 168.796 51.7874 155.192 51.7874 138.411V63.2892C51.7874 46.5081 65.3912 32.9043 82.1723 32.9043Z" fill="#FFC6B7"/>
<path d="M83.1623 84.3399C83.1623 74.5961 91.0611 66.6973 100.805 66.6973C110.549 66.6973 118.448 74.5961 118.448 84.3399V96.3249C118.448 106.069 110.549 113.968 100.805 113.968C91.0611 113.968 83.1623 106.069 83.1623 96.3249V84.3399Z" fill="white"/>
<path d="M129.442 84.3399C129.442 74.5961 137.341 66.6973 147.085 66.6973C156.828 66.6973 164.727 74.5961 164.727 84.3399V96.3249C164.727 106.069 156.828 113.968 147.085 113.968C137.341 113.968 129.442 106.069 129.442 96.3249V84.3399Z" fill="white"/>
<path d="M80.6036 262.878H170.164V339.332H80.6036V262.878Z" fill="#578F1A"/>
<path d="M203.821 103.679C201.372 103.679 199.386 101.694 199.386 99.2449C199.386 96.7959 201.372 94.8105 203.821 94.8105C206.27 94.8105 208.255 96.7959 208.255 99.2449C208.255 101.694 206.27 103.679 203.821 103.679Z" fill="#C8D1DC"/>
<path d="M46.9885 103.679C44.5395 103.679 42.5542 101.694 42.5542 99.2449C42.5542 96.7959 44.5395 94.8105 46.9885 94.8105C49.4375 94.8105 51.4229 96.7959 51.4229 99.2449C51.4229 101.694 49.4375 103.679 46.9885 103.679Z" fill="#C8D1DC"/>
<path d="M144.66 262.79H152.786V277.258H144.66V262.79Z" fill="#4A7A16"/>
<path d="M98.4385 262.79H106.564V277.258H98.4385V262.79Z" fill="#4A7A16"/>
<path d="M120.85 308.255H129.311C130.493 308.255 131.452 309.213 131.452 310.396C131.452 311.578 130.493 312.536 129.311 312.536H120.85C119.668 312.536 118.71 311.578 118.71 310.396C118.71 309.213 119.668 308.255 120.85 308.255Z" fill="#4A7A16"/>
<path d="M122.107 311.662H127.932V339.331H122.107V311.662Z" fill="#4A7A16"/>
<path d="M83.1618 87.5869C83.1618 83.6541 86.35 80.4658 90.2829 80.4658C94.2158 80.4658 97.4041 83.6541 97.4041 87.5869V97.3366C97.4041 101.27 94.2158 104.458 90.2829 104.458C86.35 104.458 83.1618 101.27 83.1618 97.3366V87.5869Z" fill="#3D3D3D"/>
<path d="M97.8049 88.6719C94.5557 88.6719 91.9216 86.0379 91.9216 82.7886C91.9216 79.5393 94.5557 76.9053 97.8049 76.9053C101.054 76.9053 103.688 79.5393 103.688 82.7886C103.688 86.0379 101.054 88.6719 97.8049 88.6719Z" fill="white"/>
<path d="M129.435 87.5869C129.435 83.6541 132.623 80.4658 136.556 80.4658C140.489 80.4658 143.677 83.6541 143.677 87.5869V97.3366C143.677 101.27 140.489 104.458 136.556 104.458C132.623 104.458 129.435 101.27 129.435 97.3366V87.5869Z" fill="#3D3D3D"/>
<path d="M144.078 88.6719C140.828 88.6719 138.194 86.0379 138.194 82.7886C138.194 79.5393 140.828 76.9053 144.078 76.9053C147.327 76.9053 149.961 79.5393 149.961 82.7886C149.961 86.0379 147.327 88.6719 144.078 88.6719Z" fill="white"/>
<path d="M185.057 118.62C183.412 118.62 182.079 117.287 182.079 115.642C182.079 113.997 183.412 112.664 185.057 112.664C186.702 112.664 188.035 113.997 188.035 115.642C188.035 117.287 186.702 118.62 185.057 118.62Z" fill="#DB9884"/>
<path d="M169.657 124.576C168.012 124.576 166.679 123.243 166.679 121.598C166.679 119.953 168.012 118.62 169.657 118.62C171.301 118.62 172.635 119.953 172.635 121.598C172.635 123.243 171.301 124.576 169.657 124.576Z" fill="#DB9884"/>
<path d="M180.565 130.532C178.92 130.532 177.587 129.199 177.587 127.554C177.587 125.909 178.92 124.576 180.565 124.576C182.209 124.576 183.543 125.909 183.543 127.554C183.543 129.199 182.209 130.532 180.565 130.532Z" fill="#DB9884"/>
<path d="M87.8947 124.576C86.25 124.576 84.9167 123.243 84.9167 121.598C84.9167 119.953 86.25 118.62 87.8947 118.62C89.5395 118.62 90.8728 119.953 90.8728 121.598C90.8728 123.243 89.5395 124.576 87.8947 124.576Z" fill="#DB9884"/>
<path d="M72.6552 118.62C71.0105 118.62 69.6772 117.287 69.6772 115.642C69.6772 113.997 71.0105 112.664 72.6552 112.664C74.3 112.664 75.6333 113.997 75.6333 115.642C75.6333 117.287 74.3 118.62 72.6552 118.62Z" fill="#DB9884"/>
<path d="M77.4533 130.532C75.8086 130.532 74.4753 129.199 74.4753 127.554C74.4753 125.909 75.8086 124.576 77.4533 124.576C79.0981 124.576 80.4314 125.909 80.4314 127.554C80.4314 129.199 79.0981 130.532 77.4533 130.532Z" fill="#DB9884"/>
<path d="M116.838 119.887C116.838 124.016 120.188 127.365 124.316 127.365C128.445 127.365 131.794 124.016 131.794 119.887C131.794 115.759 124.316 106.264 124.316 106.264C124.316 106.264 116.838 115.751 116.838 119.887Z" fill="#EE9583"/>
<path d="M127.112 135.819C140.313 136.962 145.112 132.528 148.985 126.695" stroke="#EE9583" stroke-width="7.65" stroke-miterlimit="10" stroke-linecap="round"/>
<path d="M86.5628 40.2291C86.5628 40.2291 96.5383 61.0172 125.256 49.2069C135.937 44.0226 141.078 49.1268 143.932 54.3694C143.932 54.3694 148.075 64.17 150.689 69.4344C157.978 84.0844 172.592 104.327 197.996 95.6399C234.679 83.1015 183.135 21.3486 183.135 21.3486L69.8449 26.613L40.4357 56.947L51.5761 79.854C67.8571 84.1209 87.7133 57.8353 86.5556 40.2291H86.5628Z" fill="#3D3D3D"/>
<path d="M165.39 100.839V116.159L135.063 119.457L134.539 112.751C138.245 109.555 159.383 100.322 165.39 100.832V100.839Z" fill="#FFC6B7"/>
</svg>
