<svg width="251" height="346" viewBox="0 0 251 346" fill="none" xmlns="http://www.w3.org/2000/svg">
<rect x="80.4338" y="263.507" width="89.6034" height="81.5091" fill="#B62F57"/>
<path d="M210.661 287.168C201.557 258.729 192.896 230.003 183.17 201.79C182.37 199.46 181.718 197.06 180.661 194.869C176.07 185.291 165.988 178.634 155.283 178.378V168.621C163.875 168.551 172.544 169.312 180.514 165.599C190.565 160.9 197.191 150.561 197.844 139.53V109.895C210.148 112.482 220.596 100.574 215.501 88.7432C212.549 81.8996 205.014 78.5128 197.844 80.113V91.5086C194.496 90.2735 191.692 86.1953 191.179 82.6997C190.192 75.6386 190.596 71.8867 185.609 66.0219C175.084 53.7485 160.814 58.1607 146.762 57.283C137.914 56.7392 130.014 51.8609 125.649 44.2095C121.462 51.9309 113.235 56.7314 104.535 57.283C89.6052 58.2307 73.5489 53.4223 63.536 68.0261C59.6753 73.6345 60.2968 76.1436 59.5666 82.4045C59.0927 86.4128 56.1797 90.0482 52.6453 91.7649V80.4781C52.6453 79.3129 45.8717 79.6391 44.7842 79.8566C31.2368 82.7308 28.4015 101.195 40.4186 108C44.388 110.26 48.2487 110.4 52.6531 109.569V139.499C53.3056 150.568 59.9006 160.869 69.9834 165.568C77.9533 169.281 86.6223 168.52 95.2137 168.59V178.347C83.6006 178.634 73.8751 186.208 68.7483 196.259C59.2481 226.554 48.94 256.733 39.2922 286.919C30.1571 281.132 20.4316 275.12 13.4094 266.746C-0.860362 249.594 -4.02967 225.273 5.29187 204.921C8.56995 197.712 13.7745 192.725 15.2659 184.569C18.5828 166.438 5.76572 160.1 1.79629 144.773C-5.55996 116.374 15.631 104.543 24.1913 81.6044C28.7433 69.4087 27.648 56.7392 31.3611 44.2483C43.9608 1.64888 89.0304 -11.0906 126.278 9.95282C131.156 12.7182 135.343 16.3614 140.151 19.2045C141.021 19.2744 142.956 17.6043 143.903 17.0916C176.56 -0.673737 212.789 14.1397 220.62 50.8433C222.515 59.7299 222.111 68.4999 224.698 77.3864C231.176 99.9213 252.802 113.251 249.641 138.955C246.471 164.659 231.471 165.607 235.006 184.833C236.458 192.663 241.702 197.72 244.91 204.711C253.828 224.193 251.497 247.202 238.649 264.346C231.293 274.141 220.884 280.658 210.723 287.176H210.684L210.661 287.168Z" fill="#F7BB75"/>
<path d="M155.283 168.591V178.347C165.948 178.603 176.07 185.268 180.661 194.838C185.252 204.416 182.409 199.46 183.17 201.76C192.857 229.973 201.557 258.699 210.661 287.137C212.882 294.059 215.213 300.972 217.031 308.002L181.57 319.18C179.783 313.898 178.113 308.585 176.396 303.302C174.392 297.111 172.575 290.812 170.423 284.659C170.275 284.224 170.493 283.673 169.731 283.82C169.731 283.09 170.019 282.438 170.019 281.746C170.058 275.664 169.949 269.589 170.019 263.507H80.7418C80.7029 269.512 80.8117 275.555 80.7418 281.599C78.1939 288.769 75.8247 296.055 73.4943 303.295C71.1639 310.542 69.9987 314.255 68.4684 319.716L32.8989 308.282C34.3515 302.168 36.5732 296.156 38.5074 290.151C38.8336 289.095 38.9812 287.782 39.2687 286.873C48.9165 256.687 59.2168 226.547 68.7247 196.213C73.8593 186.2 83.5771 178.588 95.1902 178.3V168.544C115.216 168.723 135.273 168.723 155.299 168.544L155.26 168.583L155.283 168.591Z" fill="#CC5477"/>
<path d="M80.4316 304.972L73.4792 303.295C75.8096 296.047 78.1789 288.768 80.7267 281.599C80.618 289.351 80.4393 297.181 80.4393 304.972H80.4316Z" fill="#F7BA75"/>
<path d="M169.778 283.82C170.54 283.672 170.322 284.185 170.47 284.659C172.621 290.811 174.439 297.111 176.443 303.302L169.778 304.98C169.817 297.919 169.739 290.85 169.778 283.828V283.82Z" fill="#F7BA75"/>
<path d="M122.735 345.015C122.37 343.415 123.209 313.206 122.735 312.763C122.261 312.32 119.201 313.633 119.092 310.945C119.092 310.145 119.605 308.871 120.405 308.654C121.205 308.436 128.709 308.436 129.796 308.615C131.909 308.941 132.235 312.367 129.796 312.763C127.357 313.159 127.792 312.693 127.722 312.763C127.248 313.237 128.087 343.408 127.722 345.015H122.735Z" fill="#9F284A"/>
<path d="M95.1753 168.59C86.584 168.521 77.9149 169.282 69.945 165.569C59.8622 160.869 53.2672 150.569 52.6147 139.499V109.57C48.2102 110.44 44.3884 110.261 40.3801 108C28.3631 101.196 31.2062 82.7312 44.7457 79.8571C45.841 79.6396 52.6069 79.3134 52.6069 80.4785V91.7654C56.1413 90.0564 59.0854 86.4132 59.5282 82.405C60.2583 76.144 59.6758 73.6272 63.4976 68.0265C73.5105 53.4305 89.6057 58.2311 104.497 57.2834C113.197 56.7397 121.423 51.8925 125.61 44.21C130.015 51.8536 137.915 56.7319 146.723 57.2834C160.745 58.1534 175.045 53.7878 185.571 66.0224C190.597 71.8872 190.193 75.6313 191.141 82.7002C191.614 86.1569 194.458 90.2739 197.806 91.509V80.1134C204.975 78.5443 212.518 81.9001 215.462 88.7436C220.558 100.543 210.11 112.483 197.806 109.896V139.531C197.153 150.561 190.527 160.939 180.475 165.6C172.505 169.313 163.836 168.552 155.245 168.622C135.219 168.8 115.162 168.8 95.1365 168.622L95.1753 168.583V168.59ZM120.514 85.9394C120.949 84.9218 120.623 82.8089 120.444 81.6826C117.462 64.461 93.1401 61.548 86.3276 77.752C84.3623 82.4516 84.5099 93.2956 84.875 98.6167C85.2401 103.938 85.2013 100.147 85.2013 100.947C92.1225 101.934 98.7486 104.551 105.118 107.317C111.488 110.082 112.979 111.286 113.422 111.247C115.131 111.209 118.774 105.491 119.396 103.891C120.017 102.291 120.491 101.413 119.94 100.691C120.413 99.7819 120.701 99.1216 120.779 98.073C120.996 95.5251 121.066 88.2076 120.491 85.9472H120.53L120.514 85.9394ZM165.592 100.978C166.244 99.8518 166.609 98.8264 166.718 97.5214C166.975 94.7172 167.006 87.8736 166.136 85.3956C166.757 83.174 165.809 79.8959 164.97 77.8219C158.997 63.4046 137.922 63.5133 131.879 77.9695C129.875 82.8089 129.875 98.6478 131.731 103.565C137.518 119.078 160.092 118.635 165.444 102.912C165.623 102.439 166.097 101.382 165.592 100.986V100.978ZM45.5924 95.191C40.1316 96.1387 41.623 104.878 47.1227 104.256C52.6224 103.635 52.5137 93.987 45.5924 95.191ZM202.257 95.191C201.387 95.3697 200.035 96.5038 199.6 97.2651C196.796 102.035 203.639 106.913 207.065 102.508C210.491 98.104 206.778 94.2822 202.257 95.191ZM126.053 106.299C125.649 106.121 125.431 106.299 125.105 106.556C124.158 107.394 121.283 112.086 120.553 113.438C118.44 117.26 119.546 118.107 122.646 122.076C127.159 127.863 131.335 127.863 131.522 121.051C131.7 114.246 128.096 109.795 126.061 106.33V106.291L126.053 106.299ZM133.223 136.408C132.127 135.313 129.945 135.864 128.453 135.755C120.592 135.103 113.414 133.604 107.449 128.112C101.475 122.612 103.588 123.303 101.444 121.051C99.37 119.924 96.8221 121.781 97.2959 124.072C97.9873 127.638 106.656 135.033 109.896 136.812C115.209 139.686 125.548 142.125 131.522 141.294C133.813 140.968 134.908 138.055 133.269 136.416H133.231L133.223 136.408Z" fill="#FEE7DD"/>
<path d="M152.518 263.507V277.707H144.183V263.507H152.518Z" fill="#A0284A"/>
<path d="M106.314 263.507V277.707H98.2275V263.507H106.314Z" fill="#9F284A"/>
<path d="M166.135 85.395C164.822 81.6431 160.821 79.5302 156.961 80.6643C158.165 83.5385 157.473 86.669 154.809 88.4168C152.152 90.1646 152.518 89.178 151.352 89.7606C151.64 93.73 150.366 98.787 153.17 102.065C155.974 105.343 162.965 105.452 165.552 100.97C166.065 101.374 165.552 102.422 165.405 102.896C160.014 118.626 137.479 119.022 131.692 103.549C129.835 98.6316 129.835 82.7928 131.839 77.9533C137.883 63.4972 158.965 63.3884 164.931 77.8057C165.801 79.9186 166.748 83.1967 166.096 85.3795H166.135V85.395Z" fill="#FEFEFE"/>
<path d="M120.514 85.9389C119.566 82.2957 115.853 79.7867 112.101 80.4392C108.349 81.0917 111.371 80.5479 111.34 80.8043C111.231 81.4257 111.775 83.3522 111.627 84.6261C111.192 87.6867 108.427 88.9917 105.801 89.6831C106.205 93.435 104.815 98.2045 107.075 101.444C110.245 105.996 117.376 105.522 120.001 100.644C120.545 101.374 119.745 103.083 119.457 103.844C118.805 105.444 115.201 111.161 113.484 111.2C111.767 111.239 106.384 107.775 105.18 107.27C98.8102 104.504 92.1841 101.879 85.2628 100.9C85.2628 100.1 85.0065 99.3697 84.9366 98.5696C84.5327 93.2563 84.3928 82.4433 86.3892 77.7049C93.1939 61.5009 117.515 64.4139 120.506 81.6355C120.685 82.7618 121.019 84.8747 120.576 85.8923L120.506 85.9311L120.514 85.9389Z" fill="#FEFEFD"/>
<path d="M166.135 85.3948C167.005 87.8728 166.936 94.7164 166.718 97.5206C166.501 100.325 166.244 99.851 165.592 100.977C163.044 105.459 156.596 105.964 153.21 102.073C149.823 98.1731 151.679 93.7376 151.392 89.7682C152.557 89.1856 153.683 89.1856 154.849 88.4243C157.505 86.6765 158.197 83.5461 157 80.6719C160.861 79.5456 164.862 81.6585 166.174 85.4026H166.135V85.3948Z" fill="#4F4F4F"/>
<path d="M120.514 85.9392C121.096 88.1997 121.027 95.5171 120.801 98.065C120.576 100.613 120.436 99.7739 119.962 100.683C117.345 105.6 110.206 106.035 107.036 101.483C104.776 98.2436 106.166 93.4741 105.763 89.7222C108.38 89.0309 111.153 87.687 111.588 84.6653C112.023 81.6435 111.185 81.4649 111.301 80.8434C111.418 80.222 111.845 80.5172 112.062 80.4783C115.814 79.8258 119.566 82.3349 120.475 85.9781L120.514 85.9392Z" fill="#4F4F4F"/>
<path d="M133.223 136.4C134.862 138.039 133.805 140.952 131.475 141.278C125.501 142.117 115.201 139.678 109.849 136.796C104.497 133.922 97.9095 127.622 97.2492 124.057C96.5889 120.491 99.3621 119.87 101.397 121.035C103.58 123.296 105.072 125.952 107.402 128.096C113.375 133.596 120.545 135.087 128.406 135.74C129.898 135.849 132.05 135.305 133.176 136.392H133.215L133.223 136.4Z" fill="#FABBA5"/>
<path d="M126.045 106.291C128.08 109.717 133.432 116.304 133.323 120.312C133.176 127.156 124.219 130.543 119.667 124.756C116.576 120.786 118.432 117.221 120.537 113.399C122.65 109.577 124.142 107.356 125.089 106.517C126.037 105.678 125.602 106.082 126.037 106.26V106.299L126.045 106.291Z" fill="#FABBA5"/>
<path d="M45.5839 95.1901C52.5051 93.9861 52.9712 103.603 47.1142 104.255C41.2571 104.908 40.123 96.1378 45.5839 95.1901Z" fill="#D2D9E2"/>
<path d="M202.697 95.1901C209.619 93.9861 210.085 103.603 204.228 104.255C198.371 104.908 197.237 96.1378 202.697 95.1901Z" fill="#D2D9E2"/>
<path d="M180.987 319.35L216.984 308.071L220.751 320.088C223.866 330.024 218.328 340.611 208.392 343.726C198.457 346.841 187.869 341.303 184.755 331.367L180.987 319.35Z" fill="#FFE8DE"/>
<path d="M41.7083 343.221C31.7731 340.106 26.2346 329.519 29.3495 319.583L33.117 307.566L69.1137 318.845L65.3462 330.862C62.2313 340.798 51.6435 346.336 41.7083 343.221Z" fill="#FFE8DE"/>
</svg>
