<svg id="Ebene_1" xmlns="http://www.w3.org/2000/svg" version="1.1" viewBox="0 0 1080 1080">
  <!-- Generator: Adobe Illustrator 29.0.1, SVG Export Plug-In . SVG Version: 2.1.0 Build 192)  -->
  <defs>
    <style>
      .st0 {
        fill: #fe7877;
      }

      .st1 {
        fill: #fe7877;
      }

      .st2 {
        font-size: 19.5px;
      }

      .st2, .st3, .st4, .st5, .st6, .st7, .st8, .st9, .st10, .st11, .st12, .st13, .st14, .st15, .st16, .st17, .st18, .st19, .st20, .st21, .st22 {
        font-family: Nunito-Bold, Nunito;
        font-weight: 700;
      }

      .st2, .st3, .st4, .st5, .st6, .st7, .st8, .st9, .st10, .st11, .st12, .st13, .st14, .st15, .st16, .st17, .st18, .st19, .st20, .st21, .st22, .st23, .st24, .st25 {
        fill: #fff;
      }

      .st26 {
        stroke: #83d7ff;
        stroke-width: 6.5px;
      }

      .st26, .st27, .st28, .st29, .st30, .st31, .st23, .st32, .st33, .st25, .st34 {
        stroke-miterlimit: 10;
      }

      .st26, .st27, .st35, .st33, .st36, .st34 {
        fill: none;
      }

      .st27 {
        stroke: #e92b2b;
        stroke-width: 2.7px;
      }

      .st28 {
        stroke-width: 1.2px;
      }

      .st28, .st30, .st31, .st32, .st36 {
        stroke: #fff;
      }

      .st28, .st37 {
        fill: #ffc800;
      }

      .st38 {
        fill: #fea9de;
      }

      .st35, .st29 {
        stroke: #1898d5;
        stroke-width: 1.6px;
      }

      .st35, .st36 {
        stroke-linecap: round;
        stroke-linejoin: round;
      }

      .st39 {
        fill: #ebebeb;
      }

      .st29, .st40 {
        fill: #1eaef9;
      }

      .st3 {
        font-size: 23.4px;
      }

      .st4 {
        font-size: 23.4px;
      }

      .st5 {
        font-size: 23.4px;
      }

      .st6 {
        font-size: 23.4px;
      }

      .st7 {
        font-size: 23.4px;
      }

      .st8 {
        font-size: 23.4px;
      }

      .st9 {
        font-size: 23.4px;
      }

      .st10 {
        font-size: 23.4px;
      }

      .st11 {
        font-size: 23.4px;
      }

      .st12 {
        font-size: 23.4px;
      }

      .st13 {
        font-size: 23.4px;
      }

      .st14 {
        font-size: 23.4px;
      }

      .st15 {
        font-size: 23.4px;
      }

      .st16 {
        font-size: 23.4px;
      }

      .st17 {
        font-size: 23.4px;
      }

      .st18 {
        font-size: 23.4px;
      }

      .st19 {
        font-size: 23.4px;
      }

      .st20 {
        font-size: 23.4px;
      }

      .st21 {
        font-size: 23.4px;
      }

      .st41 {
        fill: #ffcd8e;
      }

      .st42 {
        font-family: MyriadPro-Regular, 'Myriad Pro';
        font-size: 15.6px;
      }

      .st43 {
        fill: #8f69cc;
      }

      .st30, .st44 {
        fill: #57a600;
      }

      .st30, .st32 {
        stroke-width: .9px;
      }

      .st45 {
        fill: #fbe56c;
      }

      .st31 {
        stroke-width: 3.1px;
      }

      .st31, .st46 {
        fill: #cd7800;
      }

      .st22 {
        font-size: 23.4px;
      }

      .st47 {
        fill: #e92b2b;
      }

      .st23 {
        stroke: #ffc800;
        stroke-width: .8px;
      }

      .st48 {
        fill: #fea9de;
      }

      .st49 {
        fill: #1352a3;
      }

      .st32, .st50 {
        fill: #a4ed6e;
      }

      .st51 {
        fill: #6f4da0;
      }

      .st52 {
        fill: #ce81ff;
      }

      .st53 {
        fill: #ce81ff;
      }

      .st33 {
        stroke-width: 1px;
      }

      .st33, .st34 {
        stroke: #a4ed6e;
      }

      .st36 {
        stroke-width: 2.5px;
      }

      .st54 {
        fill: #2b70c9;
      }

      .st55 {
        fill: #e4a258;
      }

      .st25 {
        stroke: #ff4b4b;
        stroke-width: .7px;
      }

      .st56 {
        fill: #f4a4a3;
      }

      .st57 {
        fill: #ff4b4b;
      }

      .st58 {
        fill: #1898d5;
      }

      .st34 {
        stroke-width: 2px;
      }

      .st59 {
        fill: #aeaeae;
      }

      .st60 {
        fill: #83d7ff;
      }

      .st61 {
        fill: #57cb02;
      }

      .st62 {
        fill: #ff9500;
      }
    </style>
  </defs>
  <g class="category">
    <text class="st42" transform="translate(571.1 238.3)"><tspan x="0" y="0">17,142</tspan></text>
    <path class="st57" d="M549.7,539.1l1.9-455.9c22.2,0,44.3,1.8,66.2,5.1,21.9,3.3,43.5,8.2,64.7,14.7l-132.8,436.2Z"/>
    <g>
      <path class="st24" d="M553.6,85.1c19.9.2,40,1.7,59.7,4.5s39.4,6.9,58.6,12.3l-120.2,423,1.9-439.8Z"/>
      <path class="st57" d="M555.5,87.1c19.2.2,38.5,1.7,57.5,4.4,19,2.7,37.9,6.6,56.4,11.7l-115.7,407.4,1.8-423.6M551.7,83.2l-1.9,455.9,124.6-438.6c-19.9-5.7-40.2-10-60.7-12.9-20.5-2.9-41.2-4.4-61.9-4.5h0Z"/>
    </g>
    <path class="st57" d="M549.7,539.1l1.5-342c15.5,0,31,1.2,46.4,3.4,15.4,2.2,30.6,5.4,45.5,9.6l-93.4,328.9Z"/>
    <text class="st14" transform="translate(579 400.9) rotate(-82.9)"><tspan x="0" y="0">acknowledgment</tspan></text>
    <path class="st57" d="M627.3,138.7l-3.1,24.6c0,.5.2,1,.7,1.2l3.4,1.3c.8.3,1,1.4.3,1.9l-4.8,3.7c-.4.3-.7.8-.8,1.4l-2,15.8c-.1,1.1-1.2,1.9-2.3,1.8l-17.1-2.1c-1.1-.1-1.9-1.2-1.8-2.3l6.2-49.8c.1-1.1,1.2-1.9,2.3-1.8l17.1,2.1c1.1.1,1.9,1.2,1.8,2.3Z"/>
    <path class="st25" d="M625.3,138.6l-3.1,24.6c0,.5.2,1,.7,1.2l3.4,1.3c.8.3,1,1.4.3,1.9l-4.8,3.7c-.4.3-.7.8-.8,1.4l-2,15.8c-.1,1.1-1.2,1.9-2.3,1.8l-17.1-2.1c-1.1-.1-1.9-1.2-1.8-2.3l6.2-49.8c.1-1.1,1.2-1.9,2.3-1.8l17.1,2.1c1.1.1,1.9,1.2,1.8,2.3Z"/>
    <path class="st57" d="M595.8,151.6l3.1-24.6c0-.5.5-.9,1-1l3.6-.4c.9,0,1.3-1.1.8-1.8l-3.7-4.7c-.3-.4-.5-1-.4-1.5l2-15.8c.1-1.1-.6-2.1-1.8-2.3l-17.1-2.1c-1.1-.1-2.1.6-2.3,1.8l-6.2,49.8c-.1,1.1.6,2.1,1.8,2.3l17.1,2.1c1.1.1,2.1-.6,2.3-1.8Z"/>
    <path class="st25" d="M593.9,151.2l3.1-24.6c0-.5.5-.9,1-1l3.6-.4c.9,0,1.3-1.1.8-1.8l-3.7-4.7c-.3-.4-.5-1-.4-1.5l2-15.8c.1-1.1-.6-2.1-1.8-2.3l-17.1-2.1c-1.1-.1-2.1.6-2.3,1.8l-6.2,49.8c-.1,1.1.6,2.1,1.8,2.3l17.1,2.1c1.1.1,2.1-.6,2.3-1.8Z"/>
  </g>
  <g class="category">
    <path class="st38" d="M546.3,539.1L414.8,102.5c21.2-6.4,42.9-11.2,64.8-14.5s44-4.9,66.2-4.9l.5,456Z"/>
    <g>
      <path class="st24" d="M417.3,103.8c19.1-5.7,38.7-10.1,58.4-13.2,19.7-3.1,39.7-4.9,59.6-5.4l8.8,439.7-126.8-421.1Z"/>
      <path class="st38" d="M533.4,87.3l8.5,423.5-122.1-405.6c18.4-5.4,37.3-9.6,56.3-12.6,18.9-3,38.2-4.8,57.4-5.3M537.2,83.3c-20.7.4-41.4,2.2-61.8,5.5-20.5,3.2-40.7,7.8-60.5,13.8l131.4,436.6-9.1-455.9h0Z"/>
    </g>
    <path class="st48" d="M546.3,539.1l-98.6-327.4c14.9-4.5,30-7.9,45.4-10.4,15.3-2.4,30.8-3.8,46.4-4.1l6.8,341.9Z"/>
    <text class="st18" transform="translate(510.9 266) rotate(-99.9)"><tspan x="0" y="0">stats</tspan></text>
    <g>
      <path class="st38" d="M486,186.7c-1.1,0-2.2,0-3.2-.2l3.6-34.5-6-34.3c1.8-.3,3.7-.5,5.6-.5,16.7,0,31.4,12.4,34.3,28.8,3.3,18.9-9.4,36.9-28.2,40.1-2,.3-4,.5-6,.5Z"/>
      <path class="st24" d="M486,116.9v.7c8,0,15.8,2.8,22,8,6.3,5.2,10.5,12.5,11.9,20.5,1.6,9-.5,18.1-5.8,25.6-5.3,7.5-13.2,12.6-22.2,14.1-1.9.3-3.9.5-5.9.5s-1.9,0-2.9-.1l3.5-34.2h0c0,0,0-.2,0-.2l-5.9-33.9c1.7-.3,3.4-.4,5.2-.4v-.7M486,116.9c-2,0-4,.2-5.9.5l6,34.5-3.6,34.9c1.2.1,2.4.2,3.6.2,2,0,4-.2,6-.5,18.9-3.3,31.8-21.6,28.5-40.5-2.9-16.9-17.9-29-34.6-29h0Z"/>
    </g>
    <g>
      <path class="st39" d="M482,186.5c-17-1.9-30.2-16.2-30.8-33.3-.2-6.2,1.3-12.4,4.2-17.9l30.1,16.9-3.5,34.3Z"/>
      <path class="st24" d="M455.6,135.8l29.6,16.6-3.5,33.7c-16.6-2.1-29.6-16.1-30.1-32.9-.2-6.1,1.2-12.1,4-17.4M455.4,134.9c-3.1,5.6-4.7,11.9-4.5,18.3.6,17.4,14.1,31.9,31.4,33.7l3.6-34.9-30.6-17.1h0Z"/>
    </g>
    <g>
      <path class="st59" d="M456,134.7c3.9-6.8,10-12.1,17.2-15h0s12.2,31.5,12.2,31.5l-29.4-16.5Z"/>
      <path class="st24" d="M473.1,120.1l11.7,30.3-28.3-15.9c3.8-6.5,9.7-11.6,16.6-14.4M473.5,119.2c-.1,0-.3.1-.4.2-7.4,3-13.6,8.4-17.6,15.4l30.6,17.1-12.6-32.7h0Z"/>
    </g>
  </g>
  <g class="category">
    <path class="st52" d="M543.1,540.6l-253.4-379.1c18.4-12.3,37.7-23.3,57.7-32.8,20-9.5,40.7-17.5,61.9-24l133.8,435.9Z"/>
    <g>
      <path class="st24" d="M292.5,162c16.6-11,34.1-21,52-29.7,17.9-8.7,36.5-16.3,55.4-22.6l136.9,417.9-244.4-365.6Z"/>
      <path class="st52" d="M398.7,112.2l131.9,402.5-235.4-352.2c16-10.5,32.9-20.1,50.1-28.5,17.2-8.4,35.2-15.7,53.3-21.9M401.1,107.3c-19.7,6.5-38.9,14.2-57.5,23.3-18.6,9.1-36.6,19.4-53.8,30.9l253.3,379.1L401.1,107.3h0Z"/>
    </g>
    <path class="st53" d="M543.1,540.6l-190-284.3c12.9-8.6,26.4-16.4,40.4-23.2,14-6.8,28.4-12.6,43.1-17.5l106.5,325Z"/>
    <text class="st17" transform="translate(430.5 292) rotate(-116.9)"><tspan x="0" y="0">point</tspan></text>
    <g>
      <path class="st52" d="M388.5,202.8l-43.5,6c-4.9.7-8.2-4.8-5.3-8.9l9.8-13.7c1.2-1.6,1.4-3.7.6-5.6l-5-11.2c-1.5-3.5.7-7.4,4.5-7.9l42.2-4.9c4.9-.6,8.1,4.9,5.2,8.9l-9.7,13.5c-1.3,1.8-1.4,4.3-.2,6.2l5.5,8.9c2.1,3.5,0,8-4,8.5Z"/>
      <path class="st38" d="M348.6,164.8l6.5,13.8c.2.4.7.5,1,.2l7-6.7c.3-.3.2-.8-.1-1l-13.5-7c-.5-.3-1.1.3-.8.8Z"/>
      <path class="st43" d="M388.2,199.1l-13.5-7c-.4-.2-.4-.7-.1-1l7-6.7c.3-.3.8-.2,1,.2l6.5,13.8c.3.5-.3,1.1-.8.8Z"/>
    </g>
  </g>
  <g class="category">
    <path class="st43" d="M540.3,542.5L187.2,254c14-17.2,29.3-33.3,45.6-48.2s33.8-28.7,52.1-41.1l255.4,377.7Z"/>
    <g>
      <path class="st24" d="M189.9,253.8c12.7-15.4,26.5-30,41-43.6,14.6-13.6,30.2-26.3,46.4-37.8l253.1,359.6L189.9,253.8Z"/>
      <path class="st43" d="M276.9,175.1l243.8,346.4L192.7,253.5c12.3-14.8,25.6-28.8,39.6-41.9,14-13.1,29-25.3,44.6-36.5M277.8,169.6c-16.9,11.9-33,25-48.2,39.1-15.2,14.1-29.3,29.2-42.4,45.3l353.1,288.5L277.8,169.6h0Z"/>
    </g>
    <path class="st43" d="M540.3,542.5l-264.8-216.3c9.8-12,20.5-23.4,31.8-34,11.4-10.6,23.5-20.4,36.2-29.3l196.8,279.6Z"/>
    <text class="st9" transform="translate(357.5 335.2) rotate(-133.9)"><tspan x="0" y="0">level</tspan></text>
    <g>
      <path class="st43" d="M299.6,239l-21.6-22.5c-.6-.7-1.9-.7-2.6,0l-.7.6c-.7.6-.7,1.9,0,2.6l1.3,1.3c.6.7.6,1.9,0,2.6h0c-1,.9-1,2.2-.4,2.9l4.1,4.2c.6.7.6,1.9,0,2.6l-.7.6c-.7.6-1.3.6-1.9,0-1.9-1.3-6-3.6-11.1-4.4-5.1-.7-13.8.7-17,3.8s-14.4,13.8-14.4,13.8c0,0-3.6,2.2-3,6.7.6,4.5,2.8,4.9,5.6,5.9,2.9,1,7.6,3.4,9.8,5.6,2.2,2.3,5.3,8.1,6.5,11.3,1.2,3.2,3.4,6.2,6.9,6.5s5.1-1.2,5.1-1.2l14.4-13.8s5.9-6.3,5.7-13.7c-.2-7.4-1.4-11.9-2.6-13.8-1.2-1.9-.9-1-1.3-1.3-.6-.7-.3-1.6,0-1.9l.7-.6c.7-.6,1.9-.6,2.6,0l3.8,3.9c.6.7,1.9.7,2.6,0h0c.7-.6,1.9-.6,2.6,0l2.2,2.3c.6.7,1.9.7,2.6,0l1-.9c.7-.6.4-1.6-.3-2.2l.3-1Z"/>
      <path class="st43" d="M260.7,226.7s-2.3-.5-7.7.5c-2.7.5-4.6,1.4-5.3,2-2.6,2.5-3.8,4.2-3.8,4.2,0,0-4.2,1.5-6.4.5s-3.2-2-3.2-2c0,0,2-3.8,4.6-4.4,2.6-.6,4.5.7,4.5.7l1.6-1.6c1-.9,1.9-1.2,1.9-1.2,0,0-1.9-1.3-3.1-3.3-1.2-1.9-.6-2.6-.6-2.6,0,0,2-1.9,5.1-.5,3.2,1.3,4.7,4.3,4.7,4.3,0,0,.6-.4,1.3-.6s1.6-.3,1.6-.3c0,0-.3-2.2-.6-3.9-.3-1.6,1.4-3.8,1.7-4.1s4.1,1,5,4.6-.1,6.4-.1,6.4l-1.3,1.3h0Z"/>
      <path class="st43" d="M288.3,255.4s.6,2.3-.8,7.7-1.9,5.2-2.6,5.9c-2.6,2.5-4,3-4,3,0,0-1.7,4.1-.8,6.4.9,2.3,1.9,3.2,1.9,3.2,0,0,3.9-1.8,4.6-4.4s-.6-4.5-.6-4.5l1.6-1.6c1-.9,1.3-1.9,1.3-1.9,0,0,1.2,1.9,3.1,3.3,1.9,1.3,2.5.7,2.5.7,0,0,2-1.9.7-5.1-1.2-3.2-4.1-4.9-4.1-4.9,0,0,.6-.6.7-1.3s.4-1.6.4-1.6c0,0,2.2.4,3.8.7s3.9-1.2,4.2-1.5-.9-4.2-4.4-5.2c-3.5-1-6.4-.1-6.4-.1l-1.3,1.3h0Z"/>
    </g>
  </g>
  <g class="category">
    <path class="st51" d="M539.2,545.6L117.2,373c8.4-20.5,18.3-40.4,29.5-59.4,11.3-19.1,23.9-37.3,37.8-54.5l354.6,286.6Z"/>
    <g>
      <path class="st24" d="M119.8,371.9c7.6-18.4,16.5-36.4,26.5-53.7,10-17.2,21.2-33.9,33.3-49.7l347.2,269.9L119.8,371.9Z"/>
      <path class="st51" d="M179.9,271.3l334.4,259.9L122.3,370.8c7.4-17.7,16-35,25.6-51.6,9.6-16.6,20.3-32.7,32-48M179.2,265.8c-12.7,16.4-24.3,33.6-34.7,51.5-10.4,17.9-19.5,36.5-27.4,55.7l422,172.6L179.2,265.8h0Z"/>
    </g>
    <path class="st51" d="M539.2,545.6l-316.5-129.5c5.9-14.4,12.7-28.3,20.5-41.8,7.8-13.4,16.5-26.3,26-38.6l270,209.9Z"/>
    <text class="st5" transform="translate(370.3 437.9) rotate(-150.9)"><tspan x="0" y="0">progression</tspan></text>
    <g>
      <path class="st51" d="M176.5,357.3l-4.3,7.7c-1.7,3-6.2,2.6-7.2-.8l-9.1-29.9c-.6-2,.5-4.2,2.5-4.9l31.9-10.9c3.4-1.2,6.5,2.5,4.7,5.6l-5.1,9.1c-1.1,1.9-.4,4.3,1.5,5.4l7.1,4c1.9,1.1,2.6,3.5,1.5,5.4l-5.8,10.4c-1.1,1.9-3.5,2.6-5.4,1.5l-6.9-4c-1.9-1.1-4.4-.5-5.4,1.5Z"/>
      <rect class="st51" x="196.8" y="350.6" width="19.8" height="15.2" rx="2.4" ry="2.4" transform="translate(-206.8 364.4) rotate(-60.9)"/>
      <rect class="st51" x="210.4" y="361" width="19.8" height="9.6" rx="2.4" ry="2.4" transform="translate(-206.5 380.2) rotate(-60.9)"/>
      <rect class="st51" x="219.5" y="368.5" width="19.8" height="4.8" rx="2.4" ry="2.4" transform="translate(-206.2 390.7) rotate(-60.9)"/>
    </g>
  </g>
  <g class="category">
    <path class="st49" d="M538,548.8l-454-41.7c2-22.1,5.7-43.9,10.9-65.5,5.2-21.5,12-42.7,20.3-63.2l422.9,170.4Z"/>
    <g>
      <path class="st24" d="M86,505.3c1.9-19.8,5.1-39.7,9.6-59.1,4.5-19.4,10.3-38.7,17.3-57.3l410.9,156.6-437.9-40.2Z"/>
      <path class="st49" d="M114.2,391.5l395.8,150.8-421.8-38.7c1.9-19.1,5.1-38.2,9.4-56.9,4.3-18.7,9.9-37.2,16.6-55.2M111.9,386.4c-7.4,19.4-13.4,39.2-18.1,59.4-4.7,20.2-8,40.7-9.9,61.3l454,41.7L111.9,386.4h0Z"/>
    </g>
    <path class="st49" d="M538,548.8l-340.5-31.3c1.4-15.5,3.9-30.8,7.4-46,3.5-15.1,8-30,13.6-44.5l319.6,121.7Z"/>
    <text class="st19" transform="translate(314.5 488.5) rotate(-167.9)"><tspan x="0" y="0">narrative</tspan></text>
    <g>
      <circle class="st49" cx="111.9" cy="489.3" r="11.8"/>
      <circle class="st49" cx="141.6" cy="475.3" r="11.8"/>
      <path class="st24" d="M146.1,478.5l-2.5-.4c-.3-.1-.5,0-.7.3l-1.2,2.2c-.5.8-1.8.6-1.9-.3l-.4-2.6c0-.3-.3-.5-.6-.6l-2.6-.4c-1-.4-1.1-1.7-.2-2l2.2-1c.3-.1.4-.4.4-.7l-.3-2.4c-.1-1,1.1-1.6,1.7-.8l1.8,1.9c.2.2.5.3.7.1l2.4-1.1c.9-.4,1.8.6,1.3,1.5l-1.2,2.2c-.1.3,0,.5,0,.8l1.7,1.8c.7.8,0,1.9-1,1.7h0Z"/>
      <circle class="st39" cx="146" cy="428.8" r="11.8" transform="translate(-301.6 498.5) rotate(-80)"/>
      <circle class="st49" cx="162.9" cy="455.2" r="11.8" transform="translate(-313.6 537) rotate(-80)"/>
      <polyline class="st36" points="116.9 490.2 114.1 486.2 106.3 491.8"/>
      <polyline class="st36" points="168 456.1 165.3 452.1 157.3 457.7"/>
      <g>
        <path class="st59" d="M150.3,423.3l-6.3-1.1c-.2,0-.4.1-.4.3v.2c0,.2,0,.4.3.4h.4c.2,0,.3.3.3.5h0c0,.3.1.5.3.5l1.2.2c.2,0,.3.2.3.4v.2c0,.2-.2.3-.4.2-.5,0-1.4.1-2.4.6s-2.2,1.8-2.4,2.7l-.7,4s-.3.8.3,1.5,1,.5,1.6.3,1.7-.4,2.3-.3,1.9.7,2.4,1.1,1.3.6,1.9.2.7-.8.7-.8l.7-4s.2-1.7-.7-2.9-1.7-1.8-2.1-2-.3,0-.4,0c-.2,0-.2-.2-.2-.3v-.2c0-.2.3-.3.5-.3l1.1.2c.2,0,.4-.1.4-.3h0c0-.2.2-.3.4-.3h.6c.2.1.4,0,.4-.2v-.3c0-.2,0-.3-.3-.3v-.2Z"/>
        <path class="st59" d="M142.4,425.9s-.4.2-1.2,1-.5.9-.6,1.1l-.2,1s-.5.8-1,.9-.8,0-.8,0c0,0-.1-.9.2-1.3s.8-.4.8-.4v-.5c.1-.3.3-.4.3-.4,0,0-.5,0-.9-.2s-.4-.4-.4-.4c0,0,0-.5.8-.7s1.3.1,1.3.1c0,0,0-.2.1-.3s.2-.2.2-.2c0,0-.3-.3-.6-.6s-.2-.8-.2-.9.8-.3,1.4.1.8,1.1.8,1.1v.4c0,0,0,0,0,0Z"/>
        <path class="st59" d="M150.4,427.3s.3.3.8,1.4.2,1.1.2,1.2l-.2,1s.2.9.6,1.1.7.3.7.3c0,0,.4-.8.2-1.3s-.6-.7-.6-.7v-.5c.1-.3,0-.5,0-.5,0,0,.4.2.9.2s.5-.2.5-.2c0,0,0-.5-.5-.9s-1.3-.3-1.3-.3c0,0,0-.2,0-.3s-.1-.3-.1-.3c0,0,.4-.2.7-.3s.5-.7.5-.8-.6-.6-1.4-.3-1.1.8-1.1.8v.4c0,0,0,0,0,0Z"/>
      </g>
    </g>
  </g>
  <g class="category">
    <path class="st54" d="M538.1,552.2l-446.4,92.9c-4.5-21.7-7.4-43.7-8.8-65.8s-1-44.3.9-66.4l454.3,39.3Z"/>
    <g>
      <path class="st24" d="M93.2,642.8c-4-19.5-6.7-39.5-8.1-59.3-1.4-19.9-1.4-40-.2-59.9l438.8,29.6-430.5,89.6Z"/>
      <path class="st54" d="M86.8,525.7l422.6,28.5-414.7,86.3c-3.7-18.8-6.3-38-7.6-57.1-1.3-19.1-1.4-38.5-.3-57.6M83.2,521.5c-1.4,20.7-1.4,41.4,0,62.1s4.3,41.2,8.5,61.5l446.4-92.9-454.9-30.7h0Z"/>
    </g>
    <path class="st54" d="M538.1,552.2l-334.8,69.7c-3.2-15.2-5.3-30.6-6.4-46.1-1.1-15.5-1.1-31.1,0-46.6l341.2,23Z"/>
    <text class="st12" transform="translate(335 557.6) rotate(175.1)"><tspan x="0" y="0">storytelling</tspan></text>
    <g>
      <path class="st54" d="M105.3,597.5c.8,2.2,3.2,4.2,5.6,4.3,1.1.3,2.4,0,3.5-.3l2.8-2c-2.5-12.8-2.8-14.5-5.3-27.3h0l.7-.4c1.1-2.9,3.8-4,6.8-4.2,3.6,0,7.1-.3,10.6-.9,2.1-.6,5.5-1.9,6-4,.6.3.5,1.3.5,1.9,1.2,12.1,1.7,24.5,3.1,36.5,0,.7-.2,1.4.8,1.1.4-.4,1.5-2.5,1.7-2.6.7-.2,1.9,1.8,2.5,2.2.5-.4.2-1.3.2-1.9-.9-12.2-2.6-24.7-3.1-36.8,0-.4-.2-.8,0-1.1,0,0,.1-.1.2-.2.1,0,.3,0,.5,0,.5,2.2,4.1,3.2,6.3,3.3,3.8,0,7.5-.2,11.3-.7,3-.2,5.7-.1,7,3h.8s-3.4,2.5-3.4,2.5c2.4,12.5,2.7,14.2,5.2,26.7l.7.2c1.2.1,2.6.2,3.8-.3.8-.2,1.6-.7,2.3-1.3,1.5-1.3,2.2-3.3,2.1-5.3-.6-11.3-.9-21.4-2.7-31.2-.5-2.7-3.2-4.7-5.9-4.9-6.7-.3-17.5,3.4-23.4-.2-1.8-1.1-2.7-2.6-5.1-3.2-6.5-1.5-7.2,2.8-11.5,5.2-5.1,3-14.9,1.9-21,3-3.3.6-6,2.4-6.3,5.9l2.8,33Z"/>
      <path class="st60" d="M144.6,601.7c-1.7-13-2.9-26.2-3.8-39.5,0-.9.4-1,1.4-.5,1.2.7,2.1,1.6,3.6,2.1,5.6,2,16.6-2,20.1.9.4.3,1.7,2.4,1.8,2.7l2.5,29.4v.3c0,.6.2,1.6.1,2.2-.3,2.5-2.2,4.4-4.6,4.8-6.2,1.2-16,1.9-21.1-2.4Z"/>
      <path class="st60" d="M140.4,602.1c-4.6,5.1-13.4,6-20,5.9s-4.8-1.4-5.7-4.3-.2-1.7-.2-1.8,0-.3,0-.3l-2.5-29.4c-.1-1.6,2.3-4.1,3.8-4.5,7.9-2.4,12.5,1.3,20.3-5,.8-.6,1,0,1.2.8.9,13.1,2,26,3.3,38.7Z"/>
    </g>
  </g>
  <g class="category">
    <path class="st40" d="M536.5,552.8l-394.7,228.3c-11.1-19.2-20.8-39.1-29-59.7-8.2-20.6-14.9-41.7-20-63.3l443.6-105.3Z"/>
    <g>
      <path class="st24" d="M142.5,778.4c-9.9-17.3-18.7-35.4-26.3-53.8-7.5-18.4-13.9-37.5-19-56.8l425.9-109.7-380.6,220.2Z"/>
      <path class="st40" d="M509.9,563.6l-366.6,212.1c-9.5-16.7-17.9-34.1-25.2-51.9-7.3-17.7-13.4-36.1-18.4-54.6l410.2-105.6M536.5,552.8l-441.6,113.7c5.2,20.1,11.7,39.7,19.5,58.9,7.8,19.2,17,37.8,27.4,55.7l394.7-228.3h0Z"/>
    </g>
    <path class="st40" d="M536.5,552.8l-296,171.2c-7.8-13.4-14.6-27.4-20.5-41.8-5.9-14.4-10.8-29.1-14.6-44.2l331.2-85.3Z"/>
    <text class="st21" transform="translate(325.4 630.2) rotate(156.8)"><tspan x="0" y="0">sensation</tspan></text>
    <g>
      <path class="st58" d="M154.5,678.8c-1-1.1-2-2.3-3.2-3.4s-2.7-1.7-4.2-1.6c-1.5.2-2.7,1.1-3.8,2.1-.2,0-.4.3-.5.6,0,.2,0,.5,0,.7.6,2.2,2.6,3.6,3.8,5.5,2,3.2,1.3,7.3,1.7,11,0,.2,0,.5.3.6.3.2.7.2,1.1,0,3.5-1.1,6.7-3.4,9-6.4.8-1.1,1.5-2.2,2.2-3.2s.6-1.5-.8-2.2c-2.1-1-4-2.5-5.6-4.1v.2Z"/>
      <path class="st29" d="M184.8,683.3s17-4.9,21,1.6c4,6.5,1.3,9.9,1.3,9.9,0,0,2.8,3.9,2.9,7.2.1,3.3-5.7,8.9-5.7,8.9,0,0-1.6,7.5-3.7,10.3s-10.4,4.5-10.4,4.5c0,0-4.4,5.4-8.3,7.1-3.9,1.7-10,.9-10,.9,0,0-7.7,5.9-14.7,3.9-7-2.1-9.9-6-9.9-6,0,0-4.4,0-6-1.4s-2.4-5.7-2.4-5.7c0,0-7.4-.6-9.2-4.8-1.8-4.1-1.3-8.2-1.3-8.2,0,0-4.8-8.3-2.8-12.3s6.2-5.1,6.2-5.1c0,0-.4-8.3,6.9-11.5s11.3-4.8,13-1c1.6,3.8-4.2,9.3-4.2,9.3,0,0,5.7-1.2,9.5-4.5,3.7-3.3,11.5-11.4,19.3-9.5,7.8,1.8,8.4,6.5,8.4,6.5h0Z"/>
      <path class="st35" d="M177.9,684.9c-.3,2.5-1.8,4.7-3.6,6.3s-4.1,2.8-6.4,3.9c-2.4,1-4.8,2.1-7.3,2.9-1.5.5-3.1,1-4.5,1.7-2.1.9-3.9,2-5.7,3.4-1.7,1.4-3.2,3.1-3.7,5.2-.3,2,.3,3.9.9,5.8.4,1.2,1.1,2.6,2.4,2.8"/>
      <path class="st35" d="M163.3,722.5c-1.9-1.2-4-2.4-6.2-2.3-.9,0-1.7.3-2.5.7-1.5.7-2.9,1.7-3.6,3.2s-.7,3.4.4,4.6"/>
      <path class="st35" d="M157.6,731.4c1.5,0,3.1,0,4.5-.3,1.6-.3,3.3-.9,4.6-1.8,2.4-1.6,3.6-4.5,3.7-7.4s-.6-5.7-1.9-8.2c0-.2-.2-.4,0-.6"/>
      <path class="st35" d="M176.3,725.6c-.2,3.3-2.1,6.6-5,8.4"/>
      <path class="st35" d="M142.1,697.1c-2.1.7-4.4.8-6.2,2.1-1.9,1.3-2.9,3.9-2.3,6.2s2,3.5,3.8,4.2,1.1-.5,1.6-1.5,1-1.8,1.7-2.5"/>
      <path class="st35" d="M143.7,722.3c-2.3-1.4-4.5-3.1-5.4-5.5-.9-2.3-.5-4.9,0-7.3"/>
      <path class="st35" d="M180.9,704.1c1.4,1.9,2.8,3.9,3.5,6.2.7,2.5.5,5.2-.1,7.7-.4,1.6-1.2,3.3-2.8,3.7"/>
      <path class="st35" d="M182.8,679.9c1.5,2,3.2,8.2,2.8,10.6-.2,1.1-.3,2.2-.8,3.2-.8,1.6-2.3,2.8-3.7,3.8-1.9,1.3-3.4,1.9-6.2,2.1.2.8,0,2.1-.2,2.7-.7,2.8-2.3,4.1-5.5,5.3s-2.9.7-3.9.8c-.9,0-1.7,0-2.5,0-1.3,0-2.6-.2-3.9-.2"/>
      <path class="st35" d="M195.9,700.6c.7,1.5.5,3.2-.1,4.8s-1.6,2.9-2.7,4.1c-2,2.2-4.7,4.1-7.6,4.4"/>
      <path class="st35" d="M195.9,693.8c-.8.6-1.7,1.1-2.6,1.6-1.1.6-2.2,1.1-3.5.9-.6,0-1-.3-1.6-.5-1.3-.6-2.7-1.5-3.3-2.8"/>
      <path class="st35" d="M202.2,705.2c.8,2.7,0,5.8-1.7,8.1s-4.4,3.8-7.1,4.4h-.2c0,0,.2.1,0,0"/>
    </g>
  </g>
  <g class="category">
    <path class="st60" d="M539.1,556.1l-310.7,333.7c-16.2-15.1-31.3-31.3-45.2-48.6-13.9-17.3-26.4-35.6-37.6-54.7l393.4-230.4Z"/>
    <g>
      <path class="st24" d="M228.4,887.1c-14.5-13.6-28.3-28.3-40.8-43.8-12.6-15.4-24.3-31.8-34.7-48.8l375.2-229.4-299.6,321.9Z"/>
      <path class="st60" d="M516.9,574.3l-288.6,310c-13.9-13.2-27.1-27.4-39.2-42.2-12.1-14.8-23.4-30.6-33.5-46.9l361.4-220.9M539.1,556.1l-389,237.8c10.8,17.7,22.8,34.6,35.9,50.6,13.1,16,27.3,31.2,42.4,45.3l310.7-333.7h0Z"/>
    </g>
    <path class="st60" d="M539.1,556.1l-233,250.3c-11.4-10.6-22-21.9-31.8-34-9.8-12-18.8-24.7-26.9-38l291.8-178.4Z"/>
    <text class="st7" transform="translate(354.6 696.3) rotate(139.8)"><tspan x="0" y="0">objective</tspan></text>
    <circle class="st26" cx="232" cy="811.1" r="31.9"/>
    <circle class="st26" cx="232" cy="811.1" r="17.7"/>
    <rect class="st49" x="228.8" y="809.6" width="5.3" height="41.2" rx="2.7" ry="2.7" transform="translate(458.4 1661.6) rotate(-179.7)"/>
    <path class="st54" d="M236,834.3l5.5,2.3c.7.3,1.2,1.2,1.2,2.2v11.7c0,1.6-1.2,2.7-2.3,2.2l-5.5-2.3c-.7-.3-1.2-1.2-1.2-2.2v-11.7c0-1.6,1.2-2.7,2.3-2.2Z"/>
    <path class="st54" d="M226.9,833.4l-5.5,2.3c-.7.3-1.2,1.2-1.2,2.2v11.7c0,1.6,1.1,2.7,2.2,2.2l5.5-2.3c.7-.3,1.2-1.2,1.2-2.2v-11.7c0-1.6-1.1-2.7-2.2-2.2Z"/>
  </g>
  <g class="category">
    <path class="st44" d="M541.6,558.4l-199.5,410c-19.9-9.7-39.1-20.8-57.4-33.3-18.3-12.5-35.7-26.3-52-41.3l308.9-335.4Z"/>
    <g>
      <path class="st24" d="M341.2,965.8c-17.9-8.8-35.3-18.8-51.9-29.9-16.5-11.1-32.5-23.3-47.5-36.5l291.7-329.1-192.4,395.4Z"/>
      <path class="st44" d="M525.7,582.3l-185.3,380.9c-17.2-8.5-33.9-18.3-49.9-28.9-15.9-10.6-31.3-22.4-45.8-35l281-316.9M541.6,558.4l-302.5,341.2c15.5,13.7,31.9,26.4,49.1,37.9,17.2,11.5,35.2,21.8,53.8,30.9l199.5-410h0Z"/>
    </g>
    <path class="st44" d="M541.6,558.4l-149.6,307.5c-14-6.8-27.5-14.5-40.4-23.2-12.9-8.6-25.2-18.1-36.9-28.4l226.9-255.9Z"/>
    <text class="st10" transform="translate(391.3 769.5) rotate(122.8)"><tspan x="0" y="0">puzzle</tspan></text>
    <path class="st30" d="M325.4,872.5c-2.6,0-4.7-2.3-4.2-5.1s1.4-2.7,2.8-3.1,1.9-.3,2.7,0,1.3-.3,1.3-1l-.2-9.5-9.5.2c-.7,0-1.2-.6-1-1.3s.3-1.7,0-2.7c-.4-1.4-1.7-2.5-3.1-2.8-2.7-.6-5.1,1.6-5.1,4.2s.1,1,.3,1.4-.2,1.3-.9,1.3l-9.5.2.2,9.4c0,.7-.6,1.2-1.2,1s-1.4-.3-2.2,0c-1.7.4-3.1,1.9-3.2,3.7-.2,2.5,1.8,4.6,4.3,4.6s.9,0,1.3-.2c.6-.2,1.3.3,1.3.9l.2,9.4,9.5-.2c.7,0,1.1-.8.9-1.4s-.4-1.5-.3-2.3c.2-1.7,1.5-3.1,3.1-3.5,2.7-.6,5.1,1.4,5.2,4s0,1.1-.3,1.6.2,1.4.9,1.3l9.6-.2-.2-9.5c0-.7-.7-1.1-1.4-.9s-.9.3-1.4.3Z"/>
    <path class="st30" d="M346.2,856.1c0,2.6-2.3,4.7-5.1,4.2s-2.7-1.4-3.1-2.8-.3-1.9,0-2.7-.3-1.3-1-1.3l-9.5.2.2,9.5c0,.7-.6,1.2-1.3,1s-1.7-.3-2.7,0c-1.4.4-2.5,1.7-2.8,3.1-.6,2.7,1.6,5.1,4.2,5.1s1-.1,1.4-.3,1.3.2,1.3.9l.2,9.5,9.4-.2c.7,0,1.2.6,1,1.2s-.3,1.4,0,2.2c.4,1.7,1.9,3.1,3.7,3.2,2.5.2,4.6-1.8,4.6-4.3s0-.9-.2-1.3c-.2-.6.3-1.3.9-1.3l9.4-.2-.2-9.5c0-.7-.8-1.1-1.4-.9s-1.5.4-2.3.3c-1.7-.2-3.1-1.5-3.5-3.1-.6-2.7,1.4-5.1,4-5.2s1.1,0,1.6.3,1.4-.2,1.3-.9l-.2-9.6-9.5.2c-.7,0-1.1.7-.9,1.4s.3.9.3,1.4Z"/>
    <path class="st30" d="M346.8,884.9c0,2.6-2.3,4.7-5.1,4.2s-2.7-1.4-3.1-2.8-.3-1.9,0-2.7-.3-1.3-1-1.3l-9.5.2.2,9.5c0,.7-.6,1.2-1.3,1s-1.7-.3-2.7,0c-1.4.4-2.5,1.7-2.8,3.1-.6,2.7,1.6,5.1,4.2,5.1s1-.1,1.4-.3,1.3.2,1.3.9l.2,9.5,9.4-.2c.7,0,1.2.6,1,1.2s-.3,1.4,0,2.2c.4,1.7,1.9,3.1,3.7,3.2,2.5.2,4.6-1.8,4.6-4.3s0-.9-.2-1.3c-.2-.6.3-1.3.9-1.3l9.4-.2-.2-9.5c0-.7-.8-1.1-1.4-.9s-1.5.4-2.3.3c-1.7-.2-3.1-1.5-3.5-3.1-.6-2.7,1.4-5.1,4-5.2s1.1,0,1.6.3,1.4-.2,1.3-.9l-.2-9.6-9.5.2c-.7,0-1.1.7-.9,1.4s.3.9.3,1.4Z"/>
    <path class="st32" d="M303.4,921.5c-1.7-2-1.3-5.1,1.2-6.5,1.3-.7,2.9-.7,4.2.1s1.4,1.3,1.7,2.1,1,.8,1.6.4l7.1-6.3-6.3-7.1c-.4-.5-.3-1.3.4-1.6s1.5-.9,2-1.7c.8-1.2.8-2.9.1-4.2-1.3-2.5-4.5-2.9-6.5-1.2-.4.3-.7.7-.9,1.2s-1.1.6-1.6.1l-6.3-7.1-7.1,6.2c-.5.4-1.3.3-1.5-.3s-.7-1.2-1.3-1.7c-1.4-1.1-3.5-1.1-4.9,0-2.1,1.5-2.4,4.3-.7,6.2s.7.6,1,.8c.6.3.6,1.1.1,1.6l-7.1,6.2,6.3,7.2c.5.5,1.3.4,1.6-.3s.8-1.2,1.5-1.7c1.4-.9,3.3-.8,4.7.2,2.2,1.7,2.2,4.8.3,6.5s-.9.6-1.4.8-.9,1-.4,1.6l6.3,7.2,7.1-6.3c.5-.5.4-1.3-.2-1.6s-.8-.5-1.1-.9Z"/>
  </g>
  <g class="category">
    <path class="st61" d="M544.9,559.5l-70.9,450.4c-21.9-3.4-43.5-8.5-64.6-15.1-21.2-6.6-41.8-14.7-61.8-24.3l197.3-411Z"/>
    <g>
      <path class="st24" d="M472.4,1007.7c-19.7-3.2-39.3-7.7-58.3-13.4-19.1-5.7-37.9-12.8-56.1-21l182.8-400-68.4,434.4Z"/>
      <path class="st61" d="M536.6,587l-65.9,418.4c-18.9-3.1-37.8-7.5-56.1-13.1-18.4-5.5-36.5-12.3-54-20.1l176.1-385.2M544.9,559.5l-189.5,414.7c18.8,8.6,38.2,15.9,58.1,21.9,19.8,6,40.1,10.6,60.5,13.8l70.9-450.4h0Z"/>
    </g>
    <path class="st61" d="M544.9,559.5l-53.2,337.8c-15.3-2.4-30.5-5.9-45.4-10.4-14.9-4.5-29.4-10-43.6-16.4l142.1-311Z"/>
    <text class="st4" transform="translate(475.5 760.7) rotate(105.8)"><tspan x="0" y="0">renovation</tspan></text>
    <path class="st61" d="M470.4,947.4l-14.5-23.9c-1.2-1.9-4-1.9-5.1.1l-13.4,24.6c-1.1,2,.4,4.4,2.7,4.4l8.8-.2c-3.3,8.7-11.6,14.9-21.4,15.2-13,.3-23.7-10-24-23-.3-12.4,9.5-23.1,21.9-24,2.4-.2,4.3-2.3,4.1-4.7s-2.3-4.3-4.7-4.1c-17.3,1.2-30.5,15.7-30.1,33,.4,17.8,15.2,32,33.1,31.6,14.8-.3,27-10.6,30.6-24.2l9.9-.2c2.3,0,3.6-2.6,2.5-4.5Z"/>
  </g>
  <g class="category">
    <path class="st50" d="M548.3,560l63.9,451.5c-21.9,3.1-44.1,4.6-66.2,4.5-22.2-.1-44.3-1.8-66.2-5.2l68.5-450.8Z"/>
    <g>
      <path class="st24" d="M548.3,1014c-19.2,0-38.7-1.2-57.8-3.7l57.9-435.9,61.6,435.4c-19.7,2.7-39.8,4.1-59.7,4.2h-1.9Z"/>
      <path class="st50" d="M548.4,588.7l59.3,419.4c-19,2.5-38.3,3.8-57.5,3.9-.6,0-1.3,0-1.9,0-18.5,0-37.2-1.2-55.6-3.4l55.7-419.9M548.3,560l-60,452c19.9,2.6,39.9,4,60,4s1.3,0,2,0c20.7,0,41.4-1.6,61.9-4.5l-63.9-451.5h0Z"/>
    </g>
    <path class="st50" d="M548.3,560l47.9,338.6c-15.4,2.2-30.9,3.3-46.4,3.4-15.5,0-31.1-.9-46.5-3l45-339Z"/>
    <text class="st22" transform="translate(541.6 807.9) rotate(88.8)"><tspan x="0" y="0">novelty</tspan></text>
    <g>
      <path class="st50" d="M570.2,960.9l-7.6,3.3c-1,.4-1.7,1.4-1.7,2.5l-.4,8.3c0,1-1.3,1.5-2,.7l-5.5-6.2c-.7-.8-1.8-1.1-2.9-.9l-8,2.1c-1,.3-1.8-.8-1.3-1.7l4.2-7.2c.5-.9.5-2.1,0-3l-4.5-7c-.6-.9.2-2,1.2-1.8l8.1,1.8c1.1.2,2.2-.2,2.8-1l5.2-6.5c.7-.8,1.9-.4,2,.6l.8,8.3c.1,1.1.8,2,1.8,2.4l7.8,3c1,.4,1,1.7,0,2.1Z"/>
      <path class="st33" d="M575.8,961.2l-10.5,4.6c-1.4.6-2.3,1.9-2.4,3.4l-.6,11.5c0,1.4-1.8,2-2.8,1l-7.7-8.6c-1-1.1-2.5-1.6-4-1.2l-11.1,3c-1.4.4-2.5-1.1-1.8-2.4l5.8-9.9c.8-1.3.7-2.9,0-4.2l-6.3-9.7c-.8-1.2.3-2.7,1.7-2.4l11.2,2.5c1.5.3,3-.2,3.9-1.4l7.3-8.9c.9-1.1,2.7-.6,2.8.9l1.1,11.5c.1,1.5,1.1,2.8,2.5,3.3l10.7,4.1c1.3.5,1.4,2.4,0,3Z"/>
      <path class="st34" d="M585.3,961.7l-15.5,6.8c-2,.9-3.4,2.8-3.5,5l-.9,16.9c-.1,2.1-2.7,3-4.1,1.4l-11.2-12.6c-1.5-1.7-3.7-2.3-5.9-1.8l-16.3,4.3c-2,.5-3.7-1.6-2.6-3.5l8.5-14.6c1.1-1.9,1.1-4.3-.1-6.1l-9.2-14.2c-1.1-1.8.4-4,2.5-3.6l16.5,3.6c2.2.5,4.4-.3,5.8-2l10.7-13.1c1.3-1.6,4-.8,4.2,1.2l1.7,16.8c.2,2.2,1.7,4.1,3.7,4.9l15.8,6.1c2,.8,2,3.5,0,4.3Z"/>
    </g>
  </g>
  <g class="category">
    <path class="st55" d="M552.8,560.6l197.6,410.9c-20,9.6-40.6,17.7-61.7,24.3-21.1,6.6-42.7,11.6-64.6,15.1l-71.2-450.4Z"/>
    <g>
      <path class="st24" d="M557.2,574.3l190.6,396.3c-18,8.6-36.7,16-55.6,22.1-18.9,6.1-38.5,11-58.1,14.6l-76.9-433Z"/>
      <path class="st55" d="M561.6,588l183.5,381.7c-17.4,8.2-35.4,15.3-53.6,21.2-18.2,5.9-37,10.6-55.9,14.2l-74-417M552.8,560.6l79.7,448.9c20.4-3.6,40.5-8.6,60.2-15s39-14.1,57.6-23l-197.6-410.9h0Z"/>
    </g>
    <path class="st55" d="M552.8,560.6l148.2,308.2c-14,6.7-28.4,12.5-43.2,17.3-14.8,4.8-29.9,8.5-45.2,11.2l-59.8-336.7Z"/>
    <text class="st2" transform="translate(603.7 747.4) rotate(71.2)"><tspan x="0" y="0">social pressure</tspan></text>
    <g>
      <path class="st55" d="M700.3,954.7l14.5,4.5c1.6.5,1.9,2.7.4,3.6l-5.1,2.8c-.6.3-1,1-1,1.7v4.2c-.1,1.3-1.4,2.2-2.6,1.8l-13.9-4.6c-1.6-.5-1.8-2.7-.3-3.5l5-2.8c.7-.4,1.1-1.1,1-1.9l-.4-3.6c-.2-1.4,1.2-2.5,2.5-2.1Z"/>
      <path class="st55" d="M681.9,900.5l14.5,4.5c1.6.5,1.9,2.7.4,3.6l-5.1,2.8c-.6.3-1,1-1,1.7v4.2c-.1,1.3-1.4,2.2-2.6,1.8l-13.9-4.6c-1.6-.5-1.8-2.7-.3-3.5l5-2.8c.7-.4,1.1-1.1,1-1.9l-.4-3.6c-.2-1.4,1.2-2.5,2.5-2.1Z"/>
      <path class="st55" d="M694.4,925.6l16.9,5.3c1.9.6,2.2,3.2.4,4.2l-5.9,3.3c-.7.4-1.1,1.1-1.2,1.9v4.9c-.1,1.5-1.6,2.6-3.1,2.1l-16.3-5.4c-1.9-.6-2.1-3.2-.4-4.1l5.9-3.3c.8-.4,1.3-1.3,1.1-2.2l-.5-4.2c-.2-1.6,1.4-2.9,2.9-2.4Z"/>
      <path class="st55" d="M656.8,977.3c3.1-3.1,5.9-6.8,9-9.9,4.9-2.1,10.8-3.2,15.7-5.4,2.5-1.1,4.3-4.4,3.7-6.9-.2-.6-.3-1.2-.7-1.9-.3-.7-.7-1.3-1.3-1.9-2.2-2.2-3.9-4.7-5.3-7.4-.6-3.1-.7-6.2-.2-9.5,0-.8,0-1.4-.2-2.1,0-.4-.3-.8-.4-1.2,0,0-.4-.7-.5-1-.3-.4-1.4-1.7-1.4-1.7-1.5-1.4-3.8-1.8-5.7-1.4-5.2,1.3-10.5,4-15.7,5.3-4.5-.4-9.2-2-13.6-2.4-3.2-.3-3.3,1.9-2.6,4.4.7,2.5,2.1,4.7,3.6,6.7-1.2,2.1-2.3,4.7-2.6,7.1-2.6-.8-4.2.6-3.6,3.3.5,1.9,1.5,5.5,4.1,4.5.2.6.4,1.2.6,1.7-2.5,1.1-1.3,4.4-.4,6.3,1.1,2.4,3.5,2.7,4.8.2,1.8,1.7,4.1,3.2,6.4,4,0,1.3,0,2.7.2,4,.3,1.7,1.4,6,3.3,6.5,1.5.3,2-.5,2.9-1.4ZM648.3,947.4c.2-.4,1.2-1.4,1.4-.8.4,1.3,1.3,3.2,1.5,4.4.1.8-1,.5-1.5.3-1.4-.7-2.1-2.5-1.4-3.9ZM647.9,956.6c-2.4-.3-3.3-4.2-.9-5.1l1.6,4.8c.1.4-.5.3-.7.3ZM652.3,959c-1.4-.7-2.1-2.5-1.4-3.9.2-.4,1.2-1.4,1.4-.8.4,1.3,1.3,3.2,1.5,4.4.1.8-1,.5-1.5.3ZM667.9,964.8c-5.2,1.2-10-3.6-8.8-8.9.3-1.4,1.1-2.4,1.8-3.5,0-.2,0-.2.2,0,.3,0,.5,0,.6.4,2.7-1.5,1-6.2-2-5.9,0,.3,0,.5-.3.7,0,.2,0,.2-.2,0-7.3-1.4-8.6-11.2-1.6-14.2,3-1.3,6.2-2.3,9.4-1,.4.2.9.7,1.1.7.5,0,1-.3,1.5-.4,3.1-.4,2,1.1,1,2.9.9-.4,4.1-1,3.4.7-1.1,2.6-4.5,6.4-3.9,9.3,1.1,5.2,5.7,4.8,9.4,6.9,1.7,1-1.2,2.6-2.2,2.6.6.7,3.1.8,2.3,2.1-.6.9-1.9,1.1-2.6,1.6,0,0-.4,1.2-.6,1.5-1.6,2.7-5.3,4-8.3,4.7Z"/>
      <path class="st55" d="M667.9,936.7c1.4,2.6.7,5.9-2.1,7.2-3.4,1.5-8,2.7-9.8-1.6-2.7-6.5,9.1-10.7,11.9-5.6Z"/>
      <path class="st55" d="M673.6,953.4c2.7,4.9-1.5,7.7-5.9,8.7-6,1.4-8.9-6.9-3.4-9.5s7.4-2.6,9.3.9Z"/>
      <path class="st55" d="M661,952.3c-1-1.8-1.5-2.8-1.7-4.9s-.2-.9,0-1c3.4-.8,5.5,4.5,2.8,6.4-.9.6-.8,0-1.1-.5Z"/>
      <path class="st24" d="M662.4,938c.3,1.8,2.2,2,3.1.5,1,1.4.7,3.1-.9,3.8s-4.7,1.9-5.6-.6,1.5-3.3,3.4-3.8Z"/>
      <path class="st24" d="M667.6,953.4c.2.1.5,1.7,2,1.1s.7-.8,1-.5c1.1.8.8,2.8-.3,3.5s-2.7,1.2-3.5,1.3c-2.6.5-3.9-3.2-1.5-4.5s2.2-.9,2.3-.8Z"/>
      <path class="st55" d="M662.9,950.3c-.1.2-.7.3-.9,0s0-.7-.2-1.1-.8-.9-.3-1.2c1-.7,1.6,1.9,1.4,2.2Z"/>
    </g>
  </g>
  <g class="category">
    <path class="st45" d="M555.9,559.1l309.1,335.2c-16.3,15-33.6,28.8-51.9,41.3-18.3,12.5-37.5,23.6-57.4,33.3l-199.8-409.9Z"/>
    <g>
      <path class="st24" d="M564.1,570.9l298.1,323.3c-14.7,13.4-30.4,26-46.7,37.4-16.3,11.4-33.6,21.8-51.3,30.9l-200.1-391.6Z"/>
      <path class="st45" d="M572.3,582.7l287.1,311.4c-14.2,12.9-29.4,25-45.1,35.9-15.7,11-32.3,21-49.3,29.9l-192.7-377.2M555.9,559.1l207.5,406c18.4-9.4,36.2-20.1,53.2-31.9,17-11.8,33.2-24.8,48.4-38.9l-309.1-335.2h0Z"/>
    </g>
    <path class="st45" d="M555.9,559.1l231.8,251.4c-11.4,10.5-23.5,20.3-36.3,29.2-12.7,8.9-26.1,16.9-39.9,24l-155.6-304.5Z"/>
    <text class="st20" transform="translate(672.2 740.7) rotate(54.2)"><tspan x="0" y="0">reputation</tspan></text>
    <g>
      <path class="st45" d="M809.8,905.8l-4.4,6.6c-.6.9-.6,2,0,2.9l4,6.9c.5.9-.3,1.9-1.3,1.6l-7.7-2.1c-1-.3-2.1,0-2.8.8l-5.3,5.9c-.7.7-1.9.3-1.9-.7l-.4-7.9c0-1-.7-2-1.6-2.4l-7.3-3.3c-.9-.4-.9-1.7,0-2l7.4-2.8c1-.4,1.7-1.2,1.8-2.3l.9-7.9c.1-1,1.3-1.3,2-.6l5,6.2c.6.8,1.7,1.2,2.7,1l7.8-1.6c1-.2,1.7.9,1.1,1.7Z"/>
      <path class="st45" d="M774.4,853.8l-4.4,6.6c-.6.9-.6,2,0,2.9l4,6.9c.5.9-.3,1.9-1.3,1.6l-7.7-2.1c-1-.3-2.1,0-2.8.8l-5.3,5.9c-.7.7-1.9.3-1.9-.7l-.4-7.9c0-1-.7-2-1.6-2.4l-7.3-3.3c-.9-.4-.9-1.7,0-2l7.4-2.8c1-.4,1.7-1.2,1.8-2.3l.9-7.9c.1-1,1.3-1.3,2-.6l5,6.2c.6.8,1.7,1.2,2.7,1l7.8-1.6c1-.2,1.7.9,1.1,1.7Z"/>
      <path class="st45" d="M810.2,867.9l-6,9.1c-.8,1.2-.8,2.7-.1,4l5.4,9.4c.7,1.2-.4,2.6-1.7,2.2l-10.5-2.9c-1.4-.4-2.8,0-3.8,1.1l-7.3,8.1c-.9,1-2.6.4-2.6-.9l-.5-10.9c0-1.4-.9-2.7-2.2-3.3l-9.9-4.5c-1.2-.6-1.2-2.3,0-2.8l10.2-3.8c1.3-.5,2.3-1.7,2.4-3.1l1.2-10.8c.1-1.3,1.8-1.8,2.7-.8l6.8,8.5c.9,1.1,2.3,1.6,3.7,1.3l10.7-2.2c1.3-.3,2.3,1.2,1.6,2.3Z"/>
    </g>
  </g>
  <g class="category">
    <path class="st37" d="M558.1,556.5l393.6,230.2c-11.2,19.1-23.7,37.4-37.6,54.7-13.8,17.3-28.9,33.6-45.1,48.7l-310.9-333.5Z"/>
    <g>
      <path class="st24" d="M569.4,565.3l379.6,222c-10.1,17.1-21.5,33.8-33.8,49.4-12.3,15.7-25.7,30.6-40,44.5l-305.9-316Z"/>
      <path class="st37" d="M580.7,574.2l365.6,213.8c-9.8,16.5-20.8,32.4-32.6,47.5-11.8,15.1-24.7,29.5-38.4,43l-294.6-304.3M558.1,556.5l317.1,327.6c14.9-14.4,28.8-29.8,41.6-46.1,12.8-16.3,24.5-33.4,34.9-51.3l-393.6-230.2h0Z"/>
    </g>
    <path class="st37" d="M558.1,556.5l295.2,172.6c-7.8,13.4-16.6,26.3-26.2,38.5-9.6,12.2-20,23.8-31.2,34.6l-237.8-245.7Z"/>
    <text class="st13" transform="translate(710 686.8) rotate(37.2)"><tspan x="0" y="0">cooperation</tspan></text>
    <g>
      <path class="st37" d="M832.4,785.3l24.9,18.7c.5.4.7,1.1.4,1.7l-1.8,4.1c-.4,1,.4,2.1,1.5,2l7.5-1.1c.7,0,1.4,0,1.9.5l16,12c1.1.8,2.7.6,3.6-.5l13-17.4c.8-1.1.6-2.7-.5-3.6l-50.4-37.9c-1.1-.8-2.7-.6-3.6.5l-13,17.4c-.8,1.1-.6,2.7.5,3.6Z"/>
      <path class="st23" d="M834.1,783.4l24.9,18.7c.5.4.7,1.1.4,1.7l-1.8,4.1c-.4,1,.4,2.1,1.5,2l7.5-1.1c.7,0,1.4,0,1.9.5l16,12c1.1.8,2.7.6,3.6-.5l13-17.4c.8-1.1.6-2.7-.5-3.6l-50.4-37.9c-1.1-.8-2.7-.6-3.6.5l-13,17.4c-.8,1.1-.6,2.7.5,3.6Z"/>
    </g>
    <path class="st28" d="M900,818.3c-2.9-2.2-6.7-2.3-9.7-.7-.7.4-1.4-.2-1.3-1,.7-3.3-.5-6.9-3.4-9.1s-9.6-2.2-12.6,1.8c0,0-3.9,5.4-3.8,11.1,0,6.8,3.6,13.2,5,15.6s1,1.1,1.7,1.3c2.1.6,7.1,1.5,14.3.4s11.6-6.7,11.6-6.7c3-4,2.2-9.6-1.8-12.6Z"/>
  </g>
  <g class="category">
    <path class="st41" d="M559.8,553.5l443.7,105c-5.1,21.6-11.8,42.7-20,63.3-8.2,20.6-17.8,40.6-28.9,59.7l-394.8-228.1Z"/>
    <g>
      <path class="st24" d="M573.2,558.7l427.9,101.3c-4.7,19.4-10.7,38.6-17.8,57.1-7.2,18.6-15.7,36.8-25.2,54.3l-384.9-212.7Z"/>
      <path class="st41" d="M586.6,563.9l412.2,97.6c-4.6,18.6-10.4,37.1-17.3,55-6.9,17.9-15,35.5-24.2,52.3l-370.7-204.9M559.8,553.5l399,220.6c10-18.1,18.8-36.9,26.3-56.2,7.5-19.3,13.6-39.1,18.4-59.3l-443.7-105h0Z"/>
    </g>
    <path class="st41" d="M559.8,553.5l332.8,78.8c-3.6,15.1-8.2,30-13.8,44.5-5.6,14.5-12.2,28.6-19.7,42.2l-299.3-165.4Z"/>
    <text class="st15" transform="translate(743.2 633.7) rotate(20.2)"><tspan x="0" y="0">competition</tspan></text>
    <g>
      <path class="st41" d="M918.6,663.6h.1s24.4.5,24.4.5c1.4,0,2.6.6,3.6,1.5l17.6,17c1.6,1.5,2.1,3.9,1.2,5.9l-14.3,34.5c-.8,2-2.8,3.3-4.9,3.3s-.2,0-.2,0l-24.2-1.1c-1.3,0-2.5-.6-3.4-1.4l-17.8-16.4c-1.6-1.5-2.2-3.9-1.3-6l14.3-34.5c.8-2,2.8-3.3,4.9-3.3M918.6,657.1c-4.7,0-9,2.9-10.9,7.3l-14.3,34.5c-1.9,4.6-.7,9.8,2.9,13.2l17.8,16.4c2,1.9,4.7,3,7.5,3.1l24.2,1.1c.2,0,.3,0,.5,0,4.7,0,9-2.8,10.9-7.3l14.3-34.5c1.9-4.5.8-9.6-2.7-13l-17.6-17c-2.1-2.1-5-3.2-7.9-3.3l-24.4-.5c0,0-.2,0-.2,0h0Z"/>
      <path class="st41" d="M913.3,700.7l1.5-9.8c0-.3.2-.5.5-.7l12.5-4.7c.4-.1.8,0,1,.4l1.2,2.2c.3.6,1.2.5,1.5,0l1.7-4.1c0-.2.2-.4.4-.4l7.7-3.4c0,0,.2,0,.2,0,1.1-.1,8.2-.7,11.3,6.3,3.1,7.1-1.7,11-2.3,11.5s-.1,0-.2,0l-16.5,7.3c-.2,0-.4,0-.6,0l-5.2-1.4c-.7-.2-1.3.5-1,1.2l.4.8c.3.6,0,1.4-.6,1.7l-3.3,1.5c-.2.1-.5,0-.8,0l-8.2-4.6c-.2-.1-.3-.3-.4-.5l-.9-2.8c0-.1,0-.2,0-.4Z"/>
      <path class="st62" d="M938,690.8c-.2,0-.4,0-.6.1l-28.2,11.7c-.8.3-1.2,1.2-.8,2,.2.6.8,1,1.4,1s.4,0,.6-.1l28.2-11.7c.8-.3,1.2-1.2.8-2-.2-.6-.8-1-1.4-1h0Z"/>
    </g>
  </g>
  <g class="category">
    <path class="st62" d="M561.4,551.4l454.7-33.3c1.6,22.1,1.6,44.3,0,66.4s-4.8,44-9.6,65.7l-445.1-98.7Z"/>
    <g>
      <path class="st24" d="M575.7,552.3l438.6-32.2c1.4,19.9,1.4,40,.2,59.9-1.3,19.9-3.8,39.8-7.7,59.4l-431.1-87.1Z"/>
      <path class="st62" d="M1012.5,522.2c1.2,19.1,1.3,38.5,0,57.6-1.2,19.1-3.7,38.3-7.3,57.2l-415.2-83.8,422.4-31M1016.1,518l-454.7,33.3,446.9,90.3c4.1-20.3,6.8-40.9,8.1-61.5,1.3-20.7,1.2-41.4-.3-62.1h0Z"/>
    </g>
    <path class="st62" d="M561.4,551.4l341-25c1.1,15.5,1.2,31,.2,46.6-1,15.5-3,30.9-6.1,46.2l-335.2-67.7Z"/>
    <text class="st8" transform="translate(740.6 571.7) rotate(2.7)"><tspan x="0" y="0">time pressure</tspan></text>
    <g>
      <path class="st62" d="M956.4,560.1h0,.3c6.4,0,12.3,2.6,16.8,7.2,4.5,4.6,6.9,10.6,6.8,17-.2,13-10.9,23.6-23.9,23.6h-.3c-13.2-.2-23.7-11-23.6-24.2.2-13,10.9-23.6,23.9-23.6M956.4,552.8c-17,0-30.9,13.7-31.1,30.8-.2,17.2,13.6,31.3,30.8,31.5.1,0,.2,0,.4,0,17,0,30.9-13.7,31.1-30.8.2-17.2-13.6-31.3-30.8-31.5-.1,0-.2,0-.4,0h0Z"/>
      <path class="st62" d="M955.5,559.5h3.5c1.6,0,2.8-1.2,2.9-2.8v-7.8c.1-1.6,1.4-2.8,3-2.8h8.6c1.6.1,2.8-1.1,2.9-2.7v-5.1c0-1.6-1.2-2.8-2.7-2.9l-30.2-.4c-1.6,0-2.8,1.2-2.9,2.8v5.1c0,1.6,1.2,2.8,2.7,2.9h6.6c1.6,0,2.8,1.4,2.8,2.9v7.9c0,1.6,1.3,2.8,2.8,2.8Z"/>
      <path class="st62" d="M956.4,584l16.6.2c-.1,9.1-7.7,16.5-16.8,16.4-9.1-.1-16.5-7.7-16.4-16.8.1-9.1,7.7-16.5,16.8-16.4,0,0,0,0,0,0l-.2,16.6Z"/>
    </g>
  </g>
  <g class="category">
    <path class="st46" d="M560,548.4l425.1-164.8c8,20.7,14.5,41.9,19.4,63.5s8.3,43.5,10,65.6l-454.5,35.8Z"/>
    <g>
      <path class="st24" d="M984,386.1c7.1,18.6,13.1,37.8,17.7,57.2,4.6,19.4,8,39.2,10,59l-437.7,42.8,410-159Z"/>
      <path class="st46" d="M982.9,388.6c6.8,17.9,12.5,36.5,16.9,55.1,4.4,18.6,7.7,37.7,9.7,56.8l-421.6,41.2,394.9-153.1M985.1,383.6l-425.1,164.8,453.8-44.4c-2-20.6-5.4-41.1-10.2-61.2s-11-40-18.4-59.3h0Z"/>
    </g>
    <path class="st46" d="M560,548.4l318.8-123.6c5.6,14.5,10.2,29.3,13.8,44.4,3.6,15.1,6.2,30.5,7.7,45.9l-340.3,33.3Z"/>
    <text class="st11" transform="translate(808.8 497.1) rotate(-14.3)"><tspan x="0" y="0">chance</tspan></text>
    <circle class="st24" cx="948.6" cy="449.3" r="5.4"/>
    <circle class="st24" cx="962.6" cy="445.1" r="5.4"/>
    <g>
      <rect class="st46" x="928.1" y="413.8" width="51.6" height="51.6" rx="6.5" ry="6.5" transform="translate(1103.5 -600) rotate(73.4)"/>
      <circle class="st24" cx="965.9" cy="426.1" r="5.7"/>
      <circle class="st24" cx="936.4" cy="434.9" r="5.7"/>
      <circle class="st24" cx="951.2" cy="430.5" r="5.7"/>
      <circle class="st24" cx="970.7" cy="442.3" r="5.7"/>
      <rect class="st31" x="915.7" y="446.1" width="51.6" height="51.6" rx="7.5" ry="7.5" transform="translate(1125.6 -565) rotate(73.4)"/>
      <circle class="st24" cx="950.3" cy="456.3" r="5.7"/>
      <circle class="st24" cx="932.6" cy="487.5" r="5.7"/>
      <circle class="st24" cx="941.5" cy="471.9" r="5.7"/>
    </g>
  </g>
  <g class="category">
    <path class="st56" d="M558.7,545.2l358.3-281.9c13.7,17.4,26.1,35.8,37.1,55,11,19.2,20.6,39.2,28.8,59.8l-424.2,167.1Z"/>
    <g>
      <path class="st24" d="M916.7,266c12.2,15.7,23.5,32.4,33.6,49.5,10.1,17.2,19.1,35.2,26.8,53.5l-406,168.9,345.6-271.9Z"/>
      <path class="st56" d="M916.4,268.8c11.7,15.2,22.6,31.2,32.3,47.8,9.7,16.5,18.4,33.8,25.9,51.5l-391.1,162.7,332.9-261.9M917.1,263.3l-358.3,281.9,421-175.1c-8-19.1-17.2-37.7-27.7-55.6-10.5-17.9-22.2-35-35-51.3h0Z"/>
    </g>
    <path class="st56" d="M558.7,545.2l268.8-211.4c9.6,12.2,18.4,25.1,26.2,38.5,7.9,13.4,14.8,27.3,20.8,41.7l-315.7,131.3Z"/>
    <text class="st6" transform="translate(703.5 471) rotate(-31.3)"><tspan x="0" y="0">imposed choice</tspan></text>
    <path class="st56" d="M912.2,341l13.7-31.4c1.1-2.5-.9-5.3-3.7-5l-34,3.8c-2.7.3-4.1,3.4-2.5,5.7l3.4,4.6c1.2,1.6.8,3.8-.7,5l-18,13.3c-1.6,1.2-1.9,3.4-.7,5l5.1,6.9c1.2,1.6,3.4,1.9,5,.7l18-13.3c1.6-1.2,3.8-.8,5,.7l3.4,4.6c1.6,2.2,5,1.8,6.1-.7Z"/>
    <path class="st56" d="M891.6,349.8l-13.7,31.4c-1.1,2.5.9,5.3,3.7,5l34-3.8c2.7-.3,4.1-3.4,2.5-5.7l-3.4-4.6c-1.2-1.6-.8-3.8.7-5l18-13.3c1.6-1.2,1.9-3.4.7-5l-5.1-6.9c-1.2-1.6-3.4-1.9-5-.7l-18,13.3c-1.6,1.2-3.8.8-5-.7l-3.4-4.6c-1.6-2.2-5-1.8-6.1.7Z"/>
  </g>
  <g class="category">
    <path class="st1" d="M556.2,542.8l260.3-374.4c18.2,12.6,35.4,26.6,51.6,41.7,16.2,15.2,31.2,31.5,45,48.8l-356.8,283.8Z"/>
    <g>
      <path class="st24" d="M817,171.1c16.3,11.4,32,24.1,46.6,37.5,14.6,13.5,28.5,28,41.3,43.3l-338.9,280.2,251-361.1Z"/>
      <path class="st0" d="M817.5,173.9c15.7,11.1,30.7,23.3,44.8,36.2,14.1,13,27.5,27,39.8,41.7l-326.4,269.9,241.8-347.8M816.5,168.4l-260.3,374.4,351.4-290.5c-13.2-16-27.5-31-42.7-45-15.2-14-31.4-27-48.4-38.8h0Z"/>
    </g>
    <path class="st0" d="M556.2,542.8l195.2-280.8c12.8,8.9,24.9,18.6,36.3,29.1,11.4,10.5,22.1,21.8,32,33.8l-263.5,217.9Z"/>
    <text class="st3" transform="translate(719.1 377.8) rotate(-48.3)"><tspan x="0" y="0">economy</tspan></text>
    <g>
      <path class="st0" d="M790.3,263.8l11.1,11.6c2.2,2.3,5.3,3.3,8.4,2.8l11.4-1.9c3.9-.6,7-3.6,7.8-7.5l2.4-11.3c.6-3.1-.3-6.3-2.5-8.5l-11.1-11.6c-2.2-2.3-5.3-3.3-8.4-2.8l-11.4,1.9c-3.9.6-7,3.6-7.8,7.5l-2.4,11.3c-.6,3.1.3,6.3,2.5,8.5Z"/>
      <path class="st24" d="M800.5,248.8l-1.5,7.2c-.1.7-.6,1.2-1.2,1.5l-5,2c-1.6.6-3.3-.8-3-2.5l2.8-13.5c.4-1.7,2.5-2.2,3.7-.8l3.7,4.3c.5.5.6,1.2.5,1.9Z"/>
    </g>
    <g>
      <g>
        <path class="st0" d="M843,275.4c-3,0-6-1.3-8.1-3.5l-11.1-11.6c-2.6-2.7-3.7-6.4-2.9-10.1l2.4-11.3c1-4.6,4.5-8,9.2-8.8l11.4-1.9c.6-.1,1.2-.2,1.9-.2,3,0,6,1.3,8.1,3.5l11.1,11.6c2.6,2.7,3.7,6.4,2.9,10.1l-2.4,11.3c-1,4.6-4.5,8-9.2,8.8l-11.4,1.9c-.6.1-1.2.2-1.9.2h0Z"/>
        <path class="st24" d="M845.6,229.8c2.6,0,5.1,1,6.9,2.9l11.1,11.6c2.2,2.3,3.1,5.5,2.5,8.5l-2.4,11.3c-.8,3.8-3.9,6.8-7.8,7.5l-11.4,1.9c-.5,0-1,.1-1.6.1-2.6,0-5.1-1-6.9-2.9l-11.1-11.6c-2.2-2.3-3.1-5.5-2.5-8.5l2.4-11.3c.8-3.8,3.9-6.8,7.8-7.5l11.4-1.9c.5,0,1-.1,1.6-.1M845.6,226.4c-.7,0-1.4,0-2.1.2l-11.4,1.9c-5.3.9-9.5,4.9-10.6,10.2l-2.4,11.3c-.9,4.2.4,8.5,3.4,11.6l11.1,11.6c2.4,2.5,5.8,4,9.4,4s1.4,0,2.1-.2l11.4-1.9c5.3-.9,9.5-4.9,10.6-10.2l2.4-11.3c.9-4.2-.4-8.5-3.4-11.6l-11.1-11.6c-2.4-2.5-5.8-4-9.4-4h0Z"/>
      </g>
      <path class="st24" d="M835.2,244.2l-1.5,7.2c-.1.7-.6,1.2-1.2,1.5l-5,2c-1.6.6-3.3-.8-3-2.5l2.8-13.5c.4-1.7,2.5-2.2,3.7-.8l3.7,4.3c.5.5.6,1.2.5,1.9Z"/>
    </g>
  </g>
  <g class="category">
    <path class="st47" d="M553.4,540.9l139.4-434.1c21.1,6.8,41.7,15.1,61.5,24.8s39,21,57.3,33.5l-258.3,375.8Z"/>
    <g>
      <path class="st24" d="M694.1,109.2c18.9,6.2,37.6,13.7,55.6,22.3s35.5,18.5,52.2,29.4l-242.2,367.1,134.5-418.7Z"/>
      <path class="st47" d="M695.4,111.7c18.2,6,36.2,13.3,53.5,21.6,17.3,8.3,34.2,17.8,50.3,28.2l-233.3,353.5,129.5-403.3M692.8,106.8l-139.4,434.1,251.1-380.6c-17.3-11.4-35.3-21.6-54-30.6-18.7-9-37.9-16.6-57.7-23h0Z"/>
    </g>
    <path class="st47" d="M553.4,540.9l104.6-325.6c14.8,4.8,29.2,10.5,43.2,17.2,14,6.7,27.5,14.4,40.5,22.9l-188.3,285.4Z"/>
    <text class="st16" transform="translate(677.1 300.2) rotate(-65.3)"><tspan x="0" y="0">rarity</tspan></text>
    <g>
      <g>
        <path class="st47" d="M727.1,158.4h-.2s-26,5.2-26,5.2c-2.3.5-3.6,3-2.6,5.1l5.8,12.4-4.8,2.9c-2.5,1.5-2.3,5.2.4,6.4l21.7,9.6h.3c10.4,3.9,22.2-.9,26.9-11.2,5-10.8.2-23.6-10.6-28.6s-7.2-2.2-10.8-1.9Z"/>
        <path class="st56" d="M730,173c-.6.2-1.3.3-2,.4l-6.1,1c-1.3.2-2,1.7-1.3,2.8l3.1,5.3c.3.5.6,1,.8,1.6.8,2.3,3,4.5,5.4,5.6,4.3,1.8,9.4,0,11.5-4.1s.4-10-4.2-12.1c-2.2-1-5-1.1-7.1-.4Z"/>
      </g>
      <path class="st27" d="M728.2,211.8l-44.2-20.9c-1.1-.5-1.3-1.9-.4-2.8l10.9-10.1-7.7-17.7c-.7-1.6.3-3.4,2-3.7l42.8-7.2c.3,0,.7,0,1,.1l16.5,7.6c.1,0,.2.1.3.2l17.6,13.4c1.3,1,.6,3-1,3h-5.8c-1.3,0-2.1,1.4-1.5,2.5l1.4,2.7-6.4,12.3,9.2,6.5c1.5,1,.5,3.4-1.3,3l-11-2-4.7,3,5.3,5.3c1.1,1.1.2,3-1.3,2.9l-16.7-1.1c-.5,0-1.1.2-1.4.6l-1.6,1.9c-.5.6-1.3.8-2,.5Z"/>
      <rect class="st56" x="699.9" y="187.5" width="11.5" height="11.5" rx="1.2" ry="1.2" transform="translate(-23.2 256.9) rotate(-20.3)"/>
      <rect class="st56" x="741.8" y="160.1" width="7.4" height="7.4" rx=".8" ry=".8" transform="translate(-10.5 268.9) rotate(-20.3)"/>
    </g>
  </g>
</svg>