<svg width="61" height="77" viewBox="0 0 61 77" fill="none" xmlns="http://www.w3.org/2000/svg">
<path d="M30.384 30.416C29.328 30.416 28.432 30.048 27.696 29.312C26.96 28.576 26.592 27.68 26.592 26.624C26.592 25.568 26.96 24.672 27.696 23.936C28.432 23.2 29.328 22.832 30.384 22.832C31.44 22.832 32.336 23.2 33.072 23.936C33.808 24.672 34.176 25.568 34.176 26.624C34.176 27.68 33.808 28.576 33.072 29.312C32.336 30.048 31.44 30.416 30.384 30.416ZM30.384 56.288C29.392 56.288 28.576 55.984 27.936 55.376C27.328 54.736 27.024 53.856 27.024 52.736V36.032C27.024 34.912 27.328 34.048 27.936 33.44C28.576 32.8 29.392 32.48 30.384 32.48C31.344 32.48 32.144 32.8 32.784 33.44C33.424 34.048 33.744 34.912 33.744 36.032V52.736C33.744 53.856 33.424 54.736 32.784 55.376C32.144 55.984 31.344 56.288 30.384 56.288Z" fill="#AFAFAF"/>
<circle cx="30.5" cy="38.5" r="27" stroke="#AFAFAF" stroke-width="7"/>
</svg>
