<svg width="22" height="20" viewBox="0 0 22 20" fill="none" xmlns="http://www.w3.org/2000/svg">
<path d="M9.60068 1.29774C10.1296 0.0696092 11.8709 0.0696099 12.3998 1.29774L14.1444 5.34901C14.365 5.86127 14.8479 6.21208 15.4033 6.26359L19.7954 6.67095C21.1268 6.79444 21.6649 8.45053 20.6603 9.33305L17.3465 12.2442C16.9275 12.6123 16.743 13.18 16.8657 13.7241L17.8355 18.0271C18.1295 19.3315 16.7207 20.3551 15.571 19.6723L11.7782 17.4203C11.2986 17.1355 10.7018 17.1355 10.2222 17.4203L6.42951 19.6723C5.27975 20.3551 3.871 19.3315 4.16499 18.0271L5.13481 13.7241C5.25744 13.18 5.07301 12.6123 4.65398 12.2442L1.34013 9.33305C0.335544 8.45053 0.873642 6.79444 2.2051 6.67095L6.59721 6.26359C7.15257 6.21208 7.63542 5.86127 7.85603 5.349L9.60068 1.29774Z" fill="#AFAFAF"/>
</svg>
