<?xml version="1.0" encoding="UTF-8"?>
<svg xmlns="http://www.w3.org/2000/svg" version="1.1" viewBox="0 0 595.28 595.28">
  <defs>
    <style>
      .cls-1 {
        fill: #575756;
      }

      .cls-2 {
        fill: #878787;
      }

      .cls-3 {
        fill: #b2b2b2;
      }
    </style>
  </defs>
  <!-- Generator: Adobe Illustrator 28.7.3, SVG Export Plug-In . SVG Version: 1.2.0 Build 164)  -->
  <g>
    <g id="Ebene_1">
      <path class="cls-1" d="M498.23,263.87c0,100.79-49.97,196.89-200.59,196.91-138.37.02-200.59-96.12-200.59-196.91s89.81-168.09,200.59-168.09,200.59,67.3,200.59,168.09Z"/>
      <ellipse class="cls-2" cx="297.64" cy="255.23" rx="200.06" ry="160.15"/>
      <g>
        <path class="cls-3" d="M326.05,315.6c8.18-2.45,22.79-7.34,38.78-25.54,16.11-18.35,18.94-35.28,19.47-40.96,1.68-18,0-66.92,0-72.29,0-8.15-8.28-13.21-14.1-16.34-5.82-3.13-16.56-4.25-27.08.9-10.52,5.15-31.78,11.41-40.96,10.97-9.18-.45-23.5-6.04-30.44-8.95-6.94-2.91-12.51-5.88-16.11-5.82-2.69.05-12.98-.22-20.82,6.27s-8.73,14.32-8.73,14.32c0,0-.67,20.82,0,67.59.67,46.78,46.44,65.91,57.52,69.16,11.08,3.25,12.98,5.15,12.76,9.74-.12,2.55-1.7,4.55-3.08,5.82h-20.02c-4.63,0-8.38,3.75-8.38,8.38v2.67h-10.31c-4.73,0-8.56,3.83-8.56,8.56s3.83,8.56,8.56,8.56h97.7c4.73,0,8.56-3.83,8.56-8.56s-3.83-8.56-8.56-8.56h-7.89v-2.67c0-4.63-3.75-8.38-8.38-8.38h-20.42c-1.55-1.27-2.76-3.51-2.76-6.38,0-5.71,5.68-6.21,13.26-8.48Z"/>
        <path class="cls-3" d="M221.81,272.04c-4.87-11.92-5.2-23.64-5.2-32.4-3.09-6.34-6.21-8.23-9.06-11.08s-8.56-5.2-10.24-5.37-4.7-.84-6.38,2.85-.84,12.59,3.02,19.83,9.9,9.54,9.9,9.54l1.51,11.41s-6.55-.34-11.58.17c-5.04.5-7.89,2.69-7.72,5.04.17,2.35,3.36,8.56,10.58,13.93s18.3,4.2,18.3,4.2l5.04,8.06s-4.87,1.68-7.72,3.86c-2.85,2.18-7.39,9.23-8.39,11.58-1.01,2.35.34,4.53,2.35,5.37,2.01.84,8.39,3.69,16.45,2.01,8.06-1.68,13.43-10.58,16.11-13.43,2.69-2.85,4.2-7.05,1.68-8.9s-13.76-14.77-18.63-26.69Z"/>
        <path class="cls-3" d="M415.06,267.01c-5.04-.5-11.58-.17-11.58-.17l1.51-11.41s6.04-2.3,9.9-9.54c3.86-7.24,4.7-16.14,3.02-19.83s-4.7-3.02-6.38-2.85-7.39,2.52-10.24,5.37-5.97,4.74-9.06,11.08c0,8.75-.34,20.48-5.2,32.4-4.87,11.92-16.12,24.84-18.63,26.69s-1.01,6.04,1.68,8.9c2.69,2.85,8.06,11.75,16.11,13.43,8.06,1.68,14.44-1.17,16.45-2.01,2.01-.84,3.36-3.02,2.35-5.37-1.01-2.35-5.54-9.4-8.39-11.58-2.85-2.18-7.72-3.86-7.72-3.86l5.04-8.06s11.08,1.18,18.3-4.2,10.41-11.58,10.58-13.93c.17-2.35-2.69-4.53-7.72-5.04Z"/>
      </g>
    </g>
  </g>
</svg>