<?xml version="1.0" encoding="UTF-8"?>
<svg xmlns="http://www.w3.org/2000/svg" xmlns:xlink="http://www.w3.org/1999/xlink" version="1.1" viewBox="0 0 453.54 534.73">
  <defs>
    <style>
      .cls-1, .cls-2, .cls-3, .cls-4, .cls-5, .cls-6, .cls-7, .cls-8, .cls-9, .cls-10, .cls-11, .cls-12, .cls-13, .cls-14, .cls-15, .cls-16 {
        fill-rule: evenodd;
      }

      .cls-1, .cls-17 {
        fill: #d1d1d1;
      }

      .cls-2, .cls-18 {
        fill: #acabab;
      }

      .cls-19 {
        fill: #cd7801;
      }

      .cls-20 {
        fill: #835032;
      }

      .cls-21 {
        fill: #e6e6e6;
      }

      .cls-22 {
        fill: #eeab00;
      }

      .cls-23 {
        fill: #c8c8c8;
      }

      .cls-23, .cls-24 {
        opacity: 0;
      }

      .cls-25 {
        fill: #2ce69c;
      }

      .cls-3, .cls-26 {
        fill: #b6b6b6;
      }

      .cls-4 {
        fill: #c66d4e;
      }

      .cls-27 {
        fill: #ffb8d1;
      }

      .cls-28 {
        fill: #a66543;
      }

      .cls-5, .cls-29 {
        fill: #3d3d3d;
      }

      .cls-30 {
        fill: #f9b86e;
        opacity: .32;
      }

      .cls-6, .cls-31 {
        fill: #e1e1e1;
      }

      .cls-32, .cls-33 {
        fill: #ce7d03;
      }

      .cls-34 {
        fill: #e5e5e5;
      }

      .cls-35 {
        fill: #e5e5e5;
      }

      .cls-36 {
        fill: #ffa82c;
      }

      .cls-37 {
        fill: #ffa82c;
      }

      .cls-7 {
        fill: #d2d2d2;
      }

      .cls-38, .cls-15 {
        fill: #fec700;
      }

      .cls-8 {
        fill: #ff86d0;
      }

      .cls-9 {
        fill: #f4f4f4;
      }

      .cls-39 {
        clip-path: url(#clippath-1);
      }

      .cls-40 {
        stroke: #afafaf;
        stroke-width: 1.18px;
      }

      .cls-40, .cls-41, .cls-42 {
        fill: none;
        stroke-linecap: round;
      }

      .cls-40, .cls-43, .cls-42 {
        stroke-miterlimit: 10;
      }

      .cls-44 {
        fill: #b7b7b7;
      }

      .cls-24 {
        fill: #9c9c9c;
      }

      .cls-45, .cls-43 {
        fill: #fff;
      }

      .cls-46 {
        fill: #724500;
      }

      .cls-10, .cls-47 {
        fill: #bfbfbf;
      }

      .cls-48, .cls-49 {
        fill: #ff9600;
      }

      .cls-50 {
        fill: #ffaade;
      }

      .cls-41 {
        stroke: #fff;
        stroke-linejoin: round;
        stroke-width: 6px;
      }

      .cls-51, .cls-12 {
        fill: #afafaf;
        fill-opacity: .3;
      }

      .cls-52 {
        fill: #db8d74;
      }

      .cls-53 {
        fill: #b06800;
      }

      .cls-11, .cls-54 {
        fill: #afafaf;
      }

      .cls-55 {
        fill: #959595;
      }

      .cls-33 {
        isolation: isolate;
        opacity: .3;
      }

      .cls-56 {
        fill: #008fe1;
      }

      .cls-13 {
        fill: #bf7402;
      }

      .cls-14, .cls-57 {
        fill: #cacaca;
      }

      .cls-58 {
        fill: #ff9600;
      }

      .cls-59 {
        fill: #f0f0f0;
      }

      .cls-43 {
        stroke: #e5e5e5;
        stroke-width: 2px;
      }

      .cls-60 {
        fill: #b46c00;
      }

      .cls-61 {
        fill: #1cb0f6;
      }

      .cls-42 {
        stroke: #f0f0f0;
        stroke-width: 1.76px;
      }

      .cls-62 {
        fill: #cd7703;
      }

      .cls-63 {
        fill: #cd7703;
      }

      .cls-64 {
        clip-path: url(#clippath);
      }

      .cls-16 {
        fill: #fef400;
      }

      .cls-49 {
        font-family: Nunito-Bold, Nunito;
        font-size: 14px;
        font-weight: 700;
      }

      .cls-65 {
        fill: #b2b2b2;
      }
    </style>
    <clipPath id="clippath">
      <path class="cls-24" d="M199.02,268.29h-7.1c-.52,0-1.03.15-1.47.44l-3.85,2.25c-.65.43-1.49.42-2.13-.02l-2.81-2.21c-.44-.3-.97-.46-1.5-.46h-7.3c-1.57,0-2.85,1.28-2.85,2.85v17.86c0,1.57,1.28,2.85,2.85,2.85h8.58c.25,0,.48.08.68.23l2.7,2.02c.46.34,1.09.35,1.55.02l2.93-2.07c.19-.13.42-.21.65-.21h9.07c1.57,0,2.85-1.28,2.85-2.85v-17.86c0-1.57-1.28-2.85-2.85-2.85Z"/>
    </clipPath>
    <clipPath id="clippath-1">
      <path class="cls-23" d="M199.1,268.29h-7.14c-.53,0-1.04.15-1.48.44l-3.87,2.25c-.65.43-1.5.42-2.14-.02l-2.83-2.21c-.45-.3-.97-.46-1.51-.46h-7.34c-1.58,0-2.87,1.28-2.87,2.85v17.86c0,1.57,1.28,2.85,2.87,2.85h8.62c.25,0,.49.08.69.23l2.71,2.02c.46.34,1.09.35,1.56.02l2.95-2.07c.19-.13.42-.21.66-.21h9.12c1.58,0,2.87-1.28,2.87-2.85v-17.86c0-1.57-1.28-2.85-2.87-2.85Z"/>
    </clipPath>
  </defs>
  <!-- Generator: Adobe Illustrator 28.7.3, SVG Export Plug-In . SVG Version: 1.2.0 Build 164)  -->
  <g>
    <g id="Ebene_1">
      <path class="cls-62" d="M290.5,109.59c0,18.1-8.97,35.36-36.03,35.37-24.85,0-36.03-17.26-36.03-35.37s16.13-30.19,36.03-30.19,36.03,12.09,36.03,30.19Z"/>
      <ellipse class="cls-48" cx="254.48" cy="108.04" rx="35.93" ry="28.76"/>
      <path class="cls-35" d="M208.49,333.49c24.26,0,43.92,18.44,43.92,41.18s-19.66,41.18-43.92,41.18-43.92-18.44-43.92-41.18,19.66-41.18,43.92-41.18M208.49,325.49c-28.63,0-51.92,22.06-51.92,49.18s23.29,49.18,51.92,49.18,51.92-22.06,51.92-49.18-23.29-49.18-51.92-49.18h0Z"/>
      <path class="cls-58" d="M208.38,424.42c-11.81,0-23.4-3.77-32.64-10.63-1.93-1.43-2.33-4.15-.9-6.08,1.43-1.93,4.15-2.33,6.08-.9,7.75,5.75,17.5,8.92,27.46,8.92,24.09,0,43.68-17.99,43.68-40.1s-18.71-39.1-41.7-40.06c-2.4-.1-4.26-2.12-4.16-4.52.1-2.4,2.11-4.28,4.52-4.16,13.4.56,25.95,5.87,35.34,14.96,9.47,9.17,14.69,21.17,14.69,33.78,0,26.9-23.5,48.79-52.37,48.79Z"/>
      <path class="cls-63" d="M246.61,196.93c0,18.1-8.97,35.36-36.03,35.37-24.85,0-36.03-17.26-36.03-35.37s16.13-30.19,36.03-30.19,36.03,12.09,36.03,30.19Z"/>
      <ellipse class="cls-48" cx="210.58" cy="195.37" rx="35.93" ry="28.76"/>
      <path class="cls-63" d="M221.08,283.07c0,18.1-8.97,35.36-36.03,35.37-24.85,0-36.03-17.26-36.03-35.37s16.13-30.19,36.03-30.19,36.03,12.09,36.03,30.19Z"/>
      <ellipse class="cls-58" cx="185.05" cy="281.52" rx="35.93" ry="28.76"/>
      <path class="cls-63" d="M244.65,374.7c0,18.1-8.97,35.36-36.03,35.37-24.85,0-36.03-17.26-36.03-35.37s16.13-30.19,36.03-30.19,36.03,12.09,36.03,30.19Z"/>
      <ellipse class="cls-58" cx="208.62" cy="373.15" rx="35.93" ry="28.76"/>
      <path class="cls-44" d="M220.51,467.3c0,18.1-8.97,35.36-36.03,35.37-24.85,0-36.03-17.26-36.03-35.37s16.13-30.19,36.03-30.19,36.03,12.09,36.03,30.19Z"/>
      <ellipse class="cls-35" cx="184.48" cy="465.75" rx="35.93" ry="28.76"/>
      <g>
        <path class="cls-65" d="M189.59,476.59c1.47-.44,4.09-1.32,6.96-4.59,2.89-3.3,3.4-6.34,3.5-7.36.3-3.23,0-12.02,0-12.98,0-1.46-1.49-2.37-2.53-2.93-1.05-.56-2.97-.76-4.86.16-1.89.92-5.71,2.05-7.36,1.97-1.65-.08-4.22-1.09-5.47-1.61-1.25-.52-2.25-1.06-2.89-1.05-.48,0-2.33-.04-3.74,1.13s-1.57,2.57-1.57,2.57c0,0-.12,3.74,0,12.14.12,8.4,8.34,11.84,10.33,12.42,1.99.58,2.33.92,2.29,1.75-.02.46-.31.82-.55,1.05h-3.6c-.83,0-1.51.67-1.51,1.51v.48h-1.85c-.85,0-1.54.69-1.54,1.54s.69,1.54,1.54,1.54h17.55c.85,0,1.54-.69,1.54-1.54s-.69-1.54-1.54-1.54h-1.42v-.48c0-.83-.67-1.51-1.51-1.51h-3.67c-.28-.23-.49-.63-.49-1.15,0-1.03,1.02-1.12,2.38-1.52Z"/>
        <path class="cls-65" d="M170.87,468.77c-.87-2.14-.93-4.25-.93-5.82-.56-1.14-1.12-1.48-1.63-1.99s-1.54-.93-1.84-.96-.84-.15-1.15.51-.15,2.26.54,3.56,1.78,1.71,1.78,1.71l.27,2.05s-1.18-.06-2.08.03c-.9.09-1.42.48-1.39.9.03.42.6,1.54,1.9,2.5s3.29.75,3.29.75l.9,1.45s-.87.3-1.39.69c-.51.39-1.33,1.66-1.51,2.08-.18.42.06.81.42.96.36.15,1.51.66,2.95.36,1.45-.3,2.41-1.9,2.89-2.41.48-.51.75-1.27.3-1.6s-2.47-2.65-3.35-4.79Z"/>
        <path class="cls-65" d="M205.57,467.86c-.9-.09-2.08-.03-2.08-.03l.27-2.05s1.09-.41,1.78-1.71c.69-1.3.84-2.9.54-3.56s-.84-.54-1.15-.51-1.33.45-1.84.96-1.07.85-1.63,1.99c0,1.57-.06,3.68-.93,5.82-.87,2.14-2.89,4.46-3.35,4.79s-.18,1.09.3,1.6c.48.51,1.45,2.11,2.89,2.41,1.45.3,2.59-.21,2.95-.36.36-.15.6-.54.42-.96-.18-.42-.99-1.69-1.51-2.08-.51-.39-1.39-.69-1.39-.69l.9-1.45s1.99.21,3.29-.75c1.3-.96,1.87-2.08,1.9-2.5.03-.42-.48-.81-1.39-.9Z"/>
      </g>
      <g>
        <path class="cls-63" d="M203.25,272.34h-34.74c-1.98,0-3.58,1.6-3.58,3.58v17.34c0,1.98,1.6,3.58,3.58,3.58h10.5c.43,0,.85.13,1.21.38l3.39,2.36c1.18.82,2.74.87,3.97.12l4.19-2.56c.33-.2.71-.31,1.1-.31h10.39c1.98,0,3.58-1.6,3.58-3.58v-17.34c0-1.98-1.6-3.58-3.58-3.58Z"/>
        <g>
          <path class="cls-24" d="M199.02,268.29h-7.1c-.52,0-1.03.15-1.47.44l-3.85,2.25c-.65.43-1.49.42-2.13-.02l-2.81-2.21c-.44-.3-.97-.46-1.5-.46h-7.3c-1.57,0-2.85,1.28-2.85,2.85v17.86c0,1.57,1.28,2.85,2.85,2.85h8.58c.25,0,.48.08.68.23l2.7,2.02c.46.34,1.09.35,1.55.02l2.93-2.07c.19-.13.42-.21.65-.21h9.07c1.57,0,2.85-1.28,2.85-2.85v-17.86c0-1.57-1.28-2.85-2.85-2.85Z"/>
          <g class="cls-64">
            <rect class="cls-45" x="163.95" y="262.37" width="42.97" height="32.58"/>
          </g>
        </g>
        <g>
          <path class="cls-23" d="M199.1,268.29h-7.14c-.53,0-1.04.15-1.48.44l-3.87,2.25c-.65.43-1.5.42-2.14-.02l-2.83-2.21c-.45-.3-.97-.46-1.51-.46h-7.34c-1.58,0-2.87,1.28-2.87,2.85v17.86c0,1.57,1.28,2.85,2.87,2.85h8.62c.25,0,.49.08.69.23l2.71,2.02c.46.34,1.09.35,1.56.02l2.95-2.07c.19-.13.42-.21.66-.21h9.12c1.58,0,2.87-1.28,2.87-2.85v-17.86c0-1.57-1.28-2.85-2.87-2.85Z"/>
          <g class="cls-39">
            <rect class="cls-36" x="184.05" y="269.29" width="3.18" height="25.72"/>
          </g>
        </g>
      </g>
      <g>
        <path class="cls-63" d="M229.33,367.76l-5.92-9.69c-1-1.64-3.14-2.15-4.78-1.15-1.44.88-2.01,2.63-1.45,4.16l-1.23-2.02c-1.42-2.32-4.45-3.05-6.77-1.63-2.32,1.42-3.05,4.45-1.63,6.77l3.3,5.4-6.6,3.58-3.32-5.42c-1.42-2.32-4.45-3.05-6.77-1.63h0c-2.32,1.42-3.05,4.45-1.63,6.77l.9,1.47c-1.1-1.19-2.92-1.48-4.36-.6-1.64,1-2.15,3.14-1.15,4.78l5.92,9.69c1,1.64,3.14,2.15,4.78,1.15,1.44-.88,2.01-2.63,1.45-4.16l1.23,2.02c1.42,2.32,4.45,3.05,6.77,1.63,2.32-1.42,3.05-4.45,1.63-6.77l-3.36-5.5,6.52-3.72,3.46,5.66c1.42,2.32,4.45,3.05,6.77,1.63,2.32-1.42,3.05-4.45,1.63-6.77l-.9-1.47c1.1,1.19,2.92,1.48,4.36.6,1.64-1,2.15-3.14,1.15-4.78Z"/>
        <rect class="cls-45" x="211.92" y="358.89" width="3.25" height="6.48" rx="1.63" ry="1.63" transform="translate(-157.51 164.5) rotate(-31.43)"/>
        <rect class="cls-45" x="220.75" y="358.9" width="2.32" height="4.62" rx="1.16" ry="1.16" transform="translate(-155.8 168.72) rotate(-31.43)"/>
        <rect class="cls-45" x="196.68" y="367.5" width="3.25" height="6.48" rx="1.63" ry="1.63" transform="translate(560.84 583.66) rotate(148.57)"/>
        <rect class="cls-45" x="191.31" y="374.99" width="2.32" height="4.62" rx="1.16" ry="1.16" transform="translate(553.44 598.86) rotate(148.57)"/>
      </g>
      <path class="cls-37" d="M259.98,90.21c1.01-1.06.36-2.83-1.1-2.95-1.05-.09-2.12-.14-3.21-.14-15.97,0-28.92,10.36-28.92,23.15,0,3.21.81,6.26,2.29,9.03.55,1.04,1.98,1.2,2.79.35l28.15-29.44Z"/>
      <path class="cls-36" d="M281.93,99.59c-1.77-2.66-4.17-5.01-7.04-6.92-.97-.65-2.28-.5-3.11.33l-32.45,32.57c-1.15,1.16-.89,3.1.54,3.9,3.27,1.83,7.03,3.13,11.09,3.74.78.12,1.57-.17,2.12-.74l28.56-29.83c.79-.83.93-2.1.29-3.05Z"/>
      <polyline class="cls-41" points="246.14 109.76 254.45 118.07 267.42 105.1"/>
      <path class="cls-37" d="M216.02,176.56c1.01-1.06.36-2.83-1.1-2.95-1.05-.09-2.12-.14-3.21-.14-15.97,0-28.92,10.36-28.92,23.15,0,3.21.81,6.26,2.29,9.03.55,1.04,1.98,1.2,2.79.35l28.15-29.44Z"/>
      <path class="cls-37" d="M237.97,185.93c-1.77-2.66-4.17-5.01-7.04-6.92-.97-.65-2.28-.5-3.11.33l-32.45,32.57c-1.15,1.16-.89,3.1.54,3.9,3.27,1.83,7.03,3.13,11.09,3.74.78.12,1.57-.17,2.12-.74l28.56-29.83c.79-.83.93-2.1.29-3.05Z"/>
      <path class="cls-30" d="M190.74,263.02c1.01-1.06.36-2.83-1.1-2.95-1.05-.09-2.12-.14-3.21-.14-15.97,0-28.92,10.36-28.92,23.15,0,3.21.81,6.26,2.29,9.03.55,1.04,1.98,1.2,2.79.35l28.15-29.44Z"/>
      <path class="cls-30" d="M212.7,272.39c-1.77-2.66-4.17-5.01-7.04-6.92-.97-.65-2.28-.5-3.11.33l-32.45,32.57c-1.15,1.16-.89,3.1.54,3.9,3.27,1.83,7.03,3.13,11.09,3.74.78.12,1.57-.17,2.12-.74l28.56-29.83c.79-.83.93-2.1.29-3.05Z"/>
      <polyline class="cls-41" points="202.18 196.1 210.49 204.41 223.46 191.44"/>
      <path class="cls-43" d="M273.64,294.18h-125.96c-5.42,0-9.81,4.39-9.81,9.81v33.64c0,5.42,4.39,9.81,9.81,9.81h49.9c.55,0,1.08.22,1.47.61l6.33,6.33c.81.81,2.13.81,2.94,0l6.33-6.33c.39-.39.92-.61,1.47-.61h57.53c5.42,0,9.81-4.39,9.81-9.81v-33.64c0-5.42-4.39-9.81-9.81-9.81Z"/>
      <text class="cls-49" transform="translate(147.94 318.99)"><tspan x="0" y="0">Reinforce negative</tspan><tspan x="32.53" y="16.8">behavoir</tspan></text>
      <path class="cls-51" d="M323.99,182.56c24.4-12.8,48.28-15.36,53.34-5.71,5.06,9.64-10.62,27.84-35.02,40.64-24.4,12.8-48.28,15.36-53.34,5.71-5.06-9.64,10.62-27.84,35.02-40.64Z"/>
      <path class="cls-3" d="M314,194.01c1.74,1.5,1.93,4.12.43,5.86l-14.83,17.15c-1.5,1.73-4.12,1.93-5.86.42s-1.93-4.12-.43-5.86l14.83-17.15c1.5-1.73,4.12-1.93,5.86-.42Z"/>
      <path class="cls-14" d="M279.9,206.14c.38-3.06,3.17-5.23,6.23-4.85l.27.03c3.06.38,5.23,3.17,4.85,6.23-.38,3.06-3.17,5.23-6.23,4.85l-.27-.03c-3.06-.38-5.23-3.17-4.85-6.23Z"/>
      <path class="cls-6" d="M365.41,183.31c1.68,2.85.72,6.53-2.13,8.2l-13.69,8.03c-2.85,1.68-6.53.72-8.2-2.13-1.68-2.85-.72-6.53,2.13-8.2l13.69-8.03c2.85-1.68,6.53-.72,8.2,2.13Z"/>
      <path class="cls-6" d="M356.1,177.2c1.29,2.72.13,5.97-2.59,7.25l-6.47,3.06c-2.72,1.29-5.97.13-7.25-2.59-1.29-2.72-.13-5.97,2.59-7.25l6.47-3.06c2.72-1.29,5.97-.13,7.25,2.59Z"/>
      <path class="cls-8" d="M373.78,175.34c-1.57,1.03-3.68.59-4.71-.98l-3.32-5.07c-1.03-1.57-.59-3.68.98-4.71,1.57-1.03,3.68-.59,4.71.98l3.32,5.07c1.03,1.57.59,3.68-.98,4.71Z"/>
      <path class="cls-10" d="M373.78,175.34c-1.57,1.03-3.68.59-4.71-.98l-3.32-5.07c-1.03-1.57-.59-3.68.98-4.71,1.57-1.03,3.68-.59,4.71.98l3.32,5.07c1.03,1.57.59,3.68-.98,4.71Z"/>
      <path class="cls-6" d="M370.17,168.51c1.65,2.78.73,6.37-2.05,8.02l-14.37,8.51c-2.78,1.65-6.37.73-8.02-2.05-1.65-2.78-.73-6.37,2.05-8.02l14.37-8.51c2.78-1.65,6.37-.73,8.02,2.05Z"/>
      <path class="cls-8" d="M356.64,160.2c1.71.78,2.46,2.8,1.68,4.51l-2.98,6.54c-.78,1.71-2.8,2.47-4.51,1.68-1.71-.78-2.46-2.8-1.68-4.51l2.98-6.54c.78-1.71,2.8-2.46,4.51-1.68Z"/>
      <path class="cls-6" d="M351.54,165.99c2.87-1.31,6.27-.04,7.58,2.83l6.81,14.95c1.31,2.87.04,6.27-2.83,7.58-2.87,1.31-6.27.04-7.58-2.83l-6.81-14.95c-1.31-2.87-.04-6.27,2.83-7.58Z"/>
      <path class="cls-7" d="M350.11,175.55c.2-.09.43,0,.52.2l3.4,7.63c.09.2,0,.43-.2.52-.2.09-.43,0-.52-.2l-3.4-7.63c-.09-.2,0-.43.2-.52Z"/>
      <path class="cls-10" d="M356.64,160.2c1.71.78,2.46,2.8,1.68,4.51l-2.98,6.54c-.78,1.71-2.8,2.47-4.51,1.68-1.71-.78-2.46-2.8-1.68-4.51l2.98-6.54c.78-1.71,2.8-2.46,4.51-1.68Z"/>
      <path class="cls-26" d="M299.05,213.31s-17.27,5.2-17.44,5.14c-.08-.03-9.47-7.03-9.47-7.03-.22-.16-.33-.4-.34-.63v-.16c.05-.33.28-.63.66-.73l16.67-5.08c.26-.09.44-.16,1.29.45l8.72,6.49c.7.32.64,1.34-.1,1.57Z"/>
      <path class="cls-55" d="M299.64,212.41v2.69c-.01.33-.47.55-.78.65l-16.27,4.95c-1.75.66-2.74-.08-2.74-.08h0s-7.71-5.7-7.71-5.7c-.3-.24-.35-.41-.33-.8v-3.34s.01-.2.01-.2c0,0,9.78,7.23,9.82,7.26.04.03.11.01.11.01l17.89-5.45Z"/>
      <path class="cls-31" d="M281.64,208.01l8.59,6.36-8.38,2.56-8.6-6.36,8.39-2.56Z"/>
      <path class="cls-26" d="M279.49,217.75l-2.04-1.49c-.51-.39-1.17-.19-1.22.6l-.04,1.01c-.01.25.07.44.26.6l2.03,1.48c.5.42,1.22.27,1.25-.38l.05-1.14c.01-.26-.08-.53-.29-.68Z"/>
      <path class="cls-55" d="M290.37,206.92l-1.77.55-1.53-1.1-1.75.54,1.47,1.1-1.77.55,1.5,1.12,1.77-.56,1.52,1.11,1.8-.53-1.52-1.12,1.77-.54-1.49-1.11ZM291.59,212.22c.85-.24,1.05-.68.47-.98-.57-.29-1.7-.35-2.54-.12-.86.23-1.12.66-.56.98.57.32,1.76.37,2.62.13ZM295.81,212.22c.85-.24,1.05-.68.47-.98-.57-.29-1.7-.35-2.54-.12-.86.23-1.12.66-.56.98.57.32,1.76.37,2.62.13Z"/>
      <path class="cls-14" d="M288.43,204.75c.42-.58.53-1.36.22-2.05-.46-1.03-1.67-1.49-2.7-1.02-.96.44-1.47,1.25-1.64,2.06-.14.7-.03,1.34.07,1.75.11.44.27.83.39,1.09.06.13.12.25.16.33.02.04.04.08.05.1,0,.01.01.02.02.03h0s0,.02,0,.02h0s0,0,1.75-1l-1.75,1c.56.98,1.81,1.32,2.79.76.98-.56,1.32-1.8.77-2.78,0,0,0-.01-.01-.03-.02-.03-.04-.08-.07-.14-.02-.04-.04-.08-.05-.12Z"/>
      <path class="cls-31" d="M348.46,180.81c5.34,4.43,6.52,12.24,2.48,17.11-4.04,4.87-11.78,4.96-17.12.53-5.34-4.43-6.39-11.97-2.34-16.84,4.04-4.87,11.65-5.23,16.98-.8ZM340.57,201.11c-1.03.9-2.35,1.18-3.59,1.09-3.18.8-7.96-16.73-4.69-16.98,6.56-.51,9.97,11.47,8.28,15.9Z"/>
      <path class="cls-57" d="M340.57,201.11c-1.03.9-2.35,1.18-3.59,1.09-3.18.8-7.96-16.73-4.69-16.98,6.56-.51,9.97,11.47,8.28,15.9Z"/>
      <path class="cls-7" d="M346.72,180.03c.12-.18.37-.22.55-.1,0,0,.02.01.03.02.65.45,3.81,2.65,5.22,6.42.08.2-.03.43-.23.51-.2.08-.43-.03-.51-.23-1.32-3.54-4.32-5.62-4.94-6.05,0,0-.01,0-.02-.01-.18-.12-.22-.37-.1-.55Z"/>
      <path class="cls-6" d="M333.21,191.2l8.1-3.54,1.2,2.75-8.1,3.54-1.2-2.75Z"/>
      <path class="cls-26" d="M333.82,205.88c-4.81,1.34-8.77-.81-10.59-2.63,0,0,8.11-16.05,9.15-16.32,1.3-.34,3.86,3.35,5.15,8.31,1.28,4.95-.37,9.5-3.71,10.64Z"/>
      <path class="cls-3" d="M325.58,194.51c2.05,1.02,2.89,3.52,1.87,5.57l-8.85,17.78c-.86,1.73-2.79,2.63-4.67,2.19l-13.5-3.17c-2.23-.53-3.62-2.76-3.09-4.99.53-2.23,2.76-3.62,4.99-3.09l10.3,2.42,7.38-14.83c1.02-2.05,3.52-2.89,5.57-1.87Z"/>
      <path class="cls-57" d="M293.82,218.79c4.54,3.65,14.22-2.7,11.47-8.49-1.49-2.56-5.98-2.99-8.01-.96,0,0-2.21,3.91-3.37,5.21,0,0-2.74,2.21-.09,4.24Z"/>
      <path class="cls-14" d="M299.69,211.71c-1.44-.4-2.9-.58-3.92-.29-1.09.3-2.21-.33-2.52-1.42s.33-2.21,1.42-2.52c2.14-.6,4.51-.15,6.12.29.85.24,1.58.5,2.1.7.26.1.47.19.62.26.07.03.13.06.18.08.02,0,.04.02.05.02h.02s0,.01,0,.01h0s0,0-.86,1.82l.86-1.82c1.02.48,1.45,1.7.97,2.72-.48,1.02-1.7,1.45-2.72.97,0,0,0,0,0,0t0,0s0,0,0,0l.87-1.85q-.87,1.85-.87,1.85M299.69,211.71c.68.19,1.27.4,1.69.57l-1.69-.57ZM301.38,212.28c.21.08.38.15.48.2l-.48-.2ZM301.87,212.48c.05.02.09.04.12.05l-.12-.05ZM301.99,212.54s.02,0,.02.01h-.02ZM302.01,212.55h0s0,0,0,0ZM302.01,212.55s0,0,0,0h0Z"/>
      <path class="cls-6" d="M287.45,181.37c0-13.76,11.16-24.92,24.92-24.92h.27c13.76,0,24.92,11.16,24.92,24.92s-11.16,24.92-24.92,24.92h-.27c-13.76,0-24.92-11.16-24.92-24.92Z"/>
      <path class="cls-57" d="M288.65,173.7c-.78,2.42-1.2,5-1.2,7.67,0,12.67,9.46,23.13,21.7,24.71,6.11-5.85,5.16-16.99-2.2-25.02-5.25-5.73-12.34-8.35-18.29-7.37Z"/>
      <path class="cls-45" d="M298.93,190.68s-.54.45-.78.91c-.73,1.4.09,2.4.7,2.85.98.72,7.05.99,10.44.58.19-2.98-1.48-3.93-1.48-3.93l-1.36.27s-4.17.96-7.51-.67Z"/>
      <path class="cls-55" d="M302.98,191.62c-1.27-.05-2.73-.29-4.05-.94,0,0-.54.45-.78.91-.73,1.4.09,2.4.7,2.85.43.32,1.84.55,3.58.67.16-.25.29-.54.35-.87l.26-1.23c.1-.47.07-.94-.06-1.39Z"/>
      <path class="cls-45" d="M289.5,185.86s3.64,5.12,5.64,6.49c.34.09.5-.31,1.14-1.2.71-.99.94-2.25.59-3.43-.44-1.5-1.52-3.1-2.94-3.82-2.82-1.44-3.52.02-3.76.3,0,0-.63,1.09-.67,1.66Z"/>
      <path class="cls-55" d="M296.68,187.16c-.4-.4-.92-.7-1.49-.81-1.44-.28-2.71.68-2.83,2.14l-.08.95c.99,1.19,2.07,2.35,2.87,2.91.26.07.42-.15.77-.67.1-.15.22-.33.37-.53.71-.99.94-2.25.59-3.43-.06-.19-.12-.38-.2-.56Z"/>
      <path class="cls-26" d="M301.99,199.26c.81,2.62,3.02,3.66,5,3.55,2.49-.18,3.26-3.38,1.32-4.62-.2-.13-.4-.26-.57-.42-.21-.18-.45-.39-.45-.39l-5.29,1.88Z"/>
      <path class="cls-18" d="M297,195.46c-.48.8-1.52,1.06-2.33.58-.8-.48-1.06-1.52-.58-2.33.48-.8,2.63-1.99,3.03-1.75s.36,2.7-.13,3.5Z"/>
      <path class="cls-2" d="M307.31,196.99c.23.22.25.58.03.81-.45.48-1.13.91-1.92,1.25-.8.34-1.73.62-2.72.77-1.96.3-4.21.15-5.94-.97-.27-.17-.34-.53-.17-.79.17-.27.53-.34.79-.17,1.4.91,3.33,1.08,5.14.8.9-.14,1.74-.39,2.44-.69.71-.31,1.24-.65,1.53-.97.22-.23.58-.25.81-.03Z"/>
      <path class="cls-29" d="M309.19,183.89c-.67-.97-1.42-1.92-2.25-2.83-4.69-5.12-10.87-7.76-16.37-7.56,1.18,3.9,3.32,7.45,7.16,8.75,3.61,1.22,7.56,1.66,11.46,1.63Z"/>
      <path class="cls-55" d="M309.64,184.42c-3.84,3.61-12.21,6-21.35-2.02-.75-.75-1.07-1.35-1.46-1.74-3.95-6.37-1.92-10.59-1.23-10.84,1.23-.63,1.98,3.5,5.66,3.23.51-.04,1.1-.07,1.76-.07.76,0,1.6.02,2.49.09,4.89.72,10.19,4.59,13.78,10.55,0,.08.35.74.35.8Z"/>
      <path class="cls-31" d="M322.77,200.52c.38-.3.9-.33,1.31-.09.89.51,2.48,1.37,3.77,1.79,1.24.41,3.04.64,4.13.75.47.05.76.53.56.95-.83,1.75-2.88,5.61-5.15,6.75-.5.25-1.87-.06-3.2-.45-1.96-.58-3.53-2-4.54-3.78l-.86-1.54c-.27-.49-.15-1.1.28-1.45l3.69-2.93Z"/>
      <path class="cls-57" d="M319.93,206.89c1.41-.57,2.88-1.22,4.29-1.91,1.63-.79,3.22-1.65,4.57-2.51-.33-.08-.64-.16-.93-.25-.35-.12-.73-.26-1.1-.43-.99.57-2.1,1.16-3.25,1.72-1.46.71-2.97,1.38-4.4,1.94l.55.98c.09.15.18.3.27.45Z"/>
      <g>
        <ellipse class="cls-34" cx="76.88" cy="271.64" rx="32.12" ry="24.49"/>
        <path class="cls-47" d="M56.27,280.22s-9.68-8.42-10.98-10.5-2.87-9.12.91-13.03,6.64-5.21,9.38-6.25,4.56-3.26,5.34-5.73,6.38-8.21,14.07-6.51c7.69,1.69,12.9,6.38,14.33,7.69s7.56,1.95,9.38,1.17,2.61-.91,3.39-.26,2.87,3.78,1.17,7.17c-1.69,3.39-2.48,4.04-2.48,4.43s2.48,3.13,1.95,10.68-7.3,19.41-16.68,20.72-13.29.26-14.46-.52-3.13,4.95-11.99,5.47-8.09-3.15-8.22-4.19,3.4-5.19,3.92-6.49.95-3.83.95-3.83Z"/>
        <rect class="cls-54" x="102.31" y="270.01" width="11.99" height="7.62" rx="3.53" ry="3.53" transform="translate(393.94 202.24) rotate(97.51)"/>
        <g>
          <path class="cls-54" d="M93.84,295.62c-.5,0-.99-.09-1.46-.27l-4.08-1.56c-1.02-.39-1.83-1.16-2.28-2.16-.45-1-.48-2.12-.09-3.14.6-1.58,2.14-2.64,3.83-2.64.5,0,.99.09,1.47.27l4.08,1.56c1.02.39,1.83,1.16,2.28,2.16.45,1,.48,2.12.09,3.14-.6,1.58-2.15,2.64-3.83,2.64Z"/>
          <path class="cls-34" d="M89.76,286.14c.45,0,.91.08,1.36.25l4.08,1.56c1.97.75,2.95,2.95,2.2,4.92-.58,1.52-2.03,2.45-3.56,2.45-.45,0-.91-.08-1.36-.25l-4.08-1.56c-1.97-.75-2.95-2.95-2.2-4.92.58-1.52,2.03-2.45,3.56-2.45M89.76,285.55h0c-1.81,0-3.46,1.14-4.11,2.83-.42,1.1-.39,2.29.09,3.37.48,1.07,1.35,1.89,2.45,2.31l4.08,1.56c.51.19,1.03.29,1.57.29,1.81,0,3.46-1.14,4.11-2.83.42-1.1.39-2.29-.09-3.37-.48-1.07-1.35-1.89-2.45-2.31l-4.08-1.56c-.51-.19-1.03-.29-1.57-.29h0Z"/>
        </g>
        <path class="cls-34" d="M89.08,265.5l3.08-3.42s.39-.49.81-.27-.07,2.08-.71,3-1.8,1.39-2.71,1.56c-.66.12-.86-.29-.46-.88Z"/>
        <path class="cls-34" d="M89.49,259.12l3.08-3.42s.39-.49.81-.27-.07,2.08-.71,3-1.8,1.39-2.71,1.56c-.66.12-.86-.29-.46-.88Z"/>
        <path class="cls-34" d="M82.09,266.94l3.08-3.42s.39-.49.81-.27-.07,2.08-.71,3-1.8,1.39-2.71,1.56c-.66.12-.86-.29-.46-.88Z"/>
        <path class="cls-34" d="M55.85,258.29s-2.66-.51-2.49-2.03,6.3-2.13,8.72-3.4,7.11-3.88,8.04-5.62,1.49-3.52.56-5.57-.66-1.78-.05-2.03,2.47.46,2.76.51.34-.15.24-.59-.49-1.1.17-1.22,2.3.51,2.96.98,2.1,0,2.1,0c0,0,2.61.98,4.98,2.47s8.7,5.59,8.16,9.48c-.54,3.88-4.96,4.1-6.55,3.74s-5.57.2-5.33,3.59.39,6.4-3.15,9.14-7.72,4.23-13.26,1.95-6.69-4.25-6.96-4.81-.22-1.49-.61-1.69-2.37-.44-3.15-1.95-.59-1.61.15-1.93,2.44-.54,2.71-1.03Z"/>
        <path class="cls-40" d="M64.11,263.72c6.65.05,10.86-2.14,10.1-8.92"/>
        <path class="cls-40" d="M78.9,249.72c4.37.25,6.47-1.51,5.28-6.19"/>
        <ellipse class="cls-34" cx="82.15" cy="256.95" rx="3.4" ry="3.52"/>
        <path class="cls-54" d="M79.84,259.64s-2-1.95-.59-4.89,5.18-1.12,5.28-.64c.07.34.11,1.39.13,2,0,.27-.13.53-.36.68l-4.46,2.84Z"/>
        <path class="cls-42" d="M80.28,255.87s.2-.98,1.22-1.42"/>
        <path class="cls-11" d="M83.68,207.75c-.17-1.69-2.34-2.27-3.33-.89l-8.16,11.31c-.75,1.05-.23,2.52,1.02,2.86l4.64,1.24.69,6.74c.17,1.69,2.34,2.27,3.33.89l8.16-11.31c.75-1.05.23-2.52-1.02-2.86l-4.64-1.24-.69-6.74Z"/>
        <path class="cls-59" d="M73.8,219.67c-.42-.11-.46-.7-.06-.87l3.23-1.38c.29-.12.62.08.64.39l.16,2.29c.02.32-.27.56-.58.48l-3.39-.91Z"/>
        <path class="cls-59" d="M88.58,216.87c.42.11.46.7.06.87l-3.23,1.38c-.29.12-.62-.08-.64-.39l-.16-2.29c-.02-.32.27-.56.58-.48l3.39.91Z"/>
        <path class="cls-11" d="M37.82,229.64c-.17-1.69-2.34-2.27-3.33-.89l-8.16,11.31c-.75,1.05-.23,2.52,1.02,2.86l4.64,1.24.69,6.74c.17,1.69,2.34,2.27,3.33.89l8.16-11.31c.75-1.05.23-2.52-1.02-2.86l-4.64-1.24-.69-6.74Z"/>
        <path class="cls-59" d="M27.94,241.56c-.42-.11-.46-.7-.06-.87l3.23-1.38c.29-.12.62.08.64.39l.16,2.29c.02.32-.27.56-.58.48l-3.39-.91Z"/>
        <path class="cls-59" d="M42.72,238.76c.42.11.46.7.06.87l-3.23,1.38c-.29.12-.62-.08-.64-.39l-.16-2.29c-.02-.32.27-.56.58-.48l3.39.91Z"/>
      </g>
      <path class="cls-51" d="M117.19,81.68c-15.44,1.47-27.11,12.7-26.06,25.08,1.05,12.38,14.42,21.22,29.86,19.75,15.44-1.47,27.11-12.7,26.06-25.08-1.05-12.38-14.42-21.22-29.86-19.75Z"/>
      <path class="cls-47" d="M153.48,74.84c-1.62.83-29.98,13.58-29.98,13.58-1.59.75-1.98,2.82-.77,4.09,5.79,6.1,15,7.85,22.82,4.17,7.82-3.69,12.29-11.89,11.21-20.21-.22-1.73-1.65-2.46-3.28-1.62Z"/>
      <path class="cls-31" d="M153.02,56.22l9.38,5.16v2.23s0,8.72,0,8.72v2.17s-9.38,5.17-9.38,5.17l-9.39-5.16v-2.1s0-8.85,0-8.85v-2.17s9.38-5.17,9.38-5.17Z"/>
      <path class="cls-31" d="M152.96,56.11v6.75s-4.01,2.21-4.01,2.21l-5.41-3.8,9.42-5.17Z"/>
      <path class="cls-31" d="M143.52,61.27l5.41,3.78v5.73s-5.47,3.79-5.47,3.79l.06-13.3Z"/>
      <path class="cls-31" d="M157.06,70.75l5.34,3.73-9.43,5.25v-6.75s4.09-2.23,4.09-2.23Z"/>
      <path class="cls-56" d="M147.87,70.77l2.2,3.69,2.9,5.21-3.77-6.67-1.33-2.23Z"/>
      <path class="cls-31" d="M152.99,62.83l4.03,2.29.04,5.64-4.06,2.26-4.03-2.29-.04-5.67,4.06-2.23Z"/>
      <path class="cls-6" d="M152.99,62.71l-4.16,2.28.04,5.78,4.13,2.35,4.16-2.32-.04-5.75-4.13-2.35ZM152.99,62.94l3.93,2.24.03,5.52-3.96,2.21-3.93-2.24-.03-5.55,3.96-2.18Z"/>
      <path class="cls-6" d="M153.34,55.64c-.2-.11-.44-.11-.64,0l-9.38,5.17c-.21.12-.34.34-.34.58v13.11c0,.24.14.46.35.58l9.38,5.16c.2.11.44.11.64,0l9.38-5.17c.21-.12.34-.34.34-.58v-13.11c0-.24-.14-.46-.35-.58l-9.39-5.16ZM161.75,61.77v12.33s-8.71,4.8-8.71,4.8l-8.72-4.79v-12.33s8.71-4.8,8.71-4.8l8.72,4.79Z"/>
      <path class="cls-6" d="M154.57,55.8c-.97-.53-2.13-.53-3.1,0l-7.22,3.98c-1.03.57-1.67,1.65-1.66,2.82v10.69c0,1.17.64,2.25,1.67,2.82l7.23,3.97c.97.53,2.13.53,3.1,0l7.22-3.98c1.03-.57,1.66-1.65,1.66-2.82v-10.69c0-1.17-.64-2.25-1.67-2.82M161.8,59.77l-7.23-3.97,7.23,3.97ZM151.93,56.62c.68-.38,1.51-.38,2.19,0l7.23,3.97c.73.4,1.18,1.16,1.18,1.99v10.69c0,.83-.45,1.59-1.17,1.99l-7.22,3.98c-.68.38-1.51.38-2.19,0l-7.23-3.97c-.73-.4-1.18-1.16-1.18-1.99v-10.69c0-.83.45-1.59,1.17-1.99l7.22-3.98Z"/>
      <path class="cls-45" d="M154.28,57.67l6.24,3.39c.58.32.63,1.14.09,1.52l-3.02,2.12c-.28.2-.65.22-.95.05l-3.22-1.81c-.28-.16-.46-.46-.46-.78v-3.7c0-.68.72-1.11,1.32-.79Z"/>
      <path class="cls-17" d="M152.44,72.85l-2.95-1.68c-.35-.2-.78-.18-1.11.05l-2.69,1.86c-.64.44-.59,1.39.09,1.77l5.64,3.12c.69.38,1.54-.12,1.54-.91v-3.29c0-.37-.2-.72-.53-.9Z"/>
      <path class="cls-47" d="M96.71,78.5l-15.12,29.01c-.81,1.56.13,3.44,1.86,3.72,8.3,1.36,16.7-2.82,20.69-10.49,3.99-7.67,2.59-16.91-3.3-22.88-1.23-1.24-3.32-.92-4.13.63Z"/>
      <path class="cls-1" d="M129.29,106.53c-1.57,2.27-1.01,5.39,1.27,6.96l1.18.82c2.27,1.57,5.39,1.01,6.96-1.27,1.57-2.27,1.01-5.39-1.27-6.96l-1.18-.82c-2.27-1.57-5.39-1.01-6.96,1.27ZM111.49,108.15c-2.56-1.04-5.48.19-6.52,2.75l-.5,1.23c-1.04,2.56.19,5.48,2.75,6.52,2.56,1.04,5.48-.19,6.52-2.75l.5-1.23c1.04-2.56-.19-5.48-2.75-6.52Z"/>
      <path class="cls-47" d="M93.1,49.04c-4.84.47-11.93,3.98-10.86,15.18,1.17,12.2,3.95,54.49,36.71,51.34,29.15-2.8,27.1-35.1,26.55-40.8-1.82-18.9-7.98-35.13-25.41-33.45-8.17.79-13.44,7.76-16.52,8.06-3.32.32-5.64-.8-10.48-.33Z"/>
      <path class="cls-17" d="M125.81,108.65c.78.11,3.54.02,4.65-2.2.39-.63.18-1.1-.25-.98-.94.39-1.96.78-2.86.98-1.8.4-3.35.41-3.45.69-.18.52,1.18,1.41,1.9,1.51ZM136.27,104.45c1,0,2.84-.88,3.54-3.43.19-.71-.11-.97-.48-.74-.74.65-.92.82-1.9,1.43-1.64,1.03-3.24,1.65-3.25,1.95-.02.55,1.37.9,2.09.79ZM136.34,105.96c.42-.16.3.48.24.74-.1.43-1.43,2.95-4.69,2.76-1.18-.07-2.02-1.01-1.37-1.24,1.25-.27,2.45-.64,3.34-.99,1.09-.43,1.88-1.04,2.49-1.26Z"/>
      <path class="cls-17" d="M141.59,59.42c-.55.05-.79,1.17-1.03,2.27-.12.57-.24,1.13-.4,1.55-.49-1.63-1.95-4.75-3.63-4.59-.84.08-1.28,2.47-1.83,5.46-.87,4.69-2.01,10.85-5.37,11.85-5.85,1.74-13.27-4.26-16.99-7.26-1.21-.97-2.02-1.63-2.27-1.61-1.99.19-1.75,3.71-.86,6.5-2.25-1.94-4.01-3.3-4.5-2.92-.49.38-1.98,2.3-.88,6.31-2.42,2.29-4.33,5.26-3.56,13.28.77,8.02,7.36,13.28,16.01,12.45,6.91-.67,11.13-6.5,12.38-9.34l7.6-.73c.49.24,1.91.68,3.69.51,1.64-.16,4.4-2.7,5.64-8.34.36-4.65.08-8.44-.08-10.07-.49-5.1-1.3-10.01-2.56-14.42-.4-.52-.88-.97-1.36-.92Z"/>
      <path class="cls-45" d="M107.5,90.14c.26,2.91,2.67,8.54,10.26,7.81,4.49-.43,9.62-2.89,8.97-9.66l-.37-3.8c-.24-2.52-3.1-7.32-10.53-6.61-6.34.61-9,5.37-8.7,8.46l.37,3.8Z"/>
      <path class="cls-45" d="M136.09,86.25c.2,2.11,2.25,2.76,4.13,2.58,1.87-.18,4.96-3.31,3.97-13.63-.48-3.74-2.46-5.25-3.94-5.11-1.97.19-4.99,2.78-4.51,7.7l.36,8.46Z"/>
      <path class="cls-17" d="M145.01,83.67s-.94,9.19-13.9,7.17c-14.25,15.89-25.13,4.71-25.13,4.71,0,0,4.21-2.8,11.28-3.87,10.04-1.52,11.9.81,15.09-2.4,3.19-.82,3.74-3.47,7.96-5.03,4.84-1.8,4.7-.58,4.7-.58Z"/>
      <path class="cls-17" d="M133.29,89.99c-2.21,0-4,1.85-4,4.14s1.79,4.14,4,4.14,4-1.85,4-4.14-1.79-4.14-4-4.14Z"/>
      <path class="cls-53" d="M133.29,89.99c-2.21,0-3.31,1.59-4,3.77-.12.39,1.74,1.07,4,1.45,2.18.37,3.95.97,3.95-1.32s-1.74-3.91-3.95-3.91Z"/>
      <path class="cls-21" d="M137.73,95.64c-.13.24-.39.36-.66.33-2.3-.27-8.53-1.47-8.53-2.36,0-1.29,2.24-4.89,5.53-4.89,2.72,0,4.32,1.22,4.53,2.89.15,1.14-.29,2.94-.87,4.04Z"/>
      <path class="cls-9" d="M135.13,92.22s0,0,0,0c.63.31,1.4.04,1.7-.59.31-.63.04-1.4-.59-1.7-.6-.29-1.42-.36-2.01-.36-.33,0-.67.02-.97.07-.28.04-.64.12-.96.28-.63.32-.87,1.09-.55,1.72.32.62,1.07.86,1.69.56,0,0,.06-.02.19-.04.17-.02.38-.04.61-.04s.45.01.63.04c.17.03.25.05.27.06Z"/>
      <path class="cls-55" d="M137.53,71.61c-.14.55-.17,1.13-.04,1.72.4,1.89.96,5.38,1.07,6.73.17,2.05,1.98,3.58,4.03,3.4.53-.05,1.03-.2,1.47-.44.34-1.97.44-4.53.12-7.83-.48-3.74-2.46-5.25-3.94-5.11-.83.08-1.85.59-2.71,1.52Z"/>
      <path class="cls-55" d="M117.83,77.82c-.49.89-.61,1.97-.26,3l2.51,7.36c.63,1.86,2.6,2.91,4.5,2.4.95-.25,1.72-.86,2.21-1.64,0-.22-.02-.43-.05-.66l-.37-3.8c-.22-2.28-2.58-6.43-8.54-6.67Z"/>
      <g>
        <g>
          <path class="cls-51" d="M307.01,430.69c15.36-1.38,28.66,6.92,29.7,18.53,1.04,11.61-10.56,22.15-25.92,23.53-15.36,1.38-28.66-6.92-29.7-18.53-1.04-11.61,10.56-22.15,25.92-23.53Z"/>
          <path class="cls-47" d="M278.25,451.2l3.62-45.29c.19-2.43,2.69-3.96,4.93-3.03,10.75,4.47,17.54,15.55,16.59,27.52-.96,11.97-9.42,21.84-20.74,24.57-2.36.57-4.58-1.34-4.38-3.77Z"/>
          <path class="cls-47" d="M327.73,401.34l11,39.24c.59,2.1-1.03,4.17-3.21,4.08-10.44-.43-19.59-7.65-22.49-18.02-2.91-10.37,1.15-21.31,9.84-27.12,1.81-1.21,4.27-.29,4.86,1.81Z"/>
          <path class="cls-1" d="M301.5,445.68c.79-2.28,3.26-3.51,5.56-2.76l19.98,6.54c2.32.76,3.59,3.26,2.83,5.58-.76,2.32-3.26,3.59-5.58,2.83l-15.85-5.19-3.18,9.24c-.8,2.31-3.31,3.54-5.62,2.74-2.31-.8-3.54-3.31-2.74-5.62l4.6-13.35Z"/>
          <path class="cls-47" d="M299.97,397.46c-2.64.03-5.06-1.37-10.92-.96-8.4.58-10.04,8.14-9.98,13.16,0,0,.22,12.25,1.03,22.65.81,10.4,10.76,28.89,29.53,28.09,18.77-.8,27.79-15.13,26.96-41.31-.76-24.01-12.86-27.92-19.86-27.83-7,.09-14.12,6.16-16.77,6.2Z"/>
          <path class="cls-17" d="M310.82,453.62c.96-.09,4.51-.49,5.91-.72.81-.12.85.35.79.59-.08.3-1.33,2.08-4.41,2.11-3.08.03-3.25-1.88-2.29-1.97ZM322.47,451.52c.01-.46,2.9-1.84,5.41-3.45.38-.24.68.01.49.73-.68,2.57-3.01,3.35-3.8,3.48-.72.12-2.13-.22-2.11-.77ZM317.24,455.94c-.66.22.16,1.18,1.34,1.29,3.27.28,4.68-2.21,4.79-2.65.06-.26.2-.9-.22-.75-1.13.38-2.84,1.1-5.91,2.11Z"/>
          <path class="cls-17" d="M303.14,417.55c.06-.64.24-3.06,1.81-2.92,1.54.13,6.57,8.86,15.72,9.67,7,.61,6.93-14.93,9.81-15.55,1.72-.37,2.32,2.95,2.57,4.35.41-1.02,1.37-3.07,1.94-3.13,2.72.24,3.33,12.26,2.89,17.41-.43,4.98-1.96,13.02-7.17,13.66-2.86.35-3.86-1.19-3.86-1.19l-7.19.34c-1.58,3.35-6.29,8.44-14.34,7.6-10.73-1.12-11.94-9.4-11.85-15.12.09-5.27,2.47-8.27,4.5-9.32l.23-2.58c.15-1.68.91-3.65,1.87-3.56.77.07,2.27,1.9,3.01,2.89,0-.63.02-2.03.06-2.54Z"/>
          <path class="cls-45" d="M298.6,432.7c.27-2.38,1.05-7.16,9.07-7.37,4.9-.13,8.97,3.89,8.97,7.11v4.15c0,3.65-3.36,7.61-9.11,7.61s-7.61-3.44-8.31-4.84c-.88-1.78-.88-4.28-.62-6.66ZM327.47,428.01c0-4.93,1.55-7.86,4.36-9.14,2.45-1.12,3.33,1.68,3.33,4.9v2.91c0,3.65-1.06,8.95-3.89,10.17-3.11,1.35-3.81-1.05-3.81-2.72v-6.13Z"/>
          <path class="cls-55" d="M306.83,433.05c0-4.23,1.28-5.95,4.27-5.62,4.26.47,3.81,4.72,3.81,6.4,0,3.94-1.57,5.43-4,5.31-3.77-.19-4.08-3.06-4.08-6.08ZM328.47,428.36c0-4.23.88-5.84,2.31-5.84,1.96,0,1.68,2.95,1.68,4.63,0,3.94-1.33,5.17-2.38,5.17s-1.6-1.11-1.6-3.96Z"/>
          <path class="cls-45" d="M305.91,432.75c2.81.09,4.01-.93,4.33-3.13.14-.93-.1-2.84-1.38-2.95-2.15-.2-5.37,6-2.95,6.08ZM328.37,426.57c.69,0,1.25-.98,1.25-2.19,0-.69-.18-1.31-.47-1.71-.61-.14-1.47,3.9-.78,3.9Z"/>
          <path class="cls-17" d="M330.73,417.41c-2.96,1.43-4.24,8.67-8.58,9.9s-4.78-3.09-14.41-3.45c-7.19-.27-8.96.53-10.68,2.03,4.2-3.72,11.54-2.75,25,1.59,7.93-9.91,9.61-10.97,13.91-10.61-.29-5.66.06-2.03-5.24.53ZM336.12,433.6s-1.7,5.74-13.09,5.39c-15.68,10.43-25.29,4.69-25.29,4.69,0,0,3.96,1.95,9.55,1.95s12.29-8.4,15.39-9.2,5.51,2.92,8.67,1.68c3.16-1.24,4.78-4.51,4.78-4.51Z"/>
          <path class="cls-17" d="M323.01,437.83c2,.17,3.48,1.94,3.3,3.93-.17,2-1.94,3.48-3.93,3.3-2-.17-3.48-1.94-3.3-3.93.17-2,1.94-3.48,3.93-3.3Z"/>
          <path class="cls-53" d="M323.04,437.48c1.22.11,2.13,1.19,2.02,2.41-.11,1.22-1.19,2.13-2.41,2.02-1.22-.11-2.13-1.19-2.02-2.41.11-1.22,1.19-2.13,2.41-2.02Z"/>
          <path class="cls-27" d="M321.62,438.69c1.23.1,2.19,1.19,2.02,2.41-.06.47.05.87-1.04.81-1.02-.05-2.14-1.09-1.96-2.43.05-.34-.1-.87.97-.79Z"/>
          <path class="cls-21" d="M327.64,439.75c.15-1.76-1.8-3.29-4.26-3.16-3.09.17-4.63,3-4.73,4.23-.08.92,4.94,1.85,7.18,2.18.26.04.8.08.97-.13.64-.79.74-1.9.84-3.12Z"/>
          <path class="cls-9" d="M323.25,438.71s0,0,0,0c-.47.11-.95-.18-1.07-.65-.11-.47.18-.95.65-1.07.34-.08.81-.08,1.25-.02.45.06.99.2,1.47.47.42.24.57.78.33,1.21s-.78.57-1.21.33c-.22-.12-.52-.21-.84-.25-.15-.02-.29-.03-.41-.03-.06,0-.1,0-.14,0-.03,0-.05,0-.05,0Z"/>
        </g>
        <path class="cls-43" d="M427.89,387.7h-69.92c-5.42,0-9.81,4.39-9.81,9.81v11.63c0,5.42,4.39,9.81,9.81,9.81h6.87c.55,0,1.08.22,1.47.61l6.33,6.33c.81.81,2.13.81,2.94,0l6.33-6.33c.39-.39.92-.61,1.47-.61h44.52c5.42,0,9.81-4.39,9.81-9.81v-11.63c0-5.42-4.39-9.81-9.81-9.81Z"/>
        <path class="cls-43" d="M420.68,347.58h-139.97c-5.42,0-9.81,4.39-9.81,9.81v11.63c0,5.42,4.39,9.81,9.81,9.81h43.89c.55,0,1.08.22,1.47.61l6.33,6.33c.81.81,2.13.81,2.94,0l6.33-6.33c.39-.39.92-.61,1.47-.61h77.54c5.42,0,9.81-4.39,9.81-9.81v-11.63c0-5.42-4.39-9.81-9.81-9.81Z"/>
      </g>
      <g>
        <path class="cls-12" d="M90.01,412.32c-4.93,3.97-11.79,6.42-19.37,6.42-15.01,0-27.17-9.62-27.17-21.49s12.16-21.49,27.17-21.49,26.42,9.04,27.14,20.41c4.74-3.7,11.26-5.98,18.45-5.98,14.51,0,26.27,9.29,26.27,20.74s-11.76,20.74-26.27,20.74-25.31-8.55-26.21-19.35Z"/>
        <path class="cls-50" d="M109.93,392c0,4.85-3.37,8.78-7.53,8.78s-7.53-3.93-7.53-8.78,3.37-8.78,7.53-8.78,7.53,3.93,7.53,8.78Z"/>
        <path class="cls-61" d="M110.61,406.8h0c1.61.94,2.17,3.03,1.25,4.67l-1.29,2.28c-.92,1.64-2.98,2.2-4.59,1.27s-2.17-3.03-1.25-4.67l1.29-2.28c.92-1.64,2.98-2.2,4.59-1.27Z"/>
        <path class="cls-61" d="M119.54,409.5c-1.5,1.12-1.82,3.26-.71,4.78l1.53,2.11c1.1,1.52,3.21,1.85,4.71.73h0c1.5-1.12,1.82-3.26.71-4.78l-1.53-2.11c-1.1-1.52-3.21-1.85-4.71-.73Z"/>
        <path class="cls-29" d="M132.57,353.72c5.27,0,9.54,4.34,9.54,9.7s-4.27,9.7-9.54,9.7-9.54-4.34-9.54-9.7,4.27-9.7,9.54-9.7Z"/>
        <path class="cls-29" d="M122.69,346.55c5.47,0,9.9,4.5,9.9,10.06s-4.43,10.06-9.9,10.06-9.9-4.5-9.9-10.06,4.43-10.06,9.9-10.06Z"/>
        <path class="cls-29" d="M114.38,363.06c0,4.85-3.87,8.77-8.64,8.77s-8.64-3.93-8.64-8.77,3.87-8.77,8.64-8.77,8.64,3.93,8.64,8.77Z"/>
        <path class="cls-50" d="M136.27,386.87l-8.31,5.83,5.3,7.79c1.59,2.33,4.73,2.92,7.03,1.3s2.87-4.81,1.28-7.14l-5.3-7.79Z"/>
        <path class="cls-52" d="M116.46,349.82h2.9c9.84,0,17.81,7.85,17.81,18.09v29.29c0,8.5-7.97,18.09-17.81,18.09h-2.9c-9.84,0-17.81-8.05-17.81-18.09v-29.29c0-10.38,7.97-18.09,17.81-18.09Z"/>
        <path class="cls-4" d="M124.31,393.04c2.21-2.25,5.8-2.25,8.02,0,2.21,2.25,2.21,5.89,0,8.14-2.21,2.25-5.8,2.25-8.02,0-2.21-2.25-2.21-5.89,0-8.14ZM131.35,394.03c-1.67-1.7-4.39-1.7-6.06,0-1.67,1.7-1.67,4.46,0,6.16s4.39,1.7,6.06,0c1.67-1.7,1.67-4.46,0-6.16Z"/>
        <path class="cls-52" d="M124.8,393.54c-1.94,1.97-1.94,5.18,0,7.15,1.94,1.97,5.09,1.97,7.04,0s1.94-5.18,0-7.15c-1.94-1.97-5.09-1.97-7.04,0Z"/>
        <path class="cls-25" d="M137.1,395.75v1.44c0,8.5-7.97,18.09-17.81,18.09h-2.9c-9.82,0-17.78-8.02-17.81-18.04,2.02,2.87,6.88,7.56,17.3,8.06,11.31.55,18.37-6.13,21.22-9.55Z"/>
        <path class="cls-28" d="M99.47,402.89c-.58-1.79-.89-3.7-.89-5.7v-2.36c3.44,3.86,9.59,9.11,17.6,9.11,9.39,0,17.4-6.75,20.92-10.25v3.5c0,1.43-.22,2.89-.65,4.33-2.36,4.08-10.25,8.55-18.11,8.98-8.99.08-16.26-3.29-18.87-7.6Z"/>
        <path class="cls-25" d="M102.41,402.26l.07,4.37,3.18,1.75.06-3.97-3.3-2.15Z"/>
        <path class="cls-25" d="M123.37,406.42l.06,4.04-3.8.44-.06-4.14c1.4-.12,3.52-.31,3.8-.34Z"/>
        <path class="cls-50" d="M98.57,397.02v-9.8c.5,3.19,2.81,10.54,13.01,12.15,9.61,1.1,16.11-1.96,19.99-4.95.2-.15.39-.31.58-.47,3.14-2.62,4.57-4.93,4.94-6.07v8.01c-.97,9.13-12.81,11.8-24.54,10.79-9.56-1.29-13.26-7.48-13.98-9.65Z"/>
        <path class="cls-52" d="M110.09,402.34l-3.47-5.08,4.14-.53,4.01,2.05-3.62,3.61c-.3.3-.79.28-1.06-.05Z"/>
        <path class="cls-29" d="M117.53,358.5c4.76,0,10.18,2.3,12.3,4.92l-.18,5.06c.32,7.77,5.2,6.31,7.79,6.04l-.07-6.41c0-10.97-8.48-20.28-19.27-20.28-4.53,0-8.7,1.57-12.01,4.19-4.58,3.63-7.53,9.3-7.53,15.66v3.18c0-5.13,2.17-9.1,2.17-9.1,0,0,7.47-2.96,16.81-3.26Z"/>
        <path class="cls-29" d="M109.79,341.55c6.29,0,11.39,5.18,11.39,11.57s-5.1,11.57-11.39,11.57-11.39-5.18-11.39-11.57,5.1-11.57,11.39-11.57Z"/>
        <path class="cls-29" d="M118.14,345.24s1.73,1.75,4.55,1.32c2.44.29-3.14,6.04-3.14,6.04l-4.91-6.79,3.49-.57Z"/>
        <path class="cls-52" d="M137,369.67c1.81,0,3.27,1.49,3.27,3.32s-1.46,3.32-3.27,3.32-3.27-1.49-3.27-3.32,1.46-3.32,3.27-3.32Z"/>
        <path class="cls-45" d="M104.63,376.29c2.21,1.53,4.08,2.01,5.78,2.48l-1.39,4.2c-6.2-.7-5.41-4.87-5.15-6.44.03-.17.61-.34.76-.24Z"/>
        <path class="cls-45" d="M119.93,379.7c-.1,1.31-.68,3.79-3.8,4.09-2.02.19-3.74-.2-3.97-3.1-.23-2.9.09-2.37.09-2.37,1.74.26,3.69.34,6.64.46.86-.27,1.11-.06,1.04.93Z"/>
        <path class="cls-29" d="M114.83,377.24c.95-.13,1.83.54,1.96,1.5l.07.5c.13.97-.53,1.86-1.48,1.99-.95.13-1.83-.54-1.96-1.5l-.07-.5c-.13-.97.53-1.86,1.48-1.99Z"/>
        <path class="cls-29" d="M108.24,376.05c.92.26,1.46,1.23,1.21,2.17l-.13.49c-.26.94-1.22,1.49-2.14,1.23-.92-.26-1.46-1.23-1.21-2.17l.13-.49c.26-.94,1.22-1.49,2.14-1.23Z"/>
        <path class="cls-5" d="M108.5,382.25l2.31,2.02,1.96-1.6.07.02c.23.08.48.16.77.26,1.52.51,3.77,1.26,5.76,2.28,1.18.61,2.28,1.31,3.09,2.13.81.81,1.33,1.75,1.33,2.81,0,1.98-.81,3.31-1.84,4.14-1.02.82-2.26,1.15-3.1,1.15s-2.58-.15-4.09-1.04h0s0,0,0,0c-.62-.39-1.74-1.06-2.72-1.64-.49-.29-.93-.56-1.26-.75-.16-.1-.3-.17-.39-.23l-.1-.06s-.05.01-.09.02c-.09.02-.24.05-.42.1-.37.1-.91.27-1.6.53-.28.11-.57.23-.86.36-.06.03-.13.05-.19.08-.35.15-.71.3-1.06.42-.71.24-1.43.39-2.13.22-.94-.22-2.07-.59-2.91-1.37-.86-.78-1.41-1.95-1.22-3.73.21-2.03,1.75-3.37,3.52-4.3,1.6-.83,3.41-1.34,4.7-1.7.14-.04.28-.08.4-.11l.07-.02ZM110.31,391.58q.07-.12.07-.12l.14.08c.09.05.22.13.39.23.33.19.77.46,1.26.75.97.58,2.1,1.26,2.72,1.65,1.44.85,3.09,1,3.95,1,.79,0,1.96-.31,2.93-1.09.97-.78,1.74-2.02,1.74-3.92,0-.96-.47-1.83-1.25-2.61-.78-.78-1.85-1.48-3.02-2.08-1.97-1.01-4.2-1.76-5.72-2.26-.26-.09-.49-.16-.7-.24l-2.02,1.65-2.37-2.07c-.11.03-.22.06-.33.09-1.29.36-3.08.86-4.65,1.68-1.74.91-3.17,2.19-3.37,4.08-.18,1.69.35,2.77,1.13,3.49.79.72,1.86,1.08,2.79,1.3.63.15,1.29.02,1.98-.21.34-.12.69-.26,1.04-.42.06-.03.12-.05.19-.08.29-.12.58-.25.87-.36.7-.27,1.25-.44,1.62-.54.19-.05.33-.08.43-.11.05-.01.09-.02.11-.02,0,0,.01,0,.02,0,0,0,0,0,.01,0h0s0,0,0,0h0s0,0,.02.14ZM110.31,391.58l-.02-.14h.05s.04.02.04.02l-.07.12Z"/>
        <path class="cls-29" d="M112.79,382.82c2.89,1,10.85,3.31,10.85,7.34s-3.17,5.14-4.81,5.14c-.86,0-2.54-.15-4.02-1.02-1.24-.78-4.51-2.71-4.51-2.71,0,0-.8.13-2.18.67-1.4.54-2.83,1.39-4.16,1.08-1.87-.44-4.4-1.47-4.03-4.94.41-3.91,5.94-5.26,8.53-5.99l2.34,2.04,1.99-1.62Z"/>
        <path class="cls-5" d="M104.74,373.27c-.65-.62-1.68-.64-2.35-.01-.7.66-.75,1.77-.1,2.48.2.23.51.44.72.58.27.18.64.41,1.08.65.89.48,2.14,1.04,3.72,1.51,3.16.94,7.63,1.52,13.15.39.94-.19,1.54-1.12,1.35-2.07-.19-.95-1.1-1.57-2.04-1.37-4.92,1.01-8.82.48-11.49-.32-1.34-.4-2.38-.87-3.08-1.24-.35-.19-.62-.35-.79-.47-.11-.07-.16-.11-.17-.12Z"/>
        <path class="cls-52" d="M110.47,381.36c1.41,0,2.56,1.16,2.56,2.6s-1.15,2.6-2.56,2.6-2.56-1.16-2.56-2.6,1.15-2.6,2.56-2.6Z"/>
        <path class="cls-19" d="M128.34,386.48l-.38,9.68c-.02.45-.38.8-.82.81-.44,0-.82-.34-.85-.79l-.65-9.66c-.03-.48.34-.89.82-.9l1.03-.02c.48,0,.87.39.85.88Z"/>
        <path class="cls-20" d="M127.35,386.75l-.7.02c-.49.02-1-.29-1.16-.76l-.86-2.5c-.51-1.48-.05-3.24,1.25-3.28l1.86-.06c1.3-.04,1.87,1.69,1.45,3.19l-.71,2.55c-.13.48-.62.82-1.12.84Z"/>
        <path class="cls-61" d="M129.3,382.09c-.08-1.06-.64-1.94-1.57-1.91l-1.86.06c-1.3.04-1.76,1.8-1.25,3.28l.21.62c.21.15.47.23.74.22h.35c.67-.04,1.19-.62,1.17-1.3l-.02-.61c.23.2.53.32.85.31h.35c.45-.03.82-.29,1.02-.66Z"/>
        <path class="cls-52" d="M98.64,367.56c0,.74.02,1.48.02,3.31s-.02,2.69-.02,3.33c-.91,0-1.65-1.49-1.65-3.32s.74-3.32,1.65-3.32Z"/>
        <path class="cls-50" d="M131.88,393.72l-5.5,8.02,5.69,2.59c4.37,1.95,9.46-.71,10.33-5.48.08-.42.11-.8.1-1.14-.08-3.12-5.83-3.4-5.58-1.25l-5.04-2.75Z"/>
        <path class="cls-50" d="M137.09,388.63l-.97,4.35-.14,6.32,2.28-.35-.07-5.9-1.11-4.42Z"/>
        <path class="cls-52" d="M124.8,393.54c-1.94,1.97-1.94,5.18,0,7.15,1.94,1.97,5.09,1.97,7.04,0s1.94-5.18,0-7.15c-1.94-1.97-5.09-1.97-7.04,0Z"/>
        <path class="cls-61" d="M70.66,426.63c.36-2.43,10.73-4.38,12.88-.95,1.17,1.87-.74,4.35.93,6.26,1.12,1.27,2.58.86,3.36,2.28.67,1.22.55,3.23-.37,3.79-1.7,1.04-4.25-4-9.33-4.17-2.44-.08-3.03,1.04-5.6.57-2.89-.54-5.3-2.55-5.04-3.41.29-.99,4.01-.2,4.48-1.52.34-.96-1.46-1.79-1.31-2.84Z"/>
        <path class="cls-61" d="M89.89,424.73c-1.12.34-2.16,1.57-1.87,2.47.28.86,1.69,1.09,2.61.95,1.2-.19,2.54-1.17,2.43-2.09-.12-.96-1.83-1.74-3.17-1.33Z"/>
        <path class="cls-61" d="M88.21,429.47c-.66.38-1.06,1.44-.75,2.09.45.92,2.01.37,2.61,1.33.61.97-.59,2.15,0,3.03.51.76,1.99.79,2.99.38,1.94-.8,2.88-3.63,2.05-4.93-.48-.75-1.11-.3-4.11-1.33-1.55-.53-2.17-.93-2.8-.57Z"/>
        <path class="cls-61" d="M136.29,410.99c1.37-2.02,4.3-2.59,4.99-1.83.43.47.09,1.6,1,2.83.12.16,1.05,1.42,2.16,1.33,1.21-.1,1.55-1.69,2.33-1.66,1.07.04,2.43,2.2,2,4.16-.06.28-.4,1.81-1.5,2.16-2,.63-3.54-3.63-6.82-3.66-2.24-.02-3.32,1.95-4.32,1.33-.98-.6-.92-3.05.17-4.66Z"/>
        <path class="cls-61" d="M137.07,418.03c-.17-.3,1.03-1.69,2.66-2,1.16-.21,3.15.01,3.55,1.33.36,1.21-.78,2.78-1.66,2.77-.95,0-1.13-1.84-2.66-2.22-1-.25-1.76.34-1.88.11Z"/>
        <g>
          <path class="cls-32" d="M51.16,384.87c0-3.24,2.63-5.87,5.87-5.87h24.86c3.24,0,5.87,2.63,5.87,5.87v15.57c0,1.3-1.05,2.35-2.35,2.35h-31.91c-1.3,0-2.35-1.05-2.35-2.35v-15.57Z"/>
          <path class="cls-32" d="M49.89,376.37c0-3.24,2.63-5.87,5.87-5.87h26.98c3.24,0,5.87,2.63,5.87,5.87v17.47h-38.72v-17.47Z"/>
          <path class="cls-22" d="M49.89,392.37c0-.65.53-1.17,1.17-1.17h6.17c.65,0,1.17.53,1.17,1.17v10.45c0,.65-.53,1.17-1.17,1.17h-6.17c-.65,0-1.17-.53-1.17-1.17v-10.45Z"/>
          <path class="cls-22" d="M79.95,392.37c0-.65.53-1.17,1.17-1.17h6.17c.65,0,1.17.53,1.17,1.17v10.45c0,.65-.53,1.17-1.17,1.17h-6.17c-.65,0-1.17-.53-1.17-1.17v-10.45Z"/>
          <rect class="cls-60" x="58.4" y="398.98" width="21.54" height="1.54"/>
          <rect class="cls-46" x="49.89" y="370.5" width="38.72" height="24.51"/>
          <rect class="cls-32" x="49.89" y="357.85" width="38.57" height="15.04"/>
          <rect class="cls-38" x="49.89" y="391.75" width="38.72" height="3.26"/>
          <rect class="cls-38" x="85.35" y="369.77" width="3.26" height="24.81"/>
          <rect class="cls-38" x="49.89" y="369.77" width="3.26" height="24.81"/>
          <rect class="cls-22" x="49.89" y="375.18" width="3.26" height="5"/>
          <rect class="cls-22" x="85.35" y="375.18" width="3.26" height="5"/>
          <path class="cls-15" d="M49.89,357.24c0-.65.53-1.17,1.17-1.17h6.17c.65,0,1.17.53,1.17,1.17v9.42h21.95v-9.42c0-.65.53-1.17,1.17-1.17h6.17c.65,0,1.17.53,1.17,1.17v9.42h.51c.65,0,1.17.53,1.17,1.17v6.17c0,.65-.53,1.17-1.17,1.17h-40.5c-.65,0-1.17-.53-1.17-1.17v-6.17c0-.65.53-1.17,1.17-1.17h1.01v-9.42Z"/>
          <path class="cls-16" d="M90.42,367.31l-27.12,7.87h-14.42c-.65,0-1.17-.53-1.17-1.17v-6.17c0-.65.53-1.17,1.17-1.17h1.01v-1.76l8.52-2.47v4.23h21.95v-9.42c0-.65.53-1.17,1.17-1.17h6.17c.65,0,1.17.53,1.17,1.17v9.42h.51c.46,0,.85.26,1.05.64Z"/>
          <rect class="cls-33" x="53.15" y="382.98" width="32.19" height="8.77"/>
          <rect class="cls-38" x="63.63" y="365.07" width="12.26" height="11.45" rx="1.76" ry="1.76"/>
          <path class="cls-16" d="M75.89,369.33l-12.26,3.56v-6.06c0-.97.79-1.76,1.76-1.76h8.74c.97,0,1.76.79,1.76,1.76v2.5Z"/>
          <path class="cls-13" d="M70.68,371.41c.82-.32,1.39-1.05,1.39-1.9,0-1.15-1.04-2.08-2.31-2.08s-2.31.93-2.31,2.08c0,.85.57,1.59,1.39,1.9l-.66,1.31c-.2.39.09.85.53.85h2.1c.44,0,.72-.46.53-.85l-.66-1.31Z"/>
          <rect class="cls-38" x="80.36" y="365.55" width="8.48" height="1.1"/>
          <rect class="cls-38" x="49.89" y="365.55" width="8.48" height="1.1"/>
        </g>
      </g>
    </g>
  </g>
</svg>