<?xml version="1.0" encoding="UTF-8"?>
<svg xmlns="http://www.w3.org/2000/svg" xmlns:xlink="http://www.w3.org/1999/xlink" version="1.1" viewBox="0 0 453.5 534.7">
  <defs>
    <style>
      .cls-1, .cls-2, .cls-3, .cls-4 {
        fill: none;
      }

      .cls-5, .cls-6, .cls-7, .cls-8, .cls-9, .cls-10, .cls-11, .cls-12, .cls-13, .cls-14, .cls-15 {
        fill-rule: evenodd;
      }

      .cls-5, .cls-16 {
        fill: #d1d1d1;
      }

      .cls-17 {
        fill: #6f4ea1;
      }

      .cls-18, .cls-13 {
        fill: #e18e70;
      }

      .cls-19 {
        fill: #e6e6e6;
      }

      .cls-20 {
        fill: #9a9a9a;
      }

      .cls-6, .cls-21, .cls-14, .cls-22 {
        fill: #afafaf;
      }

      .cls-23, .cls-24 {
        fill-opacity: 0;
      }

      .cls-23, .cls-25 {
        fill: #c8c8c8;
      }

      .cls-26 {
        fill: #ffb8d1;
      }

      .cls-27, .cls-8 {
        fill: #ff86d0;
      }

      .cls-7, .cls-28 {
        fill: #e1e1e1;
      }

      .cls-29 {
        fill: #d4d4d4;
      }

      .cls-30, .cls-31, .cls-32 {
        isolation: isolate;
      }

      .cls-30, .cls-32 {
        opacity: .9;
      }

      .cls-30, .cls-33 {
        fill: #898989;
      }

      .cls-34 {
        fill: #e5e5e5;
      }

      .cls-35 {
        fill: #ffa82c;
      }

      .cls-36 {
        fill: #d8d8d8;
      }

      .cls-37 {
        fill: #c4c4c4;
      }

      .cls-38 {
        fill: #3d3d3d;
      }

      .cls-9, .cls-39 {
        fill: #a55437;
      }

      .cls-10 {
        fill: #f4f4f4;
      }

      .cls-40 {
        clip-path: url(#clippath-1);
      }

      .cls-41 {
        fill: #ce82ff;
      }

      .cls-11, .cls-42 {
        fill: #ffb7e3;
      }

      .cls-43 {
        fill: #b7b7b7;
      }

      .cls-24 {
        fill: #9c9c9c;
      }

      .cls-44, .cls-45 {
        fill: #fff;
      }

      .cls-46 {
        fill: #ff9600;
      }

      .cls-47 {
        fill: #f0f0f0;
      }

      .cls-2 {
        stroke: #fff;
        stroke-linejoin: round;
        stroke-width: 6px;
      }

      .cls-2, .cls-3, .cls-4 {
        stroke-linecap: round;
      }

      .cls-21, .cls-14 {
        fill-opacity: .3;
      }

      .cls-48 {
        fill: #db8d74;
      }

      .cls-49 {
        fill: #b06800;
      }

      .cls-12, .cls-50 {
        fill: #959595;
      }

      .cls-51 {
        fill: #008fe1;
      }

      .cls-52 {
        fill: #8a8a8a;
      }

      .cls-53 {
        fill: #bfbfbf;
      }

      .cls-45 {
        stroke: #e5e5e5;
        stroke-width: 2px;
      }

      .cls-45, .cls-3, .cls-4 {
        stroke-miterlimit: 10;
      }

      .cls-15, .cls-54 {
        fill: #1cb0f6;
      }

      .cls-55 {
        fill: #871233;
      }

      .cls-3 {
        stroke: #afafaf;
        stroke-width: 1.2px;
      }

      .cls-56 {
        fill: #ededed;
      }

      .cls-32 {
        fill: #888;
      }

      .cls-57 {
        fill: #cd7703;
      }

      .cls-58 {
        clip-path: url(#clippath);
      }

      .cls-4 {
        stroke: #f0f0f0;
        stroke-width: 1.8px;
      }

      .cls-59 {
        fill: #e2e1e1;
      }
    </style>
    <clipPath id="clippath">
      <path class="cls-1" d="M199,268.3h-7.1c-.5,0-1,.2-1.5.4l-3.9,2.2c-.6.4-1.5.4-2.1,0l-2.8-2.2c-.4-.3-1-.5-1.5-.5h-7.3c-1.6,0-2.9,1.3-2.9,2.9v17.9c0,1.6,1.3,2.8,2.9,2.8h8.6c.2,0,.5,0,.7.2l2.7,2c.5.3,1.1.4,1.6,0l2.9-2.1c.2-.1.4-.2.6-.2h9.1c1.6,0,2.9-1.3,2.9-2.8v-17.9c0-1.6-1.3-2.8-2.9-2.8h0Z"/>
    </clipPath>
    <clipPath id="clippath-1">
      <path class="cls-1" d="M199.1,268.3h-7.1c-.5,0-1,.2-1.5.4l-3.9,2.2c-.6.4-1.5.4-2.1,0l-2.8-2.2c-.4-.3-1-.5-1.5-.5h-7.3c-1.6,0-2.9,1.3-2.9,2.9v17.9c0,1.6,1.3,2.8,2.9,2.8h8.6c.2,0,.5,0,.7.2l2.7,2c.5.3,1.1.4,1.6,0l2.9-2.1c.2-.1.4-.2.7-.2h9.1c1.6,0,2.9-1.3,2.9-2.8v-17.9c0-1.6-1.3-2.8-2.9-2.8h0Z"/>
    </clipPath>
  </defs>
  <!-- Generator: Adobe Illustrator 28.7.4, SVG Export Plug-In . SVG Version: 1.2.0 Build 166)  -->
  <g>
    <g id="Ebene_1">
      <g id="Ebene_1-2" data-name="Ebene_1">
        <path class="cls-57" d="M290.5,109.6c0,18.1-9,35.4-36,35.4-24.9,0-36-17.3-36-35.4s16.1-30.2,36-30.2,36,12.1,36,30.2Z"/>
        <ellipse class="cls-46" cx="254.5" cy="108" rx="35.9" ry="28.8"/>
        <path class="cls-34" d="M210.6,157c24.3,0,43.9,18.4,43.9,41.2s-19.7,41.2-43.9,41.2-43.9-18.4-43.9-41.2,19.7-41.2,43.9-41.2M210.6,149c-28.6,0-51.9,22.1-51.9,49.2s23.3,49.2,51.9,49.2,51.9-22.1,51.9-49.2-23.3-49.2-51.9-49.2h0Z"/>
        <path class="cls-46" d="M210.5,247.9c-11.8,0-23.4-3.8-32.6-10.6-1.9-1.4-2.3-4.1-.9-6.1,1.4-1.9,4.1-2.3,6.1-.9,7.8,5.8,17.5,8.9,27.5,8.9,24.1,0,43.7-18,43.7-40.1s-18.7-39.1-41.7-40.1c-2.4-.1-4.3-2.1-4.2-4.5.1-2.4,2.1-4.3,4.5-4.2,13.4.6,25.9,5.9,35.3,15,9.5,9.2,14.7,21.2,14.7,33.8,0,26.9-23.5,48.8-52.4,48.8h0Z"/>
        <path class="cls-57" d="M246.6,196.9c0,18.1-9,35.4-36,35.4-24.9,0-36-17.3-36-35.4s16.1-30.2,36-30.2,36,12.1,36,30.2Z"/>
        <ellipse class="cls-46" cx="210.6" cy="195.4" rx="35.9" ry="28.8"/>
        <path class="cls-43" d="M221.1,283.1c0,18.1-9,35.4-36,35.4-24.9,0-36-17.3-36-35.4s16.1-30.2,36-30.2,36,12.1,36,30.2Z"/>
        <ellipse class="cls-34" cx="185.1" cy="281.5" rx="35.9" ry="28.8"/>
        <path class="cls-43" d="M244.6,374.7c0,18.1-9,35.4-36,35.4-24.9,0-36-17.3-36-35.4s16.1-30.2,36-30.2,36,12.1,36,30.2Z"/>
        <ellipse class="cls-34" cx="208.6" cy="373.1" rx="35.9" ry="28.8"/>
        <path class="cls-43" d="M220.5,467.3c0,18.1-9,35.4-36,35.4-24.9,0-36-17.3-36-35.4s16.1-30.2,36-30.2,36,12.1,36,30.2Z"/>
        <ellipse class="cls-34" cx="184.5" cy="465.8" rx="35.9" ry="28.8"/>
        <g>
          <path class="cls-22" d="M189.6,476.6c1.5-.4,4.1-1.3,7-4.6,2.9-3.3,3.4-6.3,3.5-7.4.3-3.2,0-12,0-13,0-1.5-1.5-2.4-2.5-2.9-1.1-.6-3-.8-4.9.2s-5.7,2-7.4,2-4.2-1.1-5.5-1.6-2.2-1.1-2.9-1c-.5,0-2.3,0-3.7,1.1s-1.6,2.6-1.6,2.6c0,0-.1,3.7,0,12.1.1,8.4,8.3,11.8,10.3,12.4,2,.6,2.3.9,2.3,1.8,0,.5-.3.8-.6,1h-3.6c-.8,0-1.5.7-1.5,1.5v.5h-1.9c-.9,0-1.5.7-1.5,1.5s.7,1.5,1.5,1.5h17.6c.9,0,1.5-.7,1.5-1.5s-.7-1.5-1.5-1.5h-1.4v-.5c0-.8-.7-1.5-1.5-1.5h-3.7c-.3-.2-.5-.6-.5-1.1,0-1,1-1.1,2.4-1.5h0Z"/>
          <path class="cls-22" d="M170.9,468.8c-.9-2.1-.9-4.2-.9-5.8-.6-1.1-1.1-1.5-1.6-2s-1.5-.9-1.8-1-.8-.1-1.1.5-.1,2.3.5,3.6,1.8,1.7,1.8,1.7l.3,2s-1.2,0-2.1,0c-.9,0-1.4.5-1.4.9,0,.4.6,1.5,1.9,2.5s3.3.8,3.3.8l.9,1.5s-.9.3-1.4.7c-.5.4-1.3,1.7-1.5,2.1-.2.4,0,.8.4,1s1.5.7,2.9.4c1.4-.3,2.4-1.9,2.9-2.4s.8-1.3.3-1.6-2.5-2.6-3.4-4.8h0Z"/>
          <path class="cls-22" d="M205.6,467.9c-.9,0-2.1,0-2.1,0l.3-2s1.1-.4,1.8-1.7.8-2.9.5-3.6-.8-.5-1.1-.5-1.3.5-1.8,1-1.1.9-1.6,2c0,1.6,0,3.7-.9,5.8s-2.9,4.5-3.4,4.8-.2,1.1.3,1.6,1.4,2.1,2.9,2.4c1.4.3,2.6-.2,2.9-.4s.6-.5.4-1c-.2-.4-1-1.7-1.5-2.1-.5-.4-1.4-.7-1.4-.7l.9-1.5s2,.2,3.3-.8,1.9-2.1,1.9-2.5-.5-.8-1.4-.9h0Z"/>
        </g>
        <g>
          <g>
            <path class="cls-57" d="M195,184.6l-.3,8.3c0,1.6.7,3.2,2,4.1l4.8,3.6c1.6,1.2,3.8,1.3,5.5.2l5.1-3.2c1.4-.9,2.2-2.3,2.3-4l.3-8.3c0-1.6-.7-3.2-2-4.1l-4.8-3.6c-1.6-1.2-3.8-1.3-5.5-.2l-5.1,3.2c-1.4.9-2.2,2.3-2.3,4Z"/>
            <path class="cls-44" d="M204.2,183.1l-3.2,2c-.3.2-.7.2-1,0l-2.5-1.2c-.8-.4-.9-1.5-.1-2l6-3.8c.8-.5,1.7.2,1.6,1.1l-.3,2.9c0,.4-.2.7-.5.9h0Z"/>
          </g>
          <g>
            <g>
              <path class="cls-57" d="M218.4,213.6c-1.2,0-2.4-.4-3.4-1.1l-4.8-3.6c-1.5-1.1-2.4-2.9-2.3-4.8l.3-8.3c0-1.9,1.1-3.6,2.6-4.6l5.1-3.2c.9-.6,1.9-.9,3-.9s2.4.4,3.4,1.1l4.8,3.6c1.5,1.1,2.4,2.9,2.3,4.8l-.3,8.3c0,1.9-1.1,3.6-2.6,4.6l-5.1,3.2c-.9.6-1.9.9-3,.9h0Z"/>
              <path class="cls-46" d="M219,188c1,0,2.1.3,2.9,1l4.8,3.6c1.3,1,2,2.5,2,4.1l-.3,8.3c0,1.6-.9,3.1-2.3,4l-5.1,3.2c-.8.5-1.7.8-2.6.8s-2.1-.3-2.9-1l-4.8-3.6c-1.3-1-2-2.5-2-4.1l.3-8.3c0-1.6.9-3.1,2.3-4l5.1-3.2c.8-.5,1.7-.8,2.6-.8M219,186.4c-1.2,0-2.4.3-3.4,1l-5.1,3.2c-1.8,1.1-2.9,3.1-3,5.2l-.3,8.3c0,2.1.9,4.2,2.6,5.4l4.8,3.6c1.1.8,2.4,1.3,3.9,1.3s2.4-.3,3.4-1l5.1-3.2c1.8-1.1,2.9-3.1,3-5.2l.3-8.3c0-2.1-.9-4.2-2.6-5.4l-4.8-3.6c-1.1-.8-2.4-1.3-3.9-1.3h0Z"/>
            </g>
            <path class="cls-44" d="M218.3,194.4l-3.2,2c-.3.2-.7.2-1,0l-2.5-1.2c-.8-.4-.9-1.5-.1-2l6-3.8c.8-.5,1.7.2,1.6,1.1l-.3,2.9c0,.4-.2.7-.5.9h0Z"/>
          </g>
        </g>
        <g>
          <path class="cls-22" d="M203.2,272.3h-34.7c-2,0-3.6,1.6-3.6,3.6v17.3c0,2,1.6,3.6,3.6,3.6h10.5c.4,0,.9.1,1.2.4l3.4,2.4c1.2.8,2.7.9,4,.1l4.2-2.6c.3-.2.7-.3,1.1-.3h10.4c2,0,3.6-1.6,3.6-3.6v-17.3c0-2-1.6-3.6-3.6-3.6h0Z"/>
          <g>
            <path class="cls-24" d="M199,268.3h-7.1c-.5,0-1,.1-1.5.4l-3.9,2.2c-.6.4-1.5.4-2.1,0l-2.8-2.2c-.4-.3-1-.5-1.5-.5h-7.3c-1.6,0-2.9,1.3-2.9,2.9v17.9c0,1.6,1.3,2.9,2.9,2.9h8.6c.2,0,.5,0,.7.2l2.7,2c.5.3,1.1.4,1.6,0l2.9-2.1c.2-.1.4-.2.6-.2h9.1c1.6,0,2.9-1.3,2.9-2.9v-17.9c0-1.6-1.3-2.9-2.9-2.9h0Z"/>
            <g class="cls-58">
              <rect class="cls-59" x="163.9" y="262.4" width="43" height="32.6"/>
            </g>
          </g>
          <g>
            <path class="cls-23" d="M199.1,268.3h-7.1c-.5,0-1,.1-1.5.4l-3.9,2.2c-.6.4-1.5.4-2.1,0l-2.8-2.2c-.4-.3-1-.5-1.5-.5h-7.3c-1.6,0-2.9,1.3-2.9,2.9v17.9c0,1.6,1.3,2.9,2.9,2.9h8.6c.2,0,.5,0,.7.2l2.7,2c.5.3,1.1.4,1.6,0l2.9-2.1c.2-.1.4-.2.7-.2h9.1c1.6,0,2.9-1.3,2.9-2.9v-17.9c0-1.6-1.3-2.9-2.9-2.9h0Z"/>
            <g class="cls-40">
              <rect class="cls-25" x="184.1" y="269.3" width="3.2" height="25.7"/>
            </g>
          </g>
        </g>
        <g>
          <path class="cls-22" d="M229.3,367.8l-5.9-9.7c-1-1.6-3.1-2.1-4.8-1.1-1.4.9-2,2.6-1.4,4.2l-1.2-2c-1.4-2.3-4.4-3-6.8-1.6s-3.1,4.5-1.6,6.8l3.3,5.4-6.6,3.6-3.3-5.4c-1.4-2.3-4.4-3-6.8-1.6h0c-2.3,1.4-3.1,4.5-1.6,6.8l.9,1.5c-1.1-1.2-2.9-1.5-4.4-.6-1.6,1-2.1,3.1-1.1,4.8l5.9,9.7c1,1.6,3.1,2.1,4.8,1.1,1.4-.9,2-2.6,1.4-4.2l1.2,2c1.4,2.3,4.4,3,6.8,1.6s3.1-4.5,1.6-6.8l-3.4-5.5,6.5-3.7,3.5,5.7c1.4,2.3,4.4,3,6.8,1.6s3.1-4.5,1.6-6.8l-.9-1.5c1.1,1.2,2.9,1.5,4.4.6,1.6-1,2.1-3.1,1.1-4.8h0Z"/>
          <path class="cls-34" d="M211.8,359.4h0c.8-.5,1.8-.2,2.2.5l1.7,2.7c.5.8.2,1.8-.5,2.2h0c-.8.5-1.8.2-2.2-.5l-1.7-2.7c-.5-.8-.2-1.8.5-2.2Z"/>
          <path class="cls-34" d="M220.7,359.2h0c.5-.3,1.3-.2,1.6.4l1.2,2c.3.5.2,1.3-.4,1.6h0c-.5.3-1.3.2-1.6-.4l-1.2-2c-.3-.5-.2-1.3.4-1.6Z"/>
          <path class="cls-34" d="M200,373.5h0c-.8.5-1.8.2-2.2-.5l-1.7-2.7c-.5-.8-.2-1.8.5-2.2h0c.8-.5,1.8-.2,2.2.5l1.7,2.7c.5.8.2,1.8-.5,2.2Z"/>
          <path class="cls-34" d="M193.7,379.3h0c-.5.3-1.3.2-1.6-.4l-1.2-2c-.3-.5-.2-1.3.4-1.6h0c.5-.3,1.3-.2,1.6.4l1.2,2c.3.5.2,1.3-.4,1.6Z"/>
        </g>
        <path class="cls-35" d="M260,90.2c1-1.1.4-2.8-1.1-2.9-1,0-2.1-.1-3.2-.1-16,0-28.9,10.4-28.9,23.2s.8,6.3,2.3,9c.6,1,2,1.2,2.8.3l28.1-29.4h0Z"/>
        <path class="cls-35" d="M281.9,99.6c-1.8-2.7-4.2-5-7-6.9-1-.7-2.3-.5-3.1.3l-32.4,32.6c-1.1,1.2-.9,3.1.5,3.9,3.3,1.8,7,3.1,11.1,3.7.8.1,1.6-.2,2.1-.7l28.6-29.8c.8-.8.9-2.1.3-3.1Z"/>
        <polyline class="cls-2" points="246.1 109.8 254.4 118.1 267.4 105.1"/>
        <path class="cls-45" d="M258.6,126.6h-85.9c-5.4,0-9.8,4.4-9.8,9.8v21.6c0,5.4,4.4,9.8,9.8,9.8h29.9c.6,0,1.1.2,1.5.6l6.3,6.3c.8.8,2.1.8,2.9,0l6.3-6.3c.4-.4.9-.6,1.5-.6h37.5c5.4,0,9.8-4.4,9.8-9.8v-21.6c0-5.4-4.4-9.8-9.8-9.8h0Z"/>
        <g class="cls-31">
          <g class="cls-31">
            <path class="cls-46" d="M188,153c-.5,0-.9,0-1.3-.3-.4-.2-.7-.5-.9-.8-.2-.3-.3-.7-.3-1.1s.1-.9.4-1.2c.3-.3.7-.5,1.3-.6.6-.1,1.4-.2,2.4-.2h.7v1h-.7c-.6,0-1,0-1.4,0-.3,0-.6.2-.7.3-.1.1-.2.3-.2.6s.1.6.3.8c.2.2.5.3.9.3s.6,0,.8-.2c.2-.1.4-.3.6-.6s.2-.5.2-.9v-1.6c0-.5-.1-.8-.3-1-.2-.2-.6-.3-1-.3s-.6,0-.9,0c-.3,0-.6.2-1,.3-.2,0-.3.1-.5,0-.1,0-.2-.1-.3-.2,0-.1-.1-.2-.1-.4s0-.3.1-.4c0-.1.2-.2.4-.3.4-.2.8-.3,1.2-.4.4,0,.8-.1,1.1-.1.7,0,1.2.1,1.7.3s.8.5,1,.9c.2.4.3,1,.3,1.6v3.4c0,.3,0,.5-.2.7s-.3.2-.6.2-.5,0-.6-.2c-.1-.2-.2-.4-.2-.7v-.7h.1c0,.3-.2.6-.4.8-.2.2-.4.4-.7.6-.3.1-.6.2-1,.2Z"/>
            <path class="cls-46" d="M196.1,153c-.6,0-1.1-.1-1.6-.4s-.8-.7-1.1-1.2c-.3-.5-.4-1.2-.4-1.9s.1-1.4.4-1.9.6-.9,1.1-1.2,1-.4,1.6-.4,1.1.1,1.5.4c.4.3.7.6.9,1.1h-.2v-3.6c0-.3,0-.5.2-.7s.4-.2.6-.2.5,0,.7.2c.2.1.2.4.2.7v8.3c0,.3,0,.5-.2.7-.1.2-.4.2-.6.2s-.5,0-.6-.2c-.1-.2-.2-.4-.2-.7v-1.1l.2.4c-.1.5-.4.9-.9,1.2-.4.3-.9.4-1.5.4ZM196.6,151.7c.3,0,.6,0,.9-.3s.5-.4.6-.7c.1-.3.2-.7.2-1.2,0-.7-.2-1.3-.5-1.7-.3-.4-.7-.6-1.3-.6s-.6,0-.9.2c-.3.2-.5.4-.6.7-.1.3-.2.7-.2,1.2,0,.7.2,1.3.5,1.7s.7.6,1.3.6Z"/>
            <path class="cls-46" d="M204.5,153c-.6,0-1.1-.1-1.6-.4s-.8-.7-1.1-1.2c-.3-.5-.4-1.2-.4-1.9s.1-1.4.4-1.9.6-.9,1.1-1.2,1-.4,1.6-.4,1.1.1,1.5.4c.4.3.7.6.9,1.1h-.2v-3.6c0-.3,0-.5.2-.7s.4-.2.6-.2.5,0,.7.2c.2.1.2.4.2.7v8.3c0,.3,0,.5-.2.7-.1.2-.4.2-.6.2s-.5,0-.6-.2c-.1-.2-.2-.4-.2-.7v-1.1l.2.4c-.1.5-.4.9-.9,1.2-.4.3-.9.4-1.5.4ZM205,151.7c.3,0,.6,0,.9-.3s.5-.4.6-.7c.1-.3.2-.7.2-1.2,0-.7-.2-1.3-.5-1.7-.3-.4-.7-.6-1.3-.6s-.6,0-.9.2c-.3.2-.5.4-.6.7-.1.3-.2.7-.2,1.2,0,.7.2,1.3.5,1.7s.7.6,1.3.6Z"/>
            <path class="cls-46" d="M211.1,144.7c-.3,0-.6,0-.8-.2-.2-.2-.3-.4-.3-.7s0-.5.3-.7c.2-.2.4-.2.8-.2s.6,0,.8.2c.2.2.3.4.3.7s0,.5-.3.7c-.2.2-.4.2-.8.2ZM211.1,153c-.3,0-.5,0-.6-.3s-.2-.4-.2-.7v-5.1c0-.3,0-.5.2-.7.1-.2.4-.2.6-.2s.5,0,.7.2c.2.2.2.4.2.7v5.1c0,.3,0,.5-.2.7-.1.2-.4.3-.7.3Z"/>
            <path class="cls-46" d="M217,153c-.7,0-1.3-.1-1.9-.4-.5-.3-.9-.7-1.2-1.3-.3-.5-.4-1.2-.4-1.9s0-1,.2-1.5c.2-.4.4-.8.7-1.1.3-.3.7-.5,1.1-.7.4-.2.9-.2,1.5-.2s.6,0,1,.1c.4,0,.7.2,1,.4.1,0,.2.2.3.3,0,.1,0,.3,0,.4,0,.1,0,.3-.2.3,0,0-.2.2-.3.2-.1,0-.3,0-.4,0-.2-.1-.4-.2-.6-.3-.2,0-.4,0-.6,0-.3,0-.6,0-.8.1-.2,0-.4.2-.6.4-.2.2-.3.4-.4.7s-.1.6-.1.9c0,.7.2,1.2.5,1.6.3.4.8.6,1.4.6s.4,0,.6,0c.2,0,.4-.1.6-.3.2,0,.3-.1.4,0,.1,0,.2,0,.3.2s.1.2.2.3c0,.1,0,.3,0,.4s-.1.2-.3.3c-.3.2-.6.3-1,.4-.3,0-.7.1-1,.1Z"/>
            <path class="cls-46" d="M223.6,153c-.6,0-1.1-.1-1.5-.3-.4-.2-.7-.5-.9-.9-.2-.4-.3-.9-.3-1.5v-3h-.7c-.2,0-.4,0-.5-.2-.1-.1-.2-.3-.2-.5s0-.4.2-.5c.1-.1.3-.2.5-.2h.7v-1.3c0-.3,0-.5.2-.7.2-.1.4-.2.7-.2s.5,0,.6.2c.1.1.2.4.2.7v1.3h1.5c.2,0,.4,0,.5.2.1.1.2.3.2.5s0,.4-.2.5c-.1.1-.3.2-.5.2h-1.5v2.9c0,.4,0,.8.3,1,.2.2.5.3,1,.3s.3,0,.4,0c.1,0,.2,0,.3,0,.1,0,.2,0,.3.1,0,0,.1.2.1.5s0,.4,0,.5c0,.1-.2.2-.3.3-.1,0-.3,0-.5.1-.2,0-.4,0-.5,0Z"/>
            <path class="cls-46" d="M226.9,144.7c-.3,0-.6,0-.8-.2-.2-.2-.3-.4-.3-.7s0-.5.3-.7c.2-.2.4-.2.8-.2s.6,0,.8.2c.2.2.3.4.3.7s0,.5-.3.7c-.2.2-.4.2-.8.2ZM226.9,153c-.3,0-.5,0-.6-.3s-.2-.4-.2-.7v-5.1c0-.3,0-.5.2-.7.1-.2.4-.2.6-.2s.5,0,.7.2c.2.2.2.4.2.7v5.1c0,.3,0,.5-.2.7-.1.2-.4.3-.7.3Z"/>
            <path class="cls-46" d="M232.7,153c-.7,0-1.3-.1-1.8-.4-.5-.3-.9-.7-1.2-1.2-.3-.5-.4-1.2-.4-1.9s0-1,.2-1.5c.2-.4.4-.8.7-1.1.3-.3.7-.5,1.1-.7.4-.2.9-.2,1.4-.2s1.3.1,1.8.4c.5.3.9.7,1.2,1.2.3.5.4,1.2.4,1.9s0,1-.2,1.5c-.2.4-.4.8-.7,1.1-.3.3-.7.6-1.1.7-.4.2-.9.2-1.4.2ZM232.7,151.7c.3,0,.6,0,.9-.3.3-.2.5-.4.6-.7.1-.3.2-.7.2-1.2,0-.7-.2-1.3-.5-1.7-.3-.4-.7-.6-1.3-.6s-.6,0-.9.2-.5.4-.6.7c-.1.3-.2.7-.2,1.2,0,.7.2,1.3.5,1.7s.7.6,1.3.6Z"/>
            <path class="cls-46" d="M238.5,153c-.3,0-.5,0-.6-.2s-.2-.4-.2-.7v-5.3c0-.3,0-.5.2-.7.1-.1.4-.2.6-.2s.5,0,.6.2c.1.1.2.4.2.7v1l-.2-.3c.2-.5.5-.9,1-1.1.4-.3.9-.4,1.5-.4s1,.1,1.4.3c.4.2.6.5.8.9.2.4.3.9.3,1.6v3.4c0,.3,0,.5-.2.7-.1.2-.4.2-.6.2s-.5,0-.7-.2c-.2-.2-.2-.4-.2-.7v-3.3c0-.5-.1-.9-.3-1.2-.2-.2-.5-.4-.9-.4s-.9.2-1.2.5c-.3.3-.5.7-.5,1.3v3.1c0,.6-.3.9-.9.9Z"/>
          </g>
        </g>
        <path class="cls-21" d="M324,182.6c24.4-12.8,48.3-15.4,53.3-5.7,5.1,9.6-10.6,27.8-35,40.6s-48.3,15.4-53.3,5.7c-5.1-9.6,10.6-27.8,35-40.6Z"/>
        <path class="cls-15" d="M314,194c1.7,1.5,1.9,4.1.4,5.9l-14.8,17.1c-1.5,1.7-4.1,1.9-5.9.4s-1.9-4.1-.4-5.9l14.8-17.1c1.5-1.7,4.1-1.9,5.9-.4Z"/>
        <path class="cls-13" d="M279.9,206.1c.4-3.1,3.2-5.2,6.2-4.9h.3c3.1.4,5.2,3.2,4.9,6.3s-3.2,5.2-6.2,4.9h-.3c-3.1-.4-5.2-3.2-4.9-6.3Z"/>
        <path class="cls-11" d="M365.4,183.3c1.7,2.9.7,6.5-2.1,8.2l-13.7,8c-2.9,1.7-6.5.7-8.2-2.1-1.7-2.9-.7-6.5,2.1-8.2l13.7-8c2.9-1.7,6.5-.7,8.2,2.1Z"/>
        <path class="cls-11" d="M356.1,177.2c1.3,2.7.1,6-2.6,7.2l-6.5,3.1c-2.7,1.3-6,.1-7.2-2.6-1.3-2.7-.1-6,2.6-7.2l6.5-3.1c2.7-1.3,6-.1,7.2,2.6Z"/>
        <path class="cls-8" d="M373.8,175.3c-1.6,1-3.7.6-4.7-1l-3.3-5.1c-1-1.6-.6-3.7,1-4.7,1.6-1,3.7-.6,4.7,1l3.3,5.1c1,1.6.6,3.7-1,4.7Z"/>
        <path class="cls-8" d="M373.8,175.3c-1.6,1-3.7.6-4.7-1l-3.3-5.1c-1-1.6-.6-3.7,1-4.7,1.6-1,3.7-.6,4.7,1l3.3,5.1c1,1.6.6,3.7-1,4.7Z"/>
        <path class="cls-11" d="M370.2,168.5c1.6,2.8.7,6.4-2,8l-14.4,8.5c-2.8,1.6-6.4.7-8-2.1s-.7-6.4,2-8l14.4-8.5c2.8-1.6,6.4-.7,8,2.1Z"/>
        <path class="cls-8" d="M356.6,160.2c1.7.8,2.5,2.8,1.7,4.5l-3,6.5c-.8,1.7-2.8,2.5-4.5,1.7-1.7-.8-2.5-2.8-1.7-4.5l3-6.5c.8-1.7,2.8-2.5,4.5-1.7Z"/>
        <path class="cls-11" d="M351.5,166c2.9-1.3,6.3,0,7.6,2.8l6.8,14.9c1.3,2.9,0,6.3-2.8,7.6s-6.3,0-7.6-2.8l-6.8-14.9c-1.3-2.9,0-6.3,2.8-7.6Z"/>
        <path class="cls-8" d="M350.1,175.6c.2,0,.4,0,.5.2l3.4,7.6c0,.2,0,.4-.2.5-.2,0-.4,0-.5-.2l-3.4-7.6c0-.2,0-.4.2-.5Z"/>
        <path class="cls-8" d="M356.6,160.2c1.7.8,2.5,2.8,1.7,4.5l-3,6.5c-.8,1.7-2.8,2.5-4.5,1.7-1.7-.8-2.5-2.8-1.7-4.5l3-6.5c.8-1.7,2.8-2.5,4.5-1.7Z"/>
        <path class="cls-41" d="M299,213.3s-17.3,5.2-17.4,5.1c0,0-9.5-7-9.5-7-.2-.2-.3-.4-.3-.6v-.2c0-.3.3-.6.7-.7l16.7-5.1c.3,0,.4-.2,1.3.4l8.7,6.5c.7.3.6,1.3-.1,1.6h0Z"/>
        <path class="cls-17" d="M299.6,212.4v2.7c0,.3-.5.6-.8.6l-16.3,4.9c-1.8.7-2.7,0-2.7,0h0l-7.7-5.7c-.3-.2-.4-.4-.3-.8v-3.5s9.8,7.2,9.8,7.3.1,0,.1,0l17.9-5.4h0Z"/>
        <path class="cls-46" d="M281.6,208l8.6,6.4-8.4,2.6-8.6-6.4,8.4-2.6Z"/>
        <path class="cls-41" d="M279.5,217.8l-2-1.5c-.5-.4-1.2-.2-1.2.6v1c0,.2,0,.4.2.6l2,1.5c.5.4,1.2.3,1.2-.4v-1.1c0-.3,0-.5-.2-.7h0Z"/>
        <path class="cls-17" d="M290.4,206.9l-1.8.6-1.5-1.1-1.8.5,1.5,1.1-1.8.6,1.5,1.1,1.8-.6,1.5,1.1,1.8-.5-1.5-1.1,1.8-.5-1.5-1.1h0ZM291.6,212.2c.9-.2,1-.7.5-1-.6-.3-1.7-.4-2.5-.1-.9.2-1.1.7-.6,1,.6.3,1.8.4,2.6.1h0ZM295.8,212.2c.9-.2,1-.7.5-1-.6-.3-1.7-.4-2.5-.1-.9.2-1.1.7-.6,1,.6.3,1.8.4,2.6.1h0Z"/>
        <path class="cls-13" d="M288.4,204.8c.4-.6.5-1.4.2-2.1-.5-1-1.7-1.5-2.7-1-1,.4-1.5,1.2-1.6,2.1-.1.7,0,1.3,0,1.8.1.4.3.8.4,1.1,0,.1.1.2.2.3,0,0,0,0,0,.1,0,0,0,0,0,0h0s0,0,1.8-1l-1.8,1c.6,1,1.8,1.3,2.8.8,1-.6,1.3-1.8.8-2.8,0,0,0,0,0,0,0,0,0,0,0-.1,0,0,0,0,0-.1h0Z"/>
        <path class="cls-42" d="M348.5,180.8c5.3,4.4,6.5,12.2,2.5,17.1-4,4.9-11.8,5-17.1.5-5.3-4.4-6.4-12-2.3-16.8,4-4.9,11.6-5.2,17-.8h0ZM340.6,201.1c-1,.9-2.4,1.2-3.6,1.1-3.2.8-8-16.7-4.7-17,6.6-.5,10,11.5,8.3,15.9h0Z"/>
        <path class="cls-27" d="M340.6,201.1c-1,.9-2.4,1.2-3.6,1.1-3.2.8-8-16.7-4.7-17,6.6-.5,10,11.5,8.3,15.9h0Z"/>
        <path class="cls-8" d="M346.7,180c.1-.2.4-.2.5-.1,0,0,0,0,0,0,.6.4,3.8,2.6,5.2,6.4,0,.2,0,.4-.2.5s-.4,0-.5-.2c-1.3-3.5-4.3-5.6-4.9-6.1,0,0,0,0,0,0-.2-.1-.2-.4-.1-.6h0Z"/>
        <path class="cls-11" d="M333.2,191.2l8.1-3.5,1.2,2.8-8.1,3.5-1.2-2.8Z"/>
        <path class="cls-54" d="M333.8,205.9c-4.8,1.3-8.8-.8-10.6-2.6,0,0,8.1-16.1,9.1-16.3,1.3-.3,3.9,3.4,5.1,8.3,1.3,4.9-.4,9.5-3.7,10.6h0Z"/>
        <path class="cls-15" d="M325.6,194.5c2,1,2.9,3.5,1.9,5.6l-8.9,17.8c-.9,1.7-2.8,2.6-4.7,2.2l-13.5-3.2c-2.2-.5-3.6-2.8-3.1-5,.5-2.2,2.8-3.6,5-3.1l10.3,2.4,7.4-14.8c1-2.1,3.5-2.9,5.6-1.9h0Z"/>
        <path class="cls-18" d="M293.8,218.8c4.5,3.6,14.2-2.7,11.5-8.5-1.5-2.6-6-3-8-1,0,0-2.2,3.9-3.4,5.2,0,0-2.7,2.2,0,4.2Z"/>
        <path class="cls-13" d="M299.7,211.7c-1.4-.4-2.9-.6-3.9-.3-1.1.3-2.2-.3-2.5-1.4s.3-2.2,1.4-2.5c2.1-.6,4.5-.1,6.1.3.9.2,1.6.5,2.1.7.3.1.5.2.6.3,0,0,.1,0,.2,0,0,0,0,0,0,0h0s0,0-.9,1.8l.9-1.8c1,.5,1.5,1.7,1,2.7s-1.7,1.4-2.7,1h0s0,0,0,0h0l.9-1.9c-.6,1.2-.9,1.8-.9,1.9M299.7,211.7c.7.2,1.3.4,1.7.6l-1.7-.6ZM301.4,212.3c.2,0,.4.1.5.2l-.5-.2ZM301.9,212.5s0,0,.1,0h-.1ZM302,212.5s0,0,0,0h0ZM302,212.6h0ZM302,212.6h0Z"/>
        <path class="cls-11" d="M287.5,181.4c0-13.8,11.2-24.9,24.9-24.9h.3c13.8,0,24.9,11.2,24.9,24.9s-11.2,24.9-24.9,24.9h-.3c-13.8,0-24.9-11.2-24.9-24.9Z"/>
        <path class="cls-18" d="M288.6,173.7c-.8,2.4-1.2,5-1.2,7.7,0,12.7,9.5,23.1,21.7,24.7,6.1-5.9,5.2-17-2.2-25-5.2-5.7-12.3-8.4-18.3-7.4h0Z"/>
        <path class="cls-44" d="M298.9,190.7s-.5.4-.8.9c-.7,1.4,0,2.4.7,2.9,1,.7,7,1,10.4.6.2-3-1.5-3.9-1.5-3.9l-1.4.3s-4.2,1-7.5-.7h0Z"/>
        <path class="cls-38" d="M303,191.6c-1.3,0-2.7-.3-4-.9,0,0-.5.4-.8.9-.7,1.4,0,2.4.7,2.9.4.3,1.8.6,3.6.7.2-.2.3-.5.4-.9l.3-1.2c.1-.5,0-.9,0-1.4h0Z"/>
        <path class="cls-44" d="M289.5,185.9s3.6,5.1,5.6,6.5c.3,0,.5-.3,1.1-1.2.7-1,.9-2.2.6-3.4-.4-1.5-1.5-3.1-2.9-3.8-2.8-1.4-3.5,0-3.8.3,0,0-.6,1.1-.7,1.7h0Z"/>
        <path class="cls-38" d="M296.7,187.2c-.4-.4-.9-.7-1.5-.8-1.4-.3-2.7.7-2.8,2.1v.9c.9,1.2,2,2.4,2.8,2.9.3,0,.4-.1.8-.7.1-.1.2-.3.4-.5.7-1,.9-2.2.6-3.4,0-.2-.1-.4-.2-.6h0Z"/>
        <path class="cls-55" d="M302,199.3c.8,2.6,3,3.7,5,3.6,2.5-.2,3.3-3.4,1.3-4.6-.2-.1-.4-.3-.6-.4-.2-.2-.5-.4-.5-.4l-5.3,1.9h0Z"/>
        <path class="cls-39" d="M297,195.5c-.5.8-1.5,1.1-2.3.6-.8-.5-1.1-1.5-.6-2.3.5-.8,2.6-2,3-1.8s.4,2.7-.1,3.5h0Z"/>
        <path class="cls-9" d="M307.3,197c.2.2.2.6,0,.8-.5.5-1.1.9-1.9,1.2-.8.3-1.7.6-2.7.8-2,.3-4.2.1-5.9-1-.3-.2-.3-.5-.2-.8.2-.3.5-.3.8-.2,1.4.9,3.3,1.1,5.1.8.9-.1,1.7-.4,2.4-.7.7-.3,1.2-.6,1.5-1,.2-.2.6-.2.8,0h0Z"/>
        <path class="cls-38" d="M309.2,183.9c-.7-1-1.4-1.9-2.2-2.8-4.7-5.1-10.9-7.8-16.4-7.6,1.2,3.9,3.3,7.4,7.2,8.8,3.6,1.2,7.6,1.7,11.5,1.6h0Z"/>
        <path class="cls-38" d="M309.6,184.4c-3.8,3.6-12.2,6-21.4-2-.8-.8-1.1-1.4-1.5-1.7-4-6.4-1.9-10.6-1.2-10.8,1.2-.6,2,3.5,5.7,3.2.5,0,1.1,0,1.8,0s1.6,0,2.5,0c4.9.7,10.2,4.6,13.8,10.6,0,0,.4.7.4.8h0Z"/>
        <path class="cls-42" d="M322.8,200.5c.4-.3.9-.3,1.3,0,.9.5,2.5,1.4,3.8,1.8,1.2.4,3,.6,4.1.8.5,0,.8.5.6.9-.8,1.8-2.9,5.6-5.1,6.8-.5.2-1.9,0-3.2-.4-2-.6-3.5-2-4.5-3.8l-.9-1.5c-.3-.5-.1-1.1.3-1.4l3.7-2.9h0Z"/>
        <path class="cls-27" d="M319.9,206.9c1.4-.6,2.9-1.2,4.3-1.9,1.6-.8,3.2-1.6,4.6-2.5-.3,0-.6-.2-.9-.2-.4-.1-.7-.3-1.1-.4-1,.6-2.1,1.2-3.2,1.7-1.5.7-3,1.4-4.4,1.9l.5,1c0,.1.2.3.3.4h0Z"/>
        <g>
          <ellipse class="cls-34" cx="76.9" cy="271.6" rx="32.1" ry="24.5"/>
          <path class="cls-53" d="M56.3,280.2s-9.7-8.4-11-10.5-2.9-9.1.9-13,6.6-5.2,9.4-6.2,4.6-3.3,5.3-5.7,6.4-8.2,14.1-6.5c7.7,1.7,12.9,6.4,14.3,7.7s7.6,1.9,9.4,1.2,2.6-.9,3.4-.3,2.9,3.8,1.2,7.2c-1.7,3.4-2.5,4-2.5,4.4s2.5,3.1,1.9,10.7-7.3,19.4-16.7,20.7-13.3.3-14.5-.5-3.1,5-12,5.5-8.1-3.1-8.2-4.2,3.4-5.2,3.9-6.5,1-3.8,1-3.8h0Z"/>
          <rect class="cls-22" x="102.3" y="270" width="12" height="7.6" rx="3.5" ry="3.5" transform="translate(-177.3 345.4) rotate(-82.5)"/>
          <g>
            <path class="cls-22" d="M93.8,295.6c-.5,0-1,0-1.5-.3l-4.1-1.6c-1-.4-1.8-1.2-2.3-2.2s-.5-2.1,0-3.1c.6-1.6,2.1-2.6,3.8-2.6s1,0,1.5.3l4.1,1.6c1,.4,1.8,1.2,2.3,2.2s.5,2.1,0,3.1c-.6,1.6-2.1,2.6-3.8,2.6h0Z"/>
            <path class="cls-34" d="M89.8,286.1c.4,0,.9,0,1.4.2l4.1,1.6c2,.8,2.9,3,2.2,4.9-.6,1.5-2,2.5-3.6,2.5s-.9,0-1.4-.2l-4.1-1.6c-2-.8-2.9-3-2.2-4.9.6-1.5,2-2.5,3.6-2.5M89.8,285.5h0c-1.8,0-3.5,1.1-4.1,2.8-.9,2.3.3,4.8,2.5,5.7l4.1,1.6c.5.2,1,.3,1.6.3,1.8,0,3.5-1.1,4.1-2.8.4-1.1.4-2.3,0-3.4s-1.3-1.9-2.4-2.3l-4.1-1.6c-.5-.2-1-.3-1.6-.3h0Z"/>
          </g>
          <path class="cls-34" d="M89.1,265.5l3.1-3.4s.4-.5.8-.3,0,2.1-.7,3-1.8,1.4-2.7,1.6c-.7.1-.9-.3-.5-.9h0Z"/>
          <path class="cls-34" d="M89.5,259.1l3.1-3.4s.4-.5.8-.3,0,2.1-.7,3-1.8,1.4-2.7,1.6c-.7.1-.9-.3-.5-.9h0Z"/>
          <path class="cls-34" d="M82.1,266.9l3.1-3.4s.4-.5.8-.3,0,2.1-.7,3-1.8,1.4-2.7,1.6c-.7.1-.9-.3-.5-.9h0Z"/>
          <path class="cls-34" d="M55.8,258.3s-2.7-.5-2.5-2,6.3-2.1,8.7-3.4,7.1-3.9,8-5.6,1.5-3.5.6-5.6-.7-1.8,0-2,2.5.5,2.8.5.3-.1.2-.6-.5-1.1.2-1.2,2.3.5,3,1,2.1,0,2.1,0c0,0,2.6,1,5,2.5s8.7,5.6,8.2,9.5c-.5,3.9-5,4.1-6.6,3.7s-5.6.2-5.3,3.6c.2,3.4.4,6.4-3.2,9.1s-7.7,4.2-13.3,2-6.7-4.2-7-4.8-.2-1.5-.6-1.7-2.4-.4-3.2-2-.6-1.6.2-1.9,2.4-.5,2.7-1h0Z"/>
          <path class="cls-3" d="M64.1,263.7c6.7,0,10.9-2.1,10.1-8.9"/>
          <path class="cls-3" d="M78.9,249.7c4.4.2,6.5-1.5,5.3-6.2"/>
          <ellipse class="cls-34" cx="82.2" cy="257" rx="3.4" ry="3.5"/>
          <path class="cls-22" d="M79.8,259.6s-2-2-.6-4.9,5.2-1.1,5.3-.6c0,.3.1,1.4.1,2,0,.3-.1.5-.4.7l-4.5,2.8h0Z"/>
          <path class="cls-4" d="M80.3,255.9s.2-1,1.2-1.4"/>
          <path class="cls-6" d="M83.7,207.8c-.2-1.7-2.3-2.3-3.3-.9l-8.2,11.3c-.8,1.1-.2,2.5,1,2.9l4.6,1.2.7,6.7c.2,1.7,2.3,2.3,3.3.9l8.2-11.3c.8-1.1.2-2.5-1-2.9l-4.6-1.2-.7-6.7Z"/>
          <path class="cls-47" d="M73.8,219.7c-.4-.1-.5-.7,0-.9l3.2-1.4c.3-.1.6,0,.6.4l.2,2.3c0,.3-.3.6-.6.5l-3.4-.9h0Z"/>
          <path class="cls-47" d="M88.6,216.9c.4.1.5.7,0,.9l-3.2,1.4c-.3.1-.6,0-.6-.4l-.2-2.3c0-.3.3-.6.6-.5l3.4.9h0Z"/>
          <path class="cls-6" d="M37.8,229.6c-.2-1.7-2.3-2.3-3.3-.9l-8.2,11.3c-.8,1.1-.2,2.5,1,2.9l4.6,1.2.7,6.7c.2,1.7,2.3,2.3,3.3.9l8.2-11.3c.8-1.1.2-2.5-1-2.9l-4.6-1.2s-.7-6.7-.7-6.7Z"/>
          <path class="cls-47" d="M27.9,241.6c-.4-.1-.5-.7,0-.9l3.2-1.4c.3-.1.6,0,.6.4l.2,2.3c0,.3-.3.6-.6.5l-3.4-.9h0Z"/>
          <path class="cls-47" d="M42.7,238.8c.4.1.5.7,0,.9l-3.2,1.4c-.3.1-.6,0-.6-.4l-.2-2.3c0-.3.3-.6.6-.5l3.4.9h0Z"/>
        </g>
        <path class="cls-21" d="M117.2,81.7c-15.4,1.5-27.1,12.7-26.1,25.1,1.1,12.4,14.4,21.2,29.9,19.8s27.1-12.7,26.1-25.1c-1.1-12.4-14.4-21.2-29.9-19.8Z"/>
        <path class="cls-53" d="M153.5,74.8c-1.6.8-30,13.6-30,13.6-1.6.8-2,2.8-.8,4.1,5.8,6.1,15,7.8,22.8,4.2,7.8-3.7,12.3-11.9,11.2-20.2-.2-1.7-1.6-2.5-3.3-1.6h0Z"/>
        <path class="cls-28" d="M153,56.2l9.4,5.2v13.1l-9.4,5.2-9.4-5.2v-13.1l9.4-5.2h0Z"/>
        <path class="cls-28" d="M153,56.1v6.8l-4,2.2-5.4-3.8,9.4-5.2h0Z"/>
        <path class="cls-28" d="M143.5,61.3l5.4,3.8v5.7l-5.5,3.8s0-13.3,0-13.3Z"/>
        <path class="cls-28" d="M157.1,70.8l5.3,3.7-9.4,5.2v-6.8l4.1-2.2Z"/>
        <path class="cls-51" d="M147.9,70.8l2.2,3.7,2.9,5.2-3.8-6.7-1.3-2.2h0Z"/>
        <path class="cls-28" d="M153,62.8l4,2.3v5.6s-4,2.3-4,2.3l-4-2.3v-5.7s4-2.2,4-2.2Z"/>
        <path class="cls-7" d="M153,62.7l-4.2,2.3v5.8s4.2,2.3,4.2,2.3l4.2-2.3v-5.8s-4.2-2.3-4.2-2.3h0ZM153,62.9l3.9,2.2v5.5s-3.9,2.2-3.9,2.2l-3.9-2.2v-5.6s3.9-2.2,3.9-2.2Z"/>
        <path class="cls-7" d="M153.3,55.6c-.2-.1-.4-.1-.6,0l-9.4,5.2c-.2.1-.3.3-.3.6v13.1c0,.2.1.5.4.6l9.4,5.2c.2.1.4.1.6,0l9.4-5.2c.2-.1.3-.3.3-.6v-13.1c0-.2-.1-.5-.4-.6l-9.4-5.2h0ZM161.8,61.8v12.3l-8.7,4.8-8.7-4.8v-12.3l8.7-4.8,8.7,4.8Z"/>
        <path class="cls-7" d="M154.6,55.8c-1-.5-2.1-.5-3.1,0l-7.2,4c-1,.6-1.7,1.7-1.7,2.8v10.7c0,1.2.6,2.2,1.7,2.8l7.2,4c1,.5,2.1.5,3.1,0l7.2-4c1-.6,1.7-1.7,1.7-2.8v-10.7c0-1.2-.6-2.2-1.7-2.8M161.8,59.8l-7.2-4,7.2,4ZM151.9,56.6c.7-.4,1.5-.4,2.2,0l7.2,4c.7.4,1.2,1.2,1.2,2v10.7c0,.8-.4,1.6-1.2,2l-7.2,4c-.7.4-1.5.4-2.2,0l-7.2-4c-.7-.4-1.2-1.2-1.2-2v-10.7c0-.8.4-1.6,1.2-2,0,0,7.2-4,7.2-4Z"/>
        <path class="cls-44" d="M154.3,57.7l6.2,3.4c.6.3.6,1.1,0,1.5l-3,2.1c-.3.2-.6.2-.9,0l-3.2-1.8c-.3-.2-.5-.5-.5-.8v-3.7c0-.7.7-1.1,1.3-.8Z"/>
        <path class="cls-16" d="M152.4,72.8l-2.9-1.7c-.4-.2-.8-.2-1.1,0l-2.7,1.9c-.6.4-.6,1.4,0,1.8l5.6,3.1c.7.4,1.5-.1,1.5-.9v-3.3c0-.4-.2-.7-.5-.9h0Z"/>
        <path class="cls-53" d="M96.7,78.5l-15.1,29c-.8,1.6.1,3.4,1.9,3.7,8.3,1.4,16.7-2.8,20.7-10.5,4-7.7,2.6-16.9-3.3-22.9-1.2-1.2-3.3-.9-4.1.6h0Z"/>
        <path class="cls-5" d="M129.3,106.5c-1.6,2.3-1,5.4,1.3,7l1.2.8c2.3,1.6,5.4,1,7-1.3,1.6-2.3,1-5.4-1.3-7l-1.2-.8c-2.3-1.6-5.4-1-7,1.3ZM111.5,108.2c-2.6-1-5.5.2-6.5,2.8l-.5,1.2c-1,2.6.2,5.5,2.8,6.5,2.6,1,5.5-.2,6.5-2.8l.5-1.2c1-2.6-.2-5.5-2.8-6.5Z"/>
        <path class="cls-53" d="M93.1,49c-4.8.5-11.9,4-10.9,15.2,1.2,12.2,3.9,54.5,36.7,51.3,29.1-2.8,27.1-35.1,26.6-40.8-1.8-18.9-8-35.1-25.4-33.5-8.2.8-13.4,7.8-16.5,8.1-3.3.3-5.6-.8-10.5-.3h0Z"/>
        <path class="cls-16" d="M125.8,108.7c.8.1,3.5,0,4.6-2.2.4-.6.2-1.1-.2-1-.9.4-2,.8-2.9,1-1.8.4-3.3.4-3.4.7-.2.5,1.2,1.4,1.9,1.5h0ZM136.3,104.4c1,0,2.8-.9,3.5-3.4.2-.7-.1-1-.5-.7-.7.7-.9.8-1.9,1.4-1.6,1-3.2,1.7-3.2,1.9,0,.6,1.4.9,2.1.8ZM136.3,106c.4-.2.3.5.2.7-.1.4-1.4,2.9-4.7,2.8-1.2,0-2-1-1.4-1.2,1.2-.3,2.4-.6,3.3-1,1.1-.4,1.9-1,2.5-1.3h0Z"/>
        <path class="cls-16" d="M141.6,59.4c-.6,0-.8,1.2-1,2.3-.1.6-.2,1.1-.4,1.5-.5-1.6-1.9-4.8-3.6-4.6-.8,0-1.3,2.5-1.8,5.5-.9,4.7-2,10.8-5.4,11.8-5.8,1.7-13.3-4.3-17-7.3-1.2-1-2-1.6-2.3-1.6-2,.2-1.8,3.7-.9,6.5-2.2-1.9-4-3.3-4.5-2.9-.5.4-2,2.3-.9,6.3-2.4,2.3-4.3,5.3-3.6,13.3.8,8,7.4,13.3,16,12.4,6.9-.7,11.1-6.5,12.4-9.3l7.6-.7c.5.2,1.9.7,3.7.5,1.6-.2,4.4-2.7,5.6-8.3.4-4.7,0-8.4,0-10.1-.5-5.1-1.3-10-2.6-14.4-.4-.5-.9-1-1.4-.9h0Z"/>
        <path class="cls-44" d="M107.5,90.1c.3,2.9,2.7,8.5,10.3,7.8,4.5-.4,9.6-2.9,9-9.7l-.4-3.8c-.2-2.5-3.1-7.3-10.5-6.6-6.3.6-9,5.4-8.7,8.5,0,0,.4,3.8.4,3.8Z"/>
        <path class="cls-44" d="M136.1,86.3c.2,2.1,2.2,2.8,4.1,2.6,1.9-.2,5-3.3,4-13.6-.5-3.7-2.5-5.2-3.9-5.1-2,.2-5,2.8-4.5,7.7l.4,8.5h0Z"/>
        <path class="cls-16" d="M145,83.7s-.9,9.2-13.9,7.2c-14.2,15.9-25.1,4.7-25.1,4.7,0,0,4.2-2.8,11.3-3.9,10-1.5,11.9.8,15.1-2.4,3.2-.8,3.7-3.5,8-5,4.8-1.8,4.7-.6,4.7-.6h0Z"/>
        <path class="cls-16" d="M133.3,90c-2.2,0-4,1.8-4,4.1s1.8,4.1,4,4.1,4-1.8,4-4.1-1.8-4.1-4-4.1Z"/>
        <path class="cls-49" d="M133.3,90c-2.2,0-3.3,1.6-4,3.8-.1.4,1.7,1.1,4,1.4,2.2.4,3.9,1,3.9-1.3s-1.7-3.9-3.9-3.9h0Z"/>
        <path class="cls-19" d="M137.7,95.6c-.1.2-.4.4-.7.3-2.3-.3-8.5-1.5-8.5-2.4,0-1.3,2.2-4.9,5.5-4.9s4.3,1.2,4.5,2.9c.1,1.1-.3,2.9-.9,4h0Z"/>
        <path class="cls-10" d="M135.1,92.2h0c.6.3,1.4,0,1.7-.6.3-.6,0-1.4-.6-1.7-.6-.3-1.4-.4-2-.4s-.7,0-1,0c-.3,0-.6.1-1,.3-.6.3-.9,1.1-.6,1.7.3.6,1.1.9,1.7.6,0,0,0,0,.2,0,.2,0,.4,0,.6,0s.4,0,.6,0c.2,0,.2,0,.3,0h0Z"/>
        <path class="cls-50" d="M137.5,71.6c-.1.6-.2,1.1,0,1.7.4,1.9,1,5.4,1.1,6.7.2,2.1,2,3.6,4,3.4.5,0,1-.2,1.5-.4.3-2,.4-4.5.1-7.8-.5-3.7-2.5-5.2-3.9-5.1-.8,0-1.9.6-2.7,1.5h0Z"/>
        <path class="cls-50" d="M117.8,77.8c-.5.9-.6,2-.3,3l2.5,7.4c.6,1.9,2.6,2.9,4.5,2.4.9-.2,1.7-.9,2.2-1.6,0-.2,0-.4,0-.7l-.4-3.8c-.2-2.3-2.6-6.4-8.5-6.7h0Z"/>
        <g>
          <g>
            <path class="cls-21" d="M307,430.7c15.4-1.4,28.7,6.9,29.7,18.5s-10.6,22.1-25.9,23.5c-15.4,1.4-28.7-6.9-29.7-18.5s10.6-22.1,25.9-23.5Z"/>
            <path class="cls-53" d="M278.2,451.2l3.6-45.3c.2-2.4,2.7-4,4.9-3,10.8,4.5,17.5,15.5,16.6,27.5-1,12-9.4,21.8-20.7,24.6-2.4.6-4.6-1.3-4.4-3.8h0Z"/>
            <path class="cls-53" d="M327.7,401.3l11,39.2c.6,2.1-1,4.2-3.2,4.1-10.4-.4-19.6-7.6-22.5-18-2.9-10.4,1.1-21.3,9.8-27.1,1.8-1.2,4.3-.3,4.9,1.8h0Z"/>
            <path class="cls-5" d="M301.5,445.7c.8-2.3,3.3-3.5,5.6-2.8l20,6.5c2.3.8,3.6,3.3,2.8,5.6-.8,2.3-3.3,3.6-5.6,2.8l-15.9-5.2-3.2,9.2c-.8,2.3-3.3,3.5-5.6,2.7-2.3-.8-3.5-3.3-2.7-5.6l4.6-13.4h0Z"/>
            <path class="cls-53" d="M300,397.5c-2.6,0-5.1-1.4-10.9-1-8.4.6-10,8.1-10,13.2,0,0,.2,12.2,1,22.6s10.8,28.9,29.5,28.1c18.8-.8,27.8-15.1,27-41.3-.8-24-12.9-27.9-19.9-27.8-7,0-14.1,6.2-16.8,6.2h0Z"/>
            <path class="cls-16" d="M310.8,453.6c1,0,4.5-.5,5.9-.7.8-.1.9.4.8.6,0,.3-1.3,2.1-4.4,2.1-3.1,0-3.2-1.9-2.3-2h0ZM322.5,451.5c0-.5,2.9-1.8,5.4-3.5.4-.2.7,0,.5.7-.7,2.6-3,3.4-3.8,3.5-.7.1-2.1-.2-2.1-.8h0ZM317.2,455.9c-.7.2.2,1.2,1.3,1.3,3.3.3,4.7-2.2,4.8-2.6,0-.3.2-.9-.2-.8-1.1.4-2.8,1.1-5.9,2.1Z"/>
            <path class="cls-16" d="M303.1,417.5c0-.6.2-3.1,1.8-2.9,1.5.1,6.6,8.9,15.7,9.7,7,.6,6.9-14.9,9.8-15.5,1.7-.4,2.3,3,2.6,4.4.4-1,1.4-3.1,1.9-3.1,2.7.2,3.3,12.3,2.9,17.4-.4,5-2,13-7.2,13.7-2.9.4-3.9-1.2-3.9-1.2l-7.2.3c-1.6,3.4-6.3,8.4-14.3,7.6-10.7-1.1-11.9-9.4-11.9-15.1,0-5.3,2.5-8.3,4.5-9.3l.2-2.6c.1-1.7.9-3.6,1.9-3.6.8,0,2.3,1.9,3,2.9,0-.6,0-2,0-2.5h0Z"/>
            <path class="cls-44" d="M298.6,432.7c.3-2.4,1-7.2,9.1-7.4,4.9-.1,9,3.9,9,7.1v4.1c0,3.6-3.4,7.6-9.1,7.6s-7.6-3.4-8.3-4.8c-.9-1.8-.9-4.3-.6-6.7h0ZM327.5,428c0-4.9,1.5-7.9,4.4-9.1,2.5-1.1,3.3,1.7,3.3,4.9v2.9c0,3.6-1.1,9-3.9,10.2-3.1,1.4-3.8-1-3.8-2.7v-6.1h0Z"/>
            <path class="cls-50" d="M306.8,433c0-4.2,1.3-6,4.3-5.6,4.3.5,3.8,4.7,3.8,6.4,0,3.9-1.6,5.4-4,5.3-3.8-.2-4.1-3.1-4.1-6.1h0ZM328.5,428.4c0-4.2.9-5.8,2.3-5.8s1.7,3,1.7,4.6c0,3.9-1.3,5.2-2.4,5.2s-1.6-1.1-1.6-4h0Z"/>
            <path class="cls-44" d="M305.9,432.8c2.8,0,4-.9,4.3-3.1.1-.9-.1-2.8-1.4-3-2.1-.2-5.4,6-3,6.1h0ZM328.4,426.6c.7,0,1.2-1,1.2-2.2s-.2-1.3-.5-1.7c-.6-.1-1.5,3.9-.8,3.9Z"/>
            <path class="cls-16" d="M330.7,417.4c-3,1.4-4.2,8.7-8.6,9.9s-4.8-3.1-14.4-3.5c-7.2-.3-9,.5-10.7,2,4.2-3.7,11.5-2.8,25,1.6,7.9-9.9,9.6-11,13.9-10.6-.3-5.7,0-2-5.2.5h0ZM336.1,433.6s-1.7,5.7-13.1,5.4c-15.7,10.4-25.3,4.7-25.3,4.7,0,0,4,2,9.5,2s12.3-8.4,15.4-9.2,5.5,2.9,8.7,1.7c3.2-1.2,4.8-4.5,4.8-4.5h0Z"/>
            <path class="cls-16" d="M323,437.8c2,.2,3.5,1.9,3.3,3.9-.2,2-1.9,3.5-3.9,3.3-2-.2-3.5-1.9-3.3-3.9.2-2,1.9-3.5,3.9-3.3Z"/>
            <path class="cls-49" d="M323,437.5c1.2.1,2.1,1.2,2,2.4-.1,1.2-1.2,2.1-2.4,2-1.2-.1-2.1-1.2-2-2.4.1-1.2,1.2-2.1,2.4-2Z"/>
            <path class="cls-26" d="M321.6,438.7c1.2.1,2.2,1.2,2,2.4,0,.5,0,.9-1,.8-1,0-2.1-1.1-2-2.4,0-.3-.1-.9,1-.8h0Z"/>
            <path class="cls-19" d="M327.6,439.8c.1-1.8-1.8-3.3-4.3-3.2-3.1.2-4.6,3-4.7,4.2,0,.9,4.9,1.9,7.2,2.2.3,0,.8,0,1-.1.6-.8.7-1.9.8-3.1h0Z"/>
            <path class="cls-10" d="M323.2,438.7h0c-.5.1-1-.2-1.1-.6-.1-.5.2-1,.6-1.1.3,0,.8,0,1.2,0,.5,0,1,.2,1.5.5.4.2.6.8.3,1.2s-.8.6-1.2.3c-.2-.1-.5-.2-.8-.2-.1,0-.3,0-.4,0h-.2,0Z"/>
          </g>
          <path class="cls-45" d="M427.9,387.7h-69.9c-5.4,0-9.8,4.4-9.8,9.8v11.6c0,5.4,4.4,9.8,9.8,9.8h6.9c.5,0,1.1.2,1.5.6l6.3,6.3c.8.8,2.1.8,2.9,0l6.3-6.3c.4-.4.9-.6,1.5-.6h44.5c5.4,0,9.8-4.4,9.8-9.8v-11.6c0-5.4-4.4-9.8-9.8-9.8h0Z"/>
          <path class="cls-45" d="M420.7,347.6h-140c-5.4,0-9.8,4.4-9.8,9.8v11.6c0,5.4,4.4,9.8,9.8,9.8h43.9c.5,0,1.1.2,1.5.6l6.3,6.3c.8.8,2.1.8,2.9,0l6.3-6.3c.4-.4.9-.6,1.5-.6h77.5c5.4,0,9.8-4.4,9.8-9.8v-11.6c0-5.4-4.4-9.8-9.8-9.8h0Z"/>
        </g>
        <path class="cls-14" d="M90,412.2c-4.9,4-11.8,6.4-19.4,6.4-15,0-27.2-9.6-27.2-21.5s12.2-21.5,27.2-21.5,26.4,9,27.1,20.4c4.7-3.7,11.3-6,18.4-6,14.5,0,26.3,9.3,26.3,20.7s-11.8,20.7-26.3,20.7-25.3-8.5-26.2-19.4h0Z"/>
        <path class="cls-29" d="M110,391.9c0,4.9-3.4,8.8-7.5,8.8s-7.5-3.9-7.5-8.8,3.4-8.8,7.5-8.8,7.5,3.9,7.5,8.8Z"/>
        <path class="cls-50" d="M110.6,406.7h0c1.6.9,2.2,3,1.2,4.7l-1.3,2.3c-.9,1.6-3,2.2-4.6,1.3s-2.2-3-1.2-4.7l1.3-2.3c.9-1.6,3-2.2,4.6-1.3Z"/>
        <path class="cls-50" d="M119.6,409.4c-1.5,1.1-1.8,3.3-.7,4.8l1.5,2.1c1.1,1.5,3.2,1.9,4.7.7h0c1.5-1.1,1.8-3.3.7-4.8l-1.5-2.1c-1.1-1.5-3.2-1.9-4.7-.7Z"/>
        <path class="cls-50" d="M132.6,353.6c5.3,0,9.5,4.3,9.5,9.7s-4.3,9.7-9.5,9.7-9.5-4.3-9.5-9.7,4.3-9.7,9.5-9.7Z"/>
        <path class="cls-50" d="M122.7,346.4c5.5,0,9.9,4.5,9.9,10.1s-4.4,10.1-9.9,10.1-9.9-4.5-9.9-10.1,4.4-10.1,9.9-10.1Z"/>
        <path class="cls-50" d="M114.4,362.9c0,4.9-3.9,8.8-8.6,8.8s-8.6-3.9-8.6-8.8,3.9-8.8,8.6-8.8,8.6,3.9,8.6,8.8Z"/>
        <path class="cls-29" d="M136.3,386.7l-8.3,5.8,5.3,7.8c1.6,2.3,4.7,2.9,7,1.3s2.9-4.8,1.3-7.1l-5.3-7.8h0Z"/>
        <path class="cls-53" d="M116.4,349.7h2.9c9.8,0,17.8,7.9,17.8,18.1v29.3c0,8.5-8,18.1-17.8,18.1h-2.9c-9.8,0-17.8-8-17.8-18.1v-29.3c0-10.4,8-18.1,17.8-18.1Z"/>
        <path class="cls-6" d="M124.3,392.9c2.2-2.2,5.8-2.2,8,0,2.2,2.2,2.2,5.9,0,8.1s-5.8,2.2-8,0c-2.2-2.2-2.2-5.9,0-8.1ZM131.4,393.9c-1.7-1.7-4.4-1.7-6.1,0s-1.7,4.5,0,6.2,4.4,1.7,6.1,0,1.7-4.5,0-6.2Z"/>
        <path class="cls-48" d="M124.8,393.4c-1.9,2-1.9,5.2,0,7.1s5.1,2,7,0,1.9-5.2,0-7.1-5.1-2-7,0Z"/>
        <path class="cls-53" d="M137.1,395.6v1.4c0,8.5-8,18.1-17.8,18.1h-2.9c-9.8,0-17.8-8-17.8-18,2,2.9,6.9,7.6,17.3,8.1,11.3.5,18.4-6.1,21.2-9.5Z"/>
        <path class="cls-50" d="M99.5,402.8c-.6-1.8-.9-3.7-.9-5.7v-2.4c3.4,3.9,9.6,9.1,17.6,9.1s17.4-6.8,20.9-10.2v3.5c0,1.4-.2,2.9-.6,4.3-2.4,4.1-10.2,8.5-18.1,9-9,0-16.3-3.3-18.9-7.6h0Z"/>
        <path class="cls-53" d="M102.4,402.1v4.4c0,0,3.2,1.8,3.2,1.8v-4c0,0-3.2-2.1-3.2-2.1h0Z"/>
        <path class="cls-53" d="M123.4,406.3v4c0,0-3.7.4-3.7.4v-4.1c1.3-.1,3.5-.3,3.7-.3Z"/>
        <path class="cls-29" d="M98.6,396.9v-9.8c.5,3.2,2.8,10.5,13,12.1,9.6,1.1,16.1-2,20-5,.2-.1.4-.3.6-.5,3.1-2.6,4.6-4.9,4.9-6.1v8c-1,9.1-12.8,11.8-24.5,10.8-9.6-1.3-13.3-7.5-14-9.6h0Z"/>
        <path class="cls-53" d="M110.1,402.2l-3.5-5.1,4.1-.5,4,2-3.6,3.6c-.3.3-.8.3-1.1,0Z"/>
        <path class="cls-50" d="M117.6,358.4c4.8,0,10.2,2.3,12.3,4.9l-.2,5.1c.3,7.8,5.2,6.3,7.8,6v-6.4c0-11-8.6-20.3-19.3-20.3s-8.7,1.6-12,4.2c-4.6,3.6-7.5,9.3-7.5,15.7v3.2c0-5.1,2.2-9.1,2.2-9.1,0,0,7.5-3,16.8-3.3h0Z"/>
        <path class="cls-50" d="M109.8,341.4c6.3,0,11.4,5.2,11.4,11.6s-5.1,11.6-11.4,11.6-11.4-5.2-11.4-11.6,5.1-11.6,11.4-11.6Z"/>
        <path class="cls-50" d="M118.2,345.1s1.7,1.8,4.6,1.3c2.4.3-3.1,6-3.1,6l-4.9-6.8,3.5-.6h0Z"/>
        <path class="cls-53" d="M137,369.5c1.8,0,3.3,1.5,3.3,3.3s-1.5,3.3-3.3,3.3-3.3-1.5-3.3-3.3,1.5-3.3,3.3-3.3Z"/>
        <path class="cls-44" d="M104.7,376.1c2.2,1.5,4.1,2,5.8,2.5l-1.4,4.2c-6.2-.7-5.4-4.9-5.2-6.4,0-.2.6-.3.8-.2h0Z"/>
        <path class="cls-44" d="M120,379.6c0,1.3-.7,3.8-3.8,4.1-2,.2-3.7-.2-4-3.1s0-2.4,0-2.4c1.7.3,3.7.3,6.6.5.9-.3,1.1,0,1,.9h0Z"/>
        <path class="cls-50" d="M114.9,377.1c.9-.1,1.8.5,2,1.5v.5c.2,1-.5,1.9-1.4,2-.9.1-1.8-.5-2-1.5v-.5c-.2-1,.5-1.9,1.4-2Z"/>
        <path class="cls-50" d="M108.3,375.9c.9.3,1.5,1.2,1.2,2.2v.5c-.4.9-1.3,1.5-2.3,1.2-.9-.3-1.5-1.2-1.2-2.2v-.5c.4-.9,1.3-1.5,2.3-1.2Z"/>
        <path class="cls-12" d="M108.5,382.1l2.3,2,2-1.6h0c.2,0,.5.2.8.3,1.5.5,3.8,1.3,5.8,2.3,1.2.6,2.3,1.3,3.1,2.1.8.8,1.3,1.8,1.3,2.8,0,2-.8,3.3-1.8,4.1-1,.8-2.3,1.1-3.1,1.1s-2.6-.1-4.1-1h0c-.6-.4-1.7-1.1-2.7-1.6-.5-.3-.9-.6-1.3-.8-.2-.1-.3-.2-.4-.2h0c0,0,0,0,0,0,0,0-.2,0-.4.1-.4.1-.9.3-1.6.5-.3.1-.6.2-.9.4,0,0-.1,0-.2,0-.3.1-.7.3-1.1.4-.7.2-1.4.4-2.1.2-.9-.2-2.1-.6-2.9-1.4-.9-.8-1.4-2-1.2-3.7.2-2,1.8-3.4,3.5-4.3,1.6-.8,3.4-1.3,4.7-1.7.1,0,.3,0,.4-.1h0s0,0,0,0ZM110.3,391.5c0,0,0-.1,0-.1h.1c0,.1.2.2.4.3.3.2.8.5,1.3.8,1,.6,2.1,1.3,2.7,1.6,1.4.9,3.1,1,3.9,1s2-.3,2.9-1.1,1.7-2,1.7-3.9-.5-1.8-1.2-2.6-1.8-1.5-3-2.1c-2-1-4.2-1.8-5.7-2.3-.3,0-.5-.2-.7-.2l-2,1.6-2.4-2.1h-.3c-1.3.4-3.1.9-4.7,1.8-1.7.9-3.2,2.2-3.4,4.1-.2,1.7.3,2.8,1.1,3.5.8.7,1.9,1.1,2.8,1.3.6.1,1.3,0,2-.2.3-.1.7-.3,1-.4,0,0,.1,0,.2,0,.3-.1.6-.2.9-.4.7-.3,1.2-.4,1.6-.5.2,0,.3,0,.4-.1,0,0,0,0,.1,0h0c0,.1,0,.1,0,.1ZM110.3,391.5h0c0-.1,0-.1,0-.1h0s0,.1,0,.1h0Z"/>
        <path class="cls-50" d="M112.8,382.7c2.9,1,10.8,3.3,10.8,7.3s-3.2,5.1-4.8,5.1-2.5-.1-4-1c-1.2-.8-4.5-2.7-4.5-2.7,0,0-.8.1-2.2.7-1.4.5-2.8,1.4-4.2,1.1-1.9-.4-4.4-1.5-4-4.9.4-3.9,5.9-5.3,8.5-6l2.3,2,2-1.6h0Z"/>
        <path class="cls-12" d="M104.8,373.1c-.7-.6-1.7-.6-2.3,0-.7.7-.8,1.8,0,2.5.2.2.5.4.7.6.3.2.6.4,1.1.6.9.5,2.1,1,3.7,1.5,3.2.9,7.6,1.5,13.2.4.9-.2,1.5-1.1,1.3-2.1s-1.1-1.6-2-1.4c-4.9,1-8.8.5-11.5-.3-1.3-.4-2.4-.9-3.1-1.2-.3-.2-.6-.4-.8-.5-.1,0-.2-.1-.2-.1h0Z"/>
        <path class="cls-53" d="M110.5,381.2c1.4,0,2.6,1.2,2.6,2.6s-1.2,2.6-2.6,2.6-2.6-1.2-2.6-2.6,1.2-2.6,2.6-2.6Z"/>
        <path class="cls-22" d="M128.4,386.4l-.4,9.7c0,.5-.4.8-.8.8-.4,0-.8-.3-.8-.8l-.7-9.7c0-.5.3-.9.8-.9h1c.5,0,.9.4.8.9Z"/>
        <path class="cls-50" d="M127.4,386.6h-.7c-.5,0-1-.3-1.2-.7l-.9-2.5c-.5-1.5,0-3.2,1.2-3.3h1.9c1.3-.1,1.9,1.6,1.5,3.1l-.7,2.5c-.1.5-.6.8-1.1.8h0Z"/>
        <path class="cls-29" d="M129.3,382c0-1.1-.6-1.9-1.6-1.9h-1.9c-1.3.1-1.8,1.9-1.2,3.3l.2.6c.2.1.5.2.7.2h.3c.7,0,1.2-.6,1.2-1.3v-.6c.2.2.5.3.8.3h.4c.4,0,.8-.3,1-.7h0Z"/>
        <path class="cls-53" d="M98.7,367.4c0,.7,0,1.5,0,3.3s0,2.7,0,3.3c-.9,0-1.7-1.5-1.7-3.3s.7-3.3,1.7-3.3h0Z"/>
        <path class="cls-29" d="M131.9,393.6l-5.5,8,5.7,2.6c4.4,2,9.5-.7,10.3-5.5,0-.4.1-.8.1-1.1,0-3.1-5.8-3.4-5.6-1.2l-5-2.8h0Z"/>
        <path class="cls-29" d="M137.1,388.5l-1,4.4v6.3c-.1,0,2.1-.4,2.1-.4v-5.9c0,0-1.2-4.4-1.2-4.4h0Z"/>
        <path class="cls-53" d="M124.8,393.4c-1.9,2-1.9,5.2,0,7.1s5.1,2,7,0,1.9-5.2,0-7.1-5.1-2-7,0Z"/>
        <path class="cls-20" d="M50.8,384.1c0-3.3,2.6-6,5.9-6h24.9c3.2,0,5.9,2.7,5.9,6v15.8c0,1.3-1.1,2.4-2.3,2.4h-32c-1.3,0-2.3-1.1-2.3-2.4v-15.8Z"/>
        <path class="cls-20" d="M49.5,375.5c0-3.3,2.6-6,5.9-6h27.6c3.2,0,5.9,2.7,5.9,6v17.8h-39.4v-17.8Z"/>
        <rect class="cls-36" x="47.7" y="385.9" width="43.3" height="6.9"/>
        <path class="cls-36" d="M85.2,375.6h4.6c.7,0,1.2.5,1.2,1.2v10.9h-5.8v-12.1h0Z"/>
        <path class="cls-36" d="M47.7,376.8c0-.7.5-1.2,1.2-1.2h3.8c.7,0,1.2.5,1.2,1.2v9.7c0,.7-.5,1.2-1.2,1.2h-3.8c-.7,0-1.2-.5-1.2-1.2v-9.7Z"/>
        <path class="cls-36" d="M49.5,368.8c0-.7.5-1.2,1.2-1.2h6.2c.7,0,1.2.5,1.2,1.2v12.2h-8.5v-12.2Z"/>
        <path class="cls-36" d="M80.4,368.8c0-.7.5-1.2,1.2-1.2h6.2c.7,0,1.2.5,1.2,1.2v12.2h-8.5v-12.2Z"/>
        <path class="cls-56" d="M49.6,374.8l8.4-2.1v7.5h-8.4v-5.4h0Z"/>
        <path class="cls-53" d="M49.5,379.3h8.5v8.6h-8.5v-8.6Z"/>
        <path class="cls-53" d="M49.5,391.7c0-.7.5-1.2,1.2-1.2h6.2c.7,0,1.2.5,1.2,1.2v10.6c0,.7-.5,1.2-1.2,1.2h-6.2c-.7,0-1.2-.5-1.2-1.2v-10.6Z"/>
        <path class="cls-53" d="M79.6,391.7c0-.7.5-1.2,1.2-1.2h6.2c.7,0,1.2.5,1.2,1.2v10.6c0,.7-.5,1.2-1.2,1.2h-6.2c-.7,0-1.2-.5-1.2-1.2v-10.6Z"/>
        <rect class="cls-53" x="80.4" y="379.3" width="8.5" height="8.6"/>
        <rect class="cls-37" x="67.6" y="390.2" width="3.2" height="5.8"/>
        <rect class="cls-20" x="49.5" y="393.4" width="8.5" height="2.9"/>
        <rect class="cls-20" x="79.6" y="393.4" width="8.5" height="2.9"/>
        <rect class="cls-33" x="58" y="398.5" width="21.6" height="1.6"/>
        <rect class="cls-33" x="58" y="374.5" width="22.3" height="1.6"/>
        <rect class="cls-32" x="58" y="393.4" width="21.6" height="2.9"/>
        <rect class="cls-30" x="58" y="381.5" width="22.3" height="4.5"/>
        <path class="cls-53" d="M47.7,388h43.3v5.4c0,.7-.5,1.2-1.2,1.2h-40.9c-.7,0-1.2-.5-1.2-1.2v-5.4h0Z"/>
        <path class="cls-36" d="M64.6,383.3h8.8c1,0,1.8.8,1.8,1.8v7.3c0,1-.8,1.8-1.8,1.8h-8.8c-1,0-1.8-.8-1.8-1.8v-7.3c0-1,.8-1.8,1.8-1.8Z"/>
        <path class="cls-56" d="M65.6,383.3h-1c-1,0-1.8.8-1.8,1.8v7.3c0,1,.8,1.8,1.8,1.8h.6c.3,0,.6-.3.6-.6l-.2-7.5s0-2.7,0-2.7Z"/>
        <path class="cls-53" d="M64.6,386h8.8c1,0,1.8.8,1.8,1.8v7.1c0,1-.8,1.8-1.8,1.8h-8.8c-1,0-1.8-.8-1.8-1.8v-7.1c0-1,.8-1.8,1.8-1.8Z"/>
        <ellipse class="cls-52" cx="68.8" cy="390" rx="2.3" ry="2.1"/>
        <path class="cls-52" d="M68.3,391.2c.2-.4.8-.4,1.1,0l1.1,2.1c.2.4,0,.9-.5.9h-2.1c-.4,0-.7-.5-.5-.9l1.1-2.1h0Z"/>
        <path class="cls-56" d="M80.4,370.2l8.5-2.1v4.8l-8.5,2.1v-4.8Z"/>
        <rect class="cls-56" x="57.9" y="385.7" width="5" height="2.3"/>
        <path class="cls-56" d="M70.7,426.5c.4-2.4,10.7-4.4,12.9-1,1.2,1.9-.7,4.4.9,6.3,1.1,1.3,2.6.9,3.4,2.3.7,1.2.6,3.2-.4,3.8-1.7,1-4.2-4-9.3-4.2-2.4,0-3,1-5.6.6-2.9-.5-5.3-2.5-5-3.4.3-1,4-.2,4.5-1.5.3-1-1.5-1.8-1.3-2.8h0Z"/>
        <path class="cls-56" d="M89.9,424.6c-1.1.3-2.2,1.6-1.9,2.5.3.9,1.7,1.1,2.6,1,1.2-.2,2.5-1.2,2.4-2.1-.1-1-1.8-1.7-3.2-1.3h0Z"/>
        <path class="cls-56" d="M88.2,429.3c-.7.4-1.1,1.4-.8,2.1.4.9,2,.4,2.6,1.3.6,1-.6,2.1,0,3,.5.8,2,.8,3,.4,1.9-.8,2.9-3.6,2.1-4.9-.5-.8-1.1-.3-4.1-1.3-1.6-.5-2.2-.9-2.8-.6h0Z"/>
        <path class="cls-56" d="M136.3,410.9c1.4-2,4.3-2.6,5-1.8.4.5,0,1.6,1,2.8.1.2,1.1,1.4,2.2,1.3,1.2-.1,1.6-1.7,2.3-1.7,1.1,0,2.4,2.2,2,4.2,0,.3-.4,1.8-1.5,2.2-2,.6-3.5-3.6-6.8-3.7-2.2,0-3.3,2-4.3,1.3-1-.6-.9-3,.2-4.7h0Z"/>
        <path class="cls-56" d="M137.1,417.9c-.2-.3,1-1.7,2.7-2,1.2-.2,3.1,0,3.6,1.3.4,1.2-.8,2.8-1.7,2.8-.9,0-1.1-1.8-2.7-2.2-1-.2-1.8.3-1.9.1h0Z"/>
      </g>
    </g>
  </g>
</svg>