<?xml version="1.0" encoding="UTF-8"?>
<svg id="Ebene_1" xmlns="http://www.w3.org/2000/svg" version="1.1" viewBox="0 0 326.9 419.5">
  <!-- Generator: Adobe Illustrator 29.0.1, SVG Export Plug-In . SVG Version: 2.1.0 Build 192)  -->
  <defs>
    <style>
      .st0 {
        font-family: Nunito-ExtraBold, Nunito;
        font-size: 24px;
        font-weight: 700;
      }

      .st0, .st1 {
        fill: #fdb02a;
      }

      .st2 {
        fill: #8ebe21;
        opacity: .5;
      }

      .st3 {
        fill: #afafaf;
        isolation: isolate;
        opacity: .3;
      }

      .st4, .st5 {
        fill: #0395db;
      }

      .st6 {
        fill: #3cc0ff;
      }

      .st7 {
        stroke-width: 2px;
      }

      .st7, .st8, .st9, .st10 {
        fill: none;
      }

      .st7, .st9 {
        stroke: #884727;
      }

      .st7, .st9, .st10 {
        stroke-linecap: round;
      }

      .st11, .st12 {
        fill: #3d3d3d;
      }

      .st11, .st5, .st13 {
        fill-rule: evenodd;
      }

      .st8 {
        stroke: #68b32e;
        stroke-width: 1.7px;
      }

      .st8, .st14 {
        stroke-miterlimit: 10;
      }

      .st15 {
        fill: #4cc5ff;
      }

      .st16 {
        fill: #86401f;
      }

      .st9 {
        stroke-linejoin: round;
        stroke-width: 2px;
      }

      .st14 {
        fill: #ececec;
        stroke: #868686;
        stroke-width: 1.7px;
      }

      .st17 {
        fill: #fff;
      }

      .st10 {
        stroke: #995332;
        stroke-width: 1.1px;
      }

      .st18, .st13 {
        fill: #a46648;
      }

      .st19 {
        fill: #f8ae2d;
      }

      .st20 {
        fill: #884727;
      }

      .st21 {
        fill: #ff4b4b;
      }

      .st22 {
        fill: #68b32e;
      }

      .st23 {
        fill: #1cb0f6;
      }
    </style>
  </defs>
  <g>
    <rect class="st12" x="123.7" y="153.3" width="54.1" height="33.1"/>
    <path class="st12" d="M133.5,181.8c-4.7,4.5-12.2,4.3-16.8-.4l-12.9-13.5c-4.5-4.7-4.3-12.2.4-16.8l14.2-13.6c4.7-4.5,12.2-4.3,16.8.4l12.9,13.5c4.5,4.7,4.3,12.2-.4,16.8l-14.2,13.6Z"/>
    <path class="st12" d="M173.3,181.6c4.7,4.5,12.2,4.3,16.8-.4l12.9-13.5c4.5-4.7,4.3-12.2-.4-16.8l-14.2-13.6c-4.7-4.5-12.2-4.3-16.8.4l-12.9,13.5c-4.5,4.7-4.3,12.2.4,16.8l14.2,13.6Z"/>
    <path class="st12" d="M129.7,134.3c0-6.5,5.3-11.9,11.9-11.9h22.9c6.5,0,11.9,5.3,11.9,11.9v20.8c0,6.5-5.3,11.9-11.9,11.9h-22.9c-6.5,0-11.9-5.3-11.9-11.9v-20.8Z"/>
    <rect class="st1" x="139.3" y="242.8" width="26.8" height="15.6"/>
    <path class="st18" d="M178.6,182.5c5,0,9.1,4.1,9.1,9.1v41.5c0,5.9-4.8,10.7-10.7,10.7h-47.5c-5.9,0-10.7-4.8-10.7-10.7v-41.5c0-5,4.1-9.1,9.1-9.1h50.7Z"/>
    <rect class="st17" x="133.5" y="195.5" width="17.5" height="23" rx="8.8" ry="8.8"/>
    <rect class="st17" x="155.9" y="195.5" width="17.5" height="23" rx="8.8" ry="8.8"/>
    <path class="st11" d="M141.9,206.1c1.7,0,3.2-1.4,3.2-3.2s-.2-1.4-.7-1.9c.2,0,.5,0,.7,0,2.1,0,3.9,1.7,3.9,3.9v4.9c0,2.1-1.7,3.9-3.9,3.9s-3.9-1.7-3.9-3.9v-3.7c.2,0,.4,0,.7,0Z"/>
    <path class="st11" d="M158,206.1c1.7,0,3.2-1.4,3.2-3.2s-.2-1.3-.6-1.8c.4-.1.8-.2,1.3-.2,2.1,0,3.9,1.7,3.9,3.9v4.9c0,2.1-1.7,3.9-3.9,3.9s-3.9-1.7-3.9-3.9v-3.6h0Z"/>
    <path class="st16" d="M150.5,218.5c0,1.6,1.3,2.9,2.9,2.9s2.9-1.3,2.9-2.9-2.7-5.3-2.9-5.3-2.9,3.7-2.9,5.3Z"/>
    <path class="st1" d="M151.2,177.3c.6-7.3,7-12.7,14.3-12.1h0l-.3,3.7c-.6,7.3-7,12.7-14.3,12.1h0l.3-3.7Z"/>
    <path class="st1" d="M141.5,168.8c.6,7.3,7,12.7,14.3,12.1h0l-.3-3.7c-.6-7.3-7-12.7-14.3-12.1h0l.3,3.7Z"/>
    <rect class="st18" x="100.4" y="277.7" width="67.3" height="17.3" rx="8.7" ry="8.7" transform="translate(-181.2 309.7) rotate(-69.2)"/>
    <path class="st23" d="M136.2,366.2c-.4,1.9-2.1,3.2-4.1,3.2h-17.3c-2.8,0-4.8-2.6-4.1-5.3l20.6-78.4c1-3.9,4.5-6.6,8.5-6.6h13.1c2,0,3.5,1.9,3,3.8l-19.8,83.2Z"/>
    <path class="st23" d="M148,365.2c0,2.3,1.9,4.2,4.2,4.2h18.5c2.4,0,4.3-1.9,4.2-4.3l-2-79c-.1-4.8-4-8.6-8.8-8.6h-12c-2.3,0-4.2,1.9-4.2,4.2v83.5Z"/>
    <rect class="st21" x="136.8" y="273.4" width="31.9" height="6.7"/>
    <path class="st1" d="M131.7,267.5c0-9.6,7.8-17.4,17.4-17.4h8.9c9.6,0,17.4,7.8,17.4,17.4h0c0,3.8-3.1,6.8-6.8,6.8h-30c-3.8,0-6.8-3.1-6.8-6.8h0Z"/>
    <path class="st16" d="M152.1,216.3h2.6c1.6,0,2.9,1.3,2.9,2.9h0c0,1.6-1.3,2.9-2.9,2.9h-2.6c-1.6,0-2.9-1.3-2.9-2.9h0c0-1.6,1.3-2.9,2.9-2.9Z"/>
    <rect class="st21" x="152.7" y="374.2" width="25.8" height="8.3" rx="4.1" ry="4.1"/>
    <rect class="st21" x="101" y="374.2" width="25.8" height="8.3" rx="4.1" ry="4.1"/>
    <path class="st6" d="M145.1,280.1h6.7v18.1c0,1.1-.9,2-2,2h-2.7c-1.1,0-2-.9-2-2v-18.1Z"/>
    <path class="st1" d="M114.6,179.2h40v3.9l-36,19-4-22.9Z"/>
    <path class="st1" d="M191.7,179.2h-40v3.9l36,19,4-22.9Z"/>
    <rect class="st23" x="139.7" y="274.3" width="3.5" height="5.7"/>
    <rect class="st23" x="155.6" y="274.3" width="3.5" height="7"/>
    <path class="st18" d="M149.4,221.3c-3-5-10.4-6.9-17.4-5l1.5,5c6.7,1.4,18.3,4,15.9,0Z"/>
    <path class="st7" d="M142.8,223.1c1.2,2.2,3.9,5.1,9.5,5.1"/>
    <circle class="st18" cx="118.8" cy="209.7" r="7.8"/>
    <path class="st18" d="M130.7,203.4c0-4.9,4-8.8,8.8-8.8h27c4.9,0,8.8,4,8.8,8.8v6.2h-44.7v-6.2Z"/>
    <path class="st20" d="M157.2,201h11.5c.9,0,1.6.7,1.6,1.6h0c0,.9-.7,1.6-1.6,1.6h-11.5c-.9,0-1.6-.7-1.6-1.6h0c0-.9.7-1.6,1.6-1.6Z"/>
    <path class="st9" d="M150.7,198.8c-1.9-1.5-7.2-3.8-13-1.3"/>
    <circle class="st18" cx="187.3" cy="209.4" r="7.8"/>
    <path class="st4" d="M148.9,304.5h0c0,.4-.4.8-.8.8h-2.6c-.4,0-.8-.4-.8-.8h0c0-.4.4-.8.8-.8h2.6c.4,0,.8.4.8.8Z"/>
    <path class="st15" d="M146.1,359.3c0-.7.6-1.4,1.3-1.4h28c.7,0,1.3.6,1.3,1.3l.3,10.4c0,.7-.6,1.4-1.3,1.4h-28c-.7,0-1.3-.6-1.3-1.3l-.3-10.4Z"/>
    <path class="st15" d="M110.1,358.9c.1-.6.7-1,1.3-1h27.5c.9,0,1.5.8,1.3,1.6l-2.6,10.4c-.1.6-.7,1-1.3,1h-27.5c-.9,0-1.5-.8-1.3-1.6l2.6-10.4Z"/>
    <path id="Armfalte" class="st10" d="M168.4,269.9c.8-.8,2.9-2.5,5.1-2.9"/>
    <path class="st5" d="M148.6,313.2l-2.2,10.8.7-19.4c0-.5.4-.9.9-.9.5,0,.9.4.9.9l-.3,8.6Z"/>
    <rect class="st3" x="77" y="386.5" width="128" height="8.2" rx="4.1" ry="4.1"/>
  </g>
  <rect id="Oberarm" class="st18" x="166.3" y="246.5" width="17.3" height="34.1" rx="8.7" ry="8.7" transform="translate(-125.2 363.5) rotate(-74.8)"/>
  <path id="Unterarm" class="st18" d="M176.6,260.6l-10.1,11.8c-3.1,3.6-2.6,9,1,12.1h0c3.6,3.1,9,2.6,12.1-1l10.1-11.8c3.1-3.6,2.6-9-1-12.1h0c-3.6-3.1-9-2.6-12.1,1Z"/>
  <rect id="Hand" class="st18" x="168.7" y="271.7" width="12.5" height="20.4" rx="6.2" ry="6.2" transform="translate(-156.3 262.7) rotate(-54.9)"/>
  <g id="neuer_Arm">
    <path class="st13" d="M216,211.4c-1.5-1.7-1.3-4.2.3-5.7l16.8-14.9c1.7-1.5,4.2-1.3,5.7.3s1.3,4.2-.3,5.7l-16.8,14.9c-1.7,1.5-4.2,1.3-5.7-.3Z"/>
    <path class="st13" d="M232.7,202.7c3.1,3.5,2.8,8.9-.7,12l-59.2,52.2c-3.5,3.1-8.9,2.8-12-.7-3.1-3.5-2.8-8.9.7-12l59.2-52.2c3.6-3,8.9-2.8,12,.7Z"/>
  </g>
  <g id="weg_rechts_grün">
    <rect class="st2" x="213.1" y="66.2" width="68.6" height="68.6" rx="21.1" ry="21.1" transform="translate(494.8 201) rotate(180)"/>
    <rect class="st8" x="213.4" y="65.9" width="68.6" height="68.6" rx="21.1" ry="21.1" transform="translate(495.3 200.5) rotate(180)"/>
    <path class="st22" d="M267.1,79.9l-1-1.8-1.6.9-1.2-2.2,1.6-.8-.6-1.1c-.9-1.6-3-2.2-4.6-1.3l-15.4,8.5c-7.3,4-11.9,11.8-11.9,20.1v22.4c0,1.9,1.5,3.4,3.4,3.4h1.4v-1.6s2.5,0,2.5,0v1.6h1.9c1.9,0,3.4-1.5,3.4-3.4v-22.4c0-3.8,2.1-7.3,5.4-9.1l15.4-8.5c1.6-.9,2.2-3,1.3-4.6ZM236.9,107.5h2.5s0,4.7,0,4.7h-2.5s0-4.7,0-4.7ZM237.1,121.7v-4.7c0,0,2.4,0,2.4,0v4.7c0,0-2.4,0-2.4,0ZM239.4,102.8h-2.5c0-1.8.4-3.5.8-5.1l2.4.7c-.4,1.4-.7,2.9-.7,4.4ZM241.9,94.4l-2.2-1.3c.8-1.5,1.9-2.8,3-4l1.8,1.7c-1,1.1-1.9,2.3-2.7,3.5ZM248.7,87.5c-.2.1-.5.3-.8.5l-1.4-2.1c.3-.2.6-.4.9-.5l3.3-1.8,1.2,2.2-3.3,1.8ZM256.2,83.5l-1.2-2.2,4.2-2.2,1.2,2.2-4.2,2.2Z"/>
  </g>
  <g id="weg_rechts">
    <rect class="st14" x="213.1" y="65.6" width="68.9" height="68.9" rx="21.1" ry="21.1" transform="translate(495.2 200.1) rotate(180)"/>
    <path class="st19" d="M267.4,79.4l-1-1.8-1.6.9-1.2-2.2,1.6-.8-.6-1.1c-.9-1.7-3-2.3-4.6-1.3l-15.5,8.5c-7.4,4.1-12,11.8-12,20.2v22.5c0,1.9,1.5,3.4,3.4,3.4h1.4v-1.6s2.5,0,2.5,0v1.6h1.9c1.9,0,3.4-1.5,3.4-3.4v-22.5c0-3.8,2.1-7.3,5.4-9.2l15.5-8.5c1.7-.9,2.3-3,1.3-4.6ZM237,107.1h2.5s0,4.7,0,4.7h-2.5s0-4.7,0-4.7ZM237.2,121.3v-4.8c0,0,2.5,0,2.5,0v4.8c0,0-2.5,0-2.5,0ZM239.5,102.3h-2.5c0-1.8.4-3.5.8-5.1l2.4.7c-.4,1.4-.7,2.9-.7,4.4ZM242,93.9l-2.2-1.3c.8-1.5,1.9-2.8,3-4l1.8,1.7c-1,1.1-1.9,2.3-2.7,3.6ZM248.9,87c-.2.1-.5.3-.8.5l-1.4-2.1c.3-.2.6-.4.9-.5l3.3-1.8,1.2,2.2-3.3,1.8ZM256.4,83l-1.2-2.2,4.2-2.3,1.2,2.2-4.2,2.3Z"/>
  </g>
  <g id="weg_links">
    <rect class="st14" x="24.4" y="65.6" width="68.9" height="68.9" rx="21.1" ry="21.1"/>
    <path class="st19" d="M39,79.4l1-1.8,1.6.9,1.2-2.2-1.6-.8.6-1.1c.9-1.7,3-2.3,4.6-1.3l15.5,8.5c7.4,4.1,12,11.8,12,20.2v22.5c0,1.9-1.5,3.4-3.4,3.4h-1.4v-1.6s-2.5,0-2.5,0v1.6h-1.9c-1.9,0-3.4-1.5-3.4-3.4v-22.5c0-3.8-2.1-7.3-5.4-9.2l-15.5-8.5c-1.7-.9-2.3-3-1.3-4.6ZM69.4,107.1h-2.5s0,4.7,0,4.7h2.5s0-4.7,0-4.7ZM69.2,121.3v-4.8c0,0-2.5,0-2.5,0v4.8c0,0,2.5,0,2.5,0ZM66.9,102.3h2.5c0-1.8-.4-3.5-.8-5.1l-2.4.7c.4,1.4.7,2.9.7,4.4ZM64.4,93.9l2.2-1.3c-.8-1.5-1.9-2.8-3-4l-1.8,1.7c1,1.1,1.9,2.3,2.7,3.6ZM57.5,87c.2.1.5.3.8.5l1.4-2.1c-.3-.2-.6-.4-.9-.5l-3.3-1.8-1.2,2.2,3.3,1.8ZM50,83l1.2-2.2-4.2-2.3-1.2,2.2,4.2,2.3Z"/>
  </g>
  <text class="st0" transform="translate(28.3 40)"><tspan x="0" y="0">autonomy</tspan></text>
</svg>