<?xml version="1.0" encoding="UTF-8"?>
<svg xmlns="http://www.w3.org/2000/svg" version="1.1" viewBox="0 0 1024 1280">
  <defs>
    <style>
      .cls-1 {
        stroke: #e5e5e5;
        stroke-miterlimit: 10;
        stroke-width: 5px;
      }

      .cls-1, .cls-2 {
        fill: #fff;
      }

      .cls-3 {
        fill: #e5e5e5;
      }

      .cls-4 {
        isolation: isolate;
      }

      .cls-5 {
        fill: #ff9600;
      }
    </style>
  </defs>
  <!-- Generator: Adobe Illustrator 28.7.4, SVG Export Plug-In . SVG Version: 1.2.0 Build 166)  -->
  <g>
    <g id="Ebene_1">
      <rect class="cls-1" x="211.4" y="365.7" width="531.2" height="105.5" rx="28.3" ry="28.3"/>
      <rect class="cls-1" x="211.4" y="497.5" width="531.2" height="105.5" rx="28.3" ry="28.3"/>
      <g class="cls-4">
        <g class="cls-4">
          <path class="cls-3" d="M319.9,429.2c-1.8,0-3.4-.4-4.8-1.1-1.3-.7-2.4-1.8-3.1-3.2-.7-1.4-1.1-3-1.1-4.9s.2-2.7.6-3.8c.4-1.1,1-2.1,1.8-2.9.8-.8,1.7-1.4,2.8-1.8,1.1-.4,2.3-.6,3.7-.6s3.4.4,4.8,1.1c1.3.7,2.4,1.8,3.1,3.2.7,1.4,1.1,3,1.1,4.9s-.2,2.7-.6,3.8-1,2.1-1.8,2.9c-.8.8-1.7,1.4-2.8,1.8-1.1.4-2.3.6-3.7.6ZM319.9,425.7c.9,0,1.7-.2,2.3-.6.7-.4,1.2-1.1,1.6-1.9s.6-1.9.6-3.2c0-1.9-.4-3.4-1.2-4.3-.8-.9-1.9-1.4-3.2-1.4s-1.7.2-2.3.6-1.2,1.1-1.6,1.9-.6,1.9-.6,3.2c0,1.9.4,3.3,1.2,4.3.8,1,1.9,1.5,3.2,1.5Z"/>
          <path class="cls-3" d="M334.8,435.6c-.7,0-1.3-.2-1.7-.6-.4-.4-.6-.9-.6-1.7v-20.1c0-.7.2-1.3.6-1.7.4-.4.9-.6,1.6-.6s1.3.2,1.7.6c.4.4.6.9.6,1.7v2.8l-.4-1.1c.4-1.2,1.1-2.2,2.2-3,1.1-.7,2.4-1.1,3.9-1.1s2.9.4,4,1.1c1.2.7,2.1,1.8,2.7,3.1.6,1.4,1,3,1,4.9s-.3,3.5-1,4.9c-.6,1.4-1.5,2.4-2.7,3.2s-2.5,1.1-4.1,1.1-2.7-.4-3.9-1.1c-1.1-.7-1.8-1.7-2.2-2.9h.4v8.1c0,.7-.2,1.3-.6,1.7-.4.4-1,.6-1.7.6ZM341.5,425.7c.9,0,1.7-.2,2.3-.6s1.2-1.1,1.6-1.9c.4-.9.6-1.9.6-3.2,0-1.9-.4-3.4-1.2-4.3-.8-.9-1.9-1.4-3.2-1.4s-1.7.2-2.3.6c-.7.4-1.2,1.1-1.6,1.9-.4.9-.6,1.9-.6,3.2,0,1.9.4,3.3,1.2,4.3.8,1,1.9,1.5,3.2,1.5Z"/>
          <path class="cls-3" d="M362.9,429.2c-2,0-3.7-.4-5.1-1.1s-2.6-1.8-3.3-3.2c-.8-1.4-1.2-3-1.2-4.9s.4-3.4,1.1-4.8,1.8-2.4,3.1-3.2c1.3-.8,2.8-1.2,4.6-1.2s2.4.2,3.4.6c1,.4,1.8,1,2.6,1.8.7.8,1.2,1.7,1.6,2.8.4,1.1.6,2.3.6,3.7s-.2.8-.5,1c-.3.2-.7.3-1.3.3h-11.6v-2.6h10.1l-.6.5c0-1.1-.2-2-.5-2.8-.3-.7-.8-1.3-1.4-1.7-.6-.4-1.4-.6-2.3-.6s-1.9.2-2.6.7c-.7.5-1.2,1.1-1.6,2s-.6,1.9-.6,3v.3c0,2,.5,3.4,1.4,4.4.9,1,2.3,1.5,4.1,1.5s1.3,0,2.1-.2c.8-.2,1.5-.4,2.2-.8.5-.3.9-.4,1.3-.4.4,0,.7.2.9.4.2.2.4.5.4.9,0,.3,0,.7-.2,1.1s-.5.7-.9.9c-.8.5-1.8.9-2.9,1.2-1.1.3-2.1.4-3,.4Z"/>
          <path class="cls-3" d="M376,429.1c-.7,0-1.3-.2-1.7-.6-.4-.4-.6-1-.6-1.7v-13.6c0-.7.2-1.3.6-1.7.4-.4.9-.6,1.6-.6s1.2.2,1.6.6c.4.4.6.9.6,1.7v2.3h-.4c.3-1.4,1-2.5,2-3.3,1-.7,2.3-1.2,3.9-1.3.5,0,.9,0,1.2.4.3.3.5.8.5,1.4,0,.6,0,1.1-.4,1.5-.3.4-.8.6-1.5.7h-.8c-1.5.2-2.6.7-3.3,1.4-.7.8-1.1,1.8-1.1,3.2v7.5c0,.7-.2,1.3-.6,1.7-.4.4-.9.6-1.7.6Z"/>
          <path class="cls-3" d="M393.4,429.2c-1.3,0-2.4-.2-3.4-.7-1-.5-1.8-1.2-2.3-2-.6-.8-.8-1.8-.8-2.8s.3-2.3,1-3.1c.7-.8,1.8-1.3,3.3-1.6s3.5-.5,6.1-.5h1.8v2.6h-1.8c-1.5,0-2.7,0-3.6.2-.9.1-1.5.4-1.9.7-.4.3-.6.8-.6,1.5s.3,1.4.8,1.9c.6.5,1.3.8,2.3.8s1.5-.2,2.1-.6c.6-.4,1.1-.9,1.5-1.5.4-.6.5-1.4.5-2.2v-4.1c0-1.2-.3-2.1-.8-2.6-.5-.5-1.4-.8-2.7-.8s-1.4,0-2.2.3c-.8.2-1.7.5-2.5.9-.5.2-.9.3-1.2.2-.3,0-.6-.3-.8-.6-.2-.3-.3-.6-.3-1s0-.7.3-1.1c.2-.3.5-.6,1-.8,1.1-.5,2.2-.8,3.2-1,1-.2,1.9-.3,2.8-.3,1.7,0,3.2.3,4.3.8,1.1.5,1.9,1.3,2.5,2.4.6,1.1.8,2.4.8,4.1v8.6c0,.7-.2,1.3-.5,1.7-.4.4-.9.6-1.5.6s-1.2-.2-1.6-.6c-.4-.4-.6-1-.6-1.7v-1.7h.3c-.2.8-.5,1.6-1,2.2-.5.6-1.1,1.1-1.9,1.4-.7.3-1.6.5-2.6.5Z"/>
          <path class="cls-3" d="M409.5,429.1c-.7,0-1.3-.2-1.7-.6-.4-.4-.6-1-.6-1.7v-13.6c0-.7.2-1.3.6-1.7.4-.4.9-.6,1.6-.6s1.2.2,1.6.6c.4.4.6.9.6,1.7v2.4l-.4-.9c.5-1.3,1.4-2.2,2.5-2.9,1.1-.7,2.4-1,3.8-1s2.6.3,3.5.8c.9.5,1.6,1.3,2.1,2.4.5,1.1.7,2.4.7,4.1v8.7c0,.7-.2,1.3-.6,1.7-.4.4-.9.6-1.7.6s-1.3-.2-1.7-.6c-.4-.4-.6-1-.6-1.7v-8.5c0-1.4-.3-2.4-.8-3-.5-.6-1.3-.9-2.4-.9s-2.4.4-3.2,1.2-1.2,1.9-1.2,3.3v7.9c0,1.5-.8,2.3-2.3,2.3Z"/>
          <path class="cls-3" d="M436.4,429.2c-1.6,0-2.9-.3-3.9-.8-1-.5-1.8-1.3-2.3-2.3-.5-1-.8-2.3-.8-3.8v-7.7h-1.9c-.6,0-1-.1-1.3-.5-.3-.3-.5-.7-.5-1.2s.2-1,.5-1.3c.3-.3.8-.4,1.3-.4h1.9v-3.3c0-.7.2-1.3.6-1.7.4-.4,1-.6,1.7-.6s1.3.2,1.7.6c.4.4.6.9.6,1.7v3.3h3.8c.6,0,1,.1,1.3.4.3.3.5.7.5,1.3s-.2.9-.5,1.2c-.3.3-.8.5-1.3.5h-3.8v7.4c0,1.2.3,2,.8,2.6.5.6,1.3.9,2.4.9s.8,0,1.1-.1c.3,0,.6-.1.8-.1.3,0,.5,0,.7.3.2.2.3.6.3,1.2s0,.9-.2,1.3c-.2.4-.4.6-.8.8-.3,0-.7.2-1.2.3-.5,0-.9.1-1.3.1Z"/>
          <path class="cls-3" d="M460.1,429.2c-1.8,0-3.5-.4-4.8-1.1-1.4-.8-2.4-1.8-3.2-3.2-.7-1.4-1.1-3-1.1-4.9s.2-2.7.6-3.8c.4-1.1,1-2.1,1.8-2.8.8-.8,1.8-1.4,2.9-1.8,1.1-.4,2.4-.6,3.8-.6s1.6.1,2.6.3c.9.2,1.8.6,2.6,1.1.4.2.6.5.8.9.1.3.1.7,0,1,0,.3-.2.6-.4.9-.2.3-.5.4-.8.5-.3,0-.7,0-1.1-.2-.5-.3-1.1-.5-1.6-.7-.6-.2-1.1-.2-1.6-.2-.8,0-1.5.1-2.1.4-.6.3-1.1.6-1.5,1.1-.4.5-.7,1-1,1.7-.2.7-.3,1.5-.3,2.4,0,1.8.4,3.2,1.3,4.2.9,1,2.1,1.5,3.6,1.5s1,0,1.6-.2c.5-.1,1.1-.4,1.6-.7.4-.2.8-.3,1.1-.2.3,0,.6.2.8.5.2.3.3.6.4.9,0,.3,0,.7-.1,1-.1.3-.4.6-.7.8-.8.5-1.6.8-2.5,1-.9.2-1.7.3-2.5.3Z"/>
          <path class="cls-3" d="M476.6,429.2c-1.8,0-3.4-.4-4.8-1.1-1.3-.7-2.4-1.8-3.1-3.2-.7-1.4-1.1-3-1.1-4.9s.2-2.7.6-3.8c.4-1.1,1-2.1,1.8-2.9.8-.8,1.7-1.4,2.8-1.8,1.1-.4,2.3-.6,3.7-.6s3.4.4,4.8,1.1c1.3.7,2.4,1.8,3.1,3.2.7,1.4,1.1,3,1.1,4.9s-.2,2.7-.6,3.8-1,2.1-1.8,2.9c-.8.8-1.7,1.4-2.8,1.8-1.1.4-2.3.6-3.7.6ZM476.6,425.7c.9,0,1.7-.2,2.3-.6.7-.4,1.2-1.1,1.6-1.9s.6-1.9.6-3.2c0-1.9-.4-3.4-1.2-4.3-.8-.9-1.9-1.4-3.2-1.4s-1.7.2-2.3.6-1.2,1.1-1.6,1.9-.6,1.9-.6,3.2c0,1.9.4,3.3,1.2,4.3.8,1,1.9,1.5,3.2,1.5Z"/>
          <path class="cls-3" d="M491.5,429.1c-.7,0-1.3-.2-1.7-.6-.4-.4-.6-1-.6-1.7v-13.6c0-.7.2-1.3.6-1.7.4-.4.9-.6,1.6-.6s1.2.2,1.6.6c.4.4.6.9.6,1.7v2.4l-.4-.9c.5-1.3,1.4-2.2,2.5-2.9,1.1-.7,2.4-1,3.8-1s2.6.3,3.5.8c.9.5,1.6,1.3,2.1,2.4.5,1.1.7,2.4.7,4.1v8.7c0,.7-.2,1.3-.6,1.7-.4.4-.9.6-1.7.6s-1.3-.2-1.7-.6c-.4-.4-.6-1-.6-1.7v-8.5c0-1.4-.3-2.4-.8-3-.5-.6-1.3-.9-2.4-.9s-2.4.4-3.2,1.2-1.2,1.9-1.2,3.3v7.9c0,1.5-.8,2.3-2.3,2.3Z"/>
          <path class="cls-3" d="M517.1,429.2c-1.5,0-2.9-.4-4-1.1-1.2-.7-2.1-1.8-2.7-3.2-.6-1.4-1-3-1-4.9s.3-3.5,1-4.9c.6-1.4,1.6-2.4,2.7-3.1,1.2-.7,2.5-1.1,4-1.1s2.7.4,3.8,1.1,1.8,1.7,2.2,2.8h-.4v-9.4c0-.7.2-1.3.6-1.7.4-.4.9-.6,1.7-.6s1.3.2,1.7.6.6.9.6,1.7v21.4c0,.7-.2,1.3-.6,1.7-.4.4-.9.6-1.7.6s-1.3-.2-1.7-.6c-.4-.4-.6-1-.6-1.7v-2.8l.4,1.1c-.4,1.2-1.1,2.2-2.2,3-1.1.7-2.4,1.1-3.9,1.1ZM518.4,425.7c.9,0,1.7-.2,2.3-.6.7-.4,1.2-1.1,1.6-1.9.4-.9.6-1.9.6-3.2,0-1.9-.4-3.4-1.2-4.3-.8-.9-1.9-1.4-3.2-1.4s-1.7.2-2.3.6-1.2,1.1-1.6,1.9-.6,1.9-.6,3.2c0,1.9.4,3.3,1.2,4.3.8,1,1.9,1.5,3.2,1.5Z"/>
          <path class="cls-3" d="M534.2,407.6c-.8,0-1.5-.2-2-.6-.5-.4-.7-1-.7-1.7s.2-1.4.7-1.8c.5-.4,1.1-.6,2-.6s1.5.2,2,.6.7,1,.7,1.8-.2,1.3-.7,1.7-1.1.6-2,.6ZM534.2,429.1c-.7,0-1.3-.2-1.7-.6-.4-.4-.6-1-.6-1.8v-13.2c0-.8.2-1.4.6-1.8.4-.4.9-.6,1.7-.6s1.3.2,1.7.6.6,1,.6,1.8v13.2c0,.8-.2,1.4-.6,1.8-.4.4-.9.6-1.7.6Z"/>
          <path class="cls-3" d="M549.2,429.2c-1.6,0-2.9-.3-3.9-.8-1-.5-1.8-1.3-2.3-2.3-.5-1-.8-2.3-.8-3.8v-7.7h-1.9c-.6,0-1-.1-1.3-.5-.3-.3-.5-.7-.5-1.2s.2-1,.5-1.3.8-.4,1.3-.4h1.9v-3.3c0-.7.2-1.3.6-1.7.4-.4,1-.6,1.7-.6s1.3.2,1.7.6c.4.4.6.9.6,1.7v3.3h3.8c.6,0,1,.1,1.3.4.3.3.5.7.5,1.3s-.2.9-.5,1.2c-.3.3-.8.5-1.3.5h-3.8v7.4c0,1.2.3,2,.8,2.6s1.3.9,2.4.9.8,0,1.1-.1c.3,0,.6-.1.8-.1.3,0,.5,0,.7.3.2.2.3.6.3,1.2s0,.9-.2,1.3c-.2.4-.4.6-.8.8-.3,0-.7.2-1.2.3-.5,0-.9.1-1.3.1Z"/>
          <path class="cls-3" d="M557.7,407.6c-.8,0-1.5-.2-2-.6-.5-.4-.7-1-.7-1.7s.2-1.4.7-1.8c.5-.4,1.1-.6,2-.6s1.5.2,2,.6.7,1,.7,1.8-.2,1.3-.7,1.7-1.1.6-2,.6ZM557.7,429.1c-.7,0-1.3-.2-1.7-.6-.4-.4-.6-1-.6-1.8v-13.2c0-.8.2-1.4.6-1.8.4-.4.9-.6,1.7-.6s1.3.2,1.7.6.6,1,.6,1.8v13.2c0,.8-.2,1.4-.6,1.8-.4.4-.9.6-1.7.6Z"/>
          <path class="cls-3" d="M572.7,429.2c-1.8,0-3.4-.4-4.8-1.1-1.3-.7-2.4-1.8-3.1-3.2-.7-1.4-1.1-3-1.1-4.9s.2-2.7.6-3.8,1-2.1,1.8-2.9c.8-.8,1.7-1.4,2.8-1.8,1.1-.4,2.3-.6,3.7-.6s3.4.4,4.8,1.1c1.3.7,2.4,1.8,3.1,3.2s1.1,3,1.1,4.9-.2,2.7-.6,3.8-1,2.1-1.8,2.9c-.8.8-1.7,1.4-2.8,1.8-1.1.4-2.3.6-3.7.6ZM572.7,425.7c.9,0,1.7-.2,2.3-.6.7-.4,1.2-1.1,1.6-1.9.4-.9.6-1.9.6-3.2,0-1.9-.4-3.4-1.2-4.3-.8-.9-1.9-1.4-3.2-1.4s-1.7.2-2.3.6-1.2,1.1-1.6,1.9-.6,1.9-.6,3.2c0,1.9.4,3.3,1.2,4.3.8,1,1.9,1.5,3.2,1.5Z"/>
          <path class="cls-3" d="M587.6,429.1c-.7,0-1.3-.2-1.7-.6-.4-.4-.6-1-.6-1.7v-13.6c0-.7.2-1.3.6-1.7s.9-.6,1.6-.6,1.2.2,1.6.6c.4.4.6.9.6,1.7v2.4l-.4-.9c.5-1.3,1.3-2.2,2.5-2.9,1.1-.7,2.4-1,3.8-1s2.6.3,3.5.8c.9.5,1.6,1.3,2.1,2.4.5,1.1.7,2.4.7,4.1v8.7c0,.7-.2,1.3-.6,1.7-.4.4-.9.6-1.7.6s-1.3-.2-1.7-.6-.6-1-.6-1.7v-8.5c0-1.4-.3-2.4-.8-3-.5-.6-1.3-.9-2.4-.9s-2.4.4-3.2,1.2c-.8.8-1.2,1.9-1.2,3.3v7.9c0,1.5-.8,2.3-2.3,2.3Z"/>
          <path class="cls-3" d="M608.7,407.6c-.8,0-1.5-.2-2-.6s-.7-1-.7-1.7.2-1.4.7-1.8,1.1-.6,2-.6,1.5.2,2,.6c.5.4.7,1,.7,1.8s-.2,1.3-.7,1.7c-.5.4-1.1.6-2,.6ZM608.7,429.1c-.7,0-1.3-.2-1.7-.6-.4-.4-.6-1-.6-1.8v-13.2c0-.8.2-1.4.6-1.8.4-.4.9-.6,1.7-.6s1.3.2,1.7.6.6,1,.6,1.8v13.2c0,.8-.2,1.4-.6,1.8-.4.4-.9.6-1.7.6Z"/>
          <path class="cls-3" d="M617.8,429.1c-.7,0-1.3-.2-1.7-.6-.4-.4-.6-1-.6-1.7v-13.6c0-.7.2-1.3.6-1.7.4-.4.9-.6,1.6-.6s1.2.2,1.6.6c.4.4.6.9.6,1.7v2.4l-.4-.9c.5-1.3,1.3-2.2,2.5-2.9s2.4-1,3.8-1,2.6.3,3.5.8c.9.5,1.6,1.3,2.1,2.4.5,1.1.7,2.4.7,4.1v8.7c0,.7-.2,1.3-.6,1.7-.4.4-.9.6-1.7.6s-1.3-.2-1.7-.6c-.4-.4-.6-1-.6-1.7v-8.5c0-1.4-.3-2.4-.8-3s-1.3-.9-2.4-.9-2.4.4-3.2,1.2-1.2,1.9-1.2,3.3v7.9c0,1.5-.8,2.3-2.3,2.3Z"/>
          <path class="cls-3" d="M644.9,435.6c-1.3,0-2.5-.1-3.8-.4-1.2-.2-2.3-.6-3.3-1.1-.5-.2-.8-.5-.9-.9-.2-.3-.2-.7-.1-1s.2-.7.4-.9c.2-.3.5-.4.8-.5s.7,0,1,.1c1.1.5,2.1.9,3,1s1.8.2,2.4.2c1.6,0,2.8-.4,3.6-1.2.8-.8,1.2-1.9,1.2-3.5v-3.2h.3c-.4,1.2-1.1,2.2-2.2,2.9-1.1.7-2.4,1.1-3.9,1.1s-3-.4-4.1-1.1c-1.2-.7-2.1-1.8-2.7-3.1-.6-1.3-1-2.9-1-4.6s.2-2.5.6-3.6c.4-1.1.9-2,1.6-2.8.7-.8,1.5-1.4,2.5-1.8s2-.6,3.2-.6,2.8.4,3.9,1.1c1.1.7,1.8,1.7,2.2,2.9l-.4.9v-2.6c0-.7.2-1.3.6-1.7.4-.4.9-.6,1.6-.6s1.3.2,1.7.6c.4.4.6.9.6,1.7v13.9c0,2.9-.8,5-2.3,6.4-1.5,1.4-3.7,2.2-6.6,2.2ZM644.8,424.9c.9,0,1.7-.2,2.4-.6s1.2-1,1.6-1.9c.4-.8.6-1.8.6-2.9,0-1.7-.4-3-1.2-3.9-.8-.9-1.9-1.4-3.3-1.4s-1.7.2-2.4.6c-.7.4-1.2,1-1.6,1.8s-.6,1.7-.6,2.8c0,1.7.4,3,1.2,3.9.8,1,1.9,1.4,3.3,1.4Z"/>
        </g>
      </g>
      <g class="cls-4">
        <g class="cls-4">
          <path class="cls-3" d="M351.5,561.1c-1.5,0-2.9-.4-4-1.1-1.2-.7-2.1-1.8-2.7-3.2-.6-1.4-1-3-1-4.9s.3-3.5,1-4.9c.6-1.4,1.6-2.4,2.7-3.1,1.2-.7,2.5-1.1,4-1.1s2.7.4,3.8,1.1c1.1.7,1.8,1.7,2.2,2.8h-.4v-9.4c0-.7.2-1.3.6-1.7.4-.4.9-.6,1.7-.6s1.3.2,1.7.6.6.9.6,1.7v21.4c0,.7-.2,1.3-.6,1.7-.4.4-.9.6-1.7.6s-1.3-.2-1.7-.6c-.4-.4-.6-1-.6-1.7v-2.8l.4,1.1c-.4,1.2-1.1,2.2-2.2,3-1.1.7-2.4,1.1-3.9,1.1ZM352.8,557.6c.9,0,1.7-.2,2.3-.6.7-.4,1.2-1.1,1.6-1.9s.6-1.9.6-3.2c0-1.9-.4-3.4-1.2-4.3-.8-.9-1.9-1.4-3.2-1.4s-1.7.2-2.3.6-1.2,1.1-1.6,1.9-.6,1.9-.6,3.2c0,1.9.4,3.3,1.2,4.3.8,1,1.9,1.5,3.2,1.5Z"/>
          <path class="cls-3" d="M374.4,561.1c-1.8,0-3.4-.4-4.8-1.1-1.3-.7-2.4-1.8-3.1-3.2-.7-1.4-1.1-3-1.1-4.9s.2-2.7.6-3.8c.4-1.1,1-2.1,1.8-2.9.8-.8,1.7-1.4,2.8-1.8,1.1-.4,2.3-.6,3.7-.6s3.4.4,4.8,1.1c1.3.7,2.4,1.8,3.1,3.2.7,1.4,1.1,3,1.1,4.9s-.2,2.7-.6,3.8-1,2.1-1.8,2.9c-.8.8-1.7,1.4-2.8,1.8-1.1.4-2.3.6-3.7.6ZM374.4,557.6c.9,0,1.7-.2,2.3-.6.7-.4,1.2-1.1,1.6-1.9s.6-1.9.6-3.2c0-1.9-.4-3.4-1.2-4.3-.8-.9-1.9-1.4-3.2-1.4s-1.7.2-2.3.6-1.2,1.1-1.6,1.9-.6,1.9-.6,3.2c0,1.9.4,3.3,1.2,4.3.8,1,1.9,1.5,3.2,1.5Z"/>
          <path class="cls-3" d="M389.3,567.5c-.7,0-1.3-.2-1.7-.6-.4-.4-.6-.9-.6-1.7v-20.1c0-.7.2-1.3.6-1.7.4-.4.9-.6,1.6-.6s1.3.2,1.7.6c.4.4.6.9.6,1.7v2.8l-.4-1.1c.4-1.2,1.1-2.2,2.2-3,1.1-.7,2.4-1.1,3.9-1.1s2.9.4,4,1.1c1.2.7,2.1,1.8,2.7,3.1.6,1.4,1,3,1,4.9s-.3,3.5-1,4.9c-.6,1.4-1.5,2.4-2.7,3.2s-2.5,1.1-4.1,1.1-2.7-.4-3.9-1.1c-1.1-.7-1.8-1.7-2.2-2.9h.4v8.1c0,.7-.2,1.3-.6,1.7-.4.4-1,.6-1.7.6ZM396,557.6c.9,0,1.7-.2,2.3-.6s1.2-1.1,1.6-1.9c.4-.9.6-1.9.6-3.2,0-1.9-.4-3.4-1.2-4.3-.8-.9-1.9-1.4-3.2-1.4s-1.7.2-2.3.6c-.7.4-1.2,1.1-1.6,1.9-.4.9-.6,1.9-.6,3.2,0,1.9.4,3.3,1.2,4.3.8,1,1.9,1.5,3.2,1.5Z"/>
          <path class="cls-3" d="M414.5,561.1c-1.3,0-2.4-.2-3.4-.7-1-.5-1.8-1.2-2.3-2-.6-.8-.8-1.8-.8-2.8s.3-2.3,1-3.1c.7-.8,1.8-1.3,3.3-1.6s3.5-.5,6.1-.5h1.8v2.6h-1.8c-1.5,0-2.7,0-3.6.2-.9.1-1.5.4-1.9.7-.4.3-.6.8-.6,1.5s.3,1.4.8,1.9c.6.5,1.3.8,2.3.8s1.5-.2,2.1-.6c.6-.4,1.1-.9,1.5-1.5.4-.6.5-1.4.5-2.2v-4.1c0-1.2-.3-2.1-.8-2.6-.5-.5-1.4-.8-2.7-.8s-1.4,0-2.2.3c-.8.2-1.7.5-2.5.9-.5.2-.9.3-1.2.2-.3,0-.6-.3-.8-.6-.2-.3-.3-.6-.3-1s0-.7.3-1.1c.2-.3.5-.6,1-.8,1.1-.5,2.2-.8,3.2-1,1-.2,1.9-.3,2.8-.3,1.7,0,3.2.3,4.3.8,1.1.5,1.9,1.3,2.5,2.4.6,1.1.8,2.4.8,4.1v8.6c0,.7-.2,1.3-.5,1.7-.4.4-.9.6-1.5.6s-1.2-.2-1.6-.6c-.4-.4-.6-1-.6-1.7v-1.7h.3c-.2.8-.5,1.6-1,2.2-.5.6-1.1,1.1-1.9,1.4-.7.3-1.6.5-2.6.5Z"/>
          <path class="cls-3" d="M430.7,561c-.7,0-1.3-.2-1.7-.6-.4-.4-.6-1-.6-1.7v-13.6c0-.7.2-1.3.6-1.7.4-.4.9-.6,1.6-.6s1.2.2,1.6.6c.4.4.6.9.6,1.7v2.6l-.4-1.1c.5-1.2,1.2-2.1,2.2-2.8,1-.7,2.2-1,3.6-1s2.6.3,3.5,1,1.5,1.7,1.9,3.1h-.5c.5-1.3,1.3-2.3,2.4-3,1.1-.7,2.4-1.1,3.8-1.1s2.5.3,3.3.8c.9.5,1.5,1.3,2,2.4.4,1.1.6,2.4.6,4.1v8.7c0,.7-.2,1.3-.6,1.7-.4.4-1,.6-1.7.6s-1.3-.2-1.7-.6c-.4-.4-.6-1-.6-1.7v-8.5c0-1.3-.2-2.3-.7-3-.4-.6-1.2-.9-2.2-.9s-2.1.4-2.8,1.2c-.7.8-1,2-1,3.4v7.7c0,.7-.2,1.3-.6,1.7-.4.4-.9.6-1.7.6s-1.3-.2-1.7-.6c-.4-.4-.6-1-.6-1.7v-8.5c0-1.3-.2-2.3-.7-3-.4-.6-1.2-.9-2.2-.9s-2.1.4-2.8,1.2-1,2-1,3.4v7.7c0,1.5-.8,2.3-2.3,2.3Z"/>
          <path class="cls-3" d="M462.2,539.5c-.8,0-1.5-.2-2-.6-.5-.4-.7-1-.7-1.7s.2-1.4.7-1.8c.5-.4,1.1-.6,2-.6s1.5.2,2,.6.7,1,.7,1.8-.2,1.3-.7,1.7-1.1.6-2,.6ZM462.2,561c-.7,0-1.3-.2-1.7-.6-.4-.4-.6-1-.6-1.8v-13.2c0-.8.2-1.4.6-1.8.4-.4.9-.6,1.7-.6s1.3.2,1.7.6.6,1,.6,1.8v13.2c0,.8-.2,1.4-.6,1.8-.4.4-.9.6-1.7.6Z"/>
          <path class="cls-3" d="M471.4,561c-.7,0-1.3-.2-1.7-.6-.4-.4-.6-1-.6-1.7v-13.6c0-.7.2-1.3.6-1.7.4-.4.9-.6,1.6-.6s1.2.2,1.6.6c.4.4.6.9.6,1.7v2.4l-.4-.9c.5-1.3,1.4-2.2,2.5-2.9,1.1-.7,2.4-1,3.8-1s2.6.3,3.5.8c.9.5,1.6,1.3,2.1,2.4.5,1.1.7,2.4.7,4.1v8.7c0,.7-.2,1.3-.6,1.7-.4.4-.9.6-1.7.6s-1.3-.2-1.7-.6c-.4-.4-.6-1-.6-1.7v-8.5c0-1.4-.3-2.4-.8-3-.5-.6-1.3-.9-2.4-.9s-2.4.4-3.2,1.2-1.2,1.9-1.2,3.3v7.9c0,1.5-.8,2.3-2.3,2.3Z"/>
          <path class="cls-3" d="M502.2,561c-.7,0-1.3-.2-1.7-.6-.4-.4-.6-1-.6-1.7v-13.6c0-.7.2-1.3.6-1.7.4-.4.9-.6,1.6-.6s1.2.2,1.6.6c.4.4.6.9.6,1.7v2.3h-.4c.3-1.4,1-2.5,2-3.3,1-.7,2.3-1.2,3.9-1.3.5,0,.9,0,1.2.4.3.3.5.8.5,1.4,0,.6,0,1.1-.4,1.5-.3.4-.8.6-1.5.7h-.8c-1.5.2-2.6.7-3.3,1.4-.7.8-1.1,1.8-1.1,3.2v7.5c0,.7-.2,1.3-.6,1.7-.4.4-.9.6-1.7.6Z"/>
          <path class="cls-3" d="M522.4,561.1c-2,0-3.7-.4-5.1-1.1-1.4-.7-2.6-1.8-3.3-3.2-.8-1.4-1.2-3-1.2-4.9s.4-3.4,1.1-4.8,1.8-2.4,3.1-3.2c1.3-.8,2.8-1.2,4.6-1.2s2.4.2,3.4.6c1,.4,1.8,1,2.6,1.8.7.8,1.2,1.7,1.6,2.8.4,1.1.6,2.3.6,3.7s-.2.8-.5,1c-.3.2-.7.3-1.3.3h-11.6v-2.6h10.1l-.6.5c0-1.1-.2-2-.5-2.8-.3-.7-.8-1.3-1.4-1.7-.6-.4-1.4-.6-2.3-.6s-1.9.2-2.6.7-1.2,1.1-1.6,2-.6,1.9-.6,3v.3c0,2,.5,3.4,1.4,4.4.9,1,2.3,1.5,4.1,1.5s1.3,0,2.1-.2c.8-.2,1.5-.4,2.2-.8.5-.3.9-.4,1.3-.4.4,0,.7.2.9.4.2.2.4.5.4.9,0,.3,0,.7-.2,1.1-.2.4-.5.7-.9.9-.8.5-1.8.9-2.9,1.2-1.1.3-2.1.4-3,.4Z"/>
          <path class="cls-3" d="M539.3,561.1c-2,0-3.5-.6-4.5-1.7s-1.5-2.8-1.5-5v-17c0-.7.2-1.3.6-1.7s.9-.6,1.7-.6,1.3.2,1.7.6c.4.4.6.9.6,1.7v16.8c0,1.1.2,1.9.7,2.4s1.1.8,2,.8.4,0,.5,0c.2,0,.3,0,.5,0,.3,0,.6,0,.7.3.1.2.2.7.2,1.4s-.1,1.1-.4,1.4c-.2.3-.6.5-1.2.6-.2,0-.5,0-.8,0-.3,0-.5,0-.8,0Z"/>
          <path class="cls-3" d="M553.2,561.1c-2,0-3.7-.4-5.1-1.1-1.4-.7-2.6-1.8-3.3-3.2-.8-1.4-1.2-3-1.2-4.9s.4-3.4,1.1-4.8,1.8-2.4,3.1-3.2c1.3-.8,2.8-1.2,4.6-1.2s2.4.2,3.4.6c1,.4,1.8,1,2.6,1.8.7.8,1.2,1.7,1.6,2.8.4,1.1.6,2.3.6,3.7s-.2.8-.5,1c-.3.2-.7.3-1.3.3h-11.6v-2.6h10.1l-.6.5c0-1.1-.2-2-.5-2.8-.3-.7-.8-1.3-1.4-1.7-.6-.4-1.4-.6-2.3-.6s-1.9.2-2.6.7-1.2,1.1-1.6,2-.6,1.9-.6,3v.3c0,2,.5,3.4,1.4,4.4.9,1,2.3,1.5,4.1,1.5s1.3,0,2.1-.2c.8-.2,1.5-.4,2.2-.8.5-.3.9-.4,1.3-.4.4,0,.7.2.9.4.2.2.4.5.4.9,0,.3,0,.7-.2,1.1-.2.4-.5.7-.9.9-.8.5-1.8.9-2.9,1.2-1.1.3-2.1.4-3,.4Z"/>
          <path class="cls-3" d="M569.9,561.1c-1.3,0-2.4-.2-3.4-.7-1-.5-1.8-1.2-2.3-2-.6-.8-.8-1.8-.8-2.8s.3-2.3,1-3.1c.7-.8,1.8-1.3,3.3-1.6,1.5-.3,3.5-.5,6.1-.5h1.8v2.6h-1.8c-1.5,0-2.7,0-3.6.2-.9.1-1.5.4-1.9.7s-.6.8-.6,1.5.3,1.4.8,1.9c.6.5,1.3.8,2.3.8s1.5-.2,2.1-.6c.6-.4,1.1-.9,1.5-1.5.4-.6.5-1.4.5-2.2v-4.1c0-1.2-.3-2.1-.8-2.6s-1.4-.8-2.7-.8-1.4,0-2.2.3c-.8.2-1.7.5-2.5.9-.5.2-.9.3-1.2.2-.3,0-.6-.3-.8-.6-.2-.3-.3-.6-.3-1s0-.7.3-1.1.5-.6,1-.8c1.1-.5,2.2-.8,3.2-1,1-.2,1.9-.3,2.8-.3,1.7,0,3.2.3,4.3.8,1.1.5,2,1.3,2.5,2.4.6,1.1.8,2.4.8,4.1v8.6c0,.7-.2,1.3-.5,1.7-.4.4-.9.6-1.5.6s-1.2-.2-1.6-.6c-.4-.4-.6-1-.6-1.7v-1.7h.3c-.2.8-.5,1.6-1,2.2-.5.6-1.1,1.1-1.9,1.4-.7.3-1.6.5-2.6.5Z"/>
          <path class="cls-3" d="M590.2,561.1c-1,0-2.1-.1-3.3-.3s-2.2-.6-3.1-1.1c-.4-.2-.7-.5-.8-.8s-.2-.6-.2-1c0-.3.2-.6.4-.8.2-.2.5-.4.8-.5.3,0,.7,0,1.1.2,1,.5,1.9.8,2.7,1,.8.2,1.7.3,2.5.3s2-.2,2.6-.6c.6-.4.8-.9.8-1.6s-.2-1-.6-1.3c-.4-.3-.9-.5-1.7-.7l-3.6-.7c-1.5-.3-2.6-.8-3.4-1.6-.8-.8-1.2-1.8-1.2-3.1s.3-2.1,1-3c.6-.8,1.5-1.5,2.6-1.9,1.1-.5,2.4-.7,3.9-.7s2,.1,3,.3c.9.2,1.8.6,2.7,1.1.4.2.6.4.7.8s.2.6,0,1c0,.3-.2.6-.4.9-.2.3-.5.4-.8.5s-.7,0-1.1-.2c-.7-.4-1.5-.7-2.1-.8-.7-.2-1.3-.3-2-.3-1.2,0-2,.2-2.6.6-.6.4-.8.9-.8,1.6s.2.9.5,1.3c.3.3.9.6,1.5.7l3.6.7c1.6.3,2.7.8,3.5,1.6.8.8,1.2,1.8,1.2,3.1s-.7,3.1-2.1,4.1-3.2,1.5-5.5,1.5Z"/>
          <path class="cls-3" d="M610,561.1c-2,0-3.7-.4-5.1-1.1-1.4-.7-2.6-1.8-3.3-3.2-.8-1.4-1.2-3-1.2-4.9s.4-3.4,1.1-4.8,1.8-2.4,3.1-3.2c1.3-.8,2.8-1.2,4.6-1.2s2.4.2,3.4.6c1,.4,1.8,1,2.6,1.8.7.8,1.2,1.7,1.6,2.8.4,1.1.6,2.3.6,3.7s-.2.8-.5,1c-.3.2-.7.3-1.3.3h-11.6v-2.6h10.1l-.6.5c0-1.1-.2-2-.5-2.8-.3-.7-.8-1.3-1.4-1.7-.6-.4-1.4-.6-2.3-.6s-1.9.2-2.6.7-1.2,1.1-1.6,2-.6,1.9-.6,3v.3c0,2,.5,3.4,1.4,4.4.9,1,2.3,1.5,4.1,1.5s1.3,0,2.1-.2c.8-.2,1.5-.4,2.2-.8.5-.3.9-.4,1.3-.4.4,0,.7.2.9.4.2.2.4.5.4.9,0,.3,0,.7-.2,1.1-.2.4-.5.7-.9.9-.8.5-1.8.9-2.9,1.2-1.1.3-2.1.4-3,.4Z"/>
        </g>
      </g>
      <rect class="cls-1" x="211.4" y="629.4" width="531.2" height="105.5" rx="28.3" ry="28.3"/>
      <g class="cls-4">
        <g class="cls-4">
          <path class="cls-3" d="M389,692.8c-.7,0-1.3-.2-1.7-.6-.4-.4-.6-1-.6-1.7v-12.2h-1.7c-.6,0-1-.1-1.3-.5-.3-.3-.5-.7-.5-1.2s.2-1,.5-1.3c.3-.3.8-.4,1.3-.4h3l-1.3,1.2v-1.2c0-2.5.6-4.3,1.9-5.6,1.2-1.2,3-2,5.4-2.2h1.2c.5-.2.9,0,1.2.1.3.2.5.5.6.8,0,.3.1.7,0,1,0,.3-.2.6-.5.9s-.5.4-.9.4h-.5c-1.4.1-2.4.5-3,1.1s-.9,1.5-.9,2.7v1.3l-.6-.6h3.6c.6,0,1,.1,1.3.4.3.3.5.7.5,1.3s-.2.9-.5,1.2c-.3.3-.8.5-1.3.5h-3.1v12.2c0,1.5-.7,2.3-2.2,2.3ZM404.7,692.9c-2,0-3.5-.6-4.5-1.7s-1.5-2.8-1.5-5v-17c0-.7.2-1.3.6-1.7.4-.4.9-.6,1.7-.6s1.3.2,1.7.6.6.9.6,1.7v16.8c0,1.1.2,1.9.7,2.4s1.1.8,2,.8.4,0,.5,0c.2,0,.3,0,.5,0,.3,0,.6,0,.7.3.1.2.2.7.2,1.4s-.1,1.1-.4,1.4c-.2.3-.6.5-1.2.6-.2,0-.5,0-.8,0-.3,0-.5,0-.8,0Z"/>
          <path class="cls-3" d="M418,692.9c-1.8,0-3.4-.4-4.8-1.1-1.3-.7-2.4-1.8-3.1-3.2-.7-1.4-1.1-3-1.1-4.9s.2-2.7.6-3.8c.4-1.1,1-2.1,1.8-2.9.8-.8,1.7-1.4,2.8-1.8,1.1-.4,2.3-.6,3.7-.6s3.4.4,4.8,1.1c1.3.7,2.4,1.8,3.1,3.2.7,1.4,1.1,3,1.1,4.9s-.2,2.7-.6,3.8-1,2.1-1.8,2.9c-.8.8-1.7,1.4-2.8,1.8-1.1.4-2.3.6-3.7.6ZM418,689.4c.9,0,1.7-.2,2.3-.6.7-.4,1.2-1.1,1.6-1.9s.6-1.9.6-3.2c0-1.9-.4-3.4-1.2-4.3-.8-.9-1.9-1.4-3.2-1.4s-1.7.2-2.3.6-1.2,1.1-1.6,1.9-.6,1.9-.6,3.2c0,1.9.4,3.3,1.2,4.3.8,1,1.9,1.5,3.2,1.5Z"/>
          <path class="cls-3" d="M437.1,692.8c-.6,0-1.1-.2-1.5-.5-.4-.3-.8-.8-1-1.4l-5.2-13.3c-.2-.6-.3-1.1-.2-1.5s.3-.8.7-1.1c.4-.3.8-.4,1.4-.4s1,.1,1.3.4c.3.3.6.7.9,1.4l4.4,12h-.8l4.5-12.3c.2-.5.4-.9.8-1.2.3-.2.7-.4,1.3-.4s1,.1,1.3.4c.3.3.6.6.8,1.1l4.4,12.3h-.8l4.4-12.1c.2-.6.5-1.1.9-1.3.4-.2.8-.4,1.2-.4s1,.1,1.3.4c.3.3.5.7.5,1.1,0,.4,0,.9-.3,1.5l-5.2,13.3c-.2.6-.6,1.1-1,1.4-.4.3-1,.5-1.6.5s-1.1-.2-1.6-.5c-.4-.3-.8-.8-1-1.4l-4.7-12.5h2.1l-4.6,12.5c-.2.6-.6,1.1-1,1.4s-1,.5-1.6.5Z"/>
          <path class="cls-3" d="M478.9,692.9c-1.6,0-2.9-.3-3.9-.8-1-.5-1.8-1.3-2.3-2.3-.5-1-.8-2.3-.8-3.8v-7.7h-1.9c-.6,0-1-.1-1.3-.5-.3-.3-.5-.7-.5-1.2s.2-1,.5-1.3c.3-.3.8-.4,1.3-.4h1.9v-3.3c0-.7.2-1.3.6-1.7.4-.4,1-.6,1.7-.6s1.3.2,1.7.6c.4.4.6.9.6,1.7v3.3h3.8c.6,0,1,.1,1.3.4.3.3.5.7.5,1.3s-.2.9-.5,1.2c-.3.3-.8.5-1.3.5h-3.8v7.4c0,1.2.3,2,.8,2.6.5.6,1.3.9,2.4.9s.8,0,1.1-.1c.3,0,.6-.1.8-.1.3,0,.5,0,.7.3.2.2.3.6.3,1.2s0,.9-.2,1.3c-.2.4-.4.6-.8.8-.3,0-.7.2-1.2.3-.5,0-.9.1-1.3.1Z"/>
          <path class="cls-3" d="M487.3,692.8c-.7,0-1.3-.2-1.7-.6-.4-.4-.6-1-.6-1.7v-21.4c0-.7.2-1.3.6-1.7.4-.4.9-.6,1.7-.6s1.3.2,1.7.6.6.9.6,1.7v9.3h-.5c.5-1.3,1.4-2.2,2.5-2.9,1.1-.7,2.4-1,3.8-1s2.6.3,3.5.8c.9.5,1.6,1.3,2.1,2.4.5,1.1.7,2.4.7,4.1v8.7c0,.7-.2,1.3-.6,1.7-.4.4-.9.6-1.7.6s-1.3-.2-1.7-.6c-.4-.4-.6-1-.6-1.7v-8.5c0-1.4-.3-2.4-.8-3-.5-.6-1.3-.9-2.4-.9s-2.4.4-3.2,1.2-1.2,1.9-1.2,3.3v7.9c0,1.5-.8,2.3-2.3,2.3Z"/>
          <path class="cls-3" d="M514.8,692.9c-2,0-3.7-.4-5.1-1.1s-2.6-1.8-3.3-3.2c-.8-1.4-1.2-3-1.2-4.9s.4-3.4,1.1-4.8,1.8-2.4,3.1-3.2c1.3-.8,2.8-1.2,4.6-1.2s2.4.2,3.4.6,1.8,1,2.6,1.8c.7.8,1.2,1.7,1.6,2.8s.6,2.3.6,3.7-.2.8-.5,1c-.3.2-.7.3-1.3.3h-11.6v-2.6h10.1l-.6.5c0-1.1-.2-2-.5-2.8s-.8-1.3-1.4-1.7c-.6-.4-1.4-.6-2.3-.6s-1.9.2-2.6.7c-.7.5-1.2,1.1-1.6,2s-.6,1.9-.6,3v.3c0,2,.5,3.4,1.4,4.4.9,1,2.3,1.5,4.1,1.5s1.3,0,2.1-.2,1.5-.4,2.2-.8c.5-.3.9-.4,1.3-.4.4,0,.7.2.9.4.2.2.4.5.4.9s0,.7-.2,1.1c-.2.4-.5.7-.9.9-.8.5-1.8.9-2.9,1.2s-2.1.4-3,.4Z"/>
          <path class="cls-3" d="M533.7,692.9c-1.8,0-3.4-.4-4.8-1.1-1.3-.7-2.4-1.8-3.1-3.2-.7-1.4-1.1-3-1.1-4.9s.2-2.7.6-3.8c.4-1.1,1-2.1,1.8-2.9.8-.8,1.7-1.4,2.8-1.8,1.1-.4,2.3-.6,3.7-.6s3.4.4,4.8,1.1c1.3.7,2.4,1.8,3.1,3.2.7,1.4,1.1,3,1.1,4.9s-.2,2.7-.6,3.8-1,2.1-1.8,2.9c-.8.8-1.7,1.4-2.8,1.8-1.1.4-2.3.6-3.7.6ZM533.7,689.4c.9,0,1.7-.2,2.3-.6.7-.4,1.2-1.1,1.6-1.9s.6-1.9.6-3.2c0-1.9-.4-3.4-1.2-4.3-.8-.9-1.9-1.4-3.2-1.4s-1.7.2-2.3.6-1.2,1.1-1.6,1.9-.6,1.9-.6,3.2c0,1.9.4,3.3,1.2,4.3.8,1,1.9,1.5,3.2,1.5Z"/>
          <path class="cls-3" d="M548.7,692.8c-.7,0-1.3-.2-1.7-.6-.4-.4-.6-1-.6-1.7v-13.6c0-.7.2-1.3.6-1.7.4-.4.9-.6,1.6-.6s1.2.2,1.6.6c.4.4.6.9.6,1.7v2.3h-.4c.3-1.4,1-2.5,2-3.3s2.3-1.2,3.9-1.3c.5,0,.9,0,1.2.4.3.3.5.8.5,1.4,0,.6,0,1.1-.4,1.5-.3.4-.8.6-1.5.7h-.8c-1.5.2-2.6.7-3.3,1.4s-1.1,1.8-1.1,3.2v7.5c0,.7-.2,1.3-.6,1.7-.4.4-.9.6-1.7.6Z"/>
          <path class="cls-3" d="M566,699.3c-.5,0-1-.1-1.3-.4-.3-.3-.5-.6-.6-1.1s0-.9.2-1.4l2.4-5.4v1.9l-6.6-15.2c-.2-.5-.3-1-.2-1.5s.3-.8.7-1.1c.4-.3.9-.4,1.5-.4s1,.1,1.3.4c.3.3.6.7.9,1.4l4.9,12.1h-1.1l5-12.2c.3-.7.6-1.1.9-1.4.4-.3.8-.4,1.4-.4s.9.1,1.3.4c.3.3.5.6.6,1.1,0,.4,0,.9-.3,1.5l-8.7,20c-.3.7-.6,1.1-1,1.4-.4.2-.8.4-1.4.4Z"/>
        </g>
      </g>
      <rect class="cls-1" x="211.4" y="761.2" width="531.2" height="105.5" rx="28.3" ry="28.3"/>
      <g class="cls-4">
        <g class="cls-4">
          <path class="cls-3" d="M277.8,824.7c-1,0-2.1-.1-3.3-.3-1.2-.2-2.2-.6-3.1-1.1-.4-.2-.7-.5-.8-.8-.2-.3-.2-.6-.2-1,0-.3.2-.6.4-.8.2-.2.5-.4.8-.5.3,0,.7,0,1.1.2,1,.5,1.9.8,2.7,1,.8.2,1.7.3,2.5.3s2-.2,2.6-.6c.6-.4.8-.9.8-1.6s-.2-1-.6-1.3c-.4-.3-.9-.5-1.7-.7l-3.6-.7c-1.5-.3-2.6-.8-3.4-1.6-.8-.8-1.2-1.8-1.2-3.1s.3-2.1,1-3c.6-.8,1.5-1.5,2.6-1.9,1.1-.5,2.4-.7,3.9-.7s2,.1,3,.3c.9.2,1.8.6,2.7,1.1.4.2.6.4.7.8s.2.6,0,1c0,.3-.2.6-.4.9-.2.3-.5.4-.8.5s-.7,0-1.1-.2c-.7-.4-1.5-.7-2.1-.8-.7-.2-1.3-.3-2-.3-1.2,0-2,.2-2.6.6-.6.4-.8.9-.8,1.6s.2.9.5,1.3c.3.3.9.6,1.5.7l3.6.7c1.6.3,2.7.8,3.5,1.6.8.8,1.2,1.8,1.2,3.1s-.7,3.1-2.1,4.1c-1.4,1-3.2,1.5-5.5,1.5Z"/>
          <path class="cls-3" d="M297.6,824.7c-2,0-3.7-.4-5.1-1.1s-2.6-1.8-3.3-3.2c-.8-1.4-1.2-3-1.2-4.9s.4-3.4,1.1-4.8,1.8-2.4,3.1-3.2c1.3-.8,2.8-1.2,4.6-1.2s2.4.2,3.4.6c1,.4,1.8,1,2.6,1.8.7.8,1.2,1.7,1.6,2.8.4,1.1.6,2.3.6,3.7s-.2.8-.5,1c-.3.2-.7.3-1.3.3h-11.6v-2.6h10.1l-.6.5c0-1.1-.2-2-.5-2.8-.3-.7-.8-1.3-1.4-1.7-.6-.4-1.4-.6-2.3-.6s-1.9.2-2.6.7c-.7.5-1.2,1.1-1.6,2s-.6,1.9-.6,3v.3c0,2,.5,3.4,1.4,4.4.9,1,2.3,1.5,4.1,1.5s1.3,0,2.1-.2c.8-.2,1.5-.4,2.2-.8.5-.3.9-.4,1.3-.4.4,0,.7.2.9.4.2.2.4.5.4.9,0,.3,0,.7-.2,1.1s-.5.7-.9.9c-.8.5-1.8.9-2.9,1.2-1.1.3-2.1.4-3,.4Z"/>
          <path class="cls-3" d="M314.4,824.7c-2,0-3.5-.6-4.5-1.7s-1.5-2.8-1.5-5v-17c0-.7.2-1.3.6-1.7.4-.4.9-.6,1.7-.6s1.3.2,1.7.6.6.9.6,1.7v16.8c0,1.1.2,1.9.7,2.4s1.1.8,2,.8.4,0,.5,0c.2,0,.3,0,.5,0,.3,0,.6,0,.7.3.1.2.2.7.2,1.4s-.1,1.1-.4,1.4c-.2.3-.6.5-1.2.6-.2,0-.5,0-.8,0-.3,0-.5,0-.8,0Z"/>
          <path class="cls-3" d="M323,824.6c-.7,0-1.3-.2-1.7-.6-.4-.4-.6-1-.6-1.7v-12.2h-1.7c-.6,0-1-.1-1.3-.5-.3-.3-.5-.7-.5-1.2s.2-1,.5-1.3c.3-.3.8-.4,1.3-.4h3l-1.3,1.2v-1.2c0-2.5.6-4.3,1.9-5.6,1.2-1.2,3-2,5.4-2.2h1.2c.5-.2.9,0,1.2.1.3.2.5.5.6.8,0,.3.1.7,0,1,0,.3-.2.6-.5.9s-.5.4-.9.4h-.5c-1.4.1-2.4.5-3,1.1s-.9,1.5-.9,2.7v1.3l-.6-.6h3.6c.6,0,1,.1,1.3.4.3.3.5.7.5,1.3s-.2.9-.5,1.2c-.3.3-.8.5-1.3.5h-3.1v12.2c0,1.5-.7,2.3-2.2,2.3Z"/>
          <path class="cls-3" d="M334,816.5c-.5,0-1-.2-1.3-.5-.3-.3-.5-.8-.5-1.3s.2-1,.5-1.3c.3-.3.8-.5,1.3-.5h7.7c.5,0,.9.2,1.3.5.3.3.5.8.5,1.3s-.2.9-.5,1.3c-.3.3-.8.5-1.3.5h-7.7Z"/>
          <path class="cls-3" d="M355.3,824.7c-1.5,0-2.9-.4-4-1.1-1.2-.7-2.1-1.8-2.7-3.2-.6-1.4-1-3-1-4.9s.3-3.5,1-4.9c.6-1.4,1.6-2.4,2.7-3.1,1.2-.7,2.5-1.1,4-1.1s2.7.4,3.8,1.1c1.1.7,1.8,1.7,2.2,2.8h-.4v-9.4c0-.7.2-1.3.6-1.7.4-.4.9-.6,1.7-.6s1.3.2,1.7.6.6.9.6,1.7v21.4c0,.7-.2,1.3-.6,1.7-.4.4-.9.6-1.7.6s-1.3-.2-1.7-.6c-.4-.4-.6-1-.6-1.7v-2.8l.4,1.1c-.4,1.2-1.1,2.2-2.2,3-1.1.7-2.4,1.1-3.9,1.1ZM356.6,821.2c.9,0,1.7-.2,2.3-.6.7-.4,1.2-1.1,1.6-1.9s.6-1.9.6-3.2c0-1.9-.4-3.4-1.2-4.3-.8-.9-1.9-1.4-3.2-1.4s-1.7.2-2.3.6-1.2,1.1-1.6,1.9-.6,1.9-.6,3.2c0,1.9.4,3.3,1.2,4.3.8,1,1.9,1.5,3.2,1.5Z"/>
          <path class="cls-3" d="M378.8,824.7c-2,0-3.7-.4-5.1-1.1s-2.6-1.8-3.3-3.2c-.8-1.4-1.2-3-1.2-4.9s.4-3.4,1.1-4.8,1.8-2.4,3.1-3.2c1.3-.8,2.8-1.2,4.6-1.2s2.4.2,3.4.6c1,.4,1.8,1,2.6,1.8.7.8,1.2,1.7,1.6,2.8.4,1.1.6,2.3.6,3.7s-.2.8-.5,1c-.3.2-.7.3-1.3.3h-11.6v-2.6h10.1l-.6.5c0-1.1-.2-2-.5-2.8-.3-.7-.8-1.3-1.4-1.7-.6-.4-1.4-.6-2.3-.6s-1.9.2-2.6.7c-.7.5-1.2,1.1-1.6,2s-.6,1.9-.6,3v.3c0,2,.5,3.4,1.4,4.4.9,1,2.3,1.5,4.1,1.5s1.3,0,2.1-.2c.8-.2,1.5-.4,2.2-.8.5-.3.9-.4,1.3-.4.4,0,.7.2.9.4.2.2.4.5.4.9,0,.3,0,.7-.2,1.1s-.5.7-.9.9c-.8.5-1.8.9-2.9,1.2-1.1.3-2.1.4-3,.4Z"/>
          <path class="cls-3" d="M397.6,824.7c-1.6,0-2.9-.3-3.9-.8-1-.5-1.8-1.3-2.3-2.3-.5-1-.8-2.3-.8-3.8v-7.7h-1.9c-.6,0-1-.1-1.3-.5-.3-.3-.5-.7-.5-1.2s.2-1,.5-1.3c.3-.3.8-.4,1.3-.4h1.9v-3.3c0-.7.2-1.3.6-1.7.4-.4,1-.6,1.7-.6s1.3.2,1.7.6c.4.4.6.9.6,1.7v3.3h3.8c.6,0,1,.1,1.3.4.3.3.5.7.5,1.3s-.2.9-.5,1.2c-.3.3-.8.5-1.3.5h-3.8v7.4c0,1.2.3,2,.8,2.6.5.6,1.3.9,2.4.9s.8,0,1.1-.1c.3,0,.6-.1.8-.1.3,0,.5,0,.7.3.2.2.3.6.3,1.2s0,.9-.2,1.3c-.2.4-.4.6-.8.8-.3,0-.7.2-1.2.3-.5,0-.9.1-1.3.1Z"/>
          <path class="cls-3" d="M411.9,824.7c-2,0-3.7-.4-5.1-1.1s-2.6-1.8-3.3-3.2c-.8-1.4-1.2-3-1.2-4.9s.4-3.4,1.1-4.8,1.8-2.4,3.1-3.2c1.3-.8,2.8-1.2,4.6-1.2s2.4.2,3.4.6c1,.4,1.8,1,2.6,1.8.7.8,1.2,1.7,1.6,2.8.4,1.1.6,2.3.6,3.7s-.2.8-.5,1c-.3.2-.7.3-1.3.3h-11.6v-2.6h10.1l-.6.5c0-1.1-.2-2-.5-2.8-.3-.7-.8-1.3-1.4-1.7-.6-.4-1.4-.6-2.3-.6s-1.9.2-2.6.7c-.7.5-1.2,1.1-1.6,2s-.6,1.9-.6,3v.3c0,2,.5,3.4,1.4,4.4.9,1,2.3,1.5,4.1,1.5s1.3,0,2.1-.2c.8-.2,1.5-.4,2.2-.8.5-.3.9-.4,1.3-.4.4,0,.7.2.9.4.2.2.4.5.4.9,0,.3,0,.7-.2,1.1s-.5.7-.9.9c-.8.5-1.8.9-2.9,1.2-1.1.3-2.1.4-3,.4Z"/>
          <path class="cls-3" d="M425,824.6c-.7,0-1.3-.2-1.7-.6-.4-.4-.6-1-.6-1.7v-13.6c0-.7.2-1.3.6-1.7.4-.4.9-.6,1.6-.6s1.2.2,1.6.6c.4.4.6.9.6,1.7v2.3h-.4c.3-1.4,1-2.5,2-3.3,1-.7,2.3-1.2,3.9-1.3.5,0,.9,0,1.2.4.3.3.5.8.5,1.4,0,.6,0,1.1-.4,1.5-.3.4-.8.6-1.5.7h-.8c-1.5.2-2.6.7-3.3,1.4-.7.8-1.1,1.8-1.1,3.2v7.5c0,.7-.2,1.3-.6,1.7-.4.4-.9.6-1.7.6Z"/>
          <path class="cls-3" d="M439.1,824.6c-.7,0-1.3-.2-1.7-.6-.4-.4-.6-1-.6-1.7v-13.6c0-.7.2-1.3.6-1.7.4-.4.9-.6,1.6-.6s1.2.2,1.6.6c.4.4.6.9.6,1.7v2.6l-.4-1.1c.5-1.2,1.2-2.1,2.2-2.8,1-.7,2.2-1,3.6-1s2.6.3,3.5,1,1.5,1.7,1.9,3.1h-.5c.5-1.3,1.3-2.3,2.4-3,1.1-.7,2.4-1.1,3.8-1.1s2.5.3,3.3.8c.9.5,1.5,1.3,2,2.4.4,1.1.6,2.4.6,4.1v8.7c0,.7-.2,1.3-.6,1.7-.4.4-1,.6-1.7.6s-1.3-.2-1.7-.6c-.4-.4-.6-1-.6-1.7v-8.5c0-1.3-.2-2.3-.7-3-.4-.6-1.2-.9-2.2-.9s-2.1.4-2.8,1.2c-.7.8-1,2-1,3.4v7.7c0,.7-.2,1.3-.6,1.7-.4.4-.9.6-1.7.6s-1.3-.2-1.7-.6c-.4-.4-.6-1-.6-1.7v-8.5c0-1.3-.2-2.3-.7-3-.4-.6-1.2-.9-2.2-.9s-2.1.4-2.8,1.2-1,2-1,3.4v7.7c0,1.5-.8,2.3-2.3,2.3Z"/>
          <path class="cls-3" d="M470.6,803.1c-.8,0-1.5-.2-2-.6-.5-.4-.7-1-.7-1.7s.2-1.4.7-1.8c.5-.4,1.1-.6,2-.6s1.5.2,2,.6.7,1,.7,1.8-.2,1.3-.7,1.7-1.1.6-2,.6ZM470.6,824.6c-.7,0-1.3-.2-1.7-.6-.4-.4-.6-1-.6-1.8v-13.2c0-.8.2-1.4.6-1.8.4-.4.9-.6,1.7-.6s1.3.2,1.7.6.6,1,.6,1.8v13.2c0,.8-.2,1.4-.6,1.8-.4.4-.9.6-1.7.6Z"/>
          <path class="cls-3" d="M479.8,824.6c-.7,0-1.3-.2-1.7-.6-.4-.4-.6-1-.6-1.7v-13.6c0-.7.2-1.3.6-1.7.4-.4.9-.6,1.6-.6s1.2.2,1.6.6c.4.4.6.9.6,1.7v2.4l-.4-.9c.5-1.3,1.4-2.2,2.5-2.9,1.1-.7,2.4-1,3.8-1s2.6.3,3.5.8c.9.5,1.6,1.3,2.1,2.4.5,1.1.7,2.4.7,4.1v8.7c0,.7-.2,1.3-.6,1.7-.4.4-.9.6-1.7.6s-1.3-.2-1.7-.6c-.4-.4-.6-1-.6-1.7v-8.5c0-1.4-.3-2.4-.8-3-.5-.6-1.3-.9-2.4-.9s-2.4.4-3.2,1.2-1.2,1.9-1.2,3.3v7.9c0,1.5-.8,2.3-2.3,2.3Z"/>
          <path class="cls-3" d="M504.4,824.7c-1.3,0-2.4-.2-3.4-.7-1-.5-1.8-1.2-2.3-2-.6-.8-.8-1.8-.8-2.8s.3-2.3,1-3.1c.7-.8,1.8-1.3,3.3-1.6s3.5-.5,6.1-.5h1.8v2.6h-1.8c-1.5,0-2.7,0-3.6.2-.9.1-1.5.4-1.9.7-.4.3-.6.8-.6,1.5s.3,1.4.8,1.9c.6.5,1.3.8,2.3.8s1.5-.2,2.1-.6c.6-.4,1.1-.9,1.5-1.5.4-.6.5-1.4.5-2.2v-4.1c0-1.2-.3-2.1-.8-2.6-.5-.5-1.4-.8-2.7-.8s-1.4,0-2.2.3c-.8.2-1.7.5-2.5.9-.5.2-.9.3-1.2.2-.3,0-.6-.3-.8-.6-.2-.3-.3-.6-.3-1s0-.7.3-1.1c.2-.3.5-.6,1-.8,1.1-.5,2.2-.8,3.2-1,1-.2,1.9-.3,2.8-.3,1.7,0,3.2.3,4.3.8,1.1.5,1.9,1.3,2.5,2.4.6,1.1.8,2.4.8,4.1v8.6c0,.7-.2,1.3-.5,1.7-.4.4-.9.6-1.5.6s-1.2-.2-1.6-.6c-.4-.4-.6-1-.6-1.7v-1.7h.3c-.2.8-.5,1.6-1,2.2-.5.6-1.1,1.1-1.9,1.4-.7.3-1.6.5-2.6.5Z"/>
          <path class="cls-3" d="M526.4,824.7c-1.6,0-2.9-.3-3.9-.8-1-.5-1.8-1.3-2.3-2.3-.5-1-.8-2.3-.8-3.8v-7.7h-1.9c-.6,0-1-.1-1.3-.5-.3-.3-.5-.7-.5-1.2s.2-1,.5-1.3c.3-.3.8-.4,1.3-.4h1.9v-3.3c0-.7.2-1.3.6-1.7.4-.4,1-.6,1.7-.6s1.3.2,1.7.6c.4.4.6.9.6,1.7v3.3h3.8c.6,0,1,.1,1.3.4.3.3.5.7.5,1.3s-.2.9-.5,1.2c-.3.3-.8.5-1.3.5h-3.8v7.4c0,1.2.3,2,.8,2.6.5.6,1.3.9,2.4.9s.8,0,1.1-.1c.3,0,.6-.1.8-.1.3,0,.5,0,.7.3.2.2.3.6.3,1.2s0,.9-.2,1.3-.4.6-.8.8c-.3,0-.7.2-1.2.3-.5,0-.9.1-1.3.1Z"/>
          <path class="cls-3" d="M534.9,803.1c-.8,0-1.5-.2-2-.6-.5-.4-.7-1-.7-1.7s.2-1.4.7-1.8c.5-.4,1.1-.6,2-.6s1.5.2,2,.6.7,1,.7,1.8-.2,1.3-.7,1.7-1.1.6-2,.6ZM534.9,824.6c-.7,0-1.3-.2-1.7-.6-.4-.4-.6-1-.6-1.8v-13.2c0-.8.2-1.4.6-1.8s.9-.6,1.7-.6,1.3.2,1.7.6.6,1,.6,1.8v13.2c0,.8-.2,1.4-.6,1.8-.4.4-.9.6-1.7.6Z"/>
          <path class="cls-3" d="M549.8,824.7c-1.8,0-3.4-.4-4.8-1.1-1.3-.7-2.4-1.8-3.1-3.2-.7-1.4-1.1-3-1.1-4.9s.2-2.7.6-3.8c.4-1.1,1-2.1,1.8-2.9.8-.8,1.7-1.4,2.8-1.8,1.1-.4,2.3-.6,3.7-.6s3.4.4,4.8,1.1c1.3.7,2.4,1.8,3.1,3.2.7,1.4,1.1,3,1.1,4.9s-.2,2.7-.6,3.8-1,2.1-1.8,2.9c-.8.8-1.7,1.4-2.8,1.8-1.1.4-2.3.6-3.7.6ZM549.8,821.2c.9,0,1.7-.2,2.3-.6s1.2-1.1,1.6-1.9c.4-.9.6-1.9.6-3.2,0-1.9-.4-3.4-1.2-4.3-.8-.9-1.9-1.4-3.2-1.4s-1.7.2-2.3.6-1.2,1.1-1.6,1.9-.6,1.9-.6,3.2c0,1.9.4,3.3,1.2,4.3.8,1,1.9,1.5,3.2,1.5Z"/>
          <path class="cls-3" d="M564.8,824.6c-.7,0-1.3-.2-1.7-.6-.4-.4-.6-1-.6-1.7v-13.6c0-.7.2-1.3.6-1.7.4-.4.9-.6,1.6-.6s1.2.2,1.6.6c.4.4.6.9.6,1.7v2.4l-.4-.9c.5-1.3,1.3-2.2,2.5-2.9s2.4-1,3.8-1,2.6.3,3.5.8c.9.5,1.6,1.3,2.1,2.4.5,1.1.7,2.4.7,4.1v8.7c0,.7-.2,1.3-.6,1.7-.4.4-.9.6-1.7.6s-1.3-.2-1.7-.6c-.4-.4-.6-1-.6-1.7v-8.5c0-1.4-.3-2.4-.8-3s-1.3-.9-2.4-.9-2.4.4-3.2,1.2-1.2,1.9-1.2,3.3v7.9c0,1.5-.8,2.3-2.3,2.3Z"/>
          <path class="cls-3" d="M601.4,824.7c-1.6,0-2.9-.3-3.9-.8-1-.5-1.8-1.3-2.3-2.3-.5-1-.8-2.3-.8-3.8v-7.7h-1.9c-.6,0-1-.1-1.3-.5-.3-.3-.5-.7-.5-1.2s.2-1,.5-1.3.8-.4,1.3-.4h1.9v-3.3c0-.7.2-1.3.6-1.7.4-.4,1-.6,1.7-.6s1.3.2,1.7.6c.4.4.6.9.6,1.7v3.3h3.8c.6,0,1,.1,1.3.4.3.3.5.7.5,1.3s-.2.9-.5,1.2c-.3.3-.8.5-1.3.5h-3.8v7.4c0,1.2.3,2,.8,2.6s1.3.9,2.4.9.8,0,1.1-.1c.3,0,.6-.1.8-.1.3,0,.5,0,.7.3.2.2.3.6.3,1.2s0,.9-.2,1.3-.4.6-.8.8c-.3,0-.7.2-1.2.3-.5,0-.9.1-1.3.1Z"/>
          <path class="cls-3" d="M609.9,824.6c-.7,0-1.3-.2-1.7-.6-.4-.4-.6-1-.6-1.7v-21.4c0-.7.2-1.3.6-1.7s.9-.6,1.7-.6,1.3.2,1.7.6c.4.4.6.9.6,1.7v9.3h-.5c.5-1.3,1.3-2.2,2.5-2.9s2.4-1,3.8-1,2.6.3,3.5.8c.9.5,1.6,1.3,2.1,2.4.5,1.1.7,2.4.7,4.1v8.7c0,.7-.2,1.3-.6,1.7-.4.4-.9.6-1.7.6s-1.3-.2-1.7-.6c-.4-.4-.6-1-.6-1.7v-8.5c0-1.4-.3-2.4-.8-3s-1.3-.9-2.4-.9-2.4.4-3.2,1.2-1.2,1.9-1.2,3.3v7.9c0,1.5-.8,2.3-2.3,2.3Z"/>
          <path class="cls-3" d="M637.4,824.7c-2,0-3.7-.4-5.1-1.1-1.4-.7-2.6-1.8-3.3-3.2-.8-1.4-1.2-3-1.2-4.9s.4-3.4,1.1-4.8,1.8-2.4,3.1-3.2c1.3-.8,2.8-1.2,4.6-1.2s2.4.2,3.4.6,1.8,1,2.6,1.8c.7.8,1.2,1.7,1.6,2.8.4,1.1.6,2.3.6,3.7s-.2.8-.5,1c-.3.2-.7.3-1.3.3h-11.6v-2.6h10.1l-.6.5c0-1.1-.2-2-.5-2.8-.3-.7-.8-1.3-1.4-1.7-.6-.4-1.4-.6-2.3-.6s-1.9.2-2.6.7-1.2,1.1-1.6,2-.6,1.9-.6,3v.3c0,2,.5,3.4,1.4,4.4.9,1,2.3,1.5,4.1,1.5s1.3,0,2.1-.2c.8-.2,1.5-.4,2.2-.8.5-.3.9-.4,1.3-.4.4,0,.7.2.9.4.2.2.4.5.4.9,0,.3,0,.7-.2,1.1s-.5.7-.9.9c-.8.5-1.8.9-2.9,1.2s-2.1.4-3,.4Z"/>
          <path class="cls-3" d="M656.2,824.7c-1.8,0-3.4-.4-4.8-1.1-1.3-.7-2.4-1.8-3.1-3.2-.7-1.4-1.1-3-1.1-4.9s.2-2.7.6-3.8,1-2.1,1.8-2.9c.8-.8,1.7-1.4,2.8-1.8,1.1-.4,2.3-.6,3.7-.6s3.4.4,4.8,1.1c1.3.7,2.4,1.8,3.1,3.2s1.1,3,1.1,4.9-.2,2.7-.6,3.8c-.4,1.1-1,2.1-1.8,2.9-.8.8-1.7,1.4-2.8,1.8-1.1.4-2.3.6-3.7.6ZM656.2,821.2c.9,0,1.7-.2,2.3-.6s1.2-1.1,1.6-1.9c.4-.9.6-1.9.6-3.2,0-1.9-.4-3.4-1.2-4.3-.8-.9-1.9-1.4-3.2-1.4s-1.7.2-2.3.6c-.7.4-1.2,1.1-1.6,1.9s-.6,1.9-.6,3.2c0,1.9.4,3.3,1.2,4.3.8,1,1.9,1.5,3.2,1.5Z"/>
          <path class="cls-3" d="M671.3,824.6c-.7,0-1.3-.2-1.7-.6-.4-.4-.6-1-.6-1.7v-13.6c0-.7.2-1.3.6-1.7.4-.4.9-.6,1.6-.6s1.2.2,1.6.6c.4.4.6.9.6,1.7v2.3h-.4c.3-1.4,1-2.5,2-3.3s2.3-1.2,3.9-1.3c.5,0,.9,0,1.2.4.3.3.5.8.5,1.4,0,.6,0,1.1-.4,1.5-.3.4-.8.6-1.5.7h-.8c-1.5.2-2.6.7-3.3,1.4-.7.8-1.1,1.8-1.1,3.2v7.5c0,.7-.2,1.3-.6,1.7-.4.4-.9.6-1.7.6Z"/>
          <path class="cls-3" d="M688.6,831.1c-.5,0-1-.1-1.3-.4-.3-.3-.5-.6-.6-1.1,0-.5,0-.9.2-1.4l2.4-5.4v1.9l-6.6-15.2c-.2-.5-.3-1-.2-1.5s.3-.8.7-1.1c.4-.3.9-.4,1.5-.4s1,.1,1.3.4c.3.3.6.7.9,1.4l4.9,12.1h-1.1l5-12.2c.3-.7.6-1.1.9-1.4.4-.3.8-.4,1.4-.4s.9.1,1.3.4c.3.3.5.6.6,1.1,0,.4,0,.9-.3,1.5l-8.7,20c-.3.7-.6,1.1-1,1.4-.4.2-.8.4-1.4.4Z"/>
        </g>
      </g>
      <rect class="cls-5" x="211.4" y="201.4" width="531.2" height="120.8" rx="28.3" ry="28.3"/>
      <g class="cls-4">
        <g class="cls-4">
          <path class="cls-2" d="M262.6,285.2c-.8,0-1.4-.2-1.8-.6-.4-.4-.6-1-.6-1.8v-21.8c0-.8.2-1.4.6-1.8.4-.4,1-.6,1.8-.6s1.4.2,1.8.6c.4.4.6,1,.6,1.8v3l-.4-1.2c.4-1.3,1.2-2.4,2.4-3.2,1.2-.8,2.6-1.2,4.2-1.2s3.1.4,4.4,1.2c1.3.8,2.2,1.9,2.9,3.4.7,1.5,1.1,3.2,1.1,5.3s-.4,3.8-1.1,5.3c-.7,1.5-1.7,2.6-2.9,3.5-1.2.8-2.7,1.2-4.4,1.2s-3-.4-4.2-1.2c-1.2-.8-2-1.8-2.4-3.1h.5v8.8c0,.8-.2,1.4-.6,1.8-.4.4-1,.6-1.8.6ZM269.8,274.6c1,0,1.8-.2,2.5-.7.7-.5,1.3-1.2,1.7-2.1.4-.9.6-2.1.6-3.5,0-2.1-.4-3.6-1.3-4.7-.9-1-2.1-1.5-3.5-1.5s-1.8.2-2.5.7c-.7.5-1.3,1.1-1.7,2.1-.4.9-.6,2.1-.6,3.5,0,2.1.4,3.6,1.3,4.7.9,1.1,2.1,1.6,3.5,1.6Z"/>
          <path class="cls-2" d="M290.5,278.3c-1.1,0-2.3-.1-3.5-.4-1.2-.2-2.4-.6-3.4-1.2-.4-.3-.7-.6-.9-.9-.2-.4-.2-.7-.2-1.1,0-.4.2-.7.4-.9.2-.3.5-.4.9-.5.4,0,.7,0,1.2.2,1,.5,2,.8,2.9,1,.9.2,1.8.3,2.7.3s2.2-.2,2.8-.6.9-1,.9-1.7-.2-1.1-.6-1.4c-.4-.3-1-.6-1.8-.7l-3.9-.7c-1.6-.3-2.8-.9-3.7-1.8-.8-.9-1.3-2-1.3-3.4s.3-2.3,1-3.2c.7-.9,1.6-1.6,2.9-2.1,1.2-.5,2.6-.7,4.2-.7s2.2.1,3.2.4c1,.2,2,.6,2.9,1.2.4.2.7.5.8.8.1.3.2.7,0,1,0,.4-.2.7-.5.9-.2.3-.5.4-.9.5-.4,0-.7,0-1.2-.2-.8-.4-1.6-.7-2.3-.9-.7-.2-1.4-.3-2.1-.3-1.3,0-2.2.2-2.8.7-.6.4-.9,1-.9,1.8s.2,1,.5,1.4c.4.4.9.6,1.7.7l3.9.7c1.7.3,3,.9,3.8,1.7s1.3,2,1.3,3.4-.7,3.4-2.2,4.5c-1.5,1.1-3.5,1.6-5.9,1.6Z"/>
          <path class="cls-2" d="M307,285.2c-.6,0-1-.2-1.4-.4-.4-.3-.6-.7-.6-1.2,0-.5,0-1,.3-1.6l2.7-5.9v2l-7.1-16.4c-.2-.6-.3-1.1-.2-1.6,0-.5.3-.9.7-1.2.4-.3,1-.4,1.7-.4s1.1.1,1.4.4c.4.3.7.8,1,1.5l5.3,13.1h-1.2l5.4-13.2c.3-.7.6-1.2,1-1.5.4-.3.9-.4,1.6-.4s1,.1,1.4.4.5.7.6,1.2c0,.5,0,1-.3,1.6l-9.5,21.6c-.3.7-.7,1.2-1.1,1.5-.4.3-.9.4-1.5.4Z"/>
          <path class="cls-2" d="M331.1,278.3c-2,0-3.7-.4-5.2-1.2-1.5-.8-2.6-2-3.4-3.5-.8-1.5-1.2-3.3-1.2-5.3s.2-2.9.7-4.1c.5-1.2,1.1-2.2,2-3.1.9-.8,1.9-1.5,3.1-2,1.2-.5,2.6-.7,4.1-.7s1.8.1,2.8.4c1,.2,1.9.6,2.8,1.2.4.3.7.6.8.9.1.4.2.7,0,1.1,0,.4-.2.7-.5,1-.2.3-.6.4-.9.5-.4,0-.8,0-1.2-.3-.6-.3-1.2-.6-1.8-.8-.6-.2-1.2-.3-1.7-.3-.9,0-1.6.1-2.3.4-.7.3-1.2.7-1.7,1.2-.5.5-.8,1.1-1,1.9-.2.8-.4,1.6-.4,2.6,0,1.9.5,3.4,1.4,4.5.9,1.1,2.2,1.7,3.9,1.7s1.1,0,1.7-.2,1.2-.4,1.8-.7c.4-.2.8-.3,1.2-.2.4,0,.6.3.9.5.2.3.4.6.4,1,0,.4,0,.7-.1,1.1-.1.4-.4.7-.8.9-.9.5-1.8.9-2.7,1.1-1,.2-1.9.4-2.7.4Z"/>
          <path class="cls-2" d="M343.1,278.2c-.8,0-1.4-.2-1.8-.6-.4-.4-.6-1-.6-1.9v-23.2c0-.8.2-1.4.6-1.8.4-.4,1-.6,1.8-.6s1.4.2,1.8.6c.4.4.6,1,.6,1.8v10.1h-.5c.6-1.4,1.5-2.4,2.7-3.1,1.2-.7,2.6-1.1,4.1-1.1s2.8.3,3.8.9c1,.6,1.7,1.4,2.2,2.6.5,1.2.7,2.6.7,4.4v9.4c0,.8-.2,1.4-.6,1.9-.4.4-1,.6-1.8.6s-1.4-.2-1.8-.6c-.4-.4-.6-1-.6-1.9v-9.2c0-1.5-.3-2.6-.8-3.2-.6-.7-1.4-1-2.6-1s-2.6.4-3.4,1.3c-.8.9-1.3,2.1-1.3,3.6v8.5c0,1.7-.8,2.5-2.5,2.5Z"/>
          <path class="cls-2" d="M372.2,278.3c-2,0-3.7-.4-5.1-1.2-1.5-.8-2.6-2-3.4-3.5-.8-1.5-1.2-3.3-1.2-5.3s.2-2.9.7-4.1c.5-1.2,1.1-2.2,2-3.1.9-.9,1.9-1.5,3.1-2,1.2-.5,2.5-.7,4-.7s3.7.4,5.1,1.2c1.5.8,2.6,2,3.4,3.4.8,1.5,1.2,3.2,1.2,5.3s-.2,2.9-.7,4.1c-.5,1.2-1.1,2.3-2,3.1s-1.9,1.5-3.1,2c-1.2.5-2.5.7-4,.7ZM372.2,274.6c1,0,1.8-.2,2.5-.7.7-.5,1.3-1.2,1.7-2.1.4-.9.6-2.1.6-3.5,0-2.1-.4-3.6-1.3-4.7-.9-1-2.1-1.5-3.5-1.5s-1.8.2-2.5.7-1.3,1.1-1.7,2.1c-.4.9-.6,2.1-.6,3.5,0,2.1.4,3.6,1.3,4.7.9,1.1,2.1,1.6,3.5,1.6Z"/>
          <path class="cls-2" d="M392.5,278.3c-2.2,0-3.8-.6-4.9-1.9-1.1-1.2-1.6-3-1.6-5.4v-18.4c0-.8.2-1.4.6-1.8.4-.4,1-.6,1.8-.6s1.4.2,1.8.6c.4.4.6,1,.6,1.8v18.2c0,1.2.3,2.1.8,2.7.5.6,1.2.9,2.2.9s.4,0,.6,0c.2,0,.4,0,.5,0,.4,0,.6,0,.7.3.1.2.2.7.2,1.5s-.1,1.2-.4,1.5c-.3.4-.7.6-1.3.7-.3,0-.5,0-.8,0-.3,0-.6,0-.9,0Z"/>
          <path class="cls-2" d="M406.9,278.3c-2,0-3.7-.4-5.1-1.2-1.5-.8-2.6-2-3.4-3.5-.8-1.5-1.2-3.3-1.2-5.3s.2-2.9.7-4.1c.5-1.2,1.1-2.2,2-3.1.9-.9,1.9-1.5,3.1-2,1.2-.5,2.5-.7,4-.7s3.7.4,5.1,1.2c1.5.8,2.6,2,3.4,3.4.8,1.5,1.2,3.2,1.2,5.3s-.2,2.9-.7,4.1c-.5,1.2-1.1,2.3-2,3.1s-1.9,1.5-3.1,2c-1.2.5-2.5.7-4,.7ZM406.9,274.6c1,0,1.8-.2,2.5-.7.7-.5,1.3-1.2,1.7-2.1.4-.9.6-2.1.6-3.5,0-2.1-.4-3.6-1.3-4.7-.9-1-2.1-1.5-3.5-1.5s-1.8.2-2.5.7-1.3,1.1-1.7,2.1c-.4.9-.6,2.1-.6,3.5,0,2.1.4,3.6,1.3,4.7.9,1.1,2.1,1.6,3.5,1.6Z"/>
          <path class="cls-2" d="M429.6,285.3c-1.4,0-2.8-.1-4.1-.4-1.3-.3-2.5-.7-3.6-1.2-.5-.3-.8-.6-1-.9-.2-.4-.2-.7-.2-1.1,0-.4.2-.7.5-1,.2-.3.6-.5.9-.6.4-.1.7,0,1.1.2,1.1.6,2.2.9,3.3,1.1,1,.2,1.9.3,2.6.3,1.7,0,3-.4,3.9-1.3.9-.8,1.3-2.1,1.3-3.8v-3.5h.4c-.4,1.3-1.2,2.4-2.4,3.2s-2.6,1.2-4.2,1.2-3.2-.4-4.5-1.2c-1.3-.8-2.3-1.9-3-3.3-.7-1.4-1.1-3.1-1.1-5s.2-2.7.6-3.9c.4-1.2,1-2.2,1.7-3,.7-.8,1.6-1.5,2.7-1.9,1.1-.5,2.2-.7,3.5-.7s3,.4,4.2,1.2,2,1.8,2.4,3.1l-.4,1v-2.8c0-.8.2-1.4.6-1.8.4-.4,1-.6,1.8-.6s1.4.2,1.8.6c.4.4.6,1,.6,1.8v15c0,3.1-.8,5.4-2.5,7-1.6,1.6-4,2.3-7.1,2.3ZM429.5,273.7c1,0,1.9-.2,2.6-.7.7-.5,1.3-1.1,1.7-2,.4-.9.6-1.9.6-3.1,0-1.8-.4-3.2-1.3-4.2-.9-1-2.1-1.5-3.6-1.5s-1.9.2-2.6.7c-.7.5-1.3,1.1-1.7,2-.4.9-.6,1.9-.6,3.1,0,1.8.4,3.2,1.3,4.3.9,1,2.1,1.6,3.6,1.6Z"/>
          <path class="cls-2" d="M446.7,254.9c-.9,0-1.6-.2-2.1-.7-.5-.5-.8-1.1-.8-1.9s.3-1.5.8-1.9c.5-.4,1.2-.7,2.1-.7s1.7.2,2.1.7c.5.4.7,1.1.7,1.9s-.2,1.4-.7,1.9c-.5.5-1.2.7-2.1.7ZM446.7,278.2c-.8,0-1.4-.2-1.8-.7-.4-.5-.6-1.1-.6-2v-14.3c0-.9.2-1.5.6-2,.4-.5,1-.7,1.8-.7s1.4.2,1.8.7c.4.5.6,1.1.6,2v14.3c0,.8-.2,1.5-.6,2-.4.5-1,.7-1.8.7Z"/>
          <path class="cls-2" d="M463,278.3c-2,0-3.7-.4-5.2-1.2-1.5-.8-2.6-2-3.4-3.5-.8-1.5-1.2-3.3-1.2-5.3s.2-2.9.7-4.1c.5-1.2,1.1-2.2,2-3.1.9-.8,1.9-1.5,3.1-2,1.2-.5,2.6-.7,4.1-.7s1.8.1,2.8.4c1,.2,1.9.6,2.8,1.2.4.3.7.6.8.9.1.4.2.7,0,1.1,0,.4-.2.7-.5,1-.2.3-.6.4-.9.5-.4,0-.8,0-1.2-.3-.6-.3-1.2-.6-1.8-.8-.6-.2-1.2-.3-1.7-.3-.9,0-1.6.1-2.3.4-.7.3-1.2.7-1.7,1.2-.5.5-.8,1.1-1,1.9-.2.8-.4,1.6-.4,2.6,0,1.9.5,3.4,1.4,4.5.9,1.1,2.2,1.7,3.9,1.7s1.1,0,1.7-.2,1.2-.4,1.8-.7c.4-.2.8-.3,1.2-.2.4,0,.6.3.9.5.2.3.4.6.4,1,0,.4,0,.7-.1,1.1-.1.4-.4.7-.8.9-.9.5-1.8.9-2.7,1.1-1,.2-1.9.4-2.7.4Z"/>
          <path class="cls-2" d="M478.8,278.3c-1.4,0-2.6-.3-3.7-.8-1.1-.5-1.9-1.3-2.5-2.2-.6-.9-.9-1.9-.9-3.1s.4-2.5,1.1-3.3c.7-.8,1.9-1.4,3.5-1.8,1.6-.4,3.8-.5,6.6-.5h1.9v2.8h-1.9c-1.6,0-2.9,0-3.9.2-1,.2-1.6.4-2,.8-.4.4-.6.9-.6,1.6s.3,1.6.9,2.1c.6.5,1.4.8,2.5.8s1.6-.2,2.3-.6,1.2-1,1.6-1.7c.4-.7.6-1.5.6-2.4v-4.5c0-1.3-.3-2.2-.9-2.8-.6-.6-1.5-.9-2.9-.9s-1.6,0-2.4.3c-.9.2-1.8.5-2.7.9-.5.2-.9.3-1.3.2-.4-.1-.7-.3-.9-.6-.2-.3-.3-.7-.3-1.1s.1-.8.3-1.2c.2-.4.6-.7,1.1-.8,1.2-.5,2.3-.8,3.5-1.1,1.1-.2,2.1-.3,3-.3,1.9,0,3.4.3,4.6.9,1.2.6,2.1,1.4,2.7,2.6.6,1.2.9,2.6.9,4.5v9.4c0,.8-.2,1.4-.6,1.9-.4.4-.9.6-1.7.6s-1.3-.2-1.7-.6c-.4-.4-.6-1-.6-1.9v-1.9h.3c-.2.9-.5,1.7-1.1,2.4-.5.7-1.2,1.2-2,1.5-.8.4-1.7.5-2.8.5Z"/>
          <path class="cls-2" d="M500.3,278.3c-2.2,0-3.8-.6-4.9-1.9-1.1-1.2-1.6-3-1.6-5.4v-18.4c0-.8.2-1.4.6-1.8.4-.4,1-.6,1.8-.6s1.4.2,1.8.6c.4.4.6,1,.6,1.8v18.2c0,1.2.3,2.1.8,2.7.5.6,1.2.9,2.2.9s.4,0,.6,0c.2,0,.4,0,.5,0,.4,0,.6,0,.7.3.1.2.2.7.2,1.5s-.1,1.2-.4,1.5c-.3.4-.7.6-1.3.7-.3,0-.5,0-.8,0-.3,0-.6,0-.9,0Z"/>
          <path class="cls-2" d="M519.2,285.2c-.8,0-1.4-.2-1.8-.6s-.6-1-.6-1.8v-21.8c0-.8.2-1.4.6-1.8s1-.6,1.8-.6,1.4.2,1.8.6.6,1,.6,1.8v3l-.4-1.2c.4-1.3,1.2-2.4,2.4-3.2,1.2-.8,2.6-1.2,4.2-1.2s3.1.4,4.4,1.2c1.3.8,2.2,1.9,2.9,3.4.7,1.5,1.1,3.2,1.1,5.3s-.4,3.8-1.1,5.3-1.7,2.6-2.9,3.5c-1.2.8-2.7,1.2-4.4,1.2s-3-.4-4.2-1.2c-1.2-.8-2-1.8-2.4-3.1h.5v8.8c0,.8-.2,1.4-.6,1.8s-1,.6-1.8.6ZM526.5,274.6c1,0,1.8-.2,2.5-.7.7-.5,1.3-1.2,1.7-2.1s.6-2.1.6-3.5c0-2.1-.4-3.6-1.3-4.7-.9-1-2.1-1.5-3.5-1.5s-1.8.2-2.5.7-1.3,1.1-1.7,2.1c-.4.9-.6,2.1-.6,3.5,0,2.1.4,3.6,1.3,4.7s2.1,1.6,3.5,1.6Z"/>
          <path class="cls-2" d="M542.7,278.2c-.8,0-1.4-.2-1.9-.6-.4-.4-.6-1-.6-1.9v-14.7c0-.8.2-1.4.6-1.8s1-.6,1.8-.6,1.3.2,1.8.6.6,1,.6,1.8v2.5h-.4c.4-1.6,1.1-2.7,2.1-3.5s2.5-1.3,4.3-1.4c.5,0,1,0,1.3.4.3.3.5.8.6,1.5,0,.7,0,1.2-.4,1.6-.4.4-.9.6-1.6.7h-.9c-1.6.2-2.8.7-3.6,1.5-.8.8-1.2,2-1.2,3.5v8.1c0,.8-.2,1.4-.6,1.9-.4.4-1,.6-1.8.6Z"/>
          <path class="cls-2" d="M557.9,254.9c-.9,0-1.6-.2-2.1-.7-.5-.5-.8-1.1-.8-1.9s.3-1.5.8-1.9c.5-.4,1.2-.7,2.1-.7s1.7.2,2.1.7c.5.4.7,1.1.7,1.9s-.2,1.4-.7,1.9-1.2.7-2.1.7ZM557.9,278.2c-.8,0-1.4-.2-1.8-.7-.4-.5-.6-1.1-.6-2v-14.3c0-.9.2-1.5.6-2,.4-.5,1-.7,1.8-.7s1.4.2,1.8.7.6,1.1.6,2v14.3c0,.8-.2,1.5-.6,2-.4.5-1,.7-1.8.7Z"/>
          <path class="cls-2" d="M567.9,278.2c-.8,0-1.4-.2-1.8-.6-.4-.4-.6-1-.6-1.9v-14.7c0-.8.2-1.4.6-1.8.4-.4,1-.6,1.8-.6s1.3.2,1.8.6.6,1,.6,1.8v2.7l-.4-1c.6-1.4,1.5-2.4,2.7-3.1,1.2-.7,2.6-1.1,4.1-1.1s2.8.3,3.8.9c1,.6,1.7,1.4,2.2,2.6.5,1.2.7,2.6.7,4.4v9.4c0,.8-.2,1.4-.6,1.9-.4.4-1,.6-1.8.6s-1.4-.2-1.8-.6c-.4-.4-.6-1-.6-1.9v-9.2c0-1.5-.3-2.6-.8-3.2-.6-.7-1.4-1-2.6-1s-2.6.4-3.4,1.3c-.8.9-1.3,2.1-1.3,3.6v8.5c0,1.7-.8,2.5-2.5,2.5Z"/>
          <path class="cls-2" d="M597.1,278.3c-2,0-3.7-.4-5.2-1.2-1.5-.8-2.6-2-3.4-3.5-.8-1.5-1.2-3.3-1.2-5.3s.2-2.9.7-4.1,1.1-2.2,2-3.1c.9-.8,1.9-1.5,3.1-2,1.2-.5,2.6-.7,4.1-.7s1.8.1,2.8.4c1,.2,1.9.6,2.8,1.2.4.3.7.6.8.9.1.4.2.7,0,1.1s-.2.7-.5,1c-.2.3-.6.4-.9.5s-.8,0-1.2-.3c-.6-.3-1.2-.6-1.8-.8-.6-.2-1.2-.3-1.7-.3-.9,0-1.6.1-2.3.4-.6.3-1.2.7-1.7,1.2s-.8,1.1-1,1.9c-.2.8-.4,1.6-.4,2.6,0,1.9.5,3.4,1.4,4.5.9,1.1,2.2,1.7,3.9,1.7s1.1,0,1.7-.2,1.2-.4,1.8-.7c.4-.2.8-.3,1.2-.2.4,0,.6.3.9.5.2.3.4.6.4,1,0,.4,0,.7-.1,1.1-.1.4-.4.7-.8.9-.9.5-1.8.9-2.7,1.1s-1.9.4-2.7.4Z"/>
          <path class="cls-2" d="M609.1,254.9c-.9,0-1.6-.2-2.1-.7-.5-.5-.8-1.1-.8-1.9s.3-1.5.8-1.9c.5-.4,1.2-.7,2.1-.7s1.7.2,2.1.7c.5.4.7,1.1.7,1.9s-.2,1.4-.7,1.9-1.2.7-2.1.7ZM609.1,278.2c-.8,0-1.4-.2-1.8-.7-.4-.5-.6-1.1-.6-2v-14.3c0-.9.2-1.5.6-2,.4-.5,1-.7,1.8-.7s1.4.2,1.8.7.6,1.1.6,2v14.3c0,.8-.2,1.5-.6,2-.4.5-1,.7-1.8.7Z"/>
          <path class="cls-2" d="M619,285.2c-.8,0-1.4-.2-1.8-.6-.4-.4-.6-1-.6-1.8v-21.8c0-.8.2-1.4.6-1.8.4-.4,1-.6,1.8-.6s1.4.2,1.8.6.6,1,.6,1.8v3l-.4-1.2c.4-1.3,1.2-2.4,2.4-3.2,1.2-.8,2.6-1.2,4.2-1.2s3.1.4,4.4,1.2c1.3.8,2.2,1.9,2.9,3.4.7,1.5,1.1,3.2,1.1,5.3s-.4,3.8-1.1,5.3-1.7,2.6-2.9,3.5c-1.2.8-2.7,1.2-4.4,1.2s-3-.4-4.2-1.2c-1.2-.8-2-1.8-2.4-3.1h.5v8.8c0,.8-.2,1.4-.6,1.8s-1,.6-1.8.6ZM626.3,274.6c1,0,1.8-.2,2.5-.7.7-.5,1.3-1.2,1.7-2.1s.6-2.1.6-3.5c0-2.1-.4-3.6-1.3-4.7-.9-1-2.1-1.5-3.5-1.5s-1.8.2-2.5.7-1.3,1.1-1.7,2.1c-.4.9-.6,2.1-.6,3.5,0,2.1.4,3.6,1.3,4.7.9,1.1,2.1,1.6,3.5,1.6Z"/>
          <path class="cls-2" d="M646.5,278.3c-2.2,0-3.8-.6-4.9-1.9-1.1-1.2-1.6-3-1.6-5.4v-18.4c0-.8.2-1.4.6-1.8.4-.4,1-.6,1.8-.6s1.4.2,1.8.6.6,1,.6,1.8v18.2c0,1.2.3,2.1.8,2.7.5.6,1.2.9,2.2.9s.4,0,.6,0c.2,0,.4,0,.5,0,.4,0,.6,0,.7.3.1.2.2.7.2,1.5s-.1,1.2-.4,1.5-.7.6-1.3.7c-.3,0-.5,0-.8,0-.3,0-.6,0-.9,0Z"/>
          <path class="cls-2" d="M661.7,278.3c-2.2,0-4-.4-5.6-1.2-1.6-.8-2.8-1.9-3.6-3.4s-1.3-3.2-1.3-5.3.4-3.7,1.2-5.2c.8-1.5,1.9-2.6,3.4-3.5s3.1-1.3,4.9-1.3,2.6.2,3.6.7c1.1.4,2,1.1,2.8,1.9s1.4,1.8,1.8,3c.4,1.2.6,2.5.6,4s-.2.8-.5,1.1c-.3.2-.8.4-1.4.4h-12.5v-2.8h11l-.6.6c0-1.2-.2-2.2-.5-3-.4-.8-.9-1.4-1.5-1.9-.7-.4-1.5-.6-2.5-.6s-2,.3-2.8.8-1.4,1.2-1.8,2.1c-.4.9-.6,2-.6,3.3v.3c0,2.1.5,3.7,1.5,4.8,1,1.1,2.5,1.6,4.4,1.6s1.4,0,2.3-.3c.8-.2,1.6-.5,2.4-.9.5-.3,1-.4,1.4-.4s.7.2,1,.4c.2.3.4.6.4,1,0,.4,0,.8-.2,1.2-.2.4-.5.7-1,1-.9.6-2,1-3.1,1.3-1.2.3-2.3.4-3.3.4Z"/>
          <path class="cls-2" d="M680.4,278.3c-1.1,0-2.3-.1-3.5-.4s-2.4-.6-3.4-1.2c-.4-.3-.7-.6-.9-.9-.2-.4-.2-.7-.2-1.1,0-.4.2-.7.4-.9.2-.3.5-.4.9-.5.4,0,.7,0,1.2.2,1,.5,2,.8,2.9,1,.9.2,1.8.3,2.7.3s2.2-.2,2.8-.6c.6-.4.9-1,.9-1.7s-.2-1.1-.6-1.4c-.4-.3-1-.6-1.8-.7l-3.9-.7c-1.6-.3-2.8-.9-3.7-1.8-.8-.9-1.3-2-1.3-3.4s.3-2.3,1-3.2c.7-.9,1.6-1.6,2.9-2.1s2.6-.7,4.2-.7,2.2.1,3.2.4c1,.2,2,.6,2.9,1.2.4.2.7.5.8.8.1.3.2.7,0,1,0,.4-.2.7-.5.9-.2.3-.5.4-.9.5-.4,0-.7,0-1.2-.2-.8-.4-1.6-.7-2.3-.9s-1.5-.3-2.1-.3c-1.3,0-2.2.2-2.8.7-.6.4-.9,1-.9,1.8s.2,1,.5,1.4c.4.4.9.6,1.7.7l3.9.7c1.7.3,3,.9,3.8,1.7s1.3,2,1.3,3.4-.7,3.4-2.2,4.5c-1.5,1.1-3.5,1.6-5.9,1.6Z"/>
        </g>
      </g>
    </g>
  </g>
</svg>