<?xml version="1.0" encoding="UTF-8"?>
<svg xmlns="http://www.w3.org/2000/svg" xmlns:xlink="http://www.w3.org/1999/xlink" version="1.1" viewBox="0 0 1024 1280">
  <defs>
    <style>
      .cls-1, .cls-2, .cls-3, .cls-4 {
        fill: none;
      }

      .cls-5 {
        stroke: #e5e5e5;
      }

      .cls-5, .cls-2, .cls-6, .cls-3 {
        stroke-miterlimit: 10;
      }

      .cls-5, .cls-2, .cls-3 {
        stroke-width: 5px;
      }

      .cls-5, .cls-7 {
        fill: #fff;
      }

      .cls-8 {
        opacity: .3;
      }

      .cls-8, .cls-9 {
        isolation: isolate;
      }

      .cls-8, .cls-10 {
        fill: #afafaf;
      }

      .cls-11 {
        fill: #f49000;
      }

      .cls-2, .cls-3 {
        stroke: #ff9600;
      }

      .cls-2, .cls-4 {
        stroke-linecap: round;
      }

      .cls-12 {
        fill: #ffde00;
      }

      .cls-13 {
        fill: #ffd900;
      }

      .cls-6 {
        fill: #ff97b6;
        stroke: #ed7197;
      }

      .cls-6, .cls-4 {
        stroke-width: 1.9px;
      }

      .cls-14 {
        fill: #f7c100;
      }

      .cls-15 {
        fill: #ddf4ff;
      }

      .cls-16 {
        fill: #e5e5e5;
      }

      .cls-17 {
        fill: #58cc02;
      }

      .cls-18 {
        fill: #fe7098;
      }

      .cls-19 {
        fill: #ff9600;
      }

      .cls-20 {
        fill: #b66e28;
      }

      .cls-21 {
        fill: #89e219;
      }

      .cls-4 {
        stroke: #ed7097;
        stroke-linejoin: round;
      }

      .cls-22 {
        fill: #1cb0f6;
      }

      .cls-23 {
        fill: #ffc200;
      }

      .cls-24 {
        fill: #4b4b4b;
      }

      .cls-25 {
        clip-path: url(#clippath);
      }

      .cls-26 {
        fill: #ffef8e;
      }
    </style>
    <clipPath id="clippath">
      <rect class="cls-1" x="599.6" y="641.1" width="82.4" height="108.7" transform="translate(-199.9 1128.5) rotate(-74.6)"/>
    </clipPath>
  </defs>
  <!-- Generator: Adobe Illustrator 28.7.4, SVG Export Plug-In . SVG Version: 1.2.0 Build 166)  -->
  <g>
    <g id="Ebene_1">
      <g>
        <g>
          <path class="cls-22" d="M284,744.6c-2.2,0-4.3-.7-6.1-1.9l-16.4-11.2c-2.9-2-4.7-5.4-4.7-8.9v-24.8c0-3.6,1.8-6.9,4.7-8.9l16.4-11.3c1.8-1.2,3.9-1.9,6.1-1.9s4.3.7,6.1,1.9l16.4,11.2c2.9,2,4.7,5.4,4.7,8.9v24.8c0,3.6-1.8,6.9-4.7,8.9l-16.4,11.2c-1.8,1.2-3.9,1.9-6.1,1.9h0Z"/>
          <path class="cls-7" d="M284,679c1.5,0,2.9.4,4.2,1.3l16.4,11.2c2,1.4,3.2,3.7,3.2,6.1v24.8c0,2.4-1.2,4.7-3.2,6.1l-16.4,11.2c-1.3.9-2.7,1.3-4.2,1.3s-2.9-.4-4.2-1.3l-16.4-11.2c-2-1.4-3.2-3.7-3.2-6.1v-24.8c0-2.4,1.2-4.7,3.2-6.1l16.4-11.2c1.3-.9,2.7-1.3,4.2-1.3M284,672.2c-2.9,0-5.7.9-8,2.5l-16.4,11.2c-3.9,2.7-6.2,7-6.2,11.7v24.8c0,4.7,2.3,9.1,6.2,11.7l16.4,11.2c2.4,1.6,5.2,2.5,8,2.5s5.7-.9,8-2.5l16.4-11.2c3.9-2.7,6.2-7,6.2-11.7v-24.8c0-4.7-2.3-9.1-6.2-11.7l-16.4-11.2c-2.4-1.6-5.2-2.5-8-2.5h0Z"/>
        </g>
        <path class="cls-15" d="M282.3,695.5l-8.8,6-7.5-3.1c-2-.8-2.3-3.6-.5-4.9l14.3-9.7c1.8-1.2,4.2.2,4.1,2.5l-.4,7.1c0,.9-.5,1.7-1.2,2.1h0Z"/>
      </g>
      <rect class="cls-19" x="211.4" y="201.4" width="531.2" height="120.8" rx="28.3" ry="28.3"/>
      <g class="cls-9">
        <g class="cls-9">
          <path class="cls-7" d="M262.6,285.2c-.8,0-1.4-.2-1.8-.6-.4-.4-.6-1-.6-1.8v-21.8c0-.8.2-1.4.6-1.8.4-.4,1-.6,1.8-.6s1.4.2,1.8.6c.4.4.6,1,.6,1.8v3l-.4-1.2c.4-1.3,1.2-2.4,2.4-3.2,1.2-.8,2.6-1.2,4.2-1.2s3.1.4,4.4,1.2c1.3.8,2.2,1.9,2.9,3.4.7,1.5,1.1,3.2,1.1,5.3s-.4,3.8-1.1,5.3c-.7,1.5-1.7,2.6-2.9,3.5-1.2.8-2.7,1.2-4.4,1.2s-3-.4-4.2-1.2c-1.2-.8-2-1.8-2.4-3.1h.5v8.8c0,.8-.2,1.4-.6,1.8-.4.4-1,.6-1.8.6ZM269.8,274.6c1,0,1.8-.2,2.5-.7.7-.5,1.3-1.2,1.7-2.1.4-.9.6-2.1.6-3.5,0-2.1-.4-3.6-1.3-4.7-.9-1-2.1-1.5-3.5-1.5s-1.8.2-2.5.7c-.7.5-1.3,1.1-1.7,2.1-.4.9-.6,2.1-.6,3.5,0,2.1.4,3.6,1.3,4.7.9,1.1,2.1,1.6,3.5,1.6Z"/>
          <path class="cls-7" d="M290.5,278.3c-1.1,0-2.3-.1-3.5-.4-1.2-.2-2.4-.6-3.4-1.2-.4-.3-.7-.6-.9-.9-.2-.4-.2-.7-.2-1.1,0-.4.2-.7.4-.9.2-.3.5-.4.9-.5.4,0,.7,0,1.2.2,1,.5,2,.8,2.9,1,.9.2,1.8.3,2.7.3s2.2-.2,2.8-.6.9-1,.9-1.7-.2-1.1-.6-1.4c-.4-.3-1-.6-1.8-.7l-3.9-.7c-1.6-.3-2.8-.9-3.7-1.8-.8-.9-1.3-2-1.3-3.4s.3-2.3,1-3.2c.7-.9,1.6-1.6,2.9-2.1,1.2-.5,2.6-.7,4.2-.7s2.2.1,3.2.4c1,.2,2,.6,2.9,1.2.4.2.7.5.8.8.1.3.2.7,0,1,0,.4-.2.7-.5.9-.2.3-.5.4-.9.5-.4,0-.7,0-1.2-.2-.8-.4-1.6-.7-2.3-.9-.7-.2-1.4-.3-2.1-.3-1.3,0-2.2.2-2.8.7-.6.4-.9,1-.9,1.8s.2,1,.5,1.4c.4.4.9.6,1.7.7l3.9.7c1.7.3,3,.9,3.8,1.7s1.3,2,1.3,3.4-.7,3.4-2.2,4.5c-1.5,1.1-3.5,1.6-5.9,1.6Z"/>
          <path class="cls-7" d="M307,285.2c-.6,0-1-.2-1.4-.4-.4-.3-.6-.7-.6-1.2,0-.5,0-1,.3-1.6l2.7-5.9v2l-7.1-16.4c-.2-.6-.3-1.1-.2-1.6,0-.5.3-.9.7-1.2.4-.3,1-.4,1.7-.4s1.1.1,1.4.4c.4.3.7.8,1,1.5l5.3,13.1h-1.2l5.4-13.2c.3-.7.6-1.2,1-1.5.4-.3.9-.4,1.6-.4s1,.1,1.4.4.5.7.6,1.2c0,.5,0,1-.3,1.6l-9.5,21.6c-.3.7-.7,1.2-1.1,1.5-.4.3-.9.4-1.5.4Z"/>
          <path class="cls-7" d="M331.1,278.3c-2,0-3.7-.4-5.2-1.2-1.5-.8-2.6-2-3.4-3.5-.8-1.5-1.2-3.3-1.2-5.3s.2-2.9.7-4.1c.5-1.2,1.1-2.2,2-3.1.9-.8,1.9-1.5,3.1-2,1.2-.5,2.6-.7,4.1-.7s1.8.1,2.8.4c1,.2,1.9.6,2.8,1.2.4.3.7.6.8.9.1.4.2.7,0,1.1,0,.4-.2.7-.5,1-.2.3-.6.4-.9.5-.4,0-.8,0-1.2-.3-.6-.3-1.2-.6-1.8-.8-.6-.2-1.2-.3-1.7-.3-.9,0-1.6.1-2.3.4-.7.3-1.2.7-1.7,1.2-.5.5-.8,1.1-1,1.9-.2.8-.4,1.6-.4,2.6,0,1.9.5,3.4,1.4,4.5.9,1.1,2.2,1.7,3.9,1.7s1.1,0,1.7-.2,1.2-.4,1.8-.7c.4-.2.8-.3,1.2-.2.4,0,.6.3.9.5.2.3.4.6.4,1,0,.4,0,.7-.1,1.1-.1.4-.4.7-.8.9-.9.5-1.8.9-2.7,1.1-1,.2-1.9.4-2.7.4Z"/>
          <path class="cls-7" d="M343.1,278.2c-.8,0-1.4-.2-1.8-.6-.4-.4-.6-1-.6-1.9v-23.2c0-.8.2-1.4.6-1.8.4-.4,1-.6,1.8-.6s1.4.2,1.8.6c.4.4.6,1,.6,1.8v10.1h-.5c.6-1.4,1.5-2.4,2.7-3.1,1.2-.7,2.6-1.1,4.1-1.1s2.8.3,3.8.9c1,.6,1.7,1.4,2.2,2.6.5,1.2.7,2.6.7,4.4v9.4c0,.8-.2,1.4-.6,1.9-.4.4-1,.6-1.8.6s-1.4-.2-1.8-.6c-.4-.4-.6-1-.6-1.9v-9.2c0-1.5-.3-2.6-.8-3.2-.6-.7-1.4-1-2.6-1s-2.6.4-3.4,1.3c-.8.9-1.3,2.1-1.3,3.6v8.5c0,1.7-.8,2.5-2.5,2.5Z"/>
          <path class="cls-7" d="M372.2,278.3c-2,0-3.7-.4-5.1-1.2-1.5-.8-2.6-2-3.4-3.5-.8-1.5-1.2-3.3-1.2-5.3s.2-2.9.7-4.1c.5-1.2,1.1-2.2,2-3.1.9-.9,1.9-1.5,3.1-2,1.2-.5,2.5-.7,4-.7s3.7.4,5.1,1.2c1.5.8,2.6,2,3.4,3.4.8,1.5,1.2,3.2,1.2,5.3s-.2,2.9-.7,4.1c-.5,1.2-1.1,2.3-2,3.1s-1.9,1.5-3.1,2c-1.2.5-2.5.7-4,.7ZM372.2,274.6c1,0,1.8-.2,2.5-.7.7-.5,1.3-1.2,1.7-2.1.4-.9.6-2.1.6-3.5,0-2.1-.4-3.6-1.3-4.7-.9-1-2.1-1.5-3.5-1.5s-1.8.2-2.5.7-1.3,1.1-1.7,2.1c-.4.9-.6,2.1-.6,3.5,0,2.1.4,3.6,1.3,4.7.9,1.1,2.1,1.6,3.5,1.6Z"/>
          <path class="cls-7" d="M392.5,278.3c-2.2,0-3.8-.6-4.9-1.9-1.1-1.2-1.6-3-1.6-5.4v-18.4c0-.8.2-1.4.6-1.8.4-.4,1-.6,1.8-.6s1.4.2,1.8.6c.4.4.6,1,.6,1.8v18.2c0,1.2.3,2.1.8,2.7.5.6,1.2.9,2.2.9s.4,0,.6,0c.2,0,.4,0,.5,0,.4,0,.6,0,.7.3.1.2.2.7.2,1.5s-.1,1.2-.4,1.5c-.3.4-.7.6-1.3.7-.3,0-.5,0-.8,0-.3,0-.6,0-.9,0Z"/>
          <path class="cls-7" d="M406.9,278.3c-2,0-3.7-.4-5.1-1.2-1.5-.8-2.6-2-3.4-3.5-.8-1.5-1.2-3.3-1.2-5.3s.2-2.9.7-4.1c.5-1.2,1.1-2.2,2-3.1.9-.9,1.9-1.5,3.1-2,1.2-.5,2.5-.7,4-.7s3.7.4,5.1,1.2c1.5.8,2.6,2,3.4,3.4.8,1.5,1.2,3.2,1.2,5.3s-.2,2.9-.7,4.1c-.5,1.2-1.1,2.3-2,3.1s-1.9,1.5-3.1,2c-1.2.5-2.5.7-4,.7ZM406.9,274.6c1,0,1.8-.2,2.5-.7.7-.5,1.3-1.2,1.7-2.1.4-.9.6-2.1.6-3.5,0-2.1-.4-3.6-1.3-4.7-.9-1-2.1-1.5-3.5-1.5s-1.8.2-2.5.7-1.3,1.1-1.7,2.1c-.4.9-.6,2.1-.6,3.5,0,2.1.4,3.6,1.3,4.7.9,1.1,2.1,1.6,3.5,1.6Z"/>
          <path class="cls-7" d="M429.6,285.3c-1.4,0-2.8-.1-4.1-.4-1.3-.3-2.5-.7-3.6-1.2-.5-.3-.8-.6-1-.9-.2-.4-.2-.7-.2-1.1,0-.4.2-.7.5-1,.2-.3.6-.5.9-.6.4-.1.7,0,1.1.2,1.1.6,2.2.9,3.3,1.1,1,.2,1.9.3,2.6.3,1.7,0,3-.4,3.9-1.3.9-.8,1.3-2.1,1.3-3.8v-3.5h.4c-.4,1.3-1.2,2.4-2.4,3.2s-2.6,1.2-4.2,1.2-3.2-.4-4.5-1.2c-1.3-.8-2.3-1.9-3-3.3-.7-1.4-1.1-3.1-1.1-5s.2-2.7.6-3.9c.4-1.2,1-2.2,1.7-3,.7-.8,1.6-1.5,2.7-1.9,1.1-.5,2.2-.7,3.5-.7s3,.4,4.2,1.2,2,1.8,2.4,3.1l-.4,1v-2.8c0-.8.2-1.4.6-1.8.4-.4,1-.6,1.8-.6s1.4.2,1.8.6c.4.4.6,1,.6,1.8v15c0,3.1-.8,5.4-2.5,7-1.6,1.6-4,2.3-7.1,2.3ZM429.5,273.7c1,0,1.9-.2,2.6-.7.7-.5,1.3-1.1,1.7-2,.4-.9.6-1.9.6-3.1,0-1.8-.4-3.2-1.3-4.2-.9-1-2.1-1.5-3.6-1.5s-1.9.2-2.6.7c-.7.5-1.3,1.1-1.7,2-.4.9-.6,1.9-.6,3.1,0,1.8.4,3.2,1.3,4.3.9,1,2.1,1.6,3.6,1.6Z"/>
          <path class="cls-7" d="M446.7,254.9c-.9,0-1.6-.2-2.1-.7-.5-.5-.8-1.1-.8-1.9s.3-1.5.8-1.9c.5-.4,1.2-.7,2.1-.7s1.7.2,2.1.7c.5.4.7,1.1.7,1.9s-.2,1.4-.7,1.9c-.5.5-1.2.7-2.1.7ZM446.7,278.2c-.8,0-1.4-.2-1.8-.7-.4-.5-.6-1.1-.6-2v-14.3c0-.9.2-1.5.6-2,.4-.5,1-.7,1.8-.7s1.4.2,1.8.7c.4.5.6,1.1.6,2v14.3c0,.8-.2,1.5-.6,2-.4.5-1,.7-1.8.7Z"/>
          <path class="cls-7" d="M463,278.3c-2,0-3.7-.4-5.2-1.2-1.5-.8-2.6-2-3.4-3.5-.8-1.5-1.2-3.3-1.2-5.3s.2-2.9.7-4.1c.5-1.2,1.1-2.2,2-3.1.9-.8,1.9-1.5,3.1-2,1.2-.5,2.6-.7,4.1-.7s1.8.1,2.8.4c1,.2,1.9.6,2.8,1.2.4.3.7.6.8.9.1.4.2.7,0,1.1,0,.4-.2.7-.5,1-.2.3-.6.4-.9.5-.4,0-.8,0-1.2-.3-.6-.3-1.2-.6-1.8-.8-.6-.2-1.2-.3-1.7-.3-.9,0-1.6.1-2.3.4-.7.3-1.2.7-1.7,1.2-.5.5-.8,1.1-1,1.9-.2.8-.4,1.6-.4,2.6,0,1.9.5,3.4,1.4,4.5.9,1.1,2.2,1.7,3.9,1.7s1.1,0,1.7-.2,1.2-.4,1.8-.7c.4-.2.8-.3,1.2-.2.4,0,.6.3.9.5.2.3.4.6.4,1,0,.4,0,.7-.1,1.1-.1.4-.4.7-.8.9-.9.5-1.8.9-2.7,1.1-1,.2-1.9.4-2.7.4Z"/>
          <path class="cls-7" d="M478.8,278.3c-1.4,0-2.6-.3-3.7-.8-1.1-.5-1.9-1.3-2.5-2.2-.6-.9-.9-1.9-.9-3.1s.4-2.5,1.1-3.3c.7-.8,1.9-1.4,3.5-1.8,1.6-.4,3.8-.5,6.6-.5h1.9v2.8h-1.9c-1.6,0-2.9,0-3.9.2-1,.2-1.6.4-2,.8-.4.4-.6.9-.6,1.6s.3,1.6.9,2.1c.6.5,1.4.8,2.5.8s1.6-.2,2.3-.6,1.2-1,1.6-1.7c.4-.7.6-1.5.6-2.4v-4.5c0-1.3-.3-2.2-.9-2.8-.6-.6-1.5-.9-2.9-.9s-1.6,0-2.4.3c-.9.2-1.8.5-2.7.9-.5.2-.9.3-1.3.2-.4-.1-.7-.3-.9-.6-.2-.3-.3-.7-.3-1.1s.1-.8.3-1.2c.2-.4.6-.7,1.1-.8,1.2-.5,2.3-.8,3.5-1.1,1.1-.2,2.1-.3,3-.3,1.9,0,3.4.3,4.6.9,1.2.6,2.1,1.4,2.7,2.6.6,1.2.9,2.6.9,4.5v9.4c0,.8-.2,1.4-.6,1.9-.4.4-.9.6-1.7.6s-1.3-.2-1.7-.6c-.4-.4-.6-1-.6-1.9v-1.9h.3c-.2.9-.5,1.7-1.1,2.4-.5.7-1.2,1.2-2,1.5-.8.4-1.7.5-2.8.5Z"/>
          <path class="cls-7" d="M500.3,278.3c-2.2,0-3.8-.6-4.9-1.9-1.1-1.2-1.6-3-1.6-5.4v-18.4c0-.8.2-1.4.6-1.8.4-.4,1-.6,1.8-.6s1.4.2,1.8.6c.4.4.6,1,.6,1.8v18.2c0,1.2.3,2.1.8,2.7.5.6,1.2.9,2.2.9s.4,0,.6,0c.2,0,.4,0,.5,0,.4,0,.6,0,.7.3.1.2.2.7.2,1.5s-.1,1.2-.4,1.5c-.3.4-.7.6-1.3.7-.3,0-.5,0-.8,0-.3,0-.6,0-.9,0Z"/>
          <path class="cls-7" d="M519.2,285.2c-.8,0-1.4-.2-1.8-.6s-.6-1-.6-1.8v-21.8c0-.8.2-1.4.6-1.8s1-.6,1.8-.6,1.4.2,1.8.6.6,1,.6,1.8v3l-.4-1.2c.4-1.3,1.2-2.4,2.4-3.2,1.2-.8,2.6-1.2,4.2-1.2s3.1.4,4.4,1.2c1.3.8,2.2,1.9,2.9,3.4.7,1.5,1.1,3.2,1.1,5.3s-.4,3.8-1.1,5.3-1.7,2.6-2.9,3.5c-1.2.8-2.7,1.2-4.4,1.2s-3-.4-4.2-1.2c-1.2-.8-2-1.8-2.4-3.1h.5v8.8c0,.8-.2,1.4-.6,1.8s-1,.6-1.8.6ZM526.5,274.6c1,0,1.8-.2,2.5-.7.7-.5,1.3-1.2,1.7-2.1s.6-2.1.6-3.5c0-2.1-.4-3.6-1.3-4.7-.9-1-2.1-1.5-3.5-1.5s-1.8.2-2.5.7-1.3,1.1-1.7,2.1c-.4.9-.6,2.1-.6,3.5,0,2.1.4,3.6,1.3,4.7s2.1,1.6,3.5,1.6Z"/>
          <path class="cls-7" d="M542.7,278.2c-.8,0-1.4-.2-1.9-.6-.4-.4-.6-1-.6-1.9v-14.7c0-.8.2-1.4.6-1.8s1-.6,1.8-.6,1.3.2,1.8.6.6,1,.6,1.8v2.5h-.4c.4-1.6,1.1-2.7,2.1-3.5s2.5-1.3,4.3-1.4c.5,0,1,0,1.3.4.3.3.5.8.6,1.5,0,.7,0,1.2-.4,1.6-.4.4-.9.6-1.6.7h-.9c-1.6.2-2.8.7-3.6,1.5-.8.8-1.2,2-1.2,3.5v8.1c0,.8-.2,1.4-.6,1.9-.4.4-1,.6-1.8.6Z"/>
          <path class="cls-7" d="M557.9,254.9c-.9,0-1.6-.2-2.1-.7-.5-.5-.8-1.1-.8-1.9s.3-1.5.8-1.9c.5-.4,1.2-.7,2.1-.7s1.7.2,2.1.7c.5.4.7,1.1.7,1.9s-.2,1.4-.7,1.9-1.2.7-2.1.7ZM557.9,278.2c-.8,0-1.4-.2-1.8-.7-.4-.5-.6-1.1-.6-2v-14.3c0-.9.2-1.5.6-2,.4-.5,1-.7,1.8-.7s1.4.2,1.8.7.6,1.1.6,2v14.3c0,.8-.2,1.5-.6,2-.4.5-1,.7-1.8.7Z"/>
          <path class="cls-7" d="M567.9,278.2c-.8,0-1.4-.2-1.8-.6-.4-.4-.6-1-.6-1.9v-14.7c0-.8.2-1.4.6-1.8.4-.4,1-.6,1.8-.6s1.3.2,1.8.6.6,1,.6,1.8v2.7l-.4-1c.6-1.4,1.5-2.4,2.7-3.1,1.2-.7,2.6-1.1,4.1-1.1s2.8.3,3.8.9c1,.6,1.7,1.4,2.2,2.6.5,1.2.7,2.6.7,4.4v9.4c0,.8-.2,1.4-.6,1.9-.4.4-1,.6-1.8.6s-1.4-.2-1.8-.6c-.4-.4-.6-1-.6-1.9v-9.2c0-1.5-.3-2.6-.8-3.2-.6-.7-1.4-1-2.6-1s-2.6.4-3.4,1.3c-.8.9-1.3,2.1-1.3,3.6v8.5c0,1.7-.8,2.5-2.5,2.5Z"/>
          <path class="cls-7" d="M597.1,278.3c-2,0-3.7-.4-5.2-1.2-1.5-.8-2.6-2-3.4-3.5-.8-1.5-1.2-3.3-1.2-5.3s.2-2.9.7-4.1,1.1-2.2,2-3.1c.9-.8,1.9-1.5,3.1-2,1.2-.5,2.6-.7,4.1-.7s1.8.1,2.8.4c1,.2,1.9.6,2.8,1.2.4.3.7.6.8.9.1.4.2.7,0,1.1s-.2.7-.5,1c-.2.3-.6.4-.9.5s-.8,0-1.2-.3c-.6-.3-1.2-.6-1.8-.8-.6-.2-1.2-.3-1.7-.3-.9,0-1.6.1-2.3.4-.6.3-1.2.7-1.7,1.2s-.8,1.1-1,1.9c-.2.8-.4,1.6-.4,2.6,0,1.9.5,3.4,1.4,4.5.9,1.1,2.2,1.7,3.9,1.7s1.1,0,1.7-.2,1.2-.4,1.8-.7c.4-.2.8-.3,1.2-.2.4,0,.6.3.9.5.2.3.4.6.4,1,0,.4,0,.7-.1,1.1-.1.4-.4.7-.8.9-.9.5-1.8.9-2.7,1.1s-1.9.4-2.7.4Z"/>
          <path class="cls-7" d="M609.1,254.9c-.9,0-1.6-.2-2.1-.7-.5-.5-.8-1.1-.8-1.9s.3-1.5.8-1.9c.5-.4,1.2-.7,2.1-.7s1.7.2,2.1.7c.5.4.7,1.1.7,1.9s-.2,1.4-.7,1.9-1.2.7-2.1.7ZM609.1,278.2c-.8,0-1.4-.2-1.8-.7-.4-.5-.6-1.1-.6-2v-14.3c0-.9.2-1.5.6-2,.4-.5,1-.7,1.8-.7s1.4.2,1.8.7.6,1.1.6,2v14.3c0,.8-.2,1.5-.6,2-.4.5-1,.7-1.8.7Z"/>
          <path class="cls-7" d="M619,285.2c-.8,0-1.4-.2-1.8-.6-.4-.4-.6-1-.6-1.8v-21.8c0-.8.2-1.4.6-1.8.4-.4,1-.6,1.8-.6s1.4.2,1.8.6.6,1,.6,1.8v3l-.4-1.2c.4-1.3,1.2-2.4,2.4-3.2,1.2-.8,2.6-1.2,4.2-1.2s3.1.4,4.4,1.2c1.3.8,2.2,1.9,2.9,3.4.7,1.5,1.1,3.2,1.1,5.3s-.4,3.8-1.1,5.3-1.7,2.6-2.9,3.5c-1.2.8-2.7,1.2-4.4,1.2s-3-.4-4.2-1.2c-1.2-.8-2-1.8-2.4-3.1h.5v8.8c0,.8-.2,1.4-.6,1.8s-1,.6-1.8.6ZM626.3,274.6c1,0,1.8-.2,2.5-.7.7-.5,1.3-1.2,1.7-2.1s.6-2.1.6-3.5c0-2.1-.4-3.6-1.3-4.7-.9-1-2.1-1.5-3.5-1.5s-1.8.2-2.5.7-1.3,1.1-1.7,2.1c-.4.9-.6,2.1-.6,3.5,0,2.1.4,3.6,1.3,4.7.9,1.1,2.1,1.6,3.5,1.6Z"/>
          <path class="cls-7" d="M646.5,278.3c-2.2,0-3.8-.6-4.9-1.9-1.1-1.2-1.6-3-1.6-5.4v-18.4c0-.8.2-1.4.6-1.8.4-.4,1-.6,1.8-.6s1.4.2,1.8.6.6,1,.6,1.8v18.2c0,1.2.3,2.1.8,2.7.5.6,1.2.9,2.2.9s.4,0,.6,0c.2,0,.4,0,.5,0,.4,0,.6,0,.7.3.1.2.2.7.2,1.5s-.1,1.2-.4,1.5-.7.6-1.3.7c-.3,0-.5,0-.8,0-.3,0-.6,0-.9,0Z"/>
          <path class="cls-7" d="M661.7,278.3c-2.2,0-4-.4-5.6-1.2-1.6-.8-2.8-1.9-3.6-3.4s-1.3-3.2-1.3-5.3.4-3.7,1.2-5.2c.8-1.5,1.9-2.6,3.4-3.5s3.1-1.3,4.9-1.3,2.6.2,3.6.7c1.1.4,2,1.1,2.8,1.9s1.4,1.8,1.8,3c.4,1.2.6,2.5.6,4s-.2.8-.5,1.1c-.3.2-.8.4-1.4.4h-12.5v-2.8h11l-.6.6c0-1.2-.2-2.2-.5-3-.4-.8-.9-1.4-1.5-1.9-.7-.4-1.5-.6-2.5-.6s-2,.3-2.8.8-1.4,1.2-1.8,2.1c-.4.9-.6,2-.6,3.3v.3c0,2.1.5,3.7,1.5,4.8,1,1.1,2.5,1.6,4.4,1.6s1.4,0,2.3-.3c.8-.2,1.6-.5,2.4-.9.5-.3,1-.4,1.4-.4s.7.2,1,.4c.2.3.4.6.4,1,0,.4,0,.8-.2,1.2-.2.4-.5.7-1,1-.9.6-2,1-3.1,1.3-1.2.3-2.3.4-3.3.4Z"/>
          <path class="cls-7" d="M680.4,278.3c-1.1,0-2.3-.1-3.5-.4s-2.4-.6-3.4-1.2c-.4-.3-.7-.6-.9-.9-.2-.4-.2-.7-.2-1.1,0-.4.2-.7.4-.9.2-.3.5-.4.9-.5.4,0,.7,0,1.2.2,1,.5,2,.8,2.9,1,.9.2,1.8.3,2.7.3s2.2-.2,2.8-.6c.6-.4.9-1,.9-1.7s-.2-1.1-.6-1.4c-.4-.3-1-.6-1.8-.7l-3.9-.7c-1.6-.3-2.8-.9-3.7-1.8-.8-.9-1.3-2-1.3-3.4s.3-2.3,1-3.2c.7-.9,1.6-1.6,2.9-2.1s2.6-.7,4.2-.7,2.2.1,3.2.4c1,.2,2,.6,2.9,1.2.4.2.7.5.8.8.1.3.2.7,0,1,0,.4-.2.7-.5.9-.2.3-.5.4-.9.5-.4,0-.7,0-1.2-.2-.8-.4-1.6-.7-2.3-.9s-1.5-.3-2.1-.3c-1.3,0-2.2.2-2.8.7-.6.4-.9,1-.9,1.8s.2,1,.5,1.4c.4.4.9.6,1.7.7l3.9.7c1.7.3,3,.9,3.8,1.7s1.3,2,1.3,3.4-.7,3.4-2.2,4.5c-1.5,1.1-3.5,1.6-5.9,1.6Z"/>
        </g>
      </g>
      <rect class="cls-3" x="211.4" y="496.4" width="531.2" height="292.1" rx="47.2" ry="47.2"/>
      <g class="cls-9">
        <g class="cls-9">
          <path class="cls-19" d="M345,554.8c-1.5,0-2.9-.4-4-1.1-1.2-.7-2.1-1.8-2.7-3.2-.6-1.4-1-3-1-4.9s.3-3.5,1-4.9c.6-1.4,1.6-2.4,2.7-3.1,1.2-.7,2.5-1.1,4-1.1s2.7.4,3.8,1.1c1.1.7,1.8,1.7,2.2,2.8h-.4v-9.4c0-.7.2-1.3.6-1.7.4-.4.9-.6,1.7-.6s1.3.2,1.7.6.6.9.6,1.7v21.4c0,.7-.2,1.3-.6,1.7-.4.4-.9.6-1.7.6s-1.3-.2-1.7-.6c-.4-.4-.6-1-.6-1.7v-2.8l.4,1.1c-.4,1.2-1.1,2.2-2.2,3-1.1.7-2.4,1.1-3.9,1.1ZM346.3,551.3c.9,0,1.7-.2,2.3-.6.7-.4,1.2-1.1,1.6-1.9s.6-1.9.6-3.2c0-1.9-.4-3.4-1.2-4.3-.8-.9-1.9-1.4-3.2-1.4s-1.7.2-2.3.6-1.2,1.1-1.6,1.9-.6,1.9-.6,3.2c0,1.9.4,3.3,1.2,4.3.8,1,1.9,1.5,3.2,1.5Z"/>
          <path class="cls-19" d="M367.9,554.8c-1.8,0-3.4-.4-4.8-1.1-1.3-.7-2.4-1.8-3.1-3.2-.7-1.4-1.1-3-1.1-4.9s.2-2.7.6-3.8c.4-1.1,1-2.1,1.8-2.9.8-.8,1.7-1.4,2.8-1.8,1.1-.4,2.3-.6,3.7-.6s3.4.4,4.8,1.1c1.3.7,2.4,1.8,3.1,3.2.7,1.4,1.1,3,1.1,4.9s-.2,2.7-.6,3.8-1,2.1-1.8,2.9c-.8.8-1.7,1.4-2.8,1.8-1.1.4-2.3.6-3.7.6ZM367.9,551.3c.9,0,1.7-.2,2.3-.6.7-.4,1.2-1.1,1.6-1.9s.6-1.9.6-3.2c0-1.9-.4-3.4-1.2-4.3-.8-.9-1.9-1.4-3.2-1.4s-1.7.2-2.3.6-1.2,1.1-1.6,1.9-.6,1.9-.6,3.2c0,1.9.4,3.3,1.2,4.3.8,1,1.9,1.5,3.2,1.5Z"/>
          <path class="cls-19" d="M382.8,561.2c-.7,0-1.3-.2-1.7-.6-.4-.4-.6-.9-.6-1.7v-20.1c0-.7.2-1.3.6-1.7.4-.4.9-.6,1.6-.6s1.3.2,1.7.6c.4.4.6.9.6,1.7v2.8l-.4-1.1c.4-1.2,1.1-2.2,2.2-3,1.1-.7,2.4-1.1,3.9-1.1s2.9.4,4,1.1c1.2.7,2.1,1.8,2.7,3.1.6,1.4,1,3,1,4.9s-.3,3.5-1,4.9c-.6,1.4-1.5,2.4-2.7,3.2s-2.5,1.1-4.1,1.1-2.7-.4-3.9-1.1c-1.1-.7-1.8-1.7-2.2-2.9h.4v8.1c0,.7-.2,1.3-.6,1.7-.4.4-1,.6-1.7.6ZM389.5,551.3c.9,0,1.7-.2,2.3-.6s1.2-1.1,1.6-1.9c.4-.9.6-1.9.6-3.2,0-1.9-.4-3.4-1.2-4.3-.8-.9-1.9-1.4-3.2-1.4s-1.7.2-2.3.6c-.7.4-1.2,1.1-1.6,1.9-.4.9-.6,1.9-.6,3.2,0,1.9.4,3.3,1.2,4.3.8,1,1.9,1.5,3.2,1.5Z"/>
          <path class="cls-19" d="M408,554.8c-1.3,0-2.4-.2-3.4-.7-1-.5-1.8-1.2-2.3-2-.6-.8-.8-1.8-.8-2.8s.3-2.3,1-3.1c.7-.8,1.8-1.3,3.3-1.6s3.5-.5,6.1-.5h1.8v2.6h-1.8c-1.5,0-2.7,0-3.6.2-.9.1-1.5.4-1.9.7-.4.3-.6.8-.6,1.5s.3,1.4.8,1.9c.6.5,1.3.8,2.3.8s1.5-.2,2.1-.6c.6-.4,1.1-.9,1.5-1.5.4-.6.5-1.4.5-2.2v-4.1c0-1.2-.3-2.1-.8-2.6-.5-.5-1.4-.8-2.7-.8s-1.4,0-2.2.3c-.8.2-1.7.5-2.5.9-.5.2-.9.3-1.2.2-.3,0-.6-.3-.8-.6-.2-.3-.3-.6-.3-1s0-.7.3-1.1c.2-.3.5-.6,1-.8,1.1-.5,2.2-.8,3.2-1,1-.2,1.9-.3,2.8-.3,1.7,0,3.2.3,4.3.8,1.1.5,1.9,1.3,2.5,2.4.6,1.1.8,2.4.8,4.1v8.6c0,.7-.2,1.3-.5,1.7-.4.4-.9.6-1.5.6s-1.2-.2-1.6-.6c-.4-.4-.6-1-.6-1.7v-1.7h.3c-.2.8-.5,1.6-1,2.2-.5.6-1.1,1.1-1.9,1.4-.7.3-1.6.5-2.6.5Z"/>
          <path class="cls-19" d="M424.2,554.7c-.7,0-1.3-.2-1.7-.6-.4-.4-.6-1-.6-1.7v-13.6c0-.7.2-1.3.6-1.7.4-.4.9-.6,1.6-.6s1.2.2,1.6.6c.4.4.6.9.6,1.7v2.6l-.4-1.1c.5-1.2,1.2-2.1,2.2-2.8,1-.7,2.2-1,3.6-1s2.6.3,3.5,1,1.5,1.7,1.9,3.1h-.5c.5-1.3,1.3-2.3,2.4-3,1.1-.7,2.4-1.1,3.8-1.1s2.5.3,3.3.8c.9.5,1.5,1.3,2,2.4.4,1.1.6,2.4.6,4.1v8.7c0,.7-.2,1.3-.6,1.7-.4.4-1,.6-1.7.6s-1.3-.2-1.7-.6c-.4-.4-.6-1-.6-1.7v-8.5c0-1.3-.2-2.3-.7-3-.4-.6-1.2-.9-2.2-.9s-2.1.4-2.8,1.2c-.7.8-1,2-1,3.4v7.7c0,.7-.2,1.3-.6,1.7-.4.4-.9.6-1.7.6s-1.3-.2-1.7-.6c-.4-.4-.6-1-.6-1.7v-8.5c0-1.3-.2-2.3-.7-3-.4-.6-1.2-.9-2.2-.9s-2.1.4-2.8,1.2-1,2-1,3.4v7.7c0,1.5-.8,2.3-2.3,2.3Z"/>
          <path class="cls-19" d="M455.7,533.2c-.8,0-1.5-.2-2-.6-.5-.4-.7-1-.7-1.7s.2-1.4.7-1.8c.5-.4,1.1-.6,2-.6s1.5.2,2,.6.7,1,.7,1.8-.2,1.3-.7,1.7-1.1.6-2,.6ZM455.7,554.7c-.7,0-1.3-.2-1.7-.6-.4-.4-.6-1-.6-1.8v-13.2c0-.8.2-1.4.6-1.8.4-.4.9-.6,1.7-.6s1.3.2,1.7.6.6,1,.6,1.8v13.2c0,.8-.2,1.4-.6,1.8-.4.4-.9.6-1.7.6Z"/>
          <path class="cls-19" d="M464.9,554.7c-.7,0-1.3-.2-1.7-.6-.4-.4-.6-1-.6-1.7v-13.6c0-.7.2-1.3.6-1.7.4-.4.9-.6,1.6-.6s1.2.2,1.6.6c.4.4.6.9.6,1.7v2.4l-.4-.9c.5-1.3,1.4-2.2,2.5-2.9,1.1-.7,2.4-1,3.8-1s2.6.3,3.5.8c.9.5,1.6,1.3,2.1,2.4.5,1.1.7,2.4.7,4.1v8.7c0,.7-.2,1.3-.6,1.7-.4.4-.9.6-1.7.6s-1.3-.2-1.7-.6c-.4-.4-.6-1-.6-1.7v-8.5c0-1.4-.3-2.4-.8-3-.5-.6-1.3-.9-2.4-.9s-2.4.4-3.2,1.2-1.2,1.9-1.2,3.3v7.9c0,1.5-.8,2.3-2.3,2.3Z"/>
          <path class="cls-19" d="M495.7,554.7c-.7,0-1.3-.2-1.7-.6-.4-.4-.6-1-.6-1.7v-13.6c0-.7.2-1.3.6-1.7.4-.4.9-.6,1.6-.6s1.2.2,1.6.6c.4.4.6.9.6,1.7v2.3h-.4c.3-1.4,1-2.5,2-3.3,1-.7,2.3-1.2,3.9-1.3.5,0,.9,0,1.2.4.3.3.5.8.5,1.4,0,.6,0,1.1-.4,1.5-.3.4-.8.6-1.5.7h-.8c-1.5.2-2.6.7-3.3,1.4-.7.8-1.1,1.8-1.1,3.2v7.5c0,.7-.2,1.3-.6,1.7-.4.4-.9.6-1.7.6Z"/>
          <path class="cls-19" d="M515.9,554.8c-2,0-3.7-.4-5.1-1.1-1.4-.7-2.6-1.8-3.3-3.2-.8-1.4-1.2-3-1.2-4.9s.4-3.4,1.1-4.8,1.8-2.4,3.1-3.2c1.3-.8,2.8-1.2,4.6-1.2s2.4.2,3.4.6c1,.4,1.8,1,2.6,1.8.7.8,1.2,1.7,1.6,2.8.4,1.1.6,2.3.6,3.7s-.2.8-.5,1c-.3.2-.7.3-1.3.3h-11.6v-2.6h10.1l-.6.5c0-1.1-.2-2-.5-2.8-.3-.7-.8-1.3-1.4-1.7-.6-.4-1.4-.6-2.3-.6s-1.9.2-2.6.7-1.2,1.1-1.6,2-.6,1.9-.6,3v.3c0,2,.5,3.4,1.4,4.4.9,1,2.3,1.5,4.1,1.5s1.3,0,2.1-.2c.8-.2,1.5-.4,2.2-.8.5-.3.9-.4,1.3-.4.4,0,.7.2.9.4.2.2.4.5.4.9,0,.3,0,.7-.2,1.1-.2.4-.5.7-.9.9-.8.5-1.8.9-2.9,1.2-1.1.3-2.1.4-3,.4Z"/>
          <path class="cls-19" d="M532.8,554.8c-2,0-3.5-.6-4.5-1.7s-1.5-2.8-1.5-5v-17c0-.7.2-1.3.6-1.7s.9-.6,1.7-.6,1.3.2,1.7.6c.4.4.6.9.6,1.7v16.8c0,1.1.2,1.9.7,2.4s1.1.8,2,.8.4,0,.5,0c.2,0,.3,0,.5,0,.3,0,.6,0,.7.3.1.2.2.7.2,1.4s-.1,1.1-.4,1.4c-.2.3-.6.5-1.2.6-.2,0-.5,0-.8,0-.3,0-.5,0-.8,0Z"/>
          <path class="cls-19" d="M546.8,554.8c-2,0-3.7-.4-5.1-1.1-1.4-.7-2.6-1.8-3.3-3.2-.8-1.4-1.2-3-1.2-4.9s.4-3.4,1.1-4.8,1.8-2.4,3.1-3.2c1.3-.8,2.8-1.2,4.6-1.2s2.4.2,3.4.6c1,.4,1.8,1,2.6,1.8.7.8,1.2,1.7,1.6,2.8.4,1.1.6,2.3.6,3.7s-.2.8-.5,1c-.3.2-.7.3-1.3.3h-11.6v-2.6h10.1l-.6.5c0-1.1-.2-2-.5-2.8-.3-.7-.8-1.3-1.4-1.7-.6-.4-1.4-.6-2.3-.6s-1.9.2-2.6.7-1.2,1.1-1.6,2-.6,1.9-.6,3v.3c0,2,.5,3.4,1.4,4.4.9,1,2.3,1.5,4.1,1.5s1.3,0,2.1-.2c.8-.2,1.5-.4,2.2-.8.5-.3.9-.4,1.3-.4.4,0,.7.2.9.4.2.2.4.5.4.9,0,.3,0,.7-.2,1.1-.2.4-.5.7-.9.9-.8.5-1.8.9-2.9,1.2-1.1.3-2.1.4-3,.4Z"/>
          <path class="cls-19" d="M563.4,554.8c-1.3,0-2.4-.2-3.4-.7-1-.5-1.8-1.2-2.3-2-.6-.8-.8-1.8-.8-2.8s.3-2.3,1-3.1c.7-.8,1.8-1.3,3.3-1.6,1.5-.3,3.5-.5,6.1-.5h1.8v2.6h-1.8c-1.5,0-2.7,0-3.6.2-.9.1-1.5.4-1.9.7s-.6.8-.6,1.5.3,1.4.8,1.9c.6.5,1.3.8,2.3.8s1.5-.2,2.1-.6c.6-.4,1.1-.9,1.5-1.5.4-.6.5-1.4.5-2.2v-4.1c0-1.2-.3-2.1-.8-2.6s-1.4-.8-2.7-.8-1.4,0-2.2.3c-.8.2-1.7.5-2.5.9-.5.2-.9.3-1.2.2-.3,0-.6-.3-.8-.6-.2-.3-.3-.6-.3-1s0-.7.3-1.1.5-.6,1-.8c1.1-.5,2.2-.8,3.2-1,1-.2,1.9-.3,2.8-.3,1.7,0,3.2.3,4.3.8,1.1.5,2,1.3,2.5,2.4.6,1.1.8,2.4.8,4.1v8.6c0,.7-.2,1.3-.5,1.7-.4.4-.9.6-1.5.6s-1.2-.2-1.6-.6c-.4-.4-.6-1-.6-1.7v-1.7h.3c-.2.8-.5,1.6-1,2.2-.5.6-1.1,1.1-1.9,1.4-.7.3-1.6.5-2.6.5Z"/>
          <path class="cls-19" d="M583.7,554.8c-1,0-2.1-.1-3.3-.3s-2.2-.6-3.1-1.1c-.4-.2-.7-.5-.8-.8s-.2-.6-.2-1c0-.3.2-.6.4-.8.2-.2.5-.4.8-.5.3,0,.7,0,1.1.2,1,.5,1.9.8,2.7,1,.8.2,1.7.3,2.5.3s2-.2,2.6-.6c.6-.4.8-.9.8-1.6s-.2-1-.6-1.3c-.4-.3-.9-.5-1.7-.7l-3.6-.7c-1.5-.3-2.6-.8-3.4-1.6-.8-.8-1.2-1.8-1.2-3.1s.3-2.1,1-3c.6-.8,1.5-1.5,2.6-1.9,1.1-.5,2.4-.7,3.9-.7s2,.1,3,.3c.9.2,1.8.6,2.7,1.1.4.2.6.4.7.8s.2.6,0,1c0,.3-.2.6-.4.9-.2.3-.5.4-.8.5s-.7,0-1.1-.2c-.7-.4-1.5-.7-2.1-.8-.7-.2-1.3-.3-2-.3-1.2,0-2,.2-2.6.6-.6.4-.8.9-.8,1.6s.2.9.5,1.3c.3.3.9.6,1.5.7l3.6.7c1.6.3,2.7.8,3.5,1.6.8.8,1.2,1.8,1.2,3.1s-.7,3.1-2.1,4.1-3.2,1.5-5.5,1.5Z"/>
          <path class="cls-19" d="M603.5,554.8c-2,0-3.7-.4-5.1-1.1-1.4-.7-2.6-1.8-3.3-3.2-.8-1.4-1.2-3-1.2-4.9s.4-3.4,1.1-4.8,1.8-2.4,3.1-3.2c1.3-.8,2.8-1.2,4.6-1.2s2.4.2,3.4.6c1,.4,1.8,1,2.6,1.8.7.8,1.2,1.7,1.6,2.8.4,1.1.6,2.3.6,3.7s-.2.8-.5,1c-.3.2-.7.3-1.3.3h-11.6v-2.6h10.1l-.6.5c0-1.1-.2-2-.5-2.8-.3-.7-.8-1.3-1.4-1.7-.6-.4-1.4-.6-2.3-.6s-1.9.2-2.6.7-1.2,1.1-1.6,2-.6,1.9-.6,3v.3c0,2,.5,3.4,1.4,4.4.9,1,2.3,1.5,4.1,1.5s1.3,0,2.1-.2c.8-.2,1.5-.4,2.2-.8.5-.3.9-.4,1.3-.4.4,0,.7.2.9.4.2.2.4.5.4.9,0,.3,0,.7-.2,1.1-.2.4-.5.7-.9.9-.8.5-1.8.9-2.9,1.2-1.1.3-2.1.4-3,.4Z"/>
        </g>
      </g>
      <g class="cls-9">
        <g class="cls-9">
          <path class="cls-19" d="M260.2,595.9c-.5,0-.9-.1-1.1-.4s-.4-.6-.4-1.1v-9.1c0-.5.1-.9.4-1.1s.6-.4,1.1-.4.8.1,1.1.4c.3.3.4.6.4,1.1v1.5h-.2c.2-1,.7-1.7,1.3-2.2.7-.5,1.5-.8,2.6-.9.3,0,.6,0,.8.3s.3.5.3.9c0,.4,0,.7-.3,1s-.5.4-1,.4h-.5c-1,.1-1.7.4-2.2.9-.5.5-.7,1.2-.7,2.1v5c0,.5-.1.9-.4,1.1-.3.3-.6.4-1.1.4Z"/>
          <path class="cls-19" d="M273.7,595.9c-1.3,0-2.5-.2-3.4-.7s-1.7-1.2-2.2-2.1-.8-2-.8-3.2.3-2.3.8-3.2,1.2-1.6,2.1-2.1c.9-.5,1.9-.8,3-.8s1.6.1,2.2.4c.7.3,1.2.7,1.7,1.2.5.5.8,1.1,1.1,1.9.2.7.4,1.5.4,2.5s-.1.5-.3.7c-.2.2-.5.2-.9.2h-7.7v-1.7h6.7l-.4.4c0-.7-.1-1.4-.3-1.8-.2-.5-.5-.9-.9-1.1s-.9-.4-1.5-.4-1.2.2-1.7.5c-.5.3-.8.8-1.1,1.3-.2.6-.4,1.2-.4,2v.2c0,1.3.3,2.3.9,2.9.6.6,1.5,1,2.7,1s.9,0,1.4-.2c.5-.1,1-.3,1.5-.5.3-.2.6-.3.9-.3.3,0,.5.1.6.3.2.2.2.4.3.6,0,.2,0,.5-.1.7s-.3.4-.6.6c-.6.4-1.2.6-1.9.8-.7.2-1.4.3-2,.3Z"/>
          <path class="cls-19" d="M282.4,581.6c-.6,0-1-.1-1.3-.4-.3-.3-.5-.7-.5-1.2s.2-.9.5-1.2c.3-.3.7-.4,1.3-.4s1,.1,1.3.4c.3.3.5.7.5,1.2s-.2.9-.5,1.2c-.3.3-.7.4-1.3.4ZM282.4,595.9c-.5,0-.8-.1-1.1-.4s-.4-.7-.4-1.2v-8.8c0-.5.1-.9.4-1.2.3-.3.6-.4,1.1-.4s.9.1,1.1.4c.3.3.4.7.4,1.2v8.8c0,.5-.1.9-.4,1.2s-.6.4-1.1.4Z"/>
          <path class="cls-19" d="M288.5,595.9c-.5,0-.8-.1-1.1-.4s-.4-.6-.4-1.1v-9.1c0-.5.1-.9.4-1.1s.6-.4,1.1-.4.8.1,1.1.4c.3.3.4.6.4,1.1v1.6l-.3-.6c.4-.8.9-1.5,1.6-1.9.7-.4,1.6-.7,2.5-.7s1.7.2,2.3.5c.6.4,1.1.9,1.4,1.6.3.7.5,1.6.5,2.7v5.8c0,.5-.1.9-.4,1.1s-.6.4-1.1.4-.9-.1-1.1-.4c-.3-.3-.4-.6-.4-1.1v-5.7c0-.9-.2-1.6-.5-2-.3-.4-.9-.6-1.6-.6s-1.6.3-2.1.8-.8,1.3-.8,2.2v5.3c0,1-.5,1.5-1.5,1.5Z"/>
          <path class="cls-19" d="M303.3,595.9c-.5,0-.9-.1-1.1-.4s-.4-.6-.4-1.1v-8.1h-1.1c-.4,0-.7,0-.9-.3-.2-.2-.3-.5-.3-.8s.1-.6.3-.8c.2-.2.5-.3.9-.3h2l-.9.8v-.8c0-1.6.4-2.9,1.2-3.7.8-.8,2-1.3,3.6-1.5h.8c.3-.1.6,0,.8,0,.2.1.3.3.4.5,0,.2,0,.4,0,.7,0,.2-.1.4-.3.6-.2.2-.3.3-.6.3h-.3c-.9,0-1.6.3-2,.7-.4.4-.6,1-.6,1.8v.9l-.4-.4h2.4c.4,0,.7,0,.9.3.2.2.3.5.3.8s-.1.6-.3.8c-.2.2-.5.3-.9.3h-2v8.1c0,1-.5,1.5-1.5,1.5Z"/>
          <path class="cls-19" d="M314.8,595.9c-1.2,0-2.3-.2-3.2-.7-.9-.5-1.6-1.2-2.1-2.1s-.7-2-.7-3.3.1-1.8.4-2.5c.3-.7.7-1.4,1.2-1.9s1.2-.9,1.9-1.2,1.6-.4,2.5-.4,2.3.2,3.2.7c.9.5,1.6,1.2,2.1,2.1.5.9.7,2,.7,3.2s-.1,1.8-.4,2.5c-.3.8-.7,1.4-1.2,1.9-.5.5-1.2.9-1.9,1.2-.7.3-1.6.4-2.5.4ZM314.8,593.7c.6,0,1.1-.1,1.6-.4.4-.3.8-.7,1-1.3.2-.6.4-1.3.4-2.1,0-1.3-.3-2.2-.8-2.9s-1.3-.9-2.2-.9-1.1.1-1.6.4c-.4.3-.8.7-1,1.3-.2.6-.4,1.3-.4,2.1,0,1.3.3,2.2.8,2.9.5.6,1.3,1,2.2,1Z"/>
          <path class="cls-19" d="M324.8,595.9c-.5,0-.9-.1-1.1-.4s-.4-.6-.4-1.1v-9.1c0-.5.1-.9.4-1.1s.6-.4,1.1-.4.8.1,1.1.4c.3.3.4.6.4,1.1v1.5h-.2c.2-1,.7-1.7,1.3-2.2.7-.5,1.5-.8,2.6-.9.3,0,.6,0,.8.3s.3.5.3.9c0,.4,0,.7-.3,1s-.5.4-1,.4h-.5c-1,.1-1.7.4-2.2.9-.5.5-.7,1.2-.7,2.1v5c0,.5-.1.9-.4,1.1-.3.3-.6.4-1.1.4Z"/>
          <path class="cls-19" d="M337.9,595.9c-1.2,0-2.3-.3-3.2-.8s-1.6-1.2-2.1-2.1-.7-2-.7-3.3.1-1.8.4-2.5c.3-.7.7-1.4,1.2-1.9.5-.5,1.2-.9,1.9-1.2s1.6-.4,2.5-.4,1.1,0,1.7.2c.6.1,1.2.4,1.7.7.3.2.4.4.5.6s0,.5,0,.7c0,.2-.1.4-.3.6-.2.2-.3.3-.6.3s-.5,0-.7-.2c-.4-.2-.7-.4-1.1-.5-.4-.1-.7-.2-1.1-.2-.5,0-1,0-1.4.3-.4.2-.7.4-1,.7-.3.3-.5.7-.6,1.2s-.2,1-.2,1.6c0,1.2.3,2.1.9,2.8.6.7,1.4,1,2.4,1s.7,0,1-.1c.4,0,.7-.2,1.1-.5.3-.1.5-.2.7-.1.2,0,.4.2.5.3.1.2.2.4.3.6,0,.2,0,.5,0,.7,0,.2-.3.4-.5.6-.5.3-1.1.6-1.7.7-.6.1-1.2.2-1.7.2Z"/>
          <path class="cls-19" d="M349.4,595.9c-1.3,0-2.5-.2-3.4-.7s-1.7-1.2-2.2-2.1-.8-2-.8-3.2.3-2.3.8-3.2,1.2-1.6,2.1-2.1c.9-.5,1.9-.8,3-.8s1.6.1,2.2.4c.7.3,1.2.7,1.7,1.2.5.5.8,1.1,1.1,1.9.2.7.4,1.5.4,2.5s-.1.5-.3.7c-.2.2-.5.2-.9.2h-7.7v-1.7h6.7l-.4.4c0-.7-.1-1.4-.3-1.8-.2-.5-.5-.9-.9-1.1s-.9-.4-1.5-.4-1.2.2-1.7.5c-.5.3-.8.8-1.1,1.3-.2.6-.4,1.2-.4,2v.2c0,1.3.3,2.3.9,2.9.6.6,1.5,1,2.7,1s.9,0,1.4-.2c.5-.1,1-.3,1.5-.5.3-.2.6-.3.9-.3.3,0,.5.1.6.3.2.2.2.4.3.6,0,.2,0,.5-.1.7s-.3.4-.6.6c-.6.4-1.2.6-1.9.8-.7.2-1.4.3-2,.3Z"/>
          <path class="cls-19" d="M360.9,595.9c-.7,0-1.4,0-2.2-.2-.8-.1-1.5-.4-2.1-.7-.3-.2-.4-.3-.5-.6s-.1-.4-.1-.6c0-.2.1-.4.2-.6.1-.2.3-.3.5-.3.2,0,.5,0,.7.1.6.3,1.2.5,1.8.6.6.1,1.1.2,1.7.2s1.3-.1,1.7-.4c.4-.3.6-.6.6-1s-.1-.7-.4-.9c-.2-.2-.6-.3-1.1-.4l-2.4-.5c-1-.2-1.7-.6-2.3-1.1-.5-.5-.8-1.2-.8-2.1s.2-1.4.6-2c.4-.6,1-1,1.8-1.3.8-.3,1.6-.5,2.6-.5s1.4,0,2,.2c.6.2,1.2.4,1.8.7.2.1.4.3.5.5,0,.2.1.4,0,.6,0,.2-.1.4-.3.6s-.3.3-.5.3-.5,0-.7-.1c-.5-.3-1-.4-1.4-.6-.5-.1-.9-.2-1.3-.2-.8,0-1.4.1-1.7.4-.4.3-.6.6-.6,1.1s.1.6.3.8c.2.2.6.4,1,.5l2.4.5c1,.2,1.8.5,2.4,1.1.5.5.8,1.2.8,2.1s-.5,2.1-1.4,2.7-2.1,1-3.6,1Z"/>
          <path class="cls-19" d="M381.6,595.9c-1,0-1.9-.2-2.6-.7-.7-.5-1.2-1.2-1.5-2l.3-.6v1.8c0,.5-.1.9-.4,1.1s-.6.4-1.1.4-.8-.1-1.1-.4-.4-.6-.4-1.1v-14.3c0-.5.1-.9.4-1.1s.6-.4,1.1-.4.9.1,1.1.4.4.6.4,1.1v6.2h-.3c.3-.8.8-1.4,1.5-1.9.7-.5,1.6-.7,2.6-.7s1.9.2,2.7.7c.8.5,1.4,1.2,1.8,2.1.4.9.6,2,.6,3.3s-.2,2.3-.6,3.3c-.4.9-1,1.6-1.8,2.1s-1.7.7-2.7.7ZM380.7,593.7c.6,0,1.1-.1,1.6-.4s.8-.7,1-1.3.4-1.3.4-2.1c0-1.3-.3-2.2-.8-2.9s-1.3-.9-2.2-.9-1.1.1-1.6.4c-.4.3-.8.7-1,1.3-.2.6-.4,1.3-.4,2.1,0,1.3.3,2.2.8,2.9.5.6,1.3,1,2.2,1Z"/>
          <path class="cls-19" d="M395,595.9c-1.3,0-2.5-.2-3.4-.7s-1.7-1.2-2.2-2.1-.8-2-.8-3.2.3-2.3.8-3.2,1.2-1.6,2.1-2.1c.9-.5,1.9-.8,3-.8s1.6.1,2.2.4c.7.3,1.2.7,1.7,1.2.5.5.8,1.1,1.1,1.9.2.7.4,1.5.4,2.5s-.1.5-.3.7c-.2.2-.5.2-.9.2h-7.7v-1.7h6.7l-.4.4c0-.7-.1-1.4-.3-1.8-.2-.5-.5-.9-.9-1.1s-.9-.4-1.5-.4-1.2.2-1.7.5c-.5.3-.8.8-1.1,1.3-.2.6-.4,1.2-.4,2v.2c0,1.3.3,2.3.9,2.9.6.6,1.5,1,2.7,1s.9,0,1.4-.2c.5-.1,1-.3,1.5-.5.3-.2.6-.3.9-.3.3,0,.5.1.6.3.2.2.2.4.3.6,0,.2,0,.5-.1.7s-.3.4-.6.6c-.6.4-1.2.6-1.9.8-.7.2-1.4.3-2,.3Z"/>
          <path class="cls-19" d="M403.7,595.9c-.5,0-.8-.1-1.1-.4s-.4-.6-.4-1.1v-14.3c0-.5.1-.9.4-1.1s.6-.4,1.1-.4.9.1,1.1.4.4.6.4,1.1v6.2h-.3c.4-.8.9-1.5,1.6-1.9.7-.4,1.6-.7,2.5-.7s1.7.2,2.3.5c.6.4,1.1.9,1.4,1.6.3.7.5,1.6.5,2.7v5.8c0,.5-.1.9-.4,1.1s-.6.4-1.1.4-.9-.1-1.1-.4c-.3-.3-.4-.6-.4-1.1v-5.7c0-.9-.2-1.6-.5-2-.3-.4-.9-.6-1.6-.6s-1.6.3-2.1.8-.8,1.3-.8,2.2v5.3c0,1-.5,1.5-1.5,1.5Z"/>
          <path class="cls-19" d="M420.1,595.9c-.8,0-1.6-.2-2.3-.5s-1.2-.8-1.6-1.3c-.4-.6-.6-1.2-.6-1.9s.2-1.5.7-2.1c.4-.5,1.2-.9,2.2-1.1,1-.2,2.4-.3,4.1-.3h1.2v1.7h-1.2c-1,0-1.8,0-2.4.1s-1,.3-1.3.5c-.2.2-.4.6-.4,1s.2,1,.6,1.3c.4.3.9.5,1.5.5s1-.1,1.4-.4c.4-.2.7-.6,1-1,.2-.4.4-.9.4-1.5v-2.8c0-.8-.2-1.4-.5-1.7-.4-.4-.9-.5-1.8-.5s-1,0-1.5.2-1.1.3-1.7.6c-.3.1-.6.2-.8.1-.2,0-.4-.2-.5-.4s-.2-.4-.2-.7,0-.5.2-.7c.1-.2.3-.4.6-.5.7-.3,1.4-.5,2.1-.6.7-.1,1.3-.2,1.9-.2,1.2,0,2.1.2,2.8.5.7.4,1.3.9,1.7,1.6s.6,1.6.6,2.7v5.8c0,.5-.1.9-.4,1.1-.2.3-.6.4-1,.4s-.8-.1-1-.4c-.2-.3-.4-.6-.4-1.1v-1.2h.2c-.1.6-.3,1-.7,1.5s-.7.7-1.2.9c-.5.2-1.1.3-1.7.3Z"/>
          <path class="cls-19" d="M434,595.9c-.4,0-.7-.1-1-.3-.3-.2-.5-.5-.7-1l-3.8-8.9c-.1-.4-.2-.7-.2-1,0-.3.2-.5.4-.7.2-.2.6-.3,1-.3s.7,0,.9.3.4.5.6.9l3.2,8.1h-.7l3.3-8.1c.2-.4.4-.8.6-.9.2-.2.5-.3.9-.3s.6,0,.8.3c.2.2.3.4.4.7s0,.6-.2,1l-3.9,8.9c-.2.4-.4.8-.7,1s-.7.3-1.1.3Z"/>
          <path class="cls-19" d="M443.4,581.6c-.6,0-1-.1-1.3-.4-.3-.3-.5-.7-.5-1.2s.2-.9.5-1.2c.3-.3.7-.4,1.3-.4s1,.1,1.3.4c.3.3.5.7.5,1.2s-.2.9-.5,1.2c-.3.3-.7.4-1.3.4ZM443.4,595.9c-.5,0-.8-.1-1.1-.4s-.4-.7-.4-1.2v-8.8c0-.5.1-.9.4-1.2.3-.3.6-.4,1.1-.4s.9.1,1.1.4c.3.3.4.7.4,1.2v8.8c0,.5-.1.9-.4,1.2s-.6.4-1.1.4Z"/>
          <path class="cls-19" d="M453.4,595.9c-1.2,0-2.3-.2-3.2-.7-.9-.5-1.6-1.2-2.1-2.1s-.7-2-.7-3.3.1-1.8.4-2.5c.3-.7.7-1.4,1.2-1.9s1.2-.9,1.9-1.2,1.6-.4,2.5-.4,2.3.2,3.2.7c.9.5,1.6,1.2,2.1,2.1.5.9.7,2,.7,3.2s-.1,1.8-.4,2.5c-.3.8-.7,1.4-1.2,1.9-.5.5-1.2.9-1.9,1.2-.7.3-1.6.4-2.5.4ZM453.4,593.7c.6,0,1.1-.1,1.6-.4.4-.3.8-.7,1-1.3.2-.6.4-1.3.4-2.1,0-1.3-.3-2.2-.8-2.9s-1.3-.9-2.2-.9-1.1.1-1.6.4c-.4.3-.8.7-1,1.3-.2.6-.4,1.3-.4,2.1,0,1.3.3,2.2.8,2.9.5.6,1.3,1,2.2,1Z"/>
          <path class="cls-19" d="M463.4,595.9c-.5,0-.9-.1-1.1-.4s-.4-.6-.4-1.1v-9.1c0-.5.1-.9.4-1.1s.6-.4,1.1-.4.8.1,1.1.4c.3.3.4.6.4,1.1v1.5h-.2c.2-1,.7-1.7,1.3-2.2.7-.5,1.5-.8,2.6-.9.3,0,.6,0,.8.3s.3.5.3.9c0,.4,0,.7-.3,1s-.5.4-1,.4h-.5c-1,.1-1.7.4-2.2.9-.5.5-.7,1.2-.7,2.1v5c0,.5-.1.9-.4,1.1-.3.3-.6.4-1.1.4Z"/>
          <path class="cls-19" d="M484.5,595.9c-1,0-1.9-.2-2.6-.7-.7-.5-1.2-1.2-1.5-2l.3-.6v1.8c0,.5-.1.9-.4,1.1s-.6.4-1.1.4-.8-.1-1.1-.4-.4-.6-.4-1.1v-14.3c0-.5.1-.9.4-1.1s.6-.4,1.1-.4.9.1,1.1.4.4.6.4,1.1v6.2h-.3c.3-.8.8-1.4,1.5-1.9.7-.5,1.6-.7,2.6-.7s1.9.2,2.7.7c.8.5,1.4,1.2,1.8,2.1.4.9.6,2,.6,3.3s-.2,2.3-.6,3.3c-.4.9-1,1.6-1.8,2.1s-1.7.7-2.7.7ZM483.7,593.7c.6,0,1.1-.1,1.6-.4s.8-.7,1-1.3.4-1.3.4-2.1c0-1.3-.3-2.2-.8-2.9s-1.3-.9-2.2-.9-1.1.1-1.6.4c-.4.3-.8.7-1,1.3-.2.6-.4,1.3-.4,2.1,0,1.3.3,2.2.8,2.9.5.6,1.3,1,2.2,1Z"/>
          <path class="cls-19" d="M494.9,600.2c-.4,0-.6,0-.9-.3-.2-.2-.4-.4-.4-.7s0-.6.2-1l1.6-3.6v1.2l-4.4-10.1c-.1-.4-.2-.7-.1-1,0-.3.2-.5.4-.7.2-.2.6-.3,1-.3s.7,0,.9.3.4.5.6.9l3.2,8.1h-.7l3.3-8.1c.2-.4.4-.8.6-.9.2-.2.6-.3,1-.3s.6,0,.8.3c.2.2.3.4.4.7s0,.6-.2,1l-5.8,13.3c-.2.4-.4.8-.7.9-.2.2-.6.2-.9.2Z"/>
          <path class="cls-19" d="M516.5,595.9c-1.2,0-2.3-.3-3.2-.8s-1.6-1.2-2.1-2.1-.7-2-.7-3.3.1-1.8.4-2.5c.3-.7.7-1.4,1.2-1.9.5-.5,1.2-.9,1.9-1.2s1.6-.4,2.5-.4,1.1,0,1.7.2c.6.1,1.2.4,1.7.7.3.2.4.4.5.6s0,.5,0,.7c0,.2-.1.4-.3.6-.2.2-.3.3-.6.3-.2,0-.5,0-.7-.2-.4-.2-.7-.4-1.1-.5-.4-.1-.7-.2-1.1-.2-.5,0-1,0-1.4.3-.4.2-.7.4-1,.7-.3.3-.5.7-.6,1.2-.1.5-.2,1-.2,1.6,0,1.2.3,2.1.9,2.8.6.7,1.4,1,2.4,1s.7,0,1-.1c.4,0,.7-.2,1.1-.5.3-.1.5-.2.7-.1s.4.2.5.3.2.4.3.6c0,.2,0,.5,0,.7,0,.2-.3.4-.5.6-.5.3-1.1.6-1.7.7-.6.1-1.2.2-1.7.2Z"/>
          <path class="cls-19" d="M523.9,595.9c-.5,0-.9-.1-1.1-.4-.3-.3-.4-.6-.4-1.1v-9.1c0-.5.1-.9.4-1.1s.6-.4,1.1-.4.8.1,1.1.4c.3.3.4.6.4,1.1v1.5h-.2c.2-1,.7-1.7,1.3-2.2.7-.5,1.5-.8,2.6-.9.3,0,.6,0,.8.3s.3.5.3.9c0,.4,0,.7-.3,1s-.5.4-1,.4h-.5c-1,.1-1.7.4-2.2.9-.5.5-.7,1.2-.7,2.1v5c0,.5-.1.9-.4,1.1-.3.3-.6.4-1.1.4Z"/>
          <path class="cls-19" d="M537.4,595.9c-1.3,0-2.5-.2-3.4-.7s-1.7-1.2-2.2-2.1c-.5-.9-.8-2-.8-3.2s.3-2.3.8-3.2,1.2-1.6,2.1-2.1c.9-.5,1.9-.8,3-.8s1.6.1,2.2.4c.7.3,1.2.7,1.7,1.2.5.5.8,1.1,1.1,1.9.2.7.4,1.5.4,2.5s0,.5-.3.7c-.2.2-.5.2-.9.2h-7.7v-1.7h6.7l-.4.4c0-.7-.1-1.4-.3-1.8-.2-.5-.5-.9-.9-1.1s-.9-.4-1.5-.4-1.2.2-1.7.5c-.5.3-.8.8-1.1,1.3-.2.6-.4,1.2-.4,2v.2c0,1.3.3,2.3.9,2.9.6.6,1.5,1,2.7,1s.9,0,1.4-.2c.5-.1,1-.3,1.5-.5.3-.2.6-.3.9-.3.3,0,.5.1.6.3s.2.4.3.6c0,.2,0,.5-.1.7s-.3.4-.6.6c-.6.4-1.2.6-1.9.8-.7.2-1.4.3-2,.3Z"/>
          <path class="cls-19" d="M548.5,595.9c-.8,0-1.6-.2-2.3-.5s-1.2-.8-1.6-1.3c-.4-.6-.6-1.2-.6-1.9s.2-1.5.7-2.1c.4-.5,1.2-.9,2.2-1.1,1-.2,2.4-.3,4.1-.3h1.2v1.7h-1.2c-1,0-1.8,0-2.4.1s-1,.3-1.3.5c-.2.2-.4.6-.4,1s.2,1,.6,1.3.9.5,1.5.5,1-.1,1.4-.4c.4-.2.7-.6,1-1,.2-.4.4-.9.4-1.5v-2.8c0-.8-.2-1.4-.5-1.7-.4-.4-.9-.5-1.8-.5s-1,0-1.5.2-1.1.3-1.7.6c-.3.1-.6.2-.8.1-.2,0-.4-.2-.5-.4s-.2-.4-.2-.7,0-.5.2-.7c.1-.2.3-.4.6-.5.7-.3,1.4-.5,2.1-.6.7-.1,1.3-.2,1.9-.2,1.2,0,2.1.2,2.8.5.7.4,1.3.9,1.7,1.6s.6,1.6.6,2.7v5.8c0,.5-.1.9-.4,1.1-.2.3-.6.4-1,.4s-.8-.1-1-.4c-.2-.3-.4-.6-.4-1.1v-1.2h.2c-.1.6-.3,1-.7,1.5s-.7.7-1.2.9c-.5.2-1.1.3-1.7.3Z"/>
          <path class="cls-19" d="M563.1,595.9c-1,0-1.9-.2-2.6-.5s-1.2-.9-1.5-1.5c-.3-.7-.5-1.5-.5-2.5v-5.1h-1.2c-.4,0-.7,0-.9-.3-.2-.2-.3-.5-.3-.8s.1-.6.3-.8c.2-.2.5-.3.9-.3h1.2v-2.2c0-.5.1-.9.4-1.1.3-.3.6-.4,1.1-.4s.8.1,1.1.4c.3.3.4.6.4,1.1v2.2h2.5c.4,0,.7,0,.9.3.2.2.3.5.3.8s-.1.6-.3.8c-.2.2-.5.3-.9.3h-2.5v4.9c0,.8.2,1.3.5,1.7.3.4.9.6,1.6.6s.5,0,.7,0,.4,0,.6,0c.2,0,.4,0,.5.2s.2.4.2.8,0,.6-.2.9c-.1.2-.3.4-.6.5-.2,0-.5.1-.8.2-.3,0-.6,0-.9,0Z"/>
          <path class="cls-19" d="M568.8,581.6c-.6,0-1-.1-1.3-.4-.3-.3-.5-.7-.5-1.2s.2-.9.5-1.2c.3-.3.7-.4,1.3-.4s1,.1,1.3.4c.3.3.5.7.5,1.2s-.2.9-.5,1.2c-.3.3-.7.4-1.3.4ZM568.8,595.9c-.5,0-.8-.1-1.1-.4-.3-.3-.4-.7-.4-1.2v-8.8c0-.5.1-.9.4-1.2.3-.3.6-.4,1.1-.4s.9.1,1.1.4c.3.3.4.7.4,1.2v8.8c0,.5-.1.9-.4,1.2s-.6.4-1.1.4Z"/>
          <path class="cls-19" d="M574.9,595.9c-.5,0-.8-.1-1.1-.4-.3-.3-.4-.6-.4-1.1v-9.1c0-.5.1-.9.4-1.1.3-.3.6-.4,1.1-.4s.8.1,1.1.4.4.6.4,1.1v1.6l-.3-.6c.4-.8.9-1.5,1.6-1.9.7-.4,1.6-.7,2.5-.7s1.7.2,2.3.5c.6.4,1.1.9,1.4,1.6s.5,1.6.5,2.7v5.8c0,.5-.1.9-.4,1.1s-.6.4-1.1.4-.9-.1-1.1-.4c-.3-.3-.4-.6-.4-1.1v-5.7c0-.9-.2-1.6-.5-2-.3-.4-.9-.6-1.6-.6s-1.6.3-2.1.8-.8,1.3-.8,2.2v5.3c0,1-.5,1.5-1.5,1.5Z"/>
          <path class="cls-19" d="M592.9,600.3c-.9,0-1.7,0-2.5-.2-.8-.2-1.5-.4-2.2-.7-.3-.2-.5-.4-.6-.6-.1-.2-.1-.5,0-.7,0-.2.1-.4.3-.6.2-.2.3-.3.6-.4.2,0,.5,0,.7,0,.7.4,1.4.6,2,.7.6.1,1.2.2,1.6.2,1.1,0,1.9-.3,2.4-.8.5-.5.8-1.3.8-2.3v-2.2h.2c-.2.8-.7,1.5-1.5,2-.8.5-1.6.7-2.6.7s-2-.2-2.8-.7c-.8-.5-1.4-1.2-1.8-2.1-.4-.9-.6-1.9-.6-3.1s.1-1.7.4-2.4.6-1.3,1.1-1.8c.5-.5,1-.9,1.7-1.2.6-.3,1.4-.4,2.1-.4s1.9.2,2.6.7c.7.5,1.2,1.1,1.5,1.9l-.2.6v-1.7c0-.5.1-.9.4-1.1.3-.3.6-.4,1.1-.4s.8.1,1.1.4.4.6.4,1.1v9.2c0,1.9-.5,3.3-1.5,4.3s-2.5,1.4-4.4,1.4ZM592.8,593.1c.6,0,1.2-.1,1.6-.4.4-.3.8-.7,1-1.2.2-.5.4-1.2.4-1.9,0-1.1-.3-2-.8-2.6s-1.3-.9-2.2-.9-1.2.1-1.6.4c-.4.3-.8.7-1,1.2s-.4,1.2-.4,1.9c0,1.1.3,2,.8,2.6.5.6,1.3,1,2.2,1Z"/>
          <path class="cls-19" d="M612.3,595.9c-.8,0-1.6-.2-2.3-.5-.7-.3-1.2-.8-1.6-1.3-.4-.6-.6-1.2-.6-1.9s.2-1.5.7-2.1c.4-.5,1.2-.9,2.2-1.1,1-.2,2.4-.3,4.1-.3h1.2v1.7h-1.2c-1,0-1.8,0-2.4.1s-1,.3-1.3.5c-.2.2-.4.6-.4,1s.2,1,.6,1.3.9.5,1.5.5,1-.1,1.4-.4c.4-.2.7-.6,1-1,.2-.4.4-.9.4-1.5v-2.8c0-.8-.2-1.4-.5-1.7-.4-.4-.9-.5-1.8-.5s-1,0-1.5.2c-.5.1-1.1.3-1.7.6-.3.1-.6.2-.8.1-.2,0-.4-.2-.5-.4-.1-.2-.2-.4-.2-.7s0-.5.2-.7c.1-.2.3-.4.6-.5.7-.3,1.4-.5,2.1-.6.7-.1,1.3-.2,1.9-.2,1.2,0,2.1.2,2.8.5.7.4,1.3.9,1.7,1.6s.6,1.6.6,2.7v5.8c0,.5-.1.9-.4,1.1-.2.3-.6.4-1,.4s-.8-.1-1-.4-.4-.6-.4-1.1v-1.2h.2c-.1.6-.3,1-.7,1.5-.3.4-.7.7-1.2.9-.5.2-1.1.3-1.7.3Z"/>
          <path class="cls-19" d="M630.4,595.9c-.5,0-.9-.1-1.1-.4s-.4-.6-.4-1.1v-8.1h-1.1c-.4,0-.7,0-.9-.3-.2-.2-.3-.5-.3-.8s.1-.6.3-.8c.2-.2.5-.3.9-.3h2l-.9.8v-.8c0-1.6.4-2.9,1.2-3.7s2-1.3,3.6-1.5h.8c.3-.1.6,0,.8,0,.2.1.3.3.4.5,0,.2,0,.4,0,.7,0,.2-.1.4-.3.6-.2.2-.3.3-.6.3h-.3c-.9,0-1.6.3-2,.7-.4.4-.6,1-.6,1.8v.9l-.4-.4h2.4c.4,0,.7,0,.9.3.2.2.3.5.3.8s-.1.6-.3.8c-.2.2-.5.3-.9.3h-2v8.1c0,1-.5,1.5-1.5,1.5Z"/>
          <path class="cls-19" d="M642.3,595.9c-1.3,0-2.5-.2-3.4-.7s-1.7-1.2-2.2-2.1c-.5-.9-.8-2-.8-3.2s.3-2.3.8-3.2,1.2-1.6,2.1-2.1c.9-.5,1.9-.8,3-.8s1.6.1,2.2.4c.7.3,1.2.7,1.7,1.2.5.5.8,1.1,1.1,1.9.2.7.4,1.5.4,2.5s-.1.5-.3.7c-.2.2-.5.2-.9.2h-7.7v-1.7h6.7l-.4.4c0-.7-.1-1.4-.3-1.8-.2-.5-.5-.9-.9-1.1-.4-.3-.9-.4-1.5-.4s-1.2.2-1.7.5c-.5.3-.8.8-1.1,1.3-.2.6-.4,1.2-.4,2v.2c0,1.3.3,2.3.9,2.9.6.6,1.5,1,2.7,1s.9,0,1.4-.2c.5-.1,1-.3,1.5-.5.3-.2.6-.3.9-.3.3,0,.5.1.6.3.2.2.2.4.3.6,0,.2,0,.5-.1.7s-.3.4-.6.6c-.6.4-1.2.6-1.9.8-.7.2-1.4.3-2,.3Z"/>
          <path class="cls-19" d="M655.3,595.9c-1.3,0-2.5-.2-3.4-.7s-1.7-1.2-2.2-2.1c-.5-.9-.8-2-.8-3.2s.3-2.3.8-3.2,1.2-1.6,2.1-2.1c.9-.5,1.9-.8,3-.8s1.6.1,2.2.4c.7.3,1.2.7,1.7,1.2.5.5.8,1.1,1.1,1.9.2.7.4,1.5.4,2.5s-.1.5-.3.7c-.2.2-.5.2-.9.2h-7.7v-1.7h6.7l-.4.4c0-.7-.1-1.4-.3-1.8-.2-.5-.5-.9-.9-1.1-.4-.3-.9-.4-1.5-.4s-1.2.2-1.7.5c-.5.3-.8.8-1.1,1.3-.2.6-.4,1.2-.4,2v.2c0,1.3.3,2.3.9,2.9.6.6,1.5,1,2.7,1s.9,0,1.4-.2c.5-.1,1-.3,1.5-.5.3-.2.6-.3.9-.3.3,0,.5.1.6.3.2.2.2.4.3.6,0,.2,0,.5-.1.7s-.3.4-.6.6c-.6.4-1.2.6-1.9.8-.7.2-1.4.3-2,.3Z"/>
          <path class="cls-19" d="M666.5,595.9c-1.3,0-2.3-.4-3-1.1-.7-.8-1-1.9-1-3.3v-11.4c0-.5.1-.9.4-1.1.3-.3.6-.4,1.1-.4s.9.1,1.1.4.4.6.4,1.1v11.2c0,.7.2,1.3.5,1.6.3.4.8.5,1.3.5s.2,0,.4,0c.1,0,.2,0,.3,0,.2,0,.4,0,.5.2s.1.5.1.9,0,.7-.2.9c-.2.2-.4.4-.8.4-.2,0-.3,0-.5,0s-.4,0-.5,0Z"/>
          <path class="cls-19" d="M671.6,581.6c-.6,0-1-.1-1.3-.4-.3-.3-.5-.7-.5-1.2s.2-.9.5-1.2c.3-.3.7-.4,1.3-.4s1,.1,1.3.4c.3.3.5.7.5,1.2s-.2.9-.5,1.2c-.3.3-.7.4-1.3.4ZM671.6,595.9c-.5,0-.8-.1-1.1-.4-.3-.3-.4-.7-.4-1.2v-8.8c0-.5.1-.9.4-1.2.3-.3.6-.4,1.1-.4s.9.1,1.1.4c.3.3.4.7.4,1.2v8.8c0,.5-.1.9-.4,1.2s-.6.4-1.1.4Z"/>
          <path class="cls-19" d="M677.8,595.9c-.5,0-.8-.1-1.1-.4-.3-.3-.4-.6-.4-1.1v-9.1c0-.5.1-.9.4-1.1.3-.3.6-.4,1.1-.4s.8.1,1.1.4.4.6.4,1.1v1.6l-.3-.6c.4-.8.9-1.5,1.6-1.9.7-.4,1.6-.7,2.5-.7s1.7.2,2.3.5c.6.4,1.1.9,1.4,1.6s.5,1.6.5,2.7v5.8c0,.5-.1.9-.4,1.1s-.6.4-1.1.4-.9-.1-1.1-.4c-.3-.3-.4-.6-.4-1.1v-5.7c0-.9-.2-1.6-.5-2-.3-.4-.9-.6-1.6-.6s-1.6.3-2.1.8-.8,1.3-.8,2.2v5.3c0,1-.5,1.5-1.5,1.5Z"/>
          <path class="cls-19" d="M695.8,600.3c-.9,0-1.7,0-2.5-.2-.8-.2-1.5-.4-2.2-.7-.3-.2-.5-.4-.6-.6-.1-.2-.1-.5,0-.7,0-.2.1-.4.3-.6.2-.2.3-.3.6-.4.2,0,.5,0,.7,0,.7.4,1.4.6,2,.7.6.1,1.2.2,1.6.2,1.1,0,1.9-.3,2.4-.8.5-.5.8-1.3.8-2.3v-2.2h.2c-.2.8-.7,1.5-1.5,2-.8.5-1.6.7-2.6.7s-2-.2-2.8-.7c-.8-.5-1.4-1.2-1.8-2.1-.4-.9-.6-1.9-.6-3.1s.1-1.7.4-2.4.6-1.3,1.1-1.8c.5-.5,1-.9,1.7-1.2.6-.3,1.4-.4,2.1-.4s1.9.2,2.6.7c.7.5,1.2,1.1,1.5,1.9l-.2.6v-1.7c0-.5.1-.9.4-1.1.3-.3.6-.4,1.1-.4s.8.1,1.1.4.4.6.4,1.1v9.2c0,1.9-.5,3.3-1.5,4.3s-2.5,1.4-4.4,1.4ZM695.7,593.1c.6,0,1.2-.1,1.6-.4.4-.3.8-.7,1-1.2.2-.5.4-1.2.4-1.9,0-1.1-.3-2-.8-2.6s-1.3-.9-2.2-.9-1.2.1-1.6.4c-.4.3-.8.7-1,1.2s-.4,1.2-.4,1.9c0,1.1.3,2,.8,2.6.5.6,1.3,1,2.2,1Z"/>
        </g>
        <g class="cls-9">
          <path class="cls-19" d="M431.2,624.7c-1.2,0-2.3-.2-3.2-.7-.9-.5-1.6-1.2-2.1-2.1s-.7-2-.7-3.3.1-1.8.4-2.5c.3-.7.7-1.4,1.2-1.9s1.2-.9,1.9-1.2,1.6-.4,2.5-.4,2.3.2,3.2.7c.9.5,1.6,1.2,2.1,2.1.5.9.7,2,.7,3.2s-.1,1.8-.4,2.5c-.3.8-.7,1.4-1.2,1.9-.5.5-1.2.9-1.9,1.2-.7.3-1.6.4-2.5.4ZM431.2,622.5c.6,0,1.1-.1,1.6-.4.4-.3.8-.7,1-1.3.2-.6.4-1.3.4-2.1,0-1.3-.3-2.2-.8-2.9s-1.3-.9-2.2-.9-1.1.1-1.6.4c-.4.3-.8.7-1,1.3-.2.6-.4,1.3-.4,2.1,0,1.3.3,2.2.8,2.9.5.6,1.3,1,2.2,1Z"/>
          <path class="cls-19" d="M441.9,624.7c-.5,0-.9-.1-1.1-.4s-.4-.6-.4-1.1v-8.1h-1.1c-.4,0-.7,0-.9-.3-.2-.2-.3-.5-.3-.8s.1-.6.3-.8c.2-.2.5-.3.9-.3h2l-.9.8v-.8c0-1.6.4-2.9,1.2-3.7.8-.8,2-1.3,3.6-1.5h.8c.3-.1.6,0,.8,0,.2.1.3.3.4.5,0,.2,0,.4,0,.7,0,.2-.1.4-.3.6-.2.2-.3.3-.6.3h-.3c-.9,0-1.6.3-2,.7-.4.4-.6,1-.6,1.8v.9l-.4-.4h2.4c.4,0,.7,0,.9.3.2.2.3.5.3.8s-.1.6-.3.8c-.2.2-.5.3-.9.3h-2v8.1c0,1-.5,1.5-1.5,1.5Z"/>
          <path class="cls-19" d="M456.3,624.7c-.5,0-.9-.1-1.1-.4s-.4-.6-.4-1.1v-9.1c0-.5.1-.9.4-1.1s.6-.4,1.1-.4.8.1,1.1.4c.3.3.4.6.4,1.1v1.5h-.2c.2-1,.7-1.7,1.3-2.2.7-.5,1.5-.8,2.6-.9.3,0,.6,0,.8.3s.3.5.3.9c0,.4,0,.7-.3,1s-.5.4-1,.4h-.5c-1,.1-1.7.4-2.2.9-.5.5-.7,1.2-.7,2.1v5c0,.5-.1.9-.4,1.1-.3.3-.6.4-1.1.4Z"/>
          <path class="cls-19" d="M469.8,624.7c-1.3,0-2.5-.2-3.4-.7s-1.7-1.2-2.2-2.1-.8-2-.8-3.2.3-2.3.8-3.2,1.2-1.6,2.1-2.1c.9-.5,1.9-.8,3-.8s1.6.1,2.2.4c.7.3,1.2.7,1.7,1.2.5.5.8,1.1,1.1,1.9.2.7.4,1.5.4,2.5s-.1.5-.3.7c-.2.2-.5.2-.9.2h-7.7v-1.7h6.7l-.4.4c0-.7-.1-1.4-.3-1.8-.2-.5-.5-.9-.9-1.1s-.9-.4-1.5-.4-1.2.2-1.7.5c-.5.3-.8.8-1.1,1.3-.2.6-.4,1.2-.4,2v.2c0,1.3.3,2.3.9,2.9.6.6,1.5,1,2.7,1s.9,0,1.4-.2c.5-.1,1-.3,1.5-.5.3-.2.6-.3.9-.3.3,0,.5.1.6.3.2.2.2.4.3.6,0,.2,0,.5-.1.7s-.3.4-.6.6c-.6.4-1.2.6-1.9.8-.7.2-1.4.3-2,.3Z"/>
          <path class="cls-19" d="M481.4,624.7c-.4,0-.7-.1-1-.3-.3-.2-.5-.5-.7-.9l-3.5-8.9c-.1-.4-.2-.7-.1-1s.2-.5.4-.7c.2-.2.6-.3,1-.3s.6,0,.9.3.4.5.6.9l2.9,8h-.6l3-8.2c.1-.4.3-.6.5-.8.2-.2.5-.2.9-.2s.6,0,.9.3c.2.2.4.4.5.8l3,8.2h-.5l2.9-8.1c.2-.4.4-.7.6-.9.2-.2.5-.2.8-.2s.7,0,.9.3c.2.2.3.4.4.7,0,.3,0,.6-.2,1l-3.5,8.9c-.2.4-.4.7-.7.9s-.6.3-1,.3-.7-.1-1-.3c-.3-.2-.5-.5-.7-.9l-3.1-8.3h1.4l-3.1,8.3c-.2.4-.4.8-.7,1s-.6.3-1.1.3Z"/>
          <path class="cls-19" d="M500.9,624.7c-.8,0-1.6-.2-2.3-.5s-1.2-.8-1.6-1.3c-.4-.6-.6-1.2-.6-1.9s.2-1.5.7-2.1c.4-.5,1.2-.9,2.2-1.1,1-.2,2.4-.3,4.1-.3h1.2v1.7h-1.2c-1,0-1.8,0-2.4.1s-1,.3-1.3.5c-.2.2-.4.6-.4,1s.2,1,.6,1.3c.4.3.9.5,1.5.5s1-.1,1.4-.4c.4-.2.7-.6,1-1,.2-.4.4-.9.4-1.5v-2.8c0-.8-.2-1.4-.5-1.7-.4-.4-.9-.5-1.8-.5s-1,0-1.5.2-1.1.3-1.7.6c-.3.1-.6.2-.8.1-.2,0-.4-.2-.5-.4s-.2-.4-.2-.7,0-.5.2-.7c.1-.2.3-.4.6-.5.7-.3,1.4-.5,2.1-.6.7-.1,1.3-.2,1.9-.2,1.2,0,2.1.2,2.8.5.7.4,1.3.9,1.7,1.6s.6,1.6.6,2.7v5.8c0,.5-.1.9-.4,1.1-.2.3-.6.4-1,.4s-.8-.1-1-.4c-.2-.3-.4-.6-.4-1.1v-1.2h.2c-.1.6-.3,1-.7,1.5s-.7.7-1.2.9c-.5.2-1.1.3-1.7.3Z"/>
          <path class="cls-19" d="M511.7,624.7c-.5,0-.9-.1-1.1-.4s-.4-.6-.4-1.1v-9.1c0-.5.1-.9.4-1.1s.6-.4,1.1-.4.8.1,1.1.4c.3.3.4.6.4,1.1v1.5h-.2c.2-1,.7-1.7,1.3-2.2.7-.5,1.5-.8,2.6-.9.3,0,.6,0,.8.3s.3.5.3.9c0,.4,0,.7-.3,1s-.5.4-1,.4h-.5c-1,.1-1.7.4-2.2.9-.5.5-.7,1.2-.7,2.1v5c0,.5-.1.9-.4,1.1-.3.3-.6.4-1.1.4Z"/>
          <path class="cls-19" d="M523.9,624.7c-1,0-1.9-.2-2.7-.7s-1.4-1.2-1.8-2.1c-.4-.9-.6-2-.6-3.3s.2-2.3.6-3.3c.4-.9,1-1.6,1.8-2.1.8-.5,1.7-.7,2.7-.7s1.8.2,2.6.7c.7.5,1.2,1.1,1.5,1.9h-.3v-6.2c0-.5.1-.9.4-1.1.3-.3.6-.4,1.1-.4s.9.1,1.1.4.4.6.4,1.1v14.3c0,.5-.1.9-.4,1.1s-.6.4-1.1.4-.8-.1-1.1-.4-.4-.6-.4-1.1v-1.9l.3.7c-.2.8-.7,1.5-1.5,2s-1.6.7-2.6.7ZM524.8,622.5c.6,0,1.1-.1,1.6-.4.4-.3.8-.7,1-1.3.2-.6.4-1.3.4-2.1,0-1.3-.3-2.2-.8-2.9s-1.3-.9-2.2-.9-1.1.1-1.6.4c-.4.3-.8.7-1,1.3-.2.6-.4,1.3-.4,2.1,0,1.3.3,2.2.8,2.9.5.6,1.3,1,2.2,1Z"/>
        </g>
      </g>
      <rect class="cls-5" x="211.4" y="819.4" width="531.2" height="105.5" rx="28.3" ry="28.3"/>
      <g class="cls-9">
        <g class="cls-9">
          <path class="cls-16" d="M389,882.8c-.7,0-1.3-.2-1.7-.6-.4-.4-.6-1-.6-1.7v-12.2h-1.7c-.6,0-1-.1-1.3-.5-.3-.3-.5-.7-.5-1.2s.2-1,.5-1.3c.3-.3.8-.4,1.3-.4h3l-1.3,1.2v-1.2c0-2.5.6-4.3,1.9-5.6,1.2-1.2,3-2,5.4-2.2h1.2c.5-.2.9,0,1.2.1.3.2.5.5.6.8,0,.3.1.7,0,1,0,.3-.2.6-.5.9s-.5.4-.9.4h-.5c-1.4.1-2.4.5-3,1.1s-.9,1.5-.9,2.7v1.3l-.6-.6h3.6c.6,0,1,.1,1.3.4.3.3.5.7.5,1.3s-.2.9-.5,1.2c-.3.3-.8.5-1.3.5h-3.1v12.2c0,1.5-.7,2.3-2.2,2.3ZM404.7,882.9c-2,0-3.5-.6-4.5-1.7s-1.5-2.8-1.5-5v-17c0-.7.2-1.3.6-1.7.4-.4.9-.6,1.7-.6s1.3.2,1.7.6.6.9.6,1.7v16.8c0,1.1.2,1.9.7,2.4s1.1.8,2,.8.4,0,.5,0c.2,0,.3,0,.5,0,.3,0,.6,0,.7.3.1.2.2.7.2,1.4s-.1,1.1-.4,1.4c-.2.3-.6.5-1.2.6-.2,0-.5,0-.8,0-.3,0-.5,0-.8,0Z"/>
          <path class="cls-16" d="M418,882.9c-1.8,0-3.4-.4-4.8-1.1-1.3-.7-2.4-1.8-3.1-3.2-.7-1.4-1.1-3-1.1-4.9s.2-2.7.6-3.8c.4-1.1,1-2.1,1.8-2.9.8-.8,1.7-1.4,2.8-1.8,1.1-.4,2.3-.6,3.7-.6s3.4.4,4.8,1.1c1.3.7,2.4,1.8,3.1,3.2.7,1.4,1.1,3,1.1,4.9s-.2,2.7-.6,3.8-1,2.1-1.8,2.9c-.8.8-1.7,1.4-2.8,1.8-1.1.4-2.3.6-3.7.6ZM418,879.4c.9,0,1.7-.2,2.3-.6.7-.4,1.2-1.1,1.6-1.9s.6-1.9.6-3.2c0-1.9-.4-3.4-1.2-4.3-.8-.9-1.9-1.4-3.2-1.4s-1.7.2-2.3.6-1.2,1.1-1.6,1.9-.6,1.9-.6,3.2c0,1.9.4,3.3,1.2,4.3.8,1,1.9,1.5,3.2,1.5Z"/>
          <path class="cls-16" d="M437.1,882.8c-.6,0-1.1-.2-1.5-.5-.4-.3-.8-.8-1-1.4l-5.2-13.3c-.2-.6-.3-1.1-.2-1.5s.3-.8.7-1.1c.4-.3.8-.4,1.4-.4s1,.1,1.3.4c.3.3.6.7.9,1.4l4.4,12h-.8l4.5-12.3c.2-.5.4-.9.8-1.2.3-.2.7-.4,1.3-.4s1,.1,1.3.4c.3.3.6.6.8,1.1l4.4,12.3h-.8l4.4-12.1c.2-.6.5-1.1.9-1.3.4-.2.8-.4,1.2-.4s1,.1,1.3.4c.3.3.5.7.5,1.1,0,.4,0,.9-.3,1.5l-5.2,13.3c-.2.6-.6,1.1-1,1.4-.4.3-1,.5-1.6.5s-1.1-.2-1.6-.5c-.4-.3-.8-.8-1-1.4l-4.7-12.5h2.1l-4.6,12.5c-.2.6-.6,1.1-1,1.4s-1,.5-1.6.5Z"/>
          <path class="cls-16" d="M478.9,882.9c-1.6,0-2.9-.3-3.9-.8-1-.5-1.8-1.3-2.3-2.3-.5-1-.8-2.3-.8-3.8v-7.7h-1.9c-.6,0-1-.1-1.3-.5-.3-.3-.5-.7-.5-1.2s.2-1,.5-1.3c.3-.3.8-.4,1.3-.4h1.9v-3.3c0-.7.2-1.3.6-1.7.4-.4,1-.6,1.7-.6s1.3.2,1.7.6c.4.4.6.9.6,1.7v3.3h3.8c.6,0,1,.1,1.3.4.3.3.5.7.5,1.3s-.2.9-.5,1.2c-.3.3-.8.5-1.3.5h-3.8v7.4c0,1.2.3,2,.8,2.6.5.6,1.3.9,2.4.9s.8,0,1.1-.1c.3,0,.6-.1.8-.1.3,0,.5,0,.7.3.2.2.3.6.3,1.2s0,.9-.2,1.3c-.2.4-.4.6-.8.8-.3,0-.7.2-1.2.3-.5,0-.9.1-1.3.1Z"/>
          <path class="cls-16" d="M487.3,882.8c-.7,0-1.3-.2-1.7-.6-.4-.4-.6-1-.6-1.7v-21.4c0-.7.2-1.3.6-1.7.4-.4.9-.6,1.7-.6s1.3.2,1.7.6.6.9.6,1.7v9.3h-.5c.5-1.3,1.4-2.2,2.5-2.9,1.1-.7,2.4-1,3.8-1s2.6.3,3.5.8c.9.5,1.6,1.3,2.1,2.4.5,1.1.7,2.4.7,4.1v8.7c0,.7-.2,1.3-.6,1.7-.4.4-.9.6-1.7.6s-1.3-.2-1.7-.6c-.4-.4-.6-1-.6-1.7v-8.5c0-1.4-.3-2.4-.8-3-.5-.6-1.3-.9-2.4-.9s-2.4.4-3.2,1.2-1.2,1.9-1.2,3.3v7.9c0,1.5-.8,2.3-2.3,2.3Z"/>
          <path class="cls-16" d="M514.8,882.9c-2,0-3.7-.4-5.1-1.1s-2.6-1.8-3.3-3.2c-.8-1.4-1.2-3-1.2-4.9s.4-3.4,1.1-4.8,1.8-2.4,3.1-3.2c1.3-.8,2.8-1.2,4.6-1.2s2.4.2,3.4.6,1.8,1,2.6,1.8c.7.8,1.2,1.7,1.6,2.8s.6,2.3.6,3.7-.2.8-.5,1c-.3.2-.7.3-1.3.3h-11.6v-2.6h10.1l-.6.5c0-1.1-.2-2-.5-2.8s-.8-1.3-1.4-1.7c-.6-.4-1.4-.6-2.3-.6s-1.9.2-2.6.7c-.7.5-1.2,1.1-1.6,2s-.6,1.9-.6,3v.3c0,2,.5,3.4,1.4,4.4.9,1,2.3,1.5,4.1,1.5s1.3,0,2.1-.2,1.5-.4,2.2-.8c.5-.3.9-.4,1.3-.4.4,0,.7.2.9.4.2.2.4.5.4.9s0,.7-.2,1.1c-.2.4-.5.7-.9.9-.8.5-1.8.9-2.9,1.2s-2.1.4-3,.4Z"/>
          <path class="cls-16" d="M533.7,882.9c-1.8,0-3.4-.4-4.8-1.1-1.3-.7-2.4-1.8-3.1-3.2-.7-1.4-1.1-3-1.1-4.9s.2-2.7.6-3.8c.4-1.1,1-2.1,1.8-2.9.8-.8,1.7-1.4,2.8-1.8,1.1-.4,2.3-.6,3.7-.6s3.4.4,4.8,1.1c1.3.7,2.4,1.8,3.1,3.2.7,1.4,1.1,3,1.1,4.9s-.2,2.7-.6,3.8-1,2.1-1.8,2.9c-.8.8-1.7,1.4-2.8,1.8-1.1.4-2.3.6-3.7.6ZM533.7,879.4c.9,0,1.7-.2,2.3-.6.7-.4,1.2-1.1,1.6-1.9s.6-1.9.6-3.2c0-1.9-.4-3.4-1.2-4.3-.8-.9-1.9-1.4-3.2-1.4s-1.7.2-2.3.6-1.2,1.1-1.6,1.9-.6,1.9-.6,3.2c0,1.9.4,3.3,1.2,4.3.8,1,1.9,1.5,3.2,1.5Z"/>
          <path class="cls-16" d="M548.7,882.8c-.7,0-1.3-.2-1.7-.6-.4-.4-.6-1-.6-1.7v-13.6c0-.7.2-1.3.6-1.7.4-.4.9-.6,1.6-.6s1.2.2,1.6.6c.4.4.6.9.6,1.7v2.3h-.4c.3-1.4,1-2.5,2-3.3s2.3-1.2,3.9-1.3c.5,0,.9,0,1.2.4.3.3.5.8.5,1.4,0,.6,0,1.1-.4,1.5-.3.4-.8.6-1.5.7h-.8c-1.5.2-2.6.7-3.3,1.4s-1.1,1.8-1.1,3.2v7.5c0,.7-.2,1.3-.6,1.7-.4.4-.9.6-1.7.6Z"/>
          <path class="cls-16" d="M566,889.3c-.5,0-1-.1-1.3-.4-.3-.3-.5-.6-.6-1.1s0-.9.2-1.4l2.4-5.4v1.9l-6.6-15.2c-.2-.5-.3-1-.2-1.5s.3-.8.7-1.1c.4-.3.9-.4,1.5-.4s1,.1,1.3.4c.3.3.6.7.9,1.4l4.9,12.1h-1.1l5-12.2c.3-.7.6-1.1.9-1.4.4-.3.8-.4,1.4-.4s.9.1,1.3.4c.3.3.5.6.6,1.1,0,.4,0,.9-.3,1.5l-8.7,20c-.3.7-.6,1.1-1,1.4-.4.2-.8.4-1.4.4Z"/>
        </g>
      </g>
      <rect class="cls-5" x="211.4" y="951.2" width="531.2" height="105.5" rx="28.3" ry="28.3"/>
      <g class="cls-9">
        <g class="cls-9">
          <path class="cls-16" d="M277.8,1014.7c-1,0-2.1-.1-3.3-.3-1.2-.2-2.2-.6-3.1-1.1-.4-.2-.7-.5-.8-.8-.2-.3-.2-.6-.2-1,0-.3.2-.6.4-.8.2-.2.5-.4.8-.5.3,0,.7,0,1.1.2,1,.5,1.9.8,2.7,1,.8.2,1.7.3,2.5.3s2-.2,2.6-.6c.6-.4.8-.9.8-1.6s-.2-1-.6-1.3c-.4-.3-.9-.5-1.7-.7l-3.6-.7c-1.5-.3-2.6-.8-3.4-1.6-.8-.8-1.2-1.8-1.2-3.1s.3-2.1,1-3c.6-.8,1.5-1.5,2.6-1.9,1.1-.5,2.4-.7,3.9-.7s2,.1,3,.3c.9.2,1.8.6,2.7,1.1.4.2.6.4.7.8s.2.6,0,1c0,.3-.2.6-.4.9-.2.3-.5.4-.8.5s-.7,0-1.1-.2c-.7-.4-1.5-.7-2.1-.8-.7-.2-1.3-.3-2-.3-1.2,0-2,.2-2.6.6-.6.4-.8.9-.8,1.6s.2.9.5,1.3c.3.3.9.6,1.5.7l3.6.7c1.6.3,2.7.8,3.5,1.6.8.8,1.2,1.8,1.2,3.1s-.7,3.1-2.1,4.1c-1.4,1-3.2,1.5-5.5,1.5Z"/>
          <path class="cls-16" d="M297.6,1014.7c-2,0-3.7-.4-5.1-1.1s-2.6-1.8-3.3-3.2c-.8-1.4-1.2-3-1.2-4.9s.4-3.4,1.1-4.8,1.8-2.4,3.1-3.2c1.3-.8,2.8-1.2,4.6-1.2s2.4.2,3.4.6c1,.4,1.8,1,2.6,1.8.7.8,1.2,1.7,1.6,2.8.4,1.1.6,2.3.6,3.7s-.2.8-.5,1c-.3.2-.7.3-1.3.3h-11.6v-2.6h10.1l-.6.5c0-1.1-.2-2-.5-2.8-.3-.7-.8-1.3-1.4-1.7-.6-.4-1.4-.6-2.3-.6s-1.9.2-2.6.7c-.7.5-1.2,1.1-1.6,2s-.6,1.9-.6,3v.3c0,2,.5,3.4,1.4,4.4.9,1,2.3,1.5,4.1,1.5s1.3,0,2.1-.2c.8-.2,1.5-.4,2.2-.8.5-.3.9-.4,1.3-.4.4,0,.7.2.9.4.2.2.4.5.4.9,0,.3,0,.7-.2,1.1s-.5.7-.9.9c-.8.5-1.8.9-2.9,1.2-1.1.3-2.1.4-3,.4Z"/>
          <path class="cls-16" d="M314.4,1014.7c-2,0-3.5-.6-4.5-1.7s-1.5-2.8-1.5-5v-17c0-.7.2-1.3.6-1.7.4-.4.9-.6,1.7-.6s1.3.2,1.7.6.6.9.6,1.7v16.8c0,1.1.2,1.9.7,2.4s1.1.8,2,.8.4,0,.5,0c.2,0,.3,0,.5,0,.3,0,.6,0,.7.3.1.2.2.7.2,1.4s-.1,1.1-.4,1.4c-.2.3-.6.5-1.2.6-.2,0-.5,0-.8,0-.3,0-.5,0-.8,0Z"/>
          <path class="cls-16" d="M323,1014.6c-.7,0-1.3-.2-1.7-.6-.4-.4-.6-1-.6-1.7v-12.2h-1.7c-.6,0-1-.1-1.3-.5-.3-.3-.5-.7-.5-1.2s.2-1,.5-1.3c.3-.3.8-.4,1.3-.4h3l-1.3,1.2v-1.2c0-2.5.6-4.3,1.9-5.6,1.2-1.2,3-2,5.4-2.2h1.2c.5-.2.9,0,1.2.1.3.2.5.5.6.8,0,.3.1.7,0,1,0,.3-.2.6-.5.9s-.5.4-.9.4h-.5c-1.4.1-2.4.5-3,1.1s-.9,1.5-.9,2.7v1.3l-.6-.6h3.6c.6,0,1,.1,1.3.4.3.3.5.7.5,1.3s-.2.9-.5,1.2c-.3.3-.8.5-1.3.5h-3.1v12.2c0,1.5-.7,2.3-2.2,2.3Z"/>
          <path class="cls-16" d="M334,1006.5c-.5,0-1-.2-1.3-.5-.3-.3-.5-.8-.5-1.3s.2-1,.5-1.3c.3-.3.8-.5,1.3-.5h7.7c.5,0,.9.2,1.3.5.3.3.5.8.5,1.3s-.2.9-.5,1.3c-.3.3-.8.5-1.3.5h-7.7Z"/>
          <path class="cls-16" d="M355.3,1014.7c-1.5,0-2.9-.4-4-1.1-1.2-.7-2.1-1.8-2.7-3.2-.6-1.4-1-3-1-4.9s.3-3.5,1-4.9c.6-1.4,1.6-2.4,2.7-3.1,1.2-.7,2.5-1.1,4-1.1s2.7.4,3.8,1.1c1.1.7,1.8,1.7,2.2,2.8h-.4v-9.4c0-.7.2-1.3.6-1.7.4-.4.9-.6,1.7-.6s1.3.2,1.7.6.6.9.6,1.7v21.4c0,.7-.2,1.3-.6,1.7-.4.4-.9.6-1.7.6s-1.3-.2-1.7-.6c-.4-.4-.6-1-.6-1.7v-2.8l.4,1.1c-.4,1.2-1.1,2.2-2.2,3-1.1.7-2.4,1.1-3.9,1.1ZM356.6,1011.2c.9,0,1.7-.2,2.3-.6.7-.4,1.2-1.1,1.6-1.9s.6-1.9.6-3.2c0-1.9-.4-3.4-1.2-4.3-.8-.9-1.9-1.4-3.2-1.4s-1.7.2-2.3.6-1.2,1.1-1.6,1.9-.6,1.9-.6,3.2c0,1.9.4,3.3,1.2,4.3.8,1,1.9,1.5,3.2,1.5Z"/>
          <path class="cls-16" d="M378.8,1014.7c-2,0-3.7-.4-5.1-1.1s-2.6-1.8-3.3-3.2c-.8-1.4-1.2-3-1.2-4.9s.4-3.4,1.1-4.8,1.8-2.4,3.1-3.2c1.3-.8,2.8-1.2,4.6-1.2s2.4.2,3.4.6c1,.4,1.8,1,2.6,1.8.7.8,1.2,1.7,1.6,2.8.4,1.1.6,2.3.6,3.7s-.2.8-.5,1c-.3.2-.7.3-1.3.3h-11.6v-2.6h10.1l-.6.5c0-1.1-.2-2-.5-2.8-.3-.7-.8-1.3-1.4-1.7-.6-.4-1.4-.6-2.3-.6s-1.9.2-2.6.7c-.7.5-1.2,1.1-1.6,2s-.6,1.9-.6,3v.3c0,2,.5,3.4,1.4,4.4.9,1,2.3,1.5,4.1,1.5s1.3,0,2.1-.2c.8-.2,1.5-.4,2.2-.8.5-.3.9-.4,1.3-.4.4,0,.7.2.9.4.2.2.4.5.4.9,0,.3,0,.7-.2,1.1s-.5.7-.9.9c-.8.5-1.8.9-2.9,1.2-1.1.3-2.1.4-3,.4Z"/>
          <path class="cls-16" d="M397.6,1014.7c-1.6,0-2.9-.3-3.9-.8-1-.5-1.8-1.3-2.3-2.3-.5-1-.8-2.3-.8-3.8v-7.7h-1.9c-.6,0-1-.1-1.3-.5-.3-.3-.5-.7-.5-1.2s.2-1,.5-1.3c.3-.3.8-.4,1.3-.4h1.9v-3.3c0-.7.2-1.3.6-1.7.4-.4,1-.6,1.7-.6s1.3.2,1.7.6c.4.4.6.9.6,1.7v3.3h3.8c.6,0,1,.1,1.3.4.3.3.5.7.5,1.3s-.2.9-.5,1.2c-.3.3-.8.5-1.3.5h-3.8v7.4c0,1.2.3,2,.8,2.6.5.6,1.3.9,2.4.9s.8,0,1.1-.1c.3,0,.6-.1.8-.1.3,0,.5,0,.7.3.2.2.3.6.3,1.2s0,.9-.2,1.3c-.2.4-.4.6-.8.8-.3,0-.7.2-1.2.3-.5,0-.9.1-1.3.1Z"/>
          <path class="cls-16" d="M411.9,1014.7c-2,0-3.7-.4-5.1-1.1s-2.6-1.8-3.3-3.2c-.8-1.4-1.2-3-1.2-4.9s.4-3.4,1.1-4.8,1.8-2.4,3.1-3.2c1.3-.8,2.8-1.2,4.6-1.2s2.4.2,3.4.6c1,.4,1.8,1,2.6,1.8.7.8,1.2,1.7,1.6,2.8.4,1.1.6,2.3.6,3.7s-.2.8-.5,1c-.3.2-.7.3-1.3.3h-11.6v-2.6h10.1l-.6.5c0-1.1-.2-2-.5-2.8-.3-.7-.8-1.3-1.4-1.7-.6-.4-1.4-.6-2.3-.6s-1.9.2-2.6.7c-.7.5-1.2,1.1-1.6,2s-.6,1.9-.6,3v.3c0,2,.5,3.4,1.4,4.4.9,1,2.3,1.5,4.1,1.5s1.3,0,2.1-.2c.8-.2,1.5-.4,2.2-.8.5-.3.9-.4,1.3-.4.4,0,.7.2.9.4.2.2.4.5.4.9,0,.3,0,.7-.2,1.1s-.5.7-.9.9c-.8.5-1.8.9-2.9,1.2-1.1.3-2.1.4-3,.4Z"/>
          <path class="cls-16" d="M425,1014.6c-.7,0-1.3-.2-1.7-.6-.4-.4-.6-1-.6-1.7v-13.6c0-.7.2-1.3.6-1.7.4-.4.9-.6,1.6-.6s1.2.2,1.6.6c.4.4.6.9.6,1.7v2.3h-.4c.3-1.4,1-2.5,2-3.3,1-.7,2.3-1.2,3.9-1.3.5,0,.9,0,1.2.4.3.3.5.8.5,1.4,0,.6,0,1.1-.4,1.5-.3.4-.8.6-1.5.7h-.8c-1.5.2-2.6.7-3.3,1.4-.7.8-1.1,1.8-1.1,3.2v7.5c0,.7-.2,1.3-.6,1.7-.4.4-.9.6-1.7.6Z"/>
          <path class="cls-16" d="M439.1,1014.6c-.7,0-1.3-.2-1.7-.6-.4-.4-.6-1-.6-1.7v-13.6c0-.7.2-1.3.6-1.7.4-.4.9-.6,1.6-.6s1.2.2,1.6.6c.4.4.6.9.6,1.7v2.6l-.4-1.1c.5-1.2,1.2-2.1,2.2-2.8,1-.7,2.2-1,3.6-1s2.6.3,3.5,1,1.5,1.7,1.9,3.1h-.5c.5-1.3,1.3-2.3,2.4-3,1.1-.7,2.4-1.1,3.8-1.1s2.5.3,3.3.8c.9.5,1.5,1.3,2,2.4.4,1.1.6,2.4.6,4.1v8.7c0,.7-.2,1.3-.6,1.7-.4.4-1,.6-1.7.6s-1.3-.2-1.7-.6c-.4-.4-.6-1-.6-1.7v-8.5c0-1.3-.2-2.3-.7-3-.4-.6-1.2-.9-2.2-.9s-2.1.4-2.8,1.2c-.7.8-1,2-1,3.4v7.7c0,.7-.2,1.3-.6,1.7-.4.4-.9.6-1.7.6s-1.3-.2-1.7-.6c-.4-.4-.6-1-.6-1.7v-8.5c0-1.3-.2-2.3-.7-3-.4-.6-1.2-.9-2.2-.9s-2.1.4-2.8,1.2-1,2-1,3.4v7.7c0,1.5-.8,2.3-2.3,2.3Z"/>
          <path class="cls-16" d="M470.6,993.1c-.8,0-1.5-.2-2-.6-.5-.4-.7-1-.7-1.7s.2-1.4.7-1.8c.5-.4,1.1-.6,2-.6s1.5.2,2,.6.7,1,.7,1.8-.2,1.3-.7,1.7-1.1.6-2,.6ZM470.6,1014.6c-.7,0-1.3-.2-1.7-.6-.4-.4-.6-1-.6-1.8v-13.2c0-.8.2-1.4.6-1.8.4-.4.9-.6,1.7-.6s1.3.2,1.7.6.6,1,.6,1.8v13.2c0,.8-.2,1.4-.6,1.8-.4.4-.9.6-1.7.6Z"/>
          <path class="cls-16" d="M479.8,1014.6c-.7,0-1.3-.2-1.7-.6-.4-.4-.6-1-.6-1.7v-13.6c0-.7.2-1.3.6-1.7.4-.4.9-.6,1.6-.6s1.2.2,1.6.6c.4.4.6.9.6,1.7v2.4l-.4-.9c.5-1.3,1.4-2.2,2.5-2.9,1.1-.7,2.4-1,3.8-1s2.6.3,3.5.8c.9.5,1.6,1.3,2.1,2.4.5,1.1.7,2.4.7,4.1v8.7c0,.7-.2,1.3-.6,1.7-.4.4-.9.6-1.7.6s-1.3-.2-1.7-.6c-.4-.4-.6-1-.6-1.7v-8.5c0-1.4-.3-2.4-.8-3-.5-.6-1.3-.9-2.4-.9s-2.4.4-3.2,1.2-1.2,1.9-1.2,3.3v7.9c0,1.5-.8,2.3-2.3,2.3Z"/>
          <path class="cls-16" d="M504.4,1014.7c-1.3,0-2.4-.2-3.4-.7-1-.5-1.8-1.2-2.3-2-.6-.8-.8-1.8-.8-2.8s.3-2.3,1-3.1c.7-.8,1.8-1.3,3.3-1.6s3.5-.5,6.1-.5h1.8v2.6h-1.8c-1.5,0-2.7,0-3.6.2-.9.1-1.5.4-1.9.7-.4.3-.6.8-.6,1.5s.3,1.4.8,1.9c.6.5,1.3.8,2.3.8s1.5-.2,2.1-.6c.6-.4,1.1-.9,1.5-1.5.4-.6.5-1.4.5-2.2v-4.1c0-1.2-.3-2.1-.8-2.6-.5-.5-1.4-.8-2.7-.8s-1.4,0-2.2.3c-.8.2-1.7.5-2.5.9-.5.2-.9.3-1.2.2-.3,0-.6-.3-.8-.6-.2-.3-.3-.6-.3-1s0-.7.3-1.1c.2-.3.5-.6,1-.8,1.1-.5,2.2-.8,3.2-1,1-.2,1.9-.3,2.8-.3,1.7,0,3.2.3,4.3.8,1.1.5,1.9,1.3,2.5,2.4.6,1.1.8,2.4.8,4.1v8.6c0,.7-.2,1.3-.5,1.7-.4.4-.9.6-1.5.6s-1.2-.2-1.6-.6c-.4-.4-.6-1-.6-1.7v-1.7h.3c-.2.8-.5,1.6-1,2.2-.5.6-1.1,1.1-1.9,1.4-.7.3-1.6.5-2.6.5Z"/>
          <path class="cls-16" d="M526.4,1014.7c-1.6,0-2.9-.3-3.9-.8-1-.5-1.8-1.3-2.3-2.3-.5-1-.8-2.3-.8-3.8v-7.7h-1.9c-.6,0-1-.1-1.3-.5-.3-.3-.5-.7-.5-1.2s.2-1,.5-1.3c.3-.3.8-.4,1.3-.4h1.9v-3.3c0-.7.2-1.3.6-1.7.4-.4,1-.6,1.7-.6s1.3.2,1.7.6c.4.4.6.9.6,1.7v3.3h3.8c.6,0,1,.1,1.3.4.3.3.5.7.5,1.3s-.2.9-.5,1.2c-.3.3-.8.5-1.3.5h-3.8v7.4c0,1.2.3,2,.8,2.6.5.6,1.3.9,2.4.9s.8,0,1.1-.1c.3,0,.6-.1.8-.1.3,0,.5,0,.7.3.2.2.3.6.3,1.2s0,.9-.2,1.3-.4.6-.8.8c-.3,0-.7.2-1.2.3-.5,0-.9.1-1.3.1Z"/>
          <path class="cls-16" d="M534.9,993.1c-.8,0-1.5-.2-2-.6-.5-.4-.7-1-.7-1.7s.2-1.4.7-1.8c.5-.4,1.1-.6,2-.6s1.5.2,2,.6.7,1,.7,1.8-.2,1.3-.7,1.7-1.1.6-2,.6ZM534.9,1014.6c-.7,0-1.3-.2-1.7-.6-.4-.4-.6-1-.6-1.8v-13.2c0-.8.2-1.4.6-1.8s.9-.6,1.7-.6,1.3.2,1.7.6.6,1,.6,1.8v13.2c0,.8-.2,1.4-.6,1.8-.4.4-.9.6-1.7.6Z"/>
          <path class="cls-16" d="M549.8,1014.7c-1.8,0-3.4-.4-4.8-1.1-1.3-.7-2.4-1.8-3.1-3.2-.7-1.4-1.1-3-1.1-4.9s.2-2.7.6-3.8c.4-1.1,1-2.1,1.8-2.9.8-.8,1.7-1.4,2.8-1.8,1.1-.4,2.3-.6,3.7-.6s3.4.4,4.8,1.1c1.3.7,2.4,1.8,3.1,3.2.7,1.4,1.1,3,1.1,4.9s-.2,2.7-.6,3.8-1,2.1-1.8,2.9c-.8.8-1.7,1.4-2.8,1.8-1.1.4-2.3.6-3.7.6ZM549.8,1011.2c.9,0,1.7-.2,2.3-.6s1.2-1.1,1.6-1.9c.4-.9.6-1.9.6-3.2,0-1.9-.4-3.4-1.2-4.3-.8-.9-1.9-1.4-3.2-1.4s-1.7.2-2.3.6-1.2,1.1-1.6,1.9-.6,1.9-.6,3.2c0,1.9.4,3.3,1.2,4.3.8,1,1.9,1.5,3.2,1.5Z"/>
          <path class="cls-16" d="M564.8,1014.6c-.7,0-1.3-.2-1.7-.6-.4-.4-.6-1-.6-1.7v-13.6c0-.7.2-1.3.6-1.7.4-.4.9-.6,1.6-.6s1.2.2,1.6.6c.4.4.6.9.6,1.7v2.4l-.4-.9c.5-1.3,1.3-2.2,2.5-2.9s2.4-1,3.8-1,2.6.3,3.5.8c.9.5,1.6,1.3,2.1,2.4.5,1.1.7,2.4.7,4.1v8.7c0,.7-.2,1.3-.6,1.7-.4.4-.9.6-1.7.6s-1.3-.2-1.7-.6c-.4-.4-.6-1-.6-1.7v-8.5c0-1.4-.3-2.4-.8-3s-1.3-.9-2.4-.9-2.4.4-3.2,1.2-1.2,1.9-1.2,3.3v7.9c0,1.5-.8,2.3-2.3,2.3Z"/>
          <path class="cls-16" d="M601.4,1014.7c-1.6,0-2.9-.3-3.9-.8-1-.5-1.8-1.3-2.3-2.3-.5-1-.8-2.3-.8-3.8v-7.7h-1.9c-.6,0-1-.1-1.3-.5-.3-.3-.5-.7-.5-1.2s.2-1,.5-1.3.8-.4,1.3-.4h1.9v-3.3c0-.7.2-1.3.6-1.7.4-.4,1-.6,1.7-.6s1.3.2,1.7.6c.4.4.6.9.6,1.7v3.3h3.8c.6,0,1,.1,1.3.4.3.3.5.7.5,1.3s-.2.9-.5,1.2c-.3.3-.8.5-1.3.5h-3.8v7.4c0,1.2.3,2,.8,2.6s1.3.9,2.4.9.8,0,1.1-.1c.3,0,.6-.1.8-.1.3,0,.5,0,.7.3.2.2.3.6.3,1.2s0,.9-.2,1.3-.4.6-.8.8c-.3,0-.7.2-1.2.3-.5,0-.9.1-1.3.1Z"/>
          <path class="cls-16" d="M609.9,1014.6c-.7,0-1.3-.2-1.7-.6-.4-.4-.6-1-.6-1.7v-21.4c0-.7.2-1.3.6-1.7s.9-.6,1.7-.6,1.3.2,1.7.6c.4.4.6.9.6,1.7v9.3h-.5c.5-1.3,1.3-2.2,2.5-2.9s2.4-1,3.8-1,2.6.3,3.5.8c.9.5,1.6,1.3,2.1,2.4.5,1.1.7,2.4.7,4.1v8.7c0,.7-.2,1.3-.6,1.7-.4.4-.9.6-1.7.6s-1.3-.2-1.7-.6c-.4-.4-.6-1-.6-1.7v-8.5c0-1.4-.3-2.4-.8-3s-1.3-.9-2.4-.9-2.4.4-3.2,1.2-1.2,1.9-1.2,3.3v7.9c0,1.5-.8,2.3-2.3,2.3Z"/>
          <path class="cls-16" d="M637.4,1014.7c-2,0-3.7-.4-5.1-1.1-1.4-.7-2.6-1.8-3.3-3.2-.8-1.4-1.2-3-1.2-4.9s.4-3.4,1.1-4.8,1.8-2.4,3.1-3.2c1.3-.8,2.8-1.2,4.6-1.2s2.4.2,3.4.6,1.8,1,2.6,1.8c.7.8,1.2,1.7,1.6,2.8.4,1.1.6,2.3.6,3.7s-.2.8-.5,1c-.3.2-.7.3-1.3.3h-11.6v-2.6h10.1l-.6.5c0-1.1-.2-2-.5-2.8-.3-.7-.8-1.3-1.4-1.7-.6-.4-1.4-.6-2.3-.6s-1.9.2-2.6.7-1.2,1.1-1.6,2-.6,1.9-.6,3v.3c0,2,.5,3.4,1.4,4.4.9,1,2.3,1.5,4.1,1.5s1.3,0,2.1-.2c.8-.2,1.5-.4,2.2-.8.5-.3.9-.4,1.3-.4.4,0,.7.2.9.4.2.2.4.5.4.9,0,.3,0,.7-.2,1.1s-.5.7-.9.9c-.8.5-1.8.9-2.9,1.2s-2.1.4-3,.4Z"/>
          <path class="cls-16" d="M656.2,1014.7c-1.8,0-3.4-.4-4.8-1.1-1.3-.7-2.4-1.8-3.1-3.2-.7-1.4-1.1-3-1.1-4.9s.2-2.7.6-3.8,1-2.1,1.8-2.9c.8-.8,1.7-1.4,2.8-1.8,1.1-.4,2.3-.6,3.7-.6s3.4.4,4.8,1.1c1.3.7,2.4,1.8,3.1,3.2s1.1,3,1.1,4.9-.2,2.7-.6,3.8c-.4,1.1-1,2.1-1.8,2.9-.8.8-1.7,1.4-2.8,1.8-1.1.4-2.3.6-3.7.6ZM656.2,1011.2c.9,0,1.7-.2,2.3-.6s1.2-1.1,1.6-1.9c.4-.9.6-1.9.6-3.2,0-1.9-.4-3.4-1.2-4.3-.8-.9-1.9-1.4-3.2-1.4s-1.7.2-2.3.6c-.7.4-1.2,1.1-1.6,1.9s-.6,1.9-.6,3.2c0,1.9.4,3.3,1.2,4.3.8,1,1.9,1.5,3.2,1.5Z"/>
          <path class="cls-16" d="M671.3,1014.6c-.7,0-1.3-.2-1.7-.6-.4-.4-.6-1-.6-1.7v-13.6c0-.7.2-1.3.6-1.7.4-.4.9-.6,1.6-.6s1.2.2,1.6.6c.4.4.6.9.6,1.7v2.3h-.4c.3-1.4,1-2.5,2-3.3s2.3-1.2,3.9-1.3c.5,0,.9,0,1.2.4.3.3.5.8.5,1.4,0,.6,0,1.1-.4,1.5-.3.4-.8.6-1.5.7h-.8c-1.5.2-2.6.7-3.3,1.4-.7.8-1.1,1.8-1.1,3.2v7.5c0,.7-.2,1.3-.6,1.7-.4.4-.9.6-1.7.6Z"/>
          <path class="cls-16" d="M688.6,1021.1c-.5,0-1-.1-1.3-.4-.3-.3-.5-.6-.6-1.1,0-.5,0-.9.2-1.4l2.4-5.4v1.9l-6.6-15.2c-.2-.5-.3-1-.2-1.5s.3-.8.7-1.1c.4-.3.9-.4,1.5-.4s1,.1,1.3.4c.3.3.6.7.9,1.4l4.9,12.1h-1.1l5-12.2c.3-.7.6-1.1.9-1.4.4-.3.8-.4,1.4-.4s.9.1,1.3.4c.3.3.5.6.6,1.1,0,.4,0,.9-.3,1.5l-8.7,20c-.3.7-.6,1.1-1,1.4-.4.2-.8.4-1.4.4Z"/>
        </g>
      </g>
      <rect class="cls-10" x="211.4" y="363.9" width="531.2" height="105.5" rx="28.3" ry="28.3"/>
      <g class="cls-9">
        <g class="cls-9">
          <path class="cls-7" d="M319.9,427.4c-1.8,0-3.4-.4-4.8-1.1-1.3-.7-2.4-1.8-3.1-3.2-.7-1.4-1.1-3-1.1-4.9s.2-2.7.6-3.8c.4-1.1,1-2.1,1.8-2.9.8-.8,1.7-1.4,2.8-1.8,1.1-.4,2.3-.6,3.7-.6s3.4.4,4.8,1.1c1.3.7,2.4,1.8,3.1,3.2.7,1.4,1.1,3,1.1,4.9s-.2,2.7-.6,3.8-1,2.1-1.8,2.9c-.8.8-1.7,1.4-2.8,1.8-1.1.4-2.3.6-3.7.6ZM319.9,423.9c.9,0,1.7-.2,2.3-.6.7-.4,1.2-1.1,1.6-1.9s.6-1.9.6-3.2c0-1.9-.4-3.4-1.2-4.3-.8-.9-1.9-1.4-3.2-1.4s-1.7.2-2.3.6-1.2,1.1-1.6,1.9-.6,1.9-.6,3.2c0,1.9.4,3.3,1.2,4.3.8,1,1.9,1.5,3.2,1.5Z"/>
          <path class="cls-7" d="M334.8,433.8c-.7,0-1.3-.2-1.7-.6-.4-.4-.6-.9-.6-1.7v-20.1c0-.7.2-1.3.6-1.7.4-.4.9-.6,1.6-.6s1.3.2,1.7.6c.4.4.6.9.6,1.7v2.8l-.4-1.1c.4-1.2,1.1-2.2,2.2-3,1.1-.7,2.4-1.1,3.9-1.1s2.9.4,4,1.1c1.2.7,2.1,1.8,2.7,3.1.6,1.4,1,3,1,4.9s-.3,3.5-1,4.9c-.6,1.4-1.5,2.4-2.7,3.2s-2.5,1.1-4.1,1.1-2.7-.4-3.9-1.1c-1.1-.7-1.8-1.7-2.2-2.9h.4v8.1c0,.7-.2,1.3-.6,1.7-.4.4-1,.6-1.7.6ZM341.5,423.9c.9,0,1.7-.2,2.3-.6s1.2-1.1,1.6-1.9c.4-.9.6-1.9.6-3.2,0-1.9-.4-3.4-1.2-4.3-.8-.9-1.9-1.4-3.2-1.4s-1.7.2-2.3.6c-.7.4-1.2,1.1-1.6,1.9-.4.9-.6,1.9-.6,3.2,0,1.9.4,3.3,1.2,4.3.8,1,1.9,1.5,3.2,1.5Z"/>
          <path class="cls-7" d="M362.9,427.4c-2,0-3.7-.4-5.1-1.1s-2.6-1.8-3.3-3.2c-.8-1.4-1.2-3-1.2-4.9s.4-3.4,1.1-4.8,1.8-2.4,3.1-3.2c1.3-.8,2.8-1.2,4.6-1.2s2.4.2,3.4.6c1,.4,1.8,1,2.6,1.8.7.8,1.2,1.7,1.6,2.8.4,1.1.6,2.3.6,3.7s-.2.8-.5,1c-.3.2-.7.3-1.3.3h-11.6v-2.6h10.1l-.6.5c0-1.1-.2-2-.5-2.8-.3-.7-.8-1.3-1.4-1.7-.6-.4-1.4-.6-2.3-.6s-1.9.2-2.6.7c-.7.5-1.2,1.1-1.6,2s-.6,1.9-.6,3v.3c0,2,.5,3.4,1.4,4.4.9,1,2.3,1.5,4.1,1.5s1.3,0,2.1-.2c.8-.2,1.5-.4,2.2-.8.5-.3.9-.4,1.3-.4.4,0,.7.2.9.4.2.2.4.5.4.9,0,.3,0,.7-.2,1.1s-.5.7-.9.9c-.8.5-1.8.9-2.9,1.2-1.1.3-2.1.4-3,.4Z"/>
          <path class="cls-7" d="M376,427.3c-.7,0-1.3-.2-1.7-.6-.4-.4-.6-1-.6-1.7v-13.6c0-.7.2-1.3.6-1.7.4-.4.9-.6,1.6-.6s1.2.2,1.6.6c.4.4.6.9.6,1.7v2.3h-.4c.3-1.4,1-2.5,2-3.3,1-.7,2.3-1.2,3.9-1.3.5,0,.9,0,1.2.4.3.3.5.8.5,1.4,0,.6,0,1.1-.4,1.5-.3.4-.8.6-1.5.7h-.8c-1.5.2-2.6.7-3.3,1.4-.7.8-1.1,1.8-1.1,3.2v7.5c0,.7-.2,1.3-.6,1.7-.4.4-.9.6-1.7.6Z"/>
          <path class="cls-7" d="M393.4,427.4c-1.3,0-2.4-.2-3.4-.7-1-.5-1.8-1.2-2.3-2-.6-.8-.8-1.8-.8-2.8s.3-2.3,1-3.1c.7-.8,1.8-1.3,3.3-1.6s3.5-.5,6.1-.5h1.8v2.6h-1.8c-1.5,0-2.7,0-3.6.2-.9.1-1.5.4-1.9.7-.4.3-.6.8-.6,1.5s.3,1.4.8,1.9c.6.5,1.3.8,2.3.8s1.5-.2,2.1-.6c.6-.4,1.1-.9,1.5-1.5.4-.6.5-1.4.5-2.2v-4.1c0-1.2-.3-2.1-.8-2.6-.5-.5-1.4-.8-2.7-.8s-1.4,0-2.2.3c-.8.2-1.7.5-2.5.9-.5.2-.9.3-1.2.2-.3,0-.6-.3-.8-.6-.2-.3-.3-.6-.3-1s0-.7.3-1.1c.2-.3.5-.6,1-.8,1.1-.5,2.2-.8,3.2-1,1-.2,1.9-.3,2.8-.3,1.7,0,3.2.3,4.3.8,1.1.5,1.9,1.3,2.5,2.4.6,1.1.8,2.4.8,4.1v8.6c0,.7-.2,1.3-.5,1.7-.4.4-.9.6-1.5.6s-1.2-.2-1.6-.6c-.4-.4-.6-1-.6-1.7v-1.7h.3c-.2.8-.5,1.6-1,2.2-.5.6-1.1,1.1-1.9,1.4-.7.3-1.6.5-2.6.5Z"/>
          <path class="cls-7" d="M409.5,427.3c-.7,0-1.3-.2-1.7-.6-.4-.4-.6-1-.6-1.7v-13.6c0-.7.2-1.3.6-1.7.4-.4.9-.6,1.6-.6s1.2.2,1.6.6c.4.4.6.9.6,1.7v2.4l-.4-.9c.5-1.3,1.4-2.2,2.5-2.9,1.1-.7,2.4-1,3.8-1s2.6.3,3.5.8c.9.5,1.6,1.3,2.1,2.4.5,1.1.7,2.4.7,4.1v8.7c0,.7-.2,1.3-.6,1.7-.4.4-.9.6-1.7.6s-1.3-.2-1.7-.6c-.4-.4-.6-1-.6-1.7v-8.5c0-1.4-.3-2.4-.8-3-.5-.6-1.3-.9-2.4-.9s-2.4.4-3.2,1.2-1.2,1.9-1.2,3.3v7.9c0,1.5-.8,2.3-2.3,2.3Z"/>
          <path class="cls-7" d="M436.4,427.4c-1.6,0-2.9-.3-3.9-.8-1-.5-1.8-1.3-2.3-2.3-.5-1-.8-2.3-.8-3.8v-7.7h-1.9c-.6,0-1-.1-1.3-.5-.3-.3-.5-.7-.5-1.2s.2-1,.5-1.3c.3-.3.8-.4,1.3-.4h1.9v-3.3c0-.7.2-1.3.6-1.7.4-.4,1-.6,1.7-.6s1.3.2,1.7.6c.4.4.6.9.6,1.7v3.3h3.8c.6,0,1,.1,1.3.4.3.3.5.7.5,1.3s-.2.9-.5,1.2c-.3.3-.8.5-1.3.5h-3.8v7.4c0,1.2.3,2,.8,2.6.5.6,1.3.9,2.4.9s.8,0,1.1-.1c.3,0,.6-.1.8-.1.3,0,.5,0,.7.3.2.2.3.6.3,1.2s0,.9-.2,1.3c-.2.4-.4.6-.8.8-.3,0-.7.2-1.2.3-.5,0-.9.1-1.3.1Z"/>
          <path class="cls-7" d="M460.1,427.4c-1.8,0-3.5-.4-4.8-1.1-1.4-.8-2.4-1.8-3.2-3.2-.7-1.4-1.1-3-1.1-4.9s.2-2.7.6-3.8c.4-1.1,1-2.1,1.8-2.8.8-.8,1.8-1.4,2.9-1.8,1.1-.4,2.4-.6,3.8-.6s1.6.1,2.6.3c.9.2,1.8.6,2.6,1.1.4.2.6.5.8.9.1.3.1.7,0,1,0,.3-.2.6-.4.9-.2.3-.5.4-.8.5-.3,0-.7,0-1.1-.2-.5-.3-1.1-.5-1.6-.7-.6-.2-1.1-.2-1.6-.2-.8,0-1.5.1-2.1.4-.6.3-1.1.6-1.5,1.1-.4.5-.7,1-1,1.7-.2.7-.3,1.5-.3,2.4,0,1.8.4,3.2,1.3,4.2.9,1,2.1,1.5,3.6,1.5s1,0,1.6-.2c.5-.1,1.1-.4,1.6-.7.4-.2.8-.3,1.1-.2.3,0,.6.2.8.5.2.3.3.6.4.9,0,.3,0,.7-.1,1-.1.3-.4.6-.7.8-.8.5-1.6.8-2.5,1-.9.2-1.7.3-2.5.3Z"/>
          <path class="cls-7" d="M476.6,427.4c-1.8,0-3.4-.4-4.8-1.1-1.3-.7-2.4-1.8-3.1-3.2-.7-1.4-1.1-3-1.1-4.9s.2-2.7.6-3.8c.4-1.1,1-2.1,1.8-2.9.8-.8,1.7-1.4,2.8-1.8,1.1-.4,2.3-.6,3.7-.6s3.4.4,4.8,1.1c1.3.7,2.4,1.8,3.1,3.2.7,1.4,1.1,3,1.1,4.9s-.2,2.7-.6,3.8-1,2.1-1.8,2.9c-.8.8-1.7,1.4-2.8,1.8-1.1.4-2.3.6-3.7.6ZM476.6,423.9c.9,0,1.7-.2,2.3-.6.7-.4,1.2-1.1,1.6-1.9s.6-1.9.6-3.2c0-1.9-.4-3.4-1.2-4.3-.8-.9-1.9-1.4-3.2-1.4s-1.7.2-2.3.6-1.2,1.1-1.6,1.9-.6,1.9-.6,3.2c0,1.9.4,3.3,1.2,4.3.8,1,1.9,1.5,3.2,1.5Z"/>
          <path class="cls-7" d="M491.5,427.3c-.7,0-1.3-.2-1.7-.6-.4-.4-.6-1-.6-1.7v-13.6c0-.7.2-1.3.6-1.7.4-.4.9-.6,1.6-.6s1.2.2,1.6.6c.4.4.6.9.6,1.7v2.4l-.4-.9c.5-1.3,1.4-2.2,2.5-2.9,1.1-.7,2.4-1,3.8-1s2.6.3,3.5.8c.9.5,1.6,1.3,2.1,2.4.5,1.1.7,2.4.7,4.1v8.7c0,.7-.2,1.3-.6,1.7-.4.4-.9.6-1.7.6s-1.3-.2-1.7-.6c-.4-.4-.6-1-.6-1.7v-8.5c0-1.4-.3-2.4-.8-3-.5-.6-1.3-.9-2.4-.9s-2.4.4-3.2,1.2-1.2,1.9-1.2,3.3v7.9c0,1.5-.8,2.3-2.3,2.3Z"/>
          <path class="cls-7" d="M517.1,427.4c-1.5,0-2.9-.4-4-1.1-1.2-.7-2.1-1.8-2.7-3.2-.6-1.4-1-3-1-4.9s.3-3.5,1-4.9c.6-1.4,1.6-2.4,2.7-3.1,1.2-.7,2.5-1.1,4-1.1s2.7.4,3.8,1.1,1.8,1.7,2.2,2.8h-.4v-9.4c0-.7.2-1.3.6-1.7.4-.4.9-.6,1.7-.6s1.3.2,1.7.6.6.9.6,1.7v21.4c0,.7-.2,1.3-.6,1.7-.4.4-.9.6-1.7.6s-1.3-.2-1.7-.6c-.4-.4-.6-1-.6-1.7v-2.8l.4,1.1c-.4,1.2-1.1,2.2-2.2,3-1.1.7-2.4,1.1-3.9,1.1ZM518.4,423.9c.9,0,1.7-.2,2.3-.6.7-.4,1.2-1.1,1.6-1.9.4-.9.6-1.9.6-3.2,0-1.9-.4-3.4-1.2-4.3-.8-.9-1.9-1.4-3.2-1.4s-1.7.2-2.3.6-1.2,1.1-1.6,1.9-.6,1.9-.6,3.2c0,1.9.4,3.3,1.2,4.3.8,1,1.9,1.5,3.2,1.5Z"/>
          <path class="cls-7" d="M534.2,405.8c-.8,0-1.5-.2-2-.6-.5-.4-.7-1-.7-1.7s.2-1.4.7-1.8c.5-.4,1.1-.6,2-.6s1.5.2,2,.6.7,1,.7,1.8-.2,1.3-.7,1.7-1.1.6-2,.6ZM534.2,427.3c-.7,0-1.3-.2-1.7-.6-.4-.4-.6-1-.6-1.8v-13.2c0-.8.2-1.4.6-1.8.4-.4.9-.6,1.7-.6s1.3.2,1.7.6.6,1,.6,1.8v13.2c0,.8-.2,1.4-.6,1.8-.4.4-.9.6-1.7.6Z"/>
          <path class="cls-7" d="M549.2,427.4c-1.6,0-2.9-.3-3.9-.8-1-.5-1.8-1.3-2.3-2.3-.5-1-.8-2.3-.8-3.8v-7.7h-1.9c-.6,0-1-.1-1.3-.5-.3-.3-.5-.7-.5-1.2s.2-1,.5-1.3.8-.4,1.3-.4h1.9v-3.3c0-.7.2-1.3.6-1.7.4-.4,1-.6,1.7-.6s1.3.2,1.7.6c.4.4.6.9.6,1.7v3.3h3.8c.6,0,1,.1,1.3.4.3.3.5.7.5,1.3s-.2.9-.5,1.2c-.3.3-.8.5-1.3.5h-3.8v7.4c0,1.2.3,2,.8,2.6s1.3.9,2.4.9.8,0,1.1-.1c.3,0,.6-.1.8-.1.3,0,.5,0,.7.3.2.2.3.6.3,1.2s0,.9-.2,1.3c-.2.4-.4.6-.8.8-.3,0-.7.2-1.2.3-.5,0-.9.1-1.3.1Z"/>
          <path class="cls-7" d="M557.7,405.8c-.8,0-1.5-.2-2-.6-.5-.4-.7-1-.7-1.7s.2-1.4.7-1.8c.5-.4,1.1-.6,2-.6s1.5.2,2,.6.7,1,.7,1.8-.2,1.3-.7,1.7-1.1.6-2,.6ZM557.7,427.3c-.7,0-1.3-.2-1.7-.6-.4-.4-.6-1-.6-1.8v-13.2c0-.8.2-1.4.6-1.8.4-.4.9-.6,1.7-.6s1.3.2,1.7.6.6,1,.6,1.8v13.2c0,.8-.2,1.4-.6,1.8-.4.4-.9.6-1.7.6Z"/>
          <path class="cls-7" d="M572.7,427.4c-1.8,0-3.4-.4-4.8-1.1-1.3-.7-2.4-1.8-3.1-3.2-.7-1.4-1.1-3-1.1-4.9s.2-2.7.6-3.8,1-2.1,1.8-2.9c.8-.8,1.7-1.4,2.8-1.8,1.1-.4,2.3-.6,3.7-.6s3.4.4,4.8,1.1c1.3.7,2.4,1.8,3.1,3.2s1.1,3,1.1,4.9-.2,2.7-.6,3.8-1,2.1-1.8,2.9c-.8.8-1.7,1.4-2.8,1.8-1.1.4-2.3.6-3.7.6ZM572.7,423.9c.9,0,1.7-.2,2.3-.6.7-.4,1.2-1.1,1.6-1.9.4-.9.6-1.9.6-3.2,0-1.9-.4-3.4-1.2-4.3-.8-.9-1.9-1.4-3.2-1.4s-1.7.2-2.3.6-1.2,1.1-1.6,1.9-.6,1.9-.6,3.2c0,1.9.4,3.3,1.2,4.3.8,1,1.9,1.5,3.2,1.5Z"/>
          <path class="cls-7" d="M587.6,427.3c-.7,0-1.3-.2-1.7-.6-.4-.4-.6-1-.6-1.7v-13.6c0-.7.2-1.3.6-1.7s.9-.6,1.6-.6,1.2.2,1.6.6c.4.4.6.9.6,1.7v2.4l-.4-.9c.5-1.3,1.3-2.2,2.5-2.9,1.1-.7,2.4-1,3.8-1s2.6.3,3.5.8c.9.5,1.6,1.3,2.1,2.4.5,1.1.7,2.4.7,4.1v8.7c0,.7-.2,1.3-.6,1.7-.4.4-.9.6-1.7.6s-1.3-.2-1.7-.6-.6-1-.6-1.7v-8.5c0-1.4-.3-2.4-.8-3-.5-.6-1.3-.9-2.4-.9s-2.4.4-3.2,1.2c-.8.8-1.2,1.9-1.2,3.3v7.9c0,1.5-.8,2.3-2.3,2.3Z"/>
          <path class="cls-7" d="M608.7,405.8c-.8,0-1.5-.2-2-.6s-.7-1-.7-1.7.2-1.4.7-1.8,1.1-.6,2-.6,1.5.2,2,.6c.5.4.7,1,.7,1.8s-.2,1.3-.7,1.7c-.5.4-1.1.6-2,.6ZM608.7,427.3c-.7,0-1.3-.2-1.7-.6-.4-.4-.6-1-.6-1.8v-13.2c0-.8.2-1.4.6-1.8.4-.4.9-.6,1.7-.6s1.3.2,1.7.6.6,1,.6,1.8v13.2c0,.8-.2,1.4-.6,1.8-.4.4-.9.6-1.7.6Z"/>
          <path class="cls-7" d="M617.8,427.3c-.7,0-1.3-.2-1.7-.6-.4-.4-.6-1-.6-1.7v-13.6c0-.7.2-1.3.6-1.7.4-.4.9-.6,1.6-.6s1.2.2,1.6.6c.4.4.6.9.6,1.7v2.4l-.4-.9c.5-1.3,1.3-2.2,2.5-2.9s2.4-1,3.8-1,2.6.3,3.5.8c.9.5,1.6,1.3,2.1,2.4.5,1.1.7,2.4.7,4.1v8.7c0,.7-.2,1.3-.6,1.7-.4.4-.9.6-1.7.6s-1.3-.2-1.7-.6c-.4-.4-.6-1-.6-1.7v-8.5c0-1.4-.3-2.4-.8-3s-1.3-.9-2.4-.9-2.4.4-3.2,1.2-1.2,1.9-1.2,3.3v7.9c0,1.5-.8,2.3-2.3,2.3Z"/>
          <path class="cls-7" d="M644.9,433.8c-1.3,0-2.5-.1-3.8-.4-1.2-.2-2.3-.6-3.3-1.1-.5-.2-.8-.5-.9-.9-.2-.3-.2-.7-.1-1s.2-.7.4-.9c.2-.3.5-.4.8-.5s.7,0,1,.1c1.1.5,2.1.9,3,1s1.8.2,2.4.2c1.6,0,2.8-.4,3.6-1.2.8-.8,1.2-1.9,1.2-3.5v-3.2h.3c-.4,1.2-1.1,2.2-2.2,2.9-1.1.7-2.4,1.1-3.9,1.1s-3-.4-4.1-1.1c-1.2-.7-2.1-1.8-2.7-3.1-.6-1.3-1-2.9-1-4.6s.2-2.5.6-3.6c.4-1.1.9-2,1.6-2.8.7-.8,1.5-1.4,2.5-1.8s2-.6,3.2-.6,2.8.4,3.9,1.1c1.1.7,1.8,1.7,2.2,2.9l-.4.9v-2.6c0-.7.2-1.3.6-1.7.4-.4.9-.6,1.6-.6s1.3.2,1.7.6c.4.4.6.9.6,1.7v13.9c0,2.9-.8,5-2.3,6.4-1.5,1.4-3.7,2.2-6.6,2.2ZM644.8,423.1c.9,0,1.7-.2,2.4-.6s1.2-1,1.6-1.9c.4-.8.6-1.8.6-2.9,0-1.7-.4-3-1.2-3.9-.8-.9-1.9-1.4-3.3-1.4s-1.7.2-2.4.6c-.7.4-1.2,1-1.6,1.8s-.6,1.7-.6,2.8c0,1.7.4,3,1.2,3.9.8,1,1.9,1.4,3.3,1.4Z"/>
        </g>
      </g>
      <line class="cls-2" x1="345.9" y1="710.2" x2="376.9" y2="710.2"/>
      <polyline class="cls-2" points="365.2 722 376.9 710.2 365.3 698.6"/>
      <line class="cls-2" x1="532" y1="710.2" x2="563.1" y2="710.2"/>
      <polyline class="cls-2" points="551.3 722 563.1 710.2 551.5 698.6"/>
      <g class="cls-25">
        <g>
          <path class="cls-11" d="M597.2,714.3c2-1.2,4.6-.6,5.8,1.4h0l3.5,5.8c1.2,2,.6,4.6-1.4,5.8s-4.6.6-5.8-1.4l-3.5-5.7c-1.2-2-.6-4.6,1.4-5.8h0Z"/>
          <path class="cls-11" d="M668.9,734.1c1.1,2.1.3,4.6-1.8,5.7l-6,3.1c-2.1,1.1-4.6.3-5.7-1.8-1.1-2.1-.3-4.6,1.8-5.7l6-3.1c2.1-1.1,4.6-.3,5.7,1.7h0Z"/>
          <path class="cls-17" d="M598.5,663.2l43.2,24.2c1.9,1.1,2.5,3.4,1.5,5.3-.2.4-.5.7-.8,1-9.4,8.5-23.5,10.2-34.9,3.8-11.3-6.2-17.2-19.1-14.7-31.7.4-2.1,2.5-3.4,4.6-3,.4,0,.8.2,1.1.4h0Z"/>
          <path class="cls-17" d="M693.9,689.5c2.2,0,3.9,1.8,3.8,4,0,.4,0,.8-.2,1.2-4.3,12.1-16,20-28.9,19.6-13.1-.3-24.3-8.9-28-21.1-.7-2,.5-4.2,2.5-4.8.4-.2.9-.2,1.3-.2l49.4,1.3h.1Z"/>
          <path class="cls-17" d="M672.8,661.9c-1.4-.4-2.9-.5-4.4-.3-9.1,1.2-15,1.4-18.2.6-3.1-.9-8.1-4.1-15.3-9.8-1.2-.9-2.6-1.6-4-2-5.9-1.6-12,1.8-13.6,7.7l-9.1,32.9c-4.8,17.4,5.5,35.5,22.9,40.4,17.5,4.7,35.6-5.5,40.4-22.9l9.1-32.9c1.6-5.9-1.8-12-7.7-13.6h-.1Z"/>
          <path class="cls-21" d="M648.2,712l-8-2.2c-.3,0-.7,0-.8.5v.2c.2,2.1,1.7,3.8,3.7,4.3,2.1.6,4.4-.2,5.5-1.8.2-.3,0-.7-.2-.9,0,0-.2,0-.2,0ZM634.7,709.1c.2-.3,0-.7-.2-.9h-.2l-8-2.2c-.3,0-.6,0-.8.3v.3c.2,2.1,1.7,3.8,3.7,4.3,2.1.6,4.3-.2,5.4-1.8h0ZM639.4,716.8l-8-2.2c-.3,0-.7,0-.8.4v.2c.2,2.1,1.7,3.8,3.7,4.3,2.1.6,4.4,0,5.5-1.8.2-.3,0-.7-.2-.9,0,0-.2,0-.2,0h0Z"/>
          <path class="cls-21" d="M636.1,658.7l6.7,13c.3.6,0,1.3-.6,1.6h-.3c-4.8.6-9.3-2.7-10-7.6-.4-2.7.5-5.4,2.5-7.4.7-.6,1.4-.5,1.7.2v.2Z"/>
          <path class="cls-21" d="M630.7,659.9l6.5,13c.3.6,0,1.3-.6,1.6h-.3c-4.8.6-9.3-2.7-9.9-7.5-.4-2.7.5-5.4,2.4-7.4.4-.4,1.2-.4,1.6,0,0,0,.2.2.2.3h0Z"/>
          <path class="cls-21" d="M633,663l.9.3c6.5,1.8,10.4,8.5,8.6,15h0l-2.1,7.7c-1.8,6.5-8.5,10.4-15.1,8.5h0l-.9-.3c-6.5-1.8-10.4-8.5-8.6-15h0l2.1-7.7c1.8-6.5,8.6-10.3,15.1-8.5Z"/>
          <path class="cls-21" d="M663.9,666.4c.7-.4,1.3-.2,1.5.6,1.2,4.7-1.7,9.5-6.5,10.7-2.7.7-5.5,0-7.7-1.7-.5-.5-.5-1.2,0-1.7l.2-.2,12.5-7.7h0Z"/>
          <path class="cls-21" d="M668,670.2c.5-.4,1.2-.2,1.5.3,0,0,0,.2.2.4,1.2,4.7-1.7,9.5-6.5,10.7-2.7.7-5.5,0-7.7-1.7-.5-.5-.5-1.2,0-1.7l.2-.2,12.3-7.8h0Z"/>
          <path class="cls-21" d="M664.5,671.6c6.5,1.8,10.4,8.6,8.6,15.1l-2.1,7.6c-1.8,6.5-8.5,10.4-15.1,8.5h0l-.9-.3c-6.5-1.8-10.4-8.5-8.6-15h0l2.1-7.7c1.8-6.5,8.5-10.3,15.1-8.5h0l.9.3"/>
          <path class="cls-21" d="M653.8,672.7c-4.1,2.5-9.5,1.2-12-2.9,0-.2-.2-.3-.3-.5-2.2,7.6-4,14.3-5.6,20.3l6.1,1.6,6.1,1.7c1.8-5.9,3.6-12.7,5.6-20.3h.1Z"/>
          <path class="cls-7" d="M631.9,667.4c4.8,1.3,7.6,6.3,6.3,11.1l-1.4,5.2c-1.4,4.8-6.5,7.5-11.2,6-4.6-1.4-7.4-6.2-6.2-10.8l1.4-5.2c1.3-4.8,6.2-7.6,11-6.3h.1Z"/>
          <path class="cls-24" d="M631.7,672.7c2.3.6,3.6,3,3,5.3l-1.2,4.5c-.7,2.3-3.1,3.5-5.4,2.8-2.2-.7-3.4-2.9-2.9-5.1l1.2-4.5c.7-2.2,3-3.6,5.3-3h0Z"/>
          <path class="cls-7" d="M628.4,671.5c1.5.4,2.3,1.9,1.9,3.3-.4,1.4-1.9,2.3-3.3,1.9s-2.3-1.9-1.9-3.3c.4-1.4,1.8-2.3,3.3-1.9h0Z"/>
          <path class="cls-7" d="M663.1,676c4.8,1.3,7.6,6.3,6.3,11.1l-1.4,5.2c-1.4,4.8-6.5,7.5-11.2,6-4.6-1.4-7.4-6.2-6.2-10.8l1.4-5.2c1.3-4.8,6.2-7.6,11-6.3h.1Z"/>
          <path class="cls-24" d="M660.6,680.7c2.3.6,3.6,3,3,5.3l-1.2,4.5c-.7,2.3-3.1,3.5-5.4,2.8-2.2-.7-3.4-2.9-2.9-5.1l1.2-4.5c.7-2.2,3-3.6,5.3-3h0Z"/>
          <path class="cls-7" d="M656.7,679.3c1.5.4,2.3,1.9,1.9,3.3-.4,1.4-1.9,2.3-3.3,1.9-1.4-.4-2.3-1.9-1.9-3.3.3-1.4,1.8-2.2,3.3-1.9q1,.2,0,0Z"/>
          <path class="cls-21" d="M649.7,691.9c7.3-1,13.8-1.3,19.3-.8,0,0-1.4,9.3-8.9,9.6-9.6.3-10.4-8.8-10.4-8.8h0ZM621.9,690.1c-6.3-4-2.7-12.8-2.7-12.8,5,2.4,10.5,6,16.2,10.6,0,0-5.4,7.3-13.5,2.2Z"/>
          <path class="cls-11" d="M643.9,684.9c2.5.7,3.9,3.2,3.3,5.7h0l-2.1,7.5c-.7,2.5-3.3,4-5.8,3.3s-4-3.3-3.3-5.8l2.1-7.5c.7-2.4,3.3-3.9,5.8-3.3h0Z"/>
          <path class="cls-20" d="M643.4,686.6c1.9.5,3.1,2.5,2.5,4.4l-1.4,5c-.5,1.9-2.5,3-4.4,2.5s-3-2.5-2.5-4.4l1.4-5c.5-1.9,2.5-3,4.4-2.5Z"/>
          <path class="cls-23" d="M642.4,690.1l6.3.7c0,0,.2,0,.2-.2.4-3.6-2.3-6.8-5.9-7.1-2.7-.3-5.3,1.2-6.5,3.7v.3l5.8,2.7h.1Z"/>
          <path class="cls-12" d="M644.8,686.9s-.2,0-.2,0c-.7-.4-1.5-.6-2.3-.6s-.9-.5-.9-1,.4-.9.9-.9c1.2,0,2.3.3,3.3.9.5.3.6.9.3,1.3-.2.3-.6.5-1.1.4h0Z"/>
        </g>
      </g>
      <path class="cls-8" d="M607.2,762.9c-1.4,0-2.6-1.1-2.6-2.6s1.1-2.6,2.6-2.6h55.4c1.4,0,2.6,1.1,2.6,2.6s-1.1,2.6-2.6,2.6h-55.4Z"/>
      <path class="cls-4" d="M399.9,699.3c.2-4.9,3-9.7,7.3-12.1"/>
      <g>
        <path class="cls-18" d="M448.2,738.6c.6,1.7,1.1,3.5,1.9,5.2s2.2,3.2,3.9,3.7c1.7.5,3.5,0,5.2-.5.3,0,.6-.2.8-.4.2-.2.3-.5.3-.8.4-2.7-1.2-5.2-1.6-7.9-.7-4.5,2-8.7,3.3-13,0-.3.2-.6,0-.8-.2-.4-.7-.6-1.2-.6-4.4-.4-9,.6-12.9,2.8-1.4.8-2.7,1.7-4,2.5s-1.4,1.3-.1,2.8c1.8,2.1,3.2,4.6,4.2,7.2l.2-.2Z"/>
        <path class="cls-6" d="M416.9,719.3s-21.1-2.6-22.5-11.7,3.2-11.6,3.2-11.6c0,0-1.2-5.6.2-9.3s10.5-7.1,10.5-7.1c0,0,5.3-7.6,8.9-9.6s13.6,0,13.6,0c0,0,7.4-3.9,12.5-3.9s11.5,3.7,11.5,3.7c0,0,11.3-2.9,18.1,2.7s8.1,11.3,8.1,11.3c0,0,4.9,2,5.9,4.4s0,7.4,0,7.4c0,0,7.9,4.2,7.9,9.6s-2.4,9.7-2.4,9.7c0,0,1.4,11.5-2.7,14.9s-9.3,2.7-9.3,2.7c0,0-3.5,9.3-13.1,9.4s-14.8,0-14.8-5,9-8.3,9-8.3c0,0-6.9-1.4-12.6.5s-18.1,7.1-25.8,1.4c-7.8-5.7-6.2-11.2-6.2-11.2h0Z"/>
        <path class="cls-4" d="M425.3,720.7c1.5-2.6,4.2-4.4,7-5.3s5.9-1.2,8.9-1.3c3.1,0,6.3,0,9.4.2,1.9,0,3.9.3,5.8.3,2.7,0,5.3-.4,7.9-1.1,2.5-.7,5-1.9,6.5-4,1.3-2,1.5-4.4,1.7-6.8.1-1.5,0-3.4-1.3-4.2"/>
        <path class="cls-4" d="M459.2,686.1c1.5,2.2,3.3,4.6,5.8,5.5,1,.3,2,.4,3.1.4,2,0,4-.5,5.5-1.8s2.4-3.4,1.7-5.3"/>
        <path class="cls-4" d="M469.7,678.9c-1.6-.8-3.4-1.4-5.1-1.8-1.9-.4-4-.6-5.9-.2-3.4.7-6.1,3.3-7.6,6.4s-2,6.6-1.8,10c0,.2,0,.5-.2.7"/>
        <path class="cls-4" d="M446.3,676.5c1.8-3.6,5.4-6.3,9.5-6.9"/>
        <path class="cls-4" d="M470.6,724.2c2.6.2,5.3,1.2,7.9.6,2.7-.6,5-2.9,5.5-5.7s-.5-4.8-2.2-6.4-1.5,0-2.5.9-1.9,1.5-3.1,1.9"/>
        <path class="cls-4" d="M480.7,695.6c1.9,2.6,3.5,5.5,3.4,8.7-.1,2.9-1.8,5.6-3.5,8"/>
        <path class="cls-4" d="M431,698.1c-.6-2.8-1.2-5.6-.9-8.5.4-3.1,1.9-6,3.8-8.5,1.2-1.6,2.9-3.1,4.9-2.8"/>
        <path class="cls-4" d="M417.5,724c-.7-2.9.3-10.6,1.9-13.1.7-1.1,1.4-2.3,2.4-3.2,1.6-1.4,3.8-2,5.9-2.5,2.7-.6,4.7-.5,7.9.6.2-1,1-2.3,1.5-2.9,2.1-2.8,4.5-3.4,8.6-3.3s3.5.6,4.7.9c1,.3,1.9.7,2.8,1.2,1.4.7,2.8,1.4,4.2,2.1"/>
        <path class="cls-4" d="M412.8,694.9c0-2,1-3.8,2.4-5.2s3.1-2.4,4.9-3.2c3.3-1.5,7.1-2.3,10.5-1.2"/>
        <path class="cls-4" d="M409.6,702.4c1.2-.3,2.4-.4,3.6-.5,1.5,0,3-.2,4.3.6.6.3,1,.8,1.5,1.3,1.2,1.3,2.3,2.9,2.3,4.6"/>
        <path class="cls-4" d="M408.1,686.8c.4-3.4,2.7-6.4,5.7-8.1s6.6-2.1,9.9-1.5h.3s-.2,0-.1,0"/>
      </g>
      <g>
        <g>
          <path class="cls-13" d="M496.2,704.1c-1.9,0-3.6-.9-4.7-2.4l-17.5-23c-1.2-1.5-1.5-3.5-1-5.3s1.9-3.3,3.7-3.9l7.8-2.8c.6-.2,1-.7,1.1-1.3l2.1-11.3c.5-2.9,3-4.9,5.9-4.9s3.7.9,4.8,2.5l17.6,24.2c1.2,1.6,1.5,3.8.8,5.6-.7,1.9-2.3,3.3-4.3,3.7l-7,1.5c-.7,0-1.2.7-1.3,1.3l-2.1,11.2c-.5,2.9-3,4.9-5.9,4.9h0Z"/>
          <path class="cls-7" d="M493.6,651.4c1.1,0,2.3.5,3.1,1.6l17.6,24.2c1.6,2.2.4,5.4-2.3,6l-7,1.5c-1.5.3-2.7,1.5-3,3l-2.1,11.2c-.4,2-2.1,3.1-3.8,3.1s-2.2-.5-3-1.5l-17.5-23c-1.6-2.1-.7-5,1.8-5.9l7.8-2.8c1.3-.5,2.2-1.6,2.5-2.9l2.1-11.3c.4-2,2.1-3.1,3.8-3.1M493.6,647.1c-3.9,0-7.3,2.8-8,6.7l-2,11-7.6,2.7c-2.4.9-4.3,2.9-5,5.3s-.2,5.2,1.3,7.2l17.5,23c1.6,2,3.9,3.2,6.5,3.2,3.9,0,7.3-2.8,8-6.7l2-10.8,6.7-1.4c2.7-.6,4.9-2.5,5.9-5,1-2.6.6-5.4-1-7.7l-17.6-24.2c-1.5-2.1-3.9-3.4-6.6-3.4h-.1Z"/>
        </g>
        <path class="cls-26" d="M477.9,675.1l8.2-2.7c.5-.2,1.1.2,1.1.8v5.5c0,.6-.5,1-1.1.8l-8.2-2.7c-.7-.2-.7-1.3,0-1.6h0Z"/>
        <path class="cls-14" d="M511.2,678.3l-8.2-2.7c-.5-.2-1.1.2-1.1.8v5.5c0,.6.5,1,1.1.8l8.2-2.7c.7-.2.7-1.3,0-1.6h0Z"/>
      </g>
    </g>
  </g>
</svg>