<?xml version="1.0" encoding="UTF-8"?>
<svg id="Ebene_1" xmlns="http://www.w3.org/2000/svg" xmlns:xlink="http://www.w3.org/1999/xlink" version="1.1" viewBox="0 0 1024 1280">
  <!-- Generator: Adobe Illustrator 29.0.1, SVG Export Plug-In . SVG Version: 2.1.0 Build 192)  -->
  <defs>
    <style>
      .st0 {
        stroke: #e5e5e5;
      }

      .st0, .st1, .st2 {
        fill: #fff;
      }

      .st0, .st3 {
        stroke-miterlimit: 10;
        stroke-width: 5px;
      }

      .st4 {
        font-size: 24px;
      }

      .st4, .st5, .st6 {
        fill: #ff9600;
      }

      .st4, .st7 {
        font-family: Nunito-Medium, Nunito;
        font-weight: 500;
      }

      .st8 {
        fill: #ffc803;
      }

      .st9 {
        fill: #e6ae7c;
      }

      .st10 {
        fill: #aa5728;
      }

      .st11 {
        fill: #ddf4ff;
      }

      .st1 {
        font-family: Nunito-Black, Nunito;
        font-size: 39px;
        font-weight: 800;
      }

      .st3 {
        fill: none;
        stroke: #ff9600;
      }

      .st12 {
        fill: #ff9602;
      }

      .st5 {
        font-family: Nunito-ExtraBold, Nunito;
        font-weight: 700;
      }

      .st5, .st7 {
        font-size: 36px;
      }

      .st13 {
        fill: #743412;
      }

      .st14 {
        fill: #c07f41;
      }

      .st15 {
        fill: #1cb0f6;
      }

      .st6 {
        filter: url(#drop-shadow-1);
      }

      .st7 {
        fill: #e5e5e5;
      }
    </style>
    <filter id="drop-shadow-1" x="211.4" y="201.4" width="531.2" height="135" filterUnits="userSpaceOnUse">
      <feOffset dx="0" dy="14.2"/>
      <feGaussianBlur result="blur" stdDeviation="0"/>
      <feFlood flood-color="#ff7900" flood-opacity="1"/>
      <feComposite in2="blur" operator="in"/>
      <feComposite in="SourceGraphic"/>
    </filter>
  </defs>
  <g>
    <path class="st9" d="M619.3,535.9v-6.6c0-2.2,1.8-3.9,3.9-3.9h18.3v-2.4c0-2.2,1.8-3.9,3.9-3.9h23.6c2.2,0,3.9,1.8,3.9,3.9v1.6h18.7c2.2,0,3.9,1.8,3.9,3.9v8.5l-76.4-1.1Z"/>
    <path class="st10" d="M690.8,569.5h9.9v-29.4c0-4.3-3.5-7.8-7.8-7.8h-70.2c-4.3,0-7.8,3.5-7.8,7.8v35.5l75.9-6.1Z"/>
    <rect class="st13" x="624.6" y="542.7" width="66.4" height="41.9"/>
    <rect class="st10" x="626.7" y="567" width="62.2" height="35.7"/>
    <path class="st9" d="M616.2,564.8h12.2c2.2,0,4,1.8,4,4v30.3h52.5v-30.3c0-2.2,1.8-4,4-4h10.7c2.2,0,4,1.8,4,4v38.4c0,2.2-1.8,4-4,4h-83.2c-2.2,0-4-1.8-4-4v-38.4c0-2.2,1.8-4,4-4Z"/>
    <rect class="st9" x="644.3" y="555.6" width="30.2" height="32.3" rx="1.6" ry="1.6"/>
    <path class="st14" d="M665.7,567.4c0-4-3.8-7.2-8-6.1-2.1.6-3.9,2.3-4.4,4.4s.3,5.1,2.1,6.5.6.8.4,1.3l-1.7,5.4c-.5,1.7.7,3.3,2.4,3.3h5.6c1.7,0,3-1.7,2.4-3.3l-1.7-5.4c-.2-.5,0-1,.4-1.3,1.4-1.2,2.3-2.9,2.3-4.9Z"/>
  </g>
  <rect class="st6" x="211.4" y="201.4" width="531.2" height="120.8" rx="28.3" ry="28.3"/>
  <text class="st1" transform="translate(257.6 277.9)"><tspan x="0" y="0">psychological principles</tspan></text>
  <rect class="st3" x="211.4" y="365.7" width="531.2" height="292.1" rx="47.2" ry="47.2"/>
  <rect class="st0" x="211.4" y="687.5" width="531.2" height="105.5" rx="28.3" ry="28.3"/>
  <text class="st5" transform="translate(299.5 423.8)"><tspan x="0" y="0">operant conditioning</tspan></text>
  <text class="st4" transform="translate(312.2 465)"><tspan x="0" y="0">learning through rewards and </tspan><tspan x="-7.7" y="28.8">punishments to shape behavior.</tspan></text>
  <text class="st7" transform="translate(342.4 750.7)"><tspan x="0" y="0">dopamin release</tspan></text>
  <rect class="st0" x="211.4" y="819.4" width="531.2" height="105.5" rx="28.3" ry="28.3"/>
  <text class="st7" transform="translate(383.2 882.5)"><tspan x="0" y="0">flow theory</tspan></text>
  <rect class="st0" x="211.4" y="951.2" width="531.2" height="105.5" rx="28.3" ry="28.3"/>
  <text class="st7" transform="translate(269 1014.3)"><tspan x="0" y="0">self-determination theory</tspan></text>
  <g>
    <g>
      <path class="st12" d="M220.2,663.8c-22.7,0-41.9-17.7-43.8-40.2v-.2s0-.6,0-.6l-.6-43.5c0-6.2,5-11.3,11.2-11.3s4.4.7,6.2,1.9l5.2,3.5,13.7-16c2.1-2.5,5.2-3.9,8.5-3.9s6.9,1.7,9,4.6l28.5,39.4.4.6h0c3.7,6.7,5.7,14.2,5.7,21.8,0,24.3-19.7,44-44,44Z"/>
      <path class="st2" d="M220.5,557.9c2,0,4.1.9,5.4,2.7l28.4,39.3.2.3c3.3,5.7,5.1,12.4,5.1,19.5,0,21.8-17.7,39.5-39.5,39.5s-37.6-15.9-39.3-36.1v-.6s-.6-43.4-.6-43.4c0-3.9,3.2-6.7,6.7-6.7,1.3,0,2.5.4,3.7,1.2l8.5,5.7,16.3-19.1c1.3-1.6,3.2-2.3,5.1-2.3M220.5,548.9c-4.6,0-9,2-11.9,5.5l-11.1,13-1.8-1.2c-2.6-1.8-5.6-2.7-8.8-2.7-4.1,0-7.9,1.5-10.9,4.4-3.1,3-4.8,7-4.8,11.3h0c0,0,0,.1,0,.1l.6,43.4h0c0,.1,0,.2,0,.2v.6s0,.2,0,.2v.2c1,12.1,6.5,23.2,15.4,31.5,9,8.3,20.7,12.9,32.9,12.9,26.7,0,48.5-21.8,48.5-48.5s-2.2-16.6-6.3-23.9v-.2c-.1,0-.2-.2-.2-.2l-.2-.3v-.2c-.1,0-.3-.2-.3-.2l-28.4-39.3h0s0,0,0,0c-2.9-4-7.7-6.4-12.6-6.4h0Z"/>
    </g>
    <path class="st8" d="M232.5,616.3c-.8-.9-1.6-1.9-2.2-2.9l-6.3-9.4c-1.3-2.1-4.3-2.1-5.6,0l-6.4,9.2c-.6.9-1.3,1.7-2,2.5-3.2,3.2-5.2,8.4-5.1,13.3.2,8.5,7.1,15.6,15.6,15.9,9.3.4,17-7.1,17-16.3s-2-9.1-4.8-12.2Z"/>
  </g>
  <g>
    <g>
      <path class="st15" d="M592,626.4c-3.9,0-7.6-1.2-10.9-3.4l-8.4-5.8c-5.2-3.6-8.4-9.5-8.4-15.9v-16.4c0-6.3,3.1-12.3,8.4-15.9l8.4-5.8c3.2-2.2,7-3.4,10.9-3.4s7.6,1.2,10.9,3.4l8.4,5.8c5.2,3.6,8.4,9.5,8.4,15.9v16.4c0,6.3-3.1,12.3-8.4,15.9l-8.4,5.8c-3.2,2.2-7,3.4-10.9,3.4Z"/>
      <path class="st2" d="M592,563.5c3.1,0,6.2.9,8.9,2.7l8.4,5.8c4.3,2.9,6.8,7.8,6.8,13v16.4c0,5.2-2.6,10-6.8,13l-8.4,5.8c-2.7,1.8-5.8,2.7-8.9,2.7s-6.2-.9-8.9-2.7l-8.4-5.8c-4.3-2.9-6.8-7.8-6.8-13v-16.4c0-5.2,2.6-10,6.8-13l8.4-5.8c2.7-1.8,5.8-2.7,8.9-2.7M592,556.5c-4.6,0-9,1.4-12.8,4l-8.4,5.8c-6.2,4.2-9.9,11.2-9.9,18.8v16.4c0,7.5,3.7,14.5,9.9,18.8l8.4,5.8c3.8,2.6,8.2,4,12.8,4s9-1.4,12.8-4l8.4-5.8c6.2-4.2,9.9-11.2,9.9-18.8v-16.4c0-7.5-3.7-14.5-9.9-18.8l-8.4-5.8c-3.8-2.6-8.2-4-12.8-4h0Z"/>
    </g>
    <path class="st11" d="M590.3,578.4l-7.7,5.2c-.7.5-1.6.6-2.4.3l-6.3-2.6c-2-.8-2.3-3.7-.5-4.9l14.4-9.8c1.8-1.2,4.3.2,4.1,2.5l-.4,7.2c0,.9-.5,1.7-1.2,2.2Z"/>
  </g>
</svg>