<?xml version="1.0" encoding="UTF-8"?>
<svg xmlns="http://www.w3.org/2000/svg" version="1.1" viewBox="0 0 1024 1280">
  <defs>
    <style>
      .cls-1 {
        stroke: #e5e5e5;
      }

      .cls-1, .cls-2 {
        fill: #fff;
      }

      .cls-1, .cls-3 {
        stroke-miterlimit: 10;
        stroke-width: 5px;
      }

      .cls-4 {
        fill: #ffc803;
      }

      .cls-5 {
        fill: #e6ae7c;
      }

      .cls-6 {
        fill: #aa5728;
      }

      .cls-7 {
        fill: #ddf4ff;
      }

      .cls-8 {
        fill: #e5e5e5;
      }

      .cls-9 {
        isolation: isolate;
      }

      .cls-10 {
        fill: #ff9600;
      }

      .cls-3 {
        fill: none;
        stroke: #ff9600;
      }

      .cls-11 {
        fill: #ff9602;
      }

      .cls-12 {
        fill: #743412;
      }

      .cls-13 {
        fill: #c07f41;
      }

      .cls-14 {
        fill: #1cb0f6;
      }
    </style>
  </defs>
  <!-- Generator: Adobe Illustrator 28.7.4, SVG Export Plug-In . SVG Version: 1.2.0 Build 166)  -->
  <g>
    <g id="Ebene_1">
      <g>
        <path class="cls-5" d="M619.3,535.9v-6.6c0-2.2,1.8-3.9,3.9-3.9h18.3v-2.4c0-2.2,1.8-3.9,3.9-3.9h23.6c2.2,0,3.9,1.8,3.9,3.9v1.6h18.7c2.2,0,3.9,1.8,3.9,3.9v8.5l-76.4-1.1h.2Z"/>
        <path class="cls-6" d="M690.8,569.5h9.9v-29.4c0-4.3-3.5-7.8-7.8-7.8h-70.2c-4.3,0-7.8,3.5-7.8,7.8v35.5l75.9-6.1h0Z"/>
        <rect class="cls-12" x="624.6" y="542.7" width="66.4" height="41.9"/>
        <rect class="cls-6" x="626.7" y="567" width="62.2" height="35.7"/>
        <path class="cls-5" d="M616.2,564.8h12.2c2.2,0,4,1.8,4,4v30.3h52.5v-30.3c0-2.2,1.8-4,4-4h10.7c2.2,0,4,1.8,4,4v38.4c0,2.2-1.8,4-4,4h-83.2c-2.2,0-4-1.8-4-4v-38.4c0-2.2,1.8-4,4-4h-.2Z"/>
        <rect class="cls-5" x="644.3" y="555.6" width="30.2" height="32.3" rx="1.6" ry="1.6"/>
        <path class="cls-13" d="M665.7,567.4c0-4-3.8-7.2-8-6.1-2.1.6-3.9,2.3-4.4,4.4s.3,5.1,2.1,6.5.6.8.4,1.3l-1.7,5.4c-.5,1.7.7,3.3,2.4,3.3h5.6c1.7,0,3-1.7,2.4-3.3l-1.7-5.4c-.2-.5,0-1,.4-1.3,1.4-1.2,2.3-2.9,2.3-4.9h.2Z"/>
      </g>
      <rect class="cls-10" x="211.4" y="201.4" width="531.2" height="120.8" rx="28.3" ry="28.3"/>
      <g class="cls-9">
        <g class="cls-9">
          <path class="cls-2" d="M262.6,285.2c-.8,0-1.4-.2-1.8-.6-.4-.4-.6-1-.6-1.8v-21.8c0-.8.2-1.4.6-1.8.4-.4,1-.6,1.8-.6s1.4.2,1.8.6c.4.4.6,1,.6,1.8v3l-.4-1.2c.4-1.3,1.2-2.4,2.4-3.2,1.2-.8,2.6-1.2,4.2-1.2s3.1.4,4.4,1.2c1.3.8,2.2,1.9,2.9,3.4.7,1.5,1.1,3.2,1.1,5.3s-.4,3.8-1.1,5.3c-.7,1.5-1.7,2.6-2.9,3.5-1.2.8-2.7,1.2-4.4,1.2s-3-.4-4.2-1.2c-1.2-.8-2-1.8-2.4-3.1h.5v8.8c0,.8-.2,1.4-.6,1.8-.4.4-1,.6-1.8.6ZM269.8,274.6c1,0,1.8-.2,2.5-.7.7-.5,1.3-1.2,1.7-2.1.4-.9.6-2.1.6-3.5,0-2.1-.4-3.6-1.3-4.7-.9-1-2.1-1.5-3.5-1.5s-1.8.2-2.5.7c-.7.5-1.3,1.1-1.7,2.1-.4.9-.6,2.1-.6,3.5,0,2.1.4,3.6,1.3,4.7.9,1.1,2.1,1.6,3.5,1.6Z"/>
          <path class="cls-2" d="M290.5,278.3c-1.1,0-2.3-.1-3.5-.4-1.2-.2-2.4-.6-3.4-1.2-.4-.3-.7-.6-.9-.9-.2-.4-.2-.7-.2-1.1,0-.4.2-.7.4-.9.2-.3.5-.4.9-.5.4,0,.7,0,1.2.2,1,.5,2,.8,2.9,1,.9.2,1.8.3,2.7.3s2.2-.2,2.8-.6.9-1,.9-1.7-.2-1.1-.6-1.4c-.4-.3-1-.6-1.8-.7l-3.9-.7c-1.6-.3-2.8-.9-3.7-1.8-.8-.9-1.3-2-1.3-3.4s.3-2.3,1-3.2c.7-.9,1.6-1.6,2.9-2.1,1.2-.5,2.6-.7,4.2-.7s2.2.1,3.2.4c1,.2,2,.6,2.9,1.2.4.2.7.5.8.8.1.3.2.7,0,1,0,.4-.2.7-.5.9-.2.3-.5.4-.9.5-.4,0-.7,0-1.2-.2-.8-.4-1.6-.7-2.3-.9-.7-.2-1.4-.3-2.1-.3-1.3,0-2.2.2-2.8.7-.6.4-.9,1-.9,1.8s.2,1,.5,1.4c.4.4.9.6,1.7.7l3.9.7c1.7.3,3,.9,3.8,1.7s1.3,2,1.3,3.4-.7,3.4-2.2,4.5c-1.5,1.1-3.5,1.6-5.9,1.6Z"/>
          <path class="cls-2" d="M307,285.2c-.6,0-1-.2-1.4-.4-.4-.3-.6-.7-.6-1.2,0-.5,0-1,.3-1.6l2.7-5.9v2l-7.1-16.4c-.2-.6-.3-1.1-.2-1.6,0-.5.3-.9.7-1.2.4-.3,1-.4,1.7-.4s1.1.1,1.4.4c.4.3.7.8,1,1.5l5.3,13.1h-1.2l5.4-13.2c.3-.7.6-1.2,1-1.5.4-.3.9-.4,1.6-.4s1,.1,1.4.4.5.7.6,1.2c0,.5,0,1-.3,1.6l-9.5,21.6c-.3.7-.7,1.2-1.1,1.5-.4.3-.9.4-1.5.4Z"/>
          <path class="cls-2" d="M331.1,278.3c-2,0-3.7-.4-5.2-1.2-1.5-.8-2.6-2-3.4-3.5-.8-1.5-1.2-3.3-1.2-5.3s.2-2.9.7-4.1c.5-1.2,1.1-2.2,2-3.1.9-.8,1.9-1.5,3.1-2,1.2-.5,2.6-.7,4.1-.7s1.8.1,2.8.4c1,.2,1.9.6,2.8,1.2.4.3.7.6.8.9.1.4.2.7,0,1.1,0,.4-.2.7-.5,1-.2.3-.6.4-.9.5-.4,0-.8,0-1.2-.3-.6-.3-1.2-.6-1.8-.8-.6-.2-1.2-.3-1.7-.3-.9,0-1.6.1-2.3.4-.7.3-1.2.7-1.7,1.2-.5.5-.8,1.1-1,1.9-.2.8-.4,1.6-.4,2.6,0,1.9.5,3.4,1.4,4.5.9,1.1,2.2,1.7,3.9,1.7s1.1,0,1.7-.2,1.2-.4,1.8-.7c.4-.2.8-.3,1.2-.2.4,0,.6.3.9.5.2.3.4.6.4,1,0,.4,0,.7-.1,1.1-.1.4-.4.7-.8.9-.9.5-1.8.9-2.7,1.1-1,.2-1.9.4-2.7.4Z"/>
          <path class="cls-2" d="M343.1,278.2c-.8,0-1.4-.2-1.8-.6-.4-.4-.6-1-.6-1.9v-23.2c0-.8.2-1.4.6-1.8.4-.4,1-.6,1.8-.6s1.4.2,1.8.6c.4.4.6,1,.6,1.8v10.1h-.5c.6-1.4,1.5-2.4,2.7-3.1,1.2-.7,2.6-1.1,4.1-1.1s2.8.3,3.8.9c1,.6,1.7,1.4,2.2,2.6.5,1.2.7,2.6.7,4.4v9.4c0,.8-.2,1.4-.6,1.9-.4.4-1,.6-1.8.6s-1.4-.2-1.8-.6c-.4-.4-.6-1-.6-1.9v-9.2c0-1.5-.3-2.6-.8-3.2-.6-.7-1.4-1-2.6-1s-2.6.4-3.4,1.3c-.8.9-1.3,2.1-1.3,3.6v8.5c0,1.7-.8,2.5-2.5,2.5Z"/>
          <path class="cls-2" d="M372.2,278.3c-2,0-3.7-.4-5.1-1.2-1.5-.8-2.6-2-3.4-3.5-.8-1.5-1.2-3.3-1.2-5.3s.2-2.9.7-4.1c.5-1.2,1.1-2.2,2-3.1.9-.9,1.9-1.5,3.1-2,1.2-.5,2.5-.7,4-.7s3.7.4,5.1,1.2c1.5.8,2.6,2,3.4,3.4.8,1.5,1.2,3.2,1.2,5.3s-.2,2.9-.7,4.1c-.5,1.2-1.1,2.3-2,3.1s-1.9,1.5-3.1,2c-1.2.5-2.5.7-4,.7ZM372.2,274.6c1,0,1.8-.2,2.5-.7.7-.5,1.3-1.2,1.7-2.1.4-.9.6-2.1.6-3.5,0-2.1-.4-3.6-1.3-4.7-.9-1-2.1-1.5-3.5-1.5s-1.8.2-2.5.7-1.3,1.1-1.7,2.1c-.4.9-.6,2.1-.6,3.5,0,2.1.4,3.6,1.3,4.7.9,1.1,2.1,1.6,3.5,1.6Z"/>
          <path class="cls-2" d="M392.5,278.3c-2.2,0-3.8-.6-4.9-1.9-1.1-1.2-1.6-3-1.6-5.4v-18.4c0-.8.2-1.4.6-1.8.4-.4,1-.6,1.8-.6s1.4.2,1.8.6c.4.4.6,1,.6,1.8v18.2c0,1.2.3,2.1.8,2.7.5.6,1.2.9,2.2.9s.4,0,.6,0c.2,0,.4,0,.5,0,.4,0,.6,0,.7.3.1.2.2.7.2,1.5s-.1,1.2-.4,1.5c-.3.4-.7.6-1.3.7-.3,0-.5,0-.8,0-.3,0-.6,0-.9,0Z"/>
          <path class="cls-2" d="M406.9,278.3c-2,0-3.7-.4-5.1-1.2-1.5-.8-2.6-2-3.4-3.5-.8-1.5-1.2-3.3-1.2-5.3s.2-2.9.7-4.1c.5-1.2,1.1-2.2,2-3.1.9-.9,1.9-1.5,3.1-2,1.2-.5,2.5-.7,4-.7s3.7.4,5.1,1.2c1.5.8,2.6,2,3.4,3.4.8,1.5,1.2,3.2,1.2,5.3s-.2,2.9-.7,4.1c-.5,1.2-1.1,2.3-2,3.1s-1.9,1.5-3.1,2c-1.2.5-2.5.7-4,.7ZM406.9,274.6c1,0,1.8-.2,2.5-.7.7-.5,1.3-1.2,1.7-2.1.4-.9.6-2.1.6-3.5,0-2.1-.4-3.6-1.3-4.7-.9-1-2.1-1.5-3.5-1.5s-1.8.2-2.5.7-1.3,1.1-1.7,2.1c-.4.9-.6,2.1-.6,3.5,0,2.1.4,3.6,1.3,4.7.9,1.1,2.1,1.6,3.5,1.6Z"/>
          <path class="cls-2" d="M429.6,285.3c-1.4,0-2.8-.1-4.1-.4-1.3-.3-2.5-.7-3.6-1.2-.5-.3-.8-.6-1-.9-.2-.4-.2-.7-.2-1.1,0-.4.2-.7.5-1,.2-.3.6-.5.9-.6.4-.1.7,0,1.1.2,1.1.6,2.2.9,3.3,1.1,1,.2,1.9.3,2.6.3,1.7,0,3-.4,3.9-1.3.9-.8,1.3-2.1,1.3-3.8v-3.5h.4c-.4,1.3-1.2,2.4-2.4,3.2s-2.6,1.2-4.2,1.2-3.2-.4-4.5-1.2c-1.3-.8-2.3-1.9-3-3.3-.7-1.4-1.1-3.1-1.1-5s.2-2.7.6-3.9c.4-1.2,1-2.2,1.7-3,.7-.8,1.6-1.5,2.7-1.9,1.1-.5,2.2-.7,3.5-.7s3,.4,4.2,1.2,2,1.8,2.4,3.1l-.4,1v-2.8c0-.8.2-1.4.6-1.8.4-.4,1-.6,1.8-.6s1.4.2,1.8.6c.4.4.6,1,.6,1.8v15c0,3.1-.8,5.4-2.5,7-1.6,1.6-4,2.3-7.1,2.3ZM429.5,273.7c1,0,1.9-.2,2.6-.7.7-.5,1.3-1.1,1.7-2,.4-.9.6-1.9.6-3.1,0-1.8-.4-3.2-1.3-4.2-.9-1-2.1-1.5-3.6-1.5s-1.9.2-2.6.7c-.7.5-1.3,1.1-1.7,2-.4.9-.6,1.9-.6,3.1,0,1.8.4,3.2,1.3,4.3.9,1,2.1,1.6,3.6,1.6Z"/>
          <path class="cls-2" d="M446.7,254.9c-.9,0-1.6-.2-2.1-.7-.5-.5-.8-1.1-.8-1.9s.3-1.5.8-1.9c.5-.4,1.2-.7,2.1-.7s1.7.2,2.1.7c.5.4.7,1.1.7,1.9s-.2,1.4-.7,1.9c-.5.5-1.2.7-2.1.7ZM446.7,278.2c-.8,0-1.4-.2-1.8-.7-.4-.5-.6-1.1-.6-2v-14.3c0-.9.2-1.5.6-2,.4-.5,1-.7,1.8-.7s1.4.2,1.8.7c.4.5.6,1.1.6,2v14.3c0,.8-.2,1.5-.6,2-.4.5-1,.7-1.8.7Z"/>
          <path class="cls-2" d="M463,278.3c-2,0-3.7-.4-5.2-1.2-1.5-.8-2.6-2-3.4-3.5-.8-1.5-1.2-3.3-1.2-5.3s.2-2.9.7-4.1c.5-1.2,1.1-2.2,2-3.1.9-.8,1.9-1.5,3.1-2,1.2-.5,2.6-.7,4.1-.7s1.8.1,2.8.4c1,.2,1.9.6,2.8,1.2.4.3.7.6.8.9.1.4.2.7,0,1.1,0,.4-.2.7-.5,1-.2.3-.6.4-.9.5-.4,0-.8,0-1.2-.3-.6-.3-1.2-.6-1.8-.8-.6-.2-1.2-.3-1.7-.3-.9,0-1.6.1-2.3.4-.7.3-1.2.7-1.7,1.2-.5.5-.8,1.1-1,1.9-.2.8-.4,1.6-.4,2.6,0,1.9.5,3.4,1.4,4.5.9,1.1,2.2,1.7,3.9,1.7s1.1,0,1.7-.2,1.2-.4,1.8-.7c.4-.2.8-.3,1.2-.2.4,0,.6.3.9.5.2.3.4.6.4,1,0,.4,0,.7-.1,1.1-.1.4-.4.7-.8.9-.9.5-1.8.9-2.7,1.1-1,.2-1.9.4-2.7.4Z"/>
          <path class="cls-2" d="M478.8,278.3c-1.4,0-2.6-.3-3.7-.8-1.1-.5-1.9-1.3-2.5-2.2-.6-.9-.9-1.9-.9-3.1s.4-2.5,1.1-3.3c.7-.8,1.9-1.4,3.5-1.8,1.6-.4,3.8-.5,6.6-.5h1.9v2.8h-1.9c-1.6,0-2.9,0-3.9.2-1,.2-1.6.4-2,.8-.4.4-.6.9-.6,1.6s.3,1.6.9,2.1c.6.5,1.4.8,2.5.8s1.6-.2,2.3-.6,1.2-1,1.6-1.7c.4-.7.6-1.5.6-2.4v-4.5c0-1.3-.3-2.2-.9-2.8-.6-.6-1.5-.9-2.9-.9s-1.6,0-2.4.3c-.9.2-1.8.5-2.7.9-.5.2-.9.3-1.3.2-.4-.1-.7-.3-.9-.6-.2-.3-.3-.7-.3-1.1s.1-.8.3-1.2c.2-.4.6-.7,1.1-.8,1.2-.5,2.3-.8,3.5-1.1,1.1-.2,2.1-.3,3-.3,1.9,0,3.4.3,4.6.9,1.2.6,2.1,1.4,2.7,2.6.6,1.2.9,2.6.9,4.5v9.4c0,.8-.2,1.4-.6,1.9-.4.4-.9.6-1.7.6s-1.3-.2-1.7-.6c-.4-.4-.6-1-.6-1.9v-1.9h.3c-.2.9-.5,1.7-1.1,2.4-.5.7-1.2,1.2-2,1.5-.8.4-1.7.5-2.8.5Z"/>
          <path class="cls-2" d="M500.3,278.3c-2.2,0-3.8-.6-4.9-1.9-1.1-1.2-1.6-3-1.6-5.4v-18.4c0-.8.2-1.4.6-1.8.4-.4,1-.6,1.8-.6s1.4.2,1.8.6c.4.4.6,1,.6,1.8v18.2c0,1.2.3,2.1.8,2.7.5.6,1.2.9,2.2.9s.4,0,.6,0c.2,0,.4,0,.5,0,.4,0,.6,0,.7.3.1.2.2.7.2,1.5s-.1,1.2-.4,1.5c-.3.4-.7.6-1.3.7-.3,0-.5,0-.8,0-.3,0-.6,0-.9,0Z"/>
          <path class="cls-2" d="M519.2,285.2c-.8,0-1.4-.2-1.8-.6s-.6-1-.6-1.8v-21.8c0-.8.2-1.4.6-1.8s1-.6,1.8-.6,1.4.2,1.8.6.6,1,.6,1.8v3l-.4-1.2c.4-1.3,1.2-2.4,2.4-3.2,1.2-.8,2.6-1.2,4.2-1.2s3.1.4,4.4,1.2c1.3.8,2.2,1.9,2.9,3.4.7,1.5,1.1,3.2,1.1,5.3s-.4,3.8-1.1,5.3-1.7,2.6-2.9,3.5c-1.2.8-2.7,1.2-4.4,1.2s-3-.4-4.2-1.2c-1.2-.8-2-1.8-2.4-3.1h.5v8.8c0,.8-.2,1.4-.6,1.8s-1,.6-1.8.6ZM526.5,274.6c1,0,1.8-.2,2.5-.7.7-.5,1.3-1.2,1.7-2.1s.6-2.1.6-3.5c0-2.1-.4-3.6-1.3-4.7-.9-1-2.1-1.5-3.5-1.5s-1.8.2-2.5.7-1.3,1.1-1.7,2.1c-.4.9-.6,2.1-.6,3.5,0,2.1.4,3.6,1.3,4.7s2.1,1.6,3.5,1.6Z"/>
          <path class="cls-2" d="M542.7,278.2c-.8,0-1.4-.2-1.9-.6-.4-.4-.6-1-.6-1.9v-14.7c0-.8.2-1.4.6-1.8s1-.6,1.8-.6,1.3.2,1.8.6.6,1,.6,1.8v2.5h-.4c.4-1.6,1.1-2.7,2.1-3.5s2.5-1.3,4.3-1.4c.5,0,1,0,1.3.4.3.3.5.8.6,1.5,0,.7,0,1.2-.4,1.6-.4.4-.9.6-1.6.7h-.9c-1.6.2-2.8.7-3.6,1.5-.8.8-1.2,2-1.2,3.5v8.1c0,.8-.2,1.4-.6,1.9-.4.4-1,.6-1.8.6Z"/>
          <path class="cls-2" d="M557.9,254.9c-.9,0-1.6-.2-2.1-.7-.5-.5-.8-1.1-.8-1.9s.3-1.5.8-1.9c.5-.4,1.2-.7,2.1-.7s1.7.2,2.1.7c.5.4.7,1.1.7,1.9s-.2,1.4-.7,1.9-1.2.7-2.1.7ZM557.9,278.2c-.8,0-1.4-.2-1.8-.7-.4-.5-.6-1.1-.6-2v-14.3c0-.9.2-1.5.6-2,.4-.5,1-.7,1.8-.7s1.4.2,1.8.7.6,1.1.6,2v14.3c0,.8-.2,1.5-.6,2-.4.5-1,.7-1.8.7Z"/>
          <path class="cls-2" d="M567.9,278.2c-.8,0-1.4-.2-1.8-.6-.4-.4-.6-1-.6-1.9v-14.7c0-.8.2-1.4.6-1.8.4-.4,1-.6,1.8-.6s1.3.2,1.8.6.6,1,.6,1.8v2.7l-.4-1c.6-1.4,1.5-2.4,2.7-3.1,1.2-.7,2.6-1.1,4.1-1.1s2.8.3,3.8.9c1,.6,1.7,1.4,2.2,2.6.5,1.2.7,2.6.7,4.4v9.4c0,.8-.2,1.4-.6,1.9-.4.4-1,.6-1.8.6s-1.4-.2-1.8-.6c-.4-.4-.6-1-.6-1.9v-9.2c0-1.5-.3-2.6-.8-3.2-.6-.7-1.4-1-2.6-1s-2.6.4-3.4,1.3c-.8.9-1.3,2.1-1.3,3.6v8.5c0,1.7-.8,2.5-2.5,2.5Z"/>
          <path class="cls-2" d="M597.1,278.3c-2,0-3.7-.4-5.2-1.2-1.5-.8-2.6-2-3.4-3.5-.8-1.5-1.2-3.3-1.2-5.3s.2-2.9.7-4.1,1.1-2.2,2-3.1c.9-.8,1.9-1.5,3.1-2,1.2-.5,2.6-.7,4.1-.7s1.8.1,2.8.4c1,.2,1.9.6,2.8,1.2.4.3.7.6.8.9.1.4.2.7,0,1.1s-.2.7-.5,1c-.2.3-.6.4-.9.5s-.8,0-1.2-.3c-.6-.3-1.2-.6-1.8-.8-.6-.2-1.2-.3-1.7-.3-.9,0-1.6.1-2.3.4-.6.3-1.2.7-1.7,1.2s-.8,1.1-1,1.9c-.2.8-.4,1.6-.4,2.6,0,1.9.5,3.4,1.4,4.5.9,1.1,2.2,1.7,3.9,1.7s1.1,0,1.7-.2,1.2-.4,1.8-.7c.4-.2.8-.3,1.2-.2.4,0,.6.3.9.5.2.3.4.6.4,1,0,.4,0,.7-.1,1.1-.1.4-.4.7-.8.9-.9.5-1.8.9-2.7,1.1s-1.9.4-2.7.4Z"/>
          <path class="cls-2" d="M609.1,254.9c-.9,0-1.6-.2-2.1-.7-.5-.5-.8-1.1-.8-1.9s.3-1.5.8-1.9c.5-.4,1.2-.7,2.1-.7s1.7.2,2.1.7c.5.4.7,1.1.7,1.9s-.2,1.4-.7,1.9-1.2.7-2.1.7ZM609.1,278.2c-.8,0-1.4-.2-1.8-.7-.4-.5-.6-1.1-.6-2v-14.3c0-.9.2-1.5.6-2,.4-.5,1-.7,1.8-.7s1.4.2,1.8.7.6,1.1.6,2v14.3c0,.8-.2,1.5-.6,2-.4.5-1,.7-1.8.7Z"/>
          <path class="cls-2" d="M619,285.2c-.8,0-1.4-.2-1.8-.6-.4-.4-.6-1-.6-1.8v-21.8c0-.8.2-1.4.6-1.8.4-.4,1-.6,1.8-.6s1.4.2,1.8.6.6,1,.6,1.8v3l-.4-1.2c.4-1.3,1.2-2.4,2.4-3.2,1.2-.8,2.6-1.2,4.2-1.2s3.1.4,4.4,1.2c1.3.8,2.2,1.9,2.9,3.4.7,1.5,1.1,3.2,1.1,5.3s-.4,3.8-1.1,5.3-1.7,2.6-2.9,3.5c-1.2.8-2.7,1.2-4.4,1.2s-3-.4-4.2-1.2c-1.2-.8-2-1.8-2.4-3.1h.5v8.8c0,.8-.2,1.4-.6,1.8s-1,.6-1.8.6ZM626.3,274.6c1,0,1.8-.2,2.5-.7.7-.5,1.3-1.2,1.7-2.1s.6-2.1.6-3.5c0-2.1-.4-3.6-1.3-4.7-.9-1-2.1-1.5-3.5-1.5s-1.8.2-2.5.7-1.3,1.1-1.7,2.1c-.4.9-.6,2.1-.6,3.5,0,2.1.4,3.6,1.3,4.7.9,1.1,2.1,1.6,3.5,1.6Z"/>
          <path class="cls-2" d="M646.5,278.3c-2.2,0-3.8-.6-4.9-1.9-1.1-1.2-1.6-3-1.6-5.4v-18.4c0-.8.2-1.4.6-1.8.4-.4,1-.6,1.8-.6s1.4.2,1.8.6.6,1,.6,1.8v18.2c0,1.2.3,2.1.8,2.7.5.6,1.2.9,2.2.9s.4,0,.6,0c.2,0,.4,0,.5,0,.4,0,.6,0,.7.3.1.2.2.7.2,1.5s-.1,1.2-.4,1.5-.7.6-1.3.7c-.3,0-.5,0-.8,0-.3,0-.6,0-.9,0Z"/>
          <path class="cls-2" d="M661.7,278.3c-2.2,0-4-.4-5.6-1.2-1.6-.8-2.8-1.9-3.6-3.4s-1.3-3.2-1.3-5.3.4-3.7,1.2-5.2c.8-1.5,1.9-2.6,3.4-3.5s3.1-1.3,4.9-1.3,2.6.2,3.6.7c1.1.4,2,1.1,2.8,1.9s1.4,1.8,1.8,3c.4,1.2.6,2.5.6,4s-.2.8-.5,1.1c-.3.2-.8.4-1.4.4h-12.5v-2.8h11l-.6.6c0-1.2-.2-2.2-.5-3-.4-.8-.9-1.4-1.5-1.9-.7-.4-1.5-.6-2.5-.6s-2,.3-2.8.8-1.4,1.2-1.8,2.1c-.4.9-.6,2-.6,3.3v.3c0,2.1.5,3.7,1.5,4.8,1,1.1,2.5,1.6,4.4,1.6s1.4,0,2.3-.3c.8-.2,1.6-.5,2.4-.9.5-.3,1-.4,1.4-.4s.7.2,1,.4c.2.3.4.6.4,1,0,.4,0,.8-.2,1.2-.2.4-.5.7-1,1-.9.6-2,1-3.1,1.3-1.2.3-2.3.4-3.3.4Z"/>
          <path class="cls-2" d="M680.4,278.3c-1.1,0-2.3-.1-3.5-.4s-2.4-.6-3.4-1.2c-.4-.3-.7-.6-.9-.9-.2-.4-.2-.7-.2-1.1,0-.4.2-.7.4-.9.2-.3.5-.4.9-.5.4,0,.7,0,1.2.2,1,.5,2,.8,2.9,1,.9.2,1.8.3,2.7.3s2.2-.2,2.8-.6c.6-.4.9-1,.9-1.7s-.2-1.1-.6-1.4c-.4-.3-1-.6-1.8-.7l-3.9-.7c-1.6-.3-2.8-.9-3.7-1.8-.8-.9-1.3-2-1.3-3.4s.3-2.3,1-3.2c.7-.9,1.6-1.6,2.9-2.1s2.6-.7,4.2-.7,2.2.1,3.2.4c1,.2,2,.6,2.9,1.2.4.2.7.5.8.8.1.3.2.7,0,1,0,.4-.2.7-.5.9-.2.3-.5.4-.9.5-.4,0-.7,0-1.2-.2-.8-.4-1.6-.7-2.3-.9s-1.5-.3-2.1-.3c-1.3,0-2.2.2-2.8.7-.6.4-.9,1-.9,1.8s.2,1,.5,1.4c.4.4.9.6,1.7.7l3.9.7c1.7.3,3,.9,3.8,1.7s1.3,2,1.3,3.4-.7,3.4-2.2,4.5c-1.5,1.1-3.5,1.6-5.9,1.6Z"/>
        </g>
      </g>
      <rect class="cls-3" x="211.4" y="365.7" width="531.2" height="292.1" rx="47.2" ry="47.2"/>
      <rect class="cls-1" x="211.4" y="687.5" width="531.2" height="105.5" rx="28.3" ry="28.3"/>
      <g class="cls-9">
        <g class="cls-9">
          <path class="cls-10" d="M309.9,424.2c-1.8,0-3.4-.4-4.8-1.1-1.3-.7-2.4-1.8-3.1-3.2-.7-1.4-1.1-3-1.1-4.9s.2-2.7.6-3.8c.4-1.1,1-2.1,1.8-2.9.8-.8,1.7-1.4,2.8-1.8,1.1-.4,2.3-.6,3.7-.6s3.4.4,4.8,1.1c1.3.7,2.4,1.8,3.1,3.2.7,1.4,1.1,3,1.1,4.9s-.2,2.7-.6,3.8-1,2.1-1.8,2.9c-.8.8-1.7,1.4-2.8,1.8-1.1.4-2.3.6-3.7.6ZM309.9,420.7c.9,0,1.7-.2,2.3-.6.7-.4,1.2-1.1,1.6-1.9s.6-1.9.6-3.2c0-1.9-.4-3.4-1.2-4.3-.8-.9-1.9-1.4-3.2-1.4s-1.7.2-2.3.6-1.2,1.1-1.6,1.9-.6,1.9-.6,3.2c0,1.9.4,3.3,1.2,4.3.8,1,1.9,1.5,3.2,1.5Z"/>
          <path class="cls-10" d="M324.8,430.6c-.7,0-1.3-.2-1.7-.6-.4-.4-.6-.9-.6-1.7v-20.1c0-.7.2-1.3.6-1.7.4-.4.9-.6,1.6-.6s1.3.2,1.7.6c.4.4.6.9.6,1.7v2.8l-.4-1.1c.4-1.2,1.1-2.2,2.2-3,1.1-.7,2.4-1.1,3.9-1.1s2.9.4,4,1.1c1.2.7,2.1,1.8,2.7,3.1.6,1.4,1,3,1,4.9s-.3,3.5-1,4.9c-.6,1.4-1.5,2.4-2.7,3.2s-2.5,1.1-4.1,1.1-2.7-.4-3.9-1.1c-1.1-.7-1.8-1.7-2.2-2.9h.4v8.1c0,.7-.2,1.3-.6,1.7-.4.4-1,.6-1.7.6ZM331.5,420.7c.9,0,1.7-.2,2.3-.6s1.2-1.1,1.6-1.9c.4-.9.6-1.9.6-3.2,0-1.9-.4-3.4-1.2-4.3-.8-.9-1.9-1.4-3.2-1.4s-1.7.2-2.3.6c-.7.4-1.2,1.1-1.6,1.9-.4.9-.6,1.9-.6,3.2,0,1.9.4,3.3,1.2,4.3.8,1,1.9,1.5,3.2,1.5Z"/>
          <path class="cls-10" d="M352.9,424.2c-2,0-3.7-.4-5.1-1.1s-2.6-1.8-3.3-3.2c-.8-1.4-1.2-3-1.2-4.9s.4-3.4,1.1-4.8,1.8-2.4,3.1-3.2c1.3-.8,2.8-1.2,4.6-1.2s2.4.2,3.4.6c1,.4,1.8,1,2.6,1.8.7.8,1.2,1.7,1.6,2.8.4,1.1.6,2.3.6,3.7s-.2.8-.5,1c-.3.2-.7.3-1.3.3h-11.6v-2.6h10.1l-.6.5c0-1.1-.2-2-.5-2.8-.3-.7-.8-1.3-1.4-1.7-.6-.4-1.4-.6-2.3-.6s-1.9.2-2.6.7c-.7.5-1.2,1.1-1.6,2s-.6,1.9-.6,3v.3c0,2,.5,3.4,1.4,4.4.9,1,2.3,1.5,4.1,1.5s1.3,0,2.1-.2c.8-.2,1.5-.4,2.2-.8.5-.3.9-.4,1.3-.4.4,0,.7.2.9.4.2.2.4.5.4.9,0,.3,0,.7-.2,1.1s-.5.7-.9.9c-.8.5-1.8.9-2.9,1.2-1.1.3-2.1.4-3,.4Z"/>
          <path class="cls-10" d="M366,424.1c-.7,0-1.3-.2-1.7-.6-.4-.4-.6-1-.6-1.7v-13.6c0-.7.2-1.3.6-1.7.4-.4.9-.6,1.6-.6s1.2.2,1.6.6c.4.4.6.9.6,1.7v2.3h-.4c.3-1.4,1-2.5,2-3.3,1-.7,2.3-1.2,3.9-1.3.5,0,.9,0,1.2.4.3.3.5.8.5,1.4,0,.6,0,1.1-.4,1.5-.3.4-.8.6-1.5.7h-.8c-1.5.2-2.6.7-3.3,1.4-.7.8-1.1,1.8-1.1,3.2v7.5c0,.7-.2,1.3-.6,1.7-.4.4-.9.6-1.7.6Z"/>
          <path class="cls-10" d="M383.4,424.2c-1.3,0-2.4-.2-3.4-.7-1-.5-1.8-1.2-2.3-2-.6-.8-.8-1.8-.8-2.8s.3-2.3,1-3.1c.7-.8,1.8-1.3,3.3-1.6s3.5-.5,6.1-.5h1.8v2.6h-1.8c-1.5,0-2.7,0-3.6.2-.9.1-1.5.4-1.9.7-.4.3-.6.8-.6,1.5s.3,1.4.8,1.9c.6.5,1.3.8,2.3.8s1.5-.2,2.1-.6c.6-.4,1.1-.9,1.5-1.5.4-.6.5-1.4.5-2.2v-4.1c0-1.2-.3-2.1-.8-2.6-.5-.5-1.4-.8-2.7-.8s-1.4,0-2.2.3c-.8.2-1.7.5-2.5.9-.5.2-.9.3-1.2.2-.3,0-.6-.3-.8-.6-.2-.3-.3-.6-.3-1s0-.7.3-1.1c.2-.3.5-.6,1-.8,1.1-.5,2.2-.8,3.2-1,1-.2,1.9-.3,2.8-.3,1.7,0,3.2.3,4.3.8,1.1.5,1.9,1.3,2.5,2.4.6,1.1.8,2.4.8,4.1v8.6c0,.7-.2,1.3-.5,1.7-.4.4-.9.6-1.5.6s-1.2-.2-1.6-.6c-.4-.4-.6-1-.6-1.7v-1.7h.3c-.2.8-.5,1.6-1,2.2-.5.6-1.1,1.1-1.9,1.4-.7.3-1.6.5-2.6.5Z"/>
          <path class="cls-10" d="M399.5,424.1c-.7,0-1.3-.2-1.7-.6-.4-.4-.6-1-.6-1.7v-13.6c0-.7.2-1.3.6-1.7.4-.4.9-.6,1.6-.6s1.2.2,1.6.6c.4.4.6.9.6,1.7v2.4l-.4-.9c.5-1.3,1.4-2.2,2.5-2.9,1.1-.7,2.4-1,3.8-1s2.6.3,3.5.8c.9.5,1.6,1.3,2.1,2.4.5,1.1.7,2.4.7,4.1v8.7c0,.7-.2,1.3-.6,1.7-.4.4-.9.6-1.7.6s-1.3-.2-1.7-.6c-.4-.4-.6-1-.6-1.7v-8.5c0-1.4-.3-2.4-.8-3-.5-.6-1.3-.9-2.4-.9s-2.4.4-3.2,1.2-1.2,1.9-1.2,3.3v7.9c0,1.5-.8,2.3-2.3,2.3Z"/>
          <path class="cls-10" d="M426.4,424.2c-1.6,0-2.9-.3-3.9-.8-1-.5-1.8-1.3-2.3-2.3-.5-1-.8-2.3-.8-3.8v-7.7h-1.9c-.6,0-1-.1-1.3-.5-.3-.3-.5-.7-.5-1.2s.2-1,.5-1.3c.3-.3.8-.4,1.3-.4h1.9v-3.3c0-.7.2-1.3.6-1.7.4-.4,1-.6,1.7-.6s1.3.2,1.7.6c.4.4.6.9.6,1.7v3.3h3.8c.6,0,1,.1,1.3.4.3.3.5.7.5,1.3s-.2.9-.5,1.2c-.3.3-.8.5-1.3.5h-3.8v7.4c0,1.2.3,2,.8,2.6.5.6,1.3.9,2.4.9s.8,0,1.1-.1c.3,0,.6-.1.8-.1.3,0,.5,0,.7.3.2.2.3.6.3,1.2s0,.9-.2,1.3c-.2.4-.4.6-.8.8-.3,0-.7.2-1.2.3-.5,0-.9.1-1.3.1Z"/>
          <path class="cls-10" d="M450.1,424.2c-1.8,0-3.5-.4-4.8-1.1-1.4-.8-2.4-1.8-3.2-3.2-.7-1.4-1.1-3-1.1-4.9s.2-2.7.6-3.8c.4-1.1,1-2.1,1.8-2.8.8-.8,1.8-1.4,2.9-1.8,1.1-.4,2.4-.6,3.8-.6s1.6.1,2.6.3c.9.2,1.8.6,2.6,1.1.4.2.6.5.8.9.1.3.1.7,0,1,0,.3-.2.6-.4.9-.2.3-.5.4-.8.5-.3,0-.7,0-1.1-.2-.5-.3-1.1-.5-1.6-.7-.6-.2-1.1-.2-1.6-.2-.8,0-1.5.1-2.1.4-.6.3-1.1.6-1.5,1.1-.4.5-.7,1-1,1.7-.2.7-.3,1.5-.3,2.4,0,1.8.4,3.2,1.3,4.2.9,1,2.1,1.5,3.6,1.5s1,0,1.6-.2c.5-.1,1.1-.4,1.6-.7.4-.2.8-.3,1.1-.2.3,0,.6.2.8.5.2.3.3.6.4.9,0,.3,0,.7-.1,1-.1.3-.4.6-.7.8-.8.5-1.6.8-2.5,1-.9.2-1.7.3-2.5.3Z"/>
          <path class="cls-10" d="M466.6,424.2c-1.8,0-3.4-.4-4.8-1.1-1.3-.7-2.4-1.8-3.1-3.2-.7-1.4-1.1-3-1.1-4.9s.2-2.7.6-3.8c.4-1.1,1-2.1,1.8-2.9.8-.8,1.7-1.4,2.8-1.8,1.1-.4,2.3-.6,3.7-.6s3.4.4,4.8,1.1c1.3.7,2.4,1.8,3.1,3.2.7,1.4,1.1,3,1.1,4.9s-.2,2.7-.6,3.8-1,2.1-1.8,2.9c-.8.8-1.7,1.4-2.8,1.8-1.1.4-2.3.6-3.7.6ZM466.6,420.7c.9,0,1.7-.2,2.3-.6.7-.4,1.2-1.1,1.6-1.9s.6-1.9.6-3.2c0-1.9-.4-3.4-1.2-4.3-.8-.9-1.9-1.4-3.2-1.4s-1.7.2-2.3.6-1.2,1.1-1.6,1.9-.6,1.9-.6,3.2c0,1.9.4,3.3,1.2,4.3.8,1,1.9,1.5,3.2,1.5Z"/>
          <path class="cls-10" d="M481.5,424.1c-.7,0-1.3-.2-1.7-.6-.4-.4-.6-1-.6-1.7v-13.6c0-.7.2-1.3.6-1.7.4-.4.9-.6,1.6-.6s1.2.2,1.6.6c.4.4.6.9.6,1.7v2.4l-.4-.9c.5-1.3,1.4-2.2,2.5-2.9,1.1-.7,2.4-1,3.8-1s2.6.3,3.5.8c.9.5,1.6,1.3,2.1,2.4.5,1.1.7,2.4.7,4.1v8.7c0,.7-.2,1.3-.6,1.7-.4.4-.9.6-1.7.6s-1.3-.2-1.7-.6c-.4-.4-.6-1-.6-1.7v-8.5c0-1.4-.3-2.4-.8-3-.5-.6-1.3-.9-2.4-.9s-2.4.4-3.2,1.2-1.2,1.9-1.2,3.3v7.9c0,1.5-.8,2.3-2.3,2.3Z"/>
          <path class="cls-10" d="M507.1,424.2c-1.5,0-2.9-.4-4-1.1-1.2-.7-2.1-1.8-2.7-3.2-.6-1.4-1-3-1-4.9s.3-3.5,1-4.9c.6-1.4,1.6-2.4,2.7-3.1,1.2-.7,2.5-1.1,4-1.1s2.7.4,3.8,1.1c1.1.7,1.8,1.7,2.2,2.8h-.4v-9.4c0-.7.2-1.3.6-1.7.4-.4.9-.6,1.7-.6s1.3.2,1.7.6.6.9.6,1.7v21.4c0,.7-.2,1.3-.6,1.7-.4.4-.9.6-1.7.6s-1.3-.2-1.7-.6c-.4-.4-.6-1-.6-1.7v-2.8l.4,1.1c-.4,1.2-1.1,2.2-2.2,3-1.1.7-2.4,1.1-3.9,1.1ZM508.4,420.7c.9,0,1.7-.2,2.3-.6.7-.4,1.2-1.1,1.6-1.9.4-.9.6-1.9.6-3.2,0-1.9-.4-3.4-1.2-4.3-.8-.9-1.9-1.4-3.2-1.4s-1.7.2-2.3.6-1.2,1.1-1.6,1.9-.6,1.9-.6,3.2c0,1.9.4,3.3,1.2,4.3.8,1,1.9,1.5,3.2,1.5Z"/>
          <path class="cls-10" d="M524.2,402.6c-.8,0-1.5-.2-2-.6-.5-.4-.7-1-.7-1.7s.2-1.4.7-1.8c.5-.4,1.1-.6,2-.6s1.5.2,2,.6.7,1,.7,1.8-.2,1.3-.7,1.7-1.1.6-2,.6ZM524.2,424.1c-.7,0-1.3-.2-1.7-.6-.4-.4-.6-1-.6-1.8v-13.2c0-.8.2-1.4.6-1.8.4-.4.9-.6,1.7-.6s1.3.2,1.7.6.6,1,.6,1.8v13.2c0,.8-.2,1.4-.6,1.8-.4.4-.9.6-1.7.6Z"/>
          <path class="cls-10" d="M539.2,424.2c-1.6,0-2.9-.3-3.9-.8-1-.5-1.8-1.3-2.3-2.3-.5-1-.8-2.3-.8-3.8v-7.7h-1.9c-.6,0-1-.1-1.3-.5-.3-.3-.5-.7-.5-1.2s.2-1,.5-1.3.8-.4,1.3-.4h1.9v-3.3c0-.7.2-1.3.6-1.7.4-.4,1-.6,1.7-.6s1.3.2,1.7.6c.4.4.6.9.6,1.7v3.3h3.8c.6,0,1,.1,1.3.4.3.3.5.7.5,1.3s-.2.9-.5,1.2c-.3.3-.8.5-1.3.5h-3.8v7.4c0,1.2.3,2,.8,2.6s1.3.9,2.4.9.8,0,1.1-.1c.3,0,.6-.1.8-.1.3,0,.5,0,.7.3.2.2.3.6.3,1.2s0,.9-.2,1.3c-.2.4-.4.6-.8.8-.3,0-.7.2-1.2.3-.5,0-.9.1-1.3.1Z"/>
          <path class="cls-10" d="M547.7,402.6c-.8,0-1.5-.2-2-.6-.5-.4-.7-1-.7-1.7s.2-1.4.7-1.8c.5-.4,1.1-.6,2-.6s1.5.2,2,.6.7,1,.7,1.8-.2,1.3-.7,1.7-1.1.6-2,.6ZM547.7,424.1c-.7,0-1.3-.2-1.7-.6-.4-.4-.6-1-.6-1.8v-13.2c0-.8.2-1.4.6-1.8.4-.4.9-.6,1.7-.6s1.3.2,1.7.6.6,1,.6,1.8v13.2c0,.8-.2,1.4-.6,1.8-.4.4-.9.6-1.7.6Z"/>
          <path class="cls-10" d="M562.7,424.2c-1.8,0-3.4-.4-4.8-1.1-1.3-.7-2.4-1.8-3.1-3.2-.7-1.4-1.1-3-1.1-4.9s.2-2.7.6-3.8,1-2.1,1.8-2.9c.8-.8,1.7-1.4,2.8-1.8,1.1-.4,2.3-.6,3.7-.6s3.4.4,4.8,1.1c1.3.7,2.4,1.8,3.1,3.2s1.1,3,1.1,4.9-.2,2.7-.6,3.8-1,2.1-1.8,2.9c-.8.8-1.7,1.4-2.8,1.8-1.1.4-2.3.6-3.7.6ZM562.7,420.7c.9,0,1.7-.2,2.3-.6.7-.4,1.2-1.1,1.6-1.9.4-.9.6-1.9.6-3.2,0-1.9-.4-3.4-1.2-4.3-.8-.9-1.9-1.4-3.2-1.4s-1.7.2-2.3.6-1.2,1.1-1.6,1.9-.6,1.9-.6,3.2c0,1.9.4,3.3,1.2,4.3.8,1,1.9,1.5,3.2,1.5Z"/>
          <path class="cls-10" d="M577.6,424.1c-.7,0-1.3-.2-1.7-.6-.4-.4-.6-1-.6-1.7v-13.6c0-.7.2-1.3.6-1.7s.9-.6,1.6-.6,1.2.2,1.6.6c.4.4.6.9.6,1.7v2.4l-.4-.9c.5-1.3,1.3-2.2,2.5-2.9,1.1-.7,2.4-1,3.8-1s2.6.3,3.5.8c.9.5,1.6,1.3,2.1,2.4.5,1.1.7,2.4.7,4.1v8.7c0,.7-.2,1.3-.6,1.7-.4.4-.9.6-1.7.6s-1.3-.2-1.7-.6-.6-1-.6-1.7v-8.5c0-1.4-.3-2.4-.8-3-.5-.6-1.3-.9-2.4-.9s-2.4.4-3.2,1.2c-.8.8-1.2,1.9-1.2,3.3v7.9c0,1.5-.8,2.3-2.3,2.3Z"/>
          <path class="cls-10" d="M598.7,402.6c-.8,0-1.5-.2-2-.6s-.7-1-.7-1.7.2-1.4.7-1.8,1.1-.6,2-.6,1.5.2,2,.6c.5.4.7,1,.7,1.8s-.2,1.3-.7,1.7c-.5.4-1.1.6-2,.6ZM598.7,424.1c-.7,0-1.3-.2-1.7-.6-.4-.4-.6-1-.6-1.8v-13.2c0-.8.2-1.4.6-1.8.4-.4.9-.6,1.7-.6s1.3.2,1.7.6.6,1,.6,1.8v13.2c0,.8-.2,1.4-.6,1.8-.4.4-.9.6-1.7.6Z"/>
          <path class="cls-10" d="M607.8,424.1c-.7,0-1.3-.2-1.7-.6-.4-.4-.6-1-.6-1.7v-13.6c0-.7.2-1.3.6-1.7.4-.4.9-.6,1.6-.6s1.2.2,1.6.6c.4.4.6.9.6,1.7v2.4l-.4-.9c.5-1.3,1.3-2.2,2.5-2.9s2.4-1,3.8-1,2.6.3,3.5.8c.9.5,1.6,1.3,2.1,2.4.5,1.1.7,2.4.7,4.1v8.7c0,.7-.2,1.3-.6,1.7-.4.4-.9.6-1.7.6s-1.3-.2-1.7-.6c-.4-.4-.6-1-.6-1.7v-8.5c0-1.4-.3-2.4-.8-3s-1.3-.9-2.4-.9-2.4.4-3.2,1.2-1.2,1.9-1.2,3.3v7.9c0,1.5-.8,2.3-2.3,2.3Z"/>
          <path class="cls-10" d="M634.9,430.6c-1.3,0-2.5-.1-3.8-.4-1.2-.2-2.3-.6-3.3-1.1-.5-.2-.8-.5-.9-.9-.2-.3-.2-.7-.1-1s.2-.7.4-.9c.2-.3.5-.4.8-.5s.7,0,1,.1c1.1.5,2.1.9,3,1s1.8.2,2.4.2c1.6,0,2.8-.4,3.6-1.2.8-.8,1.2-1.9,1.2-3.5v-3.2h.3c-.4,1.2-1.1,2.2-2.2,2.9-1.1.7-2.4,1.1-3.9,1.1s-3-.4-4.1-1.1c-1.2-.7-2.1-1.8-2.7-3.1-.6-1.3-1-2.9-1-4.6s.2-2.5.6-3.6c.4-1.1.9-2,1.6-2.8.7-.8,1.5-1.4,2.5-1.8s2-.6,3.2-.6,2.8.4,3.9,1.1c1.1.7,1.8,1.7,2.2,2.9l-.4.9v-2.6c0-.7.2-1.3.6-1.7.4-.4.9-.6,1.6-.6s1.3.2,1.7.6c.4.4.6.9.6,1.7v13.9c0,2.9-.8,5-2.3,6.4-1.5,1.4-3.7,2.2-6.6,2.2ZM634.8,419.9c.9,0,1.7-.2,2.4-.6s1.2-1,1.6-1.9c.4-.8.6-1.8.6-2.9,0-1.7-.4-3-1.2-3.9-.8-.9-1.9-1.4-3.3-1.4s-1.7.2-2.4.6c-.7.4-1.2,1-1.6,1.8s-.6,1.7-.6,2.8c0,1.7.4,3,1.2,3.9.8,1,1.9,1.4,3.3,1.4Z"/>
        </g>
      </g>
      <g class="cls-9">
        <g class="cls-9">
          <path class="cls-10" d="M317.8,465.2c-1.3,0-2.3-.4-3-1.1-.7-.8-1-1.9-1-3.3v-11.4c0-.5.1-.9.4-1.1s.6-.4,1.1-.4.9.1,1.1.4.4.6.4,1.1v11.2c0,.7.2,1.3.5,1.6s.8.5,1.3.5.2,0,.4,0c.1,0,.2,0,.3,0,.2,0,.4,0,.5.2,0,.2.1.5.1.9s0,.7-.2.9c-.2.2-.4.4-.8.4-.2,0-.3,0-.5,0-.2,0-.4,0-.5,0Z"/>
          <path class="cls-10" d="M327.1,465.2c-1.3,0-2.5-.2-3.4-.7s-1.7-1.2-2.2-2.1-.8-2-.8-3.2.3-2.3.8-3.2,1.2-1.6,2.1-2.1c.9-.5,1.9-.8,3-.8s1.6.1,2.2.4c.7.3,1.2.7,1.7,1.2.5.5.8,1.1,1.1,1.9.2.7.4,1.5.4,2.5s-.1.5-.3.7c-.2.2-.5.2-.9.2h-7.7v-1.7h6.7l-.4.4c0-.7-.1-1.4-.3-1.8-.2-.5-.5-.9-.9-1.1s-.9-.4-1.5-.4-1.2.2-1.7.5c-.5.3-.8.8-1.1,1.3-.2.6-.4,1.2-.4,2v.2c0,1.3.3,2.3.9,2.9.6.6,1.5,1,2.7,1s.9,0,1.4-.2c.5-.1,1-.3,1.5-.5.3-.2.6-.3.9-.3.3,0,.5.1.6.3.2.2.2.4.3.6,0,.2,0,.5-.1.7s-.3.4-.6.6c-.6.4-1.2.6-1.9.8-.7.2-1.4.3-2,.3Z"/>
          <path class="cls-10" d="M338.2,465.2c-.8,0-1.6-.2-2.3-.5s-1.2-.8-1.6-1.3c-.4-.6-.6-1.2-.6-1.9s.2-1.5.7-2.1c.4-.5,1.2-.9,2.2-1.1,1-.2,2.4-.3,4.1-.3h1.2v1.7h-1.2c-1,0-1.8,0-2.4.1s-1,.3-1.3.5c-.2.2-.4.6-.4,1s.2,1,.6,1.3c.4.3.9.5,1.5.5s1-.1,1.4-.4c.4-.2.7-.6,1-1,.2-.4.4-.9.4-1.5v-2.8c0-.8-.2-1.4-.5-1.7-.4-.4-.9-.5-1.8-.5s-1,0-1.5.2-1.1.3-1.7.6c-.3.1-.6.2-.8.1-.2,0-.4-.2-.5-.4s-.2-.4-.2-.7,0-.5.2-.7c.1-.2.3-.4.6-.5.7-.3,1.4-.5,2.1-.6.7-.1,1.3-.2,1.9-.2,1.2,0,2.1.2,2.8.5.7.4,1.3.9,1.7,1.6s.6,1.6.6,2.7v5.8c0,.5-.1.9-.4,1.1-.2.3-.6.4-1,.4s-.8-.1-1-.4c-.2-.3-.4-.6-.4-1.1v-1.2h.2c-.1.6-.3,1-.7,1.5s-.7.7-1.2.9c-.5.2-1.1.3-1.7.3Z"/>
          <path class="cls-10" d="M349,465.2c-.5,0-.9-.1-1.1-.4s-.4-.6-.4-1.1v-9.1c0-.5.1-.9.4-1.1s.6-.4,1.1-.4.8.1,1.1.4c.3.3.4.6.4,1.1v1.5h-.2c.2-1,.7-1.7,1.3-2.2.7-.5,1.5-.8,2.6-.9.3,0,.6,0,.8.3s.3.5.3.9c0,.4,0,.7-.3,1s-.5.4-1,.4h-.5c-1,.1-1.7.4-2.2.9-.5.5-.7,1.2-.7,2.1v5c0,.5-.1.9-.4,1.1-.3.3-.6.4-1.1.4Z"/>
          <path class="cls-10" d="M358.3,465.2c-.5,0-.8-.1-1.1-.4s-.4-.6-.4-1.1v-9.1c0-.5.1-.9.4-1.1s.6-.4,1.1-.4.8.1,1.1.4c.3.3.4.6.4,1.1v1.6l-.3-.6c.4-.8.9-1.5,1.6-1.9.7-.4,1.6-.7,2.5-.7s1.7.2,2.3.5c.6.4,1.1.9,1.4,1.6.3.7.5,1.6.5,2.7v5.8c0,.5-.1.9-.4,1.1s-.6.4-1.1.4-.9-.1-1.1-.4c-.3-.3-.4-.6-.4-1.1v-5.7c0-.9-.2-1.6-.5-2-.3-.4-.9-.6-1.6-.6s-1.6.3-2.1.8-.8,1.3-.8,2.2v5.3c0,1-.5,1.5-1.5,1.5Z"/>
          <path class="cls-10" d="M372.4,450.9c-.6,0-1-.1-1.3-.4-.3-.3-.5-.7-.5-1.2s.2-.9.5-1.2c.3-.3.7-.4,1.3-.4s1,.1,1.3.4c.3.3.5.7.5,1.2s-.2.9-.5,1.2c-.3.3-.7.4-1.3.4ZM372.4,465.2c-.5,0-.8-.1-1.1-.4s-.4-.7-.4-1.2v-8.8c0-.5.1-.9.4-1.2.3-.3.6-.4,1.1-.4s.9.1,1.1.4c.3.3.4.7.4,1.2v8.8c0,.5-.1.9-.4,1.2s-.6.4-1.1.4Z"/>
          <path class="cls-10" d="M378.5,465.2c-.5,0-.8-.1-1.1-.4s-.4-.6-.4-1.1v-9.1c0-.5.1-.9.4-1.1s.6-.4,1.1-.4.8.1,1.1.4c.3.3.4.6.4,1.1v1.6l-.3-.6c.4-.8.9-1.5,1.6-1.9.7-.4,1.6-.7,2.5-.7s1.7.2,2.3.5c.6.4,1.1.9,1.4,1.6.3.7.5,1.6.5,2.7v5.8c0,.5-.1.9-.4,1.1s-.6.4-1.1.4-.9-.1-1.1-.4c-.3-.3-.4-.6-.4-1.1v-5.7c0-.9-.2-1.6-.5-2-.3-.4-.9-.6-1.6-.6s-1.6.3-2.1.8-.8,1.3-.8,2.2v5.3c0,1-.5,1.5-1.5,1.5Z"/>
          <path class="cls-10" d="M396.5,469.6c-.9,0-1.7,0-2.5-.2-.8-.2-1.5-.4-2.2-.7-.3-.2-.5-.4-.6-.6-.1-.2-.1-.5,0-.7,0-.2.1-.4.3-.6.2-.2.3-.3.6-.4.2,0,.5,0,.7,0,.7.4,1.4.6,2,.7.6.1,1.2.2,1.6.2,1.1,0,1.9-.3,2.4-.8.5-.5.8-1.3.8-2.3v-2.2h.2c-.2.8-.7,1.5-1.5,2-.8.5-1.6.7-2.6.7s-2-.2-2.8-.7c-.8-.5-1.4-1.2-1.8-2.1-.4-.9-.6-1.9-.6-3.1s.1-1.7.4-2.4c.2-.7.6-1.3,1.1-1.8.5-.5,1-.9,1.7-1.2s1.4-.4,2.1-.4,1.9.2,2.6.7c.7.5,1.2,1.1,1.5,1.9l-.2.6v-1.7c0-.5.1-.9.4-1.1s.6-.4,1.1-.4.8.1,1.1.4.4.6.4,1.1v9.2c0,1.9-.5,3.3-1.5,4.3-1,1-2.5,1.4-4.4,1.4ZM396.4,462.4c.6,0,1.2-.1,1.6-.4s.8-.7,1-1.2c.2-.5.4-1.2.4-1.9,0-1.1-.3-2-.8-2.6s-1.3-.9-2.2-.9-1.2.1-1.6.4c-.4.3-.8.7-1,1.2-.2.5-.4,1.2-.4,1.9,0,1.1.3,2,.8,2.6.5.6,1.3,1,2.2,1Z"/>
          <path class="cls-10" d="M417.4,465.2c-1,0-1.9-.2-2.6-.5s-1.2-.9-1.5-1.5c-.3-.7-.5-1.5-.5-2.5v-5.1h-1.2c-.4,0-.7,0-.9-.3-.2-.2-.3-.5-.3-.8s.1-.6.3-.8c.2-.2.5-.3.9-.3h1.2v-2.2c0-.5.1-.9.4-1.1.3-.3.6-.4,1.1-.4s.8.1,1.1.4c.3.3.4.6.4,1.1v2.2h2.5c.4,0,.7,0,.9.3.2.2.3.5.3.8s-.1.6-.3.8c-.2.2-.5.3-.9.3h-2.5v4.9c0,.8.2,1.3.5,1.7.3.4.9.6,1.6.6s.5,0,.7,0c.2,0,.4,0,.6,0,.2,0,.4,0,.5.2.1.1.2.4.2.8s0,.6-.2.9c-.1.2-.3.4-.6.5-.2,0-.5.1-.8.2-.3,0-.6,0-.9,0Z"/>
          <path class="cls-10" d="M423.1,465.2c-.5,0-.8-.1-1.1-.4s-.4-.6-.4-1.1v-14.3c0-.5.1-.9.4-1.1s.6-.4,1.1-.4.9.1,1.1.4.4.6.4,1.1v6.2h-.3c.4-.8.9-1.5,1.6-1.9.7-.4,1.6-.7,2.5-.7s1.7.2,2.3.5c.6.4,1.1.9,1.4,1.6.3.7.5,1.6.5,2.7v5.8c0,.5-.1.9-.4,1.1s-.6.4-1.1.4-.9-.1-1.1-.4c-.3-.3-.4-.6-.4-1.1v-5.7c0-.9-.2-1.6-.5-2-.3-.4-.9-.6-1.6-.6s-1.6.3-2.1.8-.8,1.3-.8,2.2v5.3c0,1-.5,1.5-1.5,1.5Z"/>
          <path class="cls-10" d="M437.1,465.2c-.5,0-.9-.1-1.1-.4s-.4-.6-.4-1.1v-9.1c0-.5.1-.9.4-1.1s.6-.4,1.1-.4.8.1,1.1.4c.3.3.4.6.4,1.1v1.5h-.2c.2-1,.7-1.7,1.3-2.2.7-.5,1.5-.8,2.6-.9.3,0,.6,0,.8.3s.3.5.3.9c0,.4,0,.7-.3,1s-.5.4-1,.4h-.5c-1,.1-1.7.4-2.2.9-.5.5-.7,1.2-.7,2.1v5c0,.5-.1.9-.4,1.1-.3.3-.6.4-1.1.4Z"/>
          <path class="cls-10" d="M450.2,465.2c-1.2,0-2.3-.2-3.2-.7-.9-.5-1.6-1.2-2.1-2.1s-.7-2-.7-3.3.1-1.8.4-2.5c.3-.7.7-1.4,1.2-1.9s1.2-.9,1.9-1.2,1.6-.4,2.5-.4,2.3.2,3.2.7c.9.5,1.6,1.2,2.1,2.1.5.9.7,2,.7,3.2s-.1,1.8-.4,2.5c-.3.8-.7,1.4-1.2,1.9-.5.5-1.2.9-1.9,1.2-.7.3-1.6.4-2.5.4ZM450.2,463c.6,0,1.1-.1,1.6-.4.4-.3.8-.7,1-1.3.2-.6.4-1.3.4-2.1,0-1.3-.3-2.2-.8-2.9s-1.3-.9-2.2-.9-1.1.1-1.6.4c-.4.3-.8.7-1,1.3-.2.6-.4,1.3-.4,2.1,0,1.3.3,2.2.8,2.9.5.6,1.3,1,2.2,1Z"/>
          <path class="cls-10" d="M462.9,465.2c-1,0-1.8-.2-2.4-.5-.6-.4-1.1-.9-1.4-1.6s-.5-1.6-.5-2.7v-5.8c0-.5.1-.9.4-1.1.3-.2.6-.4,1.1-.4s.9.1,1.1.4c.3.2.4.6.4,1.1v5.9c0,.8.2,1.4.5,1.8.3.4.9.6,1.6.6s1.5-.3,2-.8c.5-.6.8-1.3.8-2.2v-5.3c0-.5.1-.9.4-1.1.3-.2.6-.4,1.1-.4s.9.1,1.1.4.4.6.4,1.1v9.1c0,1-.5,1.5-1.5,1.5s-.8-.1-1.1-.4c-.3-.3-.4-.6-.4-1.1v-1.8l.3.7c-.3.9-.8,1.5-1.5,2-.7.5-1.5.7-2.4.7Z"/>
          <path class="cls-10" d="M478,469.6c-.9,0-1.7,0-2.5-.2-.8-.2-1.5-.4-2.2-.7-.3-.2-.5-.4-.6-.6-.1-.2-.1-.5,0-.7,0-.2.1-.4.3-.6.2-.2.3-.3.6-.4.2,0,.5,0,.7,0,.7.4,1.4.6,2,.7.6.1,1.2.2,1.6.2,1.1,0,1.9-.3,2.4-.8.5-.5.8-1.3.8-2.3v-2.2h.2c-.2.8-.7,1.5-1.5,2-.8.5-1.6.7-2.6.7s-2-.2-2.8-.7c-.8-.5-1.4-1.2-1.8-2.1-.4-.9-.6-1.9-.6-3.1s.1-1.7.4-2.4c.2-.7.6-1.3,1.1-1.8.5-.5,1-.9,1.7-1.2s1.4-.4,2.1-.4,1.9.2,2.6.7c.7.5,1.2,1.1,1.5,1.9l-.2.6v-1.7c0-.5.1-.9.4-1.1s.6-.4,1.1-.4.8.1,1.1.4.4.6.4,1.1v9.2c0,1.9-.5,3.3-1.5,4.3-1,1-2.5,1.4-4.4,1.4ZM477.9,462.4c.6,0,1.2-.1,1.6-.4s.8-.7,1-1.2c.2-.5.4-1.2.4-1.9,0-1.1-.3-2-.8-2.6s-1.3-.9-2.2-.9-1.2.1-1.6.4c-.4.3-.8.7-1,1.2-.2.5-.4,1.2-.4,1.9,0,1.1.3,2,.8,2.6.5.6,1.3,1,2.2,1Z"/>
          <path class="cls-10" d="M488.5,465.2c-.5,0-.8-.1-1.1-.4s-.4-.6-.4-1.1v-14.3c0-.5.1-.9.4-1.1s.6-.4,1.1-.4.9.1,1.1.4.4.6.4,1.1v6.2h-.3c.4-.8.9-1.5,1.6-1.9.7-.4,1.6-.7,2.5-.7s1.7.2,2.3.5c.6.4,1.1.9,1.4,1.6.3.7.5,1.6.5,2.7v5.8c0,.5-.1.9-.4,1.1s-.6.4-1.1.4-.9-.1-1.1-.4c-.3-.3-.4-.6-.4-1.1v-5.7c0-.9-.2-1.6-.5-2-.3-.4-.9-.6-1.6-.6s-1.6.3-2.1.8-.8,1.3-.8,2.2v5.3c0,1-.5,1.5-1.5,1.5Z"/>
          <path class="cls-10" d="M509.1,465.2c-.5,0-.9-.1-1.1-.4s-.4-.6-.4-1.1v-9.1c0-.5.1-.9.4-1.1s.6-.4,1.1-.4.8.1,1.1.4c.3.3.4.6.4,1.1v1.5h-.2c.2-1,.7-1.7,1.3-2.2.7-.5,1.5-.8,2.6-.9.3,0,.6,0,.8.3s.3.5.3.9c0,.4,0,.7-.3,1s-.5.4-1,.4h-.5c-1,.1-1.7.4-2.2.9-.5.5-.7,1.2-.7,2.1v5c0,.5-.1.9-.4,1.1-.3.3-.6.4-1.1.4Z"/>
          <path class="cls-10" d="M522.6,465.2c-1.3,0-2.5-.2-3.4-.7s-1.7-1.2-2.2-2.1c-.5-.9-.8-2-.8-3.2s.3-2.3.8-3.2,1.2-1.6,2.1-2.1c.9-.5,1.9-.8,3-.8s1.6.1,2.2.4c.7.3,1.2.7,1.7,1.2.5.5.8,1.1,1.1,1.9.2.7.4,1.5.4,2.5s0,.5-.3.7c-.2.2-.5.2-.9.2h-7.7v-1.7h6.7l-.4.4c0-.7-.1-1.4-.3-1.8-.2-.5-.5-.9-.9-1.1s-.9-.4-1.5-.4-1.2.2-1.7.5c-.5.3-.8.8-1.1,1.3-.2.6-.4,1.2-.4,2v.2c0,1.3.3,2.3.9,2.9.6.6,1.5,1,2.7,1s.9,0,1.4-.2c.5-.1,1-.3,1.5-.5.3-.2.6-.3.9-.3.3,0,.5.1.6.3s.2.4.3.6c0,.2,0,.5-.1.7s-.3.4-.6.6c-.6.4-1.2.6-1.9.8-.7.2-1.4.3-2,.3Z"/>
          <path class="cls-10" d="M534.1,465.2c-.4,0-.7-.1-1-.3-.3-.2-.5-.5-.7-.9l-3.5-8.9c-.1-.4-.2-.7-.1-1,0-.3.2-.5.4-.7.2-.2.6-.3,1-.3s.6,0,.9.3c.2.2.4.5.6.9l2.9,8h-.6l3-8.2c.1-.4.3-.6.5-.8.2-.2.5-.2.9-.2s.6,0,.9.3.4.4.5.8l3,8.2h-.5l2.9-8.1c.2-.4.4-.7.6-.9.2-.2.5-.2.8-.2s.7,0,.9.3c.2.2.3.4.4.7,0,.3,0,.6-.2,1l-3.5,8.9c-.2.4-.4.7-.7.9s-.6.3-1,.3-.7-.1-1-.3-.5-.5-.7-.9l-3.1-8.3h1.4l-3.1,8.3c-.2.4-.4.8-.7,1s-.6.3-1.1.3Z"/>
          <path class="cls-10" d="M553.7,465.2c-.8,0-1.6-.2-2.3-.5s-1.2-.8-1.6-1.3c-.4-.6-.6-1.2-.6-1.9s.2-1.5.7-2.1c.4-.5,1.2-.9,2.2-1.1,1-.2,2.4-.3,4.1-.3h1.2v1.7h-1.2c-1,0-1.8,0-2.4.1s-1,.3-1.3.5c-.2.2-.4.6-.4,1s.2,1,.6,1.3.9.5,1.5.5,1-.1,1.4-.4c.4-.2.7-.6,1-1,.2-.4.4-.9.4-1.5v-2.8c0-.8-.2-1.4-.5-1.7-.4-.4-.9-.5-1.8-.5s-1,0-1.5.2-1.1.3-1.7.6c-.3.1-.6.2-.8.1-.2,0-.4-.2-.5-.4s-.2-.4-.2-.7,0-.5.2-.7c.1-.2.3-.4.6-.5.7-.3,1.4-.5,2.1-.6.7-.1,1.3-.2,1.9-.2,1.2,0,2.1.2,2.8.5.7.4,1.3.9,1.7,1.6s.6,1.6.6,2.7v5.8c0,.5-.1.9-.4,1.1-.2.3-.6.4-1,.4s-.8-.1-1-.4c-.2-.3-.4-.6-.4-1.1v-1.2h.2c-.1.6-.3,1-.7,1.5s-.7.7-1.2.9c-.5.2-1.1.3-1.7.3Z"/>
          <path class="cls-10" d="M564.5,465.2c-.5,0-.9-.1-1.1-.4-.3-.3-.4-.6-.4-1.1v-9.1c0-.5.1-.9.4-1.1s.6-.4,1.1-.4.8.1,1.1.4.4.6.4,1.1v1.5h-.2c.2-1,.7-1.7,1.3-2.2s1.5-.8,2.6-.9c.3,0,.6,0,.8.3s.3.5.3.9c0,.4,0,.7-.3,1s-.5.4-1,.4h-.5c-1,.1-1.7.4-2.2.9-.5.5-.7,1.2-.7,2.1v5c0,.5-.1.9-.4,1.1s-.6.4-1.1.4Z"/>
          <path class="cls-10" d="M576.7,465.2c-1,0-1.9-.2-2.7-.7-.8-.5-1.4-1.2-1.8-2.1-.4-.9-.6-2-.6-3.3s.2-2.3.6-3.3c.4-.9,1-1.6,1.8-2.1.8-.5,1.7-.7,2.7-.7s1.8.2,2.6.7c.7.5,1.2,1.1,1.5,1.9h-.3v-6.2c0-.5.1-.9.4-1.1s.6-.4,1.1-.4.9.1,1.1.4c.3.3.4.6.4,1.1v14.3c0,.5-.1.9-.4,1.1-.3.3-.6.4-1.1.4s-.8-.1-1.1-.4c-.3-.3-.4-.6-.4-1.1v-1.9l.3.7c-.2.8-.7,1.5-1.5,2-.7.5-1.6.7-2.6.7ZM577.5,463c.6,0,1.1-.1,1.6-.4s.8-.7,1-1.3.4-1.3.4-2.1c0-1.3-.3-2.2-.8-2.9s-1.3-.9-2.2-.9-1.1.1-1.6.4c-.4.3-.8.7-1,1.3-.2.6-.4,1.3-.4,2.1,0,1.3.3,2.2.8,2.9.5.6,1.3,1,2.2,1Z"/>
          <path class="cls-10" d="M590.9,465.2c-.7,0-1.4,0-2.2-.2-.8-.1-1.5-.4-2.1-.7-.3-.2-.4-.3-.5-.6-.1-.2-.1-.4-.1-.6,0-.2.1-.4.2-.6.1-.2.3-.3.5-.3.2,0,.5,0,.7.1.6.3,1.2.5,1.8.6.6.1,1.1.2,1.7.2s1.3-.1,1.7-.4c.4-.3.6-.6.6-1s-.1-.7-.4-.9-.6-.3-1.1-.4l-2.4-.5c-1-.2-1.7-.6-2.3-1.1-.5-.5-.8-1.2-.8-2.1s.2-1.4.6-2c.4-.6,1-1,1.8-1.3.8-.3,1.6-.5,2.6-.5s1.4,0,2,.2c.6.2,1.2.4,1.8.7.2.1.4.3.5.5,0,.2.1.4,0,.6,0,.2-.1.4-.3.6-.1.2-.3.3-.5.3s-.5,0-.7-.1c-.5-.3-1-.4-1.4-.6-.5-.1-.9-.2-1.3-.2-.8,0-1.4.1-1.7.4-.4.3-.6.6-.6,1.1s.1.6.3.8c.2.2.6.4,1,.5l2.4.5c1,.2,1.8.5,2.4,1.1.5.5.8,1.2.8,2.1s-.5,2.1-1.4,2.7-2.1,1-3.6,1Z"/>
          <path class="cls-10" d="M608.7,465.2c-.8,0-1.6-.2-2.3-.5s-1.2-.8-1.6-1.3c-.4-.6-.6-1.2-.6-1.9s.2-1.5.7-2.1,1.2-.9,2.2-1.1c1-.2,2.4-.3,4.1-.3h1.2v1.7h-1.2c-1,0-1.8,0-2.4.1s-1,.3-1.3.5c-.2.2-.4.6-.4,1s.2,1,.6,1.3c.4.3.9.5,1.5.5s1-.1,1.4-.4c.4-.2.7-.6,1-1,.2-.4.4-.9.4-1.5v-2.8c0-.8-.2-1.4-.5-1.7-.4-.4-.9-.5-1.8-.5s-1,0-1.5.2-1.1.3-1.7.6c-.3.1-.6.2-.8.1-.2,0-.4-.2-.5-.4s-.2-.4-.2-.7,0-.5.2-.7c.1-.2.3-.4.6-.5.7-.3,1.4-.5,2.1-.6.7-.1,1.3-.2,1.9-.2,1.2,0,2.1.2,2.8.5.7.4,1.3.9,1.7,1.6.4.7.6,1.6.6,2.7v5.8c0,.5-.1.9-.4,1.1s-.6.4-1,.4-.8-.1-1-.4-.4-.6-.4-1.1v-1.2h.2c-.1.6-.3,1-.7,1.5s-.7.7-1.2.9c-.5.2-1.1.3-1.7.3Z"/>
          <path class="cls-10" d="M619.4,465.2c-.5,0-.8-.1-1.1-.4-.3-.3-.4-.6-.4-1.1v-9.1c0-.5.1-.9.4-1.1.3-.3.6-.4,1.1-.4s.8.1,1.1.4.4.6.4,1.1v1.6l-.3-.6c.4-.8.9-1.5,1.6-1.9.7-.4,1.6-.7,2.5-.7s1.7.2,2.3.5c.6.4,1.1.9,1.4,1.6s.5,1.6.5,2.7v5.8c0,.5-.1.9-.4,1.1s-.6.4-1.1.4-.9-.1-1.1-.4c-.3-.3-.4-.6-.4-1.1v-5.7c0-.9-.2-1.6-.5-2-.3-.4-.9-.6-1.6-.6s-1.6.3-2.1.8-.8,1.3-.8,2.2v5.3c0,1-.5,1.5-1.5,1.5Z"/>
          <path class="cls-10" d="M636.5,465.2c-1,0-1.9-.2-2.7-.7-.8-.5-1.4-1.2-1.8-2.1-.4-.9-.6-2-.6-3.3s.2-2.3.6-3.3c.4-.9,1-1.6,1.8-2.1.8-.5,1.7-.7,2.7-.7s1.8.2,2.6.7c.7.5,1.2,1.1,1.5,1.9h-.3v-6.2c0-.5.1-.9.4-1.1s.6-.4,1.1-.4.9.1,1.1.4c.3.3.4.6.4,1.1v14.3c0,.5-.1.9-.4,1.1s-.6.4-1.1.4-.8-.1-1.1-.4-.4-.6-.4-1.1v-1.9l.3.7c-.2.8-.7,1.5-1.5,2-.7.5-1.6.7-2.6.7ZM637.3,463c.6,0,1.1-.1,1.6-.4s.8-.7,1-1.3.4-1.3.4-2.1c0-1.3-.3-2.2-.8-2.9s-1.3-.9-2.2-.9-1.1.1-1.6.4c-.4.3-.8.7-1,1.3-.2.6-.4,1.3-.4,2.1,0,1.3.3,2.2.8,2.9.5.6,1.3,1,2.2,1Z"/>
        </g>
        <g class="cls-9">
          <path class="cls-10" d="M307.5,498.3c-.5,0-.8-.1-1.1-.4s-.4-.6-.4-1.1v-13.4c0-.5.1-.9.4-1.1s.6-.4,1.1-.4.8.1,1.1.4.4.6.4,1.1v1.9l-.3-.7c.2-.8.7-1.5,1.5-2,.7-.5,1.6-.7,2.6-.7s1.9.2,2.7.7c.8.5,1.4,1.2,1.8,2.1.4.9.6,2,.6,3.3s-.2,2.3-.6,3.3c-.4.9-1,1.6-1.8,2.1s-1.7.7-2.7.7-1.8-.2-2.6-.7c-.7-.5-1.2-1.1-1.5-1.9h.3v5.4c0,.5-.1.9-.4,1.1s-.6.4-1.1.4ZM312,491.8c.6,0,1.1-.1,1.6-.4s.8-.7,1-1.3.4-1.3.4-2.1c0-1.3-.3-2.2-.8-2.9s-1.3-.9-2.2-.9-1.1.1-1.6.4c-.4.3-.8.7-1,1.3-.2.6-.4,1.3-.4,2.1,0,1.3.3,2.2.8,2.9.5.6,1.3,1,2.2,1Z"/>
          <path class="cls-10" d="M324.7,494c-1,0-1.8-.2-2.4-.5-.6-.4-1.1-.9-1.4-1.6s-.5-1.6-.5-2.7v-5.8c0-.5.1-.9.4-1.1.3-.2.6-.4,1.1-.4s.9.1,1.1.4c.3.2.4.6.4,1.1v5.9c0,.8.2,1.4.5,1.8.3.4.9.6,1.6.6s1.5-.3,2-.8c.5-.6.8-1.3.8-2.2v-5.3c0-.5.1-.9.4-1.1.3-.2.6-.4,1.1-.4s.9.1,1.1.4.4.6.4,1.1v9.1c0,1-.5,1.5-1.5,1.5s-.8-.1-1.1-.4c-.3-.3-.4-.6-.4-1.1v-1.8l.3.7c-.3.9-.8,1.5-1.5,2-.7.5-1.5.7-2.4.7Z"/>
          <path class="cls-10" d="M335.8,494c-.5,0-.8-.1-1.1-.4s-.4-.6-.4-1.1v-9.1c0-.5.1-.9.4-1.1s.6-.4,1.1-.4.8.1,1.1.4c.3.3.4.6.4,1.1v1.6l-.3-.6c.4-.8.9-1.5,1.6-1.9.7-.4,1.6-.7,2.5-.7s1.7.2,2.3.5c.6.4,1.1.9,1.4,1.6.3.7.5,1.6.5,2.7v5.8c0,.5-.1.9-.4,1.1s-.6.4-1.1.4-.9-.1-1.1-.4c-.3-.3-.4-.6-.4-1.1v-5.7c0-.9-.2-1.6-.5-2-.3-.4-.9-.6-1.6-.6s-1.6.3-2.1.8-.8,1.3-.8,2.2v5.3c0,1-.5,1.5-1.5,1.5Z"/>
          <path class="cls-10" d="M349.9,479.7c-.6,0-1-.1-1.3-.4-.3-.3-.5-.7-.5-1.2s.2-.9.5-1.2c.3-.3.7-.4,1.3-.4s1,.1,1.3.4c.3.3.5.7.5,1.2s-.2.9-.5,1.2c-.3.3-.7.4-1.3.4ZM349.9,494c-.5,0-.8-.1-1.1-.4s-.4-.7-.4-1.2v-8.8c0-.5.1-.9.4-1.2.3-.3.6-.4,1.1-.4s.9.1,1.1.4c.3.3.4.7.4,1.2v8.8c0,.5-.1.9-.4,1.2s-.6.4-1.1.4Z"/>
          <path class="cls-10" d="M358.8,494c-.7,0-1.4,0-2.2-.2-.8-.1-1.5-.4-2.1-.7-.3-.2-.4-.3-.5-.6s-.1-.4-.1-.6c0-.2.1-.4.2-.6.1-.2.3-.3.5-.3.2,0,.5,0,.7.1.6.3,1.2.5,1.8.6.6.1,1.1.2,1.7.2s1.3-.1,1.7-.4c.4-.3.6-.6.6-1s-.1-.7-.4-.9c-.2-.2-.6-.3-1.1-.4l-2.4-.5c-1-.2-1.7-.6-2.3-1.1-.5-.5-.8-1.2-.8-2.1s.2-1.4.6-2c.4-.6,1-1,1.8-1.3.8-.3,1.6-.5,2.6-.5s1.4,0,2,.2c.6.2,1.2.4,1.8.7.2.1.4.3.5.5,0,.2.1.4,0,.6,0,.2-.1.4-.3.6s-.3.3-.5.3-.5,0-.7-.1c-.5-.3-1-.4-1.4-.6-.5-.1-.9-.2-1.3-.2-.8,0-1.4.1-1.7.4-.4.3-.6.6-.6,1.1s.1.6.3.8c.2.2.6.4,1,.5l2.4.5c1,.2,1.8.5,2.4,1.1.5.5.8,1.2.8,2.1s-.5,2.1-1.4,2.7-2.1,1-3.6,1Z"/>
          <path class="cls-10" d="M367.7,494c-.5,0-.8-.1-1.1-.4s-.4-.6-.4-1.1v-14.3c0-.5.1-.9.4-1.1s.6-.4,1.1-.4.9.1,1.1.4.4.6.4,1.1v6.2h-.3c.4-.8.9-1.5,1.6-1.9.7-.4,1.6-.7,2.5-.7s1.7.2,2.3.5c.6.4,1.1.9,1.4,1.6.3.7.5,1.6.5,2.7v5.8c0,.5-.1.9-.4,1.1s-.6.4-1.1.4-.9-.1-1.1-.4c-.3-.3-.4-.6-.4-1.1v-5.7c0-.9-.2-1.6-.5-2-.3-.4-.9-.6-1.6-.6s-1.6.3-2.1.8-.8,1.3-.8,2.2v5.3c0,1-.5,1.5-1.5,1.5Z"/>
          <path class="cls-10" d="M381.8,494c-.5,0-.8-.1-1.1-.4-.3-.3-.4-.6-.4-1.1v-9.1c0-.5.1-.9.4-1.1.3-.3.6-.4,1.1-.4s.8.1,1.1.4.4.6.4,1.1v1.8l-.3-.7c.3-.8.8-1.4,1.5-1.9.7-.5,1.5-.7,2.4-.7s1.7.2,2.3.7,1,1.1,1.3,2.1h-.3c.3-.8.8-1.5,1.6-2,.7-.5,1.6-.7,2.5-.7s1.6.2,2.2.5c.6.4,1,.9,1.3,1.6s.4,1.6.4,2.7v5.8c0,.5-.1.9-.4,1.1-.3.3-.6.4-1.1.4s-.8-.1-1.1-.4c-.3-.3-.4-.6-.4-1.1v-5.7c0-.9-.1-1.6-.4-2s-.8-.6-1.5-.6-1.4.3-1.8.8c-.4.6-.7,1.3-.7,2.3v5.2c0,.5-.1.9-.4,1.1-.3.3-.6.4-1.1.4s-.9-.1-1.1-.4c-.3-.3-.4-.6-.4-1.1v-5.7c0-.9-.1-1.6-.4-2-.3-.4-.8-.6-1.5-.6s-1.4.3-1.8.8-.7,1.3-.7,2.3v5.2c0,1-.5,1.5-1.5,1.5Z"/>
          <path class="cls-10" d="M407.1,494c-1.3,0-2.5-.2-3.4-.7s-1.7-1.2-2.2-2.1-.8-2-.8-3.2.3-2.3.8-3.2,1.2-1.6,2.1-2.1c.9-.5,1.9-.8,3-.8s1.6.1,2.2.4c.7.3,1.2.7,1.7,1.2.5.5.8,1.1,1.1,1.9.2.7.4,1.5.4,2.5s-.1.5-.3.7c-.2.2-.5.2-.9.2h-7.7v-1.7h6.7l-.4.4c0-.7-.1-1.4-.3-1.8-.2-.5-.5-.9-.9-1.1s-.9-.4-1.5-.4-1.2.2-1.7.5c-.5.3-.8.8-1.1,1.3-.2.6-.4,1.2-.4,2v.2c0,1.3.3,2.3.9,2.9.6.6,1.5,1,2.7,1s.9,0,1.4-.2c.5-.1,1-.3,1.5-.5.3-.2.6-.3.9-.3.3,0,.5.1.6.3.2.2.2.4.3.6,0,.2,0,.5-.1.7s-.3.4-.6.6c-.6.4-1.2.6-1.9.8-.7.2-1.4.3-2,.3Z"/>
          <path class="cls-10" d="M415.8,494c-.5,0-.8-.1-1.1-.4s-.4-.6-.4-1.1v-9.1c0-.5.1-.9.4-1.1s.6-.4,1.1-.4.8.1,1.1.4c.3.3.4.6.4,1.1v1.6l-.3-.6c.4-.8.9-1.5,1.6-1.9.7-.4,1.6-.7,2.5-.7s1.7.2,2.3.5c.6.4,1.1.9,1.4,1.6.3.7.5,1.6.5,2.7v5.8c0,.5-.1.9-.4,1.1s-.6.4-1.1.4-.9-.1-1.1-.4c-.3-.3-.4-.6-.4-1.1v-5.7c0-.9-.2-1.6-.5-2-.3-.4-.9-.6-1.6-.6s-1.6.3-2.1.8-.8,1.3-.8,2.2v5.3c0,1-.5,1.5-1.5,1.5Z"/>
          <path class="cls-10" d="M433.7,494c-1,0-1.9-.2-2.6-.5s-1.2-.9-1.5-1.5c-.3-.7-.5-1.5-.5-2.5v-5.1h-1.2c-.4,0-.7,0-.9-.3-.2-.2-.3-.5-.3-.8s.1-.6.3-.8c.2-.2.5-.3.9-.3h1.2v-2.2c0-.5.1-.9.4-1.1.3-.3.6-.4,1.1-.4s.8.1,1.1.4c.3.3.4.6.4,1.1v2.2h2.5c.4,0,.7,0,.9.3.2.2.3.5.3.8s-.1.6-.3.8c-.2.2-.5.3-.9.3h-2.5v4.9c0,.8.2,1.3.5,1.7.3.4.9.6,1.6.6s.5,0,.7,0c.2,0,.4,0,.6,0,.2,0,.4,0,.5.2.1.1.2.4.2.8s0,.6-.2.9c-.1.2-.3.4-.6.5-.2,0-.5.1-.8.2-.3,0-.6,0-.9,0Z"/>
          <path class="cls-10" d="M441.9,494c-.7,0-1.4,0-2.2-.2-.8-.1-1.5-.4-2.1-.7-.3-.2-.4-.3-.5-.6s-.1-.4-.1-.6c0-.2.1-.4.2-.6.1-.2.3-.3.5-.3.2,0,.5,0,.7.1.6.3,1.2.5,1.8.6.6.1,1.1.2,1.7.2s1.3-.1,1.7-.4c.4-.3.6-.6.6-1s-.1-.7-.4-.9c-.2-.2-.6-.3-1.1-.4l-2.4-.5c-1-.2-1.7-.6-2.3-1.1-.5-.5-.8-1.2-.8-2.1s.2-1.4.6-2c.4-.6,1-1,1.8-1.3.8-.3,1.6-.5,2.6-.5s1.4,0,2,.2c.6.2,1.2.4,1.8.7.2.1.4.3.5.5,0,.2.1.4,0,.6,0,.2-.1.4-.3.6s-.3.3-.5.3-.5,0-.7-.1c-.5-.3-1-.4-1.4-.6-.5-.1-.9-.2-1.3-.2-.8,0-1.4.1-1.7.4-.4.3-.6.6-.6,1.1s.1.6.3.8c.2.2.6.4,1,.5l2.4.5c1,.2,1.8.5,2.4,1.1.5.5.8,1.2.8,2.1s-.5,2.1-1.4,2.7-2.1,1-3.6,1Z"/>
          <path class="cls-10" d="M461.2,494c-1,0-1.9-.2-2.6-.5s-1.2-.9-1.5-1.5c-.3-.7-.5-1.5-.5-2.5v-5.1h-1.2c-.4,0-.7,0-.9-.3-.2-.2-.3-.5-.3-.8s.1-.6.3-.8c.2-.2.5-.3.9-.3h1.2v-2.2c0-.5.1-.9.4-1.1.3-.3.6-.4,1.1-.4s.8.1,1.1.4c.3.3.4.6.4,1.1v2.2h2.5c.4,0,.7,0,.9.3.2.2.3.5.3.8s-.1.6-.3.8c-.2.2-.5.3-.9.3h-2.5v4.9c0,.8.2,1.3.5,1.7.3.4.9.6,1.6.6s.5,0,.7,0c.2,0,.4,0,.6,0,.2,0,.4,0,.5.2.1.1.2.4.2.8s0,.6-.2.9c-.1.2-.3.4-.6.5-.2,0-.5.1-.8.2-.3,0-.6,0-.9,0Z"/>
          <path class="cls-10" d="M470.2,494c-1.2,0-2.3-.2-3.2-.7-.9-.5-1.6-1.2-2.1-2.1s-.7-2-.7-3.3.1-1.8.4-2.5c.3-.7.7-1.4,1.2-1.9s1.2-.9,1.9-1.2,1.6-.4,2.5-.4,2.3.2,3.2.7c.9.5,1.6,1.2,2.1,2.1.5.9.7,2,.7,3.2s-.1,1.8-.4,2.5c-.3.8-.7,1.4-1.2,1.9-.5.5-1.2.9-1.9,1.2-.7.3-1.6.4-2.5.4ZM470.2,491.8c.6,0,1.1-.1,1.6-.4.4-.3.8-.7,1-1.3.2-.6.4-1.3.4-2.1,0-1.3-.3-2.2-.8-2.9s-1.3-.9-2.2-.9-1.1.1-1.6.4c-.4.3-.8.7-1,1.3-.2.6-.4,1.3-.4,2.1,0,1.3.3,2.2.8,2.9.5.6,1.3,1,2.2,1Z"/>
          <path class="cls-10" d="M489.5,494c-.7,0-1.4,0-2.2-.2-.8-.1-1.5-.4-2.1-.7-.3-.2-.4-.3-.5-.6s-.1-.4-.1-.6c0-.2.1-.4.2-.6.1-.2.3-.3.5-.3.2,0,.5,0,.7.1.6.3,1.2.5,1.8.6.6.1,1.1.2,1.7.2s1.3-.1,1.7-.4c.4-.3.6-.6.6-1s-.1-.7-.4-.9c-.2-.2-.6-.3-1.1-.4l-2.4-.5c-1-.2-1.7-.6-2.3-1.1-.5-.5-.8-1.2-.8-2.1s.2-1.4.6-2c.4-.6,1-1,1.8-1.3.8-.3,1.6-.5,2.6-.5s1.4,0,2,.2c.6.2,1.2.4,1.8.7.2.1.4.3.5.5,0,.2.1.4,0,.6,0,.2-.1.4-.3.6s-.3.3-.5.3-.5,0-.7-.1c-.5-.3-1-.4-1.4-.6-.5-.1-.9-.2-1.3-.2-.8,0-1.4.1-1.7.4-.4.3-.6.6-.6,1.1s.1.6.3.8c.2.2.6.4,1,.5l2.4.5c1,.2,1.8.5,2.4,1.1.5.5.8,1.2.8,2.1s-.5,2.1-1.4,2.7-2.1,1-3.6,1Z"/>
          <path class="cls-10" d="M498.4,494c-.5,0-.8-.1-1.1-.4s-.4-.6-.4-1.1v-14.3c0-.5.1-.9.4-1.1s.6-.4,1.1-.4.9.1,1.1.4.4.6.4,1.1v6.2h-.3c.4-.8.9-1.5,1.6-1.9.7-.4,1.6-.7,2.5-.7s1.7.2,2.3.5c.6.4,1.1.9,1.4,1.6.3.7.5,1.6.5,2.7v5.8c0,.5-.1.9-.4,1.1s-.6.4-1.1.4-.9-.1-1.1-.4c-.3-.3-.4-.6-.4-1.1v-5.7c0-.9-.2-1.6-.5-2-.3-.4-.9-.6-1.6-.6s-1.6.3-2.1.8-.8,1.3-.8,2.2v5.3c0,1-.5,1.5-1.5,1.5Z"/>
          <path class="cls-10" d="M514.8,494c-.8,0-1.6-.2-2.3-.5-.7-.3-1.2-.8-1.6-1.3-.4-.6-.6-1.2-.6-1.9s.2-1.5.7-2.1c.4-.5,1.2-.9,2.2-1.1,1-.2,2.4-.3,4.1-.3h1.2v1.7h-1.2c-1,0-1.8,0-2.4.1s-1,.3-1.3.5c-.2.2-.4.6-.4,1s.2,1,.6,1.3c.4.3.9.5,1.5.5s1-.1,1.4-.4c.4-.2.7-.6,1-1,.2-.4.4-.9.4-1.5v-2.8c0-.8-.2-1.4-.5-1.7-.4-.4-.9-.5-1.8-.5s-1,0-1.5.2c-.5.1-1.1.3-1.7.6-.3.1-.6.2-.8.1-.2,0-.4-.2-.5-.4s-.2-.4-.2-.7,0-.5.2-.7c.1-.2.3-.4.6-.5.7-.3,1.4-.5,2.1-.6.7-.1,1.3-.2,1.9-.2,1.2,0,2.1.2,2.8.5.7.4,1.3.9,1.7,1.6s.6,1.6.6,2.7v5.8c0,.5-.1.9-.4,1.1s-.6.4-1,.4-.8-.1-1-.4-.4-.6-.4-1.1v-1.2h.2c-.1.6-.3,1-.7,1.5s-.7.7-1.2.9c-.5.2-1.1.3-1.7.3Z"/>
          <path class="cls-10" d="M525.6,498.3c-.5,0-.8-.1-1.1-.4s-.4-.6-.4-1.1v-13.4c0-.5.1-.9.4-1.1s.6-.4,1.1-.4.8.1,1.1.4.4.6.4,1.1v1.9l-.3-.7c.2-.8.7-1.5,1.5-2,.7-.5,1.6-.7,2.6-.7s1.9.2,2.7.7c.8.5,1.4,1.2,1.8,2.1s.6,2,.6,3.3-.2,2.3-.6,3.3-1,1.6-1.8,2.1-1.7.7-2.7.7-1.8-.2-2.6-.7c-.7-.5-1.2-1.1-1.5-1.9h.3v5.4c0,.5-.1.9-.4,1.1s-.6.4-1.1.4ZM530,491.8c.6,0,1.1-.1,1.6-.4s.8-.7,1-1.3.4-1.3.4-2.1c0-1.3-.3-2.2-.8-2.9-.5-.6-1.3-.9-2.2-.9s-1.1.1-1.6.4c-.4.3-.8.7-1,1.3-.2.6-.4,1.3-.4,2.1,0,1.3.3,2.2.8,2.9.5.6,1.3,1,2.2,1Z"/>
          <path class="cls-10" d="M544.3,494c-1.3,0-2.5-.2-3.4-.7s-1.7-1.2-2.2-2.1c-.5-.9-.8-2-.8-3.2s.3-2.3.8-3.2,1.2-1.6,2.1-2.1c.9-.5,1.9-.8,3-.8s1.6.1,2.2.4c.7.3,1.2.7,1.7,1.2.5.5.8,1.1,1.1,1.9.2.7.4,1.5.4,2.5s-.1.5-.3.7c-.2.2-.5.2-.9.2h-7.7v-1.7h6.7l-.4.4c0-.7-.1-1.4-.3-1.8-.2-.5-.5-.9-.9-1.1s-.9-.4-1.5-.4-1.2.2-1.7.5c-.5.3-.8.8-1.1,1.3-.2.6-.4,1.2-.4,2v.2c0,1.3.3,2.3.9,2.9.6.6,1.5,1,2.7,1s.9,0,1.4-.2c.5-.1,1-.3,1.5-.5.3-.2.6-.3.9-.3.3,0,.5.1.6.3.2.2.2.4.3.6,0,.2,0,.5-.1.7s-.3.4-.6.6c-.6.4-1.2.6-1.9.8s-1.4.3-2,.3Z"/>
          <path class="cls-10" d="M564.8,494c-1,0-1.9-.2-2.6-.7s-1.2-1.2-1.5-2l.3-.6v1.8c0,.5-.1.9-.4,1.1s-.6.4-1.1.4-.8-.1-1.1-.4-.4-.6-.4-1.1v-14.3c0-.5.1-.9.4-1.1s.6-.4,1.1-.4.9.1,1.1.4.4.6.4,1.1v6.2h-.3c.3-.8.8-1.4,1.5-1.9.7-.5,1.6-.7,2.6-.7s1.9.2,2.7.7c.8.5,1.4,1.2,1.8,2.1.4.9.6,2,.6,3.3s-.2,2.3-.6,3.3c-.4.9-1,1.6-1.8,2.1-.8.5-1.7.7-2.7.7ZM563.9,491.8c.6,0,1.1-.1,1.6-.4s.8-.7,1-1.3.4-1.3.4-2.1c0-1.3-.3-2.2-.8-2.9-.5-.6-1.3-.9-2.2-.9s-1.1.1-1.6.4c-.4.3-.8.7-1,1.3-.2.6-.4,1.3-.4,2.1,0,1.3.3,2.2.8,2.9.5.6,1.3,1,2.2,1Z"/>
          <path class="cls-10" d="M578.2,494c-1.3,0-2.5-.2-3.4-.7-1-.5-1.7-1.2-2.2-2.1s-.8-2-.8-3.2.3-2.3.8-3.2,1.2-1.6,2.1-2.1c.9-.5,1.9-.8,3-.8s1.6.1,2.2.4c.7.3,1.2.7,1.7,1.2.5.5.8,1.1,1.1,1.9.2.7.4,1.5.4,2.5s-.1.5-.3.7c-.2.2-.5.2-.9.2h-7.7v-1.7h6.7l-.4.4c0-.7-.1-1.4-.3-1.8-.2-.5-.5-.9-.9-1.1s-.9-.4-1.5-.4-1.2.2-1.7.5c-.5.3-.8.8-1.1,1.3-.2.6-.4,1.2-.4,2v.2c0,1.3.3,2.3.9,2.9.6.6,1.5,1,2.7,1s.9,0,1.4-.2c.5-.1,1-.3,1.5-.5.3-.2.6-.3.9-.3.3,0,.5.1.6.3.2.2.2.4.3.6,0,.2,0,.5-.1.7-.1.2-.3.4-.6.6-.6.4-1.2.6-1.9.8-.7.2-1.4.3-2,.3Z"/>
          <path class="cls-10" d="M586.9,494c-.5,0-.8-.1-1.1-.4s-.4-.6-.4-1.1v-14.3c0-.5.1-.9.4-1.1s.6-.4,1.1-.4.9.1,1.1.4c.3.3.4.6.4,1.1v6.2h-.3c.4-.8.9-1.5,1.6-1.9.7-.4,1.6-.7,2.5-.7s1.7.2,2.3.5c.6.4,1.1.9,1.4,1.6s.5,1.6.5,2.7v5.8c0,.5-.1.9-.4,1.1s-.6.4-1.1.4-.9-.1-1.1-.4c-.3-.3-.4-.6-.4-1.1v-5.7c0-.9-.2-1.6-.5-2-.3-.4-.9-.6-1.6-.6s-1.6.3-2.1.8c-.5.6-.8,1.3-.8,2.2v5.3c0,1-.5,1.5-1.5,1.5Z"/>
          <path class="cls-10" d="M603.3,494c-.8,0-1.6-.2-2.3-.5s-1.2-.8-1.6-1.3c-.4-.6-.6-1.2-.6-1.9s.2-1.5.7-2.1c.4-.5,1.2-.9,2.2-1.1,1-.2,2.4-.3,4.1-.3h1.2v1.7h-1.2c-1,0-1.8,0-2.4.1s-1,.3-1.3.5c-.2.2-.4.6-.4,1s.2,1,.6,1.3c.4.3.9.5,1.5.5s1-.1,1.4-.4c.4-.2.7-.6,1-1,.2-.4.4-.9.4-1.5v-2.8c0-.8-.2-1.4-.5-1.7-.4-.4-.9-.5-1.8-.5s-1,0-1.5.2c-.5.1-1.1.3-1.7.6-.3.1-.6.2-.8.1-.2,0-.4-.2-.5-.4-.1-.2-.2-.4-.2-.7s0-.5.2-.7c.1-.2.3-.4.6-.5.7-.3,1.4-.5,2.1-.6.7-.1,1.3-.2,1.9-.2,1.2,0,2.1.2,2.8.5.7.4,1.3.9,1.7,1.6s.6,1.6.6,2.7v5.8c0,.5-.1.9-.4,1.1-.2.3-.6.4-1,.4s-.8-.1-1-.4-.4-.6-.4-1.1v-1.2h.2c-.1.6-.3,1-.7,1.5-.3.4-.7.7-1.2.9-.5.2-1.1.3-1.7.3Z"/>
          <path class="cls-10" d="M617.2,494c-.4,0-.7-.1-1-.3s-.5-.5-.7-1l-3.8-8.9c-.1-.4-.2-.7-.2-1,0-.3.2-.5.4-.7.2-.2.6-.3,1-.3s.7,0,.9.3c.2.2.4.5.6.9l3.2,8.1h-.7l3.3-8.1c.2-.4.4-.8.6-.9.2-.2.5-.3.9-.3s.6,0,.8.3c.2.2.3.4.4.7,0,.3,0,.6-.2,1l-3.9,8.9c-.2.4-.4.8-.7,1s-.7.3-1.1.3Z"/>
          <path class="cls-10" d="M626.6,479.7c-.6,0-1-.1-1.3-.4-.3-.3-.5-.7-.5-1.2s.2-.9.5-1.2c.3-.3.7-.4,1.3-.4s1,.1,1.3.4c.3.3.5.7.5,1.2s-.2.9-.5,1.2c-.3.3-.7.4-1.3.4ZM626.6,494c-.5,0-.8-.1-1.1-.4-.3-.3-.4-.7-.4-1.2v-8.8c0-.5.1-.9.4-1.2.3-.3.6-.4,1.1-.4s.9.1,1.1.4c.3.3.4.7.4,1.2v8.8c0,.5-.1.9-.4,1.2s-.6.4-1.1.4Z"/>
          <path class="cls-10" d="M636.6,494c-1.2,0-2.3-.2-3.2-.7-.9-.5-1.6-1.2-2.1-2.1-.5-.9-.7-2-.7-3.3s.1-1.8.4-2.5c.3-.7.7-1.4,1.2-1.9s1.2-.9,1.9-1.2c.7-.3,1.6-.4,2.5-.4s2.3.2,3.2.7c.9.5,1.6,1.2,2.1,2.1s.7,2,.7,3.2-.1,1.8-.4,2.5c-.3.8-.7,1.4-1.2,1.9-.5.5-1.2.9-1.9,1.2-.7.3-1.6.4-2.5.4ZM636.6,491.8c.6,0,1.1-.1,1.6-.4s.8-.7,1-1.3.4-1.3.4-2.1c0-1.3-.3-2.2-.8-2.9s-1.3-.9-2.2-.9-1.1.1-1.6.4c-.4.3-.8.7-1,1.3-.2.6-.4,1.3-.4,2.1,0,1.3.3,2.2.8,2.9.5.6,1.3,1,2.2,1Z"/>
          <path class="cls-10" d="M646.6,494c-.5,0-.9-.1-1.1-.4s-.4-.6-.4-1.1v-9.1c0-.5.1-.9.4-1.1.3-.3.6-.4,1.1-.4s.8.1,1.1.4.4.6.4,1.1v1.5h-.2c.2-1,.7-1.7,1.3-2.2.7-.5,1.5-.8,2.6-.9.3,0,.6,0,.8.3.2.2.3.5.3.9,0,.4,0,.7-.3,1-.2.2-.5.4-1,.4h-.5c-1,.1-1.7.4-2.2.9-.5.5-.7,1.2-.7,2.1v5c0,.5-.1.9-.4,1.1s-.6.4-1.1.4Z"/>
          <path class="cls-10" d="M655.4,493.9c-.5,0-1-.2-1.3-.5-.3-.3-.5-.8-.5-1.3s.2-.9.5-1.3.8-.5,1.3-.5,1,.2,1.3.5c.3.3.5.7.5,1.3s-.2,1-.5,1.3c-.3.3-.7.5-1.3.5Z"/>
        </g>
      </g>
      <g class="cls-9">
        <g class="cls-9">
          <path class="cls-8" d="M351.5,751.1c-1.5,0-2.9-.4-4-1.1-1.2-.7-2.1-1.8-2.7-3.2-.6-1.4-1-3-1-4.9s.3-3.5,1-4.9c.6-1.4,1.6-2.4,2.7-3.1,1.2-.7,2.5-1.1,4-1.1s2.7.4,3.8,1.1c1.1.7,1.8,1.7,2.2,2.8h-.4v-9.4c0-.7.2-1.3.6-1.7.4-.4.9-.6,1.7-.6s1.3.2,1.7.6.6.9.6,1.7v21.4c0,.7-.2,1.3-.6,1.7-.4.4-.9.6-1.7.6s-1.3-.2-1.7-.6c-.4-.4-.6-1-.6-1.7v-2.8l.4,1.1c-.4,1.2-1.1,2.2-2.2,3-1.1.7-2.4,1.1-3.9,1.1ZM352.8,747.6c.9,0,1.7-.2,2.3-.6.7-.4,1.2-1.1,1.6-1.9s.6-1.9.6-3.2c0-1.9-.4-3.4-1.2-4.3-.8-.9-1.9-1.4-3.2-1.4s-1.7.2-2.3.6-1.2,1.1-1.6,1.9-.6,1.9-.6,3.2c0,1.9.4,3.3,1.2,4.3.8,1,1.9,1.5,3.2,1.5Z"/>
          <path class="cls-8" d="M374.4,751.1c-1.8,0-3.4-.4-4.8-1.1-1.3-.7-2.4-1.8-3.1-3.2-.7-1.4-1.1-3-1.1-4.9s.2-2.7.6-3.8c.4-1.1,1-2.1,1.8-2.9.8-.8,1.7-1.4,2.8-1.8,1.1-.4,2.3-.6,3.7-.6s3.4.4,4.8,1.1c1.3.7,2.4,1.8,3.1,3.2.7,1.4,1.1,3,1.1,4.9s-.2,2.7-.6,3.8-1,2.1-1.8,2.9c-.8.8-1.7,1.4-2.8,1.8-1.1.4-2.3.6-3.7.6ZM374.4,747.6c.9,0,1.7-.2,2.3-.6.7-.4,1.2-1.1,1.6-1.9s.6-1.9.6-3.2c0-1.9-.4-3.4-1.2-4.3-.8-.9-1.9-1.4-3.2-1.4s-1.7.2-2.3.6-1.2,1.1-1.6,1.9-.6,1.9-.6,3.2c0,1.9.4,3.3,1.2,4.3.8,1,1.9,1.5,3.2,1.5Z"/>
          <path class="cls-8" d="M389.3,757.5c-.7,0-1.3-.2-1.7-.6-.4-.4-.6-.9-.6-1.7v-20.1c0-.7.2-1.3.6-1.7.4-.4.9-.6,1.6-.6s1.3.2,1.7.6c.4.4.6.9.6,1.7v2.8l-.4-1.1c.4-1.2,1.1-2.2,2.2-3,1.1-.7,2.4-1.1,3.9-1.1s2.9.4,4,1.1c1.2.7,2.1,1.8,2.7,3.1.6,1.4,1,3,1,4.9s-.3,3.5-1,4.9c-.6,1.4-1.5,2.4-2.7,3.2s-2.5,1.1-4.1,1.1-2.7-.4-3.9-1.1c-1.1-.7-1.8-1.7-2.2-2.9h.4v8.1c0,.7-.2,1.3-.6,1.7-.4.4-1,.6-1.7.6ZM396,747.6c.9,0,1.7-.2,2.3-.6s1.2-1.1,1.6-1.9c.4-.9.6-1.9.6-3.2,0-1.9-.4-3.4-1.2-4.3-.8-.9-1.9-1.4-3.2-1.4s-1.7.2-2.3.6c-.7.4-1.2,1.1-1.6,1.9-.4.9-.6,1.9-.6,3.2,0,1.9.4,3.3,1.2,4.3.8,1,1.9,1.5,3.2,1.5Z"/>
          <path class="cls-8" d="M414.5,751.1c-1.3,0-2.4-.2-3.4-.7-1-.5-1.8-1.2-2.3-2-.6-.8-.8-1.8-.8-2.8s.3-2.3,1-3.1c.7-.8,1.8-1.3,3.3-1.6s3.5-.5,6.1-.5h1.8v2.6h-1.8c-1.5,0-2.7,0-3.6.2-.9.1-1.5.4-1.9.7-.4.3-.6.8-.6,1.5s.3,1.4.8,1.9c.6.5,1.3.8,2.3.8s1.5-.2,2.1-.6c.6-.4,1.1-.9,1.5-1.5.4-.6.5-1.4.5-2.2v-4.1c0-1.2-.3-2.1-.8-2.6-.5-.5-1.4-.8-2.7-.8s-1.4,0-2.2.3c-.8.2-1.7.5-2.5.9-.5.2-.9.3-1.2.2-.3,0-.6-.3-.8-.6-.2-.3-.3-.6-.3-1s0-.7.3-1.1c.2-.3.5-.6,1-.8,1.1-.5,2.2-.8,3.2-1,1-.2,1.9-.3,2.8-.3,1.7,0,3.2.3,4.3.8,1.1.5,1.9,1.3,2.5,2.4.6,1.1.8,2.4.8,4.1v8.6c0,.7-.2,1.3-.5,1.7-.4.4-.9.6-1.5.6s-1.2-.2-1.6-.6c-.4-.4-.6-1-.6-1.7v-1.7h.3c-.2.8-.5,1.6-1,2.2-.5.6-1.1,1.1-1.9,1.4-.7.3-1.6.5-2.6.5Z"/>
          <path class="cls-8" d="M430.7,751c-.7,0-1.3-.2-1.7-.6-.4-.4-.6-1-.6-1.7v-13.6c0-.7.2-1.3.6-1.7.4-.4.9-.6,1.6-.6s1.2.2,1.6.6c.4.4.6.9.6,1.7v2.6l-.4-1.1c.5-1.2,1.2-2.1,2.2-2.8,1-.7,2.2-1,3.6-1s2.6.3,3.5,1,1.5,1.7,1.9,3.1h-.5c.5-1.3,1.3-2.3,2.4-3,1.1-.7,2.4-1.1,3.8-1.1s2.5.3,3.3.8c.9.5,1.5,1.3,2,2.4.4,1.1.6,2.4.6,4.1v8.7c0,.7-.2,1.3-.6,1.7-.4.4-1,.6-1.7.6s-1.3-.2-1.7-.6c-.4-.4-.6-1-.6-1.7v-8.5c0-1.3-.2-2.3-.7-3-.4-.6-1.2-.9-2.2-.9s-2.1.4-2.8,1.2c-.7.8-1,2-1,3.4v7.7c0,.7-.2,1.3-.6,1.7-.4.4-.9.6-1.7.6s-1.3-.2-1.7-.6c-.4-.4-.6-1-.6-1.7v-8.5c0-1.3-.2-2.3-.7-3-.4-.6-1.2-.9-2.2-.9s-2.1.4-2.8,1.2-1,2-1,3.4v7.7c0,1.5-.8,2.3-2.3,2.3Z"/>
          <path class="cls-8" d="M462.2,729.5c-.8,0-1.5-.2-2-.6-.5-.4-.7-1-.7-1.7s.2-1.4.7-1.8c.5-.4,1.1-.6,2-.6s1.5.2,2,.6.7,1,.7,1.8-.2,1.3-.7,1.7-1.1.6-2,.6ZM462.2,751c-.7,0-1.3-.2-1.7-.6-.4-.4-.6-1-.6-1.8v-13.2c0-.8.2-1.4.6-1.8.4-.4.9-.6,1.7-.6s1.3.2,1.7.6.6,1,.6,1.8v13.2c0,.8-.2,1.4-.6,1.8-.4.4-.9.6-1.7.6Z"/>
          <path class="cls-8" d="M471.4,751c-.7,0-1.3-.2-1.7-.6-.4-.4-.6-1-.6-1.7v-13.6c0-.7.2-1.3.6-1.7.4-.4.9-.6,1.6-.6s1.2.2,1.6.6c.4.4.6.9.6,1.7v2.4l-.4-.9c.5-1.3,1.4-2.2,2.5-2.9,1.1-.7,2.4-1,3.8-1s2.6.3,3.5.8c.9.5,1.6,1.3,2.1,2.4.5,1.1.7,2.4.7,4.1v8.7c0,.7-.2,1.3-.6,1.7-.4.4-.9.6-1.7.6s-1.3-.2-1.7-.6c-.4-.4-.6-1-.6-1.7v-8.5c0-1.4-.3-2.4-.8-3-.5-.6-1.3-.9-2.4-.9s-2.4.4-3.2,1.2-1.2,1.9-1.2,3.3v7.9c0,1.5-.8,2.3-2.3,2.3Z"/>
          <path class="cls-8" d="M502.2,751c-.7,0-1.3-.2-1.7-.6-.4-.4-.6-1-.6-1.7v-13.6c0-.7.2-1.3.6-1.7.4-.4.9-.6,1.6-.6s1.2.2,1.6.6c.4.4.6.9.6,1.7v2.3h-.4c.3-1.4,1-2.5,2-3.3,1-.7,2.3-1.2,3.9-1.3.5,0,.9,0,1.2.4.3.3.5.8.5,1.4,0,.6,0,1.1-.4,1.5-.3.4-.8.6-1.5.7h-.8c-1.5.2-2.6.7-3.3,1.4-.7.8-1.1,1.8-1.1,3.2v7.5c0,.7-.2,1.3-.6,1.7-.4.4-.9.6-1.7.6Z"/>
          <path class="cls-8" d="M522.4,751.1c-2,0-3.7-.4-5.1-1.1-1.4-.7-2.6-1.8-3.3-3.2-.8-1.4-1.2-3-1.2-4.9s.4-3.4,1.1-4.8,1.8-2.4,3.1-3.2c1.3-.8,2.8-1.2,4.6-1.2s2.4.2,3.4.6c1,.4,1.8,1,2.6,1.8.7.8,1.2,1.7,1.6,2.8.4,1.1.6,2.3.6,3.7s-.2.8-.5,1c-.3.2-.7.3-1.3.3h-11.6v-2.6h10.1l-.6.5c0-1.1-.2-2-.5-2.8-.3-.7-.8-1.3-1.4-1.7-.6-.4-1.4-.6-2.3-.6s-1.9.2-2.6.7-1.2,1.1-1.6,2-.6,1.9-.6,3v.3c0,2,.5,3.4,1.4,4.4.9,1,2.3,1.5,4.1,1.5s1.3,0,2.1-.2c.8-.2,1.5-.4,2.2-.8.5-.3.9-.4,1.3-.4.4,0,.7.2.9.4.2.2.4.5.4.9,0,.3,0,.7-.2,1.1-.2.4-.5.7-.9.9-.8.5-1.8.9-2.9,1.2-1.1.3-2.1.4-3,.4Z"/>
          <path class="cls-8" d="M539.3,751.1c-2,0-3.5-.6-4.5-1.7s-1.5-2.8-1.5-5v-17c0-.7.2-1.3.6-1.7s.9-.6,1.7-.6,1.3.2,1.7.6c.4.4.6.9.6,1.7v16.8c0,1.1.2,1.9.7,2.4s1.1.8,2,.8.4,0,.5,0c.2,0,.3,0,.5,0,.3,0,.6,0,.7.3.1.2.2.7.2,1.4s-.1,1.1-.4,1.4c-.2.3-.6.5-1.2.6-.2,0-.5,0-.8,0-.3,0-.5,0-.8,0Z"/>
          <path class="cls-8" d="M553.2,751.1c-2,0-3.7-.4-5.1-1.1-1.4-.7-2.6-1.8-3.3-3.2-.8-1.4-1.2-3-1.2-4.9s.4-3.4,1.1-4.8,1.8-2.4,3.1-3.2c1.3-.8,2.8-1.2,4.6-1.2s2.4.2,3.4.6c1,.4,1.8,1,2.6,1.8.7.8,1.2,1.7,1.6,2.8.4,1.1.6,2.3.6,3.7s-.2.8-.5,1c-.3.2-.7.3-1.3.3h-11.6v-2.6h10.1l-.6.5c0-1.1-.2-2-.5-2.8-.3-.7-.8-1.3-1.4-1.7-.6-.4-1.4-.6-2.3-.6s-1.9.2-2.6.7-1.2,1.1-1.6,2-.6,1.9-.6,3v.3c0,2,.5,3.4,1.4,4.4.9,1,2.3,1.5,4.1,1.5s1.3,0,2.1-.2c.8-.2,1.5-.4,2.2-.8.5-.3.9-.4,1.3-.4.4,0,.7.2.9.4.2.2.4.5.4.9,0,.3,0,.7-.2,1.1-.2.4-.5.7-.9.9-.8.5-1.8.9-2.9,1.2-1.1.3-2.1.4-3,.4Z"/>
          <path class="cls-8" d="M569.9,751.1c-1.3,0-2.4-.2-3.4-.7-1-.5-1.8-1.2-2.3-2-.6-.8-.8-1.8-.8-2.8s.3-2.3,1-3.1c.7-.8,1.8-1.3,3.3-1.6,1.5-.3,3.5-.5,6.1-.5h1.8v2.6h-1.8c-1.5,0-2.7,0-3.6.2-.9.1-1.5.4-1.9.7s-.6.8-.6,1.5.3,1.4.8,1.9c.6.5,1.3.8,2.3.8s1.5-.2,2.1-.6c.6-.4,1.1-.9,1.5-1.5.4-.6.5-1.4.5-2.2v-4.1c0-1.2-.3-2.1-.8-2.6s-1.4-.8-2.7-.8-1.4,0-2.2.3c-.8.2-1.7.5-2.5.9-.5.2-.9.3-1.2.2-.3,0-.6-.3-.8-.6-.2-.3-.3-.6-.3-1s0-.7.3-1.1.5-.6,1-.8c1.1-.5,2.2-.8,3.2-1,1-.2,1.9-.3,2.8-.3,1.7,0,3.2.3,4.3.8,1.1.5,2,1.3,2.5,2.4.6,1.1.8,2.4.8,4.1v8.6c0,.7-.2,1.3-.5,1.7-.4.4-.9.6-1.5.6s-1.2-.2-1.6-.6c-.4-.4-.6-1-.6-1.7v-1.7h.3c-.2.8-.5,1.6-1,2.2-.5.6-1.1,1.1-1.9,1.4-.7.3-1.6.5-2.6.5Z"/>
          <path class="cls-8" d="M590.2,751.1c-1,0-2.1-.1-3.3-.3s-2.2-.6-3.1-1.1c-.4-.2-.7-.5-.8-.8s-.2-.6-.2-1c0-.3.2-.6.4-.8.2-.2.5-.4.8-.5.3,0,.7,0,1.1.2,1,.5,1.9.8,2.7,1,.8.2,1.7.3,2.5.3s2-.2,2.6-.6c.6-.4.8-.9.8-1.6s-.2-1-.6-1.3c-.4-.3-.9-.5-1.7-.7l-3.6-.7c-1.5-.3-2.6-.8-3.4-1.6-.8-.8-1.2-1.8-1.2-3.1s.3-2.1,1-3c.6-.8,1.5-1.5,2.6-1.9,1.1-.5,2.4-.7,3.9-.7s2,.1,3,.3c.9.2,1.8.6,2.7,1.1.4.2.6.4.7.8s.2.6,0,1c0,.3-.2.6-.4.9-.2.3-.5.4-.8.5s-.7,0-1.1-.2c-.7-.4-1.5-.7-2.1-.8-.7-.2-1.3-.3-2-.3-1.2,0-2,.2-2.6.6-.6.4-.8.9-.8,1.6s.2.9.5,1.3c.3.3.9.6,1.5.7l3.6.7c1.6.3,2.7.8,3.5,1.6.8.8,1.2,1.8,1.2,3.1s-.7,3.1-2.1,4.1-3.2,1.5-5.5,1.5Z"/>
          <path class="cls-8" d="M610,751.1c-2,0-3.7-.4-5.1-1.1-1.4-.7-2.6-1.8-3.3-3.2-.8-1.4-1.2-3-1.2-4.9s.4-3.4,1.1-4.8,1.8-2.4,3.1-3.2c1.3-.8,2.8-1.2,4.6-1.2s2.4.2,3.4.6c1,.4,1.8,1,2.6,1.8.7.8,1.2,1.7,1.6,2.8.4,1.1.6,2.3.6,3.7s-.2.8-.5,1c-.3.2-.7.3-1.3.3h-11.6v-2.6h10.1l-.6.5c0-1.1-.2-2-.5-2.8-.3-.7-.8-1.3-1.4-1.7-.6-.4-1.4-.6-2.3-.6s-1.9.2-2.6.7-1.2,1.1-1.6,2-.6,1.9-.6,3v.3c0,2,.5,3.4,1.4,4.4.9,1,2.3,1.5,4.1,1.5s1.3,0,2.1-.2c.8-.2,1.5-.4,2.2-.8.5-.3.9-.4,1.3-.4.4,0,.7.2.9.4.2.2.4.5.4.9,0,.3,0,.7-.2,1.1-.2.4-.5.7-.9.9-.8.5-1.8.9-2.9,1.2-1.1.3-2.1.4-3,.4Z"/>
        </g>
      </g>
      <rect class="cls-1" x="211.4" y="819.4" width="531.2" height="105.5" rx="28.3" ry="28.3"/>
      <g class="cls-9">
        <g class="cls-9">
          <path class="cls-8" d="M389,882.8c-.7,0-1.3-.2-1.7-.6-.4-.4-.6-1-.6-1.7v-12.2h-1.7c-.6,0-1-.1-1.3-.5-.3-.3-.5-.7-.5-1.2s.2-1,.5-1.3c.3-.3.8-.4,1.3-.4h3l-1.3,1.2v-1.2c0-2.5.6-4.3,1.9-5.6,1.2-1.2,3-2,5.4-2.2h1.2c.5-.2.9,0,1.2.1.3.2.5.5.6.8,0,.3.1.7,0,1,0,.3-.2.6-.5.9s-.5.4-.9.4h-.5c-1.4.1-2.4.5-3,1.1s-.9,1.5-.9,2.7v1.3l-.6-.6h3.6c.6,0,1,.1,1.3.4.3.3.5.7.5,1.3s-.2.9-.5,1.2c-.3.3-.8.5-1.3.5h-3.1v12.2c0,1.5-.7,2.3-2.2,2.3ZM404.7,882.9c-2,0-3.5-.6-4.5-1.7s-1.5-2.8-1.5-5v-17c0-.7.2-1.3.6-1.7.4-.4.9-.6,1.7-.6s1.3.2,1.7.6.6.9.6,1.7v16.8c0,1.1.2,1.9.7,2.4s1.1.8,2,.8.4,0,.5,0c.2,0,.3,0,.5,0,.3,0,.6,0,.7.3.1.2.2.7.2,1.4s-.1,1.1-.4,1.4c-.2.3-.6.5-1.2.6-.2,0-.5,0-.8,0-.3,0-.5,0-.8,0Z"/>
          <path class="cls-8" d="M418,882.9c-1.8,0-3.4-.4-4.8-1.1-1.3-.7-2.4-1.8-3.1-3.2-.7-1.4-1.1-3-1.1-4.9s.2-2.7.6-3.8c.4-1.1,1-2.1,1.8-2.9.8-.8,1.7-1.4,2.8-1.8,1.1-.4,2.3-.6,3.7-.6s3.4.4,4.8,1.1c1.3.7,2.4,1.8,3.1,3.2.7,1.4,1.1,3,1.1,4.9s-.2,2.7-.6,3.8-1,2.1-1.8,2.9c-.8.8-1.7,1.4-2.8,1.8-1.1.4-2.3.6-3.7.6ZM418,879.4c.9,0,1.7-.2,2.3-.6.7-.4,1.2-1.1,1.6-1.9s.6-1.9.6-3.2c0-1.9-.4-3.4-1.2-4.3-.8-.9-1.9-1.4-3.2-1.4s-1.7.2-2.3.6-1.2,1.1-1.6,1.9-.6,1.9-.6,3.2c0,1.9.4,3.3,1.2,4.3.8,1,1.9,1.5,3.2,1.5Z"/>
          <path class="cls-8" d="M437.1,882.8c-.6,0-1.1-.2-1.5-.5-.4-.3-.8-.8-1-1.4l-5.2-13.3c-.2-.6-.3-1.1-.2-1.5s.3-.8.7-1.1c.4-.3.8-.4,1.4-.4s1,.1,1.3.4c.3.3.6.7.9,1.4l4.4,12h-.8l4.5-12.3c.2-.5.4-.9.8-1.2.3-.2.7-.4,1.3-.4s1,.1,1.3.4c.3.3.6.6.8,1.1l4.4,12.3h-.8l4.4-12.1c.2-.6.5-1.1.9-1.3.4-.2.8-.4,1.2-.4s1,.1,1.3.4c.3.3.5.7.5,1.1,0,.4,0,.9-.3,1.5l-5.2,13.3c-.2.6-.6,1.1-1,1.4-.4.3-1,.5-1.6.5s-1.1-.2-1.6-.5c-.4-.3-.8-.8-1-1.4l-4.7-12.5h2.1l-4.6,12.5c-.2.6-.6,1.1-1,1.4s-1,.5-1.6.5Z"/>
          <path class="cls-8" d="M478.9,882.9c-1.6,0-2.9-.3-3.9-.8-1-.5-1.8-1.3-2.3-2.3-.5-1-.8-2.3-.8-3.8v-7.7h-1.9c-.6,0-1-.1-1.3-.5-.3-.3-.5-.7-.5-1.2s.2-1,.5-1.3c.3-.3.8-.4,1.3-.4h1.9v-3.3c0-.7.2-1.3.6-1.7.4-.4,1-.6,1.7-.6s1.3.2,1.7.6c.4.4.6.9.6,1.7v3.3h3.8c.6,0,1,.1,1.3.4.3.3.5.7.5,1.3s-.2.9-.5,1.2c-.3.3-.8.5-1.3.5h-3.8v7.4c0,1.2.3,2,.8,2.6.5.6,1.3.9,2.4.9s.8,0,1.1-.1c.3,0,.6-.1.8-.1.3,0,.5,0,.7.3.2.2.3.6.3,1.2s0,.9-.2,1.3c-.2.4-.4.6-.8.8-.3,0-.7.2-1.2.3-.5,0-.9.1-1.3.1Z"/>
          <path class="cls-8" d="M487.3,882.8c-.7,0-1.3-.2-1.7-.6-.4-.4-.6-1-.6-1.7v-21.4c0-.7.2-1.3.6-1.7.4-.4.9-.6,1.7-.6s1.3.2,1.7.6.6.9.6,1.7v9.3h-.5c.5-1.3,1.4-2.2,2.5-2.9,1.1-.7,2.4-1,3.8-1s2.6.3,3.5.8c.9.5,1.6,1.3,2.1,2.4.5,1.1.7,2.4.7,4.1v8.7c0,.7-.2,1.3-.6,1.7-.4.4-.9.6-1.7.6s-1.3-.2-1.7-.6c-.4-.4-.6-1-.6-1.7v-8.5c0-1.4-.3-2.4-.8-3-.5-.6-1.3-.9-2.4-.9s-2.4.4-3.2,1.2-1.2,1.9-1.2,3.3v7.9c0,1.5-.8,2.3-2.3,2.3Z"/>
          <path class="cls-8" d="M514.8,882.9c-2,0-3.7-.4-5.1-1.1s-2.6-1.8-3.3-3.2c-.8-1.4-1.2-3-1.2-4.9s.4-3.4,1.1-4.8,1.8-2.4,3.1-3.2c1.3-.8,2.8-1.2,4.6-1.2s2.4.2,3.4.6,1.8,1,2.6,1.8c.7.8,1.2,1.7,1.6,2.8s.6,2.3.6,3.7-.2.8-.5,1c-.3.2-.7.3-1.3.3h-11.6v-2.6h10.1l-.6.5c0-1.1-.2-2-.5-2.8s-.8-1.3-1.4-1.7c-.6-.4-1.4-.6-2.3-.6s-1.9.2-2.6.7c-.7.5-1.2,1.1-1.6,2s-.6,1.9-.6,3v.3c0,2,.5,3.4,1.4,4.4.9,1,2.3,1.5,4.1,1.5s1.3,0,2.1-.2,1.5-.4,2.2-.8c.5-.3.9-.4,1.3-.4.4,0,.7.2.9.4.2.2.4.5.4.9s0,.7-.2,1.1c-.2.4-.5.7-.9.9-.8.5-1.8.9-2.9,1.2s-2.1.4-3,.4Z"/>
          <path class="cls-8" d="M533.7,882.9c-1.8,0-3.4-.4-4.8-1.1-1.3-.7-2.4-1.8-3.1-3.2-.7-1.4-1.1-3-1.1-4.9s.2-2.7.6-3.8c.4-1.1,1-2.1,1.8-2.9.8-.8,1.7-1.4,2.8-1.8,1.1-.4,2.3-.6,3.7-.6s3.4.4,4.8,1.1c1.3.7,2.4,1.8,3.1,3.2.7,1.4,1.1,3,1.1,4.9s-.2,2.7-.6,3.8-1,2.1-1.8,2.9c-.8.8-1.7,1.4-2.8,1.8-1.1.4-2.3.6-3.7.6ZM533.7,879.4c.9,0,1.7-.2,2.3-.6.7-.4,1.2-1.1,1.6-1.9s.6-1.9.6-3.2c0-1.9-.4-3.4-1.2-4.3-.8-.9-1.9-1.4-3.2-1.4s-1.7.2-2.3.6-1.2,1.1-1.6,1.9-.6,1.9-.6,3.2c0,1.9.4,3.3,1.2,4.3.8,1,1.9,1.5,3.2,1.5Z"/>
          <path class="cls-8" d="M548.7,882.8c-.7,0-1.3-.2-1.7-.6-.4-.4-.6-1-.6-1.7v-13.6c0-.7.2-1.3.6-1.7.4-.4.9-.6,1.6-.6s1.2.2,1.6.6c.4.4.6.9.6,1.7v2.3h-.4c.3-1.4,1-2.5,2-3.3s2.3-1.2,3.9-1.3c.5,0,.9,0,1.2.4.3.3.5.8.5,1.4,0,.6,0,1.1-.4,1.5-.3.4-.8.6-1.5.7h-.8c-1.5.2-2.6.7-3.3,1.4s-1.1,1.8-1.1,3.2v7.5c0,.7-.2,1.3-.6,1.7-.4.4-.9.6-1.7.6Z"/>
          <path class="cls-8" d="M566,889.3c-.5,0-1-.1-1.3-.4-.3-.3-.5-.6-.6-1.1s0-.9.2-1.4l2.4-5.4v1.9l-6.6-15.2c-.2-.5-.3-1-.2-1.5s.3-.8.7-1.1c.4-.3.9-.4,1.5-.4s1,.1,1.3.4c.3.3.6.7.9,1.4l4.9,12.1h-1.1l5-12.2c.3-.7.6-1.1.9-1.4.4-.3.8-.4,1.4-.4s.9.1,1.3.4c.3.3.5.6.6,1.1,0,.4,0,.9-.3,1.5l-8.7,20c-.3.7-.6,1.1-1,1.4-.4.2-.8.4-1.4.4Z"/>
        </g>
      </g>
      <rect class="cls-1" x="211.4" y="951.2" width="531.2" height="105.5" rx="28.3" ry="28.3"/>
      <g class="cls-9">
        <g class="cls-9">
          <path class="cls-8" d="M277.8,1014.7c-1,0-2.1-.1-3.3-.3-1.2-.2-2.2-.6-3.1-1.1-.4-.2-.7-.5-.8-.8-.2-.3-.2-.6-.2-1,0-.3.2-.6.4-.8.2-.2.5-.4.8-.5.3,0,.7,0,1.1.2,1,.5,1.9.8,2.7,1,.8.2,1.7.3,2.5.3s2-.2,2.6-.6c.6-.4.8-.9.8-1.6s-.2-1-.6-1.3c-.4-.3-.9-.5-1.7-.7l-3.6-.7c-1.5-.3-2.6-.8-3.4-1.6-.8-.8-1.2-1.8-1.2-3.1s.3-2.1,1-3c.6-.8,1.5-1.5,2.6-1.9,1.1-.5,2.4-.7,3.9-.7s2,.1,3,.3c.9.2,1.8.6,2.7,1.1.4.2.6.4.7.8s.2.6,0,1c0,.3-.2.6-.4.9-.2.3-.5.4-.8.5s-.7,0-1.1-.2c-.7-.4-1.5-.7-2.1-.8-.7-.2-1.3-.3-2-.3-1.2,0-2,.2-2.6.6-.6.4-.8.9-.8,1.6s.2.9.5,1.3c.3.3.9.6,1.5.7l3.6.7c1.6.3,2.7.8,3.5,1.6.8.8,1.2,1.8,1.2,3.1s-.7,3.1-2.1,4.1c-1.4,1-3.2,1.5-5.5,1.5Z"/>
          <path class="cls-8" d="M297.6,1014.7c-2,0-3.7-.4-5.1-1.1s-2.6-1.8-3.3-3.2c-.8-1.4-1.2-3-1.2-4.9s.4-3.4,1.1-4.8,1.8-2.4,3.1-3.2c1.3-.8,2.8-1.2,4.6-1.2s2.4.2,3.4.6c1,.4,1.8,1,2.6,1.8.7.8,1.2,1.7,1.6,2.8.4,1.1.6,2.3.6,3.7s-.2.8-.5,1c-.3.2-.7.3-1.3.3h-11.6v-2.6h10.1l-.6.5c0-1.1-.2-2-.5-2.8-.3-.7-.8-1.3-1.4-1.7-.6-.4-1.4-.6-2.3-.6s-1.9.2-2.6.7c-.7.5-1.2,1.1-1.6,2s-.6,1.9-.6,3v.3c0,2,.5,3.4,1.4,4.4.9,1,2.3,1.5,4.1,1.5s1.3,0,2.1-.2c.8-.2,1.5-.4,2.2-.8.5-.3.9-.4,1.3-.4.4,0,.7.2.9.4.2.2.4.5.4.9,0,.3,0,.7-.2,1.1s-.5.7-.9.9c-.8.5-1.8.9-2.9,1.2-1.1.3-2.1.4-3,.4Z"/>
          <path class="cls-8" d="M314.4,1014.7c-2,0-3.5-.6-4.5-1.7s-1.5-2.8-1.5-5v-17c0-.7.2-1.3.6-1.7.4-.4.9-.6,1.7-.6s1.3.2,1.7.6.6.9.6,1.7v16.8c0,1.1.2,1.9.7,2.4s1.1.8,2,.8.4,0,.5,0c.2,0,.3,0,.5,0,.3,0,.6,0,.7.3.1.2.2.7.2,1.4s-.1,1.1-.4,1.4c-.2.3-.6.5-1.2.6-.2,0-.5,0-.8,0-.3,0-.5,0-.8,0Z"/>
          <path class="cls-8" d="M323,1014.6c-.7,0-1.3-.2-1.7-.6-.4-.4-.6-1-.6-1.7v-12.2h-1.7c-.6,0-1-.1-1.3-.5-.3-.3-.5-.7-.5-1.2s.2-1,.5-1.3c.3-.3.8-.4,1.3-.4h3l-1.3,1.2v-1.2c0-2.5.6-4.3,1.9-5.6,1.2-1.2,3-2,5.4-2.2h1.2c.5-.2.9,0,1.2.1.3.2.5.5.6.8,0,.3.1.7,0,1,0,.3-.2.6-.5.9s-.5.4-.9.4h-.5c-1.4.1-2.4.5-3,1.1s-.9,1.5-.9,2.7v1.3l-.6-.6h3.6c.6,0,1,.1,1.3.4.3.3.5.7.5,1.3s-.2.9-.5,1.2c-.3.3-.8.5-1.3.5h-3.1v12.2c0,1.5-.7,2.3-2.2,2.3Z"/>
          <path class="cls-8" d="M334,1006.5c-.5,0-1-.2-1.3-.5-.3-.3-.5-.8-.5-1.3s.2-1,.5-1.3c.3-.3.8-.5,1.3-.5h7.7c.5,0,.9.2,1.3.5.3.3.5.8.5,1.3s-.2.9-.5,1.3c-.3.3-.8.5-1.3.5h-7.7Z"/>
          <path class="cls-8" d="M355.3,1014.7c-1.5,0-2.9-.4-4-1.1-1.2-.7-2.1-1.8-2.7-3.2-.6-1.4-1-3-1-4.9s.3-3.5,1-4.9c.6-1.4,1.6-2.4,2.7-3.1,1.2-.7,2.5-1.1,4-1.1s2.7.4,3.8,1.1c1.1.7,1.8,1.7,2.2,2.8h-.4v-9.4c0-.7.2-1.3.6-1.7.4-.4.9-.6,1.7-.6s1.3.2,1.7.6.6.9.6,1.7v21.4c0,.7-.2,1.3-.6,1.7-.4.4-.9.6-1.7.6s-1.3-.2-1.7-.6c-.4-.4-.6-1-.6-1.7v-2.8l.4,1.1c-.4,1.2-1.1,2.2-2.2,3-1.1.7-2.4,1.1-3.9,1.1ZM356.6,1011.2c.9,0,1.7-.2,2.3-.6.7-.4,1.2-1.1,1.6-1.9s.6-1.9.6-3.2c0-1.9-.4-3.4-1.2-4.3-.8-.9-1.9-1.4-3.2-1.4s-1.7.2-2.3.6-1.2,1.1-1.6,1.9-.6,1.9-.6,3.2c0,1.9.4,3.3,1.2,4.3.8,1,1.9,1.5,3.2,1.5Z"/>
          <path class="cls-8" d="M378.8,1014.7c-2,0-3.7-.4-5.1-1.1s-2.6-1.8-3.3-3.2c-.8-1.4-1.2-3-1.2-4.9s.4-3.4,1.1-4.8,1.8-2.4,3.1-3.2c1.3-.8,2.8-1.2,4.6-1.2s2.4.2,3.4.6c1,.4,1.8,1,2.6,1.8.7.8,1.2,1.7,1.6,2.8.4,1.1.6,2.3.6,3.7s-.2.8-.5,1c-.3.2-.7.3-1.3.3h-11.6v-2.6h10.1l-.6.5c0-1.1-.2-2-.5-2.8-.3-.7-.8-1.3-1.4-1.7-.6-.4-1.4-.6-2.3-.6s-1.9.2-2.6.7c-.7.5-1.2,1.1-1.6,2s-.6,1.9-.6,3v.3c0,2,.5,3.4,1.4,4.4.9,1,2.3,1.5,4.1,1.5s1.3,0,2.1-.2c.8-.2,1.5-.4,2.2-.8.5-.3.9-.4,1.3-.4.4,0,.7.2.9.4.2.2.4.5.4.9,0,.3,0,.7-.2,1.1s-.5.7-.9.9c-.8.5-1.8.9-2.9,1.2-1.1.3-2.1.4-3,.4Z"/>
          <path class="cls-8" d="M397.6,1014.7c-1.6,0-2.9-.3-3.9-.8-1-.5-1.8-1.3-2.3-2.3-.5-1-.8-2.3-.8-3.8v-7.7h-1.9c-.6,0-1-.1-1.3-.5-.3-.3-.5-.7-.5-1.2s.2-1,.5-1.3c.3-.3.8-.4,1.3-.4h1.9v-3.3c0-.7.2-1.3.6-1.7.4-.4,1-.6,1.7-.6s1.3.2,1.7.6c.4.4.6.9.6,1.7v3.3h3.8c.6,0,1,.1,1.3.4.3.3.5.7.5,1.3s-.2.9-.5,1.2c-.3.3-.8.5-1.3.5h-3.8v7.4c0,1.2.3,2,.8,2.6.5.6,1.3.9,2.4.9s.8,0,1.1-.1c.3,0,.6-.1.8-.1.3,0,.5,0,.7.3.2.2.3.6.3,1.2s0,.9-.2,1.3c-.2.4-.4.6-.8.8-.3,0-.7.2-1.2.3-.5,0-.9.1-1.3.1Z"/>
          <path class="cls-8" d="M411.9,1014.7c-2,0-3.7-.4-5.1-1.1s-2.6-1.8-3.3-3.2c-.8-1.4-1.2-3-1.2-4.9s.4-3.4,1.1-4.8,1.8-2.4,3.1-3.2c1.3-.8,2.8-1.2,4.6-1.2s2.4.2,3.4.6c1,.4,1.8,1,2.6,1.8.7.8,1.2,1.7,1.6,2.8.4,1.1.6,2.3.6,3.7s-.2.8-.5,1c-.3.2-.7.3-1.3.3h-11.6v-2.6h10.1l-.6.5c0-1.1-.2-2-.5-2.8-.3-.7-.8-1.3-1.4-1.7-.6-.4-1.4-.6-2.3-.6s-1.9.2-2.6.7c-.7.5-1.2,1.1-1.6,2s-.6,1.9-.6,3v.3c0,2,.5,3.4,1.4,4.4.9,1,2.3,1.5,4.1,1.5s1.3,0,2.1-.2c.8-.2,1.5-.4,2.2-.8.5-.3.9-.4,1.3-.4.4,0,.7.2.9.4.2.2.4.5.4.9,0,.3,0,.7-.2,1.1s-.5.7-.9.9c-.8.5-1.8.9-2.9,1.2-1.1.3-2.1.4-3,.4Z"/>
          <path class="cls-8" d="M425,1014.6c-.7,0-1.3-.2-1.7-.6-.4-.4-.6-1-.6-1.7v-13.6c0-.7.2-1.3.6-1.7.4-.4.9-.6,1.6-.6s1.2.2,1.6.6c.4.4.6.9.6,1.7v2.3h-.4c.3-1.4,1-2.5,2-3.3,1-.7,2.3-1.2,3.9-1.3.5,0,.9,0,1.2.4.3.3.5.8.5,1.4,0,.6,0,1.1-.4,1.5-.3.4-.8.6-1.5.7h-.8c-1.5.2-2.6.7-3.3,1.4-.7.8-1.1,1.8-1.1,3.2v7.5c0,.7-.2,1.3-.6,1.7-.4.4-.9.6-1.7.6Z"/>
          <path class="cls-8" d="M439.1,1014.6c-.7,0-1.3-.2-1.7-.6-.4-.4-.6-1-.6-1.7v-13.6c0-.7.2-1.3.6-1.7.4-.4.9-.6,1.6-.6s1.2.2,1.6.6c.4.4.6.9.6,1.7v2.6l-.4-1.1c.5-1.2,1.2-2.1,2.2-2.8,1-.7,2.2-1,3.6-1s2.6.3,3.5,1,1.5,1.7,1.9,3.1h-.5c.5-1.3,1.3-2.3,2.4-3,1.1-.7,2.4-1.1,3.8-1.1s2.5.3,3.3.8c.9.5,1.5,1.3,2,2.4.4,1.1.6,2.4.6,4.1v8.7c0,.7-.2,1.3-.6,1.7-.4.4-1,.6-1.7.6s-1.3-.2-1.7-.6c-.4-.4-.6-1-.6-1.7v-8.5c0-1.3-.2-2.3-.7-3-.4-.6-1.2-.9-2.2-.9s-2.1.4-2.8,1.2c-.7.8-1,2-1,3.4v7.7c0,.7-.2,1.3-.6,1.7-.4.4-.9.6-1.7.6s-1.3-.2-1.7-.6c-.4-.4-.6-1-.6-1.7v-8.5c0-1.3-.2-2.3-.7-3-.4-.6-1.2-.9-2.2-.9s-2.1.4-2.8,1.2-1,2-1,3.4v7.7c0,1.5-.8,2.3-2.3,2.3Z"/>
          <path class="cls-8" d="M470.6,993.1c-.8,0-1.5-.2-2-.6-.5-.4-.7-1-.7-1.7s.2-1.4.7-1.8c.5-.4,1.1-.6,2-.6s1.5.2,2,.6.7,1,.7,1.8-.2,1.3-.7,1.7-1.1.6-2,.6ZM470.6,1014.6c-.7,0-1.3-.2-1.7-.6-.4-.4-.6-1-.6-1.8v-13.2c0-.8.2-1.4.6-1.8.4-.4.9-.6,1.7-.6s1.3.2,1.7.6.6,1,.6,1.8v13.2c0,.8-.2,1.4-.6,1.8-.4.4-.9.6-1.7.6Z"/>
          <path class="cls-8" d="M479.8,1014.6c-.7,0-1.3-.2-1.7-.6-.4-.4-.6-1-.6-1.7v-13.6c0-.7.2-1.3.6-1.7.4-.4.9-.6,1.6-.6s1.2.2,1.6.6c.4.4.6.9.6,1.7v2.4l-.4-.9c.5-1.3,1.4-2.2,2.5-2.9,1.1-.7,2.4-1,3.8-1s2.6.3,3.5.8c.9.5,1.6,1.3,2.1,2.4.5,1.1.7,2.4.7,4.1v8.7c0,.7-.2,1.3-.6,1.7-.4.4-.9.6-1.7.6s-1.3-.2-1.7-.6c-.4-.4-.6-1-.6-1.7v-8.5c0-1.4-.3-2.4-.8-3-.5-.6-1.3-.9-2.4-.9s-2.4.4-3.2,1.2-1.2,1.9-1.2,3.3v7.9c0,1.5-.8,2.3-2.3,2.3Z"/>
          <path class="cls-8" d="M504.4,1014.7c-1.3,0-2.4-.2-3.4-.7-1-.5-1.8-1.2-2.3-2-.6-.8-.8-1.8-.8-2.8s.3-2.3,1-3.1c.7-.8,1.8-1.3,3.3-1.6s3.5-.5,6.1-.5h1.8v2.6h-1.8c-1.5,0-2.7,0-3.6.2-.9.1-1.5.4-1.9.7-.4.3-.6.8-.6,1.5s.3,1.4.8,1.9c.6.5,1.3.8,2.3.8s1.5-.2,2.1-.6c.6-.4,1.1-.9,1.5-1.5.4-.6.5-1.4.5-2.2v-4.1c0-1.2-.3-2.1-.8-2.6-.5-.5-1.4-.8-2.7-.8s-1.4,0-2.2.3c-.8.2-1.7.5-2.5.9-.5.2-.9.3-1.2.2-.3,0-.6-.3-.8-.6-.2-.3-.3-.6-.3-1s0-.7.3-1.1c.2-.3.5-.6,1-.8,1.1-.5,2.2-.8,3.2-1,1-.2,1.9-.3,2.8-.3,1.7,0,3.2.3,4.3.8,1.1.5,1.9,1.3,2.5,2.4.6,1.1.8,2.4.8,4.1v8.6c0,.7-.2,1.3-.5,1.7-.4.4-.9.6-1.5.6s-1.2-.2-1.6-.6c-.4-.4-.6-1-.6-1.7v-1.7h.3c-.2.8-.5,1.6-1,2.2-.5.6-1.1,1.1-1.9,1.4-.7.3-1.6.5-2.6.5Z"/>
          <path class="cls-8" d="M526.4,1014.7c-1.6,0-2.9-.3-3.9-.8-1-.5-1.8-1.3-2.3-2.3-.5-1-.8-2.3-.8-3.8v-7.7h-1.9c-.6,0-1-.1-1.3-.5-.3-.3-.5-.7-.5-1.2s.2-1,.5-1.3c.3-.3.8-.4,1.3-.4h1.9v-3.3c0-.7.2-1.3.6-1.7.4-.4,1-.6,1.7-.6s1.3.2,1.7.6c.4.4.6.9.6,1.7v3.3h3.8c.6,0,1,.1,1.3.4.3.3.5.7.5,1.3s-.2.9-.5,1.2c-.3.3-.8.5-1.3.5h-3.8v7.4c0,1.2.3,2,.8,2.6.5.6,1.3.9,2.4.9s.8,0,1.1-.1c.3,0,.6-.1.8-.1.3,0,.5,0,.7.3.2.2.3.6.3,1.2s0,.9-.2,1.3-.4.6-.8.8c-.3,0-.7.2-1.2.3-.5,0-.9.1-1.3.1Z"/>
          <path class="cls-8" d="M534.9,993.1c-.8,0-1.5-.2-2-.6-.5-.4-.7-1-.7-1.7s.2-1.4.7-1.8c.5-.4,1.1-.6,2-.6s1.5.2,2,.6.7,1,.7,1.8-.2,1.3-.7,1.7-1.1.6-2,.6ZM534.9,1014.6c-.7,0-1.3-.2-1.7-.6-.4-.4-.6-1-.6-1.8v-13.2c0-.8.2-1.4.6-1.8s.9-.6,1.7-.6,1.3.2,1.7.6.6,1,.6,1.8v13.2c0,.8-.2,1.4-.6,1.8-.4.4-.9.6-1.7.6Z"/>
          <path class="cls-8" d="M549.8,1014.7c-1.8,0-3.4-.4-4.8-1.1-1.3-.7-2.4-1.8-3.1-3.2-.7-1.4-1.1-3-1.1-4.9s.2-2.7.6-3.8c.4-1.1,1-2.1,1.8-2.9.8-.8,1.7-1.4,2.8-1.8,1.1-.4,2.3-.6,3.7-.6s3.4.4,4.8,1.1c1.3.7,2.4,1.8,3.1,3.2.7,1.4,1.1,3,1.1,4.9s-.2,2.7-.6,3.8-1,2.1-1.8,2.9c-.8.8-1.7,1.4-2.8,1.8-1.1.4-2.3.6-3.7.6ZM549.8,1011.2c.9,0,1.7-.2,2.3-.6s1.2-1.1,1.6-1.9c.4-.9.6-1.9.6-3.2,0-1.9-.4-3.4-1.2-4.3-.8-.9-1.9-1.4-3.2-1.4s-1.7.2-2.3.6-1.2,1.1-1.6,1.9-.6,1.9-.6,3.2c0,1.9.4,3.3,1.2,4.3.8,1,1.9,1.5,3.2,1.5Z"/>
          <path class="cls-8" d="M564.8,1014.6c-.7,0-1.3-.2-1.7-.6-.4-.4-.6-1-.6-1.7v-13.6c0-.7.2-1.3.6-1.7.4-.4.9-.6,1.6-.6s1.2.2,1.6.6c.4.4.6.9.6,1.7v2.4l-.4-.9c.5-1.3,1.3-2.2,2.5-2.9s2.4-1,3.8-1,2.6.3,3.5.8c.9.5,1.6,1.3,2.1,2.4.5,1.1.7,2.4.7,4.1v8.7c0,.7-.2,1.3-.6,1.7-.4.4-.9.6-1.7.6s-1.3-.2-1.7-.6c-.4-.4-.6-1-.6-1.7v-8.5c0-1.4-.3-2.4-.8-3s-1.3-.9-2.4-.9-2.4.4-3.2,1.2-1.2,1.9-1.2,3.3v7.9c0,1.5-.8,2.3-2.3,2.3Z"/>
          <path class="cls-8" d="M601.4,1014.7c-1.6,0-2.9-.3-3.9-.8-1-.5-1.8-1.3-2.3-2.3-.5-1-.8-2.3-.8-3.8v-7.7h-1.9c-.6,0-1-.1-1.3-.5-.3-.3-.5-.7-.5-1.2s.2-1,.5-1.3.8-.4,1.3-.4h1.9v-3.3c0-.7.2-1.3.6-1.7.4-.4,1-.6,1.7-.6s1.3.2,1.7.6c.4.4.6.9.6,1.7v3.3h3.8c.6,0,1,.1,1.3.4.3.3.5.7.5,1.3s-.2.9-.5,1.2c-.3.3-.8.5-1.3.5h-3.8v7.4c0,1.2.3,2,.8,2.6s1.3.9,2.4.9.8,0,1.1-.1c.3,0,.6-.1.8-.1.3,0,.5,0,.7.3.2.2.3.6.3,1.2s0,.9-.2,1.3-.4.6-.8.8c-.3,0-.7.2-1.2.3-.5,0-.9.1-1.3.1Z"/>
          <path class="cls-8" d="M609.9,1014.6c-.7,0-1.3-.2-1.7-.6-.4-.4-.6-1-.6-1.7v-21.4c0-.7.2-1.3.6-1.7s.9-.6,1.7-.6,1.3.2,1.7.6c.4.4.6.9.6,1.7v9.3h-.5c.5-1.3,1.3-2.2,2.5-2.9s2.4-1,3.8-1,2.6.3,3.5.8c.9.5,1.6,1.3,2.1,2.4.5,1.1.7,2.4.7,4.1v8.7c0,.7-.2,1.3-.6,1.7-.4.4-.9.6-1.7.6s-1.3-.2-1.7-.6c-.4-.4-.6-1-.6-1.7v-8.5c0-1.4-.3-2.4-.8-3s-1.3-.9-2.4-.9-2.4.4-3.2,1.2-1.2,1.9-1.2,3.3v7.9c0,1.5-.8,2.3-2.3,2.3Z"/>
          <path class="cls-8" d="M637.4,1014.7c-2,0-3.7-.4-5.1-1.1-1.4-.7-2.6-1.8-3.3-3.2-.8-1.4-1.2-3-1.2-4.9s.4-3.4,1.1-4.8,1.8-2.4,3.1-3.2c1.3-.8,2.8-1.2,4.6-1.2s2.4.2,3.4.6,1.8,1,2.6,1.8c.7.8,1.2,1.7,1.6,2.8.4,1.1.6,2.3.6,3.7s-.2.8-.5,1c-.3.2-.7.3-1.3.3h-11.6v-2.6h10.1l-.6.5c0-1.1-.2-2-.5-2.8-.3-.7-.8-1.3-1.4-1.7-.6-.4-1.4-.6-2.3-.6s-1.9.2-2.6.7-1.2,1.1-1.6,2-.6,1.9-.6,3v.3c0,2,.5,3.4,1.4,4.4.9,1,2.3,1.5,4.1,1.5s1.3,0,2.1-.2c.8-.2,1.5-.4,2.2-.8.5-.3.9-.4,1.3-.4.4,0,.7.2.9.4.2.2.4.5.4.9,0,.3,0,.7-.2,1.1s-.5.7-.9.9c-.8.5-1.8.9-2.9,1.2s-2.1.4-3,.4Z"/>
          <path class="cls-8" d="M656.2,1014.7c-1.8,0-3.4-.4-4.8-1.1-1.3-.7-2.4-1.8-3.1-3.2-.7-1.4-1.1-3-1.1-4.9s.2-2.7.6-3.8,1-2.1,1.8-2.9c.8-.8,1.7-1.4,2.8-1.8,1.1-.4,2.3-.6,3.7-.6s3.4.4,4.8,1.1c1.3.7,2.4,1.8,3.1,3.2s1.1,3,1.1,4.9-.2,2.7-.6,3.8c-.4,1.1-1,2.1-1.8,2.9-.8.8-1.7,1.4-2.8,1.8-1.1.4-2.3.6-3.7.6ZM656.2,1011.2c.9,0,1.7-.2,2.3-.6s1.2-1.1,1.6-1.9c.4-.9.6-1.9.6-3.2,0-1.9-.4-3.4-1.2-4.3-.8-.9-1.9-1.4-3.2-1.4s-1.7.2-2.3.6c-.7.4-1.2,1.1-1.6,1.9s-.6,1.9-.6,3.2c0,1.9.4,3.3,1.2,4.3.8,1,1.9,1.5,3.2,1.5Z"/>
          <path class="cls-8" d="M671.3,1014.6c-.7,0-1.3-.2-1.7-.6-.4-.4-.6-1-.6-1.7v-13.6c0-.7.2-1.3.6-1.7.4-.4.9-.6,1.6-.6s1.2.2,1.6.6c.4.4.6.9.6,1.7v2.3h-.4c.3-1.4,1-2.5,2-3.3s2.3-1.2,3.9-1.3c.5,0,.9,0,1.2.4.3.3.5.8.5,1.4,0,.6,0,1.1-.4,1.5-.3.4-.8.6-1.5.7h-.8c-1.5.2-2.6.7-3.3,1.4-.7.8-1.1,1.8-1.1,3.2v7.5c0,.7-.2,1.3-.6,1.7-.4.4-.9.6-1.7.6Z"/>
          <path class="cls-8" d="M688.6,1021.1c-.5,0-1-.1-1.3-.4-.3-.3-.5-.6-.6-1.1,0-.5,0-.9.2-1.4l2.4-5.4v1.9l-6.6-15.2c-.2-.5-.3-1-.2-1.5s.3-.8.7-1.1c.4-.3.9-.4,1.5-.4s1,.1,1.3.4c.3.3.6.7.9,1.4l4.9,12.1h-1.1l5-12.2c.3-.7.6-1.1.9-1.4.4-.3.8-.4,1.4-.4s.9.1,1.3.4c.3.3.5.6.6,1.1,0,.4,0,.9-.3,1.5l-8.7,20c-.3.7-.6,1.1-1,1.4-.4.2-.8.4-1.4.4Z"/>
        </g>
      </g>
      <g>
        <g>
          <path class="cls-11" d="M220.2,663.8c-22.7,0-41.9-17.7-43.8-40.2v-.8l-.6-43.5c0-6.2,5-11.3,11.2-11.3s4.4.7,6.2,1.9l5.2,3.5,13.7-16c2.1-2.5,5.2-3.9,8.5-3.9s6.9,1.7,9,4.6l28.5,39.4.4.6h0c3.7,6.7,5.7,14.2,5.7,21.8,0,24.3-19.7,44-44,44h0Z"/>
          <path class="cls-2" d="M220.5,557.9c2,0,4.1.9,5.4,2.7l28.4,39.3.2.3c3.3,5.7,5.1,12.4,5.1,19.5,0,21.8-17.7,39.5-39.5,39.5s-37.6-15.9-39.3-36.1v-.6l-.6-43.4c0-3.9,3.2-6.7,6.7-6.7s2.5.4,3.7,1.2l8.5,5.7,16.3-19.1c1.3-1.6,3.2-2.3,5.1-2.3M220.5,548.9c-4.6,0-9,2-11.9,5.5l-11.1,13-1.8-1.2c-2.6-1.8-5.6-2.7-8.8-2.7s-7.9,1.5-10.9,4.4c-3.1,3-4.8,7-4.8,11.3h0c0,0,.6,43.5.6,43.5h0v1.2c1,12.1,6.5,23.2,15.4,31.5,9,8.3,20.7,12.9,32.9,12.9,26.7,0,48.5-21.8,48.5-48.5s-2.2-16.6-6.3-23.9v-.2c-.1,0-.2-.2-.2-.2l-.2-.3v-.2c-.1,0-.3-.2-.3-.2l-28.4-39.3h0c-2.9-4-7.7-6.4-12.6-6.4h0v-.2Z"/>
        </g>
        <path class="cls-4" d="M232.5,616.3c-.8-.9-1.6-1.9-2.2-2.9l-6.3-9.4c-1.3-2.1-4.3-2.1-5.6,0l-6.4,9.2c-.6.9-1.3,1.7-2,2.5-3.2,3.2-5.2,8.4-5.1,13.3.2,8.5,7.1,15.6,15.6,15.9,9.3.4,17-7.1,17-16.3s-2-9.1-4.8-12.2h-.2Z"/>
      </g>
      <g>
        <g>
          <path class="cls-14" d="M592,626.4c-3.9,0-7.6-1.2-10.9-3.4l-8.4-5.8c-5.2-3.6-8.4-9.5-8.4-15.9v-16.4c0-6.3,3.1-12.3,8.4-15.9l8.4-5.8c3.2-2.2,7-3.4,10.9-3.4s7.6,1.2,10.9,3.4l8.4,5.8c5.2,3.6,8.4,9.5,8.4,15.9v16.4c0,6.3-3.1,12.3-8.4,15.9l-8.4,5.8c-3.2,2.2-7,3.4-10.9,3.4Z"/>
          <path class="cls-2" d="M592,563.5c3.1,0,6.2.9,8.9,2.7l8.4,5.8c4.3,2.9,6.8,7.8,6.8,13v16.4c0,5.2-2.6,10-6.8,13l-8.4,5.8c-2.7,1.8-5.8,2.7-8.9,2.7s-6.2-.9-8.9-2.7l-8.4-5.8c-4.3-2.9-6.8-7.8-6.8-13v-16.4c0-5.2,2.6-10,6.8-13l8.4-5.8c2.7-1.8,5.8-2.7,8.9-2.7M592,556.5c-4.6,0-9,1.4-12.8,4l-8.4,5.8c-6.2,4.2-9.9,11.2-9.9,18.8v16.4c0,7.5,3.7,14.5,9.9,18.8l8.4,5.8c3.8,2.6,8.2,4,12.8,4s9-1.4,12.8-4l8.4-5.8c6.2-4.2,9.9-11.2,9.9-18.8v-16.4c0-7.5-3.7-14.5-9.9-18.8l-8.4-5.8c-3.8-2.6-8.2-4-12.8-4h0Z"/>
        </g>
        <path class="cls-7" d="M590.3,578.4l-7.7,5.2c-.7.5-1.6.6-2.4.3l-6.3-2.6c-2-.8-2.3-3.7-.5-4.9l14.4-9.8c1.8-1.2,4.3.2,4.1,2.5l-.4,7.2c0,.9-.5,1.7-1.2,2.2h0Z"/>
      </g>
    </g>
  </g>
</svg>