<?xml version="1.0" encoding="UTF-8"?>
<svg id="Ebene_1" xmlns="http://www.w3.org/2000/svg" xmlns:xlink="http://www.w3.org/1999/xlink" version="1.1" viewBox="0 0 1024 1280">
  <!-- Generator: Adobe Illustrator 29.0.1, SVG Export Plug-In . SVG Version: 2.1.0 Build 192)  -->
  <defs>
    <style>
      .st0 {
        stroke: #492d7a;
      }

      .st0, .st1, .st2, .st3, .st4, .st5, .st6, .st7, .st8, .st9, .st10, .st11 {
        fill: none;
      }

      .st0, .st2, .st3, .st4, .st5, .st7, .st8, .st9, .st10, .st11 {
        stroke-linecap: round;
      }

      .st0, .st4 {
        stroke-width: .9px;
      }

      .st0, .st4, .st5, .st8, .st9, .st10 {
        stroke-linejoin: round;
      }

      .st12 {
        font-size: 24px;
      }

      .st12, .st13 {
        font-family: Nunito-Medium, Nunito;
        font-weight: 500;
      }

      .st12, .st14, .st15 {
        fill: #ff9600;
      }

      .st16 {
        fill: #b8e1ff;
      }

      .st16, .st17, .st18, .st19, .st20, .st21, .st22 {
        fill-rule: evenodd;
      }

      .st23 {
        isolation: isolate;
        opacity: .3;
      }

      .st23, .st24 {
        fill: #afafaf;
      }

      .st25, .st18 {
        fill: #0395db;
      }

      .st26 {
        fill: #f49000;
      }

      .st27 {
        fill: #3cc0ff;
      }

      .st17, .st28 {
        fill: #3d3d3d;
      }

      .st1 {
        stroke: #68b32e;
        stroke-width: .7px;
      }

      .st1, .st29, .st6 {
        stroke-miterlimit: 10;
      }

      .st30 {
        filter: url(#drop-shadow-3);
      }

      .st30, .st31, .st32, .st19, .st33 {
        fill: #89e219;
      }

      .st31 {
        filter: url(#drop-shadow-2);
      }

      .st32 {
        filter: url(#drop-shadow-6);
      }

      .st34 {
        filter: url(#drop-shadow-5);
      }

      .st34, .st35, .st29 {
        fill: #ececec;
      }

      .st35 {
        filter: url(#drop-shadow-4);
      }

      .st36 {
        fill: #ee9583;
      }

      .st37 {
        fill: #4cc5ff;
      }

      .st38 {
        fill: #86401f;
      }

      .st2 {
        stroke: #58cc02;
        stroke-width: 1px;
      }

      .st39 {
        fill: #58cc02;
      }

      .st29 {
        stroke: #868686;
        stroke-width: .7px;
      }

      .st3 {
        stroke-width: .8px;
      }

      .st3, .st10 {
        stroke: #884727;
      }

      .st40 {
        font-family: Nunito-Black, Nunito;
        font-size: 39px;
        font-weight: 800;
      }

      .st40, .st41, .st13 {
        fill: #fff;
      }

      .st4, .st5 {
        stroke: #ee9583;
      }

      .st5 {
        stroke-width: 1.3px;
      }

      .st42 {
        fill: #ffc6b7;
      }

      .st6 {
        stroke: #ff9600;
        stroke-width: 5.7px;
      }

      .st43, .st21 {
        fill: #a570ff;
      }

      .st7 {
        stroke: #995332;
        stroke-width: .5px;
      }

      .st8 {
        stroke: #fff;
        stroke-width: 2.7px;
      }

      .st44, .st22 {
        fill: #a46648;
      }

      .st45 {
        fill: #492d7a;
      }

      .st20, .st46 {
        fill: #4b4b4b;
      }

      .st47 {
        fill: #f8ae2d;
      }

      .st48 {
        fill: #593f86;
      }

      .st13, .st14 {
        font-size: 36px;
      }

      .st9 {
        stroke: #ffde00;
        stroke-width: 1.1px;
      }

      .st14 {
        font-family: Nunito-ExtraBold, Nunito;
        font-weight: 700;
      }

      .st10 {
        stroke-width: .8px;
      }

      .st49 {
        fill: #884727;
      }

      .st50 {
        fill: #ff4b4b;
      }

      .st11 {
        stroke: #f49000;
        stroke-width: 4.7px;
      }

      .st51 {
        fill: #fdb02a;
      }

      .st52 {
        fill: #8ee000;
      }

      .st53 {
        fill: #1cb0f6;
      }

      .st54 {
        fill: #ffc200;
      }

      .st15 {
        filter: url(#drop-shadow-1);
      }
    </style>
    <filter id="drop-shadow-1" x="211.4" y="201.4" width="531.2" height="135" filterUnits="userSpaceOnUse">
      <feOffset dx="0" dy="14.2"/>
      <feGaussianBlur result="blur" stdDeviation="0"/>
      <feFlood flood-color="#ff7900" flood-opacity="1"/>
      <feComposite in2="blur" operator="in"/>
      <feComposite in="SourceGraphic"/>
    </filter>
    <filter id="drop-shadow-2" x="445.1" y="958.6" width="25.4" height="28.1" filterUnits="userSpaceOnUse">
      <feOffset dx="0" dy="2.8"/>
      <feGaussianBlur result="blur1" stdDeviation="0"/>
      <feFlood flood-color="#3faf04" flood-opacity=".8"/>
      <feComposite in2="blur1" operator="in"/>
      <feComposite in="SourceGraphic"/>
    </filter>
    <filter id="drop-shadow-3" x="469" y="987" width="25.4" height="28.1" filterUnits="userSpaceOnUse">
      <feOffset dx="0" dy="2.8"/>
      <feGaussianBlur result="blur2" stdDeviation="0"/>
      <feFlood flood-color="#3faf04" flood-opacity=".8"/>
      <feComposite in2="blur2" operator="in"/>
      <feComposite in="SourceGraphic"/>
    </filter>
    <filter id="drop-shadow-4" x="425.4" y="1045.1" width="25.4" height="28.1" filterUnits="userSpaceOnUse">
      <feOffset dx="0" dy="2.8"/>
      <feGaussianBlur result="blur3" stdDeviation="0"/>
      <feFlood flood-color="#8a8c89" flood-opacity=".8"/>
      <feComposite in2="blur3" operator="in"/>
      <feComposite in="SourceGraphic"/>
    </filter>
    <filter id="drop-shadow-5" x="450.8" y="1068.2" width="25.4" height="28.1" filterUnits="userSpaceOnUse">
      <feOffset dx="0" dy="2.8"/>
      <feGaussianBlur result="blur4" stdDeviation="0"/>
      <feFlood flood-color="#8a8c89" flood-opacity=".8"/>
      <feComposite in2="blur4" operator="in"/>
      <feComposite in="SourceGraphic"/>
    </filter>
    <filter id="drop-shadow-6" x="443.6" y="1012.5" width="25.4" height="28.1" filterUnits="userSpaceOnUse">
      <feOffset dx="0" dy="2.8"/>
      <feGaussianBlur result="blur5" stdDeviation="0"/>
      <feFlood flood-color="#3faf04" flood-opacity=".8"/>
      <feComposite in2="blur5" operator="in"/>
      <feComposite in="SourceGraphic"/>
    </filter>
  </defs>
  <rect class="st15" x="211.4" y="201.4" width="531.2" height="120.8" rx="28.3" ry="28.3"/>
  <text class="st40" transform="translate(257.6 277.9)"><tspan x="0" y="0">psychological principles</tspan></text>
  <rect class="st6" x="216.6" y="774.3" width="531.2" height="380.7" rx="48.4" ry="48.4"/>
  <text class="st14" transform="translate(261.8 832.4)"><tspan x="0" y="0">self-determination theory</tspan></text>
  <text class="st12" transform="translate(293.1 873.6)"><tspan x="0" y="0">highlights autonomy, competence, </tspan><tspan x=".8" y="28.8">and relatedness as key motivators </tspan><tspan x="123.9" y="57.6">for behavior</tspan></text>
  <rect class="st24" x="211.4" y="363.9" width="531.2" height="105.5" rx="28.3" ry="28.3"/>
  <text class="st13" transform="translate(309.5 427)"><tspan x="0" y="0">operant conditioning</tspan></text>
  <rect class="st24" x="211.4" y="501" width="531.2" height="105.5" rx="28.3" ry="28.3"/>
  <text class="st13" transform="translate(342.4 564.1)"><tspan x="0" y="0">dopamin release</tspan></text>
  <rect class="st24" x="211.4" y="638.2" width="531.2" height="105.5" rx="28.3" ry="28.3"/>
  <text class="st13" transform="translate(383.2 701.3)"><tspan x="0" y="0">flow theory</tspan></text>
  <text class="st12" transform="translate(259.3 1125.2)"><tspan x="0" y="0">autonomy</tspan></text>
  <text class="st12" transform="translate(393.1 1125.2)"><tspan x="0" y="0">competence</tspan></text>
  <text class="st12" transform="translate(551.3 1125.2)"><tspan x="0" y="0">social inclusion</tspan></text>
  <g>
    <g>
      <rect class="st28" x="300.2" y="996.1" width="22.8" height="13.9"/>
      <path class="st28" d="M304.4,1008.1c-2,1.9-5.2,1.8-7.1-.2l-5.4-5.7c-1.9-2-1.8-5.2.2-7.1l6-5.7c2-1.9,5.2-1.8,7.1.2l5.4,5.7c1.9,2,1.8,5.2-.2,7.1l-6,5.7Z"/>
      <path class="st28" d="M321.1,1008c2,1.9,5.2,1.8,7.1-.2l5.4-5.7c1.9-2,1.8-5.2-.2-7.1l-6-5.7c-2-1.9-5.2-1.8-7.1.2l-5.4,5.7c-1.9,2-1.8,5.2.2,7.1l6,5.7Z"/>
      <path class="st28" d="M302.8,988.1c0-2.8,2.2-5,5-5h9.6c2.8,0,5,2.2,5,5v8.7c0,2.8-2.2,5-5,5h-9.6c-2.8,0-5-2.2-5-5v-8.7Z"/>
      <rect class="st51" x="306.8" y="1033.8" width="11.3" height="6.6"/>
      <path class="st44" d="M323.4,1008.4c2.1,0,3.8,1.7,3.8,3.8v17.5c0,2.5-2,4.5-4.5,4.5h-20c-2.5,0-4.5-2-4.5-4.5v-17.5c0-2.1,1.7-3.8,3.8-3.8h21.3Z"/>
      <rect class="st41" x="304.3" y="1013.9" width="7.4" height="9.7" rx="3.7" ry="3.7"/>
      <rect class="st41" x="313.8" y="1013.9" width="7.4" height="9.7" rx="3.7" ry="3.7"/>
      <path class="st17" d="M307.9,1018.3c.7,0,1.3-.6,1.3-1.3s-.1-.6-.3-.8c0,0,.2,0,.3,0,.9,0,1.6.7,1.6,1.6v2.1c0,.9-.7,1.6-1.6,1.6s-1.6-.7-1.6-1.6v-1.5c0,0,.2,0,.3,0Z"/>
      <path class="st17" d="M314.7,1018.3c.7,0,1.3-.6,1.3-1.3s0-.5-.2-.8c.2,0,.3,0,.5,0,.9,0,1.6.7,1.6,1.6v2.1c0,.9-.7,1.6-1.6,1.6s-1.6-.7-1.6-1.6v-1.5h0Z"/>
      <path class="st38" d="M311.5,1023.5c0,.7.5,1.2,1.2,1.2s1.2-.5,1.2-1.2-1.2-2.2-1.2-2.2-1.2,1.5-1.2,2.2Z"/>
      <path class="st51" d="M311.8,1006.2c.3-3.1,3-5.3,6-5.1h0v1.6c-.4,3.1-3.1,5.3-6.2,5.1h0v-1.6Z"/>
      <path class="st51" d="M307.7,1002.6c.3,3.1,3,5.3,6,5.1h0v-1.6c-.4-3.1-3.1-5.3-6.2-5.1h0v1.6Z"/>
      <rect class="st44" x="290.4" y="1048.4" width="28.3" height="7.3" rx="3.6" ry="3.6" transform="translate(-787 962.5) rotate(-69.2)"/>
      <path class="st53" d="M305.5,1085.7c-.2.8-.9,1.4-1.7,1.4h-7.3c-1.2,0-2-1.1-1.7-2.2l8.7-33c.4-1.6,1.9-2.8,3.6-2.8h5.5c.8,0,1.5.8,1.3,1.6l-8.3,35Z"/>
      <path class="st53" d="M310.5,1085.3c0,1,.8,1.8,1.8,1.8h7.8c1,0,1.8-.8,1.8-1.8l-.8-33.2c0-2-1.7-3.6-3.7-3.6h-5c-1,0-1.8.8-1.8,1.8v35.1Z"/>
      <rect class="st50" x="305.7" y="1046.7" width="13.4" height="2.8"/>
      <path class="st51" d="M303.6,1044.2c0-4,3.3-7.3,7.3-7.3h3.7c4,0,7.3,3.3,7.3,7.3h0c0,1.6-1.3,2.9-2.9,2.9h-12.6c-1.6,0-2.9-1.3-2.9-2.9h0Z"/>
      <path class="st38" d="M312.2,1022.6h1.1c.7,0,1.2.6,1.2,1.2h0c0,.7-.6,1.2-1.2,1.2h-1.1c-.7,0-1.2-.6-1.2-1.2h0c0-.7.6-1.2,1.2-1.2Z"/>
      <rect class="st50" x="312.5" y="1089.1" width="10.9" height="3.5" rx="1.7" ry="1.7"/>
      <rect class="st50" x="290.7" y="1089.1" width="10.9" height="3.5" rx="1.7" ry="1.7"/>
      <path class="st27" d="M309.2,1049.5h2.8v7.6c0,.5-.4.8-.8.8h-1.1c-.5,0-.8-.4-.8-.8v-7.6Z"/>
      <path class="st51" d="M296.4,1007h16.8v1.6l-15.2,8-1.7-9.7Z"/>
      <path class="st51" d="M328.8,1007h-16.8v1.6l15.2,8,1.7-9.7Z"/>
      <rect class="st53" x="307" y="1047.1" width="1.5" height="2.4"/>
      <rect class="st53" x="313.7" y="1047.1" width="1.5" height="3"/>
      <path class="st44" d="M311,1024.7c-1.3-2.1-4.4-2.9-7.3-2.1l.6,2.1c2.8.6,7.7,1.7,6.7,0Z"/>
      <path class="st3" d="M308.3,1025.5c.5.9,1.6,2.1,4,2.1"/>
      <circle class="st44" cx="298.2" cy="1019.9" r="3.3"/>
      <path class="st44" d="M303.2,1017.2c0-2.1,1.7-3.7,3.7-3.7h11.4c2.1,0,3.7,1.7,3.7,3.7v2.6h-18.8v-2.6Z"/>
      <path class="st49" d="M314.3,1016.2h4.8c.4,0,.7.3.7.7h0c0,.4-.3.7-.7.7h-4.8c-.4,0-.7-.3-.7-.7h0c0-.4.3-.7.7-.7Z"/>
      <path class="st10" d="M311.6,1015.2c-.8-.6-3-1.6-5.5-.6"/>
      <circle class="st44" cx="327" cy="1019.7" r="3.3"/>
      <path class="st25" d="M310.8,1059.7h0c0,.2-.2.3-.3.3h-1.1c-.2,0-.3-.2-.3-.3h0c0-.2.2-.3.3-.3h1.1c.2,0,.3.2.3.3Z"/>
      <path class="st37" d="M309.7,1082.8c0-.3.2-.6.6-.6h11.8c.3,0,.6.2.6.5v4.4c.1.3-.1.6-.5.6h-11.8c-.3,0-.6-.2-.6-.5v-4.4Z"/>
      <path class="st37" d="M294.5,1082.7c0-.2.3-.4.5-.4h11.6c.4,0,.6.3.5.7l-1.1,4.4c0,.2-.3.4-.5.4h-11.6c-.4,0-.6-.3-.5-.7l1.1-4.4Z"/>
      <path id="Armfalte" class="st7" d="M319,1045.2c.3-.3,1.2-1.1,2.1-1.2"/>
      <path class="st18" d="M310.7,1063.4l-.9,4.5.3-8.2c0-.2.2-.4.4-.4.2,0,.4.2.4.4v3.6Z"/>
      <rect class="st23" x="280.6" y="1094.3" width="53.9" height="3.4" rx="1.7" ry="1.7"/>
    </g>
    <g id="neuer_Arm">
      <path class="st22" d="M340,1020.6c-.6-.7-.6-1.8.1-2.4l7.1-6.3c.7-.6,1.8-.6,2.4.1s.6,1.8-.1,2.4l-7.1,6.3c-.7.6-1.8.6-2.4-.1Z"/>
      <path class="st22" d="M347,1016.9c1.3,1.5,1.2,3.7-.3,5.1l-24.9,22c-1.5,1.3-3.7,1.2-5.1-.3s-1.2-3.7.3-5.1l24.9-22c1.5-1.3,3.8-1.2,5.1.3Z"/>
    </g>
    <g id="weg_rechts_grün">
      <rect class="st33" x="338.8" y="959.5" width="28.9" height="28.9" rx="3.1" ry="3.1" transform="translate(706.4 1947.8) rotate(180)"/>
      <rect class="st1" x="338.9" y="959.3" width="28.9" height="28.9" rx="3.1" ry="3.1" transform="translate(706.6 1947.6) rotate(180)"/>
      <path class="st41" d="M361.5,965.2l-.4-.7-.7.4-.5-.9.7-.4-.3-.5c-.4-.7-1.3-.9-1.9-.6l-6.5,3.6c-3.1,1.7-5,5-5,8.5v9.4c0,.8.6,1.4,1.4,1.4h.6v-.7s1,0,1,0v.7h.8c.8,0,1.4-.6,1.4-1.4v-9.4c0-1.6.9-3.1,2.3-3.8l6.5-3.6c.7-.4.9-1.3.6-1.9ZM348.8,976.8h1.1s0,2,0,2h-1.1s0-2,0-2ZM348.9,982.8v-2s1,0,1,0v2s-1,0-1,0ZM349.8,974.8h-1.1c0-.8.2-1.5.4-2.1l1,.3c-.2.6-.3,1.2-.3,1.8ZM350.9,971.3l-.9-.5c.4-.6.8-1.2,1.3-1.7l.8.7c-.4.4-.8.9-1.1,1.5ZM353.8,968.4c-.1,0-.2.1-.3.2l-.6-.9c.1,0,.2-.2.4-.2l1.4-.8.5.9-1.4.7ZM356.9,966.7l-.5-.9,1.8-.9.5.9-1.8.9Z"/>
    </g>
    <g id="weg_links">
      <rect class="st29" x="259.3" y="959.2" width="29" height="29" rx="3.1" ry="3.1"/>
      <path class="st47" d="M265.5,965l.4-.7.7.4.5-.9-.7-.4.3-.5c.4-.7,1.3-.9,2-.6l6.5,3.6c3.1,1.7,5,5,5,8.5v9.5c0,.8-.6,1.4-1.4,1.4h-.6v-.7s-1.1,0-1.1,0v.7h-.8c-.8,0-1.4-.6-1.4-1.4v-9.5c0-1.6-.9-3.1-2.3-3.9l-6.5-3.6c-.7-.4-.9-1.3-.6-2ZM278.3,976.6h-1.1s0,2,0,2h1.1s0-2,0-2ZM278.2,982.7v-2s-1,0-1,0v2s1,0,1,0ZM277.2,974.7h1.1c0-.8-.2-1.5-.4-2.1l-1,.3c.2.6.3,1.2.3,1.8ZM276.2,971.1l.9-.5c-.4-.6-.8-1.2-1.3-1.7l-.8.7c.4.5.8,1,1.1,1.5ZM273.3,968.2c.1,0,.2.1.3.2l.6-.9c-.1,0-.3-.2-.4-.2l-1.4-.8-.5.9,1.4.8ZM270.1,966.5l.5-.9-1.8-1-.5.9,1.8,1Z"/>
    </g>
  </g>
  <path class="st23" d="M668.3,1094h17.3c.9,0,1.6.7,1.6,1.6h0c0,.9-.7,1.6-1.6,1.6h-17.3c-.9,0-1.6-.7-1.6-1.6h0c0-.9.7-1.6,1.6-1.6Z"/>
  <path class="st39" d="M683.1,1050.2l2.4.8c9.4,3.1,14.5,13.3,11.4,22.7h0c-3.1,9.4-13.3,14.5-22.7,11.4l-2.4-.8c-9.4-3.1-14.5-13.3-11.4-22.7h0c3.1-9.4,13.3-14.5,22.7-11.4Z"/>
  <path class="st39" d="M690.9,1044.9c-1.2-4.2-6.5-5.7-9.9-2.9-3.2,2.6-7.4,5.9-9.4,6.5-2.1.6-3.1-1-7.2-1.5-7.9-.9-7.9,12-6,19.7.7,2.8,1.9,6.1,3.7,9.5,4.5,8.5,17.6,9.7,24.2,7.8,8.8-2.5,13.1-10.6,10.2-20.5l-5.7-18.6Z"/>
  <path class="st39" d="M679.1,1061.6l18.3-20.8c1-1.1,2.8-.9,3.5.3,3.6,6.1,2.8,14.1-2,19.5-4.8,5.5-12.6,7.2-19.1,4.3-1.4-.6-1.7-2.3-.8-3.5Z"/>
  <path class="st39" d="M673.3,1068.2l-9.4-26.1c-.5-1.4-2.2-1.9-3.4-1-5.6,4.4-7.8,12-5.3,18.9,2.5,6.9,9,11.3,16.1,11.1,1.5,0,2.5-1.5,2-2.9Z"/>
  <path class="st52" d="M680.9,1075.4l-4.6,1c-.2,0-.4.3-.3.5.6,1,1.8,1.5,3,1.3,1.2-.3,2.1-1.2,2.3-2.4,0-.2-.2-.4-.4-.4Z"/>
  <path class="st52" d="M672.8,1077.1l-4.6,1c-.2,0-.4.3-.3.5.6,1,1.8,1.5,3,1.3,1.2-.3,2.1-1.2,2.3-2.4,0-.2-.2-.4-.4-.4Z"/>
  <path class="st52" d="M677.6,1080.1l-4.6,1c-.2,0-.4.3-.3.5.6,1,1.8,1.5,3,1.3,1.2-.3,2.1-1.2,2.3-2.4,0-.2-.2-.4-.4-.4Z"/>
  <path class="st19" d="M672.9,1055.1c-1.5,2.5-3.7,2.7-6.4,1.2-2.7-1.5,3.1,11.8,3.1,11.7,0,0,1.2-.3,3.6-.8.6-.1,1.8-.4,3.5-.8-.5-9.6-2.6-13-3.7-11.3Z"/>
  <path class="st52" d="M660.5,1052.2l6.8,4.8c.4.3.4.8,0,1.1-1.7,1.3-4.1,1.3-5.9,0-1.8-1.3-2.6-3.5-1.9-5.5.1-.4.6-.6,1-.3Z"/>
  <path class="st52" d="M657.7,1054.3l6.8,4.8c.4.3.4.8,0,1.1-1.7,1.3-4.1,1.3-5.9,0-1.8-1.3-2.6-3.5-1.9-5.5.1-.4.6-.6,1-.3Z"/>
  <path class="st33" d="M676.5,1048.6l-3.9,7.1c-.2.4,0,.8.4.9,2,.4,4.1-.6,5.2-2.5,1-1.9.7-4.2-.7-5.7-.3-.3-.8-.2-1,.1Z"/>
  <path class="st33" d="M680,1049.3l-3.6,6.7c-.2.4,0,.8.4.9,1.9.4,3.9-.6,4.9-2.3,1-1.8.7-3.9-.7-5.3-.3-.3-.8-.2-1,.1Z"/>
  <path class="st33" d="M686.9,1057.8c-1-4.2-5.1-6.8-9.3-5.8-4.2,1-6.8,5.1-5.8,9.3l.6,2.7c1,4.2,5.1,6.8,9.3,5.8,4.2-1,6.8-5.1,5.8-9.3l-.6-2.7Z"/>
  <path class="st41" d="M678.1,1054.1h0c-2.8.6-4.6,3.4-3.9,6.3l.7,2.9c.6,2.8,3.4,4.6,6.3,3.9h0c2.8-.6,4.6-3.4,3.9-6.3l-.7-2.9c-.6-2.8-3.4-4.6-6.3-3.9Z"/>
  <path class="st19" d="M659.9,1055.4c4.1-.9,8.2,1.6,9.1,5.7l.9,3.7c.8,3.1-1.2,6.3-4.4,7-3.2.7-6.3-1.3-7-4.4l-.7-3.3-.6-5c-.2-1.7.9-3.3,2.6-3.7Z"/>
  <rect class="st41" x="659.6" y="1056.5" width="8" height="13.4" rx="4" ry="4" transform="translate(-82.9 56.5) rotate(-4.6)"/>
  <path class="st46" d="M676.2,1058.5h0c-1.3.3-2.1,1.6-1.8,2.9l.3,1.1c.3,1.3,1.6,2.1,2.9,1.8h0c1.3-.3,2.1-1.6,1.8-2.9l-.3-1.1c-.3-1.3-1.6-2.1-2.9-1.8Z"/>
  <circle class="st41" cx="680.9" cy="1057.8" r="2"/>
  <path class="st26" d="M670.8,1064.7h0c-1.4.3-2.2,1.7-1.9,3.1l.2.8c.3,1.4,1.7,2.2,3.1,1.9h0c1.4-.3,2.2-1.7,1.9-3.1l-.2-.8c-.3-1.4-1.7-2.2-3.1-1.9Z"/>
  <path class="st54" d="M667.8,1068.4c0,0,0,.1,0,.2l1.6,1,5.3-2.6c.1,0,.2-.2,0-.3-.8-1.5-2.5-2.3-4.2-2-1.7.4-2.9,2-2.9,3.7Z"/>
  <path class="st9" d="M671.6,1065.6c-.3,0-.9,0-1.4.3"/>
  <path class="st20" d="M664.6,1062.4c-1.7.4-3.2-.2-3.5-1.2-.2-.7.2-1.4,1-1.9,0,0-.1,0-.2,0-1.3.2-2.2,1.4-2,2.8l.3,1.7c.2,1.3,1.4,2.2,2.8,2,1.3-.2,2.2-1.4,2-2.8v-.7c-.2,0-.3,0-.3,0Z"/>
  <path class="st33" d="M685.5,1055.7c-2-3-6-3.8-9-1.8l-6.4,4.3,3.9,5.9,11.9-7.9-.3-.5Z"/>
  <path class="st33" d="M659.1,1058.5c.5-1.9,2.3-3,4.2-2.6l7.8,1.9-1.7,6.9-11.1-2.7.9-3.5Z"/>
  <path class="st2" d="M671.9,1062.5c.2.5,1.1,1.9,2.1,1.3"/>
  <path class="st2" d="M668.9,1063.1s.1,1.1-.4,1.1c-.3,0-2.3,0-4.4-.6-2.5-.6-5.1-1.6-5.1-1.6"/>
  <path class="st2" d="M674,1063.8c0,0,7-4.8,10.4-7"/>
  <path class="st11" d="M701.3,1074.9c1.2,1.1,2,1.7,3.7,2.1"/>
  <path class="st23" d="M583.9,1093.6h30.7c.8,0,1.5.7,1.5,1.5h0c0,.8-.7,1.5-1.5,1.5h-30.7c-.8,0-1.5-.7-1.5-1.5h0c0-.8.7-1.5,1.5-1.5Z"/>
  <rect class="st45" x="566.7" y="1081.2" width="13.2" height="5.6" rx="2.8" ry="2.8" transform="translate(816.4 -117.9) rotate(39.3)"/>
  <rect class="st45" x="595.1" y="1085.7" width="13.2" height="5.6" rx="2.8" ry="2.8"/>
  <path class="st43" d="M591.6,1006.5c2.2-9.8,11.3-16.8,21.3-15.8h0c8.8.9,15.8,7.7,15.5,16.4,0,2.6-.2,5.5-.5,8.6-1.1,11.4-4,20-4.9,22.5-.2.4-.6.7-1,.6l-40-4c-.8,0-1.2-.9-.8-1.6,2-3.4,6.9-12.2,9.1-21.3.5-1.8.9-3.7,1.3-5.5Z"/>
  <path class="st42" d="M595.1,1006.6c1.9-8.1,9.5-13.6,17.8-12.8h0c8.3.8,14.7,7.8,14.9,16.2l.3,13.2c0,4.8-4,8.6-8.8,8.1l-20.1-2c-4.8-.5-8.1-5.1-7-9.8l3-12.9Z"/>
  <rect class="st42" x="623.6" y="1007.8" width="7.5" height="8.9" rx="3.8" ry="3.8" transform="translate(-442.6 1535) rotate(-84.2)"/>
  <path class="st42" d="M617.1,1013.2c3.1-.9,7-4.3,8.5-5.8l-.7-1.6-4.6.5-4,5.3c-.1.7-.2,2,.8,1.7Z"/>
  <path class="st41" d="M617.4,1012.9c.3-2.8,2.8-4.9,5.6-4.6l4.2.4c.3,0,.5.3.5.6l-.5,5.3c-.3,2.8-2.8,4.9-5.6,4.6l-2.2-.2c-1.4-.1-2.4-1.4-2.3-2.8l.3-3.2Z"/>
  <path class="st41" d="M615.6,1012.7c.3-2.8-1.8-5.3-4.6-5.6l-4.2-.4c-.3,0-.5.2-.6.5l-.5,5.3c-.3,2.8,1.8,5.3,4.6,5.6l2.2.2c1.4.1,2.7-.9,2.8-2.3l.3-3.2Z"/>
  <path class="st28" d="M621.6,1016.1h0c.7,0,1.2.7,1.1,1.4v.4c-.1.7-.7,1.2-1.4,1.1h0c-.7,0-1.2-.7-1.1-1.4v-.4c.1-.7.7-1.2,1.4-1.1Z"/>
  <rect class="st28" x="611.8" y="1015.6" width="3.1" height="2.4" rx="1.2" ry="1.2" transform="translate(-459.8 1525.2) rotate(-84.2)"/>
  <path class="st21" d="M627.3,1013.4l-10.2,2.3.3-2.8c.3-2.8,2.8-4.9,5.6-4.6l4.2.4c.3,0,.5.3.5.6l-.4,4.1Z"/>
  <path class="st21" d="M615.3,1015.3l-9.5-4.2.4-4c0-.3.3-.5.6-.5l4.2.4c2.8.3,4.9,2.8,4.6,5.6l-.3,2.7Z"/>
  <path class="st43" d="M571.4,1077.4c-.2.3-.2.7.1,1l4.4,3.4c.3.2.7.2,1-.1l23.1-30-5.5-4.2-23.1,30Z"/>
  <path class="st43" d="M596,1084.3c0,.4.3.7.7.7h5.4c.4,0,.7-.4.7-.8l-.6-37.8h-6.8c0,.1.6,38,.6,38Z"/>
  <path class="st48" d="M604.7,1030.2c.1-.2.4-.3.7-.3l7.6.8c.5,0,.8.6.5,1l-11.6,21.1-8.2-4.6,11-18Z"/>
  <path class="st36" d="M619.2,1018.3c.5,1,0,2.2-1,2.6-1,.4-2.2,0-2.6-1-.5-1,.2-4.1.3-4.1,0,0,2.8,1.5,3.3,2.5Z"/>
  <path class="st42" d="M615.8,1016l-6.3-9.2,3.5-.9,3.9,3.2-1.1,6.9Z"/>
  <path class="st42" d="M614.2,1018.7c-2.1-3.3-6.2-3.5-8-3.2v4.3s6.2,2.2,6.2,2.2l1.9-3.3Z"/>
  <path class="st42" d="M617,1015.8l7-7.6-4-.8-4.2,2.4,1.2,6Z"/>
  <path class="st21" d="M611,990.9c-.6,1.2-.9,2.5-1.1,3.9-.7,6.5,4.1,12.3,10.6,13l7.8.8c-.6-9.2-7.7-16.7-17-17.7-.1,0-.3,0-.4,0Z"/>
  <path class="st43" d="M592.9,1009.5c.3-3.4,1.7-6.6,3.8-9.2l4.3-5.2,3.3-2.1,8.4.2-9.5,42.7c-.1.5-.6.8-1.1.8l-11.8-1.2,2.6-26Z"/>
  <path class="st4" d="M615.5,1011.6l1,1.7,1.7-2.4"/>
  <path class="st5" d="M609.9,1019.8c1.1-.4,3.4-.2,4,4"/>
  <path class="st48" d="M607.1,1032.6h0c1.7-.3,3.3.8,3.6,2.5l2.4,12.4c.3,1.7-.8,3.3-2.5,3.6h0c-1.7.3-3.3-.8-3.6-2.5l-2.4-12.4c-.3-1.7.8-3.3,2.5-3.6Z"/>
  <path class="st48" d="M611.4,1051.3c1-.6,1.6-1.6,1.7-2.8h0c0-1.7-1.1-3.2-2.8-3.5l-9.8-1.9c-.9-.2-1.8.4-2,1.3l-2.4,9.7c-.6,2.6,2.1,4.7,4.4,3.3l10.8-6.2Z"/>
  <path class="st0" d="M596.9,1049.4l1.6-5.3c.1-.4.5-.7,1-.6,2.6.4,7.1,1.2,9.5,1.9.9.3,1.8.9,2.3,1.9"/>
  <path class="st0" d="M608.5,1045.2c.3-.4,1.1-1.3,2.1-1.5"/>
  <path class="st48" d="M601.8,1034.6l-2.2,3.9,2.7-.5-.6-3.4Z"/>
  <path class="st48" d="M597.4,1021.4h0c1.6-.9,3.6-.2,4.5,1.4l5.7,10.9c.9,1.6.2,3.6-1.4,4.5h0c-1.6.9-3.6.2-4.5-1.4l-5.7-10.9c-.9-1.6-.2-3.6,1.4-4.5Z"/>
  <path class="st48" d="M600.2,1027.6c1.4-.9,2.1-2.7,1.5-4.2h0c-.6-1.7-2.4-2.6-4.1-2.2-2.4.6-5.7,1.4-8.4,2.1-3.4.9-7.7,3.5-9.8,5-.8.5-1.2,1.5-1,2.5l1.9,7.7c.4,1.8,2.7,2.5,4,1.2,2.4-2.2,5.7-5.2,7.6-6.6,2.1-1.6,5.8-3.9,8.3-5.4Z"/>
  <path class="st16" d="M642.9,982.9c0,.7-.3,1.3-.6,1.8.7.9,1.1,2.1.9,3.4-.3,2.6-2.7,4.4-5.2,4.1-1.3-.2-2.4-.8-3.1-1.7l-5,4c-.3.3-.8,0-.7-.5l2.3-5.9c-2.1-.7-3.5-2.8-3.2-5,.3-2.6,2.7-4.4,5.2-4.1.4,0,.8.2,1.2.3,1-1.1,2.5-1.7,4.1-1.5,2.6.3,4.4,2.7,4.1,5.2Z"/>
  <path class="st16" d="M576.5,983.9c.2.7.5,1.2.8,1.7-.6,1-.8,2.3-.5,3.5.6,2.5,3.2,4,5.7,3.4,1.2-.3,2.2-1.1,2.9-2.1l5.5,3.3c.4.2.8-.2.6-.6l-3-5.6c2-1,3.1-3.2,2.5-5.4-.6-2.5-3.2-4-5.7-3.4-.4.1-.8.3-1.2.5-1.1-1-2.7-1.4-4.3-1-2.5.6-4,3.2-3.4,5.7Z"/>
  <path class="st11" d="M665.4,1087.8c-.8-.3-2.6-1.3-3.2-2.8"/>
  <circle class="st31" cx="457.8" cy="971.3" r="12.7"/>
  <circle class="st30" cx="481.6" cy="999.7" r="12.7"/>
  <path class="st41" d="M476.3,997.2h2.7c.3.1.6,0,.7-.4l.9-2.6c.4-1,1.8-1,2.1,0l.9,2.7c0,.3.4.5.7.5h2.8c1.1.2,1.5,1.6.6,2.1l-2.2,1.5c-.3.2-.4.5-.3.8l.8,2.5c.3,1-.9,1.9-1.7,1.2l-2.3-1.7c-.2-.2-.6-.2-.8,0l-2.4,1.6c-.9.6-2-.3-1.7-1.3l.9-2.6c.1-.3,0-.6-.2-.8l-2.2-1.6c-.9-.7-.4-2,.7-2Z"/>
  <circle class="st35" cx="438.1" cy="1057.8" r="12.7"/>
  <path class="st24" d="M432.7,1055.2h2.7c.3.1.6,0,.7-.4l.9-2.6c.4-1,1.8-1,2.1,0l.9,2.7c0,.3.4.5.7.5h2.8c1.1.2,1.5,1.6.6,2.1l-2.2,1.5c-.3.2-.4.5-.3.8l.8,2.5c.3,1-.9,1.9-1.7,1.2l-2.3-1.7c-.2-.2-.6-.2-.8,0l-2.4,1.6c-.9.6-2-.3-1.7-1.3l.9-2.6c.1-.3,0-.6-.2-.8l-2.2-1.6c-.9-.7-.4-2,.7-2Z"/>
  <circle class="st34" cx="463.5" cy="1080.9" r="12.7"/>
  <circle class="st32" cx="456.3" cy="1025.2" r="12.7"/>
  <polyline class="st8" points="452.3 971.3 456 975 463.3 967.6"/>
  <polyline class="st8" points="450.7 1025.2 454.4 1028.9 461.8 1021.5"/>
  <g>
    <path class="st24" d="M460,1087.6h6.9c.2,0,.4-.2.4-.4v-.2c0-.2-.2-.4-.4-.4h-.4c-.2,0-.4-.2-.4-.4h0c0-.3-.2-.5-.4-.5h-1.3c-.2,0-.4-.2-.4-.4v-.2c0-.2.1-.3.3-.3.5-.1,1.5-.4,2.4-1.1s2-2.3,2-3.3,0-4.4,0-4.4c0,0,.2-.9-.6-1.5s-1.2-.3-1.8,0-1.7.7-2.4.7-2.1-.4-2.8-.7-1.5-.4-2.1.1-.6,1-.6,1v4.4s.1,1.9,1.3,3,2.1,1.6,2.6,1.7.3,0,.4,0c.2,0,.3.2.3.3v.2c0,.2-.2.4-.4.4h-1.2c-.2,0-.4.2-.4.4h0c0,.2-.2.4-.4.4h-.7c-.2,0-.4.2-.4.4v.3c0,.2.2.3.4.3Z"/>
    <path class="st24" d="M467.9,1083.3s.4-.3,1.1-1.3.4-1.1.4-1.3c0-.8,0-1.1,0-1.1,0,0,.4-.9.9-1.1s.8-.2.8-.2c0,0,.3.9,0,1.4s-.8.6-.8.6c0,0,0,.2,0,.5s-.1.5-.1.5c0,0,.5-.1,1,0s.5.3.5.3c0,0,0,.6-.7.9s-1.4.1-1.4.1c0,0,0,.2-.1.3s-.2.3-.2.3c0,0,.4.3.7.5s.4.8.4.9-.8.5-1.5.1-1-1-1-1v-.4Z"/>
    <path class="st24" d="M459.1,1083.3s-.4-.3-1.1-1.3-.4-1.1-.4-1.3c0-.8,0-1.1,0-1.1,0,0-.4-.9-.9-1.1s-.8-.2-.8-.2c0,0-.3.9,0,1.4s.8.6.8.6c0,0,0,.2,0,.5s.1.5.1.5c0,0-.5-.1-1,0s-.5.3-.5.3c0,0,0,.6.7.9s1.4.1,1.4.1c0,0,0,.2.1.3s.2.3.2.3c0,0-.4.3-.7.5s-.4.8-.4.9.8.5,1.5.1,1-1,1-1v-.4Z"/>
  </g>
</svg>