<?xml version="1.0" encoding="UTF-8"?>
<svg id="Ebene_1" xmlns="http://www.w3.org/2000/svg" xmlns:xlink="http://www.w3.org/1999/xlink" version="1.1" viewBox="0 0 1024 1280">
  <!-- Generator: Adobe Illustrator 29.0.1, SVG Export Plug-In . SVG Version: 2.1.0 Build 192)  -->
  <defs>
    <style>
      .st0, .st1, .st2, .st3, .st4, .st5, .st6, .st7, .st8, .st9, .st10, .st11 {
        fill: none;
      }

      .st12 {
        stroke: #e5e5e5;
      }

      .st12, .st13, .st14, .st15, .st16 {
        fill: #fff;
      }

      .st12, .st2, .st6, .st9 {
        stroke-miterlimit: 10;
      }

      .st12, .st9 {
        stroke-width: 5px;
      }

      .st17, .st16, .st18, .st19 {
        font-family: Nunito-Medium, Nunito;
        font-weight: 500;
      }

      .st17, .st20, .st21 {
        fill: #ff9600;
      }

      .st17, .st18 {
        font-size: 24px;
      }

      .st1 {
        stroke-width: 2.3px;
      }

      .st1, .st2, .st5, .st7, .st8, .st9, .st10, .st11 {
        stroke-linecap: round;
      }

      .st1, .st4, .st11 {
        stroke: #43c000;
      }

      .st1, .st7, .st8, .st11 {
        stroke-linejoin: round;
      }

      .st13, .st22, .st23, .st24, .st25, .st26, .st27, .st28, .st29, .st30 {
        fill-rule: evenodd;
      }

      .st31, .st27 {
        fill: #43c000;
      }

      .st32 {
        opacity: .3;
      }

      .st32, .st33, .st34, .st35, .st36, .st37 {
        isolation: isolate;
      }

      .st32, .st38 {
        fill: #afafaf;
      }

      .st22, .st39, .st18 {
        fill: #58cc02;
      }

      .st40, .st29 {
        fill: #f49000;
      }

      .st41 {
        fill: #ffde00;
      }

      .st23 {
        fill: #dc6a01;
      }

      .st24 {
        fill: #ffcaff;
      }

      .st2 {
        stroke: #5c99d3;
        stroke-width: 3.3px;
      }

      .st3 {
        stroke-width: 5.2px;
      }

      .st3, .st5 {
        stroke: #89e219;
      }

      .st33 {
        fill: #ff68d5;
      }

      .st33, .st34, .st37 {
        opacity: .5;
      }

      .st4 {
        stroke-width: 6.9px;
      }

      .st5 {
        stroke-width: 6.2px;
      }

      .st25, .st36, .st37, .st42 {
        fill: #ffc200;
      }

      .st14 {
        font-family: Nunito-Black, Nunito;
        font-size: 39px;
        font-weight: 800;
      }

      .st6 {
        stroke: #ff9600;
        stroke-width: 5.6px;
      }

      .st26, .st43 {
        fill: #89e219;
      }

      .st7 {
        stroke: #fff;
        stroke-width: 3.2px;
      }

      .st44 {
        fill: #b06800;
      }

      .st28, .st45 {
        fill: #4b4b4b;
      }

      .st34, .st35 {
        fill: #14c3fb;
      }

      .st35 {
        opacity: .6;
      }

      .st16, .st20, .st19 {
        font-size: 36px;
      }

      .st20 {
        font-family: Nunito-ExtraBold, Nunito;
        font-weight: 700;
      }

      .st8 {
        stroke: #ffde00;
        stroke-width: 1.7px;
      }

      .st9 {
        stroke: #58cc02;
      }

      .st10 {
        stroke: #f49000;
        stroke-width: 7.1px;
      }

      .st36 {
        opacity: .7;
      }

      .st46 {
        fill: #8ee000;
      }

      .st21 {
        filter: url(#drop-shadow-1);
      }

      .st47 {
        clip-path: url(#clippath);
      }

      .st19 {
        fill: #e5e5e5;
      }

      .st11 {
        stroke-width: 1.3px;
      }

      .st30 {
        fill: #ffb8d1;
      }
    </style>
    <filter id="drop-shadow-1" x="211.4" y="201.4" width="531.2" height="135" filterUnits="userSpaceOnUse">
      <feOffset dx="0" dy="14.2"/>
      <feGaussianBlur result="blur" stdDeviation="0"/>
      <feFlood flood-color="#ff7900" flood-opacity="1"/>
      <feComposite in2="blur" operator="in"/>
      <feComposite in="SourceGraphic"/>
    </filter>
    <clipPath id="clippath">
      <rect class="st0" x="616.2" y="850.6" width="53.5" height="41.8"/>
    </clipPath>
  </defs>
  <rect class="st21" x="211.4" y="201.4" width="531.2" height="120.8" rx="28.3" ry="28.3"/>
  <text class="st14" transform="translate(257.6 277.9)"><tspan x="0" y="0">psychological principles</tspan></text>
  <rect class="st6" x="211.4" y="638.2" width="531.2" height="360.9" rx="47.2" ry="47.2"/>
  <text class="st20" transform="translate(377.5 696.2)"><tspan x="0" y="0">flow theory</tspan></text>
  <text class="st17" transform="translate(261.4 737.5)"><tspan x="0" y="0">deep focus and emotional involvement, </tspan><tspan x="-30.6" y="28.8">evolving through engagement, engrossment, </tspan><tspan x="135.6" y="57.6">and immersion</tspan></text>
  <rect class="st12" x="211.4" y="1030.7" width="531.2" height="105.5" rx="28.3" ry="28.3"/>
  <text class="st19" transform="translate(272.7 1093.5)"><tspan x="0" y="0">self-determination theory</tspan></text>
  <rect class="st38" x="211.4" y="363.9" width="531.2" height="105.5" rx="28.3" ry="28.3"/>
  <text class="st16" transform="translate(309.5 427)"><tspan x="0" y="0">operant conditioning</tspan></text>
  <rect class="st38" x="211.4" y="501" width="531.2" height="105.5" rx="28.3" ry="28.3"/>
  <text class="st16" transform="translate(342.4 564.1)"><tspan x="0" y="0">dopamin release</tspan></text>
  <text class="st18" transform="translate(265.3 952.9)"><tspan x="0" y="0">emotion</tspan></text>
  <text class="st18" transform="translate(437.9 953.4)"><tspan x="0" y="0">attention</tspan></text>
  <text class="st18" transform="translate(645.2 949.1)"><tspan x="0" y="0">flow</tspan></text>
  <g>
    <path class="st32" d="M452.5,915h64.5c1.3,0,2.4,1.1,2.4,2.4h0c0,1.3-1.1,2.4-2.4,2.4h-64.5c-1.3,0-2.4-1.1-2.4-2.4h0c0-1.3,1.1-2.4,2.4-2.4Z"/>
    <path class="st4" d="M499.9,894.1c2.1-2.8,7.9-8.2,14.6-7.3"/>
    <path class="st29" d="M448.1,863.3c1.8-.9,4.1-.2,5,1.6l2,3.6c.9,1.8.2,4.1-1.6,5-1.8.9-4.1.2-5-1.6l-2-3.6c-.9-1.8-.2-4.1,1.6-5Z"/>
    <path class="st29" d="M431.6,880.9c.2-2.1,1.9-3.6,3.7-3.4l5.2.5c1.9.2,3.2,2,3,4.1-.2,2.1-1.9,3.6-3.7,3.4l-5.2-.5c-1.9-.2-3.2-2-3-4.1Z"/>
    <rect class="st39" x="445.6" y="871.8" width="62.9" height="43.5" rx="21.7" ry="21.7"/>
    <path class="st39" d="M457.7,869.6c0-6.8,7.2-11.2,13.5-8.6,5.8,2.5,12.1,4.7,15.4,4.7s9.6-2.2,15.4-4.7c6.3-2.6,13.5,1.8,13.5,8.6v16.9c0,15.9-12.9,28.9-28.9,28.9s-28.9-12.9-28.9-28.9v-16.9Z"/>
    <path class="st26" d="M488,873.7c3.2,3.2,8.8,3.2,12.3,0,3.5-3.2-.5,18.8-.5,18.7s-1.9,0-5.7,0c-1,0-2.8,0-5.5,0-2.5-14.6-2.7-20.9-.6-18.7Z"/>
    <path class="st46" d="M507.8,865.4l-8.6,9.5c-.5.5-.3,1.3.3,1.6,3,1.3,6.6.6,8.8-1.9,2.3-2.5,2.6-6.2,1-9-.3-.6-1.2-.7-1.6-.2Z"/>
    <path class="st46" d="M512.8,867.7l-8.6,9.5c-.5.5-.3,1.3.3,1.6,3,1.3,6.6.6,8.8-1.9,2.3-2.5,2.6-6.2,1-9-.3-.6-1.2-.7-1.6-.2Z"/>
    <path class="st43" d="M480.7,865.4l8.3,9.3c.4.5.3,1.3-.3,1.5-2.9,1.3-6.4.5-8.6-2-2.2-2.5-2.5-6-.9-8.8.3-.6,1.1-.6,1.6-.2Z"/>
    <path class="st43" d="M475.6,867.7l7.8,8.8c.4.5.3,1.2-.3,1.5-2.8,1.2-6.1.5-8.1-1.8-2.1-2.3-2.4-5.7-.9-8.2.3-.5,1.1-.6,1.5-.1Z"/>
    <path class="st43" d="M468.3,881.9c0-6.4,5.2-11.6,11.6-11.6s11.6,5.2,11.6,11.6v5.7c0,6.4-5.2,11.6-11.6,11.6s-11.6-5.2-11.6-11.6v-5.7Z"/>
    <path class="st15" d="M480.2,874.4h0c4.4,0,8.1,3.6,8.1,8.1v4.5c0,4.4-3.6,8.1-8.1,8.1h0c-4.4,0-8.1-3.6-8.1-8.1v-4.5c0-4.4,3.6-8.1,8.1-8.1Z"/>
    <path class="st26" d="M515.4,875.5c-1.4-3-4.5-5.1-8.1-5.1s-8.9,4-8.9,8.9v11.1c0,4.9,4,8.9,8.9,8.9s6.6-2.1,8.1-5.1v-18.6Z"/>
    <path class="st11" d="M467.9,888.4c-2.6,1.6-4.8,3.8-6,8.6"/>
    <path class="st15" d="M506.4,874.4h0c3.8,0,6.8,3,6.8,6.8v7c0,3.8-3,6.8-6.8,6.8h0c-3.8,0-6.8-3-6.8-6.8v-7c0-3.8,3-6.8,6.8-6.8Z"/>
    <path class="st45" d="M481.1,878.3h0c2.1,0,3.8,1.7,3.8,3.8v1.5c0,2.1-1.7,3.8-3.8,3.8h0c-2.1,0-3.8-1.7-3.8-3.8v-1.5c0-2.1,1.7-3.8,3.8-3.8Z"/>
    <path class="st45" d="M499.6,881.5c0-1.8,1.4-3.2,3.2-3.2s3.2,1.4,3.2,3.2v5.3c0,1.8-1.4,3.2-3.2,3.2s-3.2-1.4-3.2-3.2v-5.3Z"/>
    <path class="st3" d="M489.3,890.4c-1.7-2.6-7.3-8.8-18.1-4.8"/>
    <circle class="st43" cx="470" cy="885.5" r="3.4"/>
    <path class="st5" d="M499.6,889.6c2.4-2.8,8.2-6.7,14.5-3.8"/>
    <path class="st39" d="M515.2,887.7c-8.5-.6-16,2.8-17.6,4.4v5.2c3.1,1.7,10.3,5.2,10.5,4.8.1-.4,5.2-4,7.1-5.8v-8.6Z"/>
    <path class="st39" d="M473.7,886.2c8.5-.6,16.5,3.5,18.1,5.1l-.5,5.2c-3.1,1.7-10.3,5.2-10.5,4.8-.1-.4-5.2-4-7.1-5.8v-9.3Z"/>
    <path class="st40" d="M494.5,886.3h0c2.2,0,3.9,1.8,3.9,3.9v1.3c0,2.2-1.8,3.9-3.9,3.9h0c-2.2,0-3.9-1.8-3.9-3.9v-1.3c0-2.2,1.8-3.9,3.9-3.9Z"/>
    <path class="st42" d="M500.2,890.4c0,.1,0,.3-.2.4l-2.1,1.2s-2,0-4.5-.5c-1.9-.4-3.5-.8-4.1-1-.2,0-.3-.2-.2-.4.6-2.5,2.7-3.8,5.4-3.8s5,1.6,5.6,4.1Z"/>
    <path class="st8" d="M493.6,888c.4-.2,1.4-.3,2.2,0"/>
    <rect class="st43" x="514.2" y="872.6" width="1.2" height="2.9"/>
    <path class="st39" d="M512.7,886.2h.9c5,.8,8.4,5.4,7.6,10.4l-1.7,10.4c-.9,5.7-6.5,9.3-12.1,8-6.8-1.7-9.6-9.9-5.3-15.4l10.5-13.3Z"/>
    <path class="st39" d="M477.5,887.7h-.5c-7.1,0-12.9,5.8-12.9,12.9v9.6c0,2.8,2.3,5,5,5h5.2c7.9,0,13-8.4,9.4-15.4l-6.2-12.1Z"/>
    <circle class="st39" cx="512.5" cy="894.3" r="9"/>
    <path class="st11" d="M502.7,910.9c1.5-1.4,3.9-4.4,5.7-8.4"/>
    <circle class="st39" cx="475.6" cy="893" r="9.3"/>
    <path class="st11" d="M515.2,900.2c-4.4,3.6-7.8,2-9.6.4-2.8-2.3-2.7-6.7-2.1-8.3"/>
    <path class="st11" d="M484.2,890.1c1.8,5.1-2.3,11.7-9.1,9.9"/>
    <path class="st11" d="M477.7,914c-1.1-2.6-2.5-7.6-2.6-13.4"/>
    <path class="st46" d="M479.7,908h6.7c.4,0,.6.3.5.7-.5,1.6-2.1,2.7-3.8,2.7-1.8,0-3.3-1.1-3.8-2.7-.1-.3.1-.7.5-.7Z"/>
    <path class="st46" d="M489.4,908h6.7c.4,0,.6.3.5.7-.5,1.6-2.1,2.7-3.8,2.7-1.8,0-3.3-1.1-3.8-2.7-.1-.3.1-.7.5-.7Z"/>
  </g>
  <g>
    <path class="st32" d="M294.1,915h20.9c1.3,0,2.4,1.1,2.4,2.4h0c0,1.3-1.1,2.4-2.4,2.4h-20.9c-1.3,0-2.4-1.1-2.4-2.4h0c0-1.3,1.1-2.4,2.4-2.4Z"/>
    <path class="st39" d="M269.5,843.3c-1.1-6.7,5.4-12.2,12-10.6,6.1,1.5,12.7,2.8,15.9,2.3,3.3-.5,9.1-3.7,14.5-7,5.8-3.6,13.6-.3,14.6,6.4l4.7,29.9c2.5,15.7-8.3,30.5-24,33-15.7,2.5-30.5-8.3-33-24l-4.7-29.9Z"/>
    <path class="st26" d="M300.1,842.7c3.6,2.7,9.1,1.8,12.1-1.9,3-3.7,2.4,18.6,2.4,18.6,0,0-1.9.3-5.6.9-1,.2-2.8.4-5.4.9-4.8-14-5.9-20.2-3.5-18.4Z"/>
    <path class="st46" d="M318.4,831.4l-7,10.7c-.4.6,0,1.3.6,1.5,3.2.9,6.6-.4,8.4-3.3,1.8-2.8,1.6-6.5-.4-9.1-.4-.5-1.3-.5-1.6,0Z"/>
    <path class="st46" d="M323.6,832.9l-7,10.7c-.4.6,0,1.3.6,1.5,3.2.9,6.6-.4,8.4-3.3,1.8-2.8,1.6-6.5-.4-9.1-.4-.5-1.3-.5-1.6,0Z"/>
    <path class="st43" d="M291.5,835.6l9.6,7.9c.5.4.5,1.2,0,1.6-2.7,1.7-6.3,1.5-8.8-.6-2.5-2.1-3.4-5.5-2.3-8.5.2-.6,1-.8,1.5-.4Z"/>
    <path class="st43" d="M286.9,838.7l9.1,7.5c.5.4.4,1.2,0,1.5-2.5,1.6-5.9,1.4-8.3-.6-2.4-2-3.2-5.2-2.1-8,.2-.6,1-.8,1.5-.4Z"/>
    <path class="st43" d="M281.8,853.9c-1-6.3,3.3-12.2,9.6-13.2,6.3-1,12.2,3.3,13.2,9.6l.9,5.6c1,6.3-3.3,12.2-9.6,13.2-6.3,1-12.2-3.3-13.2-9.6l-.9-5.6Z"/>
    <path class="st15" d="M294.2,844.3h0c5.6-.9,10.9,3,11.8,8.6h0c.9,5.6-3,10.9-8.6,11.8h0c-5.6.9-10.9-3-11.8-8.6h0c-.9-5.6,3-10.9,8.6-11.8Z"/>
    <path class="st26" d="M327.4,840.2c-1.9-2.8-5.2-4.4-8.7-3.8-4.9.8-8.2,5.3-7.4,10.2l1.7,10.9c.8,4.9,5.3,8.2,10.2,7.4,3.5-.6,6.2-3.1,7.2-6.3l-2.9-18.4Z"/>
    <path class="st15" d="M318.6,840.5h0c4.8-.7,9.2,2.5,10,7.3l.5,3.1c.7,4.8-2.5,9.2-7.3,10h0c-4.8.7-9.2-2.5-10-7.3l-.5-3.1c-.7-4.8,2.5-9.2,7.3-10Z"/>
    <path class="st45" d="M295.5,845.9h0c4.4-.7,8.5,2.3,9.1,6.7v.2c.7,4.4-2.3,8.5-6.6,9.1h0c-4.4.7-8.5-2.3-9.1-6.7v-.2c-.7-4.4,2.3-8.5,6.6-9.1Z"/>
    <path class="st45" d="M318,842.1h0c4-.6,7.7,2.1,8.3,6l.2,1.3c.6,4-2.1,7.7-6,8.3h0c-4,.6-7.7-2.1-8.3-6l-.2-1.3c-.6-4,2.1-7.7,6-8.3Z"/>
    <rect class="st40" x="306.1" y="855.6" width="7.9" height="16.8" rx="3.9" ry="3.9" transform="translate(-129.9 58.3) rotate(-8.9)"/>
    <path class="st44" d="M307.1,860.4c-.4-1.6.7-3.2,2.3-3.4,1.5-.2,2.9.8,3.2,2.3l1.4,8.6c.2,1.3-.7,2.5-2,2.8-1.2.2-2.4-.6-2.7-1.8l-2.1-8.5Z"/>
    <path class="st42" d="M315,859.1c0,.1,0,.3-.1.4l-1.9,1.2-8.7.4c-.2,0-.4-.2-.3-.3.2-2.6,2.2-4.7,4.9-5.2,2.7-.4,5.3,1.1,6.2,3.5Z"/>
    <path class="st8" d="M308,857.4c.3-.2,1.3-.5,2.2-.3"/>
    <rect class="st43" x="326" y="837.4" width="1.2" height="2.9" transform="translate(-125.8 60.6) rotate(-8.9)"/>
    <path class="st7" d="M301.8,854.9c-.2.7-.9,2.2-2.3,2.7"/>
    <path class="st7" d="M323.4,851.1c-.2.7-.9,2.2-2.3,2.7"/>
    <circle class="st39" cx="324" cy="878.7" r="11"/>
    <path class="st27" d="M322.6,889.6c-.6.6-1.2,1.1-1.9,1.7-1.3-.7-2.6-1.5-3.7-2.3-2.8-2.1-4.9-4.5-6.1-6.9-1.2-2.4-1.5-5-.4-7.2.3-.6.8-1.1,1.4-1.4.6-.3,1.2-.4,1.8-.4,1.1,0,2.4.4,3.6.9.6.2,1.1.4,1.6.6.7.3,1.3.5,2,.8,1.2.4,2.3.7,3.1.7,1.9,0,3.5-.5,4.9-1.8,1-.9,1.9-2.2,2.5-4.1,0,2-.4,3.9-.9,5.7,0,0,0,0,0,0-1.8,1.7-4.1,2.4-6.4,2.4s-2.6-.4-3.9-.8c-.7-.3-1.5-.6-2.2-.9h0c-.5-.2-1-.4-1.5-.6-1.2-.4-2.1-.7-2.8-.7-.3,0-.5,0-.7.1-.1,0-.2.2-.4.4-.7,1.3-.6,3.1.4,5.1,1,2,2.8,4.2,5.4,6,1.3.9,2.7,1.8,4.2,2.5Z"/>
    <path class="st39" d="M306.7,882.2l-1.8-2.9,1.3-4.3,1.8-.7h2.9c.2,0,1,.6,1.4.9v2.6l-.7,2.5-1.7,3.2-3.3-1.4Z"/>
    <path class="st1" d="M290.7,875.4c1.3.8,4.2,1.9,8.5,1.9s10.7-5.3,12.5-1.9c2.5,4.8-3.2,12.5-12.5,16.2-4.6,1.7-9.3.7-11.1,0"/>
    <path class="st31" d="M331.5,870.6c.9,3.2.2,4.4-.9,5.4v-.8c0,0,.3-2.2.3-2.2.1-.4.4-1.5.7-2.3Z"/>
    <circle class="st15" cx="298.4" cy="850.2" r="2.2"/>
    <circle class="st15" cx="321.3" cy="846.4" r="2"/>
    <path class="st13" d="M288.8,854.4c-.3-3.1,1.3-6.1,3.9-7.6,1.4.7,2.4,2.2,2.4,3.9s-1.9,4.3-4.3,4.3-1.4-.2-2.1-.5Z"/>
    <path class="st13" d="M311.8,849.2c0-2.9,1.6-5.5,4.1-6.7,1.4.6,2.3,2,2.3,3.6s-1.8,3.9-3.9,3.9-1.8-.3-2.5-.9Z"/>
    <path class="st30" d="M313.3,870c-.3.4-.8.6-1.3.7-1.2.2-2.4-.6-2.7-1.8l-.8-3.4c2.5.2,4.4,2.1,4.9,4.5Z"/>
    <path class="st43" d="M286.2,860.5l14.2,4.3-.2.7c-.6,1.9-2.5,2.9-4.4,2.4l-7.5-2.3c-1.9-.6-2.9-2.5-2.4-4.4l.2-.7Z"/>
    <rect class="st35" x="333.9" y="830.6" width="4.5" height="4.5" rx=".7" ry=".7" transform="translate(-490.4 481.6) rotate(-45)"/>
    <rect class="st33" x="300.4" y="814.1" width="4.5" height="4.5" rx=".7" ry=".7" transform="translate(-488.6 453.1) rotate(-45)"/>
    <rect class="st34" x="264.1" y="817.3" width="8.2" height="8.2" rx="2.2" ry="2.2" transform="translate(-502.2 430.2) rotate(-45)"/>
    <rect class="st36" x="262" y="833.3" width="4.2" height="4.2" rx=".7" ry=".7" transform="translate(-513.4 431.4) rotate(-45)"/>
    <rect class="st37" x="329.5" y="824" width="3.1" height="3.1" rx=".7" ry=".7" transform="translate(-486.8 475.8) rotate(-45)"/>
    <path class="st10" d="M304.8,905c-1.2,2.9-1.9,4.7-3.8,6.4"/>
    <path class="st10" d="M305.2,905c1.2,2.9,1.9,4.7,3.8,6.4"/>
  </g>
  <line class="st9" x1="375.2" y1="888.8" x2="399.1" y2="888.8"/>
  <line class="st9" x1="387.2" y1="877.6" x2="387.2" y2="901.6"/>
  <line class="st9" x1="564.2" y1="883.8" x2="588.1" y2="883.8"/>
  <line class="st9" x1="588.1" y1="893.9" x2="564.2" y2="893.9"/>
  <path class="st42" d="M686,880.8l-9.9,2.9c-14,4-27.1,10.4-38.9,19l-5.9,4.3c-.9.6-.2,2,.8,1.7l7.4-2c15.2-4.1,29.5-10.9,42.1-20.2l5.3-3.9c.9-.6.2-2-.8-1.7Z"/>
  <path class="st2" d="M619.5,919.9s18.1,4.2,28.3-7.6c10.2-11.8,24.4-23.1,44-15.4-15.6,8-17.5,18.9-11.8,23,7,5,14.5-7.3,23.5-6"/>
  <g class="st47">
    <g>
      <path class="st22" d="M617.7,854.8c1.2.9,2.9,1,4,.2.2-.2.2-.5,0-.7l-4.7-3.5c0,0-.2,0-.3,0-.2,0-.3,0-.4.3-.4,1.3,0,2.9,1.3,3.8Z"/>
      <path class="st22" d="M646.3,870.3l-25.3-8.2c-.2,0-.4,0-.6,0-1.1,0-2.1.9-2.1,2.1,0,6.9,4.4,13.1,11.1,15.3,6.7,2.2,13.9-.2,17.9-5.8.9-1.2.3-2.8-1-3.3Z"/>
      <path class="st22" d="M664.8,853.8c-.4,0-.9.1-1.2.4l-20.9,16.1c-1.1.9-1.1,2.6,0,3.4,5.6,4.1,13.2,4,18.7-.3,5.5-4.2,7.7-11.7,5.4-18.3-.3-.9-1.1-1.4-2-1.4Z"/>
      <path class="st22" d="M632.1,879l29.7-5.8c.1-1.4,0-2.9-.3-4.4l-2.8-13.7c-.3-1.2-.9-2.3-1.9-3.1-1-.9-2.3-1.3-3.5-1.3s-3.1.7-4.2,2c-1.1,1.3-2.1,2-3.3,2.2-1.9.4-5.9.2-12.1-.5-.6,0-1.2,0-1.7,0-3,.6-4.9,3.5-4.3,6.5l2.9,13.9c.3,1.5.8,2.9,1.5,4.2Z"/>
      <path class="st22" d="M642.7,891.3c.1,0,.3,0,.4,0,8,1.5,15.8-3.8,17.3-11.9l.8-4.5c1.6-8.4-3.8-16.5-12.1-18.4-.2,0-.4,0-.5-.1-.9-.2-1.8-.3-2.7-.3-6.9,0-13.1,5-14.4,12l-.9,4.7c-1.5,8.4,3.8,16.4,12.1,18.2Z"/>
      <path class="st26" d="M650.1,878.7h0l-4,.8c-.2,0-.3.3-.2.5.5.9,1.6,1.3,2.6,1.1,1.1-.2,1.9-1,2-2,0-.2-.1-.4-.3-.4ZM656.8,877.4h0l-4,.8c-.2,0-.3.3-.2.5.5.9,1.6,1.3,2.6,1.1,1.1-.2,1.9-1,2-2,0-.2-.1-.4-.3-.4ZM654.3,881.4h0l-4,.8c-.2,0-.3.3-.2.5.5.9,1.6,1.3,2.6,1.1,1.1-.2,1.9-1,2-2,0-.2-.1-.4-.3-.4Z"/>
      <path class="st26" d="M652.8,867.5c-.3-6.2-.8-9.3-1.8-9.3s-.5.3-.9.8c-.9,1.5-3.1,2.2-4.8.9-1.1-.8-.9,2.1.7,8.9l6.7-1.3Z"/>
      <path class="st26" d="M642.5,874.5h.5c3.3-.7,5.4-3.9,4.8-7.2l-.7-3.8c-.6-2.9-3.1-4.9-6-4.9s-.8,0-1.2.1h-.5c-3.3.7-5.4,3.9-4.8,7.2l.7,3.8c.6,3.3,3.8,5.5,7.1,4.8Z"/>
      <path class="st26" d="M640.9,861.2c1.5,1.2,3.6,1.2,5.1.1.3-.2.3-.7,0-.9l-5.9-4.4c-.1,0-.2-.1-.3-.1-.2,0-.4.1-.4.4-.6,1.8,0,3.8,1.5,4.9Z"/>
      <path class="st26" d="M638.7,863c1.5,1.2,3.6,1.2,5.1.1.3-.2.3-.7,0-.9l-5.8-4.4c0,0-.2-.1-.4-.1-.2,0-.5.1-.5.4-.6,1.8,0,3.8,1.5,4.9Z"/>
      <path class="st26" d="M650.7,859.5c1.8.5,3.5,0,4.3-1.4.8-1.3.4-3.1-.8-4.4-.1-.1-.3-.2-.4-.2s-.3,0-.3.2l-3.1,5.1c-.2.3,0,.6.4.8Z"/>
      <path class="st26" d="M653.2,860.7c1.8.5,3.5,0,4.3-1.4.8-1.3.4-3.1-.8-4.4-.1-.1-.3-.2-.4-.2s-.3,0-.3.2l-3.1,5.1c-.2.3,0,.6.4.8Z"/>
      <path class="st26" d="M657,871.7c2.6-.5,4.3-3,3.8-5.7l-1.2-6.3c-.4-2.3-2.5-3.9-4.7-3.9s-.6,0-.9,0c-2.6.5-4.3,3-3.8,5.7l1.2,6.3c.5,2.6,3,4.3,5.6,3.8Z"/>
      <path class="st13" d="M654.5,858.2c-.2,0-.5,0-.7,0-1.9.4-3.2,2.3-2.8,4.2l.9,4.4c.4,1.9,2.3,3.2,4.2,2.8,1.9-.4,3.2-2.3,2.8-4.2l-.9-4.4c-.3-1.7-1.8-2.9-3.5-2.9Z"/>
      <path class="st28" d="M655.2,862.8c-.1,0-.2,0-.3,0-.9.2-1.5,1.1-1.4,2l.6,3.1c.2.9,1.1,1.5,2,1.4.9-.2,1.5-1.1,1.4-2l-.6-3.1c-.2-.8-.9-1.4-1.7-1.4Z"/>
      <path class="st13" d="M653.4,865.7c-.8,0-1.4-.6-1.4-1.4,0-.8.6-1.4,1.4-1.4.8,0,1.4.6,1.4,1.4,0,.8-.6,1.4-1.4,1.4Z"/>
      <path class="st13" d="M641.2,860.7c-.3,0-.6,0-.9,0-2.4.5-4,2.8-3.6,5.3l.5,2.8c.5,2.4,2.8,4,5.3,3.6,2.4-.5,4-2.8,3.6-5.3l-.5-2.8c-.4-2.1-2.3-3.6-4.4-3.6Z"/>
      <path class="st28" d="M641.9,865.3c-1.1.2-1.9,1.3-1.7,2.5l.5,2.4c.2,1.1,1.3,1.9,2.5,1.7,1.1-.2,1.9-1.3,1.7-2.5l-.5-2.4c-.2-1-1.1-1.7-2.1-1.7s-.3,0-.4,0Z"/>
      <path class="st13" d="M640.5,868c-.8,0-1.4-.6-1.4-1.4,0-.8.6-1.4,1.4-1.4s1.4.6,1.4,1.4c0,.8-.6,1.4-1.4,1.4Z"/>
      <path class="st29" d="M648.3,872.3s0,0,0,0c.2,1.2,1.4,2,2.7,1.8h.1c0,0,.2,0,.3,0,1.1-.4,1.8-1.6,1.4-2.8l-.9-2.8c-.3-.9-1.1-1.5-2-1.5s-.3,0-.4,0c-1.1.2-1.7,1.2-1.6,2.3l.4,3Z"/>
      <path class="st23" d="M649.2,871.9c.2.8,1.1,1.3,1.9,1.2h.1c0,0,0,0,.2,0,.8-.2,1.2-1.1,1-1.9l-.8-2.5c-.2-.7-.9-1.2-1.6-1.2s-.2,0-.3,0h0s0,0-.1,0c-.8.2-1.2,1-1,1.8l.7,2.5Z"/>
      <path class="st24" d="M651.1,873.1h.1c0,0,0,0,.2,0,.1,0,.2,0,.3-.1,0-.2,0-.3,0-.5-.2-1-1.1-1.8-2.1-1.8s-.3,0-.4,0c0,0-.2,0-.3,0l.4,1.2c.2.8,1.1,1.3,1.9,1.2Z"/>
      <path class="st25" d="M652.8,868.9l1.2-.3h0c-.5-1.4-1.7-2.2-3-2.2s-.4,0-.6,0c-1.6.3-2.7,1.7-2.6,3.2h0c0,.1,5.1-.8,5.1-.8Z"/>
      <path class="st41" d="M651.2,867.9s0,0-.1,0c-.4,0-.7,0-1.1.2-.2,0-.4,0-.5-.2,0-.2,0-.4.2-.5.5-.3,1-.3,1.6-.2.2,0,.4.3.3.5,0,.2-.2.3-.3.3Z"/>
      <path class="st29" d="M667.6,879.8c-.4,0-.9.1-1.3.4,0,0,0,0,0,0l-2.7,2c-.9.7-1.1,2-.4,3,.7.9,2,1.1,2.9.4,0,0,0,0,0,0l2.7-2c.9-.7,1.1-2,.4-3-.4-.5-1-.8-1.7-.8Z"/>
      <path class="st29" d="M640.9,884.8c-.1,0-.2,0-.3,0-1,0-1.9.7-2.1,1.8l-.5,3.4c-.2,1.2.6,2.2,1.8,2.4s2.2-.6,2.4-1.8l.5-3.4c.2-1.2-.6-2.2-1.8-2.4Z"/>
    </g>
  </g>
</svg>