<?xml version="1.0" encoding="UTF-8"?>
<svg id="Ebene_1" xmlns="http://www.w3.org/2000/svg" xmlns:xlink="http://www.w3.org/1999/xlink" version="1.1" viewBox="0 0 1024 1280">
  <!-- Generator: Adobe Illustrator 29.0.1, SVG Export Plug-In . SVG Version: 2.1.0 Build 192)  -->
  <defs>
    <style>
      .st0 {
        fill: none;
      }

      .st1 {
        mask: url(#mask);
      }

      .st2, .st3, .st4 {
        fill: #ff9600;
      }

      .st2, .st5, .st6 {
        font-size: 24px;
      }

      .st2, .st6 {
        font-family: Nunito-Medium, Nunito;
        font-weight: 500;
      }

      .st7 {
        fill: #ffc803;
      }

      .st8, .st9, .st10, .st11, .st12, .st13, .st14, .st15 {
        fill-rule: evenodd;
      }

      .st8, .st16 {
        fill: #744007;
      }

      .st9, .st17, .st18, .st5, .st19 {
        fill: #fff;
      }

      .st20 {
        opacity: .3;
      }

      .st20, .st21 {
        isolation: isolate;
      }

      .st20, .st22 {
        fill: #afafaf;
      }

      .st17 {
        stroke: #58cc02;
        stroke-width: 4.3px;
      }

      .st17, .st19 {
        stroke-miterlimit: 10;
      }

      .st10 {
        fill: #d8d8d8;
      }

      .st23 {
        fill: #b23131;
      }

      .st11, .st24 {
        fill: #3d3d3d;
      }

      .st25 {
        fill: #e5e5e5;
      }

      .st26 {
        fill: #ffb100;
      }

      .st27 {
        mask: url(#mask-2);
      }

      .st28 {
        mask: url(#mask-1);
      }

      .st21 {
        fill: #c4c4c4;
        opacity: .7;
      }

      .st3, .st29 {
        font-family: Nunito-Black, Nunito;
        font-size: 39px;
        font-weight: 800;
      }

      .st30, .st29, .st6 {
        fill: #58cc02;
      }

      .st12, .st31 {
        fill: #c86902;
      }

      .st32, .st15 {
        fill: #ffcba3;
      }

      .st33 {
        fill: #ff9602;
      }

      .st22 {
        font-family: Nunito-ExtraBold, Nunito;
        font-size: 17.4px;
      }

      .st22, .st5 {
        font-weight: 700;
      }

      .st13 {
        fill: #e99b5f;
      }

      .st5 {
        font-family: Nunito-Bold, Nunito;
      }

      .st19 {
        stroke: #ff9600;
        stroke-width: 4.3px;
      }

      .st34 {
        fill: #ffd900;
        filter: url(#outer-glow-1);
      }

      .st14 {
        fill: #b45e00;
      }

      .st35 {
        fill: #ff4b4b;
      }

      .st36 {
        fill: #d3d3d3;
      }

      .st37 {
        clip-path: url(#clippath);
      }
    </style>
    <filter id="outer-glow-1" x="513.9" y="815.9" width="83" height="82" filterUnits="userSpaceOnUse">
      <feOffset dx="0" dy="0"/>
      <feGaussianBlur result="blur" stdDeviation="5.7"/>
      <feFlood flood-color="#fff594" flood-opacity="1"/>
      <feComposite in2="blur" operator="in"/>
      <feComposite in="SourceGraphic"/>
    </filter>
    <clipPath id="clippath">
      <rect class="st0" x="700" y="268.8" width="118.5" height="249"/>
    </clipPath>
    <mask id="mask" x="732.7" y="307.3" width="96.2" height="63.9" maskUnits="userSpaceOnUse">
      <g id="mask0">
        <path class="st18" d="M784.7,326h-29.9c-12.1,0-22,9.8-22,22v1.2c0,12.1,9.8,22,22,22h29.9c12.1,0,22-9.8,22-22v-1.2c0-12.1-9.8-22-22-22Z"/>
      </g>
    </mask>
    <mask id="mask-1" x="778" y="336.2" width="7.8" height="12.4" maskUnits="userSpaceOnUse">
      <g id="mask1">
        <path class="st18" d="M782.5,337.9c-1.8,0-3.3,1.5-3.3,3.3v4.1c0,1.8,1.5,3.3,3.3,3.3s3.3-1.5,3.3-3.3v-4.1c0-1.8-1.5-3.3-3.3-3.3Z"/>
      </g>
    </mask>
    <mask id="mask-2" x="727" y="378.2" width="82.2" height="69.2" maskUnits="userSpaceOnUse">
      <g id="mask2">
        <path class="st18" d="M769.4,442.7c17.8,0,32.2-14.4,32.2-32.2s-14.4-32.2-32.2-32.2-32.2,14.4-32.2,32.2,14.4,32.2,32.2,32.2Z"/>
      </g>
    </mask>
  </defs>
  <rect class="st30" x="85.2" y="111.6" width="790.3" height="511" rx="71.1" ry="71.1"/>
  <rect class="st17" x="85.2" y="87" width="790.3" height="511" rx="71.1" ry="71.1"/>
  <text class="st29" transform="translate(295.7 168.3)"><tspan x="0" y="0">Intrinsic motivation</tspan></text>
  <rect class="st4" x="85.2" y="728.8" width="790.3" height="486.1" rx="69.4" ry="69.4"/>
  <rect class="st19" x="85.2" y="680.8" width="790.3" height="511" rx="71.1" ry="71.1"/>
  <text class="st3" transform="translate(295.7 738.7)"><tspan x="0" y="0">extrinsic motivation</tspan></text>
  <image width="1192" height="244" transform="translate(182.3 958.7) scale(.5)" xlink:href="../../../../../../../../Desktop/Bildschirmfoto 2024-12-30 um 23.16.42.png"/>
  <path class="st25" d="M383.9,842.4h416.8v28.3h-416.8c-7.8,0-14.2-6.3-14.2-14.2h0c0-7.8,6.3-14.2,14.2-14.2Z"/>
  <rect class="st33" x="368.5" y="842.4" width="193.2" height="28.3" rx="14.2" ry="14.2"/>
  <g>
    <g>
      <path class="st33" d="M792.7,875.5c-15.2,0-28.1-11.8-29.4-27v-.5s-.4-29.1-.4-29.1c0-4.2,3.4-7.5,7.5-7.5s2.9.4,4.2,1.3l3.5,2.3,9.2-10.7c1.4-1.7,3.5-2.6,5.7-2.6s4.6,1.1,6,3.1l19.1,26.4.3.4c2.5,4.4,3.8,9.4,3.8,14.5,0,16.3-13.2,29.5-29.5,29.5Z"/>
      <path class="st18" d="M793,804.5c1.4,0,2.7.6,3.6,1.8l19.1,26.3v.2c2.3,3.9,3.6,8.3,3.6,13.1,0,14.6-11.9,26.5-26.5,26.5s-25.2-10.6-26.4-24.2v-.4s-.4-29.1-.4-29.1c0-2.6,2.2-4.5,4.5-4.5.8,0,1.7.2,2.5.8l5.7,3.8,10.9-12.8c.9-1.1,2.2-1.6,3.4-1.6M793,798.5c-3.1,0-6,1.3-8,3.7l-7.4,8.7-1.2-.8c-1.8-1.2-3.8-1.8-5.9-1.8-2.7,0-5.3,1-7.3,2.9-2.1,2-3.2,4.7-3.2,7.6h0s0,0,0,0l.4,29.1h0c0,0,0,.1,0,.1v.4s0,.1,0,.1h0c.7,8.2,4.4,15.7,10.3,21.3,6,5.6,13.8,8.6,22,8.6,17.9,0,32.5-14.6,32.5-32.5s-1.5-11.2-4.2-16h0c0-.1,0-.3,0-.3v-.2c-.1,0-.2-.1-.2-.1h-.1c0-.1-19.1-26.5-19.1-26.5-2-2.7-5.2-4.3-8.5-4.3h0Z"/>
    </g>
    <path class="st7" d="M801,843.7c-.6-.6-1-1.3-1.5-2l-4.2-6.3c-.9-1.4-2.9-1.4-3.8,0l-4.3,6.1c-.4.6-.8,1.2-1.4,1.7-2.2,2.1-3.5,5.7-3.4,8.9.1,5.7,4.8,10.4,10.5,10.7,6.2.3,11.4-4.7,11.4-10.9s-1.3-6.1-3.2-8.2Z"/>
  </g>
  <text class="st22" transform="translate(373.4 828.2)"><tspan x="0" y="0">Mo</tspan></text>
  <text class="st22" transform="translate(431 828.2)"><tspan x="0" y="0">Tu</tspan></text>
  <text class="st22" transform="translate(488.6 828.2)"><tspan x="0" y="0">We</tspan></text>
  <text class="st22" transform="translate(546.1 828.2)"><tspan x="0" y="0">Th</tspan></text>
  <text class="st22" transform="translate(603.7 828.2)"><tspan x="0" y="0">Fr</tspan></text>
  <text class="st22" transform="translate(661.3 828.2)"><tspan x="0" y="0">Sa</tspan></text>
  <text class="st22" transform="translate(718.9 828.2)"><tspan x="0" y="0">Su</tspan></text>
  <path class="st34" d="M554.9,833.1l5.3,16.2c.3.9,1,1.6,1.9,1.9l16.2,5.3-16.2,5.3c-.9.3-1.6,1-1.9,1.9l-5.3,16.2-5.3-16.2c-.3-.9-1-1.6-1.9-1.9l-16.2-5.3,16.2-5.3c.9-.3,1.6-1,1.9-1.9l5.3-16.2Z"/>
  <image width="322" height="388" transform="translate(126 793.1) scale(.3)" xlink:href="../../../../../../../../Desktop/Bildschirmfoto 2024-12-30 um 23.21.30.png"/>
  <text class="st2" transform="translate(355.8 780.4)"><tspan x="0" y="0">examples in duolingo are:</tspan></text>
  <text class="st6" transform="translate(326 210.3)"><tspan x="0" y="0">examples in duolingo are:</tspan></text>
  <text class="st2" transform="translate(711.9 907.8)"><tspan x="0" y="0">the streak</tspan></text>
  <text class="st2" transform="translate(662 977.9)"><tspan x="0" y="0">rankings</tspan></text>
  <text class="st2" transform="translate(584.3 1148.5)"><tspan x="0" y="0">notifications</tspan></text>
  <text class="st2" transform="translate(137.8 948.2)"><tspan x="0" y="0">rewards</tspan></text>
  <image width="322" height="366" transform="translate(246.8 359.6) scale(.5)" xlink:href="../../../../../../../../Desktop/Bildschirmfoto 2024-12-30 um 23.25.26.png"/>
  <image width="1250" height="212" transform="translate(117.1 252.9) scale(.4)" xlink:href="../../../../../../../../Desktop/Bildschirmfoto 2024-12-30 um 23.27.55.png"/>
  <g class="st37">
    <g>
      <rect class="st20" x="720.2" y="488.4" width="86.3" height="6.7" rx="3.3" ry="3.3"/>
      <path class="st8" d="M774.3,423.2h19.1c1.9,0,3.4,1.5,3.4,3.4v48.9c0,1.9-1.5,3.4-3.4,3.4h-19.1c-1.9,0-3.4-1.5-3.4-3.4v-48.9c0-1.9,1.5-3.4,3.4-3.4Z"/>
      <path class="st8" d="M753.5,422l18.4,4.9c1.8.5,2.9,2.3,2.4,4.1l-12,44.8c-.5,1.8-2.3,2.9-4.1,2.4l-18.4-4.9c-1.8-.5-2.9-2.3-2.4-4.1l12-44.8c.5-1.8,2.3-2.9,4.1-2.4Z"/>
      <path class="st26" d="M798.2,481.5h-20.9c-1.9,0-3.4,1.5-3.4,3.4s1.5,3.4,3.4,3.4h20.9c1.9,0,3.4-1.5,3.4-3.4s-1.5-3.4-3.4-3.4Z"/>
      <path class="st26" d="M749.3,481.5h-20.9c-1.9,0-3.4,1.5-3.4,3.4s1.5,3.4,3.4,3.4h20.9c1.9,0,3.4-1.5,3.4-3.4s-1.5-3.4-3.4-3.4Z"/>
      <path class="st32" d="M805.5,354.2c3.6,0,6.5-2.9,6.5-6.5s-2.9-6.5-6.5-6.5-6.5,2.9-6.5,6.5,2.9,6.5,6.5,6.5Z"/>
      <path class="st24" d="M770.4,348.6c12,0,21.7-9.7,21.7-21.7s-9.7-21.7-21.7-21.7h-20.3c-12,0-21.7,9.7-21.7,21.7s9.7,21.7,21.7,21.7h20.3Z"/>
      <g class="st1">
        <g>
          <path class="st32" d="M784.7,326h-30c-12.1,0-22,9.8-22,22v1.2c0,12.1,9.8,22,22,22h30c12.1,0,22-9.8,22-22v-1.2c0-12.1-9.8-22-22-22Z"/>
          <path class="st21" d="M828.9,325.9c0-10.2-8.3-18.5-18.5-18.5s-18.5,8.3-18.5,18.5v1.6c0,10.2,8.3,18.5,18.5,18.5s18.5-8.3,18.5-18.5v-1.6Z"/>
        </g>
      </g>
      <path class="st10" d="M742.4,413.2h54.4v13.2h-54.4v-13.2Z"/>
      <path class="st13" d="M768.4,330.9c4,0,7.3,3.3,7.3,7.3v4.5c0,4-3.3,7.3-7.3,7.3s-7.3-3.3-7.3-7.3v-4.5c0-4,3.3-7.3,7.3-7.3Z"/>
      <path class="st9" d="M768.4,333.5c4,0,7.3,3.3,7.3,7.3v4.5c0,4-3.3,7.3-7.3,7.3s-7.3-3.3-7.3-7.3v-4.5c0-4,3.3-7.3,7.3-7.3Z"/>
      <path class="st11" d="M768.9,337.9c1.8,0,3.3,1.5,3.3,3.3v4.1c0,1.8-1.5,3.3-3.3,3.3s-3.3-1.5-3.3-3.3v-4.1c0-1.8,1.5-3.3,3.3-3.3Z"/>
      <path class="st13" d="M785.7,330.9c-4,0-7.3,3.3-7.3,7.3v4.5c0,4,3.3,7.3,7.3,7.3s7.3-3.3,7.3-7.3v-4.5c0-4-3.3-7.3-7.3-7.3Z"/>
      <path class="st9" d="M785.7,333.5c-4,0-7.3,3.3-7.3,7.3v4.5c0,4,3.3,7.3,7.3,7.3s7.3-3.3,7.3-7.3v-4.5c0-4-3.3-7.3-7.3-7.3Z"/>
      <path class="st18" d="M767.7,341.4c-1.4,0-2.6-1.1-2.6-2.6s1.1-2.6,2.6-2.6,2.6,1.1,2.6,2.6-1.1,2.6-2.6,2.6Z"/>
      <g class="st28">
        <g>
          <path class="st24" d="M782.5,337.9c-1.8,0-3.3,1.5-3.3,3.3v4.1c0,1.8,1.5,3.3,3.3,3.3s3.3-1.5,3.3-3.3v-4.1c0-1.8-1.5-3.3-3.3-3.3Z"/>
          <path class="st18" d="M780.6,341.4c1.5,0,2.6-1.2,2.6-2.6s-1.2-2.6-2.6-2.6-2.6,1.2-2.6,2.6,1.2,2.6,2.6,2.6Z"/>
        </g>
      </g>
      <path class="st13" d="M785.6,332.2c-4,0-7.3,3.3-7.3,7.3v2.4h14.6v-2.4c0-4-3.3-7.3-7.3-7.3Z"/>
      <path class="st13" d="M768.4,332.2c-4,0-7.3,3.3-7.3,7.3v2.4h14.6v-2.4c0-4-3.3-7.3-7.3-7.3Z"/>
      <path class="st13" d="M777.5,356c1.7,0,3.1-1.4,3.1-3.1s-3.1-5.7-3.1-5.7c0,0-3.1,4-3.1,5.7s1.4,3.1,3.1,3.1Z"/>
      <g class="st27">
        <g>
          <path class="st18" d="M769.4,442.7c17.8,0,32.2-14.4,32.2-32.2s-14.4-32.2-32.2-32.2-32.2,14.4-32.2,32.2,14.4,32.2,32.2,32.2Z"/>
          <path class="st16" d="M809.3,447.3h-82.2v-37.3h82.2v37.3Z"/>
        </g>
      </g>
      <path class="st15" d="M757.9,366.7h23.6v14c0,6.5-5.3,11.8-11.8,11.8s-11.8-5.3-11.8-11.8v-14Z"/>
      <path class="st24" d="M771.3,328.9v-1.5c0-9.4-7.7-17.1-17.1-17.1h-8.7c-9.4,0-17.1,7.7-17.1,17.1v1.5c0,9.4,7.7,17.1,17.1,17.1h8.7c9.4,0,17.1-7.7,17.1-17.1Z"/>
      <path class="st12" d="M757.8,380.4v33.9s0,0,0,0v54.2h-21.6c-1.3,0-2.3-1-2.3-2.3v-51.9h0c0-15.7,10-29,23.9-33.9Z"/>
      <path class="st32" d="M734.9,354.2c3.6,0,6.5-2.9,6.5-6.5s-2.9-6.5-6.5-6.5-6.5,2.9-6.5,6.5,2.9,6.5,6.5,6.5Z"/>
      <path class="st31" d="M735.6,357.6c1.7,0,3.1-1.4,3.1-3.1s-1.4-3.1-3.1-3.1-3.1,1.4-3.1,3.1,1.4,3.1,3.1,3.1Z"/>
      <path class="st9" d="M781.4,468.5h2.8c1.3,0,2.3-1,2.3-2.3v-52c0-15.6-2.1-28.9-5.1-33.8v88.1Z"/>
      <path class="st8" d="M780.8,410h5.8v60h-5.8v-60Z"/>
      <path class="st12" d="M757.7,468.5h2.8c1.3,0,2.3-1,2.3-2.3v-52c0-15.6-2.1-28.9-5.1-33.8v88.1Z"/>
      <path class="st14" d="M759.8,427.9l-21.2,8.1v5.1c0,3.6,3,6.6,6.6,6.6s.4,0,.5,0l8-.7c3.4-.3,6.1-3.1,6.1-6.6v-12.5Z"/>
      <path class="st31" d="M753.4,403l-10.3,13.2c-2.7,3.5-7.8,4.1-11.3,1.4-3.5-2.7-4.1-7.8-1.4-11.3l10.3-13.2c2.7-3.5,7.8-4.1,11.3-1.4,3.5,2.7,4.1,7.8,1.4,11.3Z"/>
      <path class="st31" d="M715.3,398.4l10.7,17.1c2.4,3.8,7.4,4.9,11.1,2.6,3.8-2.4,4.9-7.4,2.6-11.1l-10.7-17.1c-2.4-3.8-7.4-4.9-11.1-2.6-3.8,2.4-4.9,7.4-2.6,11.1Z"/>
      <path class="st32" d="M721.3,401.2l-4.8-.2c-4.5-.2-8-3.9-7.8-8.4.2-4.5,3.9-8,8.4-7.8l4.8.2c4.5.2,8,3.9,7.8,8.4-.2,4.5-3.9,8-8.4,7.8Z"/>
      <path class="st32" d="M720.2,391.2l-16.5-.6c-1.7,0-3-1.5-2.9-3.1,0-1.7,1.5-3,3.1-2.9l16.5.6c1.7,0,3,1.5,2.9,3.1,0,1.7-1.5,3-3.1,2.9Z"/>
      <path class="st32" d="M721,392.2l.4-11.3c0-1.7,1.5-3,3.1-2.9,1.7,0,3,1.5,2.9,3.1l-.4,11.3c0,1.7-1.5,3-3.1,2.9-1.7,0-3-1.5-2.9-3.1Z"/>
      <path class="st32" d="M765.9,374.4l-.9.5c-5,2.9-6.7,9.3-3.8,14.3l1.2,2.2c2.9,5,9.3,6.7,14.3,3.8l.9-.5c5-2.9,6.7-9.3,3.8-14.3l-1.2-2.2c-2.9-5-9.3-6.7-14.3-3.8Z"/>
      <path class="st23" d="M762.3,353.4c2.5-.8,5.1.4,6.2,2.7.7.8,1.5,1.6,2.7,1.9.3,0,.6,0,1,.1h0c2.7.3,4.7,2.7,4.5,5.5-.2,2.8-2.7,4.9-5.5,4.6-6.1-.5-10.5-3.4-12.2-8.5-.9-2.7.6-5.5,3.2-6.4Z"/>
      <path class="st35" d="M763.8,360.7c4,0,7.2,3.2,7.2,7.2s0,.3,0,.4c-5.1-.5-9-2.7-11.1-6.5,1.1-.7,2.4-1.1,3.9-1.1Z"/>
      <path class="st12" d="M785.9,389.9c-3.5,3.4-3.6,8.9-.2,12.4l16.4,19.1c3.4,3.5,8.9,3.6,12.4.2,3.5-3.4,3.6-8.9.2-12.4l-19.4-20.1c-3.4-3.5-6-2.6-9.5.8Z"/>
      <path class="st12" d="M793.5,387.5c7.2,6.4,12.9,15.7,12.9,26.1v.8h-.1v.8h-.1v.8h-.1v.8h0v.7h0v.7h0v.5h0v.7h0v.6h0v.6h0v.6h0v.6h0v.2h0v.4h0v.4h0v.2h0v.3h0v.2h0v.3h0v.2h0v.3h0v.2h0v.2h0v.2h0v.2h0c0,.1,0,.4,0,.4h0v35.8c0,3-2.4,5.4-5.4,5.4h-18.2v-86.1c4.4,1.5,8.5,3.9,11.9,7Z"/>
      <path class="st15" d="M792.8,419.9l.7-.4c4.2-2.4,9.6-1,12,3.2,2.4,4.2,1,9.6-3.2,12l-.7.4c-4.2,2.4-9.6,1-12-3.2-2.4-4.2-1-9.6,3.2-12Z"/>
      <path class="st12" d="M805.8,431.7l-12.9-12,9.3-10c3.3-3.6,8.9-3.8,12.4-.4,3.6,3.3,3.7,8.9.4,12.4l-9.3,10Z"/>
      <path class="st14" d="M784.6,424.5l20.7,7.9v5c0,3.6-2.9,6.4-6.4,6.4s-.4,0-.5,0l-7.8-.6c-3.3-.3-5.9-3.1-5.9-6.4v-12.2Z"/>
      <path class="st15" d="M787,424.2l3.5-2.5c1.4-1,3.3-.7,4.3.7,1,1.4.7,3.3-.7,4.3l-3.5,2.5c-1.4,1-3.3.7-4.3-.7-1-1.4-.7-3.3.7-4.3Z"/>
    </g>
  </g>
  <text class="st6" transform="translate(215.9 542.6)"><tspan x="0" y="0">enjoying the prozess</tspan><tspan x="30.6" y="28.8">(e.g animation)</tspan></text>
  <text class="st6" transform="translate(386 347.6)"><tspan x="0" y="0">personal growth</tspan></text>
  <text class="st6" transform="translate(554.2 417.8)"><tspan x="0" y="0">Satisfaction </tspan><tspan x="-16.3" y="28.8">from improving</tspan><tspan x="-18" y="57.6" xml:space="preserve"> language skills</tspan></text>
  <g>
    <g id="aq9DQ5.tif">
      <g>
        <path class="st36" d="M783.5,1064c1.2,1.1,1.3,4.8,2.5,5.6s9.3,2,9.3,3.9c-22.4,15.1-10.2,47.5,16.4,44.8.7,6.7,1.6,14.4,7,19.1,2,1.7,4,2.5,5.3,3.8,2.4,2.5.6,6.8-3,6.8l-80.9.4c-4.2,0-6.2-5.1-3.1-7.9,2-1.8,5-3.1,6.8-5.4,8.4-10.8,3.2-32.1,7.2-45,2.8-8.7,8.9-14.9,17.1-18.6,1.6-.7,5.1-1.2,6.1-1.9,1.4-1,.8-4.4,2.8-5.8s4.9-1.2,6.4.1Z"/>
        <path class="st36" d="M794.6,1153.4c-1.1,19.8-29.6,19.8-31.2,0h31.2Z"/>
      </g>
    </g>
    <circle class="st4" cx="809.2" cy="1093.6" r="20"/>
    <text class="st5" transform="translate(802 1102.8)"><tspan x="0" y="0">1</tspan></text>
  </g>
</svg>